<?xml version="1.0" standalone="no"?>
<!DOCTYPE svg PUBLIC "-//W3C//DTD SVG 1.1//EN" "http://www.w3.org/Graphics/SVG/1.1/DTD/svg11.dtd" >
<svg xmlns="http://www.w3.org/2000/svg" xmlns:xlink="http://www.w3.org/1999/xlink" version="1.1">
<metadata>
Created by FontForge 20201107 at Thu Nov  3 19:09:09 2022
 By 
Copyright 2022 The Alexandria Project Authors (https://github.com/Gue3bara/Alexandria)
</metadata>
<defs>
<font id="Alexandria-ExtraBold" horiz-adv-x="0" >
  <font-face 
    font-family="Alexandria ExtraBold"
    font-weight="800"
    font-stretch="normal"
    units-per-em="1000"
    panose-1="0 0 0 0 0 0 0 0 0 0"
    ascent="800"
    descent="-200"
    x-height="544"
    cap-height="701"
    bbox="-248 -593 1740 1298"
    underline-thickness="50"
    underline-position="-125"
    unicode-range="U+000D-FEFC"
  />
<missing-glyph horiz-adv-x="587" 
d="M40 0v700h507v-700h-507zM120 70h347v560h-347v-560z" />
    <glyph glyph-name="fi" unicode="fi" horiz-adv-x="735" 
d="M98 566q0 58 27.5 99.5t76.5 64t113 21.5q31 0 62 -5.5t58 -14.5l-22 -150q-16 5 -30.5 9t-27.5 4q-17 0 -29.5 -6t-20 -17.5t-7.5 -28.5v-542h-200v566zM24 516h387v-129h-387v129zM472 544h202v-544h-202v544zM574 803q46 0 75 -29.5t29 -74.5q0 -46 -29 -75t-75 -29
q-45 0 -74.5 29t-29.5 75q0 45 29.5 74.5t74.5 29.5z" />
    <glyph glyph-name="fl" unicode="fl" horiz-adv-x="772" 
d="M98 566q0 58 27.5 99.5t76.5 64t113 21.5q31 0 62 -5.5t58 -14.5l-22 -150q-16 5 -30.5 9t-27.5 4q-17 0 -29.5 -6t-20 -17.5t-7.5 -28.5v-542h-200v566zM24 516h387v-129h-387v129zM504 742h202v-742h-202v742z" />
    <glyph glyph-name="uniFC64" unicode="&#xfe8c;&#xfeae;" horiz-adv-x="836" arabic-form="final" 
d="M836 0v202q9 0 14.5 -27.5t5.5 -72.5q0 -46 -5.5 -74t-14.5 -28zM802 0q-85 0 -144.5 34t-91.5 98.5t-32 153.5v239h173v-239q0 -33 8 -51t28.5 -25.5t58.5 -7.5h34v-202h-34zM410 223q-73 0 -143 10.5t-135 29.5v210q58 -24 129.5 -36t148.5 -12q78 0 148 12.5t129 36.5
v-211q-65 -19 -134 -29.5t-143 -10.5zM0 -97q52 2 80.5 12t40 28.5t11.5 46.5v535h174v-535q0 -82 -33.5 -143t-94.5 -96t-146 -40zM665 647q-75 0 -122 29t-47 84q0 39 22.5 67.5t59 44t78.5 15.5q26 0 50.5 -5.5t46.5 -17.5l-37 -80q-12 2 -26 4t-26 2q-38 0 -60.5 -11.5
t-22.5 -25.5q0 -13 22.5 -24.5t61.5 -11.5v-70zM471 619v98h297v-98h-297z" />
    <glyph glyph-name="uniFC65" unicode="&#xfe8c;&#xfeb0;" horiz-adv-x="836" arabic-form="final" 
d="M836 0v202q9 0 14.5 -27.5t5.5 -72.5q0 -46 -5.5 -74t-14.5 -28zM802 0q-85 0 -144.5 34t-91.5 98.5t-32 153.5v239h173v-239q0 -33 8 -51t28.5 -25.5t58.5 -7.5h34v-202h-34zM410 223q-73 0 -143 10.5t-135 29.5v210q58 -24 129.5 -36t148.5 -12q78 0 148 12.5t129 36.5
v-211q-65 -19 -134 -29.5t-143 -10.5zM0 -97q52 2 80.5 12t40 28.5t11.5 46.5v535h174v-535q0 -82 -33.5 -143t-94.5 -96t-146 -40zM665 647q-75 0 -122 29t-47 84q0 39 22.5 67.5t59 44t78.5 15.5q26 0 50.5 -5.5t46.5 -17.5l-37 -80q-12 2 -26 4t-26 2q-38 0 -60.5 -11.5
t-22.5 -25.5q0 -13 22.5 -24.5t61.5 -11.5v-70zM471 619v98h297v-98h-297zM219 636q-42 0 -69 27t-27 69t27 69t69 27q43 0 69.5 -27t26.5 -69t-26.5 -69t-69.5 -27z" />
    <glyph glyph-name="uniFC67" unicode="&#xfe8c;&#xfee6;" horiz-adv-x="1356" arabic-form="final" 
d="M1356 0v202q8 0 14 -27.5t6 -72.5q0 -46 -6 -74t-14 -28zM1321 0q-84 0 -144 34t-92 98.5t-32 153.5v239h174v-239q0 -33 7.5 -51t28 -25.5t58.5 -7.5h35v-202h-35zM929 223q-73 0 -142.5 10.5t-135.5 29.5v210q58 -24 130 -36t148 -12q78 0 148 12.5t130 36.5v-211
q-65 -19 -134.5 -29.5t-143.5 -10.5zM424 -285q-97 0 -169 33.5t-119.5 93.5t-71.5 139.5t-24 171.5q0 36 4 72.5t12 71.5l168 -31q-6 -29 -8 -57t-2 -56q0 -76 21.5 -129t68 -80t120.5 -27t124.5 27t76.5 80t26 132v369h174v-369q0 -94 -26 -174t-77.5 -140t-126 -93.5
t-171.5 -33.5zM433 527q-42 0 -69 27t-27 69t27 69t69 27t69 -27t27 -69t-27 -69t-69 -27zM1186 647q-75 0 -122 29t-47 84q0 39 22.5 67.5t59 44t78.5 15.5q26 0 50.5 -5.5t46.5 -17.5l-37 -80q-12 2 -26 4t-26 2q-38 0 -60.5 -11.5t-22.5 -25.5q0 -13 22.5 -24.5
t61.5 -11.5v-70zM992 619v98h297v-98h-297z" />
    <glyph glyph-name="uniFC6A" unicode="&#xfe92;&#xfeae;" horiz-adv-x="836" arabic-form="final" 
d="M836 0v202q9 0 14.5 -27.5t5.5 -72.5q0 -46 -5.5 -74t-14.5 -28zM802 0q-85 0 -144.5 34t-91.5 98.5t-32 153.5v239h173v-239q0 -33 8 -51t28.5 -25.5t58.5 -7.5h34v-202h-34zM410 223q-73 0 -143 10.5t-135 29.5v210q58 -24 129.5 -36t148.5 -12q78 0 148 12.5t129 36.5
v-211q-65 -19 -134 -29.5t-143 -10.5zM0 -97q52 2 80.5 12t40 28.5t11.5 46.5v535h174v-535q0 -82 -33.5 -143t-94.5 -96t-146 -40zM620 -302q-42 0 -69 27t-27 69t27 69t69 27q43 0 69.5 -27t26.5 -69t-26.5 -69t-69.5 -27z" />
    <glyph glyph-name="uniFC6B" unicode="&#xfe92;&#xfeb0;" horiz-adv-x="836" arabic-form="final" 
d="M836 0v202q9 0 14.5 -27.5t5.5 -72.5q0 -46 -5.5 -74t-14.5 -28zM802 0q-85 0 -144.5 34t-91.5 98.5t-32 153.5v239h173v-239q0 -33 8 -51t28.5 -25.5t58.5 -7.5h34v-202h-34zM410 223q-73 0 -143 10.5t-135 29.5v210q58 -24 129.5 -36t148.5 -12q78 0 148 12.5t129 36.5
v-211q-65 -19 -134 -29.5t-143 -10.5zM0 -97q52 2 80.5 12t40 28.5t11.5 46.5v535h174v-535q0 -82 -33.5 -143t-94.5 -96t-146 -40zM620 -302q-42 0 -69 27t-27 69t27 69t69 27q43 0 69.5 -27t26.5 -69t-26.5 -69t-69.5 -27zM219 636q-42 0 -69 27t-27 69t27 69t69 27
q43 0 69.5 -27t26.5 -69t-26.5 -69t-69.5 -27z" />
    <glyph glyph-name="uniFC6D" unicode="&#xfe92;&#xfee6;" horiz-adv-x="1356" arabic-form="final" 
d="M1356 0v202q8 0 14 -27.5t6 -72.5q0 -46 -6 -74t-14 -28zM1321 0q-84 0 -144 34t-92 98.5t-32 153.5v239h174v-239q0 -33 7.5 -51t28 -25.5t58.5 -7.5h35v-202h-35zM929 223q-73 0 -142.5 10.5t-135.5 29.5v210q58 -24 130 -36t148 -12q78 0 148 12.5t130 36.5v-211
q-65 -19 -134.5 -29.5t-143.5 -10.5zM424 -285q-97 0 -169 33.5t-119.5 93.5t-71.5 139.5t-24 171.5q0 36 4 72.5t12 71.5l168 -31q-6 -29 -8 -57t-2 -56q0 -76 21.5 -129t68 -80t120.5 -27t124.5 27t76.5 80t26 132v369h174v-369q0 -94 -26 -174t-77.5 -140t-126 -93.5
t-171.5 -33.5zM433 527q-42 0 -69 27t-27 69t27 69t69 27t69 -27t27 -69t-27 -69t-69 -27zM1140 -302q-42 0 -69 27t-27 69t27 69t69 27q43 0 69.5 -27t26.5 -69t-26.5 -69t-69.5 -27z" />
    <glyph glyph-name="uniFC70" unicode="&#xfe98;&#xfeae;" horiz-adv-x="836" arabic-form="final" 
d="M836 0v202q9 0 14.5 -27.5t5.5 -72.5q0 -46 -5.5 -74t-14.5 -28zM802 0q-85 0 -144.5 34t-91.5 98.5t-32 153.5v239h173v-239q0 -33 8 -51t28.5 -25.5t58.5 -7.5h34v-202h-34zM410 223q-73 0 -143 10.5t-135 29.5v210q58 -24 129.5 -36t148.5 -12q78 0 148 12.5t129 36.5
v-211q-65 -19 -134 -29.5t-143 -10.5zM0 -97q52 2 80.5 12t40 28.5t11.5 46.5v535h174v-535q0 -82 -33.5 -143t-94.5 -96t-146 -40zM707 616q-33 0 -54.5 21t-21.5 54q0 34 21.5 55.5t54.5 21.5q34 0 55 -21.5t21 -55.5q0 -33 -21 -54t-55 -21zM533 616q-33 0 -54.5 21
t-21.5 54q0 34 21.5 55.5t54.5 21.5q34 0 55.5 -21.5t21.5 -55.5q0 -33 -21.5 -54t-55.5 -21z" />
    <glyph glyph-name="uniFC71" unicode="&#xfe98;&#xfeb0;" horiz-adv-x="836" arabic-form="final" 
d="M836 0v202q9 0 14.5 -27.5t5.5 -72.5q0 -46 -5.5 -74t-14.5 -28zM802 0q-85 0 -144.5 34t-91.5 98.5t-32 153.5v239h173v-239q0 -33 8 -51t28.5 -25.5t58.5 -7.5h34v-202h-34zM410 223q-73 0 -143 10.5t-135 29.5v210q58 -24 129.5 -36t148.5 -12q78 0 148 12.5t129 36.5
v-211q-65 -19 -134 -29.5t-143 -10.5zM0 -97q52 2 80.5 12t40 28.5t11.5 46.5v535h174v-535q0 -82 -33.5 -143t-94.5 -96t-146 -40zM707 616q-33 0 -54.5 21t-21.5 54q0 34 21.5 55.5t54.5 21.5q34 0 55 -21.5t21 -55.5q0 -33 -21 -54t-55 -21zM533 616q-33 0 -54.5 21
t-21.5 54q0 34 21.5 55.5t54.5 21.5q34 0 55.5 -21.5t21.5 -55.5q0 -33 -21.5 -54t-55.5 -21zM219 636q-42 0 -69 27t-27 69t27 69t69 27q43 0 69.5 -27t26.5 -69t-26.5 -69t-69.5 -27z" />
    <glyph glyph-name="uniFC73" unicode="&#xfe98;&#xfee6;" horiz-adv-x="1356" arabic-form="final" 
d="M1356 0v202q8 0 14 -27.5t6 -72.5q0 -46 -6 -74t-14 -28zM1321 0q-84 0 -144 34t-92 98.5t-32 153.5v239h174v-239q0 -33 7.5 -51t28 -25.5t58.5 -7.5h35v-202h-35zM929 223q-73 0 -142.5 10.5t-135.5 29.5v210q58 -24 130 -36t148 -12q78 0 148 12.5t130 36.5v-211
q-65 -19 -134.5 -29.5t-143.5 -10.5zM424 -285q-97 0 -169 33.5t-119.5 93.5t-71.5 139.5t-24 171.5q0 36 4 72.5t12 71.5l168 -31q-6 -29 -8 -57t-2 -56q0 -76 21.5 -129t68 -80t120.5 -27t124.5 27t76.5 80t26 132v369h174v-369q0 -94 -26 -174t-77.5 -140t-126 -93.5
t-171.5 -33.5zM433 527q-42 0 -69 27t-27 69t27 69t69 27t69 -27t27 -69t-27 -69t-69 -27zM1227 616q-33 0 -54.5 21t-21.5 54q0 34 21.5 55.5t54.5 21.5q34 0 55 -21.5t21 -55.5q0 -33 -21 -54t-55 -21zM1053 616q-33 0 -54.5 21t-21.5 54q0 34 21.5 55.5t54.5 21.5
q34 0 55.5 -21.5t21.5 -55.5q0 -33 -21.5 -54t-55.5 -21z" />
    <glyph glyph-name="uniFC76" unicode="&#xfe9c;&#xfeae;" horiz-adv-x="836" arabic-form="final" 
d="M836 0v202q9 0 14.5 -27.5t5.5 -72.5q0 -46 -5.5 -74t-14.5 -28zM802 0q-85 0 -144.5 34t-91.5 98.5t-32 153.5v239h173v-239q0 -33 8 -51t28.5 -25.5t58.5 -7.5h34v-202h-34zM410 223q-73 0 -143 10.5t-135 29.5v210q58 -24 129.5 -36t148.5 -12q78 0 148 12.5t129 36.5
v-211q-65 -19 -134 -29.5t-143 -10.5zM0 -97q52 2 80.5 12t40 28.5t11.5 46.5v535h174v-535q0 -82 -33.5 -143t-94.5 -96t-146 -40zM620 921q32 0 52.5 -20.5t20.5 -51.5q0 -33 -20.5 -53.5t-52.5 -20.5t-53 20.5t-21 53.5q0 31 21 51.5t53 20.5zM707 768q33 0 54.5 -21
t21.5 -54t-21.5 -55t-54.5 -22t-54.5 22t-21.5 55t21.5 54t54.5 21zM533 768q33 0 55 -21t22 -54t-22 -55t-55 -22t-54.5 22t-21.5 55t21.5 54t54.5 21z" />
    <glyph glyph-name="uniFC77" unicode="&#xfe9c;&#xfeb0;" horiz-adv-x="836" arabic-form="final" 
d="M836 0v202q9 0 14.5 -27.5t5.5 -72.5q0 -46 -5.5 -74t-14.5 -28zM802 0q-85 0 -144.5 34t-91.5 98.5t-32 153.5v239h173v-239q0 -33 8 -51t28.5 -25.5t58.5 -7.5h34v-202h-34zM410 223q-73 0 -143 10.5t-135 29.5v210q58 -24 129.5 -36t148.5 -12q78 0 148 12.5t129 36.5
v-211q-65 -19 -134 -29.5t-143 -10.5zM0 -97q52 2 80.5 12t40 28.5t11.5 46.5v535h174v-535q0 -82 -33.5 -143t-94.5 -96t-146 -40zM620 921q32 0 52.5 -20.5t20.5 -51.5q0 -33 -20.5 -53.5t-52.5 -20.5t-53 20.5t-21 53.5q0 31 21 51.5t53 20.5zM707 768q33 0 54.5 -21
t21.5 -54t-21.5 -55t-54.5 -22t-54.5 22t-21.5 55t21.5 54t54.5 21zM533 768q33 0 55 -21t22 -54t-22 -55t-55 -22t-54.5 22t-21.5 55t21.5 54t54.5 21zM219 636q-42 0 -69 27t-27 69t27 69t69 27q43 0 69.5 -27t26.5 -69t-26.5 -69t-69.5 -27z" />
    <glyph glyph-name="uniFC79" unicode="&#xfe9c;&#xfee6;" horiz-adv-x="1356" arabic-form="final" 
d="M1356 0v202q8 0 14 -27.5t6 -72.5q0 -46 -6 -74t-14 -28zM1321 0q-84 0 -144 34t-92 98.5t-32 153.5v239h174v-239q0 -33 7.5 -51t28 -25.5t58.5 -7.5h35v-202h-35zM929 223q-73 0 -142.5 10.5t-135.5 29.5v210q58 -24 130 -36t148 -12q78 0 148 12.5t130 36.5v-211
q-65 -19 -134.5 -29.5t-143.5 -10.5zM424 -285q-97 0 -169 33.5t-119.5 93.5t-71.5 139.5t-24 171.5q0 36 4 72.5t12 71.5l168 -31q-6 -29 -8 -57t-2 -56q0 -76 21.5 -129t68 -80t120.5 -27t124.5 27t76.5 80t26 132v369h174v-369q0 -94 -26 -174t-77.5 -140t-126 -93.5
t-171.5 -33.5zM433 527q-42 0 -69 27t-27 69t27 69t69 27t69 -27t27 -69t-27 -69t-69 -27zM1140 921q32 0 52.5 -20.5t20.5 -51.5q0 -33 -20.5 -53.5t-52.5 -20.5t-53 20.5t-21 53.5q0 31 21 51.5t53 20.5zM1227 768q33 0 54.5 -21t21.5 -54t-21.5 -55t-54.5 -22t-54.5 22
t-21.5 55t21.5 54t54.5 21zM1053 768q33 0 55 -21t22 -54t-22 -55t-55 -22t-54.5 22t-21.5 55t21.5 54t54.5 21z" />
    <glyph glyph-name="uniFC8A" unicode="&#xfee8;&#xfeae;" horiz-adv-x="836" arabic-form="final" 
d="M836 0v202q9 0 14.5 -27.5t5.5 -72.5q0 -46 -5.5 -74t-14.5 -28zM802 0q-85 0 -144.5 34t-91.5 98.5t-32 153.5v239h173v-239q0 -33 8 -51t28.5 -25.5t58.5 -7.5h34v-202h-34zM410 223q-73 0 -143 10.5t-135 29.5v210q58 -24 129.5 -36t148.5 -12q78 0 148 12.5t129 36.5
v-211q-65 -19 -134 -29.5t-143 -10.5zM0 -97q52 2 80.5 12t40 28.5t11.5 46.5v535h174v-535q0 -82 -33.5 -143t-94.5 -96t-146 -40zM620 636q-42 0 -69 27t-27 69t27 69t69 27q43 0 69.5 -27t26.5 -69t-26.5 -69t-69.5 -27z" />
    <glyph glyph-name="uniFC8B" unicode="&#xfee8;&#xfeb0;" horiz-adv-x="836" arabic-form="final" 
d="M836 0v202q9 0 14.5 -27.5t5.5 -72.5q0 -46 -5.5 -74t-14.5 -28zM802 0q-85 0 -144.5 34t-91.5 98.5t-32 153.5v239h173v-239q0 -33 8 -51t28.5 -25.5t58.5 -7.5h34v-202h-34zM410 223q-73 0 -143 10.5t-135 29.5v210q58 -24 129.5 -36t148.5 -12q78 0 148 12.5t129 36.5
v-211q-65 -19 -134 -29.5t-143 -10.5zM0 -97q52 2 80.5 12t40 28.5t11.5 46.5v535h174v-535q0 -82 -33.5 -143t-94.5 -96t-146 -40zM620 636q-42 0 -69 27t-27 69t27 69t69 27q43 0 69.5 -27t26.5 -69t-26.5 -69t-69.5 -27zM219 636q-42 0 -69 27t-27 69t27 69t69 27
q43 0 69.5 -27t26.5 -69t-26.5 -69t-69.5 -27z" />
    <glyph glyph-name="uniFC8D" unicode="&#xfee8;&#xfee6;" horiz-adv-x="1356" arabic-form="final" 
d="M1356 0v202q8 0 14 -27.5t6 -72.5q0 -46 -6 -74t-14 -28zM1321 0q-84 0 -144 34t-92 98.5t-32 153.5v239h174v-239q0 -33 7.5 -51t28 -25.5t58.5 -7.5h35v-202h-35zM929 223q-73 0 -142.5 10.5t-135.5 29.5v210q58 -24 130 -36t148 -12q78 0 148 12.5t130 36.5v-211
q-65 -19 -134.5 -29.5t-143.5 -10.5zM424 -285q-97 0 -169 33.5t-119.5 93.5t-71.5 139.5t-24 171.5q0 36 4 72.5t12 71.5l168 -31q-6 -29 -8 -57t-2 -56q0 -76 21.5 -129t68 -80t120.5 -27t124.5 27t76.5 80t26 132v369h174v-369q0 -94 -26 -174t-77.5 -140t-126 -93.5
t-171.5 -33.5zM433 527q-42 0 -69 27t-27 69t27 69t69 27t69 -27t27 -69t-27 -69t-69 -27zM1140 636q-42 0 -69 27t-27 69t27 69t69 27q43 0 69.5 -27t26.5 -69t-26.5 -69t-69.5 -27z" />
    <glyph glyph-name="uniFC91" unicode="&#xfef4;&#xfeae;" horiz-adv-x="836" arabic-form="final" 
d="M836 0v202q9 0 14.5 -27.5t5.5 -72.5q0 -46 -5.5 -74t-14.5 -28zM802 0q-85 0 -144.5 34t-91.5 98.5t-32 153.5v239h173v-239q0 -33 8 -51t28.5 -25.5t58.5 -7.5h34v-202h-34zM410 223q-73 0 -143 10.5t-135 29.5v210q58 -24 129.5 -36t148.5 -12q78 0 148 12.5t129 36.5
v-211q-65 -19 -134 -29.5t-143 -10.5zM0 -97q52 2 80.5 12t40 28.5t11.5 46.5v535h174v-535q0 -82 -33.5 -143t-94.5 -96t-146 -40zM707 -241q-33 0 -54.5 21.5t-21.5 54.5t21.5 54.5t54.5 21.5t54.5 -21.5t21.5 -54.5t-21.5 -54.5t-54.5 -21.5zM533 -241q-33 0 -54.5 21.5
t-21.5 54.5t21.5 54.5t54.5 21.5t55 -21.5t22 -54.5t-22 -54.5t-55 -21.5z" />
    <glyph glyph-name="uniFC92" unicode="&#xfef4;&#xfeb0;" horiz-adv-x="836" arabic-form="final" 
d="M836 0v202q9 0 14.5 -27.5t5.5 -72.5q0 -46 -5.5 -74t-14.5 -28zM802 0q-85 0 -144.5 34t-91.5 98.5t-32 153.5v239h173v-239q0 -33 8 -51t28.5 -25.5t58.5 -7.5h34v-202h-34zM410 223q-73 0 -143 10.5t-135 29.5v210q58 -24 129.5 -36t148.5 -12q78 0 148 12.5t129 36.5
v-211q-65 -19 -134 -29.5t-143 -10.5zM0 -97q52 2 80.5 12t40 28.5t11.5 46.5v535h174v-535q0 -82 -33.5 -143t-94.5 -96t-146 -40zM219 636q-42 0 -69 27t-27 69t27 69t69 27q43 0 69.5 -27t26.5 -69t-26.5 -69t-69.5 -27zM707 -241q-33 0 -54.5 21.5t-21.5 54.5t21.5 54.5
t54.5 21.5t54.5 -21.5t21.5 -54.5t-21.5 -54.5t-54.5 -21.5zM533 -241q-33 0 -54.5 21.5t-21.5 54.5t21.5 54.5t54.5 21.5t55 -21.5t22 -54.5t-22 -54.5t-55 -21.5z" />
    <glyph glyph-name="uniFC94" unicode="&#xfef4;&#xfee6;" horiz-adv-x="1356" arabic-form="final" 
d="M1356 0v202q8 0 14 -27.5t6 -72.5q0 -46 -6 -74t-14 -28zM1321 0q-84 0 -144 34t-92 98.5t-32 153.5v239h174v-239q0 -33 7.5 -51t28 -25.5t58.5 -7.5h35v-202h-35zM929 223q-73 0 -142.5 10.5t-135.5 29.5v210q58 -24 130 -36t148 -12q78 0 148 12.5t130 36.5v-211
q-65 -19 -134.5 -29.5t-143.5 -10.5zM424 -285q-97 0 -169 33.5t-119.5 93.5t-71.5 139.5t-24 171.5q0 36 4 72.5t12 71.5l168 -31q-6 -29 -8 -57t-2 -56q0 -76 21.5 -129t68 -80t120.5 -27t124.5 27t76.5 80t26 132v369h174v-369q0 -94 -26 -174t-77.5 -140t-126 -93.5
t-171.5 -33.5zM433 527q-42 0 -69 27t-27 69t27 69t69 27t69 -27t27 -69t-27 -69t-69 -27zM1227 -241q-33 0 -54.5 21.5t-21.5 54.5t21.5 54.5t54.5 21.5t54.5 -21.5t21.5 -54.5t-21.5 -54.5t-54.5 -21.5zM1053 -241q-33 0 -54.5 21.5t-21.5 54.5t21.5 54.5t54.5 21.5
t55 -21.5t22 -54.5t-22 -54.5t-55 -21.5z" />
    <glyph glyph-name="uniFD0D" unicode="&#xfeb7;&#xfeae;" horiz-adv-x="1452" arabic-form="isolated" 
d="M1136 0q-90 0 -144 26.5t-78.5 79t-28.5 127.5l112 46q1 -29 13.5 -46t42 -24t80.5 -7q37 0 57 7.5t28 26t8 50.5v239h174v-275q0 -125 -64 -187.5t-200 -62.5zM410 223q-73 0 -143 10.5t-135 29.5v210q58 -23 129.5 -35.5t148.5 -12.5q78 0 148 12.5t129 36.5v-211
q-65 -19 -134 -29.5t-143 -10.5zM801 0q-84 0 -143.5 34.5t-91.5 98.5t-32 153v239h173v-239q0 -32 8 -50.5t28 -26t58 -7.5v-202zM797 0l4 202q37 0 57 7.5t28 26t8 50.5v190h173v-226q0 -125 -64 -187.5t-206 -62.5zM0 -97q52 2 80.5 12t40 28.5t11.5 46.5v535h174v-535
q0 -82 -33.5 -143t-94.5 -96t-146 -40zM981 917q32 0 52.5 -20.5t20.5 -51.5q0 -33 -20.5 -53.5t-52.5 -20.5t-53 20.5t-21 53.5q0 31 21 51.5t53 20.5zM1068 764q33 0 54.5 -21t21.5 -54t-21.5 -55t-54.5 -22t-54.5 22t-21.5 55t21.5 54t54.5 21zM894 764q33 0 55 -21
t22 -54t-22 -55t-55 -22t-54.5 22t-21.5 55t21.5 54t54.5 21z" />
    <glyph glyph-name="uniFD0E" unicode="&#xfeb3;&#xfeae;" horiz-adv-x="1452" arabic-form="isolated" 
d="M1136 0q-90 0 -144 26.5t-78.5 79t-28.5 127.5l112 46q1 -29 13.5 -46t42 -24t80.5 -7q37 0 57 7.5t28 26t8 50.5v239h174v-275q0 -125 -64 -187.5t-200 -62.5zM410 223q-73 0 -143 10.5t-135 29.5v210q58 -23 129.5 -35.5t148.5 -12.5q78 0 148 12.5t129 36.5v-211
q-65 -19 -134 -29.5t-143 -10.5zM801 0q-84 0 -143.5 34.5t-91.5 98.5t-32 153v239h173v-239q0 -32 8 -50.5t28 -26t58 -7.5v-202zM797 0l4 202q37 0 57 7.5t28 26t8 50.5v190h173v-226q0 -125 -64 -187.5t-206 -62.5zM0 -97q52 2 80.5 12t40 28.5t11.5 46.5v535h174v-535
q0 -82 -33.5 -143t-94.5 -96t-146 -40z" />
    <glyph glyph-name="uniFD0F" unicode="&#xfebb;&#xfeae;" horiz-adv-x="1529" arabic-form="isolated" 
d="M413 223q-73 0 -143 10.5t-135 29.5v210q58 -23 129.5 -35.5t148.5 -12.5q78 0 148 12.5t129 36.5v-211q-65 -19 -134 -29.5t-143 -10.5zM804 0q-84 0 -143.5 34.5t-91.5 98.5t-32 153v237h173v-237q0 -32 8 -50.5t28 -26t58 -7.5h672v-202h-672zM1303 0v259
q0 51 -19 84.5t-52.5 50t-76.5 16.5q-40 0 -82 -15t-80 -42t-68 -67t-47.5 -90t-17.5 -109h-145q0 46 8.5 101t29 113.5t52.5 112.5t79.5 97t112 68.5t146.5 25.5q86 0 148.5 -28t103.5 -76.5t61 -110.5t20 -131v-259h-173zM0 -97q52 2 80.5 12t40 28.5t11.5 46.5v535h174
v-535q0 -82 -33.5 -143t-94.5 -96t-146 -40z" />
    <glyph glyph-name="uniFD10" unicode="&#xfebf;&#xfeae;" horiz-adv-x="1529" arabic-form="isolated" 
d="M413 223q-73 0 -143 10.5t-135 29.5v210q58 -23 129.5 -35.5t148.5 -12.5q78 0 148 12.5t129 36.5v-211q-65 -19 -134 -29.5t-143 -10.5zM804 0q-84 0 -143.5 34.5t-91.5 98.5t-32 153v237h173v-237q0 -32 8 -50.5t28 -26t58 -7.5h672v-202h-672zM1303 0v259
q0 51 -19 84.5t-52.5 50t-76.5 16.5q-40 0 -82 -15t-80 -42t-68 -67t-47.5 -90t-17.5 -109h-145q0 46 8.5 101t29 113.5t52.5 112.5t79.5 97t112 68.5t146.5 25.5q86 0 148.5 -28t103.5 -76.5t61 -110.5t20 -131v-259h-173zM0 -97q52 2 80.5 12t40 28.5t11.5 46.5v535h174
v-535q0 -82 -33.5 -143t-94.5 -96t-146 -40zM1144 714q-42 0 -69 27t-27 69t27 69t69 27q43 0 69.5 -27t26.5 -69t-26.5 -69t-69.5 -27z" />
    <glyph glyph-name="uniFD29" unicode="&#xfeb8;&#xfeae;" horiz-adv-x="1529" arabic-form="final" 
d="M1529 0v202q8 0 14 -27.5t6 -72.5q0 -46 -6 -74t-14 -28zM1494 0q-84 0 -144 34t-92 98.5t-32 153.5h174q0 -33 7.5 -51t28 -25.5t58.5 -7.5h35v-202h-35zM1136 0q-90 0 -144 26.5t-78.5 79t-28.5 127.5l112 46q1 -29 13.5 -46t42 -24t80.5 -7q37 0 57 7.5t28 26t8 50.5
v239h174v-275q0 -125 -64 -187.5t-200 -62.5zM410 223q-73 0 -143 10.5t-135 29.5v210q58 -23 129.5 -35.5t148.5 -12.5q78 0 148 12.5t129 36.5v-211q-65 -19 -134 -29.5t-143 -10.5zM801 0q-84 0 -143.5 34.5t-91.5 98.5t-32 153v239h173v-239q0 -32 8 -50.5t28 -26
t58 -7.5v-202zM797 0l4 202q37 0 57 7.5t28 26t8 50.5v190h173v-226q0 -125 -64 -187.5t-206 -62.5zM0 -97q52 2 80.5 12t40 28.5t11.5 46.5v535h174v-535q0 -82 -33.5 -143t-94.5 -96t-146 -40zM981 917q32 0 52.5 -20.5t20.5 -51.5q0 -33 -20.5 -53.5t-52.5 -20.5
t-53 20.5t-21 53.5q0 31 21 51.5t53 20.5zM1068 764q33 0 54.5 -21t21.5 -54t-21.5 -55t-54.5 -22t-54.5 22t-21.5 55t21.5 54t54.5 21zM894 764q33 0 55 -21t22 -54t-22 -55t-55 -22t-54.5 22t-21.5 55t21.5 54t54.5 21z" />
    <glyph glyph-name="uniFD2A" unicode="&#xfeb4;&#xfeae;" horiz-adv-x="1529" arabic-form="final" 
d="M1529 0v202q8 0 14 -27.5t6 -72.5q0 -46 -6 -74t-14 -28zM1494 0q-84 0 -144 34t-92 98.5t-32 153.5h174q0 -33 7.5 -51t28 -25.5t58.5 -7.5h35v-202h-35zM1136 0q-90 0 -144 26.5t-78.5 79t-28.5 127.5l112 46q1 -29 13.5 -46t42 -24t80.5 -7q37 0 57 7.5t28 26t8 50.5
v239h174v-275q0 -125 -64 -187.5t-200 -62.5zM410 223q-73 0 -143 10.5t-135 29.5v210q58 -23 129.5 -35.5t148.5 -12.5q78 0 148 12.5t129 36.5v-211q-65 -19 -134 -29.5t-143 -10.5zM801 0q-84 0 -143.5 34.5t-91.5 98.5t-32 153v239h173v-239q0 -32 8 -50.5t28 -26
t58 -7.5v-202zM797 0l4 202q37 0 57 7.5t28 26t8 50.5v190h173v-226q0 -125 -64 -187.5t-206 -62.5zM0 -97q52 2 80.5 12t40 28.5t11.5 46.5v535h174v-535q0 -82 -33.5 -143t-94.5 -96t-146 -40z" />
    <glyph glyph-name="uniFD2B" unicode="&#xfebc;&#xfeae;" horiz-adv-x="1589" arabic-form="final" 
d="M1589 0v202q8 0 14 -27.5t6 -72.5q0 -46 -6 -74t-14 -28zM804 0q-84 0 -143.5 34.5t-91.5 98.5t-32 153v237h173v-237q0 -32 8 -50.5t28 -26t58 -7.5h672v-202h-672zM413 223q-73 0 -143 10.5t-135 29.5v210q58 -23 129.5 -35.5t148.5 -12.5q78 0 148 12.5t129 36.5v-211
q-65 -19 -134 -29.5t-143 -10.5zM1303 0v259q0 51 -19 84.5t-52.5 50t-76.5 16.5q-40 0 -82 -15t-80 -42t-68 -67t-47.5 -90t-17.5 -109h-145q0 46 8.5 101t29 113.5t52.5 112.5t79.5 97t112 68.5t146.5 25.5q86 0 148.5 -28t103.5 -76.5t61 -110.5t20 -131v-259h-173z
M1392 0v202h197v-202h-197zM0 -97q52 2 80.5 12t40 28.5t11.5 46.5v535h174v-535q0 -82 -33.5 -143t-94.5 -96t-146 -40z" />
    <glyph glyph-name="uniFD2C" unicode="&#xfec0;&#xfeae;" horiz-adv-x="1589" arabic-form="final" 
d="M1589 0v202q8 0 14 -27.5t6 -72.5q0 -46 -6 -74t-14 -28zM804 0q-84 0 -143.5 34.5t-91.5 98.5t-32 153v237h173v-237q0 -32 8 -50.5t28 -26t58 -7.5h672v-202h-672zM413 223q-73 0 -143 10.5t-135 29.5v210q58 -23 129.5 -35.5t148.5 -12.5q78 0 148 12.5t129 36.5v-211
q-65 -19 -134 -29.5t-143 -10.5zM1303 0v259q0 51 -19 84.5t-52.5 50t-76.5 16.5q-40 0 -82 -15t-80 -42t-68 -67t-47.5 -90t-17.5 -109h-145q0 46 8.5 101t29 113.5t52.5 112.5t79.5 97t112 68.5t146.5 25.5q86 0 148.5 -28t103.5 -76.5t61 -110.5t20 -131v-259h-173z
M1392 0v202h197v-202h-197zM0 -97q52 2 80.5 12t40 28.5t11.5 46.5v535h174v-535q0 -82 -33.5 -143t-94.5 -96t-146 -40zM1144 714q-42 0 -69 27t-27 69t27 69t69 27q43 0 69.5 -27t26.5 -69t-26.5 -69t-69.5 -27z" />
    <glyph glyph-name="uniFDF2" unicode="&#x627;&#xfedf;&#xfee0;&#xfeea;" horiz-adv-x="1809" arabic-form="isolated" 
d="M741 0v202h22q38 0 58 7.5t28 25.5t8 51v445h174v-445q0 -89 -32.5 -153t-92 -98t-143.5 -35h-22zM1125 0q-84 0 -144 34t-92 98.5t-32 153.5h174q0 -33 7.5 -51t28 -25.5t58.5 -7.5h24v-202h-24zM1149 0v202h116v529h174v-731h-290zM1563 0v884h174v-884h-174zM741 0
v202q8 0 14 -27.5t6 -72.5q0 -46 -6 -74t-14 -28zM333 45q-58 0 -111 15t-94 46t-64.5 77t-23.5 107q0 69 31.5 122.5t87.5 89t131 54.5t162 21l3 -170q-57 -1 -101.5 -9.5t-76 -24t-47.5 -37t-16 -47.5q0 -23 13 -40t39.5 -25.5t64.5 -8.5q36 0 67 8t60 22l81 -150
q-47 -25 -100 -37.5t-106 -12.5zM706 0q-84 0 -144 34t-92 98.5t-32 153.5v323h174v-323q0 -33 7.5 -51t28 -25.5t58.5 -7.5h35v-202h-35zM1007 825q-28 0 -52.5 14t-39.5 37t-15 50v73h86v-66q0 -13 7 -21t14 -8t16 12t9 35q0 15 -4 33t-11 31l77 35q11 -20 18 -48t7 -51
q0 -35 -15 -63.5t-40.5 -45.5t-56.5 -17zM879 825q-31 0 -56.5 17t-40.5 45.5t-15 63.5q0 23 7 51t18 48l77 -35q-7 -13 -11.5 -31t-4.5 -33q0 -23 9 -35t17 -12q6 0 13.5 8t7.5 21v66h86v-73q0 -27 -15 -50t-39.5 -37t-52.5 -14zM900 1090v208h86v-208h-86z" />
    <glyph glyph-name="uniFEF5" unicode="&#xfedf;&#xfe82;" horiz-adv-x="821" arabic-form="isolated" 
d="M575 0v884h174v-884h-174zM72 0v202h677v-202h-677zM214 0v617h174v-617h-174zM122 711q0 71 32 108.5t99 37.5q28 0 70 -4.5t85 -8.5t72 -2v-98q-27 -2 -67.5 1t-81 7.5t-67.5 4.5q-30 0 -40 -9t-10 -37h-92z" />
    <glyph glyph-name="uniFEF6" unicode="&#xfee0;&#xfe82;" horiz-adv-x="867" arabic-form="final" 
d="M214 0v617h174v-617h-174zM72 0v202h400v-202h-400zM867 0v202q9 0 14.5 -27.5t5.5 -72.5q0 -46 -5.5 -74t-14.5 -28zM431 0q-9 0 -14.5 28t-5.5 74q0 45 5.5 72.5t14.5 27.5v-202zM431 0v202h50q38 0 58.5 7.5t28 25.5t7.5 51v598h174v-598q0 -89 -32 -153t-92 -98
t-144 -35h-50zM843 0q-84 0 -144 34t-92 98.5t-32 153.5h174q0 -33 8 -51t28 -25.5t58 -7.5h24v-202h-24zM122 711q0 71 32 108.5t99 37.5q28 0 70 -4.5t85 -8.5t72 -2v-98q-27 -2 -67.5 1t-81 7.5t-67.5 4.5q-30 0 -40 -9t-10 -37h-92z" />
    <glyph glyph-name="uniFEF7" unicode="&#xfedf;&#xfe84;" horiz-adv-x="821" arabic-form="isolated" 
d="M575 0v884h174v-884h-174zM72 0v202h677v-202h-677zM214 0v617h174v-617h-174zM347 736q-75 0 -122 29t-47 84q0 39 22.5 67.5t59 44t78.5 15.5q26 0 50.5 -5.5t46.5 -17.5l-37 -80q-12 2 -26 4t-26 2q-38 0 -60.5 -11.5t-22.5 -25.5q0 -13 22.5 -24.5t61.5 -11.5v-70z
M153 708v98h297v-98h-297z" />
    <glyph glyph-name="uniFEF8" unicode="&#xfee0;&#xfe84;" horiz-adv-x="867" arabic-form="final" 
d="M214 0v617h174v-617h-174zM72 0v202h400v-202h-400zM867 0v202q9 0 14.5 -27.5t5.5 -72.5q0 -46 -5.5 -74t-14.5 -28zM431 0q-9 0 -14.5 28t-5.5 74q0 45 5.5 72.5t14.5 27.5v-202zM431 0v202h50q38 0 58.5 7.5t28 25.5t7.5 51v598h174v-598q0 -89 -32 -153t-92 -98
t-144 -35h-50zM843 0q-84 0 -144 34t-92 98.5t-32 153.5h174q0 -33 8 -51t28 -25.5t58 -7.5h24v-202h-24zM347 736q-75 0 -122 29t-47 84q0 39 22.5 67.5t59 44t78.5 15.5q26 0 50.5 -5.5t46.5 -17.5l-37 -80q-12 2 -26 4t-26 2q-38 0 -60.5 -11.5t-22.5 -25.5
q0 -13 22.5 -24.5t61.5 -11.5v-70zM153 708v98h297v-98h-297z" />
    <glyph glyph-name="uniFEF9" unicode="&#xfedf;&#xfe88;" horiz-adv-x="821" arabic-form="isolated" 
d="M575 0v884h174v-884h-174zM72 0v202h677v-202h-677zM214 0v617h174v-617h-174zM347 -324q-75 0 -122 29t-47 84q0 39 22.5 67.5t59 44t78.5 15.5q26 0 50.5 -5.5t46.5 -17.5l-37 -80q-12 2 -26 4t-26 2q-38 0 -60.5 -11.5t-22.5 -25.5q0 -13 22.5 -24.5t61.5 -11.5v-70z
M153 -352v98h297v-98h-297z" />
    <glyph glyph-name="uniFEFA" unicode="&#xfee0;&#xfe88;" horiz-adv-x="867" arabic-form="final" 
d="M214 0v617h174v-617h-174zM72 0v202h400v-202h-400zM867 0v202q9 0 14.5 -27.5t5.5 -72.5q0 -46 -5.5 -74t-14.5 -28zM431 0q-9 0 -14.5 28t-5.5 74q0 45 5.5 72.5t14.5 27.5v-202zM431 0v202h50q38 0 58.5 7.5t28 25.5t7.5 51v598h174v-598q0 -89 -32 -153t-92 -98
t-144 -35h-50zM843 0q-84 0 -144 34t-92 98.5t-32 153.5h174q0 -33 8 -51t28 -25.5t58 -7.5h24v-202h-24zM347 -324q-75 0 -122 29t-47 84q0 39 22.5 67.5t59 44t78.5 15.5q26 0 50.5 -5.5t46.5 -17.5l-37 -80q-12 2 -26 4t-26 2q-38 0 -60.5 -11.5t-22.5 -25.5
q0 -13 22.5 -24.5t61.5 -11.5v-70zM153 -352v98h297v-98h-297z" />
    <glyph glyph-name="uniFEFB" unicode="&#xfedf;&#xfe8e;" horiz-adv-x="821" arabic-form="isolated" 
d="M575 0v884h174v-884h-174zM72 0v202h677v-202h-677zM214 0v617h174v-617h-174z" />
    <glyph glyph-name="uniFEFC" unicode="&#xfee0;&#xfe8e;" horiz-adv-x="867" arabic-form="final" 
d="M214 0v617h174v-617h-174zM72 0v202h400v-202h-400zM867 0v202q9 0 14.5 -27.5t5.5 -72.5q0 -46 -5.5 -74t-14.5 -28zM431 0q-9 0 -14.5 28t-5.5 74q0 45 5.5 72.5t14.5 27.5v-202zM431 0v202h50q38 0 58.5 7.5t28 25.5t7.5 51v598h174v-598q0 -89 -32 -153t-92 -98
t-144 -35h-50zM843 0q-84 0 -144 34t-92 98.5t-32 153.5h174q0 -33 8 -51t28 -25.5t58 -7.5h24v-202h-24z" />
    <glyph glyph-name="f_f" unicode="ff" horiz-adv-x="824" 
d="M98 566q0 58 27.5 99.5t76.5 64t113 21.5q31 0 62 -5.5t58 -14.5l-22 -150q-16 5 -30.5 9t-27.5 4q-17 0 -29.5 -6t-20 -17.5t-7.5 -28.5v-542h-200v566zM24 516h387v-129h-387v129zM510 566q0 58 27.5 99.5t76.5 64t113 21.5q31 0 62 -5.5t58 -14.5l-22 -150
q-16 5 -30.5 9t-27.5 4q-17 0 -29.5 -6t-20 -17.5t-7.5 -28.5v-542h-200v566zM436 516h387v-129h-387v129z" />
    <glyph glyph-name="f_f_i" unicode="ffi" horiz-adv-x="1148" 
d="M98 566q0 58 27.5 99.5t76.5 64t113 21.5q31 0 62 -5.5t58 -14.5l-22 -150q-16 5 -30.5 9t-27.5 4q-17 0 -29.5 -6t-20 -17.5t-7.5 -28.5v-542h-200v566zM24 516h387v-129h-387v129zM510 566q0 58 27.5 99.5t76.5 64t113 21.5q31 0 62 -5.5t58 -14.5l-22 -150
q-16 5 -30.5 9t-27.5 4q-17 0 -29.5 -6t-20 -17.5t-7.5 -28.5v-542h-200v566zM436 516h387v-129h-387v129zM885 544h202v-544h-202v544zM986 803q46 0 75 -29.5t29 -74.5q0 -46 -29 -75t-75 -29q-45 0 -74.5 29t-29.5 75q0 45 29.5 74.5t74.5 29.5z" />
    <glyph glyph-name="f_f_l" unicode="ffl" horiz-adv-x="1185" 
d="M98 566q0 58 27.5 99.5t76.5 64t113 21.5q31 0 62 -5.5t58 -14.5l-22 -150q-16 5 -30.5 9t-27.5 4q-17 0 -29.5 -6t-20 -17.5t-7.5 -28.5v-542h-200v566zM24 516h387v-129h-387v129zM510 566q0 58 27.5 99.5t76.5 64t113 21.5q31 0 62 -5.5t58 -14.5l-22 -150
q-16 5 -30.5 9t-27.5 4q-17 0 -29.5 -6t-20 -17.5t-7.5 -28.5v-542h-200v566zM436 516h387v-129h-387v129zM916 742h202v-742h-202v742z" />
    <glyph glyph-name="peh_rehar.fina" unicode="&#xfb59;&#xfeae;" horiz-adv-x="836" 
d="M836 0v202q9 0 14.5 -27.5t5.5 -72.5q0 -46 -5.5 -74t-14.5 -28zM802 0q-85 0 -144.5 34t-91.5 98.5t-32 153.5v239h173v-239q0 -33 8 -51t28.5 -25.5t58.5 -7.5h34v-202h-34zM410 223q-73 0 -143 10.5t-135 29.5v210q58 -24 129.5 -36t148.5 -12q78 0 148 12.5t129 36.5
v-211q-65 -19 -134 -29.5t-143 -10.5zM0 -97q52 2 80.5 12t40 28.5t11.5 46.5v535h174v-535q0 -82 -33.5 -143t-94.5 -96t-146 -40zM620 -392q-32 0 -53 20.5t-21 51.5q0 33 21 53.5t53 20.5t52.5 -20.5t20.5 -53.5q0 -31 -20.5 -51.5t-52.5 -20.5zM707 -239q-33 0 -54.5 21
t-21.5 54t21.5 55t54.5 22t54.5 -22t21.5 -55t-21.5 -54t-54.5 -21zM533 -239q-33 0 -54.5 21t-21.5 54t21.5 55t54.5 22t55 -22t22 -55t-22 -54t-55 -21z" />
    <glyph glyph-name="peh_zainar.fina" unicode="&#xfb59;&#xfeb0;" horiz-adv-x="836" 
d="M836 0v202q9 0 14.5 -27.5t5.5 -72.5q0 -46 -5.5 -74t-14.5 -28zM802 0q-85 0 -144.5 34t-91.5 98.5t-32 153.5v239h173v-239q0 -33 8 -51t28.5 -25.5t58.5 -7.5h34v-202h-34zM410 223q-73 0 -143 10.5t-135 29.5v210q58 -24 129.5 -36t148.5 -12q78 0 148 12.5t129 36.5
v-211q-65 -19 -134 -29.5t-143 -10.5zM0 -97q52 2 80.5 12t40 28.5t11.5 46.5v535h174v-535q0 -82 -33.5 -143t-94.5 -96t-146 -40zM620 -392q-32 0 -53 20.5t-21 51.5q0 33 21 53.5t53 20.5t52.5 -20.5t20.5 -53.5q0 -31 -20.5 -51.5t-52.5 -20.5zM707 -239q-33 0 -54.5 21
t-21.5 54t21.5 55t54.5 22t54.5 -22t21.5 -55t-21.5 -54t-54.5 -21zM533 -239q-33 0 -54.5 21t-21.5 54t21.5 55t54.5 22t55 -22t22 -55t-22 -54t-55 -21zM219 636q-42 0 -69 27t-27 69t27 69t69 27q43 0 69.5 -27t26.5 -69t-26.5 -69t-69.5 -27z" />
    <glyph glyph-name="peh_noonar.fina" unicode="&#xfb59;&#xfee6;" horiz-adv-x="1356" 
d="M1356 0v202q8 0 14 -27.5t6 -72.5q0 -46 -6 -74t-14 -28zM1321 0q-84 0 -144 34t-92 98.5t-32 153.5v239h174v-239q0 -33 7.5 -51t28 -25.5t58.5 -7.5h35v-202h-35zM929 223q-73 0 -142.5 10.5t-135.5 29.5v210q58 -24 130 -36t148 -12q78 0 148 12.5t130 36.5v-211
q-65 -19 -134.5 -29.5t-143.5 -10.5zM424 -285q-97 0 -169 33.5t-119.5 93.5t-71.5 139.5t-24 171.5q0 36 4 72.5t12 71.5l168 -31q-6 -29 -8 -57t-2 -56q0 -76 21.5 -129t68 -80t120.5 -27t124.5 27t76.5 80t26 132v369h174v-369q0 -94 -26 -174t-77.5 -140t-126 -93.5
t-171.5 -33.5zM433 527q-42 0 -69 27t-27 69t27 69t69 27t69 -27t27 -69t-27 -69t-69 -27zM1140 -392q-32 0 -53 20.5t-21 51.5q0 33 21 53.5t53 20.5t52.5 -20.5t20.5 -53.5q0 -31 -20.5 -51.5t-52.5 -20.5zM1227 -239q-33 0 -54.5 21t-21.5 54t21.5 55t54.5 22t54.5 -22
t21.5 -55t-21.5 -54t-54.5 -21zM1053 -239q-33 0 -54.5 21t-21.5 54t21.5 55t54.5 22t55 -22t22 -55t-22 -54t-55 -21z" />
    <glyph glyph-name="seen_zainar" unicode="&#xfeb3;&#xfeb0;" horiz-adv-x="1452" 
d="M1136 0q-90 0 -144 26.5t-78.5 79t-28.5 127.5l112 46q1 -29 13.5 -46t42 -24t80.5 -7q37 0 57 7.5t28 26t8 50.5v239h174v-275q0 -125 -64 -187.5t-200 -62.5zM410 223q-73 0 -143 10.5t-135 29.5v210q58 -23 129.5 -35.5t148.5 -12.5q78 0 148 12.5t129 36.5v-211
q-65 -19 -134 -29.5t-143 -10.5zM801 0q-84 0 -143.5 34.5t-91.5 98.5t-32 153v239h173v-239q0 -32 8 -50.5t28 -26t58 -7.5v-202zM797 0l4 202q37 0 57 7.5t28 26t8 50.5v190h173v-226q0 -125 -64 -187.5t-206 -62.5zM0 -97q52 2 80.5 12t40 28.5t11.5 46.5v535h174v-535
q0 -82 -33.5 -143t-94.5 -96t-146 -40zM218 636q-42 0 -69 27t-27 69t27 69t69 27q43 0 69.5 -27t26.5 -69t-26.5 -69t-69.5 -27z" />
    <glyph glyph-name="seen_zainar.fina" unicode="&#xfeb4;&#xfeb0;" horiz-adv-x="1529" 
d="M1529 0v202q8 0 14 -27.5t6 -72.5q0 -46 -6 -74t-14 -28zM1494 0q-84 0 -144 34t-92 98.5t-32 153.5h174q0 -33 7.5 -51t28 -25.5t58.5 -7.5h35v-202h-35zM1136 0q-90 0 -144 26.5t-78.5 79t-28.5 127.5l112 46q1 -29 13.5 -46t42 -24t80.5 -7q37 0 57 7.5t28 26t8 50.5
v239h174v-275q0 -125 -64 -187.5t-200 -62.5zM410 223q-73 0 -143 10.5t-135 29.5v210q58 -23 129.5 -35.5t148.5 -12.5q78 0 148 12.5t129 36.5v-211q-65 -19 -134 -29.5t-143 -10.5zM801 0q-84 0 -143.5 34.5t-91.5 98.5t-32 153v239h173v-239q0 -32 8 -50.5t28 -26
t58 -7.5v-202zM797 0l4 202q37 0 57 7.5t28 26t8 50.5v190h173v-226q0 -125 -64 -187.5t-206 -62.5zM0 -97q52 2 80.5 12t40 28.5t11.5 46.5v535h174v-535q0 -82 -33.5 -143t-94.5 -96t-146 -40zM218 636q-42 0 -69 27t-27 69t27 69t69 27q43 0 69.5 -27t26.5 -69t-26.5 -69
t-69.5 -27z" />
    <glyph glyph-name="sheen_zainar" unicode="&#xfeb7;&#xfeb0;" horiz-adv-x="1452" 
d="M1136 0q-90 0 -144 26.5t-78.5 79t-28.5 127.5l112 46q1 -29 13.5 -46t42 -24t80.5 -7q37 0 57 7.5t28 26t8 50.5v239h174v-275q0 -125 -64 -187.5t-200 -62.5zM410 223q-73 0 -143 10.5t-135 29.5v210q58 -23 129.5 -35.5t148.5 -12.5q78 0 148 12.5t129 36.5v-211
q-65 -19 -134 -29.5t-143 -10.5zM801 0q-84 0 -143.5 34.5t-91.5 98.5t-32 153v239h173v-239q0 -32 8 -50.5t28 -26t58 -7.5v-202zM797 0l4 202q37 0 57 7.5t28 26t8 50.5v190h173v-226q0 -125 -64 -187.5t-206 -62.5zM0 -97q52 2 80.5 12t40 28.5t11.5 46.5v535h174v-535
q0 -82 -33.5 -143t-94.5 -96t-146 -40zM981 917q32 0 52.5 -20.5t20.5 -51.5q0 -33 -20.5 -53.5t-52.5 -20.5t-53 20.5t-21 53.5q0 31 21 51.5t53 20.5zM1068 764q33 0 54.5 -21t21.5 -54t-21.5 -55t-54.5 -22t-54.5 22t-21.5 55t21.5 54t54.5 21zM894 764q33 0 55 -21
t22 -54t-22 -55t-55 -22t-54.5 22t-21.5 55t21.5 54t54.5 21zM218 636q-42 0 -69 27t-27 69t27 69t69 27q43 0 69.5 -27t26.5 -69t-26.5 -69t-69.5 -27z" />
    <glyph glyph-name="sheen_zainar.fina" unicode="&#xfeb8;&#xfeb0;" horiz-adv-x="1529" 
d="M1529 0v202q8 0 14 -27.5t6 -72.5q0 -46 -6 -74t-14 -28zM1494 0q-84 0 -144 34t-92 98.5t-32 153.5h174q0 -33 7.5 -51t28 -25.5t58.5 -7.5h35v-202h-35zM1136 0q-90 0 -144 26.5t-78.5 79t-28.5 127.5l112 46q1 -29 13.5 -46t42 -24t80.5 -7q37 0 57 7.5t28 26t8 50.5
v239h174v-275q0 -125 -64 -187.5t-200 -62.5zM410 223q-73 0 -143 10.5t-135 29.5v210q58 -23 129.5 -35.5t148.5 -12.5q78 0 148 12.5t129 36.5v-211q-65 -19 -134 -29.5t-143 -10.5zM801 0q-84 0 -143.5 34.5t-91.5 98.5t-32 153v239h173v-239q0 -32 8 -50.5t28 -26
t58 -7.5v-202zM797 0l4 202q37 0 57 7.5t28 26t8 50.5v190h173v-226q0 -125 -64 -187.5t-206 -62.5zM0 -97q52 2 80.5 12t40 28.5t11.5 46.5v535h174v-535q0 -82 -33.5 -143t-94.5 -96t-146 -40zM981 917q32 0 52.5 -20.5t20.5 -51.5q0 -33 -20.5 -53.5t-52.5 -20.5
t-53 20.5t-21 53.5q0 31 21 51.5t53 20.5zM1068 764q33 0 54.5 -21t21.5 -54t-21.5 -55t-54.5 -22t-54.5 22t-21.5 55t21.5 54t54.5 21zM894 764q33 0 55 -21t22 -54t-22 -55t-55 -22t-54.5 22t-21.5 55t21.5 54t54.5 21zM218 636q-42 0 -69 27t-27 69t27 69t69 27
q43 0 69.5 -27t26.5 -69t-26.5 -69t-69.5 -27z" />
    <glyph glyph-name="sad_zainar" unicode="&#xfebb;&#xfeb0;" horiz-adv-x="1529" 
d="M413 223q-73 0 -143 10.5t-135 29.5v210q58 -23 129.5 -35.5t148.5 -12.5q78 0 148 12.5t129 36.5v-211q-65 -19 -134 -29.5t-143 -10.5zM804 0q-84 0 -143.5 34.5t-91.5 98.5t-32 153v237h173v-237q0 -32 8 -50.5t28 -26t58 -7.5h672v-202h-672zM1303 0v259
q0 51 -19 84.5t-52.5 50t-76.5 16.5q-40 0 -82 -15t-80 -42t-68 -67t-47.5 -90t-17.5 -109h-145q0 46 8.5 101t29 113.5t52.5 112.5t79.5 97t112 68.5t146.5 25.5q86 0 148.5 -28t103.5 -76.5t61 -110.5t20 -131v-259h-173zM0 -97q52 2 80.5 12t40 28.5t11.5 46.5v535h174
v-535q0 -82 -33.5 -143t-94.5 -96t-146 -40zM219 636q-42 0 -69 27t-27 69t27 69t69 27q43 0 69.5 -27t26.5 -69t-26.5 -69t-69.5 -27z" />
    <glyph glyph-name="sad_zainar.fina" unicode="&#xfebc;&#xfeb0;" horiz-adv-x="1589" 
d="M1589 0v202q8 0 14 -27.5t6 -72.5q0 -46 -6 -74t-14 -28zM804 0q-84 0 -143.5 34.5t-91.5 98.5t-32 153v237h173v-237q0 -32 8 -50.5t28 -26t58 -7.5h672v-202h-672zM413 223q-73 0 -143 10.5t-135 29.5v210q58 -23 129.5 -35.5t148.5 -12.5q78 0 148 12.5t129 36.5v-211
q-65 -19 -134 -29.5t-143 -10.5zM1303 0v259q0 51 -19 84.5t-52.5 50t-76.5 16.5q-40 0 -82 -15t-80 -42t-68 -67t-47.5 -90t-17.5 -109h-145q0 46 8.5 101t29 113.5t52.5 112.5t79.5 97t112 68.5t146.5 25.5q86 0 148.5 -28t103.5 -76.5t61 -110.5t20 -131v-259h-173z
M1392 0v202h197v-202h-197zM0 -97q52 2 80.5 12t40 28.5t11.5 46.5v535h174v-535q0 -82 -33.5 -143t-94.5 -96t-146 -40zM219 636q-42 0 -69 27t-27 69t27 69t69 27q43 0 69.5 -27t26.5 -69t-26.5 -69t-69.5 -27z" />
    <glyph glyph-name="dad_zainar" unicode="&#xfebf;&#xfeb0;" horiz-adv-x="1529" 
d="M413 223q-73 0 -143 10.5t-135 29.5v210q58 -23 129.5 -35.5t148.5 -12.5q78 0 148 12.5t129 36.5v-211q-65 -19 -134 -29.5t-143 -10.5zM804 0q-84 0 -143.5 34.5t-91.5 98.5t-32 153v237h173v-237q0 -32 8 -50.5t28 -26t58 -7.5h672v-202h-672zM1303 0v259
q0 51 -19 84.5t-52.5 50t-76.5 16.5q-40 0 -82 -15t-80 -42t-68 -67t-47.5 -90t-17.5 -109h-145q0 46 8.5 101t29 113.5t52.5 112.5t79.5 97t112 68.5t146.5 25.5q86 0 148.5 -28t103.5 -76.5t61 -110.5t20 -131v-259h-173zM0 -97q52 2 80.5 12t40 28.5t11.5 46.5v535h174
v-535q0 -82 -33.5 -143t-94.5 -96t-146 -40zM1144 714q-42 0 -69 27t-27 69t27 69t69 27q43 0 69.5 -27t26.5 -69t-26.5 -69t-69.5 -27zM219 636q-42 0 -69 27t-27 69t27 69t69 27q43 0 69.5 -27t26.5 -69t-26.5 -69t-69.5 -27z" />
    <glyph glyph-name="dad_zainar.fina" unicode="&#xfec0;&#xfeb0;" horiz-adv-x="1589" 
d="M1589 0v202q8 0 14 -27.5t6 -72.5q0 -46 -6 -74t-14 -28zM804 0q-84 0 -143.5 34.5t-91.5 98.5t-32 153v237h173v-237q0 -32 8 -50.5t28 -26t58 -7.5h672v-202h-672zM413 223q-73 0 -143 10.5t-135 29.5v210q58 -23 129.5 -35.5t148.5 -12.5q78 0 148 12.5t129 36.5v-211
q-65 -19 -134 -29.5t-143 -10.5zM1303 0v259q0 51 -19 84.5t-52.5 50t-76.5 16.5q-40 0 -82 -15t-80 -42t-68 -67t-47.5 -90t-17.5 -109h-145q0 46 8.5 101t29 113.5t52.5 112.5t79.5 97t112 68.5t146.5 25.5q86 0 148.5 -28t103.5 -76.5t61 -110.5t20 -131v-259h-173z
M1392 0v202h197v-202h-197zM0 -97q52 2 80.5 12t40 28.5t11.5 46.5v535h174v-535q0 -82 -33.5 -143t-94.5 -96t-146 -40zM1144 714q-42 0 -69 27t-27 69t27 69t69 27q43 0 69.5 -27t26.5 -69t-26.5 -69t-69.5 -27zM219 636q-42 0 -69 27t-27 69t27 69t69 27q43 0 69.5 -27
t26.5 -69t-26.5 -69t-69.5 -27z" />
    <glyph glyph-name="lam_alefWaslaar" unicode="&#xfedf;&#xfb51;" horiz-adv-x="821" 
d="M575 0v884h174v-884h-174zM72 0v202h677v-202h-677zM214 0v617h174v-617h-174zM442 715v100q0 25 -15 38t-38 13t-48.5 -14.5t-43 -41t-17.5 -61.5h-59q0 28 8 64.5t26.5 70.5t49.5 56.5t78 22.5q45 0 73.5 -20t42.5 -52.5t14 -70.5v-105h-71zM337 715q-56 0 -95.5 16
t-70.5 57l39 17q-14 -16 -34.5 -39t-40.5 -47l-47 35q23 55 48.5 84t48.5 29q14 0 24 -8.5t25 -18.5t42.5 -18.5t76.5 -8.5h160v-98h-176z" />
    <glyph glyph-name="lam_alefWaslaar.fina" unicode="&#xfee0;&#xfb51;" horiz-adv-x="867" 
d="M214 0v617h174v-617h-174zM72 0v202h400v-202h-400zM867 0v202q9 0 14.5 -27.5t5.5 -72.5q0 -46 -5.5 -74t-14.5 -28zM431 0q-9 0 -14.5 28t-5.5 74q0 45 5.5 72.5t14.5 27.5v-202zM431 0v202h50q38 0 58.5 7.5t28 25.5t7.5 51v598h174v-598q0 -89 -32 -153t-92 -98
t-144 -35h-50zM843 0q-84 0 -144 34t-92 98.5t-32 153.5h174q0 -33 8 -51t28 -25.5t58 -7.5h24v-202h-24zM442 715v100q0 25 -15 38t-38 13t-48.5 -14.5t-43 -41t-17.5 -61.5h-59q0 28 8 64.5t26.5 70.5t49.5 56.5t78 22.5q45 0 73.5 -20t42.5 -52.5t14 -70.5v-105h-71z
M337 715q-56 0 -95.5 16t-70.5 57l39 17q-14 -16 -34.5 -39t-40.5 -47l-47 35q23 55 48.5 84t48.5 29q14 0 24 -8.5t25 -18.5t42.5 -18.5t76.5 -8.5h160v-98h-176z" />
    <glyph glyph-name="alefMaksura_rehar.fina" unicode="&#x649;&#xfeae;" horiz-adv-x="836" 
d="M836 0v202q9 0 14.5 -27.5t5.5 -72.5q0 -46 -5.5 -74t-14.5 -28zM802 0q-85 0 -144.5 34t-91.5 98.5t-32 153.5v239h173v-239q0 -33 8 -51t28.5 -25.5t58.5 -7.5h34v-202h-34zM410 223q-73 0 -143 10.5t-135 29.5v210q58 -24 129.5 -36t148.5 -12q78 0 148 12.5t129 36.5
v-211q-65 -19 -134 -29.5t-143 -10.5zM0 -97q52 2 80.5 12t40 28.5t11.5 46.5v535h174v-535q0 -82 -33.5 -143t-94.5 -96t-146 -40z" />
    <glyph glyph-name="alefMaksura_zainar.fina" unicode="&#x649;&#xfeb0;" horiz-adv-x="836" 
d="M836 0v202q9 0 14.5 -27.5t5.5 -72.5q0 -46 -5.5 -74t-14.5 -28zM802 0q-85 0 -144.5 34t-91.5 98.5t-32 153.5v239h173v-239q0 -33 8 -51t28.5 -25.5t58.5 -7.5h34v-202h-34zM410 223q-73 0 -143 10.5t-135 29.5v210q58 -24 129.5 -36t148.5 -12q78 0 148 12.5t129 36.5
v-211q-65 -19 -134 -29.5t-143 -10.5zM0 -97q52 2 80.5 12t40 28.5t11.5 46.5v535h174v-535q0 -82 -33.5 -143t-94.5 -96t-146 -40zM219 636q-42 0 -69 27t-27 69t27 69t69 27q43 0 69.5 -27t26.5 -69t-26.5 -69t-69.5 -27z" />
    <glyph glyph-name="alefMaksura_noonar.fina" unicode="&#x649;&#xfee6;" horiz-adv-x="1356" 
d="M1356 0v202q8 0 14 -27.5t6 -72.5q0 -46 -6 -74t-14 -28zM1321 0q-84 0 -144 34t-92 98.5t-32 153.5v239h174v-239q0 -33 7.5 -51t28 -25.5t58.5 -7.5h35v-202h-35zM929 223q-73 0 -142.5 10.5t-135.5 29.5v210q58 -24 130 -36t148 -12q78 0 148 12.5t130 36.5v-211
q-65 -19 -134.5 -29.5t-143.5 -10.5zM424 -285q-97 0 -169 33.5t-119.5 93.5t-71.5 139.5t-24 171.5q0 36 4 72.5t12 71.5l168 -31q-6 -29 -8 -57t-2 -56q0 -76 21.5 -129t68 -80t120.5 -27t124.5 27t76.5 80t26 132v369h174v-369q0 -94 -26 -174t-77.5 -140t-126 -93.5
t-171.5 -33.5zM433 527q-42 0 -69 27t-27 69t27 69t69 27t69 -27t27 -69t-27 -69t-69 -27z" />
    <glyph glyph-name="uni066E.init" unicode="&#x66e;" horiz-adv-x="391" 
d="M155 525h174v-525h-329v202h155v323zM0 0q-9 0 -14.5 28t-5.5 74q0 45 5.5 72.5t14.5 27.5v-202z" />
    <glyph glyph-name="uni066E.medi" unicode="&#x66e;" horiz-adv-x="453" 
d="M0 0v202h57q38 0 58 7.5t28 25.5t8 51v239h174v-239q0 -89 -32.5 -153t-92 -98t-143.5 -35h-57zM419 0q-84 0 -144 34t-92 98.5t-32 153.5h174q0 -33 7.5 -51t28 -25.5t58.5 -7.5h34v-202h-34zM453 0v202q9 0 14.5 -27.5t5.5 -72.5q0 -46 -5.5 -74t-14.5 -28zM0 0
q-9 0 -14.5 28t-5.5 74q0 45 5.5 72.5t14.5 27.5v-202z" />
    <glyph glyph-name="uni066E.fina" unicode="&#x66e;" horiz-adv-x="1059" 
d="M344 -1q-86 0 -149.5 24.5t-104.5 67t-61 96t-20 112.5q0 54 16.5 109t48.5 105l134 -61q-16 -33 -24 -63.5t-8 -58.5q0 -38 17 -67.5t53.5 -45.5t92.5 -16l329 1q39 0 59 7.5t28 25.5t8 51v239h173v-239q0 -89 -32 -153t-91.5 -98t-144.5 -35zM1031 0q-85 0 -144.5 34
t-91.5 98.5t-32 153.5h173q0 -33 8 -51t28.5 -25.5t58.5 -7.5h28v-202h-28zM1059 0v202q9 0 14.5 -27.5t5.5 -72.5q0 -46 -5.5 -74t-14.5 -28z" />
    <glyph glyph-name="uni066F.fina" unicode="&#x66f;" horiz-adv-x="1052" 
d="M774 0v202h278v-202h-278zM1052 0v202q9 0 14.5 -27.5t5.5 -72.5q0 -46 -5.5 -74t-14.5 -28zM488 -343q-105 0 -188 37.5t-141 103.5t-88.5 153.5t-30.5 188.5q0 53 9 107t24 102l162 -31q-11 -48 -16 -90t-5 -77q0 -96 34 -161t95 -98t143 -33q84 0 146 33.5t96.5 96.5
t34.5 152v378l173 -26v-352q0 -101 -30.5 -189t-88.5 -154t-141.5 -103.5t-187.5 -37.5zM717 0q-89 0 -155.5 37t-103 98.5t-36.5 135.5q0 60 22.5 110t63.5 87.5t94.5 58.5t115.5 21q60 0 117 -17.5t101 -37.5l-70 -179q-87 41 -148 41q-38 0 -65 -11.5t-42 -30t-15 -38.5
q0 -18 13.5 -34.5t40.5 -27.5t67 -11h164v-202h-164z" />
    <glyph glyph-name="uni06A1.init" unicode="&#x6a1;" horiz-adv-x="669" 
d="M0 0v202h443v291h174v-493h-617zM249 10q-41 16 -74 53t-52.5 88.5t-19.5 111.5q0 86 39.5 150t107 99.5t147.5 35.5q61 0 118.5 -17.5t101.5 -37.5l-70 -175q-46 20 -86.5 30t-75.5 10q-41 0 -70 -13t-44.5 -34.5t-15.5 -48.5q0 -30 16 -60.5t40 -44.5zM0 0
q-9 0 -14.5 28t-5.5 74q0 45 5.5 72.5t14.5 27.5v-202z" />
    <glyph glyph-name="uni06A1.medi" unicode="&#x6a1;" horiz-adv-x="745" 
d="M0 0v202q56 0 104.5 2t89.5 4q8 1 14 -6t12.5 -13.5t12.5 -6.5q87 10 139 26.5t75 39t23 49.5q0 23 -12 41t-33.5 28.5t-50.5 10.5t-51.5 -11.5t-35 -29.5t-12.5 -39q0 -26 24 -49t77.5 -40t143.5 -27q7 0 13 7t12.5 13.5t12.5 5.5q41 -2 87.5 -3.5t99.5 -1.5v-202
q-141 0 -258.5 18t-204 55t-134 95t-47.5 138q0 72 37 126t98.5 85t136.5 31t136.5 -30.5t98.5 -85t37 -127.5q0 -72 -37.5 -124t-102 -87.5t-147.5 -55.5t-174.5 -29t-183.5 -9zM745 0v202q9 0 14.5 -27.5t5.5 -72.5q0 -46 -5.5 -74t-14.5 -28zM0 0q-9 0 -14.5 28t-5.5 74
q0 45 5.5 72.5t14.5 27.5v-202z" />
    <glyph glyph-name="uni06A1.fina" unicode="&#x6a1;" horiz-adv-x="1169" 
d="M377 0q-86 0 -149.5 24.5t-104.5 67t-61 96t-20 112.5q0 54 16.5 109t48.5 105l134 -61q-16 -33 -24 -63.5t-8 -58.5q0 -38 17 -67.5t53.5 -45.5t92.5 -16h52v-202h-47zM1169 0v202q9 0 14.5 -27.5t5.5 -72.5q0 -46 -5.5 -74t-14.5 -28zM424 0q-9 0 -14.5 28t-5.5 74
q0 45 5.5 72.5t14.5 27.5v-202zM424 0v202q56 0 104.5 2t89.5 4q8 1 14 -6t12.5 -13.5t12.5 -6.5q87 10 139 26.5t75 39t23 49.5q0 23 -12 41t-33.5 28.5t-50.5 10.5t-51.5 -11.5t-35 -29.5t-12.5 -39q0 -26 24 -49t77.5 -40t143.5 -27q7 0 13 7t12.5 13.5t12.5 5.5
q41 -2 87.5 -3.5t99.5 -1.5v-202q-141 0 -258.5 18t-204 55t-134 95t-47.5 138q0 72 37 126t98.5 85t136.5 31t136.5 -30.5t98.5 -85t37 -127.5q0 -72 -37.5 -124t-102 -87.5t-147.5 -55.5t-174.5 -29t-183.5 -9z" />
    <glyph glyph-name="uni06C2.fina" unicode="&#x6c2;" horiz-adv-x="741" 
d="M333 45q-58 0 -111 15t-94 46t-64.5 77t-23.5 107q0 69 31.5 122.5t87.5 89t131 54.5t162 21l3 -170q-57 -1 -101.5 -9.5t-76 -24t-47.5 -37t-16 -47.5q0 -23 13 -40t39.5 -25.5t64.5 -8.5q36 0 67 8t60 22l81 -150q-47 -25 -100 -37.5t-106 -12.5zM706 0q-84 0 -144 34
t-92 98.5t-32 153.5v323h174v-323q0 -33 7.5 -51t28 -25.5t58.5 -7.5h35v-202h-35zM741 0v202q8 0 14 -27.5t6 -72.5q0 -46 -6 -74t-14 -28zM360 726q-75 0 -122 29t-47 84q0 39 22.5 67.5t59 44t78.5 15.5q26 0 50.5 -5.5t46.5 -17.5l-37 -80q-12 2 -26 4t-26 2
q-38 0 -60.5 -11.5t-22.5 -25.5q0 -13 22.5 -24.5t61.5 -11.5v-70zM166 698v98h297v-98h-297z" />
    <glyph glyph-name="uni06C3.fina" unicode="&#x6c3;" horiz-adv-x="728" 
d="M728 0q-73 0 -123 19t-86 61.5t-66 114.5q-25 65 -52.5 91.5t-64.5 26.5q-29 0 -49.5 -16t-34 -42.5t-24 -60.5t-21.5 -70l-167 56q23 78 49 140t60 105.5t80 66.5t107 23q101 0 167.5 -65t111.5 -180q12 -30 23 -45t31 -19t59 -4v-202zM728 0v202q9 0 14.5 -27.5
t5.5 -72.5q0 -46 -5.5 -74t-14.5 -28zM423 604q-33 0 -54.5 21t-21.5 54q0 34 21.5 55.5t54.5 21.5q34 0 55 -21.5t21 -55.5q0 -33 -21 -54t-55 -21zM249 604q-33 0 -54.5 21t-21.5 54q0 34 21.5 55.5t54.5 21.5q34 0 55.5 -21.5t21.5 -55.5q0 -33 -21.5 -54t-55.5 -21z" />
    <glyph glyph-name="uniFB51" unicode="&#x671;" horiz-adv-x="354" arabic-form="final" 
d="M238 0v202h116v-202h-116zM72 0v751h174v-751h-174zM354 0v202q8 0 14 -27.5t6 -72.5q0 -46 -6 -74t-14 -28zM300 850v100q0 25 -15 38t-38 13t-48.5 -14.5t-43 -41t-17.5 -61.5h-59q0 28 8 64.5t26.5 70.5t49.5 56.5t78 22.5q45 0 73.5 -20t42.5 -52.5t14 -70.5v-105
h-71zM195 850q-56 0 -95.5 16t-70.5 57l39 17q-14 -16 -34.5 -39t-40.5 -47l-47 35q23 55 48.5 84t48.5 29q14 0 24 -8.5t25 -18.5t42.5 -18.5t76.5 -8.5h160v-98h-176z" />
    <glyph glyph-name="uniFB57" unicode="&#x67e;" horiz-adv-x="1059" arabic-form="final" 
d="M344 -1q-86 0 -149.5 24.5t-104.5 67t-61 96t-20 112.5q0 54 16.5 109t48.5 105l134 -61q-16 -33 -24 -63.5t-8 -58.5q0 -38 17 -67.5t53.5 -45.5t92.5 -16l329 1q39 0 59 7.5t28 25.5t8 51v239h173v-239q0 -89 -32 -153t-91.5 -98t-144.5 -35zM1031 0q-85 0 -144.5 34
t-91.5 98.5t-32 153.5h173q0 -33 8 -51t28.5 -25.5t58.5 -7.5h28v-202h-28zM1059 0v202q9 0 14.5 -27.5t5.5 -72.5q0 -46 -5.5 -74t-14.5 -28zM473 -392q-32 0 -53 20.5t-21 51.5q0 33 21 53.5t53 20.5t52.5 -20.5t20.5 -53.5q0 -31 -20.5 -51.5t-52.5 -20.5zM560 -239
q-33 0 -54.5 21t-21.5 54t21.5 55t54.5 22t54.5 -22t21.5 -55t-21.5 -54t-54.5 -21zM386 -239q-33 0 -54.5 21t-21.5 54t21.5 55t54.5 22t55 -22t22 -55t-22 -54t-55 -21z" />
    <glyph glyph-name="uniFB58" unicode="&#x67e;" horiz-adv-x="391" arabic-form="initial" 
d="M155 525h174v-525h-329v202h155v323zM0 0q-9 0 -14.5 28t-5.5 74q0 45 5.5 72.5t14.5 27.5v-202zM182 -392q-32 0 -53 20.5t-21 51.5q0 33 21 53.5t53 20.5t52.5 -20.5t20.5 -53.5q0 -31 -20.5 -51.5t-52.5 -20.5zM269 -239q-33 0 -54.5 21t-21.5 54t21.5 55t54.5 22
t54.5 -22t21.5 -55t-21.5 -54t-54.5 -21zM95 -239q-33 0 -54.5 21t-21.5 54t21.5 55t54.5 22t55 -22t22 -55t-22 -54t-55 -21z" />
    <glyph glyph-name="uniFB59" unicode="&#x67e;" horiz-adv-x="453" arabic-form="medial" 
d="M0 0v202h57q38 0 58 7.5t28 25.5t8 51v239h174v-239q0 -89 -32.5 -153t-92 -98t-143.5 -35h-57zM419 0q-84 0 -144 34t-92 98.5t-32 153.5h174q0 -33 7.5 -51t28 -25.5t58.5 -7.5h34v-202h-34zM453 0v202q9 0 14.5 -27.5t5.5 -72.5q0 -46 -5.5 -74t-14.5 -28zM0 0
q-9 0 -14.5 28t-5.5 74q0 45 5.5 72.5t14.5 27.5v-202zM226 -392q-32 0 -53 20.5t-21 51.5q0 33 21 53.5t53 20.5t52.5 -20.5t20.5 -53.5q0 -31 -20.5 -51.5t-52.5 -20.5zM313 -239q-33 0 -54.5 21t-21.5 54t21.5 55t54.5 22t54.5 -22t21.5 -55t-21.5 -54t-54.5 -21z
M139 -239q-33 0 -54.5 21t-21.5 54t21.5 55t54.5 22t55 -22t22 -55t-22 -54t-55 -21z" />
    <glyph glyph-name="uniFB67" unicode="&#x679;" horiz-adv-x="1059" arabic-form="final" 
d="M344 -1q-86 0 -149.5 24.5t-104.5 67t-61 96t-20 112.5q0 54 16.5 109t48.5 105l134 -61q-16 -33 -24 -63.5t-8 -58.5q0 -38 17 -67.5t53.5 -45.5t92.5 -16l329 1q39 0 59 7.5t28 25.5t8 51v239h173v-239q0 -89 -32 -153t-91.5 -98t-144.5 -35zM1031 0q-85 0 -144.5 34
t-91.5 98.5t-32 153.5h173q0 -33 8 -51t28.5 -25.5t58.5 -7.5h28v-202h-28zM1059 0v202q9 0 14.5 -27.5t5.5 -72.5q0 -46 -5.5 -74t-14.5 -28zM320 579v89h28v211h90v-106q16 16 36 25t43 9q50 0 79.5 -37.5t29.5 -101.5v-89h-306zM438 668h98q-1 27 -12.5 43t-33.5 15
q-21 -1 -35.5 -17t-16.5 -41z" />
    <glyph glyph-name="uniFB68" unicode="&#x679;" horiz-adv-x="391" arabic-form="initial" 
d="M155 525h174v-525h-329v202h155v323zM0 0q-9 0 -14.5 28t-5.5 74q0 45 5.5 72.5t14.5 27.5v-202zM89 622v89h28v211h90v-106q16 16 36 25t43 9q50 0 79.5 -37.5t29.5 -101.5v-89h-306zM207 711h98q-1 27 -12.5 43t-33.5 15q-21 -1 -35.5 -17t-16.5 -41z" />
    <glyph glyph-name="uniFB69" unicode="&#x679;" horiz-adv-x="453" arabic-form="medial" 
d="M0 0v202h57q38 0 58 7.5t28 25.5t8 51v239h174v-239q0 -89 -32.5 -153t-92 -98t-143.5 -35h-57zM419 0q-84 0 -144 34t-92 98.5t-32 153.5h174q0 -33 7.5 -51t28 -25.5t58.5 -7.5h34v-202h-34zM453 0v202q9 0 14.5 -27.5t5.5 -72.5q0 -46 -5.5 -74t-14.5 -28zM0 0
q-9 0 -14.5 28t-5.5 74q0 45 5.5 72.5t14.5 27.5v-202zM72 622v89h28v211h90v-106q16 16 36 25t43 9q50 0 79.5 -37.5t29.5 -101.5v-89h-306zM190 711h98q-1 27 -12.5 43t-33.5 15q-21 -1 -35.5 -17t-16.5 -41z" />
    <glyph glyph-name="uniFB6B" unicode="&#x6a4;" horiz-adv-x="1169" arabic-form="final" 
d="M377 0q-86 0 -149.5 24.5t-104.5 67t-61 96t-20 112.5q0 54 16.5 109t48.5 105l134 -61q-16 -33 -24 -63.5t-8 -58.5q0 -38 17 -67.5t53.5 -45.5t92.5 -16h52v-202h-47zM1169 0v202q9 0 14.5 -27.5t5.5 -72.5q0 -46 -5.5 -74t-14.5 -28zM424 0q-9 0 -14.5 28t-5.5 74
q0 45 5.5 72.5t14.5 27.5v-202zM424 0v202q56 0 104.5 2t89.5 4q8 1 14 -6t12.5 -13.5t12.5 -6.5q87 10 139 26.5t75 39t23 49.5q0 23 -12 41t-33.5 28.5t-50.5 10.5t-51.5 -11.5t-35 -29.5t-12.5 -39q0 -26 24 -49t77.5 -40t143.5 -27q7 0 13 7t12.5 13.5t12.5 5.5
q41 -2 87.5 -3.5t99.5 -1.5v-202q-141 0 -258.5 18t-204 55t-134 95t-47.5 138q0 72 37 126t98.5 85t136.5 31t136.5 -30.5t98.5 -85t37 -127.5q0 -72 -37.5 -124t-102 -87.5t-147.5 -55.5t-174.5 -29t-183.5 -9zM797 942q32 0 52.5 -20.5t20.5 -51.5q0 -33 -20.5 -53.5
t-52.5 -20.5t-53 20.5t-21 53.5q0 31 21 51.5t53 20.5zM884 789q33 0 54.5 -21t21.5 -54t-21.5 -55t-54.5 -22t-54.5 22t-21.5 55t21.5 54t54.5 21zM710 789q33 0 55 -21t22 -54t-22 -55t-55 -22t-54.5 22t-21.5 55t21.5 54t54.5 21z" />
    <glyph glyph-name="uniFB6C" unicode="&#x6a4;" horiz-adv-x="669" arabic-form="initial" 
d="M0 0v202h443v291h174v-493h-617zM249 10q-41 16 -74 53t-52.5 88.5t-19.5 111.5q0 86 39.5 150t107 99.5t147.5 35.5q61 0 118.5 -17.5t101.5 -37.5l-70 -175q-46 20 -86.5 30t-75.5 10q-41 0 -70 -13t-44.5 -34.5t-15.5 -48.5q0 -30 16 -60.5t40 -44.5zM0 0
q-9 0 -14.5 28t-5.5 74q0 45 5.5 72.5t14.5 27.5v-202zM398 942q32 0 52.5 -20.5t20.5 -51.5q0 -33 -20.5 -53.5t-52.5 -20.5t-53 20.5t-21 53.5q0 31 21 51.5t53 20.5zM485 789q33 0 54.5 -21t21.5 -54t-21.5 -55t-54.5 -22t-54.5 22t-21.5 55t21.5 54t54.5 21zM311 789
q33 0 55 -21t22 -54t-22 -55t-55 -22t-54.5 22t-21.5 55t21.5 54t54.5 21z" />
    <glyph glyph-name="uniFB6D" unicode="&#x6a4;" horiz-adv-x="745" arabic-form="medial" 
d="M0 0v202q56 0 104.5 2t89.5 4q8 1 14 -6t12.5 -13.5t12.5 -6.5q87 10 139 26.5t75 39t23 49.5q0 23 -12 41t-33.5 28.5t-50.5 10.5t-51.5 -11.5t-35 -29.5t-12.5 -39q0 -26 24 -49t77.5 -40t143.5 -27q7 0 13 7t12.5 13.5t12.5 5.5q41 -2 87.5 -3.5t99.5 -1.5v-202
q-141 0 -258.5 18t-204 55t-134 95t-47.5 138q0 72 37 126t98.5 85t136.5 31t136.5 -30.5t98.5 -85t37 -127.5q0 -72 -37.5 -124t-102 -87.5t-147.5 -55.5t-174.5 -29t-183.5 -9zM745 0v202q9 0 14.5 -27.5t5.5 -72.5q0 -46 -5.5 -74t-14.5 -28zM0 0q-9 0 -14.5 28t-5.5 74
q0 45 5.5 72.5t14.5 27.5v-202zM373 942q32 0 52.5 -20.5t20.5 -51.5q0 -33 -20.5 -53.5t-52.5 -20.5t-53 20.5t-21 53.5q0 31 21 51.5t53 20.5zM460 789q33 0 54.5 -21t21.5 -54t-21.5 -55t-54.5 -22t-54.5 22t-21.5 55t21.5 54t54.5 21zM286 789q33 0 55 -21t22 -54
t-22 -55t-55 -22t-54.5 22t-21.5 55t21.5 54t54.5 21z" />
    <glyph glyph-name="uniFB7B" unicode="&#x686;" horiz-adv-x="805" arabic-form="final" 
d="M651 0v202h154v-202h-154zM805 0v202q9 0 14.5 -27.5t5.5 -72.5q0 -46 -5.5 -74t-14.5 -28zM586 -328q-26 0 -43 16.5t-17 42.5q0 27 17 43.5t43 16.5q27 0 43.5 -16.5t16.5 -43.5q0 -26 -16.5 -42.5t-43.5 -16.5zM657 -203q-27 0 -44.5 16.5t-17.5 44.5t17.5 45t44.5 17
t44.5 -17t17.5 -45t-17.5 -44.5t-44.5 -16.5zM515 -203q-27 0 -44 16.5t-17 44.5t17 45t44 17t45 -17t18 -45t-18 -44.5t-45 -16.5zM492 134v135q0 32 -20 57t-58.5 39.5t-94.5 14.5q-39 0 -79.5 -9t-70.5 -21l-76 168q51 32 109.5 48t117.5 16q68 0 130 -20.5t110.5 -60.5
t76.5 -98t28 -134v-135h-173zM370 -392q-59 0 -117.5 18t-106 53.5t-76 89t-28.5 124.5q0 57 23.5 112t70 99.5t117 71t163.5 26.5v-202q-62 0 -107 -15.5t-69 -40t-24 -50.5q0 -21 18 -40t54 -31t89 -12q12 0 24.5 1t24.5 3l46 -191q-24 -8 -50 -12t-52 -4zM416 0v202h285
l-38 -202h-247z" />
    <glyph glyph-name="uniFB7C" unicode="&#x686;" horiz-adv-x="697" arabic-form="initial" 
d="M443 134v135q0 32 -20 57t-58 39.5t-94 14.5q-39 0 -80 -9t-71 -21l-76 168q52 32 110 48t118 16q68 0 129.5 -20.5t110.5 -60.5t77 -98t28 -134v-135h-174zM0 0v202h652l-37 -202h-615zM0 0q-9 0 -14.5 28t-5.5 74q0 45 5.5 72.5t14.5 27.5v-202zM312 -392
q-32 0 -53 20.5t-21 51.5q0 33 21 53.5t53 20.5t52.5 -20.5t20.5 -53.5q0 -31 -20.5 -51.5t-52.5 -20.5zM399 -239q-33 0 -54.5 21t-21.5 54t21.5 55t54.5 22t54.5 -22t21.5 -55t-21.5 -54t-54.5 -21zM225 -239q-33 0 -54.5 21t-21.5 54t21.5 55t54.5 22t55 -22t22 -55
t-22 -54t-55 -21z" />
    <glyph glyph-name="uniFB7D" unicode="&#x686;" horiz-adv-x="733" arabic-form="medial" 
d="M593 0v202h140v-202h-140zM0 0q-9 0 -14.5 28t-5.5 74q0 45 5.5 72.5t14.5 27.5v-202zM443 134v135q0 32 -20 57t-58 39.5t-94 14.5q-39 0 -80 -9t-71 -21l-76 168q52 32 110 48t118 16q68 0 129.5 -20.5t110.5 -60.5t77 -98t28 -134v-135h-174zM0 0v202h652l-37 -202
h-615zM733 0v202q9 0 14.5 -27.5t5.5 -72.5q0 -46 -5.5 -74t-14.5 -28zM312 -392q-32 0 -53 20.5t-21 51.5q0 33 21 53.5t53 20.5t52.5 -20.5t20.5 -53.5q0 -31 -20.5 -51.5t-52.5 -20.5zM399 -239q-33 0 -54.5 21t-21.5 54t21.5 55t54.5 22t54.5 -22t21.5 -55t-21.5 -54
t-54.5 -21zM225 -239q-33 0 -54.5 21t-21.5 54t21.5 55t54.5 22t55 -22t22 -55t-22 -54t-55 -21z" />
    <glyph glyph-name="uniFB89" unicode="&#x688;" horiz-adv-x="654" arabic-form="final" 
d="M462 0v202h192v-202h-192zM654 0v202q8 0 14 -27.5t6 -72.5q0 -46 -6 -74t-14 -28zM405 0q-1 106 -36 188t-102 137.5t-164 78.5l37 188q135 -31 232.5 -113.5t151.5 -204.5t55 -274h-174zM32 0v202h483v-202h-483zM86 689v89h28v211h90v-106q16 16 36 25t43 9
q50 0 79.5 -37.5t29.5 -101.5v-89h-306zM204 778h98q-1 27 -12.5 43t-33.5 15q-21 -1 -35.5 -17t-16.5 -41z" />
    <glyph glyph-name="uniFB8B" unicode="&#x698;" horiz-adv-x="422" arabic-form="final" 
d="M267 0v202h155v-202h-155zM0 -97q52 2 80.5 12t40 28.5t11.5 46.5v535h174v-535q0 -82 -33.5 -143t-94.5 -96t-146 -40zM422 0v202q8 0 14 -27.5t6 -72.5q0 -46 -6 -74t-14 -28zM220 920q32 0 52.5 -20.5t20.5 -51.5q0 -33 -20.5 -53.5t-52.5 -20.5t-53 20.5t-21 53.5
q0 31 21 51.5t53 20.5zM307 767q33 0 54.5 -21t21.5 -54t-21.5 -55t-54.5 -22t-54.5 22t-21.5 55t21.5 54t54.5 21zM133 767q33 0 55 -21t22 -54t-22 -55t-55 -22t-54.5 22t-21.5 55t21.5 54t54.5 21z" />
    <glyph glyph-name="uniFB8D" unicode="&#x691;" horiz-adv-x="422" arabic-form="final" 
d="M267 0v202h155v-202h-155zM0 -97q52 2 80.5 12t40 28.5t11.5 46.5v535h174v-535q0 -82 -33.5 -143t-94.5 -96t-146 -40zM422 0v202q8 0 14 -27.5t6 -72.5q0 -46 -6 -74t-14 -28zM66 622v89h28v211h90v-106q16 16 36 25t43 9q50 0 79.5 -37.5t29.5 -101.5v-89h-306z
M184 711h98q-1 27 -12.5 43t-33.5 15q-21 -1 -35.5 -17t-16.5 -41z" />
    <glyph glyph-name="uniFB8F" unicode="&#x6a9;" horiz-adv-x="1100" arabic-form="final" 
d="M595 202v-202h-220q-86 0 -149.5 24.5t-104.5 67t-61 96t-20 112.5q0 54 16.5 109t48.5 105l134 -61q-16 -33 -24 -63.5t-8 -58.5q0 -38 17 -67.5t53.5 -45.5t92.5 -16h225zM485 0q-8 0 -14 28t-6 74q0 45 6 72.5t14 27.5v-202zM485 0v202h174q45 0 76 9.5t47 25.5t16 35
q0 12 -7.5 25.5t-29.5 34t-63 53.5t-110 84l-72 55l105 160l70 -52q76 -56 129 -100t86.5 -84t49 -82t15.5 -94q0 -82 -39.5 -143t-110 -95t-162.5 -34h-174zM516 524v169l512 235v-217zM1100 0v202q9 0 14.5 -27.5t5.5 -72.5q0 -46 -5.5 -74t-14.5 -28zM1066 0
q-85 0 -144.5 34t-91.5 98.5t-32 153.5v6l172 -16l1 -2q2 -28 10 -44t28.5 -22t56.5 -6h34v-202h-34z" />
    <glyph glyph-name="uniFB90" unicode="&#x6a9;" horiz-adv-x="595" arabic-form="initial" 
d="M0 0v202h174q45 0 75.5 9.5t46.5 25.5t16 35q0 12 -7 25.5t-29 34t-63.5 53.5t-109.5 84l-73 55l105 160l70 -52q76 -56 129.5 -100t87 -84t49 -82t15.5 -94q0 -82 -40 -143t-110 -95t-162 -34h-174zM30 524v169l512 235v-217zM0 0q-9 0 -14.5 28t-5.5 74q0 45 5.5 72.5
t14.5 27.5v-202z" />
    <glyph glyph-name="uniFB91" unicode="&#x6a9;" horiz-adv-x="615" arabic-form="medial" 
d="M580 0q-84 0 -144 34t-92 98.5t-32 153.5v6l173 -16l1 -2q1 -28 9.5 -44t28.5 -22t56 -6h35v-202h-35zM0 0q-9 0 -14.5 28t-5.5 74q0 45 5.5 72.5t14.5 27.5v-202zM0 0v202h174q45 0 75.5 9.5t46.5 25.5t16 35q0 12 -7 25.5t-29 34t-63.5 53.5t-109.5 84l-73 55l105 160
l70 -52q76 -56 129.5 -100t87 -84t49 -82t15.5 -94q0 -82 -40 -143t-110 -95t-162 -34h-174zM30 524v169l512 235v-217zM615 0v202q8 0 14 -27.5t6 -72.5q0 -46 -6 -74t-14 -28z" />
    <glyph glyph-name="uniFB93" unicode="&#x6af;" horiz-adv-x="1100" arabic-form="final" 
d="M595 202v-202h-220q-86 0 -149.5 24.5t-104.5 67t-61 96t-20 112.5q0 54 16.5 109t48.5 105l134 -61q-16 -33 -24 -63.5t-8 -58.5q0 -38 17 -67.5t53.5 -45.5t92.5 -16h225zM485 0q-8 0 -14 28t-6 74q0 45 6 72.5t14 27.5v-202zM485 0v202h174q45 0 76 9.5t47 25.5t16 35
q0 12 -7.5 25.5t-29.5 34t-63 53.5t-110 84l-72 55l105 160l70 -52q76 -56 129 -100t86.5 -84t49 -82t15.5 -94q0 -82 -39.5 -143t-110 -95t-162.5 -34h-174zM516 524v169l512 235v-217zM937 981l-420 -167l91 140l420 167zM1100 0v202q9 0 14.5 -27.5t5.5 -72.5
q0 -46 -5.5 -74t-14.5 -28zM1066 0q-85 0 -144.5 34t-91.5 98.5t-32 153.5v6l172 -16l1 -2q2 -28 10 -44t28.5 -22t56.5 -6h34v-202h-34z" />
    <glyph glyph-name="uniFB94" unicode="&#x6af;" horiz-adv-x="592" arabic-form="initial" 
d="M452 981l-420 -167l91 140l419 167zM0 0q-9 0 -14.5 28t-5.5 74q0 45 5.5 72.5t14.5 27.5v-202zM0 0v202h174q45 0 75.5 9.5t46.5 25.5t16 35q0 12 -7 25.5t-29 34t-63.5 53.5t-109.5 84l-73 55l105 160l70 -52q76 -56 129.5 -100t87 -84t49 -82t15.5 -94q0 -82 -40 -143
t-110 -95t-162 -34h-174zM30 524v169l512 235v-217z" />
    <glyph glyph-name="uniFB95" unicode="&#x6af;" horiz-adv-x="615" arabic-form="medial" 
d="M580 0q-84 0 -144 34t-92 98.5t-32 153.5v6l173 -16l1 -2q1 -28 9.5 -44t28.5 -22t56 -6h35v-202h-35zM0 0q-9 0 -14.5 28t-5.5 74q0 45 5.5 72.5t14.5 27.5v-202zM0 0v202h174q45 0 75.5 9.5t46.5 25.5t16 35q0 12 -7 25.5t-29 34t-63.5 53.5t-109.5 84l-73 55l105 160
l70 -52q76 -56 129.5 -100t87 -84t49 -82t15.5 -94q0 -82 -40 -143t-110 -95t-162 -34h-174zM30 524v169l512 235v-217zM452 981l-420 -167l91 140l419 167zM615 0v202q8 0 14 -27.5t6 -72.5q0 -46 -6 -74t-14 -28z" />
    <glyph glyph-name="uniFB9F" unicode="&#x6ba;" horiz-adv-x="953" arabic-form="final" 
d="M918 0q-112 0 -181 60.5t-83 168.5l170 39q2 -39 22.5 -52.5t71.5 -13.5h35v-202h-35zM424 -285q-97 0 -169 33.5t-119.5 93.5t-71.5 139.5t-24 171.5q0 36 4 72.5t12 71.5l168 -31q-6 -29 -8 -57t-2 -56q0 -76 21.5 -129t68 -80t120.5 -27t124.5 27t76.5 80t26 132v369
h174v-369q0 -94 -26 -174t-77.5 -140t-126 -93.5t-171.5 -33.5zM953 0v202q8 0 14 -27.5t6 -72.5q0 -46 -6 -74t-14 -28z" />
    <glyph glyph-name="uniFBA7" unicode="&#x6c1;" horiz-adv-x="728" arabic-form="final" 
d="M728 0q-73 0 -123 19t-86 61.5t-66 114.5q-25 65 -52.5 91.5t-64.5 26.5q-29 0 -49.5 -16t-34 -42.5t-24 -60.5t-21.5 -70l-167 56q23 78 49 140t60 105.5t80 66.5t107 23q101 0 167.5 -65t111.5 -180q12 -30 23 -45t31 -19t59 -4v-202zM728 0v202q9 0 14.5 -27.5
t5.5 -72.5q0 -46 -5.5 -74t-14.5 -28z" />
    <glyph glyph-name="uniFBA8" unicode="&#x6c1;" horiz-adv-x="391" arabic-form="initial" 
d="M155 525h174v-525h-329v202h155v323zM0 0q-9 0 -14.5 28t-5.5 74q0 45 5.5 72.5t14.5 27.5v-202zM153 -95q64 2 93 -26t29 -67q0 -41 -26.5 -67t-68.5 -26q-36 0 -64.5 24t-28.5 69q0 21 7.5 39t17.5 34l89 140h94l-86 -212z" />
    <glyph glyph-name="uniFBA9" unicode="&#x6c1;" horiz-adv-x="672" arabic-form="medial" 
d="M672 202v-202h-28q-40 0 -67 -29t-44 -77t-28.5 -106.5t-21.5 -117.5l-118 -48q-111 52 -189.5 147.5t-102.5 230.5h-73v202h228q0 -103 10 -176t33 -124t62 -87t97 -67l-62 14q3 88 20 167.5t50.5 140.5t84.5 96.5t121 35.5h28zM672 0v202q9 0 14.5 -27.5t5.5 -72.5
q0 -46 -5.5 -74t-14.5 -28zM0 0q-9 0 -14.5 28t-5.5 74q0 45 5.5 72.5t14.5 27.5v-202z" />
    <glyph glyph-name="uniFBAB" unicode="&#x6be;" horiz-adv-x="1181" arabic-form="final" 
d="M1146 0q-67 0 -115 34t-73.5 98.5t-25.5 153.5l121 -26q3 -24 12.5 -36.5t29 -17t51.5 -4.5h35v-202h-35zM46 -133q-4 24 -5 57.5t3.5 71.5t18.5 74t40.5 66t69.5 48t105 18v-202q-56 1 -86.5 -11.5t-44.5 -42t-17 -79.5h-84zM750 -2q-76 0 -152 24t-138.5 69t-100 110
t-37.5 148q0 71 28.5 130t76.5 94.5t108 35.5q47 0 87 -20.5t70.5 -55.5t47.5 -80.5t17 -95.5q0 -70 -30 -134t-90 -114.5t-150 -79.5t-209 -29v202q109 2 183.5 27t112 61t37.5 71q0 21 -10 38t-27 27t-37 10q-19 0 -35 -9.5t-25.5 -26.5t-9.5 -39q0 -33 22 -67.5t62 -63.5
t93.5 -46.5t115.5 -17.5q45 0 71 9t37.5 26t11.5 39q0 50 -58.5 95.5t-183 83.5t-325.5 67l24 200q160 -22 292 -56t226.5 -84t146 -121t51.5 -167q0 -69 -24.5 -118t-68 -80.5t-97.5 -46.5t-113 -15zM1181 0v202q8 0 14 -27.5t6 -72.5q0 -46 -6 -74t-14 -28z" />
    <glyph glyph-name="uniFBAC" unicode="&#x6be;" horiz-adv-x="847" arabic-form="initial" 
d="M502 -2q-77 0 -153 24t-138.5 69t-100 110t-37.5 148q0 71 28.5 130t77 94.5t108.5 35.5q46 0 86 -20.5t70.5 -55.5t48 -80.5t17.5 -95.5q0 -70 -35 -134t-101 -114.5t-160 -79.5t-213 -29v202q82 1 148.5 16t114.5 38.5t73.5 51t25.5 53.5q0 21 -10 38t-26.5 27
t-36.5 10q-19 0 -35 -9.5t-25.5 -26.5t-9.5 -39q0 -33 21.5 -67.5t61.5 -63.5t93.5 -46.5t116.5 -17.5q44 0 70 9t37.5 26t11.5 39q0 52 -45.5 90t-142 68.5t-249.5 58.5q-8 -14 -16 -16t-16.5 2t-17.5 5q-27 5 -57 9.5t-62 9.5l22 183q169 -23 307.5 -50.5t239.5 -69
t156 -107.5t55 -165q0 -69 -25 -118t-68 -80.5t-97 -46.5t-113 -15zM0 0q-9 0 -14.5 28t-5.5 74q0 45 5.5 72.5t14.5 27.5v-202z" />
    <glyph glyph-name="uniFBAD" unicode="&#x6be;" horiz-adv-x="932" arabic-form="medial" 
d="M897 0q-67 0 -114.5 34t-73 98.5t-25.5 153.5l121 -26q3 -24 12.5 -36.5t29 -17t50.5 -4.5h35v-202h-35zM0 0q-9 0 -14.5 28t-5.5 74q0 45 5.5 72.5t14.5 27.5v-202zM502 -2q-77 0 -153 24t-138.5 69t-100 110t-37.5 148q0 71 28.5 130t77 94.5t108.5 35.5q46 0 86 -20.5
t70.5 -55.5t48 -80.5t17.5 -95.5q0 -70 -35 -134t-101 -114.5t-160 -79.5t-213 -29v202q82 1 148.5 16t114.5 38.5t73.5 51t25.5 53.5q0 21 -10 38t-26.5 27t-36.5 10q-19 0 -35 -9.5t-25.5 -26.5t-9.5 -39q0 -33 21.5 -67.5t61.5 -63.5t93.5 -46.5t116.5 -17.5q44 0 70 9
t37.5 26t11.5 39q0 52 -45.5 90t-142 68.5t-249.5 58.5q-8 -14 -16 -16t-16.5 2t-17.5 5q-27 5 -57 9.5t-62 9.5l22 183q169 -23 307.5 -50.5t239.5 -69t156 -107.5t55 -165q0 -69 -25 -118t-68 -80.5t-97 -46.5t-113 -15zM932 0v202q9 0 14.5 -27.5t5.5 -72.5
q0 -46 -5.5 -74t-14.5 -28z" />
    <glyph glyph-name="uniFBAF" unicode="&#x6d2;" horiz-adv-x="1141" arabic-form="final" 
d="M761 -193l38 -199q-31 -2 -61 -3t-58 -1q-85 0 -172 8t-165.5 26.5t-140.5 52.5t-98 86t-36 125q0 74 37.5 126.5t102 86.5t146 53t171.5 26.5t178 7.5h438v-202h-438q-91 0 -174 -10t-147.5 -24.5t-102 -31.5t-37.5 -32q0 -14 36 -30.5t97.5 -32t140.5 -25t164 -9.5
q20 0 40 0.5t41 1.5zM1141 0v202q9 0 14.5 -27.5t5.5 -72.5q0 -46 -5.5 -74t-14.5 -28z" />
    <glyph glyph-name="uniFBB1" unicode="&#x6d3;" horiz-adv-x="1141" arabic-form="final" 
d="M761 -193l38 -199q-31 -2 -61 -3t-58 -1q-85 0 -172 8t-165.5 26.5t-140.5 52.5t-98 86t-36 125q0 74 37.5 126.5t102 86.5t146 53t171.5 26.5t178 7.5h438v-202h-438q-91 0 -174 -10t-147.5 -24.5t-102 -31.5t-37.5 -32q0 -14 36 -30.5t97.5 -32t140.5 -25t164 -9.5
q20 0 40 0.5t41 1.5zM1141 0v202q9 0 14.5 -27.5t5.5 -72.5q0 -46 -5.5 -74t-14.5 -28zM245 321q-75 0 -122 29t-47 84q0 39 22.5 67.5t59 44t78.5 15.5q26 0 50.5 -5.5t46.5 -17.5l-37 -80q-12 2 -26 4t-26 2q-38 0 -60.5 -11.5t-22.5 -25.5q0 -13 22.5 -24.5t61.5 -11.5
v-70zM51 293v98h297v-98h-297z" />
    <glyph glyph-name="uniFBFD" unicode="&#x6cc;" horiz-adv-x="911" arabic-form="final" 
d="M481 -352q-144 0 -244.5 51t-152.5 146.5t-52 230.5q0 33 3.5 69t9.5 74l159 -32q-5 -34 -7.5 -59.5t-2.5 -48.5q0 -121 67 -175t215 -54q87 0 142.5 15t82 38t26.5 46q0 19 -15.5 34t-44.5 30t-67 31l50 163q39 -17 83 -39.5t82 -52.5t62 -70.5t24 -93.5q0 -40 -15 -82
t-47 -81.5t-81.5 -71t-118.5 -50t-158 -18.5zM815 0q-192 0 -289 95l122 144q9 -9 33 -17t59 -14t75 -6h96v-202h-96zM911 0v202q8 0 14 -27.5t6 -72.5q0 -46 -6 -74t-14 -28z" />
    <glyph glyph-name="uniFBFE" unicode="&#x6cc;" horiz-adv-x="391" arabic-form="initial" 
d="M155 525h174v-525h-329v202h155v323zM0 0q-9 0 -14.5 28t-5.5 74q0 45 5.5 72.5t14.5 27.5v-202zM269 -241q-33 0 -54.5 21.5t-21.5 54.5t21.5 54.5t54.5 21.5t54.5 -21.5t21.5 -54.5t-21.5 -54.5t-54.5 -21.5zM95 -241q-33 0 -54.5 21.5t-21.5 54.5t21.5 54.5t54.5 21.5
t55 -21.5t22 -54.5t-22 -54.5t-55 -21.5z" />
    <glyph glyph-name="uniFBFF" unicode="&#x6cc;" horiz-adv-x="453" arabic-form="medial" 
d="M0 0v202h57q38 0 58 7.5t28 25.5t8 51v239h174v-239q0 -89 -32.5 -153t-92 -98t-143.5 -35h-57zM419 0q-84 0 -144 34t-92 98.5t-32 153.5h174q0 -33 7.5 -51t28 -25.5t58.5 -7.5h34v-202h-34zM453 0v202q9 0 14.5 -27.5t5.5 -72.5q0 -46 -5.5 -74t-14.5 -28zM0 0
q-9 0 -14.5 28t-5.5 74q0 45 5.5 72.5t14.5 27.5v-202zM313 -241q-33 0 -54.5 21.5t-21.5 54.5t21.5 54.5t54.5 21.5t54.5 -21.5t21.5 -54.5t-21.5 -54.5t-54.5 -21.5zM139 -241q-33 0 -54.5 21.5t-21.5 54.5t21.5 54.5t54.5 21.5t55 -21.5t22 -54.5t-22 -54.5t-55 -21.5z
" />
    <glyph glyph-name="uniFE82" unicode="&#x622;" horiz-adv-x="354" arabic-form="final" 
d="M238 0v202h116v-202h-116zM72 0v751h174v-751h-174zM354 0v202q8 0 14 -27.5t6 -72.5q0 -46 -6 -74t-14 -28zM-20 846q0 71 32 108.5t99 37.5q28 0 70 -4.5t85 -8.5t72 -2v-98q-27 -2 -67.5 1t-81 7.5t-67.5 4.5q-30 0 -40 -9t-10 -37h-92z" />
    <glyph glyph-name="uniFE84" unicode="&#x623;" horiz-adv-x="354" arabic-form="final" 
d="M238 0v202h116v-202h-116zM72 0v751h174v-751h-174zM354 0v202q8 0 14 -27.5t6 -72.5q0 -46 -6 -74t-14 -28zM205 871q-75 0 -122 29t-47 84q0 39 22.5 67.5t59 44t78.5 15.5q26 0 50.5 -5.5t46.5 -17.5l-37 -80q-12 2 -26 4t-26 2q-38 0 -60.5 -11.5t-22.5 -25.5
q0 -13 22.5 -24.5t61.5 -11.5v-70zM11 843v98h297v-98h-297z" />
    <glyph glyph-name="uniFE86" unicode="&#x624;" horiz-adv-x="670" arabic-form="final" 
d="M518 0v202h152v-202h-152zM670 0v202q9 0 14.5 -27.5t5.5 -72.5q0 -46 -5.5 -74t-14.5 -28zM85 -291v202h171q72 0 98.5 20.5t26.5 57.5v504h173v-504q0 -86 -36.5 -149t-103.5 -97t-158 -34h-171zM335 0q-90 0 -156 37t-102.5 98.5t-36.5 135.5q0 60 23 110t63.5 87.5
t94 58.5t115.5 21q60 0 117 -17.5t101 -37.5l-70 -179q-84 50 -148 50q-38 0 -65 -14t-42 -35.5t-15 -44.5q0 -21 13.5 -41t40.5 -32.5t67 -12.5h164v-184h-164zM348 692q-75 0 -122 29t-47 84q0 39 22.5 67.5t59 44t78.5 15.5q26 0 50.5 -5.5t46.5 -17.5l-37 -80
q-12 2 -26 4t-26 2q-38 0 -60.5 -11.5t-22.5 -25.5q0 -13 22.5 -24.5t61.5 -11.5v-70zM154 664v98h297v-98h-297z" />
    <glyph glyph-name="uniFE88" unicode="&#x625;" horiz-adv-x="354" arabic-form="final" 
d="M238 0v202h116v-202h-116zM72 0v884h174v-884h-174zM354 0v202q8 0 14 -27.5t6 -72.5q0 -46 -6 -74t-14 -28zM205 -324q-75 0 -122 29t-47 84q0 39 22.5 67.5t59 44t78.5 15.5q26 0 50.5 -5.5t46.5 -17.5l-37 -80q-12 2 -26 4t-26 2q-38 0 -60.5 -11.5t-22.5 -25.5
q0 -13 22.5 -24.5t61.5 -11.5v-70zM11 -352v98h297v-98h-297z" />
    <glyph glyph-name="uniFE8A" unicode="&#x626;" horiz-adv-x="875" arabic-form="final" 
d="M481 -352q-144 0 -244.5 51t-152.5 146.5t-52 230.5q0 33 3.5 69t9.5 74l159 -32q-5 -34 -7.5 -59.5t-2.5 -48.5q0 -121 67 -175t215 -54q87 0 142.5 15t82 38t26.5 46q0 19 -15.5 34t-44.5 30t-67 31l50 163q39 -17 83 -39.5t82 -52.5t62 -70.5t24 -93.5q0 -40 -15 -82
t-47 -81.5t-81.5 -71t-118.5 -50t-158 -18.5zM815 0q-192 0 -289 95l122 144q9 -9 33 -17t59 -14t75 -6h96v-202h-96zM911 0v202q8 0 14 -27.5t6 -72.5q0 -46 -6 -74t-14 -28zM203 291q-75 0 -122 29t-47 84q0 39 22.5 67.5t59 44t78.5 15.5q26 0 50.5 -5.5t46.5 -17.5
l-37 -80q-12 2 -26 4t-26 2q-38 0 -60.5 -11.5t-22.5 -25.5q0 -13 22.5 -24.5t61.5 -11.5v-70zM9 263v98h297v-98h-297z" />
    <glyph glyph-name="uniFE8B" unicode="&#x626;" horiz-adv-x="391" arabic-form="initial" 
d="M155 525h174v-525h-329v202h155v323zM0 0q-9 0 -14.5 28t-5.5 74q0 45 5.5 72.5t14.5 27.5v-202zM288 669q-75 0 -122 29t-47 84q0 39 22.5 67.5t59 44t78.5 15.5q26 0 50.5 -5.5t46.5 -17.5l-37 -80q-12 2 -26 4t-26 2q-38 0 -60.5 -11.5t-22.5 -25.5q0 -13 22.5 -24.5
t61.5 -11.5v-70zM94 641v98h297v-98h-297z" />
    <glyph glyph-name="uniFE8C" unicode="&#x626;" horiz-adv-x="453" arabic-form="medial" 
d="M0 0v202h57q38 0 58 7.5t28 25.5t8 51v239h174v-239q0 -89 -32.5 -153t-92 -98t-143.5 -35h-57zM419 0q-84 0 -144 34t-92 98.5t-32 153.5h174q0 -33 7.5 -51t28 -25.5t58.5 -7.5h34v-202h-34zM453 0v202q9 0 14.5 -27.5t5.5 -72.5q0 -46 -5.5 -74t-14.5 -28zM0 0
q-9 0 -14.5 28t-5.5 74q0 45 5.5 72.5t14.5 27.5v-202zM271 669q-75 0 -122 29t-47 84q0 39 22.5 67.5t59 44t78.5 15.5q26 0 50.5 -5.5t46.5 -17.5l-37 -80q-12 2 -26 4t-26 2q-38 0 -60.5 -11.5t-22.5 -25.5q0 -13 22.5 -24.5t61.5 -11.5v-70zM77 641v98h297v-98h-297z
" />
    <glyph glyph-name="uniFE8E" unicode="&#x627;" horiz-adv-x="354" arabic-form="final" 
d="M238 0v202h116v-202h-116zM72 0v884h174v-884h-174zM354 0v202q8 0 14 -27.5t6 -72.5q0 -46 -6 -74t-14 -28z" />
    <glyph glyph-name="uniFE90" unicode="&#x628;" horiz-adv-x="1059" arabic-form="final" 
d="M344 -1q-86 0 -149.5 24.5t-104.5 67t-61 96t-20 112.5q0 54 16.5 109t48.5 105l134 -61q-16 -33 -24 -63.5t-8 -58.5q0 -38 17 -67.5t53.5 -45.5t92.5 -16l329 1q39 0 59 7.5t28 25.5t8 51v239h173v-239q0 -89 -32 -153t-91.5 -98t-144.5 -35zM1031 0q-85 0 -144.5 34
t-91.5 98.5t-32 153.5h173q0 -33 8 -51t28.5 -25.5t58.5 -7.5h28v-202h-28zM1059 0v202q9 0 14.5 -27.5t5.5 -72.5q0 -46 -5.5 -74t-14.5 -28zM473 -302q-42 0 -69 27t-27 69t27 69t69 27q43 0 69.5 -27t26.5 -69t-26.5 -69t-69.5 -27z" />
    <glyph glyph-name="uniFE91" unicode="&#x628;" horiz-adv-x="391" arabic-form="initial" 
d="M155 525h174v-525h-329v202h155v323zM0 0q-9 0 -14.5 28t-5.5 74q0 45 5.5 72.5t14.5 27.5v-202zM182 -302q-42 0 -69 27t-27 69t27 69t69 27q43 0 69.5 -27t26.5 -69t-26.5 -69t-69.5 -27z" />
    <glyph glyph-name="uniFE92" unicode="&#x628;" horiz-adv-x="453" arabic-form="medial" 
d="M0 0v202h57q38 0 58 7.5t28 25.5t8 51v239h174v-239q0 -89 -32.5 -153t-92 -98t-143.5 -35h-57zM419 0q-84 0 -144 34t-92 98.5t-32 153.5h174q0 -33 7.5 -51t28 -25.5t58.5 -7.5h34v-202h-34zM453 0v202q9 0 14.5 -27.5t5.5 -72.5q0 -46 -5.5 -74t-14.5 -28zM0 0
q-9 0 -14.5 28t-5.5 74q0 45 5.5 72.5t14.5 27.5v-202zM225 -302q-42 0 -69 27t-27 69t27 69t69 27q43 0 69.5 -27t26.5 -69t-26.5 -69t-69.5 -27z" />
    <glyph glyph-name="uniFE94" unicode="&#x629;" horiz-adv-x="741" arabic-form="final" 
d="M333 45q-58 0 -111 15t-94 46t-64.5 77t-23.5 107q0 69 31.5 122.5t87.5 89t131 54.5t162 21l3 -170q-57 -1 -101.5 -9.5t-76 -24t-47.5 -37t-16 -47.5q0 -23 13 -40t39.5 -25.5t64.5 -8.5q36 0 67 8t60 22l81 -150q-47 -25 -100 -37.5t-106 -12.5zM706 0q-84 0 -144 34
t-92 98.5t-32 153.5v323h174v-323q0 -33 7.5 -51t28 -25.5t58.5 -7.5h35v-202h-35zM741 0v202q8 0 14 -27.5t6 -72.5q0 -46 -6 -74t-14 -28zM402 695q-33 0 -54.5 21t-21.5 54q0 34 21.5 55.5t54.5 21.5q34 0 55 -21.5t21 -55.5q0 -33 -21 -54t-55 -21zM228 695
q-33 0 -54.5 21t-21.5 54q0 34 21.5 55.5t54.5 21.5q34 0 55.5 -21.5t21.5 -55.5q0 -33 -21.5 -54t-55.5 -21z" />
    <glyph glyph-name="uniFE96" unicode="&#x62a;" horiz-adv-x="1059" arabic-form="final" 
d="M344 -1q-86 0 -149.5 24.5t-104.5 67t-61 96t-20 112.5q0 54 16.5 109t48.5 105l134 -61q-16 -33 -24 -63.5t-8 -58.5q0 -38 17 -67.5t53.5 -45.5t92.5 -16l329 1q39 0 59 7.5t28 25.5t8 51v239h173v-239q0 -89 -32 -153t-91.5 -98t-144.5 -35zM1031 0q-85 0 -144.5 34
t-91.5 98.5t-32 153.5h173q0 -33 8 -51t28.5 -25.5t58.5 -7.5h28v-202h-28zM1059 0v202q9 0 14.5 -27.5t5.5 -72.5q0 -46 -5.5 -74t-14.5 -28zM560 572q-33 0 -54.5 21t-21.5 54q0 34 21.5 55.5t54.5 21.5q34 0 55 -21.5t21 -55.5q0 -33 -21 -54t-55 -21zM386 572
q-33 0 -54.5 21t-21.5 54q0 34 21.5 55.5t54.5 21.5q34 0 55.5 -21.5t21.5 -55.5q0 -33 -21.5 -54t-55.5 -21z" />
    <glyph glyph-name="uniFE97" unicode="&#x62a;" horiz-adv-x="391" arabic-form="initial" 
d="M155 525h174v-525h-329v202h155v323zM0 0q-9 0 -14.5 28t-5.5 74q0 45 5.5 72.5t14.5 27.5v-202zM330 615q-33 0 -54.5 21t-21.5 54q0 34 21.5 55.5t54.5 21.5q34 0 55 -21.5t21 -55.5q0 -33 -21 -54t-55 -21zM156 615q-33 0 -54.5 21t-21.5 54q0 34 21.5 55.5t54.5 21.5
q34 0 55.5 -21.5t21.5 -55.5q0 -33 -21.5 -54t-55.5 -21z" />
    <glyph glyph-name="uniFE98" unicode="&#x62a;" horiz-adv-x="453" arabic-form="medial" 
d="M0 0v202h57q38 0 58 7.5t28 25.5t8 51v239h174v-239q0 -89 -32.5 -153t-92 -98t-143.5 -35h-57zM419 0q-84 0 -144 34t-92 98.5t-32 153.5h174q0 -33 7.5 -51t28 -25.5t58.5 -7.5h34v-202h-34zM453 0v202q9 0 14.5 -27.5t5.5 -72.5q0 -46 -5.5 -74t-14.5 -28zM0 0
q-9 0 -14.5 28t-5.5 74q0 45 5.5 72.5t14.5 27.5v-202zM313 615q-33 0 -54.5 21t-21.5 54q0 34 21.5 55.5t54.5 21.5q34 0 55 -21.5t21 -55.5q0 -33 -21 -54t-55 -21zM139 615q-33 0 -54.5 21t-21.5 54q0 34 21.5 55.5t54.5 21.5q34 0 55.5 -21.5t21.5 -55.5
q0 -33 -21.5 -54t-55.5 -21z" />
    <glyph glyph-name="uniFE9A" unicode="&#x62b;" horiz-adv-x="1059" arabic-form="final" 
d="M344 -1q-86 0 -149.5 24.5t-104.5 67t-61 96t-20 112.5q0 54 16.5 109t48.5 105l134 -61q-16 -33 -24 -63.5t-8 -58.5q0 -38 17 -67.5t53.5 -45.5t92.5 -16l329 1q39 0 59 7.5t28 25.5t8 51v239h173v-239q0 -89 -32 -153t-91.5 -98t-144.5 -35zM1031 0q-85 0 -144.5 34
t-91.5 98.5t-32 153.5h173q0 -33 8 -51t28.5 -25.5t58.5 -7.5h28v-202h-28zM1059 0v202q9 0 14.5 -27.5t5.5 -72.5q0 -46 -5.5 -74t-14.5 -28zM473 877q32 0 52.5 -20.5t20.5 -51.5q0 -33 -20.5 -53.5t-52.5 -20.5t-53 20.5t-21 53.5q0 31 21 51.5t53 20.5zM560 724
q33 0 54.5 -21t21.5 -54t-21.5 -55t-54.5 -22t-54.5 22t-21.5 55t21.5 54t54.5 21zM386 724q33 0 55 -21t22 -54t-22 -55t-55 -22t-54.5 22t-21.5 55t21.5 54t54.5 21z" />
    <glyph glyph-name="uniFE9B" unicode="&#x62b;" horiz-adv-x="391" arabic-form="initial" 
d="M155 525h174v-525h-329v202h155v323zM0 0q-9 0 -14.5 28t-5.5 74q0 45 5.5 72.5t14.5 27.5v-202zM243 920q32 0 52.5 -20.5t20.5 -51.5q0 -33 -20.5 -53.5t-52.5 -20.5t-53 20.5t-21 53.5q0 31 21 51.5t53 20.5zM330 767q33 0 54.5 -21t21.5 -54t-21.5 -55t-54.5 -22
t-54.5 22t-21.5 55t21.5 54t54.5 21zM156 767q33 0 55 -21t22 -54t-22 -55t-55 -22t-54.5 22t-21.5 55t21.5 54t54.5 21z" />
    <glyph glyph-name="uniFE9C" unicode="&#x62b;" horiz-adv-x="453" arabic-form="medial" 
d="M0 0v202h57q38 0 58 7.5t28 25.5t8 51v239h174v-239q0 -89 -32.5 -153t-92 -98t-143.5 -35h-57zM419 0q-84 0 -144 34t-92 98.5t-32 153.5h174q0 -33 7.5 -51t28 -25.5t58.5 -7.5h34v-202h-34zM453 0v202q9 0 14.5 -27.5t5.5 -72.5q0 -46 -5.5 -74t-14.5 -28zM0 0
q-9 0 -14.5 28t-5.5 74q0 45 5.5 72.5t14.5 27.5v-202zM226 920q32 0 52.5 -20.5t20.5 -51.5q0 -33 -20.5 -53.5t-52.5 -20.5t-53 20.5t-21 53.5q0 31 21 51.5t53 20.5zM313 767q33 0 54.5 -21t21.5 -54t-21.5 -55t-54.5 -22t-54.5 22t-21.5 55t21.5 54t54.5 21zM139 767
q33 0 55 -21t22 -54t-22 -55t-55 -22t-54.5 22t-21.5 55t21.5 54t54.5 21z" />
    <glyph glyph-name="uniFE9E" unicode="&#x62c;" horiz-adv-x="741" arabic-form="final" 
d="M651 0v202h130v-202h-130zM492 134v135q0 32 -20 57t-58.5 39.5t-94.5 14.5q-39 0 -79.5 -9t-70.5 -21l-76 168q51 32 109.5 48t117.5 16q68 0 130 -20.5t110.5 -60.5t76.5 -98t28 -134v-135h-173zM377 -392q-64 0 -124 18.5t-107.5 55t-75.5 89t-28 122.5q0 57 23.5 112
t70 99.5t117 71t163.5 26.5v-202q-62 0 -107 -15.5t-69 -40t-24 -50.5q0 -21 18 -40t54 -31t89 -12q26 0 51 2.5t48 7.5l62 -182q-38 -16 -79 -23.5t-82 -7.5zM416 0v202h285l-38 -202h-247zM781 0v202q9 0 14.5 -27.5t5.5 -72.5q0 -46 -5.5 -74t-14.5 -28zM544 -255
q-42 0 -69 27t-27 69t27 69t69 27q43 0 69.5 -27t26.5 -69t-26.5 -69t-69.5 -27z" />
    <glyph glyph-name="uniFE9F" unicode="&#x62c;" horiz-adv-x="697" arabic-form="initial" 
d="M443 134v135q0 32 -20 57t-58 39.5t-94 14.5q-39 0 -80 -9t-71 -21l-76 168q52 32 110 48t118 16q68 0 129.5 -20.5t110.5 -60.5t77 -98t28 -134v-135h-174zM0 0v202h652l-37 -202h-615zM0 0q-9 0 -14.5 28t-5.5 74q0 45 5.5 72.5t14.5 27.5v-202zM312 -302q-42 0 -69 27
t-27 69t27 69t69 27q43 0 69.5 -27t26.5 -69t-26.5 -69t-69.5 -27z" />
    <glyph glyph-name="uniFEA0" unicode="&#x62c;" horiz-adv-x="733" arabic-form="medial" 
d="M593 0v202h140v-202h-140zM0 0q-9 0 -14.5 28t-5.5 74q0 45 5.5 72.5t14.5 27.5v-202zM443 134v135q0 32 -20 57t-58 39.5t-94 14.5q-39 0 -80 -9t-71 -21l-76 168q52 32 110 48t118 16q68 0 129.5 -20.5t110.5 -60.5t77 -98t28 -134v-135h-174zM0 0v202h652l-37 -202
h-615zM733 0v202q9 0 14.5 -27.5t5.5 -72.5q0 -46 -5.5 -74t-14.5 -28zM312 -302q-42 0 -69 27t-27 69t27 69t69 27q43 0 69.5 -27t26.5 -69t-26.5 -69t-69.5 -27z" />
    <glyph glyph-name="uniFEA2" unicode="&#x62d;" horiz-adv-x="781" arabic-form="final" 
d="M651 0v202h130v-202h-130zM492 134v135q0 32 -20 57t-58.5 39.5t-94.5 14.5q-39 0 -79.5 -9t-70.5 -21l-76 168q51 32 109.5 48t117.5 16q68 0 130 -20.5t110.5 -60.5t76.5 -98t28 -134v-135h-173zM377 -392q-64 0 -124 18.5t-107.5 55t-75.5 89t-28 122.5q0 57 23.5 112
t70 99.5t117 71t163.5 26.5v-202q-62 0 -107 -15.5t-69 -40t-24 -50.5q0 -21 18 -40t54 -31t89 -12q26 0 51 2.5t48 7.5l62 -182q-38 -16 -79 -23.5t-82 -7.5zM416 0v202h285l-38 -202h-247zM781 0v202q9 0 14.5 -27.5t5.5 -72.5q0 -46 -5.5 -74t-14.5 -28z" />
    <glyph glyph-name="uniFEA3" unicode="&#x62d;" horiz-adv-x="697" arabic-form="initial" 
d="M443 134v135q0 32 -20 57t-58 39.5t-94 14.5q-39 0 -80 -9t-71 -21l-76 168q52 32 110 48t118 16q68 0 129.5 -20.5t110.5 -60.5t77 -98t28 -134v-135h-174zM0 0v202h652l-37 -202h-615zM0 0q-9 0 -14.5 28t-5.5 74q0 45 5.5 72.5t14.5 27.5v-202z" />
    <glyph glyph-name="uniFEA4" unicode="&#x62d;" horiz-adv-x="733" arabic-form="medial" 
d="M593 0v202h140v-202h-140zM0 0q-9 0 -14.5 28t-5.5 74q0 45 5.5 72.5t14.5 27.5v-202zM443 134v135q0 32 -20 57t-58 39.5t-94 14.5q-39 0 -80 -9t-71 -21l-76 168q52 32 110 48t118 16q68 0 129.5 -20.5t110.5 -60.5t77 -98t28 -134v-135h-174zM0 0v202h652l-37 -202
h-615zM733 0v202q9 0 14.5 -27.5t5.5 -72.5q0 -46 -5.5 -74t-14.5 -28z" />
    <glyph glyph-name="uniFEA6" unicode="&#x62e;" horiz-adv-x="781" arabic-form="final" 
d="M651 0v202h130v-202h-130zM492 134v135q0 32 -20 57t-58.5 39.5t-94.5 14.5q-39 0 -79.5 -9t-70.5 -21l-76 168q51 32 109.5 48t117.5 16q68 0 130 -20.5t110.5 -60.5t76.5 -98t28 -134v-135h-173zM377 -392q-64 0 -124 18.5t-107.5 55t-75.5 89t-28 122.5q0 57 23.5 112
t70 99.5t117 71t163.5 26.5v-202q-62 0 -107 -15.5t-69 -40t-24 -50.5q0 -21 18 -40t54 -31t89 -12q26 0 51 2.5t48 7.5l62 -182q-38 -16 -79 -23.5t-82 -7.5zM416 0v202h285l-38 -202h-247zM781 0v202q9 0 14.5 -27.5t5.5 -72.5q0 -46 -5.5 -74t-14.5 -28zM320 691
q-42 0 -69 27t-27 69t27 69t69 27q43 0 69.5 -27t26.5 -69t-26.5 -69t-69.5 -27z" />
    <glyph glyph-name="uniFEA7" unicode="&#x62e;" horiz-adv-x="697" arabic-form="initial" 
d="M443 134v135q0 32 -20 57t-58 39.5t-94 14.5q-39 0 -80 -9t-71 -21l-76 168q52 32 110 48t118 16q68 0 129.5 -20.5t110.5 -60.5t77 -98t28 -134v-135h-174zM0 0v202h652l-37 -202h-615zM0 0q-9 0 -14.5 28t-5.5 74q0 45 5.5 72.5t14.5 27.5v-202zM271 691q-42 0 -69 27
t-27 69t27 69t69 27q43 0 69.5 -27t26.5 -69t-26.5 -69t-69.5 -27z" />
    <glyph glyph-name="uniFEA8" unicode="&#x62e;" horiz-adv-x="733" arabic-form="medial" 
d="M593 0v202h140v-202h-140zM0 0q-9 0 -14.5 28t-5.5 74q0 45 5.5 72.5t14.5 27.5v-202zM443 134v135q0 32 -20 57t-58 39.5t-94 14.5q-39 0 -80 -9t-71 -21l-76 168q52 32 110 48t118 16q68 0 129.5 -20.5t110.5 -60.5t77 -98t28 -134v-135h-174zM0 0v202h652l-37 -202
h-615zM733 0v202q9 0 14.5 -27.5t5.5 -72.5q0 -46 -5.5 -74t-14.5 -28zM271 691q-42 0 -69 27t-27 69t27 69t69 27q43 0 69.5 -27t26.5 -69t-26.5 -69t-69.5 -27z" />
    <glyph glyph-name="uniFEAA" unicode="&#x62f;" horiz-adv-x="654" arabic-form="final" 
d="M462 0v202h192v-202h-192zM654 0v202q8 0 14 -27.5t6 -72.5q0 -46 -6 -74t-14 -28zM405 0q-1 106 -36 188t-102 137.5t-164 78.5l37 188q135 -31 232.5 -113.5t151.5 -204.5t55 -274h-174zM32 0v202h483v-202h-483z" />
    <glyph glyph-name="uniFEAC" unicode="&#x630;" horiz-adv-x="654" arabic-form="final" 
d="M462 0v202h192v-202h-192zM654 0v202q8 0 14 -27.5t6 -72.5q0 -46 -6 -74t-14 -28zM405 0q-1 106 -36 188t-102 137.5t-164 78.5l37 188q135 -31 232.5 -113.5t151.5 -204.5t55 -274h-174zM32 0v202h483v-202h-483zM238 701q-42 0 -69 27t-27 69t27 69t69 27
q43 0 69.5 -27t26.5 -69t-26.5 -69t-69.5 -27z" />
    <glyph glyph-name="uniFEAE" unicode="&#x631;" horiz-adv-x="422" arabic-form="final" 
d="M267 0v202h155v-202h-155zM0 -97q52 2 80.5 12t40 28.5t11.5 46.5v535h174v-535q0 -82 -33.5 -143t-94.5 -96t-146 -40zM422 0v202q8 0 14 -27.5t6 -72.5q0 -46 -6 -74t-14 -28z" />
    <glyph glyph-name="uniFEB0" unicode="&#x632;" horiz-adv-x="422" arabic-form="final" 
d="M267 0v202h155v-202h-155zM0 -97q52 2 80.5 12t40 28.5t11.5 46.5v535h174v-535q0 -82 -33.5 -143t-94.5 -96t-146 -40zM422 0v202q8 0 14 -27.5t6 -72.5q0 -46 -6 -74t-14 -28zM219 635q-42 0 -69 27t-27 69t27 69t69 27q43 0 69.5 -27t26.5 -69t-26.5 -69t-69.5 -27z
" />
    <glyph glyph-name="uniFEB2" unicode="&#x633;" horiz-adv-x="1617" arabic-form="final" 
d="M1582 0q-84 0 -144 34t-92 98.5t-32 153.5h174q0 -33 7.5 -51t28 -25.5t58.5 -7.5h35v-202h-35zM424 -232q-97 0 -169 33.5t-119.5 93.5t-71.5 139t-24 172q0 36 4 72t12 72l168 -32q-6 -28 -8 -56t-2 -56q0 -77 21.5 -130t68 -79.5t120.5 -26.5t124.5 26.5t76.5 80
t26 132.5v218h174v-218q0 -94 -26 -174t-77.5 -140t-126 -93.5t-171.5 -33.5zM940 0q-53 0 -101.5 24.5t-81 76.5t-35.5 132l97 46q2 -41 28 -62.5t56 -21.5q32 0 57.5 22.5t25.5 68.5v190h174v-226q0 -86 -32.5 -141.5t-82.5 -82t-105 -26.5zM1272 0q-53 0 -101.5 24.5
t-81 76.5t-35.5 132l97 46q2 -41 28 -62.5t56 -21.5q32 0 57.5 22.5t25.5 68.5v239h174v-275q0 -86 -32 -141.5t-82.5 -82t-105.5 -26.5zM1617 0v202q8 0 14 -27.5t6 -72.5q0 -46 -6 -74t-14 -28z" />
    <glyph glyph-name="uniFEB3" unicode="&#x633;" horiz-adv-x="1043" arabic-form="initial" 
d="M771 0q-53 0 -101.5 24.5t-80.5 76.5t-35 132l97 46q1 -41 27 -62.5t56 -21.5q32 0 57.5 22.5t25.5 68.5v239h174v-275q0 -86 -32 -141.5t-82 -82t-106 -26.5zM0 0v202h56q39 0 59 7.5t28 25.5t8 51v141h173v-141q0 -89 -32 -153.5t-91.5 -98.5t-144.5 -34h-56zM439 0
q-53 0 -101.5 24.5t-81 76.5t-35.5 132l97 46q2 -41 28 -62.5t56 -21.5q32 0 57.5 22.5t25.5 68.5v190h174v-226q0 -86 -32 -141.5t-82 -82t-106 -26.5zM0 0q-9 0 -14.5 28t-5.5 74q0 45 5.5 72.5t14.5 27.5v-202z" />
    <glyph glyph-name="uniFEB4" unicode="&#x633;" horiz-adv-x="1120" arabic-form="medial" 
d="M1085 0q-84 0 -144 34t-92 98.5t-32 153.5h174q0 -33 8 -51t28 -25.5t58 -7.5h35v-202h-35zM0 0q-9 0 -14.5 28t-5.5 74q0 45 5.5 72.5t14.5 27.5v-202zM771 0q-53 0 -101.5 24.5t-80.5 76.5t-35 132l97 46q1 -41 27 -62.5t56 -21.5q32 0 57.5 22.5t25.5 68.5v239h174
v-275q0 -86 -32 -141.5t-82 -82t-106 -26.5zM0 0v202h56q39 0 59 7.5t28 25.5t8 51v141h173v-141q0 -89 -32 -153.5t-91.5 -98.5t-144.5 -34h-56zM439 0q-53 0 -101.5 24.5t-81 76.5t-35.5 132l97 46q2 -41 28 -62.5t56 -21.5q32 0 57.5 22.5t25.5 68.5v190h174v-226
q0 -86 -32 -141.5t-82 -82t-106 -26.5zM1120 0v202q9 0 14.5 -27.5t5.5 -72.5q0 -46 -5.5 -74t-14.5 -28z" />
    <glyph glyph-name="uniFEB6" unicode="&#x634;" horiz-adv-x="1617" arabic-form="final" 
d="M1582 0q-84 0 -144 34t-92 98.5t-32 153.5h174q0 -33 7.5 -51t28 -25.5t58.5 -7.5h35v-202h-35zM424 -232q-97 0 -169 33.5t-119.5 93.5t-71.5 139t-24 172q0 36 4 72t12 72l168 -32q-6 -28 -8 -56t-2 -56q0 -77 21.5 -130t68 -79.5t120.5 -26.5t124.5 26.5t76.5 80
t26 132.5v218h174v-218q0 -94 -26 -174t-77.5 -140t-126 -93.5t-171.5 -33.5zM940 0q-53 0 -101.5 24.5t-81 76.5t-35.5 132l97 46q2 -41 28 -62.5t56 -21.5q32 0 57.5 22.5t25.5 68.5v190h174v-226q0 -86 -32.5 -141.5t-82.5 -82t-105 -26.5zM1272 0q-53 0 -101.5 24.5
t-81 76.5t-35.5 132l97 46q2 -41 28 -62.5t56 -21.5q32 0 57.5 22.5t25.5 68.5v239h174v-275q0 -86 -32 -141.5t-82.5 -82t-105.5 -26.5zM1617 0v202q8 0 14 -27.5t6 -72.5q0 -46 -6 -74t-14 -28zM1073 920q32 0 52.5 -20.5t20.5 -51.5q0 -33 -20.5 -53.5t-52.5 -20.5
t-53 20.5t-21 53.5q0 31 21 51.5t53 20.5zM1160 767q33 0 54.5 -21t21.5 -54t-21.5 -55t-54.5 -22t-54.5 22t-21.5 55t21.5 54t54.5 21zM986 767q33 0 55 -21t22 -54t-22 -55t-55 -22t-54.5 22t-21.5 55t21.5 54t54.5 21z" />
    <glyph glyph-name="uniFEB7" unicode="&#x634;" horiz-adv-x="1043" arabic-form="initial" 
d="M771 0q-53 0 -101.5 24.5t-80.5 76.5t-35 132l97 46q1 -41 27 -62.5t56 -21.5q32 0 57.5 22.5t25.5 68.5v239h174v-275q0 -86 -32 -141.5t-82 -82t-106 -26.5zM0 0v202h56q39 0 59 7.5t28 25.5t8 51v141h173v-141q0 -89 -32 -153.5t-91.5 -98.5t-144.5 -34h-56zM439 0
q-53 0 -101.5 24.5t-81 76.5t-35.5 132l97 46q2 -41 28 -62.5t56 -21.5q32 0 57.5 22.5t25.5 68.5v190h174v-226q0 -86 -32 -141.5t-82 -82t-106 -26.5zM0 0q-9 0 -14.5 28t-5.5 74q0 45 5.5 72.5t14.5 27.5v-202zM572 920q32 0 52.5 -20.5t20.5 -51.5q0 -33 -20.5 -53.5
t-52.5 -20.5t-53 20.5t-21 53.5q0 31 21 51.5t53 20.5zM659 767q33 0 54.5 -21t21.5 -54t-21.5 -55t-54.5 -22t-54.5 22t-21.5 55t21.5 54t54.5 21zM485 767q33 0 55 -21t22 -54t-22 -55t-55 -22t-54.5 22t-21.5 55t21.5 54t54.5 21z" />
    <glyph glyph-name="uniFEB8" unicode="&#x634;" horiz-adv-x="1120" arabic-form="medial" 
d="M1085 0q-84 0 -144 34t-92 98.5t-32 153.5h174q0 -33 8 -51t28 -25.5t58 -7.5h35v-202h-35zM0 0q-9 0 -14.5 28t-5.5 74q0 45 5.5 72.5t14.5 27.5v-202zM771 0q-53 0 -101.5 24.5t-80.5 76.5t-35 132l97 46q1 -41 27 -62.5t56 -21.5q32 0 57.5 22.5t25.5 68.5v239h174
v-275q0 -86 -32 -141.5t-82 -82t-106 -26.5zM0 0v202h56q39 0 59 7.5t28 25.5t8 51v141h173v-141q0 -89 -32 -153.5t-91.5 -98.5t-144.5 -34h-56zM439 0q-53 0 -101.5 24.5t-81 76.5t-35.5 132l97 46q2 -41 28 -62.5t56 -21.5q32 0 57.5 22.5t25.5 68.5v190h174v-226
q0 -86 -32 -141.5t-82 -82t-106 -26.5zM1120 0v202q9 0 14.5 -27.5t5.5 -72.5q0 -46 -5.5 -74t-14.5 -28zM572 920q32 0 52.5 -20.5t20.5 -51.5q0 -33 -20.5 -53.5t-52.5 -20.5t-53 20.5t-21 53.5q0 31 21 51.5t53 20.5zM659 767q33 0 54.5 -21t21.5 -54t-21.5 -55
t-54.5 -22t-54.5 22t-21.5 55t21.5 54t54.5 21zM485 767q33 0 55 -21t22 -54t-22 -55t-55 -22t-54.5 22t-21.5 55t21.5 54t54.5 21z" />
    <glyph glyph-name="uniFEBA" unicode="&#x635;" horiz-adv-x="1720" arabic-form="final" 
d="M1514 0v202h206v-202h-206zM919 0q-96 0 -151.5 67.5t-62.5 187.5l120 9q3 -24 11.5 -37.5t28.5 -19t54 -5.5h671v-202h-671zM1417 0v259q0 51 -19 84.5t-52.5 50t-76.5 16.5q-40 0 -82 -15t-80 -42t-68 -67t-47.5 -90t-17.5 -109h-145q0 46 8.5 101t28.5 113.5
t52.5 112.5t80 97t111.5 68.5t147 25.5q86 0 148.5 -28t103.5 -76.5t61 -110.5t20 -131v-259h-173zM424 -232q-97 0 -169 33.5t-119.5 93.5t-71.5 139t-24 172q0 36 4 72t12 72l168 -32q-6 -28 -8 -56t-2 -56q0 -77 21.5 -130t68 -79.5t120.5 -26.5t124.5 26.5t76.5 80
t26 132.5v267h174v-267q0 -94 -26 -174t-77.5 -140t-126 -93.5t-171.5 -33.5zM1720 0v202q9 0 14.5 -27.5t5.5 -72.5q0 -46 -5.5 -74t-14.5 -28z" />
    <glyph glyph-name="uniFEBB" unicode="&#x635;" horiz-adv-x="1143" arabic-form="initial" 
d="M917 0v259q0 51 -19 84.5t-52.5 50t-76.5 16.5q-40 0 -82 -15t-80 -42t-68 -67t-47.5 -90t-17.5 -109h-145q0 46 8.5 101t29 113.5t52.5 112.5t79.5 97t112 68.5t146.5 25.5q86 0 148.5 -28t103.5 -76.5t61.5 -110.5t20.5 -131v-259h-174zM0 0v202h57q38 0 58 7.5
t28 25.5t8 51v190h174v-190q0 -89 -32.5 -153.5t-92 -98.5t-143.5 -34h-57zM419 0q-68 0 -116.5 34t-73.5 98.5t-25 153.5h121q0 -33 7.5 -51t28 -25.5t58.5 -7.5h672v-202h-672zM0 0q-9 0 -14.5 28t-5.5 74q0 45 5.5 72.5t14.5 27.5v-202z" />
    <glyph glyph-name="uniFEBC" unicode="&#x635;" horiz-adv-x="1206" arabic-form="medial" 
d="M1009 0v202h197v-202h-197zM0 0q-9 0 -14.5 28t-5.5 74q0 45 5.5 72.5t14.5 27.5v-202zM917 0v259q0 51 -19 84.5t-52.5 50t-76.5 16.5q-40 0 -82 -15t-80 -42t-68 -67t-47.5 -90t-17.5 -109h-145q0 46 8.5 101t29 113.5t52.5 112.5t79.5 97t112 68.5t146.5 25.5
q86 0 148.5 -28t103.5 -76.5t61.5 -110.5t20.5 -131v-259h-174zM0 0v202h57q38 0 58 7.5t28 25.5t8 51v190h174v-190q0 -89 -32.5 -153.5t-92 -98.5t-143.5 -34h-57zM419 0q-68 0 -116.5 34t-73.5 98.5t-25 153.5h121q0 -33 7.5 -51t28 -25.5t58.5 -7.5h672v-202h-672z
M1206 0v202q9 0 14.5 -27.5t5.5 -72.5q0 -46 -5.5 -74t-14.5 -28z" />
    <glyph glyph-name="uniFEBE" unicode="&#x636;" horiz-adv-x="1720" arabic-form="final" 
d="M1514 0v202h206v-202h-206zM919 0q-96 0 -151.5 67.5t-62.5 187.5l120 9q3 -24 11.5 -37.5t28.5 -19t54 -5.5h671v-202h-671zM1417 0v259q0 51 -19 84.5t-52.5 50t-76.5 16.5q-40 0 -82 -15t-80 -42t-68 -67t-47.5 -90t-17.5 -109h-145q0 46 8.5 101t28.5 113.5
t52.5 112.5t80 97t111.5 68.5t147 25.5q86 0 148.5 -28t103.5 -76.5t61 -110.5t20 -131v-259h-173zM424 -232q-97 0 -169 33.5t-119.5 93.5t-71.5 139t-24 172q0 36 4 72t12 72l168 -32q-6 -28 -8 -56t-2 -56q0 -77 21.5 -130t68 -79.5t120.5 -26.5t124.5 26.5t76.5 80
t26 132.5v267h174v-267q0 -94 -26 -174t-77.5 -140t-126 -93.5t-171.5 -33.5zM1720 0v202q9 0 14.5 -27.5t5.5 -72.5q0 -46 -5.5 -74t-14.5 -28zM1257 714q-42 0 -69 27t-27 69t27 69t69 27q43 0 69.5 -27t26.5 -69t-26.5 -69t-69.5 -27z" />
    <glyph glyph-name="uniFEBF" unicode="&#x636;" horiz-adv-x="1143" arabic-form="initial" 
d="M917 0v259q0 51 -19 84.5t-52.5 50t-76.5 16.5q-40 0 -82 -15t-80 -42t-68 -67t-47.5 -90t-17.5 -109h-145q0 46 8.5 101t29 113.5t52.5 112.5t79.5 97t112 68.5t146.5 25.5q86 0 148.5 -28t103.5 -76.5t61.5 -110.5t20.5 -131v-259h-174zM0 0v202h57q38 0 58 7.5
t28 25.5t8 51v190h174v-190q0 -89 -32.5 -153.5t-92 -98.5t-143.5 -34h-57zM419 0q-68 0 -116.5 34t-73.5 98.5t-25 153.5h121q0 -33 7.5 -51t28 -25.5t58.5 -7.5h672v-202h-672zM0 0q-9 0 -14.5 28t-5.5 74q0 45 5.5 72.5t14.5 27.5v-202zM757 714q-42 0 -69 27t-27 69
t27 69t69 27q43 0 69.5 -27t26.5 -69t-26.5 -69t-69.5 -27z" />
    <glyph glyph-name="uniFEC0" unicode="&#x636;" horiz-adv-x="1206" arabic-form="medial" 
d="M1009 0v202h197v-202h-197zM0 0q-9 0 -14.5 28t-5.5 74q0 45 5.5 72.5t14.5 27.5v-202zM917 0v259q0 51 -19 84.5t-52.5 50t-76.5 16.5q-40 0 -82 -15t-80 -42t-68 -67t-47.5 -90t-17.5 -109h-145q0 46 8.5 101t29 113.5t52.5 112.5t79.5 97t112 68.5t146.5 25.5
q86 0 148.5 -28t103.5 -76.5t61.5 -110.5t20.5 -131v-259h-174zM0 0v202h57q38 0 58 7.5t28 25.5t8 51v190h174v-190q0 -89 -32.5 -153.5t-92 -98.5t-143.5 -34h-57zM419 0q-68 0 -116.5 34t-73.5 98.5t-25 153.5h121q0 -33 7.5 -51t28 -25.5t58.5 -7.5h672v-202h-672z
M1206 0v202q9 0 14.5 -27.5t5.5 -72.5q0 -46 -5.5 -74t-14.5 -28zM757 714q-42 0 -69 27t-27 69t27 69t69 27q43 0 69.5 -27t26.5 -69t-26.5 -69t-69.5 -27z" />
    <glyph glyph-name="uniFEC2" unicode="&#x637;" horiz-adv-x="1002" arabic-form="final" 
d="M832 0v202h170v-202h-170zM713 0v259q0 51 -19 84.5t-52.5 50t-75.5 16.5q-41 0 -83 -15t-80 -42t-67.5 -67t-47 -90t-17.5 -109h-96q0 46 7.5 101.5t25 113.5t46.5 112t71.5 97t98.5 68.5t130 25.5q85 0 148 -28t104 -76.5t61 -110.5t20 -131v-259h-174zM40 0v202h847
v-202h-847zM135 123v761h174v-624zM1002 0v202q9 0 14.5 -27.5t5.5 -72.5q0 -46 -5.5 -74t-14.5 -28z" />
    <glyph glyph-name="uniFEC3" unicode="&#x637;" horiz-adv-x="955" arabic-form="initial" 
d="M0 0v202h56v-202h-56zM729 0v259q0 51 -19 84.5t-52.5 50t-75.5 16.5q-41 0 -83 -15t-80 -42t-67.5 -67t-47 -90t-17.5 -109h-97q0 46 8 101.5t25.5 113.5t46.5 112t71.5 97t98.5 68.5t130 25.5q85 0 148 -28t104 -76.5t61 -110.5t20 -131v-259h-174zM56 0v202h847v-202
h-847zM151 123v761h174v-624zM0 0q-9 0 -14.5 28t-5.5 74q0 45 5.5 72.5t14.5 27.5v-202z" />
    <glyph glyph-name="uniFEC4" unicode="&#x637;" horiz-adv-x="1019" arabic-form="medial" 
d="M854 0v202h165v-202h-165zM1019 0v202q8 0 14 -27.5t6 -72.5q0 -46 -6 -74t-14 -28zM729 0v259q0 51 -19 84.5t-52.5 50t-75.5 16.5q-41 0 -83 -15t-80 -42t-67.5 -67t-47 -90t-17.5 -109h-97q0 46 8 101.5t25.5 113.5t46.5 112t71.5 97t98.5 68.5t130 25.5q85 0 148 -28
t104 -76.5t61 -110.5t20 -131v-259h-174zM56 0v202h847v-202h-847zM151 123v761h174v-624zM0 0q-9 0 -14.5 28t-5.5 74q0 45 5.5 72.5t14.5 27.5v-202zM0 0v202h56v-202h-56z" />
    <glyph glyph-name="uniFEC6" unicode="&#x638;" horiz-adv-x="1002" arabic-form="final" 
d="M832 0v202h170v-202h-170zM713 0v259q0 51 -19 84.5t-52.5 50t-75.5 16.5q-41 0 -83 -15t-80 -42t-67.5 -67t-47 -90t-17.5 -109h-96q0 46 7.5 101.5t25 113.5t46.5 112t71.5 97t98.5 68.5t130 25.5q85 0 148 -28t104 -76.5t61 -110.5t20 -131v-259h-174zM40 0v202h847
v-202h-847zM135 123v761h174v-624zM1002 0v202q9 0 14.5 -27.5t5.5 -72.5q0 -46 -5.5 -74t-14.5 -28zM554 714q-42 0 -69 27t-27 69t27 69t69 27q43 0 69.5 -27t26.5 -69t-26.5 -69t-69.5 -27z" />
    <glyph glyph-name="uniFEC7" unicode="&#x638;" horiz-adv-x="955" arabic-form="initial" 
d="M0 0v202h56v-202h-56zM729 0v259q0 51 -19 84.5t-52.5 50t-75.5 16.5q-41 0 -83 -15t-80 -42t-67.5 -67t-47 -90t-17.5 -109h-97q0 46 8 101.5t25.5 113.5t46.5 112t71.5 97t98.5 68.5t130 25.5q85 0 148 -28t104 -76.5t61 -110.5t20 -131v-259h-174zM56 0v202h847v-202
h-847zM151 123v761h174v-624zM0 0q-9 0 -14.5 28t-5.5 74q0 45 5.5 72.5t14.5 27.5v-202zM570 714q-42 0 -69 27t-27 69t27 69t69 27q43 0 69.5 -27t26.5 -69t-26.5 -69t-69.5 -27z" />
    <glyph glyph-name="uniFEC8" unicode="&#x638;" horiz-adv-x="1019" arabic-form="medial" 
d="M854 0v202h165v-202h-165zM1019 0v202q8 0 14 -27.5t6 -72.5q0 -46 -6 -74t-14 -28zM729 0v259q0 51 -19 84.5t-52.5 50t-75.5 16.5q-41 0 -83 -15t-80 -42t-67.5 -67t-47 -90t-17.5 -109h-97q0 46 8 101.5t25.5 113.5t46.5 112t71.5 97t98.5 68.5t130 25.5q85 0 148 -28
t104 -76.5t61 -110.5t20 -131v-259h-174zM56 0v202h847v-202h-847zM151 123v761h174v-624zM0 0q-9 0 -14.5 28t-5.5 74q0 45 5.5 72.5t14.5 27.5v-202zM0 0v202h56v-202h-56zM570 714q-42 0 -69 27t-27 69t27 69t69 27q43 0 69.5 -27t26.5 -69t-26.5 -69t-69.5 -27z" />
    <glyph glyph-name="uniFECA" unicode="&#x639;" horiz-adv-x="749" arabic-form="final" 
d="M376 -392q-79 0 -141.5 23.5t-106 62.5t-66 86.5t-22.5 96.5q0 57 27.5 104t73 86.5t100 72.5t107.5 62q40 21 71.5 39t50 34.5t18.5 29.5q0 14 -18.5 26t-51.5 19t-79 7q-34 0 -67 -5.5t-67 -18.5l-26 -39l-100 62l96 155q39 12 84.5 20.5t99.5 8.5q89 0 157.5 -23.5
t107 -66t38.5 -100.5q0 -47 -24.5 -88t-65 -76.5t-88.5 -67.5t-95 -61q-35 -20 -66.5 -40t-56 -39.5t-38.5 -39t-14 -39.5q0 -23 18.5 -43t55.5 -32.5t91 -12.5q24 0 50.5 2.5t54.5 8t56 13.5l62 -169q-50 -29 -108 -43.5t-118 -14.5zM568 0q-123 0 -223 44t-168 124
t-98 188l125 59q11 -64 43 -112t81 -74.5t110 -26.5h311v-202h-181zM749 0v202q8 0 14 -27.5t6 -72.5q0 -46 -6 -74t-14 -28z" />
    <glyph glyph-name="uniFECB" unicode="&#x639;" horiz-adv-x="627" arabic-form="initial" 
d="M401 57q-87 0 -158.5 24t-114 75.5t-42.5 131.5q0 63 25.5 110.5t69 79t100 47t117.5 15.5q50 0 100 -11.5t90 -33.5l-76 -169q-26 6 -56.5 9t-57.5 3q-71 0 -104.5 -22t-33.5 -54q0 -16 11.5 -30t42.5 -22t87 -8v-145zM0 0v202h597v-202h-597zM0 0q-9 0 -14.5 28
t-5.5 74q0 45 5.5 72.5t14.5 27.5v-202z" />
    <glyph glyph-name="uniFECC" unicode="&#x639;" horiz-adv-x="749" arabic-form="medial" 
d="M0 0v202h256q27 0 57.5 7t60 18t54 25t39 27.5t14.5 24.5q0 13 -19 25t-52.5 20t-77.5 8q-37 0 -70 -6.5t-66 -19.5l-29 -29l-98 54l95 155q40 12 85.5 20.5t100.5 8.5q91 0 159.5 -23.5t107 -66t38.5 -99.5q0 -48 -26 -92.5t-69 -83.5t-97.5 -71t-112.5 -55t-113 -36
t-99 -13h-138zM558 0q-124 0 -223.5 44t-168 124t-97.5 188l127 59q11 -64 42.5 -112t80 -74.5t108.5 -26.5h322v-202h-191zM749 0v202q8 0 14 -27.5t6 -72.5q0 -46 -6 -74t-14 -28zM0 0q-9 0 -14.5 28t-5.5 74q0 45 5.5 72.5t14.5 27.5v-202z" />
    <glyph glyph-name="uniFECE" unicode="&#x63a;" horiz-adv-x="749" arabic-form="final" 
d="M376 -392q-79 0 -141.5 23.5t-106 62.5t-66 86.5t-22.5 96.5q0 57 27.5 104t73 86.5t100 72.5t107.5 62q40 21 71.5 39t50 34.5t18.5 29.5q0 14 -18.5 26t-51.5 19t-79 7q-34 0 -67 -5.5t-67 -18.5l-26 -39l-100 62l96 155q39 12 84.5 20.5t99.5 8.5q89 0 157.5 -23.5
t107 -66t38.5 -100.5q0 -47 -24.5 -88t-65 -76.5t-88.5 -67.5t-95 -61q-35 -20 -66.5 -40t-56 -39.5t-38.5 -39t-14 -39.5q0 -23 18.5 -43t55.5 -32.5t91 -12.5q24 0 50.5 2.5t54.5 8t56 13.5l62 -169q-50 -29 -108 -43.5t-118 -14.5zM568 0q-123 0 -223 44t-168 124
t-98 188l125 59q11 -64 43 -112t81 -74.5t110 -26.5h311v-202h-181zM749 0v202q8 0 14 -27.5t6 -72.5q0 -46 -6 -74t-14 -28zM359 649q-42 0 -69 27t-27 69t27 69t69 27q43 0 69.5 -27t26.5 -69t-26.5 -69t-69.5 -27z" />
    <glyph glyph-name="uniFECF" unicode="&#x63a;" horiz-adv-x="627" arabic-form="initial" 
d="M401 57q-87 0 -158.5 24t-114 75.5t-42.5 131.5q0 63 25.5 110.5t69 79t100 47t117.5 15.5q50 0 100 -11.5t90 -33.5l-76 -169q-26 6 -56.5 9t-57.5 3q-71 0 -104.5 -22t-33.5 -54q0 -16 11.5 -30t42.5 -22t87 -8v-145zM0 0v202h597v-202h-597zM0 0q-9 0 -14.5 28
t-5.5 74q0 45 5.5 72.5t14.5 27.5v-202zM398 649q-42 0 -69 27t-27 69t27 69t69 27q43 0 69.5 -27t26.5 -69t-26.5 -69t-69.5 -27z" />
    <glyph glyph-name="uniFED0" unicode="&#x63a;" horiz-adv-x="749" arabic-form="medial" 
d="M0 0v202h256q27 0 57.5 7t60 18t54 25t39 27.5t14.5 24.5q0 13 -19 25t-52.5 20t-77.5 8q-37 0 -70 -6.5t-66 -19.5l-29 -29l-98 54l95 155q40 12 85.5 20.5t100.5 8.5q91 0 159.5 -23.5t107 -66t38.5 -99.5q0 -48 -26 -92.5t-69 -83.5t-97.5 -71t-112.5 -55t-113 -36
t-99 -13h-138zM558 0q-124 0 -223.5 44t-168 124t-97.5 188l127 59q11 -64 42.5 -112t80 -74.5t108.5 -26.5h322v-202h-191zM749 0v202q8 0 14 -27.5t6 -72.5q0 -46 -6 -74t-14 -28zM0 0q-9 0 -14.5 28t-5.5 74q0 45 5.5 72.5t14.5 27.5v-202zM350 649q-42 0 -69 27t-27 69
t27 69t69 27q43 0 69.5 -27t26.5 -69t-26.5 -69t-69.5 -27z" />
    <glyph glyph-name="uniFED2" unicode="&#x641;" horiz-adv-x="1169" arabic-form="final" 
d="M377 0q-86 0 -149.5 24.5t-104.5 67t-61 96t-20 112.5q0 54 16.5 109t48.5 105l134 -61q-16 -33 -24 -63.5t-8 -58.5q0 -38 17 -67.5t53.5 -45.5t92.5 -16h52v-202h-47zM1169 0v202q9 0 14.5 -27.5t5.5 -72.5q0 -46 -5.5 -74t-14.5 -28zM424 0q-9 0 -14.5 28t-5.5 74
q0 45 5.5 72.5t14.5 27.5v-202zM424 0v202q56 0 104.5 2t89.5 4q8 1 14 -6t12.5 -13.5t12.5 -6.5q87 10 139 26.5t75 39t23 49.5q0 23 -12 41t-33.5 28.5t-50.5 10.5t-51.5 -11.5t-35 -29.5t-12.5 -39q0 -26 24 -49t77.5 -40t143.5 -27q7 0 13 7t12.5 13.5t12.5 5.5
q41 -2 87.5 -3.5t99.5 -1.5v-202q-141 0 -258.5 18t-204 55t-134 95t-47.5 138q0 72 37 126t98.5 85t136.5 31t136.5 -30.5t98.5 -85t37 -127.5q0 -72 -37.5 -124t-102 -87.5t-147.5 -55.5t-174.5 -29t-183.5 -9zM797 657q-42 0 -69 27t-27 69t27 69t69 27q43 0 69.5 -27
t26.5 -69t-26.5 -69t-69.5 -27z" />
    <glyph glyph-name="uniFED3" unicode="&#x641;" horiz-adv-x="669" arabic-form="initial" 
d="M0 0v202h443v291h174v-493h-617zM249 10q-41 16 -74 53t-52.5 88.5t-19.5 111.5q0 86 39.5 150t107 99.5t147.5 35.5q61 0 118.5 -17.5t101.5 -37.5l-70 -175q-46 20 -86.5 30t-75.5 10q-41 0 -70 -13t-44.5 -34.5t-15.5 -48.5q0 -30 16 -60.5t40 -44.5zM0 0
q-9 0 -14.5 28t-5.5 74q0 45 5.5 72.5t14.5 27.5v-202zM398 657q-42 0 -69 27t-27 69t27 69t69 27q43 0 69.5 -27t26.5 -69t-26.5 -69t-69.5 -27z" />
    <glyph glyph-name="uniFED4" unicode="&#x641;" horiz-adv-x="745" arabic-form="medial" 
d="M0 0v202q56 0 104.5 2t89.5 4q8 1 14 -6t12.5 -13.5t12.5 -6.5q87 10 139 26.5t75 39t23 49.5q0 23 -12 41t-33.5 28.5t-50.5 10.5t-51.5 -11.5t-35 -29.5t-12.5 -39q0 -26 24 -49t77.5 -40t143.5 -27q7 0 13 7t12.5 13.5t12.5 5.5q41 -2 87.5 -3.5t99.5 -1.5v-202
q-141 0 -258.5 18t-204 55t-134 95t-47.5 138q0 72 37 126t98.5 85t136.5 31t136.5 -30.5t98.5 -85t37 -127.5q0 -72 -37.5 -124t-102 -87.5t-147.5 -55.5t-174.5 -29t-183.5 -9zM745 0v202q9 0 14.5 -27.5t5.5 -72.5q0 -46 -5.5 -74t-14.5 -28zM0 0q-9 0 -14.5 28t-5.5 74
q0 45 5.5 72.5t14.5 27.5v-202zM373 657q-42 0 -69 27t-27 69t27 69t69 27q43 0 69.5 -27t26.5 -69t-26.5 -69t-69.5 -27z" />
    <glyph glyph-name="uniFED6" unicode="&#x642;" horiz-adv-x="1052" arabic-form="final" 
d="M774 0v202h278v-202h-278zM1052 0v202q9 0 14.5 -27.5t5.5 -72.5q0 -46 -5.5 -74t-14.5 -28zM488 -343q-105 0 -188 37.5t-141 103.5t-88.5 153.5t-30.5 188.5q0 53 9 107t24 102l162 -31q-11 -48 -16 -90t-5 -77q0 -96 34 -161t95 -98t143 -33q84 0 146 33.5t96.5 96.5
t34.5 152v378l173 -26v-352q0 -101 -30.5 -189t-88.5 -154t-141.5 -103.5t-187.5 -37.5zM717 0q-89 0 -155.5 37t-103 98.5t-36.5 135.5q0 60 22.5 110t63.5 87.5t94.5 58.5t115.5 21q60 0 117 -17.5t101 -37.5l-70 -179q-87 41 -148 41q-38 0 -65 -11.5t-42 -30t-15 -38.5
q0 -18 13.5 -34.5t40.5 -27.5t67 -11h164v-202h-164zM805 637q-33 0 -54.5 21t-21.5 54q0 34 21.5 55.5t54.5 21.5q34 0 55 -21.5t21 -55.5q0 -33 -21 -54t-55 -21zM631 637q-33 0 -54.5 21t-21.5 54q0 34 21.5 55.5t54.5 21.5q34 0 55.5 -21.5t21.5 -55.5q0 -33 -21.5 -54
t-55.5 -21z" />
    <glyph glyph-name="uniFED7" unicode="&#x642;" horiz-adv-x="669" arabic-form="initial" 
d="M0 0v202h443v291h174v-493h-617zM249 10q-41 16 -74 53t-52.5 88.5t-19.5 111.5q0 86 39.5 150t107 99.5t147.5 35.5q61 0 118.5 -17.5t101.5 -37.5l-70 -175q-46 20 -86.5 30t-75.5 10q-41 0 -70 -13t-44.5 -34.5t-15.5 -48.5q0 -30 16 -60.5t40 -44.5zM0 0
q-9 0 -14.5 28t-5.5 74q0 45 5.5 72.5t14.5 27.5v-202zM485 637q-33 0 -54.5 21t-21.5 54q0 34 21.5 55.5t54.5 21.5q34 0 55 -21.5t21 -55.5q0 -33 -21 -54t-55 -21zM311 637q-33 0 -54.5 21t-21.5 54q0 34 21.5 55.5t54.5 21.5q34 0 55.5 -21.5t21.5 -55.5
q0 -33 -21.5 -54t-55.5 -21z" />
    <glyph glyph-name="uniFED8" unicode="&#x642;" horiz-adv-x="745" arabic-form="medial" 
d="M0 0v202q56 0 104.5 2t89.5 4q8 1 14 -6t12.5 -13.5t12.5 -6.5q87 10 139 26.5t75 39t23 49.5q0 23 -12 41t-33.5 28.5t-50.5 10.5t-51.5 -11.5t-35 -29.5t-12.5 -39q0 -26 24 -49t77.5 -40t143.5 -27q7 0 13 7t12.5 13.5t12.5 5.5q41 -2 87.5 -3.5t99.5 -1.5v-202
q-141 0 -258.5 18t-204 55t-134 95t-47.5 138q0 72 37 126t98.5 85t136.5 31t136.5 -30.5t98.5 -85t37 -127.5q0 -72 -37.5 -124t-102 -87.5t-147.5 -55.5t-174.5 -29t-183.5 -9zM745 0v202q9 0 14.5 -27.5t5.5 -72.5q0 -46 -5.5 -74t-14.5 -28zM0 0q-9 0 -14.5 28t-5.5 74
q0 45 5.5 72.5t14.5 27.5v-202zM460 637q-33 0 -54.5 21t-21.5 54q0 34 21.5 55.5t54.5 21.5q34 0 55 -21.5t21 -55.5q0 -33 -21 -54t-55 -21zM286 637q-33 0 -54.5 21t-21.5 54q0 34 21.5 55.5t54.5 21.5q34 0 55.5 -21.5t21.5 -55.5q0 -33 -21.5 -54t-55.5 -21z" />
    <glyph glyph-name="uniFEDA" unicode="&#x643;" horiz-adv-x="1093" arabic-form="final" 
d="M886 0v202h207v-202h-207zM385 0q-86 0 -149.5 24.5t-104.5 67t-61 96t-20 112.5q0 54 16.5 109t48.5 105l134 -61q-16 -33 -24 -63.5t-8 -58.5q0 -38 17 -67.5t53.5 -45.5t92.5 -16h424v682h173v-884h-592zM1093 0v202q9 0 14.5 -27.5t5.5 -72.5q0 -46 -5.5 -74
t-14.5 -28zM387 413v95q49 0 103.5 6t89.5 15l-10 -30l-113 43q-29 12 -42.5 31.5t-13.5 41.5q0 39 26 76.5t73.5 63t110.5 25.5v-107q-42 0 -74.5 -15.5t-50.5 -39t-18 -46.5l-24 79l143 -56q36 -14 49.5 -35.5t13.5 -39.5q0 -20 -9.5 -38.5t-36.5 -34.5t-79 -25t-138 -9z
" />
    <glyph glyph-name="uniFEDB" unicode="&#x643;" horiz-adv-x="595" arabic-form="initial" 
d="M0 0v202h174q45 0 75.5 9.5t46.5 25.5t16 35q0 12 -7 25.5t-29 34t-63.5 53.5t-109.5 84l-73 55l105 160l70 -52q76 -56 129.5 -100t87 -84t49 -82t15.5 -94q0 -82 -40 -143t-110 -95t-162 -34h-174zM30 524v169l512 235v-217zM0 0q-9 0 -14.5 28t-5.5 74q0 45 5.5 72.5
t14.5 27.5v-202z" />
    <glyph glyph-name="uniFEDC" unicode="&#x643;" horiz-adv-x="615" arabic-form="medial" 
d="M580 0q-84 0 -144 34t-92 98.5t-32 153.5v6l173 -16l1 -2q1 -28 9.5 -44t28.5 -22t56 -6h35v-202h-35zM0 0q-9 0 -14.5 28t-5.5 74q0 45 5.5 72.5t14.5 27.5v-202zM0 0v202h174q45 0 75.5 9.5t46.5 25.5t16 35q0 12 -7 25.5t-29 34t-63.5 53.5t-109.5 84l-73 55l105 160
l70 -52q76 -56 129.5 -100t87 -84t49 -82t15.5 -94q0 -82 -40 -143t-110 -95t-162 -34h-174zM30 524v169l512 235v-217zM615 0v202q8 0 14 -27.5t6 -72.5q0 -46 -6 -74t-14 -28z" />
    <glyph glyph-name="uniFEDE" unicode="&#x644;" horiz-adv-x="917" arabic-form="final" 
d="M884 0q-85 0 -144.5 34t-91.5 98.5t-32 153.5h173q0 -33 8 -51t28 -25.5t59 -7.5h34v-202h-34zM413 -211q-73 0 -140.5 28.5t-119.5 84.5t-82.5 137.5t-30.5 187.5q0 39 4 75t12 72l168 -32q-6 -28 -8 -56t-2 -54q0 -78 20.5 -131t64 -80t107.5 -27q65 0 112 26.5
t72.5 80t25.5 132.5v651h173v-651q0 -108 -30.5 -190.5t-83.5 -139t-120.5 -85.5t-141.5 -29zM917 0v202q8 0 14 -27.5t6 -72.5q0 -46 -6 -74t-14 -28z" />
    <glyph glyph-name="uniFEDF" unicode="&#x644;" horiz-adv-x="372" arabic-form="initial" 
d="M0 0v202h147v682h173v-884h-320zM0 0q-9 0 -14.5 28t-5.5 74q0 45 5.5 72.5t14.5 27.5v-202z" />
    <glyph glyph-name="uniFEE0" unicode="&#x644;" horiz-adv-x="436" arabic-form="medial" 
d="M0 0v202h50q38 0 58.5 7.5t28 25.5t7.5 51v598h174v-598q0 -89 -32 -153t-92 -98t-144 -35h-50zM412 0q-84 0 -144 34t-92 98.5t-32 153.5h174q0 -33 8 -51t28 -25.5t58 -7.5h24v-202h-24zM436 0v202q9 0 14.5 -27.5t5.5 -72.5q0 -46 -5.5 -74t-14.5 -28zM0 0
q-9 0 -14.5 28t-5.5 74q0 45 5.5 72.5t14.5 27.5v-202z" />
    <glyph glyph-name="uniFEE2" unicode="&#x645;" horiz-adv-x="811" arabic-form="final" 
d="M776 0q-79 0 -136.5 34t-89.5 98.5t-32 153.5v17l155 -12l10 -23q2 -25 10.5 -40t28.5 -20.5t54 -5.5h35v-202h-35zM64 -376q-4 36 -8 77t-8 81.5t-6 74.5t-2 56q0 62 17 118.5t50.5 100.5t81 69.5t108.5 25.5q19 0 54 -7.5t83 -21t105.5 -32.5t122.5 -44l-37 -154
q-49 11 -100.5 21.5t-97 19t-79.5 13.5t-50 5q-21 0 -40.5 -10t-32.5 -35.5t-13 -69.5q0 -19 2.5 -52t6.5 -74.5t8.5 -83t8.5 -78.5h-174zM625 -32l-170 68q28 42 42.5 91t14.5 98q0 62 -19.5 90.5t-52.5 28.5q-22 0 -46.5 -12.5t-50.5 -38t-55 -63.5l-154 102
q26 36 56.5 73t67 68t81 50.5t98.5 19.5q60 0 106 -24t77.5 -66t48 -99t16.5 -125q0 -67 -16 -135.5t-44 -125.5zM811 0v202q9 0 14.5 -27.5t5.5 -72.5q0 -46 -5.5 -74t-14.5 -28z" />
    <glyph glyph-name="uniFEE3" unicode="&#x645;" horiz-adv-x="779" arabic-form="initial" 
d="M0 0v202q40 0 68.5 11t53.5 36.5t53 66.5q26 36 56 73t67 68.5t82.5 50.5t103.5 19q57 0 102 -24t76.5 -66.5t48 -100.5t16.5 -127q0 -58 -14 -122.5t-39 -118.5l-168 67q23 40 35 84.5t12 89.5q0 62 -19 90.5t-53 28.5q-23 0 -49.5 -14.5t-55.5 -43.5t-61 -74
q-48 -69 -94.5 -112t-99 -63.5t-121.5 -20.5zM664 170l10 -202q-103 -6 -178.5 1.5t-132 26.5t-100.5 49t-82 70l113 119q33 -34 82.5 -49.5t120.5 -17.5t167 3zM0 0q-9 0 -14.5 28t-5.5 74q0 45 5.5 72.5t14.5 27.5v-202z" />
    <glyph glyph-name="uniFEE4" unicode="&#x645;" horiz-adv-x="850" arabic-form="medial" 
d="M816 0q-80 0 -137.5 34t-89 98.5t-31.5 153.5v17l154 -12l10 -23q3 -25 11.5 -40t28.5 -20.5t54 -5.5h34v-202h-34zM0 0q-9 0 -14.5 28t-5.5 74q0 45 5.5 72.5t14.5 27.5v-202zM0 0v202q40 0 68.5 11t53.5 36.5t53 66.5q26 36 56 73t67 68.5t82.5 50.5t103.5 19
q57 0 102 -24t76.5 -66.5t48 -100.5t16.5 -127q0 -58 -14 -122.5t-39 -118.5l-168 67q23 40 35 84.5t12 89.5q0 62 -19 90.5t-53 28.5q-23 0 -49.5 -14.5t-55.5 -43.5t-61 -74q-48 -69 -94.5 -112t-99 -63.5t-121.5 -20.5zM664 170l10 -202q-103 -6 -178.5 1.5t-132 26.5
t-100.5 49t-82 70l113 119q33 -34 82.5 -49.5t120.5 -17.5t167 3zM850 0v202q9 0 14.5 -27.5t5.5 -72.5q0 -46 -5.5 -74t-14.5 -28z" />
    <glyph glyph-name="uniFEE6" unicode="&#x646;" horiz-adv-x="953" arabic-form="final" 
d="M918 0q-112 0 -181 60.5t-83 168.5l170 39q2 -39 22.5 -52.5t71.5 -13.5h35v-202h-35zM424 -285q-97 0 -169 33.5t-119.5 93.5t-71.5 139.5t-24 171.5q0 36 4 72.5t12 71.5l168 -31q-6 -29 -8 -57t-2 -56q0 -76 21.5 -129t68 -80t120.5 -27t124.5 27t76.5 80t26 132v369
h174v-369q0 -94 -26 -174t-77.5 -140t-126 -93.5t-171.5 -33.5zM953 0v202q8 0 14 -27.5t6 -72.5q0 -46 -6 -74t-14 -28zM433 527q-42 0 -69 27t-27 69t27 69t69 27q43 0 69.5 -27t26.5 -69t-26.5 -69t-69.5 -27z" />
    <glyph glyph-name="uniFEE7" unicode="&#x646;" horiz-adv-x="391" arabic-form="initial" 
d="M155 525h174v-525h-329v202h155v323zM0 0q-9 0 -14.5 28t-5.5 74q0 45 5.5 72.5t14.5 27.5v-202zM242 635q-42 0 -69 27t-27 69t27 69t69 27q43 0 69.5 -27t26.5 -69t-26.5 -69t-69.5 -27z" />
    <glyph glyph-name="uniFEE8" unicode="&#x646;" horiz-adv-x="453" arabic-form="medial" 
d="M0 0v202h57q38 0 58 7.5t28 25.5t8 51v239h174v-239q0 -89 -32.5 -153t-92 -98t-143.5 -35h-57zM419 0q-84 0 -144 34t-92 98.5t-32 153.5h174q0 -33 7.5 -51t28 -25.5t58.5 -7.5h34v-202h-34zM453 0v202q9 0 14.5 -27.5t5.5 -72.5q0 -46 -5.5 -74t-14.5 -28zM0 0
q-9 0 -14.5 28t-5.5 74q0 45 5.5 72.5t14.5 27.5v-202zM225 635q-42 0 -69 27t-27 69t27 69t69 27q43 0 69.5 -27t26.5 -69t-26.5 -69t-69.5 -27z" />
    <glyph glyph-name="uniFEEA" unicode="&#x647;" horiz-adv-x="741" arabic-form="final" 
d="M333 45q-58 0 -111 15t-94 46t-64.5 77t-23.5 107q0 69 31.5 122.5t87.5 89t131 54.5t162 21l3 -170q-57 -1 -101.5 -9.5t-76 -24t-47.5 -37t-16 -47.5q0 -23 13 -40t39.5 -25.5t64.5 -8.5q36 0 67 8t60 22l81 -150q-47 -25 -100 -37.5t-106 -12.5zM706 0q-84 0 -144 34
t-92 98.5t-32 153.5v323h174v-323q0 -33 7.5 -51t28 -25.5t58.5 -7.5h35v-202h-35zM741 0v202q8 0 14 -27.5t6 -72.5q0 -46 -6 -74t-14 -28z" />
    <glyph glyph-name="uniFEEB" unicode="&#x647;" horiz-adv-x="847" arabic-form="initial" 
d="M502 -2q-77 0 -153 24t-138.5 69t-100 110t-37.5 148q0 71 28.5 130t77 94.5t108.5 35.5q46 0 86 -20.5t70.5 -55.5t48 -80.5t17.5 -95.5q0 -70 -35 -134t-101 -114.5t-160 -79.5t-213 -29v202q82 1 148.5 16t114.5 38.5t73.5 51t25.5 53.5q0 21 -10 38t-26.5 27
t-36.5 10q-19 0 -35 -9.5t-25.5 -26.5t-9.5 -39q0 -33 21.5 -67.5t61.5 -63.5t93.5 -46.5t116.5 -17.5q44 0 70 9t37.5 26t11.5 39q0 52 -45.5 90t-142 68.5t-249.5 58.5q-8 -14 -16 -16t-16.5 2t-17.5 5q-27 5 -57 9.5t-62 9.5l22 183q169 -23 307.5 -50.5t239.5 -69
t156 -107.5t55 -165q0 -69 -25 -118t-68 -80.5t-97 -46.5t-113 -15zM0 0q-9 0 -14.5 28t-5.5 74q0 45 5.5 72.5t14.5 27.5v-202z" />
    <glyph glyph-name="uniFEEC" unicode="&#x647;" horiz-adv-x="765" arabic-form="medial" 
d="M423 -308q-61 0 -121 22t-110 64t-80.5 104.5t-30.5 143.5v134q0 99 25.5 178t70.5 134.5t106 84.5t134 29q76 0 135 -31.5t93 -87t34 -128.5q0 -74 -35.5 -136.5t-100 -107.5t-151.5 -70t-190 -25h-202v202h247q76 0 134 18.5t91 50t33 70.5q0 23 -11.5 39.5t-32.5 25
t-51 8.5q-47 0 -82 -25.5t-54 -81t-19 -147.5v-135q0 -47 20 -83.5t55 -57.5t79 -21q31 0 52 11t32.5 30.5t11.5 47.5q0 34 -17.5 71.5t-55.5 63.5l72 106q175 -89 175 -258q0 -80 -35.5 -134t-93.5 -81.5t-127 -27.5zM765 0q-121 0 -200.5 26t-132.5 61l96 169
q37 -25 99 -39.5t138 -14.5v-202zM765 0v202q9 0 14.5 -27.5t5.5 -72.5q0 -46 -5.5 -74t-14.5 -28zM0 0q-9 0 -14.5 28t-5.5 74q0 45 5.5 72.5t14.5 27.5v-202z" />
    <glyph glyph-name="uniFEEE" unicode="&#x648;" horiz-adv-x="670" arabic-form="final" 
d="M518 0v202h152v-202h-152zM670 0v202q9 0 14.5 -27.5t5.5 -72.5q0 -46 -5.5 -74t-14.5 -28zM85 -291v202h171q72 0 98.5 20.5t26.5 57.5v504h173v-504q0 -86 -36.5 -149t-103.5 -97t-158 -34h-171zM335 0q-90 0 -156 37t-102.5 98.5t-36.5 135.5q0 60 23 110t63.5 87.5
t94 58.5t115.5 21q60 0 117 -17.5t101 -37.5l-70 -179q-84 50 -148 50q-38 0 -65 -14t-42 -35.5t-15 -44.5q0 -21 13.5 -41t40.5 -32.5t67 -12.5h164v-184h-164z" />
    <glyph glyph-name="uniFEF0" unicode="&#x649;" horiz-adv-x="911" arabic-form="final" 
d="M481 -352q-144 0 -244.5 51t-152.5 146.5t-52 230.5q0 33 3.5 69t9.5 74l159 -32q-5 -34 -7.5 -59.5t-2.5 -48.5q0 -121 67 -175t215 -54q87 0 142.5 15t82 38t26.5 46q0 19 -15.5 34t-44.5 30t-67 31l50 163q39 -17 83 -39.5t82 -52.5t62 -70.5t24 -93.5q0 -40 -15 -82
t-47 -81.5t-81.5 -71t-118.5 -50t-158 -18.5zM815 0q-192 0 -289 95l122 144q9 -9 33 -17t59 -14t75 -6h96v-202h-96zM911 0v202q8 0 14 -27.5t6 -72.5q0 -46 -6 -74t-14 -28z" />
    <glyph glyph-name="uniFEF2" unicode="&#x64a;" horiz-adv-x="911" arabic-form="final" 
d="M481 -352q-144 0 -244.5 51t-152.5 146.5t-52 230.5q0 33 3.5 69t9.5 74l159 -32q-5 -34 -7.5 -59.5t-2.5 -48.5q0 -121 67 -175t215 -54q87 0 142.5 15t82 38t26.5 46q0 19 -15.5 34t-44.5 30t-67 31l50 163q39 -17 83 -39.5t82 -52.5t62 -70.5t24 -93.5q0 -40 -15 -82
t-47 -81.5t-81.5 -71t-118.5 -50t-158 -18.5zM815 0q-192 0 -289 95l122 144q9 -9 33 -17t59 -14t75 -6h96v-202h-96zM911 0v202q8 0 14 -27.5t6 -72.5q0 -46 -6 -74t-14 -28zM569 -593q-33 0 -54.5 21.5t-21.5 54.5t21.5 54.5t54.5 21.5t54.5 -21.5t21.5 -54.5t-21.5 -54.5
t-54.5 -21.5zM395 -593q-33 0 -54.5 21.5t-21.5 54.5t21.5 54.5t54.5 21.5t55 -21.5t22 -54.5t-22 -54.5t-55 -21.5z" />
    <glyph glyph-name="uniFEF3" unicode="&#x64a;" horiz-adv-x="391" arabic-form="initial" 
d="M155 525h174v-525h-329v202h155v323zM0 0q-9 0 -14.5 28t-5.5 74q0 45 5.5 72.5t14.5 27.5v-202zM269 -241q-33 0 -54.5 21.5t-21.5 54.5t21.5 54.5t54.5 21.5t54.5 -21.5t21.5 -54.5t-21.5 -54.5t-54.5 -21.5zM95 -241q-33 0 -54.5 21.5t-21.5 54.5t21.5 54.5t54.5 21.5
t55 -21.5t22 -54.5t-22 -54.5t-55 -21.5z" />
    <glyph glyph-name="uniFEF4" unicode="&#x64a;" horiz-adv-x="453" arabic-form="medial" 
d="M0 0v202h57q38 0 58 7.5t28 25.5t8 51v239h174v-239q0 -89 -32.5 -153t-92 -98t-143.5 -35h-57zM419 0q-84 0 -144 34t-92 98.5t-32 153.5h174q0 -33 7.5 -51t28 -25.5t58.5 -7.5h34v-202h-34zM453 0v202q9 0 14.5 -27.5t5.5 -72.5q0 -46 -5.5 -74t-14.5 -28zM0 0
q-9 0 -14.5 28t-5.5 74q0 45 5.5 72.5t14.5 27.5v-202zM313 -241q-33 0 -54.5 21.5t-21.5 54.5t21.5 54.5t54.5 21.5t54.5 -21.5t21.5 -54.5t-21.5 -54.5t-54.5 -21.5zM139 -241q-33 0 -54.5 21.5t-21.5 54.5t21.5 54.5t54.5 21.5t55 -21.5t22 -54.5t-22 -54.5t-55 -21.5z
" />
    <glyph glyph-name=".notdef" horiz-adv-x="587" 
d="M40 0v700h507v-700h-507zM120 70h347v560h-347v-560z" />
    <glyph glyph-name=".null" 
 />
    <glyph glyph-name="nonmarkingreturn" horiz-adv-x="333" 
 />
    <glyph glyph-name="CR" unicode="&#xd;" horiz-adv-x="300" 
 />
    <glyph glyph-name="space" unicode=" " horiz-adv-x="270" 
 />
    <glyph glyph-name="exclam" unicode="!" horiz-adv-x="276" 
d="M45 699h192v-182l-35 -267h-121l-36 267v182zM138 180q41 0 67.5 -26t26.5 -68t-26.5 -68t-67.5 -26q-42 0 -68 26t-26 68t26 68t68 26z" />
    <glyph glyph-name="quotedbl" unicode="&#x22;" horiz-adv-x="478" 
d="M60 701h151v-290h-151v290zM267 701h151v-290h-151v290z" />
    <glyph glyph-name="numbersign" unicode="#" horiz-adv-x="741" 
d="M26 284h673l-17 -138h-673zM59 546h673l-16 -137h-673zM210 701h144l-87 -701h-144zM474 701h145l-87 -701h-145z" />
    <glyph glyph-name="dollar" unicode="$" horiz-adv-x="655" 
d="M266 857h149v-267h-149v267zM266 108h149v-268h-149v268zM563 475q-36 21 -79 39t-83.5 29t-70.5 11q-26 0 -42 -10t-16 -31q0 -23 19.5 -37.5t52.5 -24.5t72 -20.5t78 -26t71.5 -39t52.5 -61t20 -92.5q0 -76 -39.5 -125.5t-105 -74t-144.5 -24.5q-60 0 -121 14
t-116.5 39t-99.5 61l78 158q36 -31 83.5 -55.5t95 -39t82.5 -14.5q34 0 53 12.5t19 37.5q0 23 -20 37.5t-52.5 24.5t-72 20t-78 24.5t-71.5 37.5t-52.5 59t-19.5 90q0 68 36 118.5t101 77.5t153 27q80 0 158 -22.5t135 -59.5z" />
    <glyph glyph-name="percent" unicode="%" horiz-adv-x="1005" 
d="M218 704q91 0 145.5 -57.5t54.5 -155.5t-54.5 -156t-145.5 -58q-61 0 -106 26t-70 74.5t-25 113.5q0 98 54.5 155.5t146.5 57.5zM218 597q-34 0 -53.5 -28.5t-19.5 -77.5t19.5 -78t53.5 -29t53.5 29t19.5 78t-19.5 77.5t-53.5 28.5zM680 701h136l-492 -701h-137zM788 423
q91 0 145.5 -57.5t54.5 -155.5t-54.5 -156t-145.5 -58q-61 0 -106 26t-70 74.5t-25 113.5q0 98 54.5 155.5t146.5 57.5zM788 316q-34 0 -53.5 -28.5t-19.5 -77.5t19.5 -78t53.5 -29t53.5 29t19.5 78t-19.5 77.5t-53.5 28.5z" />
    <glyph glyph-name="ampersand" unicode="&#x26;" horiz-adv-x="697" 
d="M650 274q-32 -87 -84.5 -150.5t-120 -98t-143.5 -34.5q-72 0 -128 26.5t-88 73.5t-32 107q0 54 24.5 92t63.5 65t83 48t82.5 41t63.5 44t25 57q0 23 -14.5 37.5t-38.5 14.5q-25 0 -39.5 -17t-14.5 -44q0 -32 19.5 -70t65.5 -91t123 -128.5t193 -183.5l-102 -98
q-108 104 -186.5 181t-130.5 134t-82.5 100t-43.5 80.5t-13 74.5q0 54 26 93t72.5 60.5t110.5 21.5q63 0 110 -21t74.5 -57.5t27.5 -84.5q0 -50 -24 -86t-62 -62t-81 -47t-81 -41t-62.5 -43t-24.5 -55q0 -25 12 -43.5t33 -28.5t46 -10q47 0 89 30t74.5 83t50.5 121z" />
    <glyph glyph-name="quotesingle" unicode="'" horiz-adv-x="271" 
d="M60 701h151v-290h-151v290z" />
    <glyph glyph-name="parenleft" unicode="(" horiz-adv-x="358" 
d="M363 742q-55 -89 -88.5 -200.5t-33.5 -232.5t33.5 -232.5t88.5 -200.5h-180q-63 89 -97 200.5t-34 232.5t34 232.5t97 200.5h180z" />
    <glyph glyph-name="parenright" unicode=")" horiz-adv-x="358" 
d="M-5 742h180q64 -89 97.5 -200.5t33.5 -232.5t-33.5 -232.5t-97.5 -200.5h-180q55 89 88.5 200.5t33.5 232.5t-33.5 232.5t-88.5 200.5z" />
    <glyph glyph-name="asterisk" unicode="*" horiz-adv-x="394" 
d="M147 719h100l-2 -92l78 47l50 -86l-82 -43l82 -45l-50 -87l-79 48l3 -91h-100l3 92l-79 -47l-50 85l81 45l-81 43l50 88l78 -49z" />
    <glyph glyph-name="plus" unicode="+" horiz-adv-x="515" 
d="M31 391h453v-126h-453v126zM195 555h126v-454h-126v454z" />
    <glyph glyph-name="comma" unicode="," horiz-adv-x="254" 
d="M156 -6q-63 -3 -92.5 25t-29.5 67q0 42 27 68t68 26q37 0 65 -23.5t28 -69.5q0 -21 -7.5 -39.5t-17.5 -34.5l-88 -139h-95l86 212z" />
    <glyph glyph-name="hyphen" unicode="-" horiz-adv-x="377" 
d="M52 371h273v-126h-273v126z" />
    <glyph glyph-name="period" unicode="." horiz-adv-x="255" 
d="M128 180q41 0 67.5 -26t26.5 -68t-26.5 -68t-67.5 -26q-42 0 -68.5 26t-26.5 68t26.5 68t68.5 26z" />
    <glyph glyph-name="slash" unicode="/" horiz-adv-x="364" 
d="M283 808h169l-327 -915h-169z" />
    <glyph glyph-name="zero" unicode="0" horiz-adv-x="701" 
d="M352 707q152 0 234 -92t82 -264t-82 -265t-234 -93q-153 0 -235 93t-82 265t82 264t235 92zM352 556q-56 0 -80 -46t-24 -159q0 -112 24 -159t80 -47q55 0 78.5 47t23.5 159q0 113 -23.5 159t-78.5 46z" />
    <glyph glyph-name="one" unicode="1" horiz-adv-x="415" 
d="M-22 701h336v-701h-208v626l90 -91h-218v166z" />
    <glyph glyph-name="two" unicode="2" horiz-adv-x="613" 
d="M287 391q26 27 43 54.5t17 47.5q0 24 -16.5 36.5t-46.5 12.5q-42 0 -92.5 -24t-100.5 -65l-78 150q72 50 147.5 78.5t154.5 28.5q73 0 129 -23t88.5 -65t32.5 -98q0 -59 -39 -117.5t-98 -118.5l-190 -190l-26 64h368v-162h-542l-1 133z" />
    <glyph glyph-name="three" unicode="3" horiz-adv-x="609" 
d="M405 416q78 -14 127.5 -64t49.5 -130q0 -68 -35.5 -120.5t-100 -81.5t-153.5 -29q-79 0 -155.5 24.5t-128.5 64.5l75 142q45 -38 94 -57t99 -19q33 0 55.5 8.5t34 25.5t11.5 41q0 36 -26 55.5t-76 19.5h-125v109l215 206l25 -62h-345v153h502v-119l-245 -220l-21 77z" />
    <glyph glyph-name="four" unicode="4" horiz-adv-x="611" 
d="M-6 143v137l185 421h196l-207 -488l-55 82h464v-152h-583zM302 437h190v-437h-190v437z" />
    <glyph glyph-name="five" unicode="5" horiz-adv-x="628" 
d="M274 357l-97 90q34 1 63.5 1h51h29.5q84 0 146 -26.5t96 -74t34 -111.5q0 -74 -36 -129t-101.5 -85.5t-154.5 -30.5q-72 0 -149 25t-135 65l76 144q41 -34 88.5 -56.5t96.5 -22.5q44 0 67.5 20t23.5 55t-23 53.5t-71 18.5h-37.5t-56 -0.5t-58 -0.5t-43.5 -1v410h481v-162
h-381l90 91v-273z" />
    <glyph glyph-name="six" unicode="6" horiz-adv-x="628" 
d="M492 511q-29 23 -64.5 34.5t-76.5 11.5q-49 0 -82 -19t-49 -54.5t-16 -86.5q24 31 62 49t91 18q68 0 117.5 -29t77 -80.5t27.5 -119.5q0 -75 -33 -130t-91.5 -84.5t-137.5 -29.5q-94 0 -162 42.5t-104.5 121t-36.5 186.5q0 112 40 195t113 128.5t172 45.5q61 0 123 -16
t106 -44zM311 319q-28 0 -47.5 -11t-29.5 -29.5t-10 -44.5q0 -18 5 -33t15.5 -27t26.5 -18t38 -6q28 0 46.5 10t28.5 29t10 47q0 39 -21 61t-62 22z" />
    <glyph glyph-name="seven" unicode="7" horiz-adv-x="596" 
d="M14 701h570v-140l-253 -561h-219l280 623l53 -84h-338l91 91v-189h-184v260z" />
    <glyph glyph-name="eight" unicode="8" horiz-adv-x="630" 
d="M296 710q77 0 133.5 -23.5t88 -67t31.5 -102.5q0 -42 -21 -80.5t-56 -61.5q52 -25 82.5 -73t30.5 -104q0 -63 -35.5 -109.5t-100.5 -72t-152 -25.5t-151.5 25t-100.5 71t-36 107q0 58 34 107t89 74q-39 26 -62.5 66t-23.5 82q0 58 30.5 99.5t87 64.5t132.5 23zM297 293
q-45 0 -69 -20t-24 -58q0 -36 24 -55.5t69 -19.5t69.5 19.5t24.5 55.5q0 37 -24 57.5t-70 20.5zM297 574q-38 0 -58.5 -17t-20.5 -51q0 -32 20.5 -48.5t58.5 -16.5t58.5 16.5t20.5 48.5q0 34 -20.5 51t-58.5 17z" />
    <glyph glyph-name="nine" unicode="9" horiz-adv-x="627" 
d="M102 190q28 -22 63.5 -33.5t75.5 -11.5q50 0 83 18.5t49 54.5t16 86q-24 -30 -62 -48.5t-91 -18.5q-67 0 -116.5 28.5t-77 80.5t-27.5 121q0 74 32.5 128.5t91.5 84.5t138 30q94 0 161.5 -42.5t104 -120.5t36.5 -186q0 -112 -40.5 -195t-113.5 -129t-172 -46
q-59 0 -121 16.5t-106 43.5zM283 551q-26 0 -44.5 -9.5t-28.5 -28.5t-10 -47q0 -40 20.5 -61.5t61.5 -21.5q29 0 48 10.5t29 30t10 44.5q0 18 -5.5 33t-15.5 26.5t-26 17.5t-39 6z" />
    <glyph glyph-name="colon" unicode=":" horiz-adv-x="255" 
d="M128 477q41 0 67.5 -26t26.5 -68t-26.5 -68t-67.5 -26q-42 0 -68.5 26t-26.5 68t26.5 68t68.5 26zM128 180q41 0 67.5 -26t26.5 -68t-26.5 -68t-67.5 -26q-42 0 -68.5 26t-26.5 68t26.5 68t68.5 26z" />
    <glyph glyph-name="semicolon" unicode=";" horiz-adv-x="255" 
d="M128 477q41 0 67.5 -26t26.5 -68t-26.5 -68t-67.5 -26q-42 0 -68.5 26t-26.5 68t26.5 68t68.5 26zM156 -6q-63 -3 -92.5 25t-29.5 67q0 42 27 68t68 26q37 0 65 -23.5t28 -69.5q0 -21 -7.5 -39.5t-17.5 -34.5l-88 -139h-95l86 212z" />
    <glyph glyph-name="less" unicode="&#x3c;" horiz-adv-x="515" 
d="M484 589v-141l-323 -124l323 -125v-141l-453 185v161z" />
    <glyph glyph-name="equal" unicode="=" horiz-adv-x="515" 
d="M31 500h453v-126h-453v126zM31 282h453v-126h-453v126z" />
    <glyph glyph-name="greater" unicode="&#x3e;" horiz-adv-x="515" 
d="M31 67v141l323 124l-323 125v141l453 -185v-161z" />
    <glyph glyph-name="question" unicode="?" horiz-adv-x="486" 
d="M21 464q1 115 64 179t175 64q70 0 120 -21t77 -60.5t27 -96.5q0 -37 -12 -65t-32 -50t-41.5 -40.5t-41.5 -37.5t-32 -41t-12 -50h-150q0 38 9.5 65.5t24.5 48t32 36.5t32 31t24.5 32t9.5 38q0 27 -13 39.5t-41 12.5q-32 0 -48 -20.5t-17 -63.5h-155zM234 180
q42 0 68.5 -26t26.5 -67q0 -43 -26.5 -69t-68.5 -26q-41 0 -67.5 26t-26.5 69q0 41 26.5 67t67.5 26z" />
    <glyph glyph-name="at" unicode="@" horiz-adv-x="888" 
d="M656 162q0 -26 9.5 -36t24.5 -10q19 0 36.5 19.5t28.5 55t11 81.5q0 70 -21 130.5t-61.5 105.5t-99.5 70.5t-134 25.5q-67 0 -127 -26.5t-105 -72.5t-70.5 -107t-25.5 -130q0 -68 24 -126.5t67 -102t101 -67t124 -23.5q43 0 93.5 14.5t92.5 47.5l49 -83q-29 -23 -69 -40
t-83.5 -26t-82.5 -9q-89 0 -165.5 31t-133.5 87t-88.5 132t-31.5 165q0 90 33.5 169t92.5 137.5t137 91.5t168 33t166.5 -31.5t133 -89t88 -134.5t31.5 -169q0 -73 -25 -128.5t-68 -85.5t-99 -30q-45 0 -76 18t-42 57l-2 10q-28 -40 -64.5 -57.5t-75.5 -17.5
q-54 0 -102.5 29t-79 80t-30.5 121q0 63 24.5 116t68.5 85t105 32q31 0 55.5 -9.5t42.5 -23t26 -25.5v46h129v-330zM429 385q-25 0 -43.5 -15t-28.5 -39.5t-10 -54.5q0 -32 10 -59t29 -43.5t45 -16.5q28 0 47.5 16t29.5 43t10 59q0 30 -10.5 55.5t-30 40t-48.5 14.5z" />
    <glyph glyph-name="A" unicode="A" horiz-adv-x="786" 
d="M291 701h214l289 -701h-222l-180 493l-186 -493h-214zM183 264h405v-152h-405v152z" />
    <glyph glyph-name="B" unicode="B" horiz-adv-x="720" 
d="M403 701q83 0 143 -22t93 -61.5t33 -93.5q0 -53 -32 -94t-87 -57q65 -14 103 -62t38 -115q0 -60 -34 -104t-95.5 -68t-146.5 -24h-359v701h344zM392 426q30 0 48.5 16.5t18.5 44.5t-18.5 43t-48.5 15h-126v-119h126zM392 156q39 -1 63 17t24 49q0 28 -24 45t-63 16h-126
v-127h126z" />
    <glyph glyph-name="C" unicode="C" horiz-adv-x="690" 
d="M566 446q-33 44 -78 69.5t-89 25.5q-35 0 -65.5 -14t-53.5 -39t-35.5 -59t-12.5 -74t12.5 -74.5t35.5 -59.5t53.5 -39t65.5 -14q41 0 86.5 22.5t80.5 59.5l120 -128q-38 -41 -87 -72t-103 -47.5t-107 -16.5q-81 0 -148 27.5t-117 76.5t-77.5 116.5t-27.5 146.5
q0 78 28 143.5t79.5 114.5t120 76t149.5 27q54 0 107 -15.5t100.5 -43.5t82.5 -66z" />
    <glyph glyph-name="D" unicode="D" horiz-adv-x="762" 
d="M366 701q86 0 155 -25t118.5 -71t76.5 -110.5t27 -143.5t-27 -143.5t-78 -111t-121.5 -71.5t-157.5 -25h-300v701h307zM372 163q36 0 64.5 13.5t50 38t33 58.5t11.5 76t-12 76.5t-34.5 60t-53.5 38.5t-69 13h-95v-374h105z" />
    <glyph glyph-name="E" unicode="E" horiz-adv-x="683" 
d="M59 701h573v-160h-365v-110h331v-160h-331v-111h375v-160h-583v701z" />
    <glyph glyph-name="F" unicode="F" horiz-adv-x="619" 
d="M59 701h544v-160h-336v-140h312v-160h-312v-241h-208v701z" />
    <glyph glyph-name="G" unicode="G" horiz-adv-x="740" 
d="M588 464q-36 35 -84.5 56t-94.5 21q-38 0 -70.5 -14.5t-56 -40t-37 -60t-13.5 -75.5t13.5 -76t37.5 -61t57 -40.5t71 -14.5q35 0 81.5 18t85.5 47l118 -146q-38 -27 -89 -48t-106 -32.5t-105 -11.5q-81 0 -149.5 27.5t-120 76.5t-79.5 116t-28 145t29 144t82 115.5
t124 76.5t156 27q54 0 108 -13t102.5 -37t85.5 -58zM517 363h179v-285h-179v285z" />
    <glyph glyph-name="H" unicode="H" horiz-adv-x="783" 
d="M59 701h208v-280h249v280h208v-701h-208v261h-249v-261h-208v701z" />
    <glyph glyph-name="I" unicode="I" horiz-adv-x="326" 
d="M59 701h208v-701h-208v701z" />
    <glyph glyph-name="J" unicode="J" horiz-adv-x="554" 
d="M507 232q0 -115 -69 -178t-186 -63q-80 0 -144.5 31t-114.5 86l95 137q40 -40 79.5 -59.5t67.5 -19.5t45 18t17 53v298h-238v166h448v-469z" />
    <glyph glyph-name="K" unicode="K" horiz-adv-x="761" 
d="M59 701h208v-281l235 281h240l-475 -529v-172h-208v701zM473 438l285 -438h-249l-175 275z" />
    <glyph glyph-name="L" unicode="L" horiz-adv-x="574" 
d="M59 701h208v-527h294v-174h-502v701z" />
    <glyph glyph-name="M" unicode="M" horiz-adv-x="939" 
d="M59 701h223l188 -389l187 389h223v-701h-183v416l-160 -347h-135l-160 347v-416h-183v701z" />
    <glyph glyph-name="N" unicode="N" horiz-adv-x="783" 
d="M59 701h177l353 -464l-55 -19v483h190v-701h-177l-352 462l55 19v-481h-191v701z" />
    <glyph glyph-name="O" unicode="O" horiz-adv-x="802" 
d="M401 714q83 0 152.5 -27t121 -76t80 -115t28.5 -144t-28.5 -145.5t-80 -116.5t-121 -76.5t-152.5 -27.5t-152.5 27.5t-121 76.5t-80 116t-28.5 146t28.5 145t80 114.5t121 75.5t152.5 27zM404 541q-35 0 -66.5 -14t-55 -40t-37 -60.5t-13.5 -75.5t14 -76t37.5 -61
t54.5 -40.5t66 -14.5q34 0 64 14.5t53 40.5t36 61t13 76t-13 75.5t-36 60.5t-53 40t-64 14z" />
    <glyph glyph-name="P" unicode="P" horiz-adv-x="683" 
d="M377 701q136 0 210.5 -65t74.5 -183q0 -126 -74.5 -195.5t-210.5 -69.5h-201l91 91v-279h-208v701h318zM367 349q47 0 72.5 25t25.5 73q0 45 -25.5 69.5t-72.5 24.5h-191l91 90v-373l-91 91h191z" />
    <glyph glyph-name="Q" unicode="Q" horiz-adv-x="805" 
d="M540 51q16 -31 39 -50.5t50 -19.5q23 0 54 13.5t62 36.5l70 -125q-40 -35 -97.5 -56.5t-111.5 -21.5q-78 0 -139 46.5t-91 123.5zM401 714q83 0 152.5 -27t121 -76t80 -115t28.5 -144t-28.5 -145.5t-80 -116.5t-121 -76.5t-152.5 -27.5t-152.5 27.5t-121 76.5t-80 116
t-28.5 146t28.5 145t80 114.5t121 75.5t152.5 27zM404 541q-35 0 -66.5 -14t-55 -40t-37 -60.5t-13.5 -75.5t14 -76t37.5 -61t54.5 -40.5t66 -14.5q34 0 64 14.5t53 40.5t36 61t13 76t-13 75.5t-36 60.5t-53 40t-64 14z" />
    <glyph glyph-name="R" unicode="R" horiz-adv-x="725" 
d="M386 701q142 0 219 -65t77 -183q0 -126 -77 -195.5t-219 -69.5h-119v-188h-208v701h327zM386 349q47 0 72.5 25t25.5 73q0 45 -25.5 69.5t-72.5 24.5h-119v-192h119zM340 264h202l164 -264h-236z" />
    <glyph glyph-name="S" unicode="S" horiz-adv-x="655" 
d="M563 475q-36 21 -79 39t-83.5 29t-70.5 11q-26 0 -42 -10t-16 -31q0 -23 19.5 -37.5t52.5 -24.5t72 -20.5t78 -26t71.5 -39t52.5 -61t20 -92.5q0 -76 -39.5 -125.5t-105 -74t-144.5 -24.5q-60 0 -121 14t-116.5 39t-99.5 61l78 158q36 -31 83.5 -55.5t95 -39t82.5 -14.5
q34 0 53 12.5t19 37.5q0 23 -20 37.5t-52.5 24.5t-72 20t-78 24.5t-71.5 37.5t-52.5 59t-19.5 90q0 68 36 118.5t101 77.5t153 27q80 0 158 -22.5t135 -59.5z" />
    <glyph glyph-name="T" unicode="T" horiz-adv-x="628" 
d="M6 701h616v-166h-204v-535h-209v535h-203v166z" />
    <glyph glyph-name="U" unicode="U" horiz-adv-x="745" 
d="M256 290q0 -60 35 -95.5t84 -35.5q50 0 82 35.5t32 95.5v411h208v-411q0 -92 -39.5 -160.5t-112 -106t-170.5 -37.5q-99 0 -172.5 37.5t-114 106t-40.5 160.5v411h208v-411z" />
    <glyph glyph-name="V" unicode="V" horiz-adv-x="748" 
d="M-3 701h222l160 -485l160 485h213l-271 -701h-216z" />
    <glyph glyph-name="W" unicode="W" horiz-adv-x="1133" 
d="M-3 701h222l148 -572h-44l147 572h203l148 -572h-44l146 572h213l-237 -701h-214l-141 535h46l-145 -535h-213z" />
    <glyph glyph-name="X" unicode="X" horiz-adv-x="756" 
d="M15 701h242l116 -183l117 183h245l-229 -335l250 -366h-250l-133 200l-131 -200h-243l248 357z" />
    <glyph glyph-name="Y" unicode="Y" horiz-adv-x="702" 
d="M-8 701h208l153 -286l149 286h208l-345 -654h-26zM249 312h208v-312h-208v312z" />
    <glyph glyph-name="Z" unicode="Z" horiz-adv-x="679" 
d="M36 701h613v-132l-348 -407h355v-162h-632v131l348 408h-336v162z" />
    <glyph glyph-name="bracketleft" unicode="[" horiz-adv-x="370" 
d="M60 742h298v-149h-118v-568h118v-149h-298v866z" />
    <glyph glyph-name="backslash" unicode="\" horiz-adv-x="364" 
d="M82 808l326 -915h-169l-327 915h170z" />
    <glyph glyph-name="bracketright" unicode="]" horiz-adv-x="370" 
d="M310 742v-866h-298v149h119v568h-119v149h298z" />
    <glyph glyph-name="asciicircum" unicode="^" horiz-adv-x="593" 
d="M562 141h-141l-124 274l-125 -274h-141l185 383h161z" />
    <glyph glyph-name="underscore" unicode="_" horiz-adv-x="592" 
d="M0 -95h592v-109h-592v109z" />
    <glyph glyph-name="grave" unicode="`" horiz-adv-x="374" 
d="M196 775l109 -170l-133 -10l-135 122z" />
    <glyph glyph-name="a" unicode="a" horiz-adv-x="607" 
d="M271 228q-30 0 -45.5 -12.5t-15.5 -38.5q0 -25 16 -39.5t45 -14.5q21 0 39 7t32 19.5t21 29.5l25 -72q-20 -55 -67 -85.5t-117 -30.5q-58 0 -99 21.5t-63 60t-22 89.5q0 79 54 121.5t156 43.5h151v-99h-110zM363 329q0 34 -24 53t-70 19q-33 0 -76 -10t-88 -29l-50 134
q45 18 89 31t87.5 19t85.5 6q115 0 179.5 -52t64.5 -147v-353h-198v329z" />
    <glyph glyph-name="b" unicode="b" horiz-adv-x="688" 
d="M417 551q76 0 132.5 -35t88 -98.5t31.5 -148.5q0 -83 -30.5 -145t-86 -96.5t-130.5 -34.5q-66 0 -114.5 34t-75 96.5t-26.5 146.5q0 86 25.5 149t73 97.5t112.5 34.5zM366 395q-29 0 -51 -15t-34.5 -42.5t-12.5 -63.5t12.5 -63.5t34.5 -42.5t51 -15q30 0 52.5 15
t34.5 42.5t12 63.5t-12 63.5t-34.5 42.5t-52.5 15zM66 742h202v-742h-202v742z" />
    <glyph glyph-name="c" unicode="c" horiz-adv-x="562" 
d="M400 333q-14 26 -36 40t-51 14q-27 0 -47.5 -14.5t-31.5 -40.5t-11 -61q0 -36 11 -62.5t31.5 -41t47.5 -14.5q29 0 51 14.5t35 45.5l157 -79q-31 -67 -97.5 -104t-156.5 -37q-85 0 -148.5 34.5t-99 97t-35.5 145.5q0 84 35.5 147.5t99.5 98.5t150 35q85 0 150.5 -37.5
t100.5 -104.5z" />
    <glyph glyph-name="d" unicode="d" horiz-adv-x="688" 
d="M266 551q67 0 115 -34t75 -96t27 -147q0 -86 -26 -149t-73.5 -97.5t-112.5 -34.5q-76 0 -132.5 34.5t-88 98.5t-31.5 149q0 84 30.5 145.5t86.5 96t130 34.5zM322 391q-30 0 -52.5 -15t-34.5 -42.5t-12 -63.5q0 -37 12 -64t34.5 -42.5t52.5 -15.5t52 15.5t34 42.5t12 64
q0 36 -12 63.5t-34 42.5t-52 15zM420 742h202v-742h-202v742z" />
    <glyph glyph-name="e" unicode="e" horiz-adv-x="609" 
d="M390 322q1 28 -9 48.5t-29 32t-44 11.5q-30 0 -50.5 -17.5t-31.5 -47.5t-11 -68q0 -44 14.5 -75t40 -47.5t59.5 -16.5q66 0 120 52l105 -103q-42 -47 -103.5 -72.5t-138.5 -25.5q-91 0 -156.5 34.5t-101 97t-35.5 145.5q0 85 36 148t100.5 98t150.5 35q96 0 161 -40.5
t96.5 -114t25.5 -173.5h-401v99h202z" />
    <glyph glyph-name="f" unicode="f" horiz-adv-x="411" 
d="M98 566q0 58 27.5 99.5t76.5 64t113 21.5q31 0 62 -5.5t58 -14.5l-22 -150q-16 5 -30.5 9t-27.5 4q-17 0 -29.5 -6t-20 -17.5t-7.5 -28.5v-542h-200v566zM24 516h387v-129h-387v129z" />
    <glyph glyph-name="g" unicode="g" horiz-adv-x="651" 
d="M593 47q0 -77 -37.5 -133t-105 -86.5t-156.5 -30.5q-76 0 -141 21t-110 50l67 136q36 -23 80.5 -36.5t86.5 -13.5q37 0 63 10.5t39.5 30.5t13.5 46v503h200v-497zM243 551q66 0 112.5 -31.5t71 -89.5t24.5 -137q0 -80 -24 -139t-69.5 -91t-110.5 -32t-117 32.5t-81.5 92
t-29.5 138.5q0 78 29 135.5t79.5 89.5t115.5 32zM300 402q-27 0 -48 -14t-32.5 -40t-11.5 -60q0 -33 11.5 -58.5t32.5 -39.5t48 -14q28 0 48.5 14t32.5 39.5t12 58.5q0 35 -12 60.5t-32.5 39.5t-48.5 14z" />
    <glyph glyph-name="h" unicode="h" horiz-adv-x="683" 
d="M435 287q0 41 -21.5 64.5t-56.5 23.5q-41 -1 -65 -30t-24 -76h-46q0 89 26.5 153t75.5 97t117 33q59 0 103 -25t68.5 -72t24.5 -110v-345h-202v287zM66 742h202v-742h-202v742z" />
    <glyph glyph-name="i" unicode="i" horiz-adv-x="324" 
d="M61 544h202v-544h-202v544zM163 803q46 0 75 -29.5t29 -74.5q0 -46 -29 -75t-75 -29q-45 0 -74.5 29t-29.5 75q0 45 29.5 74.5t74.5 29.5z" />
    <glyph glyph-name="j" unicode="j" horiz-adv-x="326" 
d="M-25 -39l20 -4t20 -2q50 -2 50 57v532h202v-563q0 -85 -55.5 -134.5t-150.5 -48.5q-70 0 -125 22zM165 803q46 0 75 -29.5t29 -74.5q0 -46 -29 -75t-75 -29q-45 0 -74.5 29t-29.5 75q0 45 29.5 74.5t74.5 29.5z" />
    <glyph glyph-name="k" unicode="k" horiz-adv-x="648" 
d="M66 742h202v-742h-202v742zM418 544h228l-388 -409v235zM434 356l213 -356h-239l-123 234z" />
    <glyph glyph-name="l" unicode="l" horiz-adv-x="335" 
d="M66 742h202v-742h-202v742z" />
    <glyph glyph-name="m" unicode="m" horiz-adv-x="1034" 
d="M424 287q0 41 -20.5 64.5t-54.5 23.5q-39 -1 -62.5 -30t-23.5 -76h-46q0 89 26 153t74.5 97t114.5 33q58 0 101.5 -25t68 -72t24.5 -110v-345h-202v287zM786 287q0 41 -20.5 64.5t-54.5 23.5q-39 -1 -62 -30t-23 -76h-47q0 89 26 153t74.5 97t115.5 33q58 0 101.5 -25
t67.5 -72t24 -110v-345h-202v287zM61 544h202v-544h-202v544z" />
    <glyph glyph-name="n" unicode="n" horiz-adv-x="678" 
d="M430 287q0 41 -21.5 64.5t-56.5 23.5q-41 -1 -65 -30t-24 -76h-46q0 89 26.5 153t75.5 97t117 33q58 0 102.5 -25t69 -72t24.5 -110v-345h-202v287zM61 544h202v-544h-202v544z" />
    <glyph glyph-name="o" unicode="o" horiz-adv-x="643" 
d="M322 551q91 0 159 -34.5t105.5 -97t37.5 -147.5q0 -84 -37.5 -147t-105.5 -97.5t-159 -34.5q-92 0 -160 34.5t-105.5 97.5t-37.5 147q0 85 37.5 147.5t105.5 97t160 34.5zM322 391q-30 0 -52.5 -15t-34.5 -42.5t-12 -63.5q0 -37 12 -64t34.5 -42t52.5 -15t52 15t34 42
t12 64q0 36 -12 63.5t-34 42.5t-52 15z" />
    <glyph glyph-name="p" unicode="p" horiz-adv-x="688" 
d="M417 551q76 0 132.5 -35t88 -98.5t31.5 -148.5q0 -83 -30.5 -145t-86 -96.5t-130.5 -34.5q-66 0 -114.5 34t-75 96.5t-26.5 146.5q0 86 25.5 149t73 97.5t112.5 34.5zM366 395q-29 0 -51 -15t-34.5 -42.5t-12.5 -63.5t12.5 -63.5t34.5 -42.5t51 -15q30 0 52.5 15
t34.5 42.5t12 63.5t-12 63.5t-34.5 42.5t-52.5 15zM66 544h202v-738h-202v738z" />
    <glyph glyph-name="q" unicode="q" horiz-adv-x="688" 
d="M266 551q67 0 115 -34t75 -96t27 -147q0 -86 -26 -149t-73.5 -97.5t-112.5 -34.5q-76 0 -132.5 34.5t-88 98.5t-31.5 149q0 84 30.5 145.5t86.5 96t130 34.5zM322 391q-30 0 -52.5 -15t-34.5 -42.5t-12 -63.5q0 -37 12 -64t34.5 -42.5t52.5 -15.5t52 15.5t34 42.5t12 64
q0 36 -12 63.5t-34 42.5t-52 15zM420 544h202v-738h-202v738z" />
    <glyph glyph-name="r" unicode="r" horiz-adv-x="444" 
d="M434 370q-52 7 -90.5 -5t-59.5 -38.5t-21 -66.5l-46 9q0 87 26.5 151t75.5 98t115 34v-182zM61 544h202v-544h-202v544z" />
    <glyph glyph-name="s" unicode="s" horiz-adv-x="535" 
d="M444 360q-55 28 -100.5 42.5t-77.5 14.5q-18 0 -29.5 -6.5t-11.5 -19.5q0 -15 20.5 -24.5t53 -18.5t68.5 -20t68.5 -30.5t53 -49.5t20.5 -77q0 -56 -30.5 -96t-84 -62t-124.5 -22q-72 0 -137.5 19.5t-118.5 57.5l62 127q51 -33 101.5 -50t95.5 -17q14 0 24 3t15.5 8.5
t5.5 13.5q0 15 -20 25t-51.5 18t-67.5 19.5t-67.5 30.5t-51.5 49t-20 76q0 58 29.5 98t81.5 62t121 22q62 0 123 -16.5t116 -49.5z" />
    <glyph glyph-name="t" unicode="t" horiz-adv-x="449" 
d="M289 201q0 -26 12.5 -39t33.5 -13q12 0 28 4.5t34 11.5l36 -139q-28 -16 -68.5 -25.5t-82.5 -9.5q-58 0 -101.5 21t-68 61.5t-24.5 96.5v497h201v-466zM13 516h410v-129h-410v129z" />
    <glyph glyph-name="u" unicode="u" horiz-adv-x="668" 
d="M248 256q0 -40 20 -63.5t53 -23.5q39 1 61.5 30t22.5 76h46q0 -90 -26 -153t-73.5 -97t-113.5 -34q-57 0 -100.5 26t-67.5 72.5t-24 109.5v345h202v-288zM405 544h202v-544h-202v544z" />
    <glyph glyph-name="v" unicode="v" horiz-adv-x="594" 
d="M-8 544h208l100 -361l101 361h202l-203 -544h-206z" />
    <glyph glyph-name="w" unicode="w" horiz-adv-x="959" 
d="M-8 544h205l98 -347l94 347h190l97 -347l96 347h196l-198 -544h-199l-90 312l-92 -312h-199z" />
    <glyph glyph-name="x" unicode="x" horiz-adv-x="633" 
d="M10 544h232l75 -141l84 141h220l-170 -265l182 -279h-232l-84 154l-96 -154h-222l182 278z" />
    <glyph glyph-name="y" unicode="y" horiz-adv-x="605" 
d="M385 -46q-32 -80 -88 -118.5t-138 -38.5q-50 0 -92.5 14.5t-82.5 45.5l84 135q36 -31 73 -31q21 0 35.5 8.5t23.5 26.5l10 19l-225 529h207l119 -333l101 333h201z" />
    <glyph glyph-name="z" unicode="z" horiz-adv-x="562" 
d="M39 544l488 -1v-119l-244 -273h254v-151h-508v119l244 273h-234v152z" />
    <glyph glyph-name="braceleft" unicode="{" horiz-adv-x="370" 
d="M59 385q18 0 25.5 9t7.5 30v172q0 56 17.5 88t58.5 46t109 14h79v-149q-51 0 -67.5 -13.5t-16.5 -47.5v-97q0 -45 -13.5 -72t-43.5 -41t-81 -22l-75 -70h-42v153h42zM134 316q51 -8 81 -22.5t43.5 -40.5t13.5 -72v-97q0 -34 16.5 -47.5t67.5 -13.5v-149h-79
q-68 0 -109 14t-58.5 46.5t-17.5 86.5v173q0 22 -7.5 30t-25.5 8h-42v153h42z" />
    <glyph glyph-name="bar" unicode="|" horiz-adv-x="314" 
d="M82 799h150v-905h-150v905z" />
    <glyph glyph-name="braceright" unicode="}" horiz-adv-x="370" 
d="M312 385h42v-153h-42l-75 70q-51 8 -81.5 22t-44 41t-13.5 72v97q0 34 -16.5 47.5t-67.5 13.5v149h79q69 0 109.5 -14t58 -46t17.5 -88v-172q0 -21 8 -30t26 -9zM237 316l75 69h42v-153h-42q-18 0 -26 -8t-8 -30v-173q0 -54 -17.5 -86.5t-58 -46.5t-109.5 -14h-79v149
q51 0 67.5 13.5t16.5 47.5v97q0 46 13.5 72t44 40.5t81.5 22.5z" />
    <glyph glyph-name="asciitilde" unicode="~" horiz-adv-x="515" 
d="M465 418q0 -95 -30 -141t-91 -46q-26 0 -45.5 7t-34.5 16.5t-27 16.5t-23 7q-28 0 -28 -43h-135q0 95 30 141t91 46q26 0 45.5 -7t34.5 -16.5t27 -16.5t23 -7q29 0 29 43h134z" />
    <glyph glyph-name="uni00A0" unicode="&#xa0;" horiz-adv-x="270" 
 />
    <glyph glyph-name="exclamdown" unicode="&#xa1;" horiz-adv-x="276" 
d="M237 -156h-192v181l36 268h121l35 -268v-181zM145 362q-42 0 -68 26.5t-26 67.5q0 42 26 68.5t68 26.5t68 -26.5t26 -68.5q0 -41 -26 -67.5t-68 -26.5z" />
    <glyph glyph-name="cent" unicode="&#xa2;" horiz-adv-x="600" 
d="M236 707h149v-242h-149v242zM236 88h149v-248h-149v248zM400 333q-14 26 -36 40t-51 14q-27 0 -47.5 -14.5t-31.5 -40.5t-11 -61q0 -36 11 -62.5t31.5 -41t47.5 -14.5q29 0 51 14.5t35 45.5l157 -79q-31 -67 -97.5 -104t-156.5 -37q-85 0 -148.5 34.5t-99 97t-35.5 145.5
q0 84 35.5 147.5t99.5 98.5t150 35q85 0 150.5 -37.5t100.5 -104.5z" />
    <glyph glyph-name="sterling" unicode="&#xa3;" horiz-adv-x="570" 
d="M24 375h444v-68h-444v68zM347 710q63 0 120.5 -21.5t99.5 -62.5l-77 -153q-65 63 -120 63q-32 0 -48.5 -18t-16.5 -54v-399l-91 91h338v-156h-528v156h163l-91 -91v403q0 116 66 179t185 63z" />
    <glyph glyph-name="currency" unicode="&#xa4;" horiz-adv-x="697" 
d="M348 578q53 0 100 -20t82.5 -55t55 -81t19.5 -100q0 -52 -20 -99t-55 -81.5t-82 -55t-100 -20.5t-100 20.5t-82 55t-55 81.5t-20 99q0 54 20 100t55 81t82 55t100 20zM348 422q-28 0 -50.5 -13.5t-35.5 -36t-13 -50.5q0 -27 13 -49.5t36 -35.5t50 -13q28 0 50.5 13
t36.5 35.5t14 49.5q0 28 -14 50.5t-37 36t-50 13.5zM132 647l108 -109l-112 -112l-109 108zM128 209l112 -112l-108 -109l-113 113zM565 647l113 -113l-109 -108l-113 112zM569 209l109 -108l-113 -113l-109 109z" />
    <glyph glyph-name="yen" unicode="&#xa5;" horiz-adv-x="717" 
d="M0 701h208l153 -286l148 286h208l-344 -654h-26zM257 312h208v-312h-208v312zM69 335h581v-68h-581v68zM69 219h581v-68h-581v68z" />
    <glyph glyph-name="brokenbar" unicode="&#xa6;" horiz-adv-x="314" 
d="M82 799h150v-340h-150v340zM82 235h150v-341h-150v341z" />
    <glyph glyph-name="section" unicode="&#xa7;" horiz-adv-x="568" 
d="M474 504q-58 29 -103 43t-75 14q-23 0 -35 -7t-12 -19q0 -16 21.5 -27t55.5 -21.5t71.5 -23t71.5 -32t55.5 -49.5t21.5 -74q0 -30 -11 -56t-32.5 -45.5t-50.5 -34.5q27 -19 40.5 -38t13.5 -56q0 -49 -28.5 -86.5t-81 -59t-126.5 -21.5q-67 0 -133.5 19.5t-122.5 58.5
l55 125q54 -34 105 -51t92 -17q17 0 29 3.5t17.5 9.5t5.5 13q0 15 -21.5 26t-54.5 20.5t-70 22.5t-70 32t-54.5 49t-21.5 74q0 46 26 80.5t72 55.5q-35 21 -46.5 43.5t-11.5 50.5q0 49 27.5 87t79 59.5t121.5 21.5q59 0 119.5 -16t120.5 -49zM267 339q-30 0 -44.5 -8
t-14.5 -22q0 -12 12 -21.5t32 -14.5t45 -5q21 0 35 3.5t20.5 10.5t6.5 15q0 19 -27.5 30.5t-64.5 11.5z" />
    <glyph glyph-name="dieresis" unicode="&#xa8;" horiz-adv-x="448" 
d="M129 774q36 0 59 -23.5t23 -59.5t-23 -59.5t-59 -23.5t-59 24t-23 59q0 36 23 59.5t59 23.5zM326 774q36 0 59 -23.5t23 -59.5t-23 -59.5t-59 -23.5t-59 24t-23 59q0 36 23 59.5t59 23.5z" />
    <glyph glyph-name="copyright" unicode="&#xa9;" horiz-adv-x="715" 
d="M356 9q-71 0 -132.5 26.5t-107.5 73.5t-71.5 108.5t-25.5 130.5t26 131t72 109t107.5 74t133.5 27q71 0 132.5 -26.5t107.5 -73t72 -108t26 -131.5q0 -69 -26 -131t-72.5 -109t-108 -74t-133.5 -27zM361 184q-48 0 -86.5 21.5t-60.5 59t-22 84.5t22.5 83.5t61.5 58
t89 21.5q36 0 72 -15.5t60 -41.5l-55 -65q-15 20 -35.5 31.5t-40.5 11.5q-22 0 -39.5 -10.5t-27.5 -29.5t-10 -42q0 -24 10 -43t27.5 -29.5t39.5 -10.5q19 0 39.5 10t36.5 26l55 -58q-26 -28 -62.5 -45t-73.5 -17zM356 100q53 0 98 19.5t79.5 54.5t53 80t18.5 96t-18.5 96
t-52.5 79t-79 53.5t-97 19.5q-53 0 -98 -19.5t-79 -54.5t-52.5 -80t-18.5 -96t18.5 -96t52.5 -79.5t78.5 -53.5t96.5 -19z" />
    <glyph glyph-name="ordfeminine" unicode="&#xaa;" horiz-adv-x="397" 
d="M178 593q-16 0 -24.5 -7t-8.5 -21q0 -13 8.5 -21t24.5 -8t29.5 6.5t23.5 20.5l16 -39q-13 -34 -42.5 -53t-73.5 -19q-54 0 -84.5 28.5t-30.5 74.5q0 48 34 73t99 26h94v-61h-65zM230 653q0 19 -13.5 29t-42.5 10q-20 0 -48 -5.5t-57 -15.5l-31 88q44 14 87.5 22.5
t81.5 8.5q74 0 116.5 -31.5t41.5 -88.5v-212h-134z" />
    <glyph glyph-name="guillemotleft" unicode="&#xab;" horiz-adv-x="526" 
d="M114 459h162l-106 -189l106 -190h-162l-123 190zM356 459h162l-106 -189l106 -190h-162l-123 190z" />
    <glyph glyph-name="logicalnot" unicode="&#xac;" horiz-adv-x="586" 
d="M31 439h498v-126h-498v126zM385 439h144v-306h-144v306z" />
    <glyph glyph-name="uni00AD" unicode="&#xad;" horiz-adv-x="377" 
d="M52 371h273v-126h-273v126z" />
    <glyph glyph-name="registered" unicode="&#xae;" horiz-adv-x="715" 
d="M356 9q-71 0 -132.5 26.5t-107.5 73.5t-71.5 108.5t-25.5 130.5t26 131t72 109t107.5 74t133.5 27q71 0 132.5 -26.5t107.5 -73t72 -108t26 -131.5q0 -69 -26 -131t-72.5 -109t-108 -74t-133.5 -27zM407 206l-58 117h87l74 -117h-103zM356 100q53 0 98 19.5t79.5 54.5
t53 80t18.5 96t-18.5 96t-52.5 79t-79 53.5t-97 19.5q-53 0 -98 -19.5t-79 -54.5t-52.5 -80t-18.5 -96t18.5 -96t52.5 -79.5t78.5 -53.5t96.5 -19zM228 206v310h140q63 0 97 -28.5t34 -80.5q0 -55 -34 -86t-97 -31h-49v-84h-91zM319 359h49q22 0 33 12t11 32q0 21 -11 32.5
t-33 11.5h-49v-88z" />
    <glyph glyph-name="macron" unicode="&#xaf;" horiz-adv-x="342" 
d="M18 752h315v-115h-315v115z" />
    <glyph glyph-name="degree" unicode="&#xb0;" horiz-adv-x="389" 
d="M205 821q33 0 60 -16.5t43.5 -43.5t16.5 -60q0 -32 -16.5 -59.5t-43.5 -43.5t-60 -16t-60 16t-43.5 43.5t-16.5 59.5q0 34 16.5 60.5t43.5 43t60 16.5zM205 745q-19 0 -31.5 -13t-12.5 -31t13 -31t31 -13t31 13t13 31t-13 31t-31 13z" />
    <glyph glyph-name="plusminus" unicode="&#xb1;" horiz-adv-x="498" 
d="M35 426h428v-74h-428v74zM212 598h75v-418h-75v418zM35 98h428v-76h-428v76z" />
    <glyph glyph-name="uni00B2" unicode="&#xb2;" horiz-adv-x="388" 
d="M175 597q13 14 23 29t10 26t-8 17t-24 6q-24 0 -55.5 -14.5t-62.5 -38.5l-53 97q47 31 95 48.5t99 17.5q67 0 112 -31t45 -82q0 -36 -24 -71.5t-61 -70.5l-69 -66h161v-104h-341v85z" />
    <glyph glyph-name="uni00B3" unicode="&#xb3;" horiz-adv-x="376" 
d="M260 610q42 -9 69.5 -38.5t27.5 -77.5q0 -60 -47 -99.5t-128 -39.5q-49 0 -96.5 15.5t-78.5 40.5l56 103q25 -29 52 -43.5t56 -14.5q24 0 36 9.5t12 28.5t-12 28.5t-36 9.5h-78v71l85 78h-149v98h308v-76l-97 -88z" />
    <glyph glyph-name="acute" unicode="&#xb4;" horiz-adv-x="350" 
d="M159 775l158 -58l-153 -122l-132 10z" />
    <glyph glyph-name="uni00B5" unicode="&#xb5;" horiz-adv-x="688" 
d="M66 544h202v-738h-202v738zM268 256q0 -40 20 -63.5t54 -23.5q39 1 61 30t22 76h46q0 -90 -25.5 -153t-73 -97t-114.5 -34q-57 0 -100 26t-67.5 72.5t-24.5 109.5v345h202v-288zM425 544h202v-544h-202v544z" />
    <glyph glyph-name="paragraph" unicode="&#xb6;" horiz-adv-x="668" 
d="M226 307h-12.5h-11.5q-63 0 -104 21.5t-64 54t-32.5 69.5t-9.5 68q0 56 25 107t80.5 83t146.5 32h365v-848h-149v736h-85v-736h-149v413z" />
    <glyph glyph-name="periodcentered" unicode="&#xb7;" horiz-adv-x="239" 
d="M119 397q46 0 75 -29.5t29 -74.5q0 -46 -29 -75t-75 -29q-45 0 -74.5 29t-29.5 75q0 45 29.5 74.5t74.5 29.5z" />
    <glyph glyph-name="cedilla" unicode="&#xb8;" horiz-adv-x="332" 
d="M135 10l109 -10l-21 -57q45 -11 64 -33t19 -49q0 -36 -19 -58t-49.5 -32t-64.5 -10q-29 0 -59 5.5t-55 14.5l28 85q12 -5 24.5 -6.5t23.5 -1.5q18 0 29.5 5t11.5 15q0 12 -17 17.5t-39 5.5h-10h-10z" />
    <glyph glyph-name="uni00B9" unicode="&#xb9;" horiz-adv-x="270" 
d="M0 779h219v-419h-141v312h-78v107z" />
    <glyph glyph-name="ordmasculine" unicode="&#xba;" horiz-adv-x="416" 
d="M208 789q59 0 101.5 -20.5t67 -58.5t24.5 -89q0 -50 -24 -88t-67 -58.5t-102 -20.5q-88 0 -140 46t-52 121q0 51 23.5 89t67 58.5t101.5 20.5zM207 685q-23 0 -38 -18t-15 -47t15 -47t38 -18q25 0 40 18t15 47t-15 47t-40 18z" />
    <glyph glyph-name="guillemotright" unicode="&#xbb;" horiz-adv-x="528" 
d="M169 80h-162l106 189l-106 190h162l123 -190zM412 80h-163l107 189l-107 190h163l122 -190z" />
    <glyph glyph-name="onequarter" unicode="&#xbc;" horiz-adv-x="876" 
d="M0 700h219v-419h-141v312h-78v107zM584 701h136l-492 -701h-137zM612 419h135l-121 -240h64v81h131v-81h56v-97h-56v-82h-131v82h-208v89z" />
    <glyph glyph-name="onehalf" unicode="&#xbd;" horiz-adv-x="920" 
d="M0 700h219v-419h-141v312h-78v107zM584 701h136l-492 -701h-137zM707 237q13 14 23 29t10 26t-8 17t-24 6q-24 0 -55.5 -14.5t-62.5 -38.5l-53 97q47 31 95 48.5t99 17.5q67 0 112 -31t45 -82q0 -36 -24 -71.5t-61 -70.5l-69 -66h161v-104h-341v85z" />
    <glyph glyph-name="threequarters" unicode="&#xbe;" horiz-adv-x="952" 
d="M260 531q42 -9 69.5 -38.5t27.5 -77.5q0 -60 -47 -99.5t-128 -39.5q-49 0 -96.5 15.5t-78.5 40.5l56 103q25 -29 52 -43.5t56 -14.5q24 0 36 9.5t12 28.5t-12 28.5t-36 9.5h-78v71l85 78h-149v98h308v-76l-97 -88zM660 701h136l-492 -701h-137zM689 419h135l-121 -240h64
v81h131v-81h56v-97h-56v-82h-131v82h-208v89z" />
    <glyph glyph-name="questiondown" unicode="&#xbf;" horiz-adv-x="486" 
d="M465 79q0 -115 -63.5 -179t-175.5 -64q-69 0 -119 21t-77 61t-27 97q0 36 12 64.5t31.5 50t41.5 40.5t41.5 38t31.5 41t12 49h151q0 -37 -9.5 -65t-25 -48t-32 -36.5t-32 -31.5t-25 -31.5t-9.5 -38.5q0 -27 13.5 -39.5t40.5 -12.5q33 0 49 21t16 63h155zM252 363
q-42 0 -68 26t-26 68t26 68.5t68 26.5q41 0 67.5 -26.5t26.5 -68.5t-26.5 -68t-67.5 -26z" />
    <glyph glyph-name="Agrave" unicode="&#xc0;" horiz-adv-x="786" 
d="M291 701h214l289 -701h-222l-180 493l-186 -493h-214zM183 264h405v-152h-405v152zM378 928l109 -170l-133 -10l-135 122z" />
    <glyph glyph-name="Aacute" unicode="&#xc1;" horiz-adv-x="786" 
d="M291 701h214l289 -701h-222l-180 493l-186 -493h-214zM183 264h405v-152h-405v152zM420 928l158 -58l-153 -122l-132 10z" />
    <glyph glyph-name="Acircumflex" unicode="&#xc2;" horiz-adv-x="786" 
d="M291 701h214l289 -701h-222l-180 493l-186 -493h-214zM183 264h405v-152h-405v152zM307 912h173l110 -157h-134l-113 125h101l-113 -125h-134z" />
    <glyph glyph-name="Atilde" unicode="&#xc3;" horiz-adv-x="786" 
d="M291 701h214l289 -701h-222l-180 493l-186 -493h-214zM183 264h405v-152h-405v152zM587 919q0 -56 -11 -93t-33 -55.5t-59 -18.5q-23 0 -42.5 6.5t-36 15t-30 15t-24.5 6.5q-14 0 -20.5 -10.5t-7.5 -29.5h-109q0 55 10.5 92.5t33.5 56t59 18.5q23 0 42.5 -6t36.5 -15
t30 -15t23 -6q16 0 22.5 10t7.5 29h108z" />
    <glyph glyph-name="Adieresis" unicode="&#xc4;" horiz-adv-x="786" 
d="M291 701h214l289 -701h-222l-180 493l-186 -493h-214zM183 264h405v-152h-405v152zM295 919q37 0 60 -23.5t23 -59.5q0 -35 -23 -59t-60 -24q-36 0 -59 24t-23 59q0 36 23 59.5t59 23.5zM492 919q37 0 60 -23.5t23 -59.5q0 -35 -23 -59t-60 -24q-36 0 -59 24t-23 59
q0 36 23 59.5t59 23.5z" />
    <glyph glyph-name="Aring" unicode="&#xc5;" horiz-adv-x="786" 
d="M291 701h214l289 -701h-222l-180 493l-186 -493h-214zM183 264h405v-152h-405v152zM394 978q34 0 61.5 -16t43.5 -43.5t16 -61.5q0 -33 -16 -61t-43.5 -44t-61.5 -16q-33 0 -61 16t-44 44t-16 61q0 34 16 61.5t44 43.5t61 16zM394 898q-17 0 -29.5 -11.5t-12.5 -29.5
q0 -17 12.5 -29t29.5 -12q18 0 30 12t12 29q0 18 -12 29.5t-30 11.5z" />
    <glyph glyph-name="AE" unicode="&#xc6;" horiz-adv-x="1127" 
d="M503 701h573v-160h-365v-110h331v-160h-331v-111h375v-160h-583v701zM386 701h385l7 -159h-293l-277 -542h-216zM217 283h395l-5 -150h-394z" />
    <glyph glyph-name="Ccedilla" unicode="&#xc7;" horiz-adv-x="690" 
d="M566 446q-33 44 -78 69.5t-89 25.5q-35 0 -65.5 -14t-53.5 -39t-35.5 -59t-12.5 -74t12.5 -74.5t35.5 -59.5t53.5 -39t65.5 -14q41 0 86.5 22.5t80.5 59.5l120 -128q-38 -41 -87 -72t-103 -47.5t-107 -16.5q-81 0 -148 27.5t-117 76.5t-77.5 116.5t-27.5 146.5
q0 78 28 143.5t79.5 114.5t120 76t149.5 27q54 0 107 -15.5t100.5 -43.5t82.5 -66zM323 10l109 -10l-21 -57q45 -11 64 -33t19 -49q0 -36 -19 -58t-49.5 -32t-64.5 -10q-29 0 -59 5.5t-55 14.5l28 85q12 -5 24.5 -6.5t23.5 -1.5q18 0 29.5 5t11.5 15q0 12 -17 17.5t-39 5.5
h-10h-10z" />
    <glyph glyph-name="Egrave" unicode="&#xc8;" horiz-adv-x="683" 
d="M59 701h573v-160h-365v-110h331v-160h-331v-111h375v-160h-583v701zM333 928l109 -170l-133 -10l-135 122z" />
    <glyph glyph-name="Eacute" unicode="&#xc9;" horiz-adv-x="683" 
d="M59 701h573v-160h-365v-110h331v-160h-331v-111h375v-160h-583v701zM375 928l158 -58l-153 -122l-132 10z" />
    <glyph glyph-name="Ecircumflex" unicode="&#xca;" horiz-adv-x="683" 
d="M59 701h573v-160h-365v-110h331v-160h-331v-111h375v-160h-583v701zM262 912h173l110 -157h-134l-113 125h101l-113 -125h-134z" />
    <glyph glyph-name="Edieresis" unicode="&#xcb;" horiz-adv-x="683" 
d="M59 701h573v-160h-365v-110h331v-160h-331v-111h375v-160h-583v701zM250 919q37 0 60 -23.5t23 -59.5q0 -35 -23 -59t-60 -24q-36 0 -59 24t-23 59q0 36 23 59.5t59 23.5zM447 919q37 0 60 -23.5t23 -59.5q0 -35 -23 -59t-60 -24q-36 0 -59 24t-23 59q0 36 23 59.5
t59 23.5z" />
    <glyph glyph-name="Igrave" unicode="&#xcc;" horiz-adv-x="326" 
d="M59 701h208v-701h-208v701zM147 928l109 -170l-133 -10l-135 122z" />
    <glyph glyph-name="Iacute" unicode="&#xcd;" horiz-adv-x="326" 
d="M59 701h208v-701h-208v701zM189 928l158 -58l-153 -122l-132 10z" />
    <glyph glyph-name="Icircumflex" unicode="&#xce;" horiz-adv-x="326" 
d="M59 701h208v-701h-208v701zM76 912h173l110 -157h-134l-113 125h101l-113 -125h-134z" />
    <glyph glyph-name="Idieresis" unicode="&#xcf;" horiz-adv-x="326" 
d="M59 701h208v-701h-208v701zM64 919q37 0 60 -23.5t23 -59.5q0 -35 -23 -59t-60 -24q-36 0 -59 24t-23 59q0 36 23 59.5t59 23.5zM261 919q37 0 60 -23.5t23 -59.5q0 -35 -23 -59t-60 -24q-36 0 -59 24t-23 59q0 36 23 59.5t59 23.5z" />
    <glyph glyph-name="Eth" unicode="&#xd0;" horiz-adv-x="762" 
d="M-5 396h419v-91h-419v91zM366 701q86 0 155 -25t118.5 -71t76.5 -110.5t27 -143.5t-27 -143.5t-78 -111t-121.5 -71.5t-157.5 -25h-300v701h307zM372 163q36 0 64.5 13.5t50.5 38t33 58.5t11 76t-12 76.5t-34.5 60t-53.5 38.5t-69 13h-95v-374h105z" />
    <glyph glyph-name="Ntilde" unicode="&#xd1;" horiz-adv-x="783" 
d="M59 701h177l353 -464l-55 -19v483h190v-701h-177l-352 462l55 19v-481h-191v701zM587 919q0 -56 -11 -93t-33 -55.5t-59 -18.5q-23 0 -42.5 6.5t-36 15t-30 15t-24.5 6.5q-14 0 -20.5 -10.5t-7.5 -29.5h-109q0 55 10.5 92.5t33.5 56t59 18.5q23 0 42.5 -6t36.5 -15
t30 -15t23 -6q16 0 22.5 10t7.5 29h108z" />
    <glyph glyph-name="Ograve" unicode="&#xd2;" horiz-adv-x="802" 
d="M401 714q83 0 152.5 -27t121 -76t80 -115t28.5 -144t-28.5 -145.5t-80 -116.5t-121 -76.5t-152.5 -27.5t-152.5 27.5t-121 76.5t-80 116t-28.5 146t28.5 145t80 114.5t121 75.5t152.5 27zM404 541q-35 0 -66.5 -14t-55 -40t-37 -60.5t-13.5 -75.5t14 -76t37.5 -61
t54.5 -40.5t66 -14.5q34 0 64 14.5t53 40.5t36 61t13 76t-13 75.5t-36 60.5t-53 40t-64 14zM385 928l109 -170l-133 -10l-135 122z" />
    <glyph glyph-name="Oacute" unicode="&#xd3;" horiz-adv-x="802" 
d="M401 714q83 0 152.5 -27t121 -76t80 -115t28.5 -144t-28.5 -145.5t-80 -116.5t-121 -76.5t-152.5 -27.5t-152.5 27.5t-121 76.5t-80 116t-28.5 146t28.5 145t80 114.5t121 75.5t152.5 27zM404 541q-35 0 -66.5 -14t-55 -40t-37 -60.5t-13.5 -75.5t14 -76t37.5 -61
t54.5 -40.5t66 -14.5q34 0 64 14.5t53 40.5t36 61t13 76t-13 75.5t-36 60.5t-53 40t-64 14zM428 928l158 -58l-153 -122l-132 10z" />
    <glyph glyph-name="Ocircumflex" unicode="&#xd4;" horiz-adv-x="802" 
d="M401 714q83 0 152.5 -27t121 -76t80 -115t28.5 -144t-28.5 -145.5t-80 -116.5t-121 -76.5t-152.5 -27.5t-152.5 27.5t-121 76.5t-80 116t-28.5 146t28.5 145t80 114.5t121 75.5t152.5 27zM404 541q-35 0 -66.5 -14t-55 -40t-37 -60.5t-13.5 -75.5t14 -76t37.5 -61
t54.5 -40.5t66 -14.5q34 0 64 14.5t53 40.5t36 61t13 76t-13 75.5t-36 60.5t-53 40t-64 14zM315 912h173l110 -157h-134l-113 125h101l-113 -125h-134z" />
    <glyph glyph-name="Otilde" unicode="&#xd5;" horiz-adv-x="802" 
d="M401 714q83 0 152.5 -27t121 -76t80 -115t28.5 -144t-28.5 -145.5t-80 -116.5t-121 -76.5t-152.5 -27.5t-152.5 27.5t-121 76.5t-80 116t-28.5 146t28.5 145t80 114.5t121 75.5t152.5 27zM404 541q-35 0 -66.5 -14t-55 -40t-37 -60.5t-13.5 -75.5t14 -76t37.5 -61
t54.5 -40.5t66 -14.5q34 0 64 14.5t53 40.5t36 61t13 76t-13 75.5t-36 60.5t-53 40t-64 14zM594 919q0 -56 -11 -93t-33 -55.5t-59 -18.5q-23 0 -42.5 6.5t-36 15t-30 15t-24.5 6.5q-14 0 -20.5 -10.5t-7.5 -29.5h-109q0 55 10.5 92.5t33.5 56t59 18.5q23 0 42.5 -6
t36.5 -15t30 -15t23 -6q16 0 22.5 10t7.5 29h108z" />
    <glyph glyph-name="Odieresis" unicode="&#xd6;" horiz-adv-x="802" 
d="M401 714q83 0 152.5 -27t121 -76t80 -115t28.5 -144t-28.5 -145.5t-80 -116.5t-121 -76.5t-152.5 -27.5t-152.5 27.5t-121 76.5t-80 116t-28.5 146t28.5 145t80 114.5t121 75.5t152.5 27zM404 541q-35 0 -66.5 -14t-55 -40t-37 -60.5t-13.5 -75.5t14 -76t37.5 -61
t54.5 -40.5t66 -14.5q34 0 64 14.5t53 40.5t36 61t13 76t-13 75.5t-36 60.5t-53 40t-64 14zM302 919q37 0 60 -23.5t23 -59.5q0 -35 -23 -59t-60 -24q-36 0 -59 24t-23 59q0 36 23 59.5t59 23.5zM499 919q37 0 60 -23.5t23 -59.5q0 -35 -23 -59t-60 -24q-36 0 -59 24t-23 59
q0 36 23 59.5t59 23.5z" />
    <glyph glyph-name="multiply" unicode="&#xd7;" horiz-adv-x="515" 
d="M373 533l90 -90l-321 -320l-89 90zM142 533l321 -320l-90 -90l-320 320z" />
    <glyph glyph-name="Oslash" unicode="&#xd8;" horiz-adv-x="802" 
d="M584 755h121l-487 -810h-121zM401 704q83 0 152.5 -26.5t121 -74.5t80 -113t28.5 -142q0 -78 -28.5 -143.5t-80 -114t-121 -75.5t-152.5 -27t-152.5 27t-121 75.5t-80 114t-28.5 143.5q0 77 28.5 142.5t80 113t121 74t152.5 26.5zM404 530q-35 0 -66.5 -13.5t-55 -38.5
t-37 -58.5t-13.5 -72.5q0 -40 14 -73.5t37.5 -59t54.5 -39.5t66 -14q34 0 64 14t53 39.5t36 59t13 73.5q0 39 -13 72.5t-36 58.5t-53 38.5t-64 13.5z" />
    <glyph glyph-name="Ugrave" unicode="&#xd9;" horiz-adv-x="745" 
d="M256 290q0 -60 35 -95.5t84 -35.5q50 0 82 35.5t32 95.5v411h208v-411q0 -92 -39.5 -160.5t-112 -106t-170.5 -37.5q-99 0 -172.5 37.5t-114 106t-40.5 160.5v411h208v-411zM357 928l109 -170l-133 -10l-135 122z" />
    <glyph glyph-name="Uacute" unicode="&#xda;" horiz-adv-x="745" 
d="M256 290q0 -60 35 -95.5t84 -35.5q50 0 82 35.5t32 95.5v411h208v-411q0 -92 -39.5 -160.5t-112 -106t-170.5 -37.5q-99 0 -172.5 37.5t-114 106t-40.5 160.5v411h208v-411zM399 928l158 -58l-153 -122l-132 10z" />
    <glyph glyph-name="Ucircumflex" unicode="&#xdb;" horiz-adv-x="745" 
d="M256 290q0 -60 35 -95.5t84 -35.5q50 0 82 35.5t32 95.5v411h208v-411q0 -92 -39.5 -160.5t-112 -106t-170.5 -37.5q-99 0 -172.5 37.5t-114 106t-40.5 160.5v411h208v-411zM286 912h173l110 -157h-134l-113 125h101l-113 -125h-134z" />
    <glyph glyph-name="Udieresis" unicode="&#xdc;" horiz-adv-x="745" 
d="M256 290q0 -60 35 -95.5t84 -35.5q50 0 82 35.5t32 95.5v411h208v-411q0 -92 -39.5 -160.5t-112 -106t-170.5 -37.5q-99 0 -172.5 37.5t-114 106t-40.5 160.5v411h208v-411zM274 919q37 0 60 -23.5t23 -59.5q0 -35 -23 -59t-60 -24q-36 0 -59 24t-23 59q0 36 23 59.5
t59 23.5zM471 919q37 0 60 -23.5t23 -59.5q0 -35 -23 -59t-60 -24q-36 0 -59 24t-23 59q0 36 23 59.5t59 23.5z" />
    <glyph glyph-name="Yacute" unicode="&#xdd;" horiz-adv-x="702" 
d="M-8 701h208l153 -286l149 286h208l-345 -654h-26zM249 312h208v-312h-208v312zM378 928l158 -58l-153 -122l-132 10z" />
    <glyph glyph-name="Thorn" unicode="&#xde;" horiz-adv-x="694" 
d="M377 612q91 0 157.5 -30t102.5 -84.5t36 -130.5q0 -80 -36 -138.5t-102.5 -90t-157.5 -31.5h-121v158h112q43 0 67 25.5t24 70.5q0 43 -24 67.5t-67 24.5h-112l-29 159h150zM59 701h208v-701h-208v701z" />
    <glyph glyph-name="germandbls" unicode="&#xdf;" horiz-adv-x="667" 
d="M48 494q0 78 34 136t96.5 89.5t148.5 31.5q82 0 143 -25t94.5 -70.5t33.5 -107.5q0 -48 -24 -93t-62 -71q58 -18 93.5 -63t35.5 -105q0 -65 -35.5 -113.5t-99 -75.5t-150.5 -27h-48v142h31q53 0 79.5 19.5t26.5 57.5t-28 56t-84 18h-21v142q46 0 68 21t22 62
q0 42 -18 62.5t-55 20.5q-26 0 -43.5 -10.5t-26.5 -31t-9 -50.5v-509h-202v494z" />
    <glyph glyph-name="agrave" unicode="&#xe0;" horiz-adv-x="607" 
d="M271 228q-30 0 -45.5 -12.5t-15.5 -38.5q0 -25 16 -39.5t45 -14.5q21 0 39 7t32 19.5t21 29.5l25 -72q-20 -55 -67 -85.5t-117 -30.5q-58 0 -99 21.5t-63 60t-22 89.5q0 79 54 121.5t156 43.5h151v-99h-110zM363 329q0 34 -24 53t-70 19q-33 0 -76 -10t-88 -29l-50 134
q45 18 89 31t87.5 19t85.5 6q115 0 179.5 -52t64.5 -147v-353h-198v329zM288 775l109 -170l-133 -10l-135 122z" />
    <glyph glyph-name="aacute" unicode="&#xe1;" horiz-adv-x="607" 
d="M271 228q-30 0 -45.5 -12.5t-15.5 -38.5q0 -25 16 -39.5t45 -14.5q21 0 39 7t32 19.5t21 29.5l25 -72q-20 -55 -67 -85.5t-117 -30.5q-58 0 -99 21.5t-63 60t-22 89.5q0 79 54 121.5t156 43.5h151v-99h-110zM363 329q0 34 -24 53t-70 19q-33 0 -76 -10t-88 -29l-50 134
q45 18 89 31t87.5 19t85.5 6q115 0 179.5 -52t64.5 -147v-353h-198v329zM331 775l158 -58l-153 -122l-132 10z" />
    <glyph glyph-name="acircumflex" unicode="&#xe2;" horiz-adv-x="607" 
d="M271 228q-30 0 -45.5 -12.5t-15.5 -38.5q0 -25 16 -39.5t45 -14.5q21 0 39 7t32 19.5t21 29.5l25 -72q-20 -55 -67 -85.5t-117 -30.5q-58 0 -99 21.5t-63 60t-22 89.5q0 79 54 121.5t156 43.5h151v-99h-110zM363 329q0 34 -24 53t-70 19q-33 0 -76 -10t-88 -29l-50 134
q45 18 89 31t87.5 19t85.5 6q115 0 179.5 -52t64.5 -147v-353h-198v329zM218 766h173l110 -157h-134l-113 125h101l-113 -125h-134z" />
    <glyph glyph-name="atilde" unicode="&#xe3;" horiz-adv-x="607" 
d="M271 228q-30 0 -45.5 -12.5t-15.5 -38.5q0 -25 16 -39.5t45 -14.5q21 0 39 7t32 19.5t21 29.5l25 -72q-20 -55 -67 -85.5t-117 -30.5q-58 0 -99 21.5t-63 60t-22 89.5q0 79 54 121.5t156 43.5h151v-99h-110zM363 329q0 34 -24 53t-70 19q-33 0 -76 -10t-88 -29l-50 134
q45 18 89 31t87.5 19t85.5 6q115 0 179.5 -52t64.5 -147v-353h-198v329zM497 763q0 -56 -11 -93t-33 -55.5t-59 -18.5q-23 0 -42.5 6.5t-36 15t-30 15t-24.5 6.5q-14 0 -20.5 -10.5t-7.5 -29.5h-109q0 55 10.5 92.5t33.5 56t59 18.5q23 0 42.5 -6t36.5 -15t30 -15t23 -6
q16 0 22.5 10t7.5 29h108z" />
    <glyph glyph-name="adieresis" unicode="&#xe4;" horiz-adv-x="607" 
d="M271 228q-30 0 -45.5 -12.5t-15.5 -38.5q0 -25 16 -39.5t45 -14.5q21 0 39 7t32 19.5t21 29.5l25 -72q-20 -55 -67 -85.5t-117 -30.5q-58 0 -99 21.5t-63 60t-22 89.5q0 79 54 121.5t156 43.5h151v-99h-110zM363 329q0 34 -24 53t-70 19q-33 0 -76 -10t-88 -29l-50 134
q45 18 89 31t87.5 19t85.5 6q115 0 179.5 -52t64.5 -147v-353h-198v329zM206 774q36 0 59 -23.5t23 -59.5t-23 -59.5t-59 -23.5t-59 24t-23 59q0 36 23 59.5t59 23.5zM403 774q36 0 59 -23.5t23 -59.5t-23 -59.5t-59 -23.5t-59 24t-23 59q0 36 23 59.5t59 23.5z" />
    <glyph glyph-name="aring" unicode="&#xe5;" horiz-adv-x="607" 
d="M271 228q-30 0 -45.5 -12.5t-15.5 -38.5q0 -25 16 -39.5t45 -14.5q21 0 39 7t32 19.5t21 29.5l25 -72q-20 -55 -67 -85.5t-117 -30.5q-58 0 -99 21.5t-63 60t-22 89.5q0 79 54 121.5t156 43.5h151v-99h-110zM363 329q0 34 -24 53t-70 19q-33 0 -76 -10t-88 -29l-50 134
q45 18 89 31t87.5 19t85.5 6q115 0 179.5 -52t64.5 -147v-353h-198v329zM304 821q34 0 61.5 -16t43.5 -43.5t16 -61.5q0 -33 -16 -61t-43.5 -44t-61.5 -16q-33 0 -61 16t-44 44t-16 61q0 34 16 61.5t44 43.5t61 16zM304 741q-17 0 -29.5 -11.5t-12.5 -29.5q0 -17 12.5 -29
t29.5 -12q18 0 30 12t12 29q0 18 -12 29.5t-30 11.5z" />
    <glyph glyph-name="ae" unicode="&#xe6;" horiz-adv-x="962" 
d="M573 219q4 -18 13.5 -32t23.5 -24t31.5 -15.5t37.5 -5.5q66 0 120 52l105 -103q-42 -47 -104 -72.5t-139 -25.5q-51 0 -93 12.5t-74 36.5t-54 57q-31 -52 -86 -80.5t-133 -28.5q-62 0 -107 21.5t-69.5 59.5t-24.5 90q0 78 54.5 120t156.5 43h134v14q-3 30 -27 46.5
t-67 16.5q-33 0 -78 -10t-92 -29l-46 135q69 27 136 41t127 14q57 0 101.5 -13t75.5 -39q32 25 72 38t89 13q93 0 159 -40t99 -113t28 -171h-370zM273 229q-30 0 -46.5 -13t-16.5 -39t16.5 -41.5t45.5 -15.5q28 0 53 14t41 40l-1 55h-92zM740 322q1 27 -9.5 48t-29.5 33
t-44 12q-23 0 -41.5 -11.5t-30.5 -32.5t-17 -49h172z" />
    <glyph glyph-name="ccedilla" unicode="&#xe7;" horiz-adv-x="562" 
d="M400 333q-14 26 -36 40t-51 14q-27 0 -47.5 -14.5t-31.5 -40.5t-11 -61q0 -36 11 -62.5t31.5 -41t47.5 -14.5q29 0 51 14.5t35 45.5l157 -79q-31 -67 -97.5 -104t-156.5 -37q-85 0 -148.5 34.5t-99 97t-35.5 145.5q0 84 35.5 147.5t99.5 98.5t150 35q85 0 150.5 -37.5
t100.5 -104.5zM242 10l109 -10l-21 -57q45 -11 64 -33t19 -49q0 -36 -19 -58t-49.5 -32t-64.5 -10q-29 0 -59 5.5t-55 14.5l28 85q12 -5 24.5 -6.5t23.5 -1.5q18 0 29.5 5t11.5 15q0 12 -17 17.5t-39 5.5h-10h-10z" />
    <glyph glyph-name="egrave" unicode="&#xe8;" horiz-adv-x="609" 
d="M390 322q1 28 -9 48.5t-29 32t-44 11.5q-30 0 -50.5 -17.5t-31.5 -47.5t-11 -68q0 -44 14.5 -75t40 -47.5t59.5 -16.5q66 0 120 52l105 -103q-42 -47 -103.5 -72.5t-138.5 -25.5q-91 0 -156.5 34.5t-101 97t-35.5 145.5q0 85 36 148t100.5 98t150.5 35q96 0 161 -40.5
t96.5 -114t25.5 -173.5h-401v99h202zM286 775l109 -170l-133 -10l-135 122z" />
    <glyph glyph-name="eacute" unicode="&#xe9;" horiz-adv-x="609" 
d="M390 322q1 28 -9 48.5t-29 32t-44 11.5q-30 0 -50.5 -17.5t-31.5 -47.5t-11 -68q0 -44 14.5 -75t40 -47.5t59.5 -16.5q66 0 120 52l105 -103q-42 -47 -103.5 -72.5t-138.5 -25.5q-91 0 -156.5 34.5t-101 97t-35.5 145.5q0 85 36 148t100.5 98t150.5 35q96 0 161 -40.5
t96.5 -114t25.5 -173.5h-401v99h202zM329 775l158 -58l-153 -122l-132 10z" />
    <glyph glyph-name="ecircumflex" unicode="&#xea;" horiz-adv-x="609" 
d="M390 322q1 28 -9 48.5t-29 32t-44 11.5q-30 0 -50.5 -17.5t-31.5 -47.5t-11 -68q0 -44 14.5 -75t40 -47.5t59.5 -16.5q66 0 120 52l105 -103q-42 -47 -103.5 -72.5t-138.5 -25.5q-91 0 -156.5 34.5t-101 97t-35.5 145.5q0 85 36 148t100.5 98t150.5 35q96 0 161 -40.5
t96.5 -114t25.5 -173.5h-401v99h202zM216 766h173l110 -157h-134l-113 125h101l-113 -125h-134z" />
    <glyph glyph-name="edieresis" unicode="&#xeb;" horiz-adv-x="609" 
d="M390 322q1 28 -9 48.5t-29 32t-44 11.5q-30 0 -50.5 -17.5t-31.5 -47.5t-11 -68q0 -44 14.5 -75t40 -47.5t59.5 -16.5q66 0 120 52l105 -103q-42 -47 -103.5 -72.5t-138.5 -25.5q-91 0 -156.5 34.5t-101 97t-35.5 145.5q0 85 36 148t100.5 98t150.5 35q96 0 161 -40.5
t96.5 -114t25.5 -173.5h-401v99h202zM204 774q36 0 59 -23.5t23 -59.5t-23 -59.5t-59 -23.5t-59 24t-23 59q0 36 23 59.5t59 23.5zM401 774q36 0 59 -23.5t23 -59.5t-23 -59.5t-59 -23.5t-59 24t-23 59q0 36 23 59.5t59 23.5z" />
    <glyph glyph-name="igrave" unicode="&#xec;" horiz-adv-x="324" 
d="M61 544h202v-544h-202v544zM147 775l109 -170l-133 -10l-135 122z" />
    <glyph glyph-name="iacute" unicode="&#xed;" horiz-adv-x="324" 
d="M61 544h202v-544h-202v544zM189 775l158 -58l-153 -122l-132 10z" />
    <glyph glyph-name="icircumflex" unicode="&#xee;" horiz-adv-x="324" 
d="M61 544h202v-544h-202v544zM76 766h173l110 -157h-134l-113 125h101l-113 -125h-134z" />
    <glyph glyph-name="idieresis" unicode="&#xef;" horiz-adv-x="324" 
d="M61 544h202v-544h-202v544zM66 774q37 0 59.5 -23.5t22.5 -59.5t-22.5 -59.5t-59.5 -23.5q-36 0 -59 23.5t-23 58.5q0 37 23 60.5t59 23.5zM259 774q36 0 59 -23.5t23 -59.5t-23 -59.5t-59 -23.5t-59 23.5t-23 58.5q0 37 23 60.5t59 23.5z" />
    <glyph glyph-name="eth" unicode="&#xf0;" horiz-adv-x="611" 
d="M227 751q111 -40 193 -110t127 -159t45 -188q0 -92 -38 -160.5t-107 -106t-163 -37.5q-81 0 -142 29.5t-94 82.5t-33 124q0 68 28 117t79 76.5t120 27.5q45 0 86.5 -13t65.5 -36q-3 55 -44.5 105t-108.5 93t-149 74zM291 313q-39 0 -61 -21t-22 -56q0 -36 22.5 -57.5
t60.5 -21.5q39 0 62 21t23 57t-23 57t-62 21zM82 549l430 197l35 -74l-430 -195z" />
    <glyph glyph-name="ntilde" unicode="&#xf1;" horiz-adv-x="678" 
d="M430 287q0 41 -21.5 64.5t-56.5 23.5q-41 -1 -65 -30t-24 -76h-46q0 89 26.5 153t75.5 97t117 33q58 0 102.5 -25t69 -72t24.5 -110v-345h-202v287zM61 544h202v-544h-202v544zM550 763q0 -56 -11 -93t-33 -55.5t-59 -18.5q-23 0 -42.5 6.5t-36 15t-30 15t-24.5 6.5
q-14 0 -20.5 -10.5t-7.5 -29.5h-109q0 55 10.5 92.5t33.5 56t59 18.5q23 0 42.5 -6t36.5 -15t30 -15t23 -6q16 0 22.5 10t7.5 29h108z" />
    <glyph glyph-name="ograve" unicode="&#xf2;" horiz-adv-x="643" 
d="M322 551q91 0 159 -34.5t105.5 -97t37.5 -147.5q0 -84 -37.5 -147t-105.5 -97.5t-159 -34.5q-92 0 -160 34.5t-105.5 97.5t-37.5 147q0 85 37.5 147.5t105.5 97t160 34.5zM322 391q-30 0 -52.5 -15t-34.5 -42.5t-12 -63.5q0 -37 12 -64t34.5 -42t52.5 -15t52 15t34 42
t12 64q0 36 -12 63.5t-34 42.5t-52 15zM306 775l109 -170l-133 -10l-135 122z" />
    <glyph glyph-name="oacute" unicode="&#xf3;" horiz-adv-x="643" 
d="M322 551q91 0 159 -34.5t105.5 -97t37.5 -147.5q0 -84 -37.5 -147t-105.5 -97.5t-159 -34.5q-92 0 -160 34.5t-105.5 97.5t-37.5 147q0 85 37.5 147.5t105.5 97t160 34.5zM322 391q-30 0 -52.5 -15t-34.5 -42.5t-12 -63.5q0 -37 12 -64t34.5 -42t52.5 -15t52 15t34 42
t12 64q0 36 -12 63.5t-34 42.5t-52 15zM348 775l158 -58l-153 -122l-132 10z" />
    <glyph glyph-name="ocircumflex" unicode="&#xf4;" horiz-adv-x="643" 
d="M322 551q91 0 159 -34.5t105.5 -97t37.5 -147.5q0 -84 -37.5 -147t-105.5 -97.5t-159 -34.5q-92 0 -160 34.5t-105.5 97.5t-37.5 147q0 85 37.5 147.5t105.5 97t160 34.5zM322 391q-30 0 -52.5 -15t-34.5 -42.5t-12 -63.5q0 -37 12 -64t34.5 -42t52.5 -15t52 15t34 42
t12 64q0 36 -12 63.5t-34 42.5t-52 15zM235 766h173l110 -157h-134l-113 125h101l-113 -125h-134z" />
    <glyph glyph-name="otilde" unicode="&#xf5;" horiz-adv-x="643" 
d="M322 551q91 0 159 -34.5t105.5 -97t37.5 -147.5q0 -84 -37.5 -147t-105.5 -97.5t-159 -34.5q-92 0 -160 34.5t-105.5 97.5t-37.5 147q0 85 37.5 147.5t105.5 97t160 34.5zM322 391q-30 0 -52.5 -15t-34.5 -42.5t-12 -63.5q0 -37 12 -64t34.5 -42t52.5 -15t52 15t34 42
t12 64q0 36 -12 63.5t-34 42.5t-52 15zM515 763q0 -56 -11 -93t-33 -55.5t-59 -18.5q-23 0 -42.5 6.5t-36 15t-30 15t-24.5 6.5q-14 0 -20.5 -10.5t-7.5 -29.5h-109q0 55 10.5 92.5t33.5 56t59 18.5q23 0 42.5 -6t36.5 -15t30 -15t23 -6q16 0 22.5 10t7.5 29h108z" />
    <glyph glyph-name="odieresis" unicode="&#xf6;" horiz-adv-x="643" 
d="M322 551q91 0 159 -34.5t105.5 -97t37.5 -147.5q0 -84 -37.5 -147t-105.5 -97.5t-159 -34.5q-92 0 -160 34.5t-105.5 97.5t-37.5 147q0 85 37.5 147.5t105.5 97t160 34.5zM322 391q-30 0 -52.5 -15t-34.5 -42.5t-12 -63.5q0 -37 12 -64t34.5 -42t52.5 -15t52 15t34 42
t12 64q0 36 -12 63.5t-34 42.5t-52 15zM223 774q36 0 59 -23.5t23 -59.5t-23 -59.5t-59 -23.5t-59 24t-23 59q0 36 23 59.5t59 23.5zM420 774q36 0 59 -23.5t23 -59.5t-23 -59.5t-59 -23.5t-59 24t-23 59q0 36 23 59.5t59 23.5z" />
    <glyph glyph-name="divide" unicode="&#xf7;" horiz-adv-x="515" 
d="M31 391h453v-126h-453v126zM258 592q37 0 60.5 -23.5t23.5 -61.5q0 -37 -23.5 -61t-60.5 -24t-61 24t-24 61q0 38 24 61.5t61 23.5zM258 233q37 0 60.5 -23.5t23.5 -61.5q0 -37 -23.5 -61t-60.5 -24t-61 24t-24 61q0 38 24 61.5t61 23.5z" />
    <glyph glyph-name="oslash" unicode="&#xf8;" horiz-adv-x="643" 
d="M322 551q91 0 159 -34.5t105.5 -97t37.5 -147.5q0 -84 -37.5 -147t-105.5 -97.5t-159 -34.5q-92 0 -160 34.5t-105.5 97.5t-37.5 147q0 85 37.5 147.5t105.5 97t160 34.5zM322 407q-34 0 -59 -17t-39 -48t-14 -72q0 -42 14 -73t39 -48t59 -17t59 17t39 48t14 73
q0 41 -14 72t-39 48t-59 17zM521 627h87l-481 -710h-87z" />
    <glyph glyph-name="ugrave" unicode="&#xf9;" horiz-adv-x="668" 
d="M248 256q0 -40 20 -63.5t53 -23.5q39 1 61.5 30t22.5 76h46q0 -90 -26 -153t-73.5 -97t-113.5 -34q-57 0 -100.5 26t-67.5 72.5t-24 109.5v345h202v-288zM405 544h202v-544h-202v544zM318 775l109 -170l-133 -10l-135 122z" />
    <glyph glyph-name="uacute" unicode="&#xfa;" horiz-adv-x="668" 
d="M248 256q0 -40 20 -63.5t53 -23.5q39 1 61.5 30t22.5 76h46q0 -90 -26 -153t-73.5 -97t-113.5 -34q-57 0 -100.5 26t-67.5 72.5t-24 109.5v345h202v-288zM405 544h202v-544h-202v544zM361 775l158 -58l-153 -122l-132 10z" />
    <glyph glyph-name="ucircumflex" unicode="&#xfb;" horiz-adv-x="668" 
d="M248 256q0 -40 20 -63.5t53 -23.5q39 1 61.5 30t22.5 76h46q0 -90 -26 -153t-73.5 -97t-113.5 -34q-57 0 -100.5 26t-67.5 72.5t-24 109.5v345h202v-288zM405 544h202v-544h-202v544zM248 766h173l110 -157h-134l-113 125h101l-113 -125h-134z" />
    <glyph glyph-name="udieresis" unicode="&#xfc;" horiz-adv-x="668" 
d="M248 256q0 -40 20 -63.5t53 -23.5q39 1 61.5 30t22.5 76h46q0 -90 -26 -153t-73.5 -97t-113.5 -34q-57 0 -100.5 26t-67.5 72.5t-24 109.5v345h202v-288zM405 544h202v-544h-202v544zM236 774q36 0 59 -23.5t23 -59.5t-23 -59.5t-59 -23.5t-59 24t-23 59q0 36 23 59.5
t59 23.5zM433 774q36 0 59 -23.5t23 -59.5t-23 -59.5t-59 -23.5t-59 24t-23 59q0 36 23 59.5t59 23.5z" />
    <glyph glyph-name="yacute" unicode="&#xfd;" horiz-adv-x="605" 
d="M385 -46q-32 -80 -88 -118.5t-138 -38.5q-50 0 -92.5 14.5t-82.5 45.5l84 135q36 -31 73 -31q21 0 35.5 8.5t23.5 26.5l10 19l-225 529h207l119 -333l101 333h201zM329 775l158 -58l-153 -122l-132 10z" />
    <glyph glyph-name="thorn" unicode="&#xfe;" horiz-adv-x="688" 
d="M268 481q27 34 65 52t84 18q76 0 132.5 -35t88 -98.5t31.5 -148.5q0 -83 -30.5 -145t-86 -96.5t-130.5 -34.5q-48 0 -87 18t-67 53v-258h-202v936h202v-261zM366 395q-29 0 -51 -15t-34.5 -42.5t-12.5 -63.5t12.5 -63.5t34.5 -42.5t51 -15q30 0 52.5 15t34.5 42.5
t12 63.5t-12 63.5t-34.5 42.5t-52.5 15z" />
    <glyph glyph-name="ydieresis" unicode="&#xff;" horiz-adv-x="605" 
d="M385 -46q-32 -80 -88 -118.5t-138 -38.5q-50 0 -92.5 14.5t-82.5 45.5l84 135q36 -31 73 -31q21 0 35.5 8.5t23.5 26.5l10 19l-225 529h207l119 -333l101 333h201zM204 774q36 0 59 -23.5t23 -59.5t-23 -59.5t-59 -23.5t-59 24t-23 59q0 36 23 59.5t59 23.5zM401 774
q36 0 59 -23.5t23 -59.5t-23 -59.5t-59 -23.5t-59 24t-23 59q0 36 23 59.5t59 23.5z" />
    <glyph glyph-name="Amacron" unicode="&#x100;" horiz-adv-x="786" 
d="M291 701h214l289 -701h-222l-180 493l-186 -493h-214zM183 264h405v-152h-405v152zM211 871h365v-115h-365v115z" />
    <glyph glyph-name="amacron" unicode="&#x101;" horiz-adv-x="607" 
d="M271 228q-30 0 -45.5 -12.5t-15.5 -38.5q0 -25 16 -39.5t45 -14.5q21 0 39 7t32 19.5t21 29.5l25 -72q-20 -55 -67 -85.5t-117 -30.5q-58 0 -99 21.5t-63 60t-22 89.5q0 79 54 121.5t156 43.5h151v-99h-110zM363 329q0 34 -24 53t-70 19q-33 0 -76 -10t-88 -29l-50 134
q45 18 89 31t87.5 19t85.5 6q115 0 179.5 -52t64.5 -147v-353h-198v329zM147 752h315v-115h-315v115z" />
    <glyph glyph-name="Abreve" unicode="&#x102;" horiz-adv-x="786" 
d="M291 701h214l289 -701h-222l-180 493l-186 -493h-214zM183 264h405v-152h-405v152zM341 921q2 -24 16.5 -39t35.5 -15t35.5 15t16.5 39h123q-4 -76 -51.5 -121.5t-123.5 -45.5t-123.5 45.5t-51.5 121.5h123z" />
    <glyph glyph-name="abreve" unicode="&#x103;" horiz-adv-x="607" 
d="M271 228q-30 0 -45.5 -12.5t-15.5 -38.5q0 -25 16 -39.5t45 -14.5q21 0 39 7t32 19.5t21 29.5l25 -72q-20 -55 -67 -85.5t-117 -30.5q-58 0 -99 21.5t-63 60t-22 89.5q0 79 54 121.5t156 43.5h151v-99h-110zM363 329q0 34 -24 53t-70 19q-33 0 -76 -10t-88 -29l-50 134
q45 18 89 31t87.5 19t85.5 6q115 0 179.5 -52t64.5 -147v-353h-198v329zM252 765q2 -24 16.5 -39t35.5 -15t35.5 15t16.5 39h123q-4 -76 -51.5 -121.5t-123.5 -45.5t-123.5 45.5t-51.5 121.5h123z" />
    <glyph glyph-name="Aogonek" unicode="&#x104;" horiz-adv-x="786" 
d="M291 701h214l289 -701h-222l-180 493l-186 -493h-214zM183 264h405v-152h-405v152zM617 42l112 -42q-32 -23 -52.5 -46t-20.5 -48q0 -13 5.5 -19.5t16.5 -6.5q5 0 12 2t14 6l30 -103q-22 -10 -48.5 -16.5t-53.5 -6.5q-57 0 -85.5 32t-28.5 79q0 43 24.5 86t74.5 83z" />
    <glyph glyph-name="aogonek" unicode="&#x105;" horiz-adv-x="607" 
d="M271 228q-30 0 -45.5 -12.5t-15.5 -38.5q0 -25 16 -39.5t45 -14.5q21 0 39 7t32 19.5t21 29.5l25 -72q-20 -55 -67 -85.5t-117 -30.5q-58 0 -99 21.5t-63 60t-22 89.5q0 79 54 121.5t156 43.5h151v-99h-110zM363 329q0 34 -24 53t-70 19q-33 0 -76 -10t-88 -29l-50 134
q45 18 89 31t87.5 19t85.5 6q115 0 179.5 -52t64.5 -147v-353h-198v329zM404 42l112 -42q-32 -23 -52.5 -46t-20.5 -48q0 -13 5.5 -19.5t16.5 -6.5q5 0 12 2t14 6l30 -103q-22 -10 -48.5 -16.5t-53.5 -6.5q-57 0 -85.5 32t-28.5 79q0 43 24.5 86t74.5 83z" />
    <glyph glyph-name="Cacute" unicode="&#x106;" horiz-adv-x="690" 
d="M566 446q-33 44 -78 69.5t-89 25.5q-35 0 -65.5 -14t-53.5 -39t-35.5 -59t-12.5 -74t12.5 -74.5t35.5 -59.5t53.5 -39t65.5 -14q41 0 86.5 22.5t80.5 59.5l120 -128q-38 -41 -87 -72t-103 -47.5t-107 -16.5q-81 0 -148 27.5t-117 76.5t-77.5 116.5t-27.5 146.5
q0 78 28 143.5t79.5 114.5t120 76t149.5 27q54 0 107 -15.5t100.5 -43.5t82.5 -66zM426 928l158 -58l-153 -122l-132 10z" />
    <glyph glyph-name="cacute" unicode="&#x107;" horiz-adv-x="562" 
d="M400 333q-14 26 -36 40t-51 14q-27 0 -47.5 -14.5t-31.5 -40.5t-11 -61q0 -36 11 -62.5t31.5 -41t47.5 -14.5q29 0 51 14.5t35 45.5l157 -79q-31 -67 -97.5 -104t-156.5 -37q-85 0 -148.5 34.5t-99 97t-35.5 145.5q0 84 35.5 147.5t99.5 98.5t150 35q85 0 150.5 -37.5
t100.5 -104.5zM326 775l158 -58l-153 -122l-132 10z" />
    <glyph glyph-name="Ccircumflex" unicode="&#x108;" horiz-adv-x="690" 
d="M566 446q-33 44 -78 69.5t-89 25.5q-35 0 -65.5 -14t-53.5 -39t-35.5 -59t-12.5 -74t12.5 -74.5t35.5 -59.5t53.5 -39t65.5 -14q41 0 86.5 22.5t80.5 59.5l120 -128q-38 -41 -87 -72t-103 -47.5t-107 -16.5q-81 0 -148 27.5t-117 76.5t-77.5 116.5t-27.5 146.5
q0 78 28 143.5t79.5 114.5t120 76t149.5 27q54 0 107 -15.5t100.5 -43.5t82.5 -66zM313 912h173l110 -157h-134l-113 125h101l-113 -125h-134z" />
    <glyph glyph-name="ccircumflex" unicode="&#x109;" horiz-adv-x="562" 
d="M400 333q-14 26 -36 40t-51 14q-27 0 -47.5 -14.5t-31.5 -40.5t-11 -61q0 -36 11 -62.5t31.5 -41t47.5 -14.5q29 0 51 14.5t35 45.5l157 -79q-31 -67 -97.5 -104t-156.5 -37q-85 0 -148.5 34.5t-99 97t-35.5 145.5q0 84 35.5 147.5t99.5 98.5t150 35q85 0 150.5 -37.5
t100.5 -104.5zM213 766h173l110 -157h-134l-113 125h101l-113 -125h-134z" />
    <glyph glyph-name="Cdotaccent" unicode="&#x10a;" horiz-adv-x="690" 
d="M566 446q-33 44 -78 69.5t-89 25.5q-35 0 -65.5 -14t-53.5 -39t-35.5 -59t-12.5 -74t12.5 -74.5t35.5 -59.5t53.5 -39t65.5 -14q41 0 86.5 22.5t80.5 59.5l120 -128q-38 -41 -87 -72t-103 -47.5t-107 -16.5q-81 0 -148 27.5t-117 76.5t-77.5 116.5t-27.5 146.5
q0 78 28 143.5t79.5 114.5t120 76t149.5 27q54 0 107 -15.5t100.5 -43.5t82.5 -66zM400 962q45 0 74.5 -29.5t29.5 -74.5q0 -46 -29.5 -75.5t-74.5 -29.5q-46 0 -75 29.5t-29 75.5q0 45 29 74.5t75 29.5z" />
    <glyph glyph-name="cdotaccent" unicode="&#x10b;" horiz-adv-x="562" 
d="M400 333q-14 26 -36 40t-51 14q-27 0 -47.5 -14.5t-31.5 -40.5t-11 -61q0 -36 11 -62.5t31.5 -41t47.5 -14.5q29 0 51 14.5t35 45.5l157 -79q-31 -67 -97.5 -104t-156.5 -37q-85 0 -148.5 34.5t-99 97t-35.5 145.5q0 84 35.5 147.5t99.5 98.5t150 35q85 0 150.5 -37.5
t100.5 -104.5zM299 803q46 0 75 -29.5t29 -74.5q0 -46 -29 -75t-75 -29q-45 0 -74.5 29t-29.5 75q0 45 29.5 74.5t74.5 29.5z" />
    <glyph glyph-name="Ccaron" unicode="&#x10c;" horiz-adv-x="690" 
d="M566 446q-33 44 -78 69.5t-89 25.5q-35 0 -65.5 -14t-53.5 -39t-35.5 -59t-12.5 -74t12.5 -74.5t35.5 -59.5t53.5 -39t65.5 -14q41 0 86.5 22.5t80.5 59.5l120 -128q-38 -41 -87 -72t-103 -47.5t-107 -16.5q-81 0 -148 27.5t-117 76.5t-77.5 116.5t-27.5 146.5
q0 78 28 143.5t79.5 114.5t120 76t149.5 27q54 0 107 -15.5t100.5 -43.5t82.5 -66zM480 755h-173l-110 156h134l113 -124h-101l113 124h134z" />
    <glyph glyph-name="ccaron" unicode="&#x10d;" horiz-adv-x="562" 
d="M400 333q-14 26 -36 40t-51 14q-27 0 -47.5 -14.5t-31.5 -40.5t-11 -61q0 -36 11 -62.5t31.5 -41t47.5 -14.5q29 0 51 14.5t35 45.5l157 -79q-31 -67 -97.5 -104t-156.5 -37q-85 0 -148.5 34.5t-99 97t-35.5 145.5q0 84 35.5 147.5t99.5 98.5t150 35q85 0 150.5 -37.5
t100.5 -104.5zM386 609h-173l-110 157h134l113 -125h-101l113 125h134z" />
    <glyph glyph-name="Dcaron" unicode="&#x10e;" horiz-adv-x="762" 
d="M366 701q86 0 155 -25t118.5 -71t76.5 -110.5t27 -143.5t-27 -143.5t-78 -111t-121.5 -71.5t-157.5 -25h-300v701h307zM372 163q36 0 64.5 13.5t50 38t33 58.5t11.5 76t-12 76.5t-34.5 60t-53.5 38.5t-69 13h-95v-374h105zM435 755h-173l-110 156h134l113 -124h-101
l113 124h134z" />
    <glyph glyph-name="dcaron" unicode="&#x10f;" horiz-adv-x="815" 
d="M266 551q67 0 115 -34t75 -96t27 -147q0 -86 -26 -149t-73.5 -97.5t-112.5 -34.5q-76 0 -132.5 34.5t-88 98.5t-31.5 149q0 84 30.5 145.5t86.5 96t130 34.5zM322 391q-30 0 -52.5 -15t-34.5 -42.5t-12 -63.5q0 -37 12 -64t34.5 -42.5t52.5 -15.5t52 15.5t34 42.5t12 64
q0 36 -12 63.5t-34 42.5t-52 15zM420 742h202v-742h-202v742zM696 742h147l-30 -225h-117v225z" />
    <glyph glyph-name="Dcroat" unicode="&#x110;" horiz-adv-x="762" 
d="M-5 396h419v-91h-419v91zM366 701q86 0 155 -25t118.5 -71t76.5 -110.5t27 -143.5t-27 -143.5t-78 -111t-121.5 -71.5t-157.5 -25h-300v701h307zM372 163q36 0 64.5 13.5t50.5 38t33 58.5t11 76t-12 76.5t-34.5 60t-53.5 38.5t-69 13h-95v-374h105z" />
    <glyph glyph-name="dcroat" unicode="&#x111;" horiz-adv-x="688" 
d="M259 665h425v-93h-425v93zM265 513q66 0 114.5 -32.5t76 -90t27.5 -135.5t-26.5 -137.5t-74 -92t-112.5 -32.5q-75 0 -131.5 32.5t-88 92t-31.5 138.5q0 78 30.5 135.5t86 89.5t129.5 32zM322 353q-30 0 -52.5 -12.5t-34.5 -35.5t-12 -54t12 -54t34.5 -36t52.5 -13
t51.5 13t34 36t12.5 54t-12.5 53.5t-34 35.5t-51.5 13zM420 742h202v-743h-202v743z" />
    <glyph glyph-name="Emacron" unicode="&#x112;" horiz-adv-x="683" 
d="M59 701h573v-160h-365v-110h331v-160h-331v-111h375v-160h-583v701zM166 871h365v-115h-365v115z" />
    <glyph glyph-name="emacron" unicode="&#x113;" horiz-adv-x="609" 
d="M390 322q1 28 -9 48.5t-29 32t-44 11.5q-30 0 -50.5 -17.5t-31.5 -47.5t-11 -68q0 -44 14.5 -75t40 -47.5t59.5 -16.5q66 0 120 52l105 -103q-42 -47 -103.5 -72.5t-138.5 -25.5q-91 0 -156.5 34.5t-101 97t-35.5 145.5q0 85 36 148t100.5 98t150.5 35q96 0 161 -40.5
t96.5 -114t25.5 -173.5h-401v99h202zM145 752h315v-115h-315v115z" />
    <glyph glyph-name="Ebreve" unicode="&#x114;" horiz-adv-x="683" 
d="M59 701h573v-160h-365v-110h331v-160h-331v-111h375v-160h-583v701zM297 921q2 -24 16.5 -39t35.5 -15t35.5 15t16.5 39h123q-4 -76 -51.5 -121.5t-123.5 -45.5t-123.5 45.5t-51.5 121.5h123z" />
    <glyph glyph-name="ebreve" unicode="&#x115;" horiz-adv-x="609" 
d="M390 322q1 28 -9 48.5t-29 32t-44 11.5q-30 0 -50.5 -17.5t-31.5 -47.5t-11 -68q0 -44 14.5 -75t40 -47.5t59.5 -16.5q66 0 120 52l105 -103q-42 -47 -103.5 -72.5t-138.5 -25.5q-91 0 -156.5 34.5t-101 97t-35.5 145.5q0 85 36 148t100.5 98t150.5 35q96 0 161 -40.5
t96.5 -114t25.5 -173.5h-401v99h202zM250 765q2 -24 16.5 -39t35.5 -15t35.5 15t16.5 39h123q-4 -76 -51.5 -121.5t-123.5 -45.5t-123.5 45.5t-51.5 121.5h123z" />
    <glyph glyph-name="Edotaccent" unicode="&#x116;" horiz-adv-x="683" 
d="M59 701h573v-160h-365v-110h331v-160h-331v-111h375v-160h-583v701zM349 962q45 0 74.5 -29.5t29.5 -74.5q0 -46 -29.5 -75.5t-74.5 -29.5q-46 0 -75 29.5t-29 75.5q0 45 29 74.5t75 29.5z" />
    <glyph glyph-name="edotaccent" unicode="&#x117;" horiz-adv-x="609" 
d="M390 322q1 28 -9 48.5t-29 32t-44 11.5q-30 0 -50.5 -17.5t-31.5 -47.5t-11 -68q0 -44 14.5 -75t40 -47.5t59.5 -16.5q66 0 120 52l105 -103q-42 -47 -103.5 -72.5t-138.5 -25.5q-91 0 -156.5 34.5t-101 97t-35.5 145.5q0 85 36 148t100.5 98t150.5 35q96 0 161 -40.5
t96.5 -114t25.5 -173.5h-401v99h202zM302 803q46 0 75 -29.5t29 -74.5q0 -46 -29 -75t-75 -29q-45 0 -74.5 29t-29.5 75q0 45 29.5 74.5t74.5 29.5z" />
    <glyph glyph-name="Eogonek" unicode="&#x118;" horiz-adv-x="683" 
d="M59 701h573v-160h-365v-110h331v-160h-331v-111h375v-160h-583v701zM530 42l112 -42q-32 -23 -52.5 -46t-20.5 -48q0 -13 5.5 -19.5t16.5 -6.5q5 0 12 2t14 6l30 -103q-22 -10 -48.5 -16.5t-53.5 -6.5q-57 0 -85.5 32t-28.5 79q0 43 24.5 86t74.5 83z" />
    <glyph glyph-name="eogonek" unicode="&#x119;" horiz-adv-x="609" 
d="M390 322q1 28 -9 48.5t-29 32t-44 11.5q-30 0 -50.5 -17.5t-31.5 -47.5t-11 -68q0 -44 14.5 -75t40 -47.5t59.5 -16.5q66 0 120 52l105 -103q-42 -47 -103.5 -72.5t-138.5 -25.5q-91 0 -156.5 34.5t-101 97t-35.5 145.5q0 85 36 148t100.5 98t150.5 35q96 0 161 -40.5
t96.5 -114t25.5 -173.5h-401v99h202zM463 86l62 -23q-28 -25 -48.5 -52.5t-31.5 -54t-11 -47.5q0 -15 5.5 -22t14.5 -7q14 0 28 8l30 -103q-22 -10 -46.5 -16.5t-52.5 -6.5q-49 0 -83.5 26.5t-34.5 83.5q0 56 41 105.5t127 108.5z" />
    <glyph glyph-name="Ecaron" unicode="&#x11a;" horiz-adv-x="683" 
d="M59 701h573v-160h-365v-110h331v-160h-331v-111h375v-160h-583v701zM429 755h-173l-110 156h134l113 -124h-101l113 124h134z" />
    <glyph glyph-name="ecaron" unicode="&#x11b;" horiz-adv-x="609" 
d="M390 322q1 28 -9 48.5t-29 32t-44 11.5q-30 0 -50.5 -17.5t-31.5 -47.5t-11 -68q0 -44 14.5 -75t40 -47.5t59.5 -16.5q66 0 120 52l105 -103q-42 -47 -103.5 -72.5t-138.5 -25.5q-91 0 -156.5 34.5t-101 97t-35.5 145.5q0 85 36 148t100.5 98t150.5 35q96 0 161 -40.5
t96.5 -114t25.5 -173.5h-401v99h202zM389 609h-173l-110 157h134l113 -125h-101l113 125h134z" />
    <glyph glyph-name="Gcircumflex" unicode="&#x11c;" horiz-adv-x="740" 
d="M588 464q-36 35 -84.5 56t-94.5 21q-38 0 -70.5 -14.5t-56 -40t-37 -60t-13.5 -75.5t13.5 -76t37.5 -61t57 -40.5t71 -14.5q35 0 81.5 18t85.5 47l118 -146q-38 -27 -89 -48t-106 -32.5t-105 -11.5q-81 0 -149.5 27.5t-120 76.5t-79.5 116t-28 145t29 144t82 115.5
t124 76.5t156 27q54 0 108 -13t102.5 -37t85.5 -58zM517 363h179v-285h-179v285zM319 912h173l110 -157h-134l-113 125h101l-113 -125h-134z" />
    <glyph glyph-name="gcircumflex" unicode="&#x11d;" horiz-adv-x="651" 
d="M593 47q0 -77 -37.5 -133t-105 -86.5t-156.5 -30.5q-76 0 -141 21t-110 50l67 136q36 -23 80.5 -36.5t86.5 -13.5q37 0 63 10.5t39.5 30.5t13.5 46v503h200v-497zM243 551q66 0 112.5 -31.5t71 -89.5t24.5 -137q0 -80 -24 -139t-69.5 -91t-110.5 -32t-117 32.5t-81.5 92
t-29.5 138.5q0 78 29 135.5t79.5 89.5t115.5 32zM300 402q-27 0 -48 -14t-32.5 -40t-11.5 -60q0 -33 11.5 -58.5t32.5 -39.5t48 -14q28 0 48.5 14t32.5 39.5t12 58.5q0 35 -12 60.5t-32.5 39.5t-48.5 14zM223 766h173l110 -157h-134l-113 125h101l-113 -125h-134z" />
    <glyph glyph-name="Gbreve" unicode="&#x11e;" horiz-adv-x="740" 
d="M588 464q-36 35 -84.5 56t-94.5 21q-38 0 -70.5 -14.5t-56 -40t-37 -60t-13.5 -75.5t13.5 -76t37.5 -61t57 -40.5t71 -14.5q35 0 81.5 18t85.5 47l118 -146q-38 -27 -89 -48t-106 -32.5t-105 -11.5q-81 0 -149.5 27.5t-120 76.5t-79.5 116t-28 145t29 144t82 115.5
t124 76.5t156 27q54 0 108 -13t102.5 -37t85.5 -58zM517 363h179v-285h-179v285zM353 921q2 -24 16.5 -39t35.5 -15t35.5 15t16.5 39h123q-4 -76 -51.5 -121.5t-123.5 -45.5t-123.5 45.5t-51.5 121.5h123z" />
    <glyph glyph-name="gbreve" unicode="&#x11f;" horiz-adv-x="651" 
d="M593 47q0 -77 -37.5 -133t-105 -86.5t-156.5 -30.5q-76 0 -141 21t-110 50l67 136q36 -23 80.5 -36.5t86.5 -13.5q37 0 63 10.5t39.5 30.5t13.5 46v503h200v-497zM243 551q66 0 112.5 -31.5t71 -89.5t24.5 -137q0 -80 -24 -139t-69.5 -91t-110.5 -32t-117 32.5t-81.5 92
t-29.5 138.5q0 78 29 135.5t79.5 89.5t115.5 32zM300 402q-27 0 -48 -14t-32.5 -40t-11.5 -60q0 -33 11.5 -58.5t32.5 -39.5t48 -14q28 0 48.5 14t32.5 39.5t12 58.5q0 35 -12 60.5t-32.5 39.5t-48.5 14zM258 765q2 -24 16.5 -39t35.5 -15t35.5 15t16.5 39h123
q-4 -76 -51.5 -121.5t-123.5 -45.5t-123.5 45.5t-51.5 121.5h123z" />
    <glyph glyph-name="Gdotaccent" unicode="&#x120;" horiz-adv-x="740" 
d="M588 464q-36 35 -84.5 56t-94.5 21q-38 0 -70.5 -14.5t-56 -40t-37 -60t-13.5 -75.5t13.5 -76t37.5 -61t57 -40.5t71 -14.5q35 0 81.5 18t85.5 47l118 -146q-38 -27 -89 -48t-106 -32.5t-105 -11.5q-81 0 -149.5 27.5t-120 76.5t-79.5 116t-28 145t29 144t82 115.5
t124 76.5t156 27q54 0 108 -13t102.5 -37t85.5 -58zM517 363h179v-285h-179v285zM405 962q45 0 74.5 -29.5t29.5 -74.5q0 -46 -29.5 -75.5t-74.5 -29.5q-46 0 -75 29.5t-29 75.5q0 45 29 74.5t75 29.5z" />
    <glyph glyph-name="gdotaccent" unicode="&#x121;" horiz-adv-x="651" 
d="M593 47q0 -77 -37.5 -133t-105 -86.5t-156.5 -30.5q-76 0 -141 21t-110 50l67 136q36 -23 80.5 -36.5t86.5 -13.5q37 0 63 10.5t39.5 30.5t13.5 46v503h200v-497zM243 551q66 0 112.5 -31.5t71 -89.5t24.5 -137q0 -80 -24 -139t-69.5 -91t-110.5 -32t-117 32.5t-81.5 92
t-29.5 138.5q0 78 29 135.5t79.5 89.5t115.5 32zM300 402q-27 0 -48 -14t-32.5 -40t-11.5 -60q0 -33 11.5 -58.5t32.5 -39.5t48 -14q28 0 48.5 14t32.5 39.5t12 58.5q0 35 -12 60.5t-32.5 39.5t-48.5 14zM310 803q46 0 75 -29.5t29 -74.5q0 -46 -29 -75t-75 -29
q-45 0 -74.5 29t-29.5 75q0 45 29.5 74.5t74.5 29.5z" />
    <glyph glyph-name="uni0122" unicode="&#x122;" horiz-adv-x="740" 
d="M588 464q-36 35 -84.5 56t-94.5 21q-38 0 -70.5 -14.5t-56 -40t-37 -60t-13.5 -75.5t13.5 -76t37.5 -61t57 -40.5t71 -14.5q35 0 81.5 18t85.5 47l118 -146q-38 -27 -89 -48t-106 -32.5t-105 -11.5q-81 0 -149.5 27.5t-120 76.5t-79.5 116t-28 145t29 144t82 115.5
t124 76.5t156 27q54 0 108 -13t102.5 -37t85.5 -58zM517 363h179v-285h-179v285zM312 -60h160l-80 -179h-112z" />
    <glyph glyph-name="uni0123" unicode="&#x123;" horiz-adv-x="651" 
d="M593 47q0 -77 -37.5 -133t-105 -86.5t-156.5 -30.5q-76 0 -141 21t-110 50l67 136q36 -23 80.5 -36.5t86.5 -13.5q37 0 63 10.5t39.5 30.5t13.5 46v503h200v-497zM243 551q66 0 112.5 -31.5t71 -89.5t24.5 -137q0 -80 -24 -139t-69.5 -91t-110.5 -32t-117 32.5t-81.5 92
t-29.5 138.5q0 78 29 135.5t79.5 89.5t115.5 32zM300 402q-27 0 -48 -14t-32.5 -40t-11.5 -60q0 -33 11.5 -58.5t32.5 -39.5t48 -14q28 0 48.5 14t32.5 39.5t12 58.5q0 35 -12 60.5t-32.5 39.5t-48.5 14zM371 609h-160l80 178h112z" />
    <glyph glyph-name="Hcircumflex" unicode="&#x124;" horiz-adv-x="783" 
d="M59 701h208v-280h249v280h208v-701h-208v261h-249v-261h-208v701zM314 912h173l110 -157h-134l-113 125h101l-113 -125h-134z" />
    <glyph glyph-name="hcircumflex" unicode="&#x125;" horiz-adv-x="683" 
d="M435 287q0 41 -21.5 64.5t-56.5 23.5q-41 -1 -65 -30t-24 -76h-46q0 89 26.5 153t75.5 97t117 33q59 0 103 -25t68.5 -72t24.5 -110v-345h-202v287zM66 742h202v-742h-202v742zM75 964h173l110 -157h-134l-113 125h101l-113 -125h-134z" />
    <glyph glyph-name="Hbar" unicode="&#x126;" horiz-adv-x="863" 
d="M5 607h849v-92h-849v92zM98 701h208v-280h249v280h208v-701h-208v261h-249v-261h-208v701z" />
    <glyph glyph-name="hbar" unicode="&#x127;" horiz-adv-x="683" 
d="M4 665h426v-93h-426v93zM435 248q0 40 -21.5 63.5t-56.5 23.5q-27 0 -47 -13.5t-31 -37t-11 -55.5h-46q0 90 26.5 153.5t75.5 97t117 33.5q59 0 103 -26t68.5 -72t24.5 -110v-305h-202v248zM66 742h202v-742h-202v742z" />
    <glyph glyph-name="Itilde" unicode="&#x128;" horiz-adv-x="326" 
d="M59 701h208v-701h-208v701zM356 919q0 -56 -11 -93t-33 -55.5t-59 -18.5q-23 0 -42.5 6.5t-36 15t-30 15t-24.5 6.5q-14 0 -20.5 -10.5t-7.5 -29.5h-109q0 55 10.5 92.5t33.5 56t59 18.5q23 0 42.5 -6t36.5 -15t30 -15t23 -6q16 0 22.5 10t7.5 29h108z" />
    <glyph glyph-name="itilde" unicode="&#x129;" horiz-adv-x="324" 
d="M61 544h202v-544h-202v544zM347 761q0 -88 -24 -127.5t-75 -39.5q-21 0 -38.5 6.5t-32 14t-26.5 14t-21 6.5q-12 0 -18.5 -9.5t-7.5 -28.5h-109q0 85 24.5 126t74.5 41q21 0 38.5 -5.5t32 -13.5t26 -13.5t20.5 -5.5q14 0 20.5 8t7.5 27h108z" />
    <glyph glyph-name="Imacron" unicode="&#x12a;" horiz-adv-x="326" 
d="M59 701h208v-701h-208v701zM5 871h315v-115h-315v115z" />
    <glyph glyph-name="imacron" unicode="&#x12b;" horiz-adv-x="324" 
d="M61 544h202v-544h-202v544zM17 752h291v-115h-291v115z" />
    <glyph glyph-name="Ibreve" unicode="&#x12c;" horiz-adv-x="326" 
d="M59 701h208v-701h-208v701zM111 921q2 -24 16.5 -39t35.5 -15t35.5 15t16.5 39h123q-4 -76 -51.5 -121.5t-123.5 -45.5t-123.5 45.5t-51.5 121.5h123z" />
    <glyph glyph-name="ibreve" unicode="&#x12d;" horiz-adv-x="324" 
d="M61 544h202v-544h-202v544zM111 765q2 -24 16.5 -39t35.5 -15t35.5 15t16.5 39h123q-4 -76 -51.5 -121.5t-123.5 -45.5t-123.5 45.5t-51.5 121.5h123z" />
    <glyph glyph-name="Iogonek" unicode="&#x12e;" horiz-adv-x="326" 
d="M59 701h208v-701h-208v701zM101 42l112 -42q-32 -23 -52.5 -46t-20.5 -48q0 -13 5.5 -19.5t16.5 -6.5q5 0 12 2t14 6l30 -103q-22 -10 -48.5 -16.5t-53.5 -6.5q-57 0 -85.5 32t-28.5 79q0 43 24.5 86t74.5 83z" />
    <glyph glyph-name="iogonek" unicode="&#x12f;" horiz-adv-x="324" 
d="M61 544h202v-544h-202v544zM163 803q46 0 75 -29.5t29 -74.5q0 -46 -29 -75t-75 -29q-45 0 -74.5 29t-29.5 75q0 45 29.5 74.5t74.5 29.5zM104 42l112 -42q-32 -23 -52.5 -46t-20.5 -48q0 -13 5.5 -19.5t16.5 -6.5q5 0 12 2t14 6l30 -103q-22 -10 -48.5 -16.5t-53.5 -6.5
q-57 0 -85.5 32t-28.5 79q0 43 24.5 86t74.5 83z" />
    <glyph glyph-name="Idotaccent" unicode="&#x130;" horiz-adv-x="326" 
d="M59 701h208v-701h-208v701zM163 962q45 0 74.5 -29.5t29.5 -74.5q0 -46 -29.5 -75.5t-74.5 -29.5q-46 0 -75 29.5t-29 75.5q0 45 29 74.5t75 29.5z" />
    <glyph glyph-name="dotlessi" unicode="&#x131;" horiz-adv-x="324" 
d="M61 544h202v-544h-202v544z" />
    <glyph glyph-name="IJ" unicode="&#x132;" horiz-adv-x="880" 
d="M59 701h208v-701h-208v701zM833 232q0 -115 -69 -178t-186 -63q-80 0 -144.5 31t-114.5 86l95 137q40 -40 79.5 -59.5t67.5 -19.5t45 18t17 53v298h-238v166h448v-469z" />
    <glyph glyph-name="ij" unicode="&#x133;" horiz-adv-x="651" 
d="M61 544h202v-544h-202v544zM163 803q46 0 75 -29.5t29 -74.5q0 -46 -29 -75t-75 -29q-45 0 -74.5 29t-29.5 75q0 45 29.5 74.5t74.5 29.5zM299 -39l20 -4t20 -2q50 -2 50 57v532h202v-563q0 -85 -55.5 -134.5t-150.5 -48.5q-70 0 -125 22zM489 803q46 0 75 -29.5
t29 -74.5q0 -46 -29 -75t-75 -29q-45 0 -74.5 29t-29.5 75q0 45 29.5 74.5t74.5 29.5z" />
    <glyph glyph-name="Jcircumflex" unicode="&#x134;" horiz-adv-x="554" 
d="M507 232q0 -115 -69 -178t-186 -63q-80 0 -144.5 31t-114.5 86l95 137q40 -40 79.5 -59.5t67.5 -19.5t45 18t17 53v298h-238v166h448v-469zM193 912h173l110 -157h-134l-113 125h101l-113 -125h-134z" />
    <glyph glyph-name="jcircumflex" unicode="&#x135;" horiz-adv-x="326" 
d="M-25 -39l20 -4t20 -2q50 -2 50 57v532h202v-563q0 -85 -55.5 -134.5t-150.5 -48.5q-70 0 -125 22zM78 766h173l110 -157h-134l-113 125h101l-113 -125h-134z" />
    <glyph glyph-name="uni0136" unicode="&#x136;" horiz-adv-x="761" 
d="M59 701h208v-281l235 281h240l-475 -529v-172h-208v701zM473 438l285 -438h-249l-175 275zM287 -60h160l-80 -179h-112z" />
    <glyph glyph-name="uni0137" unicode="&#x137;" horiz-adv-x="648" 
d="M66 742h202v-742h-202v742zM418 544h228l-388 -409v235zM434 356l213 -356h-239l-123 234zM249 -60h160l-80 -179h-112z" />
    <glyph glyph-name="kgreenlandic" unicode="&#x138;" horiz-adv-x="641" 
d="M61 544h202v-544h-202v544zM411 544h229l-388 -409v222zM428 356l212 -356h-239l-122 234z" />
    <glyph glyph-name="Lacute" unicode="&#x139;" horiz-adv-x="574" 
d="M59 701h208v-527h294v-174h-502v701zM184 928l158 -58l-153 -122l-132 10z" />
    <glyph glyph-name="lacute" unicode="&#x13a;" horiz-adv-x="335" 
d="M66 742h202v-742h-202v742zM194 973l158 -58l-153 -122l-132 10z" />
    <glyph glyph-name="uni013B" unicode="&#x13b;" horiz-adv-x="574" 
d="M59 701h208v-527h294v-174h-502v701zM228 -60h160l-80 -179h-112z" />
    <glyph glyph-name="uni013C" unicode="&#x13c;" horiz-adv-x="335" 
d="M66 742h202v-742h-202v742zM86 -60h160l-80 -179h-112z" />
    <glyph glyph-name="Lcaron" unicode="&#x13d;" horiz-adv-x="574" 
d="M59 701h208v-527h294v-174h-502v701zM414 701h147l-30 -225h-117v225z" />
    <glyph glyph-name="lcaron" unicode="&#x13e;" horiz-adv-x="459" 
d="M66 742h202v-742h-202v742zM339 742h147l-30 -225h-117v225z" />
    <glyph glyph-name="Ldot" unicode="&#x13f;" horiz-adv-x="574" 
d="M59 701h208v-527h294v-174h-502v701zM443 537q46 0 75 -29.5t29 -74.5q0 -46 -29 -75t-75 -29q-45 0 -74.5 29t-29.5 75q0 45 29.5 74.5t74.5 29.5z" />
    <glyph glyph-name="ldot" unicode="&#x140;" horiz-adv-x="510" 
d="M66 742h202v-742h-202v742zM412 504q46 0 75 -29.5t29 -74.5q0 -46 -29 -75t-75 -29q-45 0 -74.5 29t-29.5 75q0 45 29.5 74.5t74.5 29.5z" />
    <glyph glyph-name="Lslash" unicode="&#x141;" horiz-adv-x="624" 
d="M17 357l406 207v-108l-406 -207v108zM109 701h208v-527h294v-174h-502v701z" />
    <glyph glyph-name="lslash" unicode="&#x142;" horiz-adv-x="435" 
d="M13 348l406 207v-109l-406 -207v109zM115 742h202v-742h-202v742z" />
    <glyph glyph-name="Nacute" unicode="&#x143;" horiz-adv-x="783" 
d="M59 701h177l353 -464l-55 -19v483h190v-701h-177l-352 462l55 19v-481h-191v701zM421 928l158 -58l-153 -122l-132 10z" />
    <glyph glyph-name="nacute" unicode="&#x144;" horiz-adv-x="678" 
d="M430 287q0 41 -21.5 64.5t-56.5 23.5q-41 -1 -65 -30t-24 -76h-46q0 89 26.5 153t75.5 97t117 33q58 0 102.5 -25t69 -72t24.5 -110v-345h-202v287zM61 544h202v-544h-202v544zM384 775l158 -58l-153 -122l-132 10z" />
    <glyph glyph-name="uni0145" unicode="&#x145;" horiz-adv-x="783" 
d="M59 701h177l353 -464l-55 -19v483h190v-701h-177l-352 462l55 19v-481h-191v701zM317 -60h160l-80 -179h-112z" />
    <glyph glyph-name="uni0146" unicode="&#x146;" horiz-adv-x="678" 
d="M430 287q0 41 -21.5 64.5t-56.5 23.5q-41 -1 -65 -30t-24 -76h-46q0 89 26.5 153t75.5 97t117 33q58 0 102.5 -25t69 -72t24.5 -110v-345h-202v287zM61 544h202v-544h-202v544zM263 -60h160l-80 -179h-112z" />
    <glyph glyph-name="Ncaron" unicode="&#x147;" horiz-adv-x="783" 
d="M59 701h177l353 -464l-55 -19v483h190v-701h-177l-352 462l55 19v-481h-191v701zM474 755h-173l-110 156h134l113 -124h-101l113 124h134z" />
    <glyph glyph-name="ncaron" unicode="&#x148;" horiz-adv-x="678" 
d="M430 287q0 41 -21.5 64.5t-56.5 23.5q-41 -1 -65 -30t-24 -76h-46q0 89 26.5 153t75.5 97t117 33q58 0 102.5 -25t69 -72t24.5 -110v-345h-202v287zM61 544h202v-544h-202v544zM444 609h-173l-111 157h135l113 -125h-102l114 125h134z" />
    <glyph glyph-name="napostrophe" unicode="&#x149;" horiz-adv-x="843" 
d="M47 701h133l-27 -263h-106v263zM595 287q0 41 -21.5 64.5t-56.5 23.5q-41 -1 -65 -30t-24 -76h-46q0 89 26.5 153t75.5 97t117 33q58 0 102.5 -25t69 -72t24.5 -110v-345h-202v287zM226 544h202v-544h-202v544z" />
    <glyph glyph-name="Eng" unicode="&#x14a;" horiz-adv-x="783" 
d="M724 0q-5 -104 -73.5 -162t-180.5 -58q-51 0 -94 12.5t-81 35.5l71 156q30 -14 57 -21.5t47 -7.5q33 0 50 19t17 56zM59 701h177l298 -392v392h190v-701h-177l-297 390v-390h-191v701z" />
    <glyph glyph-name="eng" unicode="&#x14b;" horiz-adv-x="678" 
d="M430 287q0 41 -21.5 64.5t-56.5 23.5q-41 -1 -65 -30t-24 -76h-46q0 89 26.5 153t75.5 97t117 33q58 0 102.5 -25t69 -72t24.5 -110v-366q0 -56 -26.5 -97t-73.5 -62.5t-108 -21.5q-85 0 -147 34l47 140q31 -17 58 -17q22 0 35 13t13 39v280zM61 544h202v-544h-202v544z
" />
    <glyph glyph-name="Omacron" unicode="&#x14c;" horiz-adv-x="802" 
d="M401 714q83 0 152.5 -27t121 -76t80 -115t28.5 -144t-28.5 -145.5t-80 -116.5t-121 -76.5t-152.5 -27.5t-152.5 27.5t-121 76.5t-80 116t-28.5 146t28.5 145t80 114.5t121 75.5t152.5 27zM404 541q-35 0 -66.5 -14t-55 -40t-37 -60.5t-13.5 -75.5t14 -76t37.5 -61
t54.5 -40.5t66 -14.5q34 0 64 14.5t53 40.5t36 61t13 76t-13 75.5t-36 60.5t-53 40t-64 14zM219 871h365v-115h-365v115z" />
    <glyph glyph-name="omacron" unicode="&#x14d;" horiz-adv-x="643" 
d="M322 551q91 0 159 -34.5t105.5 -97t37.5 -147.5q0 -84 -37.5 -147t-105.5 -97.5t-159 -34.5q-92 0 -160 34.5t-105.5 97.5t-37.5 147q0 85 37.5 147.5t105.5 97t160 34.5zM322 391q-30 0 -52.5 -15t-34.5 -42.5t-12 -63.5q0 -37 12 -64t34.5 -42t52.5 -15t52 15t34 42
t12 64q0 36 -12 63.5t-34 42.5t-52 15zM164 752h315v-115h-315v115z" />
    <glyph glyph-name="Obreve" unicode="&#x14e;" horiz-adv-x="802" 
d="M401 714q83 0 152.5 -27t121 -76t80 -115t28.5 -144t-28.5 -145.5t-80 -116.5t-121 -76.5t-152.5 -27.5t-152.5 27.5t-121 76.5t-80 116t-28.5 146t28.5 145t80 114.5t121 75.5t152.5 27zM404 541q-35 0 -66.5 -14t-55 -40t-37 -60.5t-13.5 -75.5t14 -76t37.5 -61
t54.5 -40.5t66 -14.5q34 0 64 14.5t53 40.5t36 61t13 76t-13 75.5t-36 60.5t-53 40t-64 14zM349 921q2 -24 16.5 -39t35.5 -15t35.5 15t16.5 39h123q-4 -76 -51.5 -121.5t-123.5 -45.5t-123.5 45.5t-51.5 121.5h123z" />
    <glyph glyph-name="obreve" unicode="&#x14f;" horiz-adv-x="643" 
d="M322 551q91 0 159 -34.5t105.5 -97t37.5 -147.5q0 -84 -37.5 -147t-105.5 -97.5t-159 -34.5q-92 0 -160 34.5t-105.5 97.5t-37.5 147q0 85 37.5 147.5t105.5 97t160 34.5zM322 391q-30 0 -52.5 -15t-34.5 -42.5t-12 -63.5q0 -37 12 -64t34.5 -42t52.5 -15t52 15t34 42
t12 64q0 36 -12 63.5t-34 42.5t-52 15zM270 765q2 -24 16.5 -39t35.5 -15t35.5 15t16.5 39h123q-4 -76 -51.5 -121.5t-123.5 -45.5t-123.5 45.5t-51.5 121.5h123z" />
    <glyph glyph-name="Ohungarumlaut" unicode="&#x150;" horiz-adv-x="802" 
d="M401 714q83 0 152.5 -27t121 -76t80 -115t28.5 -144t-28.5 -145.5t-80 -116.5t-121 -76.5t-152.5 -27.5t-152.5 27.5t-121 76.5t-80 116t-28.5 146t28.5 145t80 114.5t121 75.5t152.5 27zM404 541q-35 0 -66.5 -14t-55 -40t-37 -60.5t-13.5 -75.5t14 -76t37.5 -61
t54.5 -40.5t66 -14.5q34 0 64 14.5t53 40.5t36 61t13 76t-13 75.5t-36 60.5t-53 40t-64 14zM295 929l148 -51l-89 -130l-141 10zM504 929l149 -51l-90 -130l-141 10z" />
    <glyph glyph-name="ohungarumlaut" unicode="&#x151;" horiz-adv-x="643" 
d="M322 551q91 0 159 -34.5t105.5 -97t37.5 -147.5q0 -84 -37.5 -147t-105.5 -97.5t-159 -34.5q-92 0 -160 34.5t-105.5 97.5t-37.5 147q0 85 37.5 147.5t105.5 97t160 34.5zM322 391q-30 0 -52.5 -15t-34.5 -42.5t-12 -63.5q0 -37 12 -64t34.5 -42t52.5 -15t52 15t34 42
t12 64q0 36 -12 63.5t-34 42.5t-52 15zM216 776l148 -51l-89 -130l-141 10zM425 776l149 -51l-90 -130l-141 10z" />
    <glyph glyph-name="OE" unicode="&#x152;" horiz-adv-x="1121" 
d="M400 532q-36 0 -66.5 -14t-53 -38.5t-35.5 -58t-13 -73.5q0 -39 13 -72.5t35.5 -58t53 -38t66.5 -13.5l161 1l-2 -167h-159q-82 0 -151.5 26t-121 73t-80 111t-28.5 139q0 76 28.5 140t79.5 111.5t120.5 74t152.5 26.5h142v-169h-142zM497 701h573v-160h-365v-110h331
v-160h-331v-111h375v-160h-583v701z" />
    <glyph glyph-name="oe" unicode="&#x153;" horiz-adv-x="1008" 
d="M786 322q1 27 -9.5 48t-29.5 33t-44 12q-30 0 -51.5 -17.5t-33 -48t-11.5 -68.5q0 -44 14.5 -75t41 -47.5t61.5 -16.5q65 0 121 52l105 -103q-43 -47 -104.5 -72.5t-139.5 -25.5q-83 0 -139 34.5t-83.5 97t-27.5 145.5q0 85 28.5 148t83.5 98t133 35q93 0 159.5 -40.5
t99.5 -113t28 -170.5h-407v95h205zM322 551q83 0 140.5 -34.5t87.5 -97t30 -147.5q0 -84 -30 -147t-87.5 -97.5t-140.5 -34.5q-92 0 -160 34.5t-105.5 97.5t-37.5 147q0 85 37.5 147.5t105.5 97t160 34.5zM322 391q-30 0 -52.5 -15t-34.5 -42.5t-12 -63.5q0 -37 12 -64
t34.5 -42t52.5 -15q29 0 51.5 15t34.5 42t12 64q0 36 -12 63.5t-34.5 42.5t-51.5 15z" />
    <glyph glyph-name="Racute" unicode="&#x154;" horiz-adv-x="725" 
d="M386 701q142 0 219 -65t77 -183q0 -126 -77 -195.5t-219 -69.5h-119v-188h-208v701h327zM386 349q47 0 72.5 25t25.5 73q0 45 -25.5 69.5t-72.5 24.5h-119v-192h119zM340 264h202l164 -264h-236zM385 928l158 -58l-153 -122l-132 10z" />
    <glyph glyph-name="racute" unicode="&#x155;" horiz-adv-x="444" 
d="M434 370q-52 7 -90.5 -5t-59.5 -38.5t-21 -66.5l-46 9q0 87 26.5 151t75.5 98t115 34v-182zM61 544h202v-544h-202v544zM270 775l158 -58l-153 -122l-132 10z" />
    <glyph glyph-name="uni0156" unicode="&#x156;" horiz-adv-x="725" 
d="M386 701q142 0 219 -65t77 -183q0 -126 -77 -195.5t-219 -69.5h-119v-188h-208v701h327zM386 349q47 0 72.5 25t25.5 73q0 45 -25.5 69.5t-72.5 24.5h-119v-192h119zM340 264h202l164 -264h-236zM277 -60h160l-80 -179h-112z" />
    <glyph glyph-name="uni0157" unicode="&#x157;" horiz-adv-x="444" 
d="M434 370q-52 7 -90.5 -5t-59.5 -38.5t-21 -66.5l-46 9q0 87 26.5 151t75.5 98t115 34v-182zM61 544h202v-544h-202v544zM80 -60h160l-80 -179h-112z" />
    <glyph glyph-name="Rcaron" unicode="&#x158;" horiz-adv-x="725" 
d="M386 701q142 0 219 -65t77 -183q0 -126 -77 -195.5t-219 -69.5h-119v-188h-208v701h327zM386 349q47 0 72.5 25t25.5 72q0 46 -25.5 70.5t-72.5 24.5h-119v-192h119zM340 264h202l164 -264h-236zM439 755h-173l-110 156h134l113 -124h-101l113 124h134z" />
    <glyph glyph-name="rcaron" unicode="&#x159;" horiz-adv-x="444" 
d="M434 370q-52 7 -90.5 -5t-59.5 -38.5t-21 -66.5l-46 9q0 87 26.5 151t75.5 98t115 34v-182zM61 544h202v-544h-202v544zM330 609h-173l-110 157h134l113 -125h-101l113 125h134z" />
    <glyph glyph-name="Sacute" unicode="&#x15a;" horiz-adv-x="655" 
d="M563 475q-36 21 -79 39t-83.5 29t-70.5 11q-26 0 -42 -10t-16 -31q0 -23 19.5 -37.5t52.5 -24.5t72 -20.5t78 -26t71.5 -39t52.5 -61t20 -92.5q0 -76 -39.5 -125.5t-105 -74t-144.5 -24.5q-60 0 -121 14t-116.5 39t-99.5 61l78 158q36 -31 83.5 -55.5t95 -39t82.5 -14.5
q34 0 53 12.5t19 37.5q0 23 -20 37.5t-52.5 24.5t-72 20t-78 24.5t-71.5 37.5t-52.5 59t-19.5 90q0 68 36 118.5t101 77.5t153 27q80 0 158 -22.5t135 -59.5zM377 928l158 -58l-153 -122l-132 10z" />
    <glyph glyph-name="sacute" unicode="&#x15b;" horiz-adv-x="535" 
d="M444 360q-55 28 -100.5 42.5t-77.5 14.5q-18 0 -29.5 -6.5t-11.5 -19.5q0 -15 20.5 -24.5t53 -18.5t68.5 -20t68.5 -30.5t53 -49.5t20.5 -77q0 -56 -30.5 -96t-84 -62t-124.5 -22q-72 0 -137.5 19.5t-118.5 57.5l62 127q51 -33 101.5 -50t95.5 -17q14 0 24 3t15.5 8.5
t5.5 13.5q0 15 -20 25t-51.5 18t-67.5 19.5t-67.5 30.5t-51.5 49t-20 76q0 58 29.5 98t81.5 62t121 22q62 0 123 -16.5t116 -49.5zM305 775l158 -58l-153 -122l-132 10z" />
    <glyph glyph-name="Scircumflex" unicode="&#x15c;" horiz-adv-x="655" 
d="M563 475q-36 21 -79 39t-83.5 29t-70.5 11q-26 0 -42 -10t-16 -31q0 -23 19.5 -37.5t52.5 -24.5t72 -20.5t78 -26t71.5 -39t52.5 -61t20 -92.5q0 -76 -39.5 -125.5t-105 -74t-144.5 -24.5q-60 0 -121 14t-116.5 39t-99.5 61l78 158q36 -31 83.5 -55.5t95 -39t82.5 -14.5
q34 0 53 12.5t19 37.5q0 23 -20 37.5t-52.5 24.5t-72 20t-78 24.5t-71.5 37.5t-52.5 59t-19.5 90q0 68 36 118.5t101 77.5t153 27q80 0 158 -22.5t135 -59.5zM264 912h173l110 -157h-134l-113 125h101l-113 -125h-134z" />
    <glyph glyph-name="scircumflex" unicode="&#x15d;" horiz-adv-x="535" 
d="M444 360q-55 28 -100.5 42.5t-77.5 14.5q-18 0 -29.5 -6.5t-11.5 -19.5q0 -15 20.5 -24.5t53 -18.5t68.5 -20t68.5 -30.5t53 -49.5t20.5 -77q0 -56 -30.5 -96t-84 -62t-124.5 -22q-72 0 -137.5 19.5t-118.5 57.5l62 127q51 -33 101.5 -50t95.5 -17q14 0 24 3t15.5 8.5
t5.5 13.5q0 15 -20 25t-51.5 18t-67.5 19.5t-67.5 30.5t-51.5 49t-20 76q0 58 29.5 98t81.5 62t121 22q62 0 123 -16.5t116 -49.5zM192 766h173l110 -157h-134l-113 125h101l-113 -125h-134z" />
    <glyph glyph-name="Scedilla" unicode="&#x15e;" horiz-adv-x="655" 
d="M563 475q-36 21 -79 39t-83.5 29t-70.5 11q-26 0 -42 -10t-16 -31q0 -23 19.5 -37.5t52.5 -24.5t72 -20.5t78 -26t71.5 -39t52.5 -61t20 -92.5q0 -76 -39.5 -125.5t-105 -74t-144.5 -24.5q-60 0 -121 14t-116.5 39t-99.5 61l78 158q36 -31 83.5 -55.5t95 -39t82.5 -14.5
q34 0 53 12.5t19 37.5q0 23 -20 37.5t-52.5 24.5t-72 20t-78 24.5t-71.5 37.5t-52.5 59t-19.5 90q0 68 36 118.5t101 77.5t153 27q80 0 158 -22.5t135 -59.5zM291 10l109 -10l-21 -57q45 -11 64 -33t19 -49q0 -36 -19 -58t-49.5 -32t-64.5 -10q-29 0 -59 5.5t-55 14.5l28 85
q12 -5 24.5 -6.5t23.5 -1.5q18 0 29.5 5t11.5 15q0 12 -17 17.5t-39 5.5h-10h-10z" />
    <glyph glyph-name="scedilla" unicode="&#x15f;" horiz-adv-x="535" 
d="M444 360q-55 28 -100.5 42.5t-77.5 14.5q-18 0 -29.5 -6.5t-11.5 -19.5q0 -15 20.5 -24.5t53 -18.5t68.5 -20t68.5 -30.5t53 -49.5t20.5 -77q0 -56 -30.5 -96t-84 -62t-124.5 -22q-72 0 -137.5 19.5t-118.5 57.5l62 127q51 -33 101.5 -50t95.5 -17q14 0 24 3t15.5 8.5
t5.5 13.5q0 15 -20 25t-51.5 18t-67.5 19.5t-67.5 30.5t-51.5 49t-20 76q0 58 29.5 98t81.5 62t121 22q62 0 123 -16.5t116 -49.5zM218 10l109 -10l-21 -57q45 -11 64 -33t19 -49q0 -36 -19 -58t-49.5 -32t-64.5 -10q-29 0 -59 5.5t-55 14.5l28 85q12 -5 24.5 -6.5
t23.5 -1.5q18 0 29.5 5t11.5 15q0 12 -17 17.5t-39 5.5h-10h-10z" />
    <glyph glyph-name="Scaron" unicode="&#x160;" horiz-adv-x="655" 
d="M563 475q-36 21 -79 39t-83.5 29t-70.5 11q-26 0 -42 -10t-16 -31q0 -23 19.5 -37.5t52.5 -24.5t72 -20.5t78 -26t71.5 -39t52.5 -61t20 -92.5q0 -76 -39.5 -125.5t-105 -74t-144.5 -24.5q-60 0 -121 14t-116.5 39t-99.5 61l78 158q36 -31 83.5 -55.5t95 -39t82.5 -14.5
q34 0 53 12.5t19 37.5q0 23 -20 37.5t-52.5 24.5t-72 20t-78 24.5t-71.5 37.5t-52.5 59t-19.5 90q0 68 36 118.5t101 77.5t153 27q80 0 158 -22.5t135 -59.5zM431 755h-173l-110 156h134l113 -124h-101l113 124h134z" />
    <glyph glyph-name="scaron" unicode="&#x161;" horiz-adv-x="535" 
d="M444 360q-55 28 -100.5 42.5t-77.5 14.5q-18 0 -29.5 -6.5t-11.5 -19.5q0 -15 20.5 -24.5t53 -18.5t68.5 -20t68.5 -30.5t53 -49.5t20.5 -77q0 -56 -30.5 -96t-84 -62t-124.5 -22q-72 0 -137.5 19.5t-118.5 57.5l62 127q51 -33 101.5 -50t95.5 -17q14 0 24 3t15.5 8.5
t5.5 13.5q0 15 -20 25t-51.5 18t-67.5 19.5t-67.5 30.5t-51.5 49t-20 76q0 58 29.5 98t81.5 62t121 22q62 0 123 -16.5t116 -49.5zM365 609h-173l-110 157h134l114 -125h-102l113 125h135z" />
    <glyph glyph-name="uni0162" unicode="&#x162;" horiz-adv-x="628" 
d="M6 701h616v-166h-204v-535h-209v535h-203v166zM265 10l109 -10l-21 -57q45 -11 64 -33t19 -49q0 -36 -19 -58t-49.5 -32t-64.5 -10q-29 0 -59 5.5t-55 14.5l28 85q12 -5 24.5 -6.5t23.5 -1.5q18 0 29.5 5t11.5 15q0 12 -17 17.5t-39 5.5h-10h-10z" />
    <glyph glyph-name="uni0163" unicode="&#x163;" horiz-adv-x="449" 
d="M289 201q0 -26 12.5 -39t33.5 -13q12 0 28 4.5t34 11.5l36 -139q-28 -16 -68.5 -25.5t-82.5 -9.5q-58 0 -101.5 21t-68 61.5t-24.5 96.5v497h201v-466zM13 516h410v-129h-410v129zM228 10l109 -10l-21 -57q45 -11 64 -33t19 -49q0 -36 -19 -58t-49.5 -32t-64.5 -10
q-29 0 -59 5.5t-55 14.5l28 85q12 -5 24.5 -6.5t23.5 -1.5q18 0 29.5 5t11.5 15q0 12 -17 17.5t-39 5.5h-10h-10z" />
    <glyph glyph-name="Tcaron" unicode="&#x164;" horiz-adv-x="628" 
d="M6 701h616v-166h-204v-535h-209v535h-203v166zM409 755h-173l-110 156h134l113 -124h-101l113 124h134z" />
    <glyph glyph-name="tcaron" unicode="&#x165;" horiz-adv-x="449" 
d="M289 201q0 -26 12.5 -39t33.5 -13q12 0 28 4.5t34 11.5l36 -139q-28 -16 -68.5 -25.5t-82.5 -9.5q-58 0 -101.5 21t-68 61.5t-24.5 96.5v497h201v-466zM13 516h410v-129h-410v129zM341 742h140l-23 -178h-117v178z" />
    <glyph glyph-name="Tbar" unicode="&#x166;" horiz-adv-x="628" 
d="M6 701h616v-166h-204v-535h-209v535h-203v166zM89 360h447v-108h-447v108z" />
    <glyph glyph-name="tbar" unicode="&#x167;" horiz-adv-x="449" 
d="M88 667h201v-466q0 -26 12.5 -39t33.5 -13q12 0 28 4.5t34 11.5l36 -139q-28 -16 -68.5 -25.5t-82.5 -9.5q-58 0 -101.5 21t-68 61.5t-24.5 96.5v497zM13 516h410v-110h-410v110zM13 345h410v-109h-410v109z" />
    </font>
</defs>
</svg>
