<?xml version="1.0" standalone="no"?>
<!DOCTYPE svg PUBLIC "-//W3C//DTD SVG 1.1//EN" "http://www.w3.org/Graphics/SVG/1.1/DTD/svg11.dtd" >
<svg xmlns="http://www.w3.org/2000/svg" xmlns:xlink="http://www.w3.org/1999/xlink" version="1.1">
<metadata>
Created by FontForge 20201107 at Thu Nov  3 19:09:09 2022
 By 
Copyright 2022 The Alexandria Project Authors (https://github.com/Gue3bara/Alexandria)
</metadata>
<defs>
<font id="Alexandria-Thin" horiz-adv-x="0" >
  <font-face 
    font-family="Alexandria Thin"
    font-weight="250"
    font-stretch="normal"
    units-per-em="1000"
    panose-1="0 0 0 0 0 0 0 0 0 0"
    ascent="800"
    descent="-200"
    x-height="517"
    cap-height="699"
    bbox="-280 -488 1409 1081"
    underline-thickness="50"
    underline-position="-125"
    unicode-range="U+000D-FEFC"
  />
<missing-glyph horiz-adv-x="587" 
d="M40 0v700h507v-700h-507zM120 70h347v560h-347v-560z" />
    <glyph glyph-name="fi" unicode="fi" horiz-adv-x="535" 
d="M117 590q0 46 19.5 83.5t53 59t73.5 19.5q21 -1 42.5 -7t40.5 -17l-11 -17q-16 10 -34.5 15.5t-37.5 5.5q-35 0 -64 -18.5t-45.5 -50.5t-16.5 -73v-590h-20v590zM52 507h253v-20h-253v20zM405 517h20v-517h-20v517zM415 692q11 0 18.5 -7.5t7.5 -18.5q0 -10 -7.5 -18
t-18.5 -8q-10 0 -18 8t-8 18q0 11 8 18.5t18 7.5z" />
    <glyph glyph-name="fl" unicode="fl" horiz-adv-x="545" 
d="M117 590q0 46 19.5 83.5t53 59t73.5 19.5q21 -1 42.5 -7t40.5 -17l-11 -17q-16 10 -34.5 15.5t-37.5 5.5q-35 0 -64 -18.5t-45.5 -50.5t-16.5 -73v-590h-20v590zM52 507h253v-20h-253v20zM410 742h20v-742h-20v742z" />
    <glyph glyph-name="uniFC64" unicode="&#xfe8c;&#xfeae;" horiz-adv-x="551" arabic-form="final" 
d="M551 0v20q14 0 17 -2.5t3 -7.5q0 -4 -3 -7t-17 -3zM536 0q-47 0 -76.5 14.5t-43.5 46t-14 81.5v300h20v-300q0 -44 11 -71t36.5 -39t66.5 -12h15v-20h-15zM286 273q-36 0 -70 5t-66 15v20q32 -9 66 -14.5t70 -5.5t70 5.5t66 14.5v-20q-31 -10 -65.5 -15t-70.5 -5zM0 -230
q49 1 82 21t50.5 59.5t17.5 96.5v495h20v-495q0 -62 -19 -105.5t-55.5 -66.5t-89.5 -25zM428 484q-34 0 -57.5 14.5t-23.5 42.5q0 19 11 31t29 18.5t40 6.5q13 0 26 -2t23 -5l-9 -18q-8 3 -18.5 4t-21.5 1q-28 0 -44 -9.5t-16 -25.5q0 -17 16.5 -27.5t44.5 -10.5v-20z
M341 484v20h141v-20h-141z" />
    <glyph glyph-name="uniFC65" unicode="&#xfe8c;&#xfeb0;" horiz-adv-x="551" arabic-form="final" 
d="M551 0v20q14 0 17 -2.5t3 -7.5q0 -4 -3 -7t-17 -3zM536 0q-47 0 -76.5 14.5t-43.5 46t-14 81.5v300h20v-300q0 -44 11 -71t36.5 -39t66.5 -12h15v-20h-15zM286 273q-36 0 -70 5t-66 15v20q32 -9 66 -14.5t70 -5.5t70 5.5t66 14.5v-20q-31 -10 -65.5 -15t-70.5 -5zM0 -230
q49 1 82 21t50.5 59.5t17.5 96.5v495h20v-495q0 -62 -19 -105.5t-55.5 -66.5t-89.5 -25zM428 484q-34 0 -57.5 14.5t-23.5 42.5q0 19 11 31t29 18.5t40 6.5q13 0 26 -2t23 -5l-9 -18q-8 3 -18.5 4t-21.5 1q-28 0 -44 -9.5t-16 -25.5q0 -17 16.5 -27.5t44.5 -10.5v-20z
M341 484v20h141v-20h-141zM160 534q-10 0 -18 8t-8 18q0 11 8 18.5t18 7.5q11 0 18.5 -7.5t7.5 -18.5q0 -10 -7.5 -18t-18.5 -8z" />
    <glyph glyph-name="uniFC67" unicode="&#xfe8c;&#xfee6;" horiz-adv-x="983" arabic-form="final" 
d="M983 0v20q14 0 17 -2.5t3 -7.5q0 -4 -3 -7t-17 -3zM968 0q-47 0 -76.5 14.5t-43.5 46t-14 81.5v300h20v-300q0 -44 11 -71t36.5 -39t66.5 -12h15v-20h-15zM718 273q-36 0 -70 5t-66 15v20q32 -9 66 -14.5t70 -5.5t70 5.5t66 14.5v-20q-31 -10 -65.5 -15t-70.5 -5z
M321 -250q-68 0 -120.5 23.5t-88 65.5t-54 98t-18.5 121q0 35 5.5 71.5t14.5 70.5l19 -4q-9 -34 -14 -69t-5 -69q0 -87 32.5 -152t91 -100.5t137.5 -35.5t137.5 35.5t91 100.5t32.5 152v384h20v-384q0 -65 -18.5 -121t-54 -98t-88 -65.5t-120.5 -23.5zM321 442q-10 0 -18 8
t-8 18q0 11 8 18.5t18 7.5q11 0 18.5 -7.5t7.5 -18.5q0 -10 -7.5 -18t-18.5 -8zM860 484q-34 0 -57.5 14.5t-23.5 42.5q0 19 11 31t29 18.5t40 6.5q13 0 26 -2t23 -5l-9 -18q-8 3 -18.5 4t-21.5 1q-28 0 -44 -9.5t-16 -25.5q0 -17 16.5 -27.5t44.5 -10.5v-20zM773 484v20
h141v-20h-141z" />
    <glyph glyph-name="uniFC6A" unicode="&#xfe92;&#xfeae;" horiz-adv-x="551" arabic-form="final" 
d="M551 0v20q14 0 17 -2.5t3 -7.5q0 -4 -3 -7t-17 -3zM536 0q-47 0 -76.5 14.5t-43.5 46t-14 81.5v300h20v-300q0 -44 11 -71t36.5 -39t66.5 -12h15v-20h-15zM286 273q-36 0 -70 5t-66 15v20q32 -9 66 -14.5t70 -5.5t70 5.5t66 14.5v-20q-31 -10 -65.5 -15t-70.5 -5zM0 -230
q49 1 82 21t50.5 59.5t17.5 96.5v495h20v-495q0 -62 -19 -105.5t-55.5 -66.5t-89.5 -25zM412 -144q-10 0 -18 8t-8 18q0 11 8 18.5t18 7.5q11 0 18.5 -7.5t7.5 -18.5q0 -10 -7.5 -18t-18.5 -8z" />
    <glyph glyph-name="uniFC6B" unicode="&#xfe92;&#xfeb0;" horiz-adv-x="551" arabic-form="final" 
d="M551 0v20q14 0 17 -2.5t3 -7.5q0 -4 -3 -7t-17 -3zM536 0q-47 0 -76.5 14.5t-43.5 46t-14 81.5v300h20v-300q0 -44 11 -71t36.5 -39t66.5 -12h15v-20h-15zM286 273q-36 0 -70 5t-66 15v20q32 -9 66 -14.5t70 -5.5t70 5.5t66 14.5v-20q-31 -10 -65.5 -15t-70.5 -5zM0 -230
q49 1 82 21t50.5 59.5t17.5 96.5v495h20v-495q0 -62 -19 -105.5t-55.5 -66.5t-89.5 -25zM412 -144q-10 0 -18 8t-8 18q0 11 8 18.5t18 7.5q11 0 18.5 -7.5t7.5 -18.5q0 -10 -7.5 -18t-18.5 -8zM160 534q-10 0 -18 8t-8 18q0 11 8 18.5t18 7.5q11 0 18.5 -7.5t7.5 -18.5
q0 -10 -7.5 -18t-18.5 -8z" />
    <glyph glyph-name="uniFC6D" unicode="&#xfe92;&#xfee6;" horiz-adv-x="983" arabic-form="final" 
d="M983 0v20q14 0 17 -2.5t3 -7.5q0 -4 -3 -7t-17 -3zM968 0q-47 0 -76.5 14.5t-43.5 46t-14 81.5v300h20v-300q0 -44 11 -71t36.5 -39t66.5 -12h15v-20h-15zM718 273q-36 0 -70 5t-66 15v20q32 -9 66 -14.5t70 -5.5t70 5.5t66 14.5v-20q-31 -10 -65.5 -15t-70.5 -5z
M321 -250q-68 0 -120.5 23.5t-88 65.5t-54 98t-18.5 121q0 35 5.5 71.5t14.5 70.5l19 -4q-9 -34 -14 -69t-5 -69q0 -87 32.5 -152t91 -100.5t137.5 -35.5t137.5 35.5t91 100.5t32.5 152v384h20v-384q0 -65 -18.5 -121t-54 -98t-88 -65.5t-120.5 -23.5zM321 442q-10 0 -18 8
t-8 18q0 11 8 18.5t18 7.5q11 0 18.5 -7.5t7.5 -18.5q0 -10 -7.5 -18t-18.5 -8zM844 -144q-10 0 -18 8t-8 18q0 11 8 18.5t18 7.5q11 0 18.5 -7.5t7.5 -18.5q0 -10 -7.5 -18t-18.5 -8z" />
    <glyph glyph-name="uniFC70" unicode="&#xfe98;&#xfeae;" horiz-adv-x="551" arabic-form="final" 
d="M551 0v20q14 0 17 -2.5t3 -7.5q0 -4 -3 -7t-17 -3zM536 0q-47 0 -76.5 14.5t-43.5 46t-14 81.5v300h20v-300q0 -44 11 -71t36.5 -39t66.5 -12h15v-20h-15zM286 273q-36 0 -70 5t-66 15v20q32 -9 66 -14.5t70 -5.5t70 5.5t66 14.5v-20q-31 -10 -65.5 -15t-70.5 -5zM0 -230
q49 1 82 21t50.5 59.5t17.5 96.5v495h20v-495q0 -62 -19 -105.5t-55.5 -66.5t-89.5 -25zM446 534q-10 0 -18 8t-8 18q0 11 8 18.5t19 7.5q10 0 17.5 -7.5t7.5 -18.5q0 -10 -7.5 -18t-18.5 -8zM378 534q-10 0 -18 8t-8 18q0 11 8 18.5t19 7.5q10 0 17.5 -7.5t7.5 -18.5
q0 -10 -7.5 -18t-18.5 -8z" />
    <glyph glyph-name="uniFC71" unicode="&#xfe98;&#xfeb0;" horiz-adv-x="551" arabic-form="final" 
d="M551 0v20q14 0 17 -2.5t3 -7.5q0 -4 -3 -7t-17 -3zM536 0q-47 0 -76.5 14.5t-43.5 46t-14 81.5v300h20v-300q0 -44 11 -71t36.5 -39t66.5 -12h15v-20h-15zM286 273q-36 0 -70 5t-66 15v20q32 -9 66 -14.5t70 -5.5t70 5.5t66 14.5v-20q-31 -10 -65.5 -15t-70.5 -5zM0 -230
q49 1 82 21t50.5 59.5t17.5 96.5v495h20v-495q0 -62 -19 -105.5t-55.5 -66.5t-89.5 -25zM446 534q-10 0 -18 8t-8 18q0 11 8 18.5t19 7.5q10 0 17.5 -7.5t7.5 -18.5q0 -10 -7.5 -18t-18.5 -8zM378 534q-10 0 -18 8t-8 18q0 11 8 18.5t19 7.5q10 0 17.5 -7.5t7.5 -18.5
q0 -10 -7.5 -18t-18.5 -8zM160 534q-10 0 -18 8t-8 18q0 11 8 18.5t18 7.5q11 0 18.5 -7.5t7.5 -18.5q0 -10 -7.5 -18t-18.5 -8z" />
    <glyph glyph-name="uniFC73" unicode="&#xfe98;&#xfee6;" horiz-adv-x="983" arabic-form="final" 
d="M983 0v20q14 0 17 -2.5t3 -7.5q0 -4 -3 -7t-17 -3zM968 0q-47 0 -76.5 14.5t-43.5 46t-14 81.5v300h20v-300q0 -44 11 -71t36.5 -39t66.5 -12h15v-20h-15zM718 273q-36 0 -70 5t-66 15v20q32 -9 66 -14.5t70 -5.5t70 5.5t66 14.5v-20q-31 -10 -65.5 -15t-70.5 -5z
M321 -250q-68 0 -120.5 23.5t-88 65.5t-54 98t-18.5 121q0 35 5.5 71.5t14.5 70.5l19 -4q-9 -34 -14 -69t-5 -69q0 -87 32.5 -152t91 -100.5t137.5 -35.5t137.5 35.5t91 100.5t32.5 152v384h20v-384q0 -65 -18.5 -121t-54 -98t-88 -65.5t-120.5 -23.5zM321 442q-10 0 -18 8
t-8 18q0 11 8 18.5t18 7.5q11 0 18.5 -7.5t7.5 -18.5q0 -10 -7.5 -18t-18.5 -8zM878 534q-10 0 -18 8t-8 18q0 11 8 18.5t19 7.5q10 0 17.5 -7.5t7.5 -18.5q0 -10 -7.5 -18t-18.5 -8zM810 534q-10 0 -18 8t-8 18q0 11 8 18.5t19 7.5q10 0 17.5 -7.5t7.5 -18.5
q0 -10 -7.5 -18t-18.5 -8z" />
    <glyph glyph-name="uniFC76" unicode="&#xfe9c;&#xfeae;" horiz-adv-x="551" arabic-form="final" 
d="M551 0v20q14 0 17 -2.5t3 -7.5q0 -4 -3 -7t-17 -3zM536 0q-47 0 -76.5 14.5t-43.5 46t-14 81.5v300h20v-300q0 -44 11 -71t36.5 -39t66.5 -12h15v-20h-15zM286 273q-36 0 -70 5t-66 15v20q32 -9 66 -14.5t70 -5.5t70 5.5t66 14.5v-20q-31 -10 -65.5 -15t-70.5 -5zM0 -230
q49 1 82 21t50.5 59.5t17.5 96.5v495h20v-495q0 -62 -19 -105.5t-55.5 -66.5t-89.5 -25zM413 638q11 0 18.5 -7.5t7.5 -18.5q0 -10 -7.5 -18t-18.5 -8q-10 0 -18 8t-8 18q0 11 8 18.5t18 7.5zM447 586q10 0 17.5 -7.5t7.5 -18.5q0 -10 -7.5 -18t-18.5 -8q-10 0 -18 8t-8 18
q0 11 8 18.5t19 7.5zM379 586q10 0 17.5 -7.5t7.5 -18.5q0 -10 -7.5 -18t-18.5 -8q-10 0 -18 8t-8 18q0 11 8 18.5t19 7.5z" />
    <glyph glyph-name="uniFC77" unicode="&#xfe9c;&#xfeb0;" horiz-adv-x="551" arabic-form="final" 
d="M551 0v20q14 0 17 -2.5t3 -7.5q0 -4 -3 -7t-17 -3zM536 0q-47 0 -76.5 14.5t-43.5 46t-14 81.5v300h20v-300q0 -44 11 -71t36.5 -39t66.5 -12h15v-20h-15zM286 273q-36 0 -70 5t-66 15v20q32 -9 66 -14.5t70 -5.5t70 5.5t66 14.5v-20q-31 -10 -65.5 -15t-70.5 -5zM0 -230
q49 1 82 21t50.5 59.5t17.5 96.5v495h20v-495q0 -62 -19 -105.5t-55.5 -66.5t-89.5 -25zM413 638q11 0 18.5 -7.5t7.5 -18.5q0 -10 -7.5 -18t-18.5 -8q-10 0 -18 8t-8 18q0 11 8 18.5t18 7.5zM447 586q10 0 17.5 -7.5t7.5 -18.5q0 -10 -7.5 -18t-18.5 -8q-10 0 -18 8t-8 18
q0 11 8 18.5t19 7.5zM379 586q10 0 17.5 -7.5t7.5 -18.5q0 -10 -7.5 -18t-18.5 -8q-10 0 -18 8t-8 18q0 11 8 18.5t19 7.5zM160 534q-10 0 -18 8t-8 18q0 11 8 18.5t18 7.5q11 0 18.5 -7.5t7.5 -18.5q0 -10 -7.5 -18t-18.5 -8z" />
    <glyph glyph-name="uniFC79" unicode="&#xfe9c;&#xfee6;" horiz-adv-x="983" arabic-form="final" 
d="M983 0v20q14 0 17 -2.5t3 -7.5q0 -4 -3 -7t-17 -3zM968 0q-47 0 -76.5 14.5t-43.5 46t-14 81.5v300h20v-300q0 -44 11 -71t36.5 -39t66.5 -12h15v-20h-15zM718 273q-36 0 -70 5t-66 15v20q32 -9 66 -14.5t70 -5.5t70 5.5t66 14.5v-20q-31 -10 -65.5 -15t-70.5 -5z
M321 -250q-68 0 -120.5 23.5t-88 65.5t-54 98t-18.5 121q0 35 5.5 71.5t14.5 70.5l19 -4q-9 -34 -14 -69t-5 -69q0 -87 32.5 -152t91 -100.5t137.5 -35.5t137.5 35.5t91 100.5t32.5 152v384h20v-384q0 -65 -18.5 -121t-54 -98t-88 -65.5t-120.5 -23.5zM321 442q-10 0 -18 8
t-8 18q0 11 8 18.5t18 7.5q11 0 18.5 -7.5t7.5 -18.5q0 -10 -7.5 -18t-18.5 -8zM845 638q11 0 18.5 -7.5t7.5 -18.5q0 -10 -7.5 -18t-18.5 -8q-10 0 -18 8t-8 18q0 11 8 18.5t18 7.5zM879 586q10 0 17.5 -7.5t7.5 -18.5q0 -10 -7.5 -18t-18.5 -8q-10 0 -18 8t-8 18
q0 11 8 18.5t19 7.5zM811 586q10 0 17.5 -7.5t7.5 -18.5q0 -10 -7.5 -18t-18.5 -8q-10 0 -18 8t-8 18q0 11 8 18.5t19 7.5z" />
    <glyph glyph-name="uniFC8A" unicode="&#xfee8;&#xfeae;" horiz-adv-x="551" arabic-form="final" 
d="M551 0v20q14 0 17 -2.5t3 -7.5q0 -4 -3 -7t-17 -3zM536 0q-47 0 -76.5 14.5t-43.5 46t-14 81.5v300h20v-300q0 -44 11 -71t36.5 -39t66.5 -12h15v-20h-15zM286 273q-36 0 -70 5t-66 15v20q32 -9 66 -14.5t70 -5.5t70 5.5t66 14.5v-20q-31 -10 -65.5 -15t-70.5 -5zM0 -230
q49 1 82 21t50.5 59.5t17.5 96.5v495h20v-495q0 -62 -19 -105.5t-55.5 -66.5t-89.5 -25zM412 534q-10 0 -18 8t-8 18q0 11 8 18.5t18 7.5q11 0 18.5 -7.5t7.5 -18.5q0 -10 -7.5 -18t-18.5 -8z" />
    <glyph glyph-name="uniFC8B" unicode="&#xfee8;&#xfeb0;" horiz-adv-x="551" arabic-form="final" 
d="M551 0v20q14 0 17 -2.5t3 -7.5q0 -4 -3 -7t-17 -3zM536 0q-47 0 -76.5 14.5t-43.5 46t-14 81.5v300h20v-300q0 -44 11 -71t36.5 -39t66.5 -12h15v-20h-15zM286 273q-36 0 -70 5t-66 15v20q32 -9 66 -14.5t70 -5.5t70 5.5t66 14.5v-20q-31 -10 -65.5 -15t-70.5 -5zM0 -230
q49 1 82 21t50.5 59.5t17.5 96.5v495h20v-495q0 -62 -19 -105.5t-55.5 -66.5t-89.5 -25zM412 534q-10 0 -18 8t-8 18q0 11 8 18.5t18 7.5q11 0 18.5 -7.5t7.5 -18.5q0 -10 -7.5 -18t-18.5 -8zM160 534q-10 0 -18 8t-8 18q0 11 8 18.5t18 7.5q11 0 18.5 -7.5t7.5 -18.5
q0 -10 -7.5 -18t-18.5 -8z" />
    <glyph glyph-name="uniFC8D" unicode="&#xfee8;&#xfee6;" horiz-adv-x="983" arabic-form="final" 
d="M983 0v20q14 0 17 -2.5t3 -7.5q0 -4 -3 -7t-17 -3zM968 0q-47 0 -76.5 14.5t-43.5 46t-14 81.5v300h20v-300q0 -44 11 -71t36.5 -39t66.5 -12h15v-20h-15zM718 273q-36 0 -70 5t-66 15v20q32 -9 66 -14.5t70 -5.5t70 5.5t66 14.5v-20q-31 -10 -65.5 -15t-70.5 -5z
M321 -250q-68 0 -120.5 23.5t-88 65.5t-54 98t-18.5 121q0 35 5.5 71.5t14.5 70.5l19 -4q-9 -34 -14 -69t-5 -69q0 -87 32.5 -152t91 -100.5t137.5 -35.5t137.5 35.5t91 100.5t32.5 152v384h20v-384q0 -65 -18.5 -121t-54 -98t-88 -65.5t-120.5 -23.5zM321 442q-10 0 -18 8
t-8 18q0 11 8 18.5t18 7.5q11 0 18.5 -7.5t7.5 -18.5q0 -10 -7.5 -18t-18.5 -8zM844 534q-10 0 -18 8t-8 18q0 11 8 18.5t18 7.5q11 0 18.5 -7.5t7.5 -18.5q0 -10 -7.5 -18t-18.5 -8z" />
    <glyph glyph-name="uniFC91" unicode="&#xfef4;&#xfeae;" horiz-adv-x="551" arabic-form="final" 
d="M551 0v20q14 0 17 -2.5t3 -7.5q0 -4 -3 -7t-17 -3zM536 0q-47 0 -76.5 14.5t-43.5 46t-14 81.5v300h20v-300q0 -44 11 -71t36.5 -39t66.5 -12h15v-20h-15zM286 273q-36 0 -70 5t-66 15v20q32 -9 66 -14.5t70 -5.5t70 5.5t66 14.5v-20q-31 -10 -65.5 -15t-70.5 -5zM0 -230
q49 1 82 21t50.5 59.5t17.5 96.5v495h20v-495q0 -62 -19 -105.5t-55.5 -66.5t-89.5 -25zM446 -144q-10 0 -18 8t-8 18q0 11 8 18.5t19 7.5q10 0 17.5 -7.5t7.5 -18.5q0 -10 -7.5 -18t-18.5 -8zM378 -144q-10 0 -18 8t-8 18q0 11 8 18.5t19 7.5q10 0 17.5 -7.5t7.5 -18.5
q0 -10 -7.5 -18t-18.5 -8z" />
    <glyph glyph-name="uniFC92" unicode="&#xfef4;&#xfeb0;" horiz-adv-x="551" arabic-form="final" 
d="M551 0v20q14 0 17 -2.5t3 -7.5q0 -4 -3 -7t-17 -3zM536 0q-47 0 -76.5 14.5t-43.5 46t-14 81.5v300h20v-300q0 -44 11 -71t36.5 -39t66.5 -12h15v-20h-15zM286 273q-36 0 -70 5t-66 15v20q32 -9 66 -14.5t70 -5.5t70 5.5t66 14.5v-20q-31 -10 -65.5 -15t-70.5 -5zM0 -230
q49 1 82 21t50.5 59.5t17.5 96.5v495h20v-495q0 -62 -19 -105.5t-55.5 -66.5t-89.5 -25zM160 534q-10 0 -18 8t-8 18q0 11 8 18.5t18 7.5q11 0 18.5 -7.5t7.5 -18.5q0 -10 -7.5 -18t-18.5 -8zM446 -144q-10 0 -18 8t-8 18q0 11 8 18.5t19 7.5q10 0 17.5 -7.5t7.5 -18.5
q0 -10 -7.5 -18t-18.5 -8zM378 -144q-10 0 -18 8t-8 18q0 11 8 18.5t19 7.5q10 0 17.5 -7.5t7.5 -18.5q0 -10 -7.5 -18t-18.5 -8z" />
    <glyph glyph-name="uniFC94" unicode="&#xfef4;&#xfee6;" horiz-adv-x="983" arabic-form="final" 
d="M983 0v20q14 0 17 -2.5t3 -7.5q0 -4 -3 -7t-17 -3zM968 0q-47 0 -76.5 14.5t-43.5 46t-14 81.5v300h20v-300q0 -44 11 -71t36.5 -39t66.5 -12h15v-20h-15zM718 273q-36 0 -70 5t-66 15v20q32 -9 66 -14.5t70 -5.5t70 5.5t66 14.5v-20q-31 -10 -65.5 -15t-70.5 -5z
M321 -250q-68 0 -120.5 23.5t-88 65.5t-54 98t-18.5 121q0 35 5.5 71.5t14.5 70.5l19 -4q-9 -34 -14 -69t-5 -69q0 -87 32.5 -152t91 -100.5t137.5 -35.5t137.5 35.5t91 100.5t32.5 152v384h20v-384q0 -65 -18.5 -121t-54 -98t-88 -65.5t-120.5 -23.5zM321 442q-10 0 -18 8
t-8 18q0 11 8 18.5t18 7.5q11 0 18.5 -7.5t7.5 -18.5q0 -10 -7.5 -18t-18.5 -8zM878 -144q-10 0 -18 8t-8 18q0 11 8 18.5t19 7.5q10 0 17.5 -7.5t7.5 -18.5q0 -10 -7.5 -18t-18.5 -8zM810 -144q-10 0 -18 8t-8 18q0 11 8 18.5t19 7.5q10 0 17.5 -7.5t7.5 -18.5
q0 -10 -7.5 -18t-18.5 -8z" />
    <glyph glyph-name="uniFD0D" unicode="&#xfeb7;&#xfeae;" horiz-adv-x="1038" arabic-form="isolated" 
d="M811 0q-34 0 -60 5.5t-46 17t-37 27.5l14 16q15 -15 33 -25t41.5 -15.5t55.5 -5.5q47 0 77 12t44.5 39t14.5 71v300h20v-300q0 -76 -38.5 -109t-118.5 -33zM287 273q-36 0 -70 5t-66 15v20q32 -9 66 -14.5t70 -5.5t70 5.5t66 14.5v-20q-31 -10 -65.5 -15t-70.5 -5zM560 0
q-53 0 -88 14.5t-52 46t-17 81.5v300h20v-300q0 -44 14.5 -71t45 -39t77.5 -12v-20zM560 0v20q47 0 77.5 12t45 39t14.5 71v240h20v-240q0 -76 -38.5 -109t-118.5 -33zM0 -230q49 1 82 21t50.5 59.5t17.5 96.5v495h20v-495q0 -62 -19 -105.5t-55.5 -66.5t-89.5 -25zM707 638
q11 0 18.5 -7.5t7.5 -18.5q0 -10 -7.5 -18t-18.5 -8q-10 0 -18 8t-8 18q0 11 8 18.5t18 7.5zM741 586q10 0 17.5 -7.5t7.5 -18.5q0 -10 -7.5 -18t-18.5 -8q-10 0 -18 8t-8 18q0 11 8 18.5t19 7.5zM673 586q10 0 17.5 -7.5t7.5 -18.5q0 -10 -7.5 -18t-18.5 -8q-10 0 -18 8
t-8 18q0 11 8 18.5t19 7.5z" />
    <glyph glyph-name="uniFD0E" unicode="&#xfeb3;&#xfeae;" horiz-adv-x="1038" arabic-form="isolated" 
d="M811 0q-34 0 -60 5.5t-46 17t-37 27.5l14 16q15 -15 33 -25t41.5 -15.5t55.5 -5.5q47 0 77 12t44.5 39t14.5 71v300h20v-300q0 -76 -38.5 -109t-118.5 -33zM287 273q-36 0 -70 5t-66 15v20q32 -9 66 -14.5t70 -5.5t70 5.5t66 14.5v-20q-31 -10 -65.5 -15t-70.5 -5zM560 0
q-53 0 -88 14.5t-52 46t-17 81.5v300h20v-300q0 -44 14.5 -71t45 -39t77.5 -12v-20zM560 0v20q47 0 77.5 12t45 39t14.5 71v240h20v-240q0 -76 -38.5 -109t-118.5 -33zM0 -230q49 1 82 21t50.5 59.5t17.5 96.5v495h20v-495q0 -62 -19 -105.5t-55.5 -66.5t-89.5 -25z" />
    <glyph glyph-name="uniFD0F" unicode="&#xfebb;&#xfeae;" horiz-adv-x="1146" arabic-form="isolated" 
d="M288 273q-36 0 -70 5t-66 15v20q32 -9 66 -14.5t70 -5.5t70 5.5t66 14.5v-20q-31 -10 -65.5 -15t-70.5 -5zM561 0q-53 0 -88 14.5t-52 46t-17 81.5v300h20v-300q0 -44 14.5 -71t45 -39t77.5 -12h515v-20h-515zM1056 0v173q0 88 -29.5 154t-83.5 103t-128 37
q-67 0 -121.5 -29.5t-96.5 -77.5t-70.5 -106.5t-44 -117t-17.5 -107.5h-20q2 42 13.5 92t32.5 101.5t52.5 98.5t72.5 84.5t91 59.5t110 22q64 0 112.5 -25t81 -69t49 -100.5t16.5 -119.5v-173h-20zM0 -230q49 1 82 21t50.5 59.5t17.5 96.5v495h20v-495q0 -62 -19 -105.5
t-55.5 -66.5t-89.5 -25z" />
    <glyph glyph-name="uniFD10" unicode="&#xfebf;&#xfeae;" horiz-adv-x="1146" arabic-form="isolated" 
d="M288 273q-36 0 -70 5t-66 15v20q32 -9 66 -14.5t70 -5.5t70 5.5t66 14.5v-20q-31 -10 -65.5 -15t-70.5 -5zM561 0q-53 0 -88 14.5t-52 46t-17 81.5v300h20v-300q0 -44 14.5 -71t45 -39t77.5 -12h515v-20h-515zM1056 0v173q0 88 -29.5 154t-83.5 103t-128 37
q-67 0 -121.5 -29.5t-96.5 -77.5t-70.5 -106.5t-44 -117t-17.5 -107.5h-20q2 42 13.5 92t32.5 101.5t52.5 98.5t72.5 84.5t91 59.5t110 22q64 0 112.5 -25t81 -69t49 -100.5t16.5 -119.5v-173h-20zM0 -230q49 1 82 21t50.5 59.5t17.5 96.5v495h20v-495q0 -62 -19 -105.5
t-55.5 -66.5t-89.5 -25zM816 579q-10 0 -18 8t-8 18q0 11 8 18.5t18 7.5q11 0 18.5 -7.5t7.5 -18.5q0 -10 -7.5 -18t-18.5 -8z" />
    <glyph glyph-name="uniFD29" unicode="&#xfeb8;&#xfeae;" horiz-adv-x="1096" arabic-form="final" 
d="M1096 0v20q14 0 17 -2.5t3 -7.5q0 -4 -3 -7t-17 -3zM1081 0q-47 0 -76.5 14.5t-43.5 46t-14 81.5h20q0 -44 11 -71t36.5 -39t66.5 -12h15v-20h-15zM810 0q-34 0 -60 5.5t-46 17t-37 27.5l14 16q15 -15 33 -25t41.5 -15.5t55.5 -5.5q47 0 77 12t44.5 39t14.5 71v300h20
v-300q0 -76 -38.5 -109t-118.5 -33zM286 273q-36 0 -70 5t-66 15v20q32 -9 66 -14.5t70 -5.5t70 5.5t66 14.5v-20q-31 -10 -65.5 -15t-70.5 -5zM559 0q-53 0 -88 14.5t-52 46t-17 81.5v300h20v-300q0 -44 14.5 -71t45 -39t77.5 -12v-20zM559 0v20q47 0 77.5 12t45 39
t14.5 71v240h20v-240q0 -76 -38.5 -109t-118.5 -33zM0 -230q49 1 82 21t50.5 59.5t17.5 96.5v495h20v-495q0 -62 -19 -105.5t-55.5 -66.5t-89.5 -25zM707 638q11 0 18.5 -7.5t7.5 -18.5q0 -10 -7.5 -18t-18.5 -8q-10 0 -18 8t-8 18q0 11 8 18.5t18 7.5zM741 586
q10 0 17.5 -7.5t7.5 -18.5q0 -10 -7.5 -18t-18.5 -8q-10 0 -18 8t-8 18q0 11 8 18.5t19 7.5zM673 586q10 0 17.5 -7.5t7.5 -18.5q0 -10 -7.5 -18t-18.5 -8q-10 0 -18 8t-8 18q0 11 8 18.5t19 7.5z" />
    <glyph glyph-name="uniFD2A" unicode="&#xfeb4;&#xfeae;" horiz-adv-x="1096" arabic-form="final" 
d="M1096 0v20q14 0 17 -2.5t3 -7.5q0 -4 -3 -7t-17 -3zM1081 0q-47 0 -76.5 14.5t-43.5 46t-14 81.5h20q0 -44 11 -71t36.5 -39t66.5 -12h15v-20h-15zM810 0q-34 0 -60 5.5t-46 17t-37 27.5l14 16q15 -15 33 -25t41.5 -15.5t55.5 -5.5q47 0 77 12t44.5 39t14.5 71v300h20
v-300q0 -76 -38.5 -109t-118.5 -33zM286 273q-36 0 -70 5t-66 15v20q32 -9 66 -14.5t70 -5.5t70 5.5t66 14.5v-20q-31 -10 -65.5 -15t-70.5 -5zM559 0q-53 0 -88 14.5t-52 46t-17 81.5v300h20v-300q0 -44 14.5 -71t45 -39t77.5 -12v-20zM559 0v20q47 0 77.5 12t45 39
t14.5 71v240h20v-240q0 -76 -38.5 -109t-118.5 -33zM0 -230q49 1 82 21t50.5 59.5t17.5 96.5v495h20v-495q0 -62 -19 -105.5t-55.5 -66.5t-89.5 -25z" />
    <glyph glyph-name="uniFD2B" unicode="&#xfebc;&#xfeae;" horiz-adv-x="1168" arabic-form="final" 
d="M1168 0v20q14 0 17 -2.5t3 -7.5q0 -4 -3 -7t-17 -3zM561 0q-53 0 -88 14.5t-52 46t-17 81.5v300h20v-300q0 -44 14.5 -71t45 -39t77.5 -12h515v-20h-515zM288 273q-36 0 -70 5t-66 15v20q32 -9 66 -14.5t70 -5.5t70 5.5t66 14.5v-20q-31 -10 -65.5 -15t-70.5 -5zM1056 0
v173q0 88 -29.5 154t-83.5 103t-128 37q-67 0 -121.5 -29.5t-96.5 -77.5t-70.5 -106.5t-44 -117t-17.5 -107.5h-20q2 42 13.5 92t32.5 101.5t52.5 98.5t72.5 84.5t91 59.5t110 22q64 0 112.5 -25t81 -69t49 -100.5t16.5 -119.5v-173h-20zM1066 0v20h102v-20h-102zM0 -230
q49 1 82 21t50.5 59.5t17.5 96.5v495h20v-495q0 -62 -19 -105.5t-55.5 -66.5t-89.5 -25z" />
    <glyph glyph-name="uniFD2C" unicode="&#xfec0;&#xfeae;" horiz-adv-x="1168" arabic-form="final" 
d="M1168 0v20q14 0 17 -2.5t3 -7.5q0 -4 -3 -7t-17 -3zM561 0q-53 0 -88 14.5t-52 46t-17 81.5v300h20v-300q0 -44 14.5 -71t45 -39t77.5 -12h515v-20h-515zM288 273q-36 0 -70 5t-66 15v20q32 -9 66 -14.5t70 -5.5t70 5.5t66 14.5v-20q-31 -10 -65.5 -15t-70.5 -5zM1056 0
v173q0 88 -29.5 154t-83.5 103t-128 37q-67 0 -121.5 -29.5t-96.5 -77.5t-70.5 -106.5t-44 -117t-17.5 -107.5h-20q2 42 13.5 92t32.5 101.5t52.5 98.5t72.5 84.5t91 59.5t110 22q64 0 112.5 -25t81 -69t49 -100.5t16.5 -119.5v-173h-20zM1066 0v20h102v-20h-102zM0 -230
q49 1 82 21t50.5 59.5t17.5 96.5v495h20v-495q0 -62 -19 -105.5t-55.5 -66.5t-89.5 -25zM816 579q-10 0 -18 8t-8 18q0 11 8 18.5t18 7.5q11 0 18.5 -7.5t7.5 -18.5q0 -10 -7.5 -18t-18.5 -8z" />
    <glyph glyph-name="uniFDF2" unicode="&#x627;&#xfedf;&#xfee0;&#xfeea;" horiz-adv-x="1256" arabic-form="isolated" 
d="M571 0v20h6q53 0 85 12t47 39t15 71v515h20v-515q0 -50 -17.5 -81.5t-54 -46t-95.5 -14.5h-6zM858 0q-47 0 -76.5 14.5t-43.5 46t-14 81.5h20q0 -44 11 -71t36.5 -39t66.5 -12h5v-20h-5zM863 0v20h113v637h20v-657h-133zM1146 0v799h20v-799h-20zM571 0v20q14 0 17 -2.5
t3 -7.5q0 -4 -3 -7t-17 -3zM307 45q-58 0 -106.5 13t-84.5 38.5t-56 63t-20 85.5q0 59 28.5 103t81 75.5t123.5 50.5t155 28l2 -20q-91 -9 -160 -29t-116 -50.5t-70.5 -70t-23.5 -87.5q0 -55 30 -95.5t85.5 -62.5t131.5 -22q35 0 68.5 5t64.5 14l6 -20q-33 -9 -68 -14
t-71 -5zM556 0q-47 0 -76.5 14.5t-43.5 46t-14 81.5v385h20v-385q0 -44 11 -71t36.5 -39t66.5 -12h15v-20h-15zM788 704q-16 0 -30.5 8.5t-24 23t-9.5 33.5v48h20v-48q0 -18 13 -31.5t31 -13.5t31.5 18t13.5 43q0 14 -4 30t-9 26l17 10q7 -12 11.5 -30.5t4.5 -35.5
q0 -22 -8.5 -40.5t-23 -29.5t-33.5 -11zM680 704q-18 0 -33 11t-23.5 29.5t-8.5 40.5q0 17 4.5 35.5t11.5 30.5l17 -10q-5 -10 -9 -26t-4 -30q0 -25 13.5 -43t31.5 -18t31 13.5t13 31.5v48h20v-48q0 -19 -9.5 -33.5t-24 -23t-30.5 -8.5zM725 868v119h20v-119h-20z" />
    <glyph glyph-name="uniFEF5" unicode="&#xfedf;&#xfe82;" horiz-adv-x="612" arabic-form="isolated" 
d="M502 0v799h20v-799h-20zM90 0v20h432v-20h-432zM238 0v577h20v-577h-20zM114 609q0 39 25.5 52t62.5 13q25 0 58.5 -3t66 -5.5t53.5 -0.5v-20q-21 -2 -54 0.5t-67.5 5.5t-58.5 3q-37 0 -51.5 -11t-14.5 -34h-20z" />
    <glyph glyph-name="uniFEF6" unicode="&#xfee0;&#xfe82;" horiz-adv-x="641" arabic-form="final" 
d="M238 0v577h20v-577h-20zM90 0v20h265v-20h-265zM641 0v20q14 0 17 -2.5t3 -7.5q0 -4 -3 -7t-17 -3zM349 0q-14 0 -17 3t-3 7q0 5 3 7.5t17 2.5v-20zM349 0v20h6q53 0 85 12t47 39t15 71v657h20v-657q0 -50 -17.5 -81.5t-54 -46t-95.5 -14.5h-6zM636 0q-47 0 -76.5 14.5
t-43.5 46t-14 81.5h20q0 -44 11 -71t36.5 -39t66.5 -12h5v-20h-5zM115 609q0 39 25.5 52t62.5 13q25 0 58.5 -3t66 -5.5t53.5 -0.5v-20q-21 -2 -54 0.5t-67.5 5.5t-58.5 3q-37 0 -51.5 -11t-14.5 -34h-20z" />
    <glyph glyph-name="uniFEF7" unicode="&#xfedf;&#xfe84;" horiz-adv-x="612" arabic-form="isolated" 
d="M502 0v799h20v-799h-20zM90 0v20h432v-20h-432zM238 0v577h20v-577h-20zM263 619q-34 0 -57.5 14.5t-23.5 42.5q0 19 11 31t29 18.5t40 6.5q13 0 26 -2t23 -5l-9 -18q-8 3 -18.5 4t-21.5 1q-28 0 -44 -9.5t-16 -25.5q0 -17 16.5 -27.5t44.5 -10.5v-20zM176 619v20h141
v-20h-141z" />
    <glyph glyph-name="uniFEF8" unicode="&#xfee0;&#xfe84;" horiz-adv-x="641" arabic-form="final" 
d="M238 0v577h20v-577h-20zM90 0v20h265v-20h-265zM641 0v20q14 0 17 -2.5t3 -7.5q0 -4 -3 -7t-17 -3zM349 0q-14 0 -17 3t-3 7q0 5 3 7.5t17 2.5v-20zM349 0v20h6q53 0 85 12t47 39t15 71v657h20v-657q0 -50 -17.5 -81.5t-54 -46t-95.5 -14.5h-6zM636 0q-47 0 -76.5 14.5
t-43.5 46t-14 81.5h20q0 -44 11 -71t36.5 -39t66.5 -12h5v-20h-5zM264 619q-34 0 -57.5 14.5t-23.5 42.5q0 19 11 31t29 18.5t40 6.5q13 0 26 -2t23 -5l-9 -18q-8 3 -18.5 4t-21.5 1q-28 0 -44 -9.5t-16 -25.5q0 -17 16.5 -27.5t44.5 -10.5v-20zM177 619v20h141v-20h-141z
" />
    <glyph glyph-name="uniFEF9" unicode="&#xfedf;&#xfe88;" horiz-adv-x="612" arabic-form="isolated" 
d="M502 0v799h20v-799h-20zM90 0v20h432v-20h-432zM238 0v577h20v-577h-20zM263 -155q-34 0 -57.5 14.5t-23.5 42.5q0 19 11 31t29 18.5t40 6.5q13 0 26 -2t23 -5l-9 -18q-8 3 -18.5 4t-21.5 1q-28 0 -44 -9.5t-16 -25.5q0 -17 16.5 -27.5t44.5 -10.5v-20zM176 -155v20h141
v-20h-141z" />
    <glyph glyph-name="uniFEFA" unicode="&#xfee0;&#xfe88;" horiz-adv-x="641" arabic-form="final" 
d="M238 0v577h20v-577h-20zM90 0v20h265v-20h-265zM641 0v20q14 0 17 -2.5t3 -7.5q0 -4 -3 -7t-17 -3zM349 0q-14 0 -17 3t-3 7q0 5 3 7.5t17 2.5v-20zM349 0v20h6q53 0 85 12t47 39t15 71v657h20v-657q0 -50 -17.5 -81.5t-54 -46t-95.5 -14.5h-6zM636 0q-47 0 -76.5 14.5
t-43.5 46t-14 81.5h20q0 -44 11 -71t36.5 -39t66.5 -12h5v-20h-5zM264 -155q-34 0 -57.5 14.5t-23.5 42.5q0 19 11 31t29 18.5t40 6.5q13 0 26 -2t23 -5l-9 -18q-8 3 -18.5 4t-21.5 1q-28 0 -44 -9.5t-16 -25.5q0 -17 16.5 -27.5t44.5 -10.5v-20zM177 -155v20h141v-20h-141z
" />
    <glyph glyph-name="uniFEFB" unicode="&#xfedf;&#xfe8e;" horiz-adv-x="612" arabic-form="isolated" 
d="M502 0v799h20v-799h-20zM90 0v20h432v-20h-432zM238 0v577h20v-577h-20z" />
    <glyph glyph-name="uniFEFC" unicode="&#xfee0;&#xfe8e;" horiz-adv-x="641" arabic-form="final" 
d="M238 0v577h20v-577h-20zM90 0v20h265v-20h-265zM641 0v20q14 0 17 -2.5t3 -7.5q0 -4 -3 -7t-17 -3zM349 0q-14 0 -17 3t-3 7q0 5 3 7.5t17 2.5v-20zM349 0v20h6q53 0 85 12t47 39t15 71v657h20v-657q0 -50 -17.5 -81.5t-54 -46t-95.5 -14.5h-6zM636 0q-47 0 -76.5 14.5
t-43.5 46t-14 81.5h20q0 -44 11 -71t36.5 -39t66.5 -12h5v-20h-5z" />
    <glyph glyph-name="f_f" unicode="ff" horiz-adv-x="600" 
d="M117 590q0 46 19.5 83.5t53 59t73.5 19.5q21 -1 42.5 -7t40.5 -17l-11 -17q-16 10 -34.5 15.5t-37.5 5.5q-35 0 -64 -18.5t-45.5 -50.5t-16.5 -73v-590h-20v590zM52 507h253v-20h-253v20zM422 590q0 46 19.5 83.5t53 59t73.5 19.5q21 -1 42.5 -7t40.5 -17l-11 -17
q-16 10 -34.5 15.5t-37.5 5.5q-35 0 -64 -18.5t-45.5 -50.5t-16.5 -73v-590h-20v590zM357 507h253v-20h-253v20z" />
    <glyph glyph-name="f_f_i" unicode="ffi" horiz-adv-x="840" 
d="M117 590q0 46 19.5 83.5t53 59t73.5 19.5q21 -1 42.5 -7t40.5 -17l-11 -17q-16 10 -34.5 15.5t-37.5 5.5q-35 0 -64 -18.5t-45.5 -50.5t-16.5 -73v-590h-20v590zM52 507h253v-20h-253v20zM422 590q0 46 19.5 83.5t53 59t73.5 19.5q21 -1 42.5 -7t40.5 -17l-11 -17
q-16 10 -34.5 15.5t-37.5 5.5q-35 0 -64 -18.5t-45.5 -50.5t-16.5 -73v-590h-20v590zM357 507h253v-20h-253v20zM710 517h20v-517h-20v517zM720 692q11 0 18.5 -7.5t7.5 -18.5q0 -10 -7.5 -18t-18.5 -8q-10 0 -18 8t-8 18q0 11 8 18.5t18 7.5z" />
    <glyph glyph-name="f_f_l" unicode="ffl" horiz-adv-x="850" 
d="M117 590q0 46 19.5 83.5t53 59t73.5 19.5q21 -1 42.5 -7t40.5 -17l-11 -17q-16 10 -34.5 15.5t-37.5 5.5q-35 0 -64 -18.5t-45.5 -50.5t-16.5 -73v-590h-20v590zM52 507h253v-20h-253v20zM422 590q0 46 19.5 83.5t53 59t73.5 19.5q21 -1 42.5 -7t40.5 -17l-11 -17
q-16 10 -34.5 15.5t-37.5 5.5q-35 0 -64 -18.5t-45.5 -50.5t-16.5 -73v-590h-20v590zM357 507h253v-20h-253v20zM715 742h20v-742h-20v742z" />
    <glyph glyph-name="peh_rehar.fina" unicode="&#xfb59;&#xfeae;" horiz-adv-x="551" 
d="M551 0v20q14 0 17 -2.5t3 -7.5q0 -4 -3 -7t-17 -3zM536 0q-47 0 -76.5 14.5t-43.5 46t-14 81.5v300h20v-300q0 -44 11 -71t36.5 -39t66.5 -12h15v-20h-15zM286 273q-36 0 -70 5t-66 15v20q32 -9 66 -14.5t70 -5.5t70 5.5t66 14.5v-20q-31 -10 -65.5 -15t-70.5 -5zM0 -230
q49 1 82 21t50.5 59.5t17.5 96.5v495h20v-495q0 -62 -19 -105.5t-55.5 -66.5t-89.5 -25zM414 -196q-10 0 -18 8t-8 18q0 11 8 18.5t18 7.5q11 0 18.5 -7.5t7.5 -18.5q0 -10 -7.5 -18t-18.5 -8zM447 -144q-10 0 -18 8t-8 18q0 11 8 18.5t19 7.5q10 0 17.5 -7.5t7.5 -18.5
q0 -10 -7.5 -18t-18.5 -8zM379 -144q-10 0 -18 8t-8 18q0 11 8 18.5t19 7.5q10 0 17.5 -7.5t7.5 -18.5q0 -10 -7.5 -18t-18.5 -8z" />
    <glyph glyph-name="peh_zainar.fina" unicode="&#xfb59;&#xfeb0;" horiz-adv-x="551" 
d="M551 0v20q14 0 17 -2.5t3 -7.5q0 -4 -3 -7t-17 -3zM536 0q-47 0 -76.5 14.5t-43.5 46t-14 81.5v300h20v-300q0 -44 11 -71t36.5 -39t66.5 -12h15v-20h-15zM286 273q-36 0 -70 5t-66 15v20q32 -9 66 -14.5t70 -5.5t70 5.5t66 14.5v-20q-31 -10 -65.5 -15t-70.5 -5zM0 -230
q49 1 82 21t50.5 59.5t17.5 96.5v495h20v-495q0 -62 -19 -105.5t-55.5 -66.5t-89.5 -25zM414 -196q-10 0 -18 8t-8 18q0 11 8 18.5t18 7.5q11 0 18.5 -7.5t7.5 -18.5q0 -10 -7.5 -18t-18.5 -8zM447 -144q-10 0 -18 8t-8 18q0 11 8 18.5t19 7.5q10 0 17.5 -7.5t7.5 -18.5
q0 -10 -7.5 -18t-18.5 -8zM379 -144q-10 0 -18 8t-8 18q0 11 8 18.5t19 7.5q10 0 17.5 -7.5t7.5 -18.5q0 -10 -7.5 -18t-18.5 -8zM160 534q-10 0 -18 8t-8 18q0 11 8 18.5t18 7.5q11 0 18.5 -7.5t7.5 -18.5q0 -10 -7.5 -18t-18.5 -8z" />
    <glyph glyph-name="peh_noonar.fina" unicode="&#xfb59;&#xfee6;" horiz-adv-x="983" 
d="M983 0v20q14 0 17 -2.5t3 -7.5q0 -4 -3 -7t-17 -3zM968 0q-47 0 -76.5 14.5t-43.5 46t-14 81.5v300h20v-300q0 -44 11 -71t36.5 -39t66.5 -12h15v-20h-15zM718 273q-36 0 -70 5t-66 15v20q32 -9 66 -14.5t70 -5.5t70 5.5t66 14.5v-20q-31 -10 -65.5 -15t-70.5 -5z
M321 -250q-68 0 -120.5 23.5t-88 65.5t-54 98t-18.5 121q0 35 5.5 71.5t14.5 70.5l19 -4q-9 -34 -14 -69t-5 -69q0 -87 32.5 -152t91 -100.5t137.5 -35.5t137.5 35.5t91 100.5t32.5 152v384h20v-384q0 -65 -18.5 -121t-54 -98t-88 -65.5t-120.5 -23.5zM321 442q-10 0 -18 8
t-8 18q0 11 8 18.5t18 7.5q11 0 18.5 -7.5t7.5 -18.5q0 -10 -7.5 -18t-18.5 -8zM846 -196q-10 0 -18 8t-8 18q0 11 8 18.5t18 7.5q11 0 18.5 -7.5t7.5 -18.5q0 -10 -7.5 -18t-18.5 -8zM879 -144q-10 0 -18 8t-8 18q0 11 8 18.5t19 7.5q10 0 17.5 -7.5t7.5 -18.5
q0 -10 -7.5 -18t-18.5 -8zM811 -144q-10 0 -18 8t-8 18q0 11 8 18.5t19 7.5q10 0 17.5 -7.5t7.5 -18.5q0 -10 -7.5 -18t-18.5 -8z" />
    <glyph glyph-name="seen_zainar" unicode="&#xfeb3;&#xfeb0;" horiz-adv-x="1038" 
d="M811 0q-34 0 -60 5.5t-46 17t-37 27.5l14 16q15 -15 33 -25t41.5 -15.5t55.5 -5.5q47 0 77 12t44.5 39t14.5 71v300h20v-300q0 -76 -38.5 -109t-118.5 -33zM287 273q-36 0 -70 5t-66 15v20q32 -9 66 -14.5t70 -5.5t70 5.5t66 14.5v-20q-31 -10 -65.5 -15t-70.5 -5zM560 0
q-53 0 -88 14.5t-52 46t-17 81.5v300h20v-300q0 -44 14.5 -71t45 -39t77.5 -12v-20zM560 0v20q47 0 77.5 12t45 39t14.5 71v240h20v-240q0 -76 -38.5 -109t-118.5 -33zM0 -230q49 1 82 21t50.5 59.5t17.5 96.5v495h20v-495q0 -62 -19 -105.5t-55.5 -66.5t-89.5 -25zM160 534
q-10 0 -18 8t-8 18q0 11 8 18.5t18 7.5q11 0 18.5 -7.5t7.5 -18.5q0 -10 -7.5 -18t-18.5 -8z" />
    <glyph glyph-name="seen_zainar.fina" unicode="&#xfeb4;&#xfeb0;" horiz-adv-x="1096" 
d="M1096 0v20q14 0 17 -2.5t3 -7.5q0 -4 -3 -7t-17 -3zM1081 0q-47 0 -76.5 14.5t-43.5 46t-14 81.5h20q0 -44 11 -71t36.5 -39t66.5 -12h15v-20h-15zM810 0q-34 0 -60 5.5t-46 17t-37 27.5l14 16q15 -15 33 -25t41.5 -15.5t55.5 -5.5q47 0 77 12t44.5 39t14.5 71v300h20
v-300q0 -76 -38.5 -109t-118.5 -33zM286 273q-36 0 -70 5t-66 15v20q32 -9 66 -14.5t70 -5.5t70 5.5t66 14.5v-20q-31 -10 -65.5 -15t-70.5 -5zM559 0q-53 0 -88 14.5t-52 46t-17 81.5v300h20v-300q0 -44 14.5 -71t45 -39t77.5 -12v-20zM559 0v20q47 0 77.5 12t45 39
t14.5 71v240h20v-240q0 -76 -38.5 -109t-118.5 -33zM0 -230q49 1 82 21t50.5 59.5t17.5 96.5v495h20v-495q0 -62 -19 -105.5t-55.5 -66.5t-89.5 -25zM160 534q-10 0 -18 8t-8 18q0 11 8 18.5t18 7.5q11 0 18.5 -7.5t7.5 -18.5q0 -10 -7.5 -18t-18.5 -8z" />
    <glyph glyph-name="sheen_zainar" unicode="&#xfeb7;&#xfeb0;" horiz-adv-x="1038" 
d="M811 0q-34 0 -60 5.5t-46 17t-37 27.5l14 16q15 -15 33 -25t41.5 -15.5t55.5 -5.5q47 0 77 12t44.5 39t14.5 71v300h20v-300q0 -76 -38.5 -109t-118.5 -33zM287 273q-36 0 -70 5t-66 15v20q32 -9 66 -14.5t70 -5.5t70 5.5t66 14.5v-20q-31 -10 -65.5 -15t-70.5 -5zM560 0
q-53 0 -88 14.5t-52 46t-17 81.5v300h20v-300q0 -44 14.5 -71t45 -39t77.5 -12v-20zM560 0v20q47 0 77.5 12t45 39t14.5 71v240h20v-240q0 -76 -38.5 -109t-118.5 -33zM0 -230q49 1 82 21t50.5 59.5t17.5 96.5v495h20v-495q0 -62 -19 -105.5t-55.5 -66.5t-89.5 -25zM707 638
q11 0 18.5 -7.5t7.5 -18.5q0 -10 -7.5 -18t-18.5 -8q-10 0 -18 8t-8 18q0 11 8 18.5t18 7.5zM741 586q10 0 17.5 -7.5t7.5 -18.5q0 -10 -7.5 -18t-18.5 -8q-10 0 -18 8t-8 18q0 11 8 18.5t19 7.5zM673 586q10 0 17.5 -7.5t7.5 -18.5q0 -10 -7.5 -18t-18.5 -8q-10 0 -18 8
t-8 18q0 11 8 18.5t19 7.5zM160 534q-10 0 -18 8t-8 18q0 11 8 18.5t18 7.5q11 0 18.5 -7.5t7.5 -18.5q0 -10 -7.5 -18t-18.5 -8z" />
    <glyph glyph-name="sheen_zainar.fina" unicode="&#xfeb8;&#xfeb0;" horiz-adv-x="1096" 
d="M1096 0v20q14 0 17 -2.5t3 -7.5q0 -4 -3 -7t-17 -3zM1081 0q-47 0 -76.5 14.5t-43.5 46t-14 81.5h20q0 -44 11 -71t36.5 -39t66.5 -12h15v-20h-15zM810 0q-34 0 -60 5.5t-46 17t-37 27.5l14 16q15 -15 33 -25t41.5 -15.5t55.5 -5.5q47 0 77 12t44.5 39t14.5 71v300h20
v-300q0 -76 -38.5 -109t-118.5 -33zM286 273q-36 0 -70 5t-66 15v20q32 -9 66 -14.5t70 -5.5t70 5.5t66 14.5v-20q-31 -10 -65.5 -15t-70.5 -5zM559 0q-53 0 -88 14.5t-52 46t-17 81.5v300h20v-300q0 -44 14.5 -71t45 -39t77.5 -12v-20zM559 0v20q47 0 77.5 12t45 39
t14.5 71v240h20v-240q0 -76 -38.5 -109t-118.5 -33zM0 -230q49 1 82 21t50.5 59.5t17.5 96.5v495h20v-495q0 -62 -19 -105.5t-55.5 -66.5t-89.5 -25zM707 638q11 0 18.5 -7.5t7.5 -18.5q0 -10 -7.5 -18t-18.5 -8q-10 0 -18 8t-8 18q0 11 8 18.5t18 7.5zM741 586
q10 0 17.5 -7.5t7.5 -18.5q0 -10 -7.5 -18t-18.5 -8q-10 0 -18 8t-8 18q0 11 8 18.5t19 7.5zM673 586q10 0 17.5 -7.5t7.5 -18.5q0 -10 -7.5 -18t-18.5 -8q-10 0 -18 8t-8 18q0 11 8 18.5t19 7.5zM160 534q-10 0 -18 8t-8 18q0 11 8 18.5t18 7.5q11 0 18.5 -7.5t7.5 -18.5
q0 -10 -7.5 -18t-18.5 -8z" />
    <glyph glyph-name="sad_zainar" unicode="&#xfebb;&#xfeb0;" horiz-adv-x="1146" 
d="M288 273q-36 0 -70 5t-66 15v20q32 -9 66 -14.5t70 -5.5t70 5.5t66 14.5v-20q-31 -10 -65.5 -15t-70.5 -5zM561 0q-53 0 -88 14.5t-52 46t-17 81.5v300h20v-300q0 -44 14.5 -71t45 -39t77.5 -12h515v-20h-515zM1056 0v173q0 88 -29.5 154t-83.5 103t-128 37
q-67 0 -121.5 -29.5t-96.5 -77.5t-70.5 -106.5t-44 -117t-17.5 -107.5h-20q2 42 13.5 92t32.5 101.5t52.5 98.5t72.5 84.5t91 59.5t110 22q64 0 112.5 -25t81 -69t49 -100.5t16.5 -119.5v-173h-20zM0 -230q49 1 82 21t50.5 59.5t17.5 96.5v495h20v-495q0 -62 -19 -105.5
t-55.5 -66.5t-89.5 -25zM160 534q-10 0 -18 8t-8 18q0 11 8 18.5t18 7.5q11 0 18.5 -7.5t7.5 -18.5q0 -10 -7.5 -18t-18.5 -8z" />
    <glyph glyph-name="sad_zainar.fina" unicode="&#xfebc;&#xfeb0;" horiz-adv-x="1168" 
d="M1168 0v20q14 0 17 -2.5t3 -7.5q0 -4 -3 -7t-17 -3zM561 0q-53 0 -88 14.5t-52 46t-17 81.5v300h20v-300q0 -44 14.5 -71t45 -39t77.5 -12h515v-20h-515zM288 273q-36 0 -70 5t-66 15v20q32 -9 66 -14.5t70 -5.5t70 5.5t66 14.5v-20q-31 -10 -65.5 -15t-70.5 -5zM1056 0
v173q0 88 -29.5 154t-83.5 103t-128 37q-67 0 -121.5 -29.5t-96.5 -77.5t-70.5 -106.5t-44 -117t-17.5 -107.5h-20q2 42 13.5 92t32.5 101.5t52.5 98.5t72.5 84.5t91 59.5t110 22q64 0 112.5 -25t81 -69t49 -100.5t16.5 -119.5v-173h-20zM1066 0v20h102v-20h-102zM0 -230
q49 1 82 21t50.5 59.5t17.5 96.5v495h20v-495q0 -62 -19 -105.5t-55.5 -66.5t-89.5 -25zM160 534q-10 0 -18 8t-8 18q0 11 8 18.5t18 7.5q11 0 18.5 -7.5t7.5 -18.5q0 -10 -7.5 -18t-18.5 -8z" />
    <glyph glyph-name="dad_zainar" unicode="&#xfebf;&#xfeb0;" horiz-adv-x="1146" 
d="M288 273q-36 0 -70 5t-66 15v20q32 -9 66 -14.5t70 -5.5t70 5.5t66 14.5v-20q-31 -10 -65.5 -15t-70.5 -5zM561 0q-53 0 -88 14.5t-52 46t-17 81.5v300h20v-300q0 -44 14.5 -71t45 -39t77.5 -12h515v-20h-515zM1056 0v173q0 88 -29.5 154t-83.5 103t-128 37
q-67 0 -121.5 -29.5t-96.5 -77.5t-70.5 -106.5t-44 -117t-17.5 -107.5h-20q2 42 13.5 92t32.5 101.5t52.5 98.5t72.5 84.5t91 59.5t110 22q64 0 112.5 -25t81 -69t49 -100.5t16.5 -119.5v-173h-20zM0 -230q49 1 82 21t50.5 59.5t17.5 96.5v495h20v-495q0 -62 -19 -105.5
t-55.5 -66.5t-89.5 -25zM816 579q-10 0 -18 8t-8 18q0 11 8 18.5t18 7.5q11 0 18.5 -7.5t7.5 -18.5q0 -10 -7.5 -18t-18.5 -8zM160 534q-10 0 -18 8t-8 18q0 11 8 18.5t18 7.5q11 0 18.5 -7.5t7.5 -18.5q0 -10 -7.5 -18t-18.5 -8z" />
    <glyph glyph-name="dad_zainar.fina" unicode="&#xfec0;&#xfeb0;" horiz-adv-x="1168" 
d="M1168 0v20q14 0 17 -2.5t3 -7.5q0 -4 -3 -7t-17 -3zM561 0q-53 0 -88 14.5t-52 46t-17 81.5v300h20v-300q0 -44 14.5 -71t45 -39t77.5 -12h515v-20h-515zM288 273q-36 0 -70 5t-66 15v20q32 -9 66 -14.5t70 -5.5t70 5.5t66 14.5v-20q-31 -10 -65.5 -15t-70.5 -5zM1056 0
v173q0 88 -29.5 154t-83.5 103t-128 37q-67 0 -121.5 -29.5t-96.5 -77.5t-70.5 -106.5t-44 -117t-17.5 -107.5h-20q2 42 13.5 92t32.5 101.5t52.5 98.5t72.5 84.5t91 59.5t110 22q64 0 112.5 -25t81 -69t49 -100.5t16.5 -119.5v-173h-20zM1066 0v20h102v-20h-102zM0 -230
q49 1 82 21t50.5 59.5t17.5 96.5v495h20v-495q0 -62 -19 -105.5t-55.5 -66.5t-89.5 -25zM816 579q-10 0 -18 8t-8 18q0 11 8 18.5t18 7.5q11 0 18.5 -7.5t7.5 -18.5q0 -10 -7.5 -18t-18.5 -8zM160 534q-10 0 -18 8t-8 18q0 11 8 18.5t18 7.5q11 0 18.5 -7.5t7.5 -18.5
q0 -10 -7.5 -18t-18.5 -8z" />
    <glyph glyph-name="lam_alefWaslaar" unicode="&#xfedf;&#xfb51;" horiz-adv-x="612" 
d="M502 0v799h20v-799h-20zM90 0v20h432v-20h-432zM238 0v577h20v-577h-20zM297 619v35q0 14 -6 21.5t-18 7.5q-10 0 -19 -7t-14.5 -19t-5.5 -27h-16q0 9 2.5 21.5t9 24.5t17 19.5t26.5 7.5q15 0 25 -6.5t14.5 -17.5t4.5 -25v-35h-20zM257 619q-19 0 -32 5.5t-24 18.5l14 6
q-5 -5 -12 -13t-15 -16l-11 9q7 14 14.5 21.5t14.5 7.5q5 0 8 -3t8 -6.5t14.5 -6.5t25.5 -3h55v-20h-60z" />
    <glyph glyph-name="lam_alefWaslaar.fina" unicode="&#xfee0;&#xfb51;" horiz-adv-x="641" 
d="M238 0v577h20v-577h-20zM90 0v20h265v-20h-265zM641 0v20q14 0 17 -2.5t3 -7.5q0 -4 -3 -7t-17 -3zM349 0q-14 0 -17 3t-3 7q0 5 3 7.5t17 2.5v-20zM349 0v20h6q53 0 85 12t47 39t15 71v657h20v-657q0 -50 -17.5 -81.5t-54 -46t-95.5 -14.5h-6zM636 0q-47 0 -76.5 14.5
t-43.5 46t-14 81.5h20q0 -44 11 -71t36.5 -39t66.5 -12h5v-20h-5zM298 619v35q0 14 -6 21.5t-18 7.5q-10 0 -19 -7t-14.5 -19t-5.5 -27h-16q0 9 2.5 21.5t9 24.5t17 19.5t26.5 7.5q15 0 25 -6.5t14.5 -17.5t4.5 -25v-35h-20zM258 619q-19 0 -32 5.5t-24 18.5l14 6
q-5 -5 -12 -13t-15 -16l-11 9q7 14 14.5 21.5t14.5 7.5q5 0 8 -3t8 -6.5t14.5 -6.5t25.5 -3h55v-20h-60z" />
    <glyph glyph-name="alefMaksura_rehar.fina" unicode="&#x649;&#xfeae;" horiz-adv-x="551" 
d="M551 0v20q14 0 17 -2.5t3 -7.5q0 -4 -3 -7t-17 -3zM536 0q-47 0 -76.5 14.5t-43.5 46t-14 81.5v300h20v-300q0 -44 11 -71t36.5 -39t66.5 -12h15v-20h-15zM286 273q-36 0 -70 5t-66 15v20q32 -9 66 -14.5t70 -5.5t70 5.5t66 14.5v-20q-31 -10 -65.5 -15t-70.5 -5zM0 -230
q49 1 82 21t50.5 59.5t17.5 96.5v495h20v-495q0 -62 -19 -105.5t-55.5 -66.5t-89.5 -25z" />
    <glyph glyph-name="alefMaksura_zainar.fina" unicode="&#x649;&#xfeb0;" horiz-adv-x="551" 
d="M551 0v20q14 0 17 -2.5t3 -7.5q0 -4 -3 -7t-17 -3zM536 0q-47 0 -76.5 14.5t-43.5 46t-14 81.5v300h20v-300q0 -44 11 -71t36.5 -39t66.5 -12h15v-20h-15zM286 273q-36 0 -70 5t-66 15v20q32 -9 66 -14.5t70 -5.5t70 5.5t66 14.5v-20q-31 -10 -65.5 -15t-70.5 -5zM0 -230
q49 1 82 21t50.5 59.5t17.5 96.5v495h20v-495q0 -62 -19 -105.5t-55.5 -66.5t-89.5 -25zM160 534q-10 0 -18 8t-8 18q0 11 8 18.5t18 7.5q11 0 18.5 -7.5t7.5 -18.5q0 -10 -7.5 -18t-18.5 -8z" />
    <glyph glyph-name="alefMaksura_noonar.fina" unicode="&#x649;&#xfee6;" horiz-adv-x="983" 
d="M983 0v20q14 0 17 -2.5t3 -7.5q0 -4 -3 -7t-17 -3zM968 0q-47 0 -76.5 14.5t-43.5 46t-14 81.5v300h20v-300q0 -44 11 -71t36.5 -39t66.5 -12h15v-20h-15zM718 273q-36 0 -70 5t-66 15v20q32 -9 66 -14.5t70 -5.5t70 5.5t66 14.5v-20q-31 -10 -65.5 -15t-70.5 -5z
M321 -250q-68 0 -120.5 23.5t-88 65.5t-54 98t-18.5 121q0 35 5.5 71.5t14.5 70.5l19 -4q-9 -34 -14 -69t-5 -69q0 -87 32.5 -152t91 -100.5t137.5 -35.5t137.5 35.5t91 100.5t32.5 152v384h20v-384q0 -65 -18.5 -121t-54 -98t-88 -65.5t-120.5 -23.5zM321 442q-10 0 -18 8
t-8 18q0 11 8 18.5t18 7.5q11 0 18.5 -7.5t7.5 -18.5q0 -10 -7.5 -18t-18.5 -8z" />
    <glyph glyph-name="uni066E.init" unicode="&#x66e;" horiz-adv-x="238" 
d="M138 442h20v-442h-158v20h138v422zM0 0q-14 0 -17 3t-3 7q0 5 3 7.5t17 2.5v-20z" />
    <glyph glyph-name="uni066E.medi" unicode="&#x66e;" horiz-adv-x="312" 
d="M0 0v20h16q53 0 85 12t47 39t15 71v300h20v-300q0 -50 -17.5 -81.5t-54 -46t-95.5 -14.5h-16zM297 0q-47 0 -76.5 14.5t-43.5 46t-14 81.5h20q0 -44 11 -71t36 -39t67 -12h15v-20h-15zM312 0v20q14 0 17 -2.5t3 -7.5q0 -4 -3 -7t-17 -3zM0 0q-14 0 -17 3t-3 7q0 5 3 7.5
t17 2.5v-20z" />
    <glyph glyph-name="uni066E.fina" unicode="&#x66e;" horiz-adv-x="870" 
d="M313 -1q-67 0 -117 19t-82 52.5t-48 75.5t-16 88q0 44 12.5 87t37.5 81l17 -11q-23 -35 -35 -75.5t-12 -81.5q0 -65 29.5 -113.5t84 -75t129.5 -26.5l269 1q53 0 85 12t47 39t15 71v300h20v-300q0 -50 -17.5 -81.5t-54 -46t-95.5 -14.5zM863 0q-47 0 -76.5 14.5t-43.5 46
t-14 81.5h20q0 -44 11 -71t36.5 -39t66.5 -12h7v-20h-7zM870 0v20q14 0 17 -2.5t3 -7.5q0 -4 -3 -7t-17 -3z" />
    <glyph glyph-name="uni066F.fina" unicode="&#x66f;" horiz-adv-x="811" 
d="M647 0v20h164v-20h-164zM811 0v20q14 0 17 -2.5t3 -7.5q0 -4 -3 -7t-17 -3zM381 -276q-82 0 -146 28.5t-107 79.5t-65.5 119t-22.5 147q0 43 7 87t17 85l19 -5q-11 -45 -17 -87t-6 -80q0 -107 39.5 -187t112 -123.5t169.5 -43.5q98 0 170 43.5t111.5 123.5t39.5 187v361
h20v-361q0 -79 -22.5 -147t-65.5 -119t-106.5 -79.5t-146.5 -28.5zM494 0q-69 0 -120.5 32t-80 86t-28.5 118q0 57 21.5 105t59.5 84t88.5 55.5t108.5 19.5q48 0 94 -12t85 -29l-8 -18q-93 39 -171 39q-73 0 -131.5 -32.5t-92.5 -87.5t-34 -124q0 -62 27 -111t74.5 -77
t107.5 -28h208v-20h-208z" />
    <glyph glyph-name="uni06A1.init" unicode="&#x6a1;" horiz-adv-x="660" 
d="M0 0v20h570v439h20v-459h-590zM283 6q-45 22 -79 56t-52.5 78t-18.5 96q0 76 37.5 135.5t100.5 94t140 34.5q48 0 94 -12t85 -29l-9 -18q-38 16 -81.5 27.5t-89.5 11.5q-76 0 -134 -33.5t-90.5 -89t-32.5 -122.5q0 -82 48.5 -140t121.5 -83zM0 0q-14 0 -17 3t-3 7
q0 5 3 7.5t17 2.5v-20z" />
    <glyph glyph-name="uni06A1.medi" unicode="&#x6a1;" horiz-adv-x="627" 
d="M0 0v20q87 0 160.5 8t132.5 24q1 1 2 1t2 0.5t2 0.5q73 21 122.5 53t75 75t25.5 96q0 58 -27 103.5t-74 72t-107 26.5t-107 -26.5t-74.5 -71.5t-27.5 -103q0 -54 26 -97t76 -75t122 -53q2 0 3.5 -0.5l3 -1t2.5 -1.5q59 -15 131.5 -23t157.5 -8v-20q-118 0 -217.5 16.5
t-172 50.5t-112.5 86.5t-40 125.5q0 65 31 115t83 78t115 28t114.5 -28t82.5 -78t31 -116t-31.5 -113.5t-85.5 -79.5t-123.5 -50.5t-147 -26.5t-154.5 -8zM627 0v20q14 0 17 -2.5t3 -7.5q0 -4 -3 -7t-17 -3zM0 0q-14 0 -17 3t-3 7q0 5 3 7.5t17 2.5v-20z" />
    <glyph glyph-name="uni06A1.fina" unicode="&#x6a1;" horiz-adv-x="991" 
d="M313 0q-67 0 -117 19.5t-82 52.5t-48 75t-16 88q0 44 12.5 87t37.5 81l17 -11q-23 -35 -35 -75.5t-12 -81.5q0 -65 29.5 -113.5t84 -75t129.5 -26.5h51v-20h-51zM991 0v20q14 0 17 -2.5t3 -7.5q0 -4 -3 -7t-17 -3zM364 0q-14 0 -17 3t-3 7q0 5 3 7.5t17 2.5v-20zM364 0
v20q87 0 160.5 8t132.5 24q1 1 2 1t2 0.5t2 0.5q73 21 122.5 53t75 75t25.5 96q0 58 -27 103.5t-74 72t-107 26.5q-59 0 -106.5 -26.5t-75 -71.5t-27.5 -103q0 -54 26 -97t76 -75t122 -53q2 0 3.5 -0.5l3 -1t2.5 -1.5q59 -15 131.5 -23t157.5 -8v-20q-118 0 -217.5 16.5
t-172 50.5t-112.5 86.5t-40 125.5q0 65 31 115t83 78t115 28t114.5 -28t82.5 -78t31 -116t-31.5 -113.5t-85.5 -79.5t-123.5 -50.5t-147 -26.5t-154.5 -8z" />
    <glyph glyph-name="uni06C2.fina" unicode="&#x6c2;" horiz-adv-x="571" 
d="M307 45q-58 0 -106.5 13t-84.5 38.5t-56 63t-20 85.5q0 59 28.5 103t81 75.5t123.5 50.5t155 28l2 -20q-91 -9 -160 -29t-116 -50.5t-70.5 -70t-23.5 -87.5q0 -55 30 -95.5t85.5 -62.5t131.5 -22q35 0 68.5 5t64.5 14l6 -20q-33 -9 -68 -14t-71 -5zM556 0
q-47 0 -76.5 14.5t-43.5 46t-14 81.5v385h20v-385q0 -44 11 -71t36.5 -39t66.5 -12h15v-20h-15zM571 0v20q14 0 17 -2.5t3 -7.5q0 -4 -3 -7t-17 -3zM304 559q-34 0 -57.5 14.5t-23.5 42.5q0 19 11 31t29 18.5t40 6.5q13 0 26 -2t23 -5l-9 -18q-8 3 -18.5 4t-21.5 1
q-28 0 -44 -9.5t-16 -25.5q0 -17 16.5 -27.5t44.5 -10.5v-20zM217 559v20h141v-20h-141z" />
    <glyph glyph-name="uni06C3.fina" unicode="&#x6c3;" horiz-adv-x="624" 
d="M624 0q-64 0 -106.5 15t-71.5 50.5t-54 95.5q-31 78 -68.5 115t-91.5 37q-42 0 -71 -21.5t-47.5 -56t-31 -74.5t-23.5 -76l-19 6q11 36 24 78t34 79t53.5 61t80.5 24q59 0 102 -39.5t77 -125.5q23 -58 49.5 -90t65.5 -45t98 -13v-20zM624 0v20q14 0 17 -2.5t3 -7.5
q0 -4 -3 -7t-17 -3zM266 425q-10 0 -18 8t-8 18q0 11 8 18.5t19 7.5q10 0 17.5 -7.5t7.5 -18.5q0 -10 -7.5 -18t-18.5 -8zM198 425q-10 0 -18 8t-8 18q0 11 8 18.5t19 7.5q10 0 17.5 -7.5t7.5 -18.5q0 -10 -7.5 -18t-18.5 -8z" />
    <glyph glyph-name="uniFB51" unicode="&#x671;" horiz-adv-x="199" arabic-form="final" 
d="M110 0v20h89v-20h-89zM90 0v687h20v-687h-20zM199 0v20q14 0 17 -2.5t3 -7.5q0 -4 -3 -7t-17 -3zM150 729v35q0 14 -6 21.5t-18 7.5q-10 0 -19 -7t-14.5 -19t-5.5 -27h-16q0 9 2.5 21.5t9 24.5t17 19.5t26.5 7.5q15 0 25 -6.5t14.5 -17.5t4.5 -25v-35h-20zM110 729
q-19 0 -32 5.5t-24 18.5l14 6q-5 -5 -12 -13t-15 -16l-11 9q7 14 14.5 21.5t14.5 7.5q5 0 8 -3t8 -6.5t14.5 -6.5t25.5 -3h55v-20h-60z" />
    <glyph glyph-name="uniFB57" unicode="&#x67e;" horiz-adv-x="870" arabic-form="final" 
d="M313 -1q-67 0 -117 19t-82 52.5t-48 75.5t-16 88q0 44 12.5 87t37.5 81l17 -11q-23 -35 -35 -75.5t-12 -81.5q0 -65 29.5 -113.5t84 -75t129.5 -26.5l269 1q53 0 85 12t47 39t15 71v300h20v-300q0 -50 -17.5 -81.5t-54 -46t-95.5 -14.5zM863 0q-47 0 -76.5 14.5t-43.5 46
t-14 81.5h20q0 -44 11 -71t36.5 -39t66.5 -12h7v-20h-7zM870 0v20q14 0 17 -2.5t3 -7.5q0 -4 -3 -7t-17 -3zM402 -196q-10 0 -18 8t-8 18q0 11 8 18.5t18 7.5q11 0 18.5 -7.5t7.5 -18.5q0 -10 -7.5 -18t-18.5 -8zM435 -144q-10 0 -18 8t-8 18q0 11 8 18.5t19 7.5
q10 0 17.5 -7.5t7.5 -18.5q0 -10 -7.5 -18t-18.5 -8zM367 -144q-10 0 -18 8t-8 18q0 11 8 18.5t19 7.5q10 0 17.5 -7.5t7.5 -18.5q0 -10 -7.5 -18t-18.5 -8z" />
    <glyph glyph-name="uniFB58" unicode="&#x67e;" horiz-adv-x="238" arabic-form="initial" 
d="M138 442h20v-442h-158v20h138v422zM0 0q-14 0 -17 3t-3 7q0 5 3 7.5t17 2.5v-20zM120 -196q-10 0 -18 8t-8 18q0 11 8 18.5t18 7.5q11 0 18.5 -7.5t7.5 -18.5q0 -10 -7.5 -18t-18.5 -8zM153 -144q-10 0 -18 8t-8 18q0 11 8 18.5t19 7.5q10 0 17.5 -7.5t7.5 -18.5
q0 -10 -7.5 -18t-18.5 -8zM85 -144q-10 0 -18 8t-8 18q0 11 8 18.5t19 7.5q10 0 17.5 -7.5t7.5 -18.5q0 -10 -7.5 -18t-18.5 -8z" />
    <glyph glyph-name="uniFB59" unicode="&#x67e;" horiz-adv-x="312" arabic-form="medial" 
d="M0 0v20h16q53 0 85 12t47 39t15 71v300h20v-300q0 -50 -17.5 -81.5t-54 -46t-95.5 -14.5h-16zM297 0q-47 0 -76.5 14.5t-43.5 46t-14 81.5h20q0 -44 11 -71t36 -39t67 -12h15v-20h-15zM312 0v20q14 0 17 -2.5t3 -7.5q0 -4 -3 -7t-17 -3zM0 0q-14 0 -17 3t-3 7q0 5 3 7.5
t17 2.5v-20zM175 -196q-10 0 -18 8t-8 18q0 11 8 18.5t18 7.5q11 0 18.5 -7.5t7.5 -18.5q0 -10 -7.5 -18t-18.5 -8zM208 -144q-10 0 -18 8t-8 18q0 11 8 18.5t19 7.5q10 0 17.5 -7.5t7.5 -18.5q0 -10 -7.5 -18t-18.5 -8zM140 -144q-10 0 -18 8t-8 18q0 11 8 18.5t19 7.5
q10 0 17.5 -7.5t7.5 -18.5q0 -10 -7.5 -18t-18.5 -8z" />
    <glyph glyph-name="uniFB67" unicode="&#x679;" horiz-adv-x="870" arabic-form="final" 
d="M313 -1q-67 0 -117 19t-82 52.5t-48 75.5t-16 88q0 44 12.5 87t37.5 81l17 -11q-23 -35 -35 -75.5t-12 -81.5q0 -65 29.5 -113.5t84 -75t129.5 -26.5l269 1q53 0 85 12t47 39t15 71v300h20v-300q0 -50 -17.5 -81.5t-54 -46t-95.5 -14.5zM863 0q-47 0 -76.5 14.5t-43.5 46
t-14 81.5h20q0 -44 11 -71t36.5 -39t66.5 -12h7v-20h-7zM870 0v20q14 0 17 -2.5t3 -7.5q0 -4 -3 -7t-17 -3zM328 465v20h14v116h20v-65q8 13 20.5 20.5t28.5 7.5q29 0 44.5 -22.5t15.5 -56.5v-20h-143zM362 485h89q-1 28 -11.5 43.5t-28.5 15.5q-19 0 -34 -16.5t-15 -42.5z
" />
    <glyph glyph-name="uniFB68" unicode="&#x679;" horiz-adv-x="238" arabic-form="initial" 
d="M138 442h20v-442h-158v20h138v422zM0 0q-14 0 -17 3t-3 7q0 5 3 7.5t17 2.5v-20zM76 524v20h14v116h20v-65q8 13 20.5 20.5t28.5 7.5q29 0 44.5 -22.5t15.5 -56.5v-20h-143zM110 544h89q-1 28 -11.5 43.5t-28.5 15.5q-19 0 -34 -16.5t-15 -42.5z" />
    <glyph glyph-name="uniFB69" unicode="&#x679;" horiz-adv-x="312" arabic-form="medial" 
d="M0 0v20h16q53 0 85 12t47 39t15 71v300h20v-300q0 -50 -17.5 -81.5t-54 -46t-95.5 -14.5h-16zM297 0q-47 0 -76.5 14.5t-43.5 46t-14 81.5h20q0 -44 11 -71t36 -39t67 -12h15v-20h-15zM312 0v20q14 0 17 -2.5t3 -7.5q0 -4 -3 -7t-17 -3zM0 0q-14 0 -17 3t-3 7q0 5 3 7.5
t17 2.5v-20zM101 524v20h14v116h20v-65q8 13 20.5 20.5t28.5 7.5q29 0 44.5 -22.5t15.5 -56.5v-20h-143zM135 544h89q-1 28 -11.5 43.5t-28.5 15.5q-19 0 -34 -16.5t-15 -42.5z" />
    <glyph glyph-name="uniFB6B" unicode="&#x6a4;" horiz-adv-x="991" arabic-form="final" 
d="M313 0q-67 0 -117 19.5t-82 52.5t-48 75t-16 88q0 44 12.5 87t37.5 81l17 -11q-23 -35 -35 -75.5t-12 -81.5q0 -65 29.5 -113.5t84 -75t129.5 -26.5h51v-20h-51zM991 0v20q14 0 17 -2.5t3 -7.5q0 -4 -3 -7t-17 -3zM364 0q-14 0 -17 3t-3 7q0 5 3 7.5t17 2.5v-20zM364 0
v20q87 0 160.5 8t132.5 24q1 1 2 1t2 0.5t2 0.5q73 21 122.5 53t75 75t25.5 96q0 58 -27 103.5t-74 72t-107 26.5q-59 0 -106.5 -26.5t-75 -71.5t-27.5 -103q0 -54 26 -97t76 -75t122 -53q2 0 3.5 -0.5l3 -1t2.5 -1.5q59 -15 131.5 -23t157.5 -8v-20q-118 0 -217.5 16.5
t-172 50.5t-112.5 86.5t-40 125.5q0 65 31 115t83 78t115 28t114.5 -28t82.5 -78t31 -116t-31.5 -113.5t-85.5 -79.5t-123.5 -50.5t-147 -26.5t-154.5 -8zM679 696q11 0 18.5 -7.5t7.5 -18.5q0 -10 -7.5 -18t-18.5 -8q-10 0 -18 8t-8 18q0 11 8 18.5t18 7.5zM713 644
q10 0 17.5 -7.5t7.5 -18.5q0 -10 -7.5 -18t-18.5 -8q-10 0 -18 8t-8 18q0 11 8 18.5t19 7.5zM645 644q10 0 17.5 -7.5t7.5 -18.5q0 -10 -7.5 -18t-18.5 -8q-10 0 -18 8t-8 18q0 11 8 18.5t19 7.5z" />
    <glyph glyph-name="uniFB6C" unicode="&#x6a4;" horiz-adv-x="660" arabic-form="initial" 
d="M0 0v20h570v439h20v-459h-590zM283 6q-45 22 -79 56t-52.5 78t-18.5 96q0 76 37.5 135.5t100.5 94t140 34.5q48 0 94 -12t85 -29l-9 -18q-38 16 -81.5 27.5t-89.5 11.5q-76 0 -134 -33.5t-90.5 -89t-32.5 -122.5q0 -82 48.5 -140t121.5 -83zM0 0q-14 0 -17 3t-3 7
q0 5 3 7.5t17 2.5v-20zM412 696q11 0 18.5 -7.5t7.5 -18.5q0 -10 -7.5 -18t-18.5 -8q-10 0 -18 8t-8 18q0 11 8 18.5t18 7.5zM446 644q10 0 17.5 -7.5t7.5 -18.5q0 -10 -7.5 -18t-18.5 -8q-10 0 -18 8t-8 18q0 11 8 18.5t19 7.5zM378 644q10 0 17.5 -7.5t7.5 -18.5
q0 -10 -7.5 -18t-18.5 -8q-10 0 -18 8t-8 18q0 11 8 18.5t19 7.5z" />
    <glyph glyph-name="uniFB6D" unicode="&#x6a4;" horiz-adv-x="627" arabic-form="medial" 
d="M0 0v20q87 0 160.5 8t132.5 24q1 1 2 1t2 0.5t2 0.5q73 21 122.5 53t75 75t25.5 96q0 58 -27 103.5t-74 72t-107 26.5t-107 -26.5t-74.5 -71.5t-27.5 -103q0 -54 26 -97t76 -75t122 -53q2 0 3.5 -0.5l3 -1t2.5 -1.5q59 -15 131.5 -23t157.5 -8v-20q-118 0 -217.5 16.5
t-172 50.5t-112.5 86.5t-40 125.5q0 65 31 115t83 78t115 28t114.5 -28t82.5 -78t31 -116t-31.5 -113.5t-85.5 -79.5t-123.5 -50.5t-147 -26.5t-154.5 -8zM627 0v20q14 0 17 -2.5t3 -7.5q0 -4 -3 -7t-17 -3zM0 0q-14 0 -17 3t-3 7q0 5 3 7.5t17 2.5v-20zM315 696
q11 0 18.5 -7.5t7.5 -18.5q0 -10 -7.5 -18t-18.5 -8q-10 0 -18 8t-8 18q0 11 8 18.5t18 7.5zM349 644q10 0 17.5 -7.5t7.5 -18.5q0 -10 -7.5 -18t-18.5 -8q-10 0 -18 8t-8 18q0 11 8 18.5t19 7.5zM281 644q10 0 17.5 -7.5t7.5 -18.5q0 -10 -7.5 -18t-18.5 -8q-10 0 -18 8
t-8 18q0 11 8 18.5t19 7.5z" />
    <glyph glyph-name="uniFB7B" unicode="&#x686;" horiz-adv-x="656" arabic-form="final" 
d="M586 0v20h70v-20h-70zM656 0v20q14 0 17 -2.5t3 -7.5q0 -4 -3 -7t-17 -3zM292 -229q-10 0 -18 8t-8 18q0 11 8 18.5t18 7.5q11 0 18.5 -7.5t7.5 -18.5q0 -10 -7.5 -18t-18.5 -8zM325 -177q-10 0 -18 8t-8 18q0 11 8 18.5t18 7.5q11 0 18.5 -7.5t7.5 -18.5q0 -10 -7.5 -18
t-18.5 -8zM257 -177q-10 0 -18 8t-8 18q0 11 8 18.5t18 7.5q11 0 18.5 -7.5t7.5 -18.5q0 -10 -7.5 -18t-18.5 -8zM565 0v250q0 65 -30.5 114t-84.5 76.5t-126 27.5q-50 0 -96.5 -13.5t-85.5 -39.5l-9 18q43 28 91.5 41.5t99.5 13.5q58 0 105.5 -17.5t82.5 -49t54 -75
t19 -96.5v-250h-20zM312 -368q-52 0 -100.5 12t-87.5 35.5t-61.5 58t-22.5 78.5q0 39 19 75.5t57 65.5t95 46t133 17v-20q-84 0 -148 -23.5t-100 -65t-36 -95.5q0 -47 33 -84.5t90 -58.5t129 -21q44 0 85 9t78 25l8 -18q-39 -18 -83 -27t-88 -9zM344 0v20h263l-2 -20h-261z
" />
    <glyph glyph-name="uniFB7C" unicode="&#x686;" horiz-adv-x="576" arabic-form="initial" 
d="M484 0v250q0 65 -30.5 114t-84.5 76.5t-126 27.5q-50 0 -96.5 -13.5t-85.5 -39.5l-9 18q43 28 91.5 41.5t99.5 13.5q58 0 105.5 -17.5t82.5 -49t54 -75t19 -96.5v-250h-20zM0 0v20h526l-2 -20h-524zM0 0q-14 0 -17 3t-3 7q0 5 3 7.5t17 2.5v-20zM260 -196q-10 0 -18 8
t-8 18q0 11 8 18.5t18 7.5q11 0 18.5 -7.5t7.5 -18.5q0 -10 -7.5 -18t-18.5 -8zM293 -144q-10 0 -18 8t-8 18q0 11 8 18.5t19 7.5q10 0 17.5 -7.5t7.5 -18.5q0 -10 -7.5 -18t-18.5 -8zM225 -144q-10 0 -18 8t-8 18q0 11 8 18.5t19 7.5q10 0 17.5 -7.5t7.5 -18.5
q0 -10 -7.5 -18t-18.5 -8z" />
    <glyph glyph-name="uniFB7D" unicode="&#x686;" horiz-adv-x="593" arabic-form="medial" 
d="M488 0v20h105v-20h-105zM0 0q-14 0 -17 3t-3 7q0 5 3 7.5t17 2.5v-20zM484 0v250q0 65 -30.5 114t-84.5 76.5t-126 27.5q-50 0 -96.5 -13.5t-85.5 -39.5l-9 18q43 28 91.5 41.5t99.5 13.5q58 0 105.5 -17.5t82.5 -49t54 -75t19 -96.5v-250h-20zM0 0v20h526l-2 -20h-524z
M593 0v20q14 0 17 -2.5t3 -7.5q0 -4 -3 -7t-17 -3zM260 -196q-10 0 -18 8t-8 18q0 11 8 18.5t18 7.5q11 0 18.5 -7.5t7.5 -18.5q0 -10 -7.5 -18t-18.5 -8zM293 -144q-10 0 -18 8t-8 18q0 11 8 18.5t19 7.5q10 0 17.5 -7.5t7.5 -18.5q0 -10 -7.5 -18t-18.5 -8zM225 -144
q-10 0 -18 8t-8 18q0 11 8 18.5t19 7.5q10 0 17.5 -7.5t7.5 -18.5q0 -10 -7.5 -18t-18.5 -8z" />
    <glyph glyph-name="uniFB89" unicode="&#x688;" horiz-adv-x="554" arabic-form="final" 
d="M442 0v20h112v-20h-112zM554 0v20q14 0 17 -2.5t3 -7.5q0 -4 -3 -7t-17 -3zM463 0q1 126 -36.5 227.5t-111.5 167.5t-183 85l4 20q108 -19 186 -85t120.5 -171.5t40.5 -243.5h-20zM50 0v20h429v-20h-429zM122 582v20h14v116h20v-65q8 13 20.5 20.5t28.5 7.5
q29 0 44.5 -22.5t15.5 -56.5v-20h-143zM156 602h89q-1 28 -11.5 43.5t-28.5 15.5q-19 0 -34 -16.5t-15 -42.5z" />
    <glyph glyph-name="uniFB8B" unicode="&#x698;" horiz-adv-x="259" arabic-form="final" 
d="M157 0v20h102v-20h-102zM0 -230q49 1 82 21t50.5 59.5t17.5 96.5v495h20v-495q0 -62 -19 -105.5t-55.5 -66.5t-89.5 -25zM259 0v20q14 0 17 -2.5t3 -7.5q0 -4 -3 -7t-17 -3zM161 638q11 0 18.5 -7.5t7.5 -18.5q0 -10 -7.5 -18t-18.5 -8q-10 0 -18 8t-8 18q0 11 8 18.5
t18 7.5zM195 586q10 0 17.5 -7.5t7.5 -18.5q0 -10 -7.5 -18t-18.5 -8q-10 0 -18 8t-8 18q0 11 8 18.5t19 7.5zM127 586q10 0 17.5 -7.5t7.5 -18.5q0 -10 -7.5 -18t-18.5 -8q-10 0 -18 8t-8 18q0 11 8 18.5t19 7.5z" />
    <glyph glyph-name="uniFB8D" unicode="&#x691;" horiz-adv-x="259" arabic-form="final" 
d="M157 0v20h102v-20h-102zM0 -230q49 1 82 21t50.5 59.5t17.5 96.5v495h20v-495q0 -62 -19 -105.5t-55.5 -66.5t-89.5 -25zM259 0v20q14 0 17 -2.5t3 -7.5q0 -4 -3 -7t-17 -3zM88 524v20h14v116h20v-65q8 13 20.5 20.5t28.5 7.5q29 0 44.5 -22.5t15.5 -56.5v-20h-143z
M122 544h89q-1 28 -11.5 43.5t-28.5 15.5q-19 0 -34 -16.5t-15 -42.5z" />
    <glyph glyph-name="uniFB8F" unicode="&#x6a9;" horiz-adv-x="843" arabic-form="final" 
d="M364 20v-20h-61q-67 0 -117 19.5t-82 52.5t-48 75t-16 88q0 44 12.5 87t37.5 81l17 -11q-23 -35 -35 -75.5t-12 -81.5q0 -65 29.5 -113.5t84.5 -75t129 -26.5h61zM359 0q-14 0 -17 3t-3 7q0 5 3 7.5t17 2.5v-20zM359 0v20h104q70 0 122 22.5t80.5 63.5t28.5 95
q0 38 -14.5 70t-44.5 63.5t-77 68.5t-112 85l-70 52l12 16l70 -52q65 -48 113 -86t80 -71.5t47.5 -68.5t15.5 -77q0 -64 -33 -109t-90 -68.5t-128 -23.5h-104zM376 540v22l375 173v-23zM843 0v20q14 0 17 -2.5t3 -7.5q0 -4 -3 -7t-17 -3zM828 0q-47 0 -76.5 14.5t-43.5 46
t-14 81.5v56h20v-56q0 -44 11 -71t36.5 -39t66.5 -12h15v-20h-15z" />
    <glyph glyph-name="uniFB90" unicode="&#x6a9;" horiz-adv-x="462" arabic-form="initial" 
d="M0 0v20h104q70 0 122 22.5t80.5 63.5t28.5 95q0 38 -14.5 70t-44.5 63.5t-77 68.5t-112 85l-70 52l12 16l70 -52q65 -48 113 -86t80 -71.5t47.5 -68.5t15.5 -77q0 -64 -33 -109t-90 -68.5t-128 -23.5h-104zM17 540v22l375 173v-23zM0 0q-14 0 -17 3t-3 7q0 5 3 7.5
t17 2.5v-20z" />
    <glyph glyph-name="uniFB91" unicode="&#x6a9;" horiz-adv-x="484" arabic-form="medial" 
d="M469 0q-47 0 -76.5 14.5t-43.5 46t-14 81.5v56h20v-56q0 -44 11 -71t36.5 -39t66.5 -12h15v-20h-15zM0 0q-14 0 -17 3t-3 7q0 5 3 7.5t17 2.5v-20zM0 0v20h104q70 0 122 22.5t80.5 63.5t28.5 95q0 38 -14.5 70t-44.5 63.5t-77 68.5t-112 85l-70 52l12 16l70 -52
q65 -48 113 -86t80 -71.5t47.5 -68.5t15.5 -77q0 -64 -33 -109t-90 -68.5t-128 -23.5h-104zM17 540v22l375 173v-23zM484 0v20q14 0 17 -2.5t3 -7.5q0 -4 -3 -7t-17 -3z" />
    <glyph glyph-name="uniFB93" unicode="&#x6af;" horiz-adv-x="843" arabic-form="final" 
d="M364 20v-20h-61q-67 0 -117 19.5t-82 52.5t-48 75t-16 88q0 44 12.5 87t37.5 81l17 -11q-23 -35 -35 -75.5t-12 -81.5q0 -65 29.5 -113.5t84.5 -75t129 -26.5h61zM359 0q-14 0 -17 3t-3 7q0 5 3 7.5t17 2.5v-20zM359 0v20h104q70 0 122 22.5t80.5 63.5t28.5 95
q0 38 -14.5 70t-44.5 63.5t-77 68.5t-112 85l-70 52l12 16l70 -52q65 -48 113 -86t80 -71.5t47.5 -68.5t15.5 -77q0 -64 -33 -109t-90 -68.5t-128 -23.5h-104zM376 540v22l375 173v-23zM376 620v22l375 173v-23zM843 0v20q14 0 17 -2.5t3 -7.5q0 -4 -3 -7t-17 -3zM828 0
q-47 0 -76.5 14.5t-43.5 46t-14 81.5v56h20v-56q0 -44 11 -71t36.5 -39t66.5 -12h15v-20h-15z" />
    <glyph glyph-name="uniFB94" unicode="&#x6af;" horiz-adv-x="440" arabic-form="initial" 
d="M17 620v22l375 173v-23zM0 0q-14 0 -17 3t-3 7q0 5 3 7.5t17 2.5v-20zM0 0v20h104q70 0 122 22.5t80.5 63.5t28.5 95q0 38 -14.5 70t-44.5 63.5t-77 68.5t-112 85l-70 52l12 16l70 -52q65 -48 113 -86t80 -71.5t47.5 -68.5t15.5 -77q0 -64 -33 -109t-90 -68.5t-128 -23.5
h-104zM17 540v22l375 173v-23z" />
    <glyph glyph-name="uniFB95" unicode="&#x6af;" horiz-adv-x="484" arabic-form="medial" 
d="M469 0q-47 0 -76.5 14.5t-43.5 46t-14 81.5v56h20v-56q0 -44 11 -71t36.5 -39t66.5 -12h15v-20h-15zM0 0q-14 0 -17 3t-3 7q0 5 3 7.5t17 2.5v-20zM0 0v20h104q70 0 122 22.5t80.5 63.5t28.5 95q0 38 -14.5 70t-44.5 63.5t-77 68.5t-112 85l-70 52l12 16l70 -52
q65 -48 113 -86t80 -71.5t47.5 -68.5t15.5 -77q0 -64 -33 -109t-90 -68.5t-128 -23.5h-104zM17 540v22l375 173v-23zM17 620v22l375 173v-23zM484 0v20q14 0 17 -2.5t3 -7.5q0 -4 -3 -7t-17 -3z" />
    <glyph glyph-name="uniFB9F" unicode="&#x6ba;" horiz-adv-x="730" arabic-form="final" 
d="M715 0q-61 0 -92.5 24t-39.5 78l18 28q2 -60 28.5 -85t85.5 -25h15v-20h-15zM321 -250q-68 0 -120.5 23.5t-88 65.5t-54 98t-18.5 121q0 35 5.5 71.5t14.5 70.5l19 -4q-9 -34 -14 -69t-5 -69q0 -87 32.5 -152t91 -100.5t137.5 -35.5t137.5 35.5t91 100.5t32.5 152v384h20
v-384q0 -65 -18.5 -121t-54 -98t-88 -65.5t-120.5 -23.5zM730 0v20q14 0 17 -2.5t3 -7.5q0 -4 -3 -7t-17 -3z" />
    <glyph glyph-name="uniFBA7" unicode="&#x6c1;" horiz-adv-x="624" arabic-form="final" 
d="M624 0q-64 0 -106.5 15t-71.5 50.5t-54 95.5q-31 78 -68.5 115t-91.5 37q-42 0 -71 -21.5t-47.5 -56t-31 -74.5t-23.5 -76l-19 6q11 36 24 78t34 79t53.5 61t80.5 24q59 0 102 -39.5t77 -125.5q23 -58 49.5 -90t65.5 -45t98 -13v-20zM624 0v20q14 0 17 -2.5t3 -7.5
q0 -4 -3 -7t-17 -3z" />
    <glyph glyph-name="uniFBA8" unicode="&#x6c1;" horiz-adv-x="238" arabic-form="initial" 
d="M138 442h20v-442h-158v20h138v422zM0 0q-14 0 -17 3t-3 7q0 5 3 7.5t17 2.5v-20zM110 -104q11 0 18.5 -7.5t7.5 -18.5q0 -10 -7.5 -18t-18.5 -8q-10 0 -18 8t-8 18q0 7 2 13t5 13l43 113h20l-42 -124z" />
    <glyph glyph-name="uniFBA9" unicode="&#x6c1;" horiz-adv-x="381" arabic-form="medial" 
d="M381 20v-20h-16q-23 0 -38 -19t-24.5 -50t-16 -69t-12.5 -76l-67 -31q-63 34 -107.5 95.5t-58.5 149.5h-41v20h58q5 -41 17.5 -77t31.5 -67t44.5 -56t56.5 -43l48 23q6 38 13 76.5t18.5 71t30.5 52.5t47 20h16zM381 0v20q14 0 17 -2.5t3 -7.5q0 -4 -3 -7t-17 -3zM0 0
q-14 0 -17 3t-3 7q0 5 3 7.5t17 2.5v-20z" />
    <glyph glyph-name="uniFBAB" unicode="&#x6be;" horiz-adv-x="1003" arabic-form="final" 
d="M988 0q-51 0 -80.5 19.5t-41.5 65t-12 123.5h20q0 -77 11 -117.5t36 -55.5t67 -15h15v-20h-15zM50 -133q2 30 7 53t13.5 40t21.5 28.5t30.5 18.5t40.5 10t52 3v-20q-54 1 -86 -10.5t-47 -40.5t-19 -82h-13zM619 -2q-70 0 -140.5 20.5t-128 58.5t-92.5 91.5t-35 120.5
q0 68 26 122.5t71.5 86t103.5 31.5q44 0 81.5 -18t65 -48.5t43 -70t15.5 -82.5q0 -61 -25 -116.5t-76 -99t-129 -69t-184 -25.5v20q125 0 213 38t134.5 104t46.5 148q0 55 -25 100t-67 72t-93 27q-52 0 -93 -28.5t-64.5 -78t-23.5 -113.5q0 -55 29.5 -104.5t82 -86.5
t120.5 -58.5t144 -21.5q75 0 127.5 22.5t80 65t27.5 102.5q0 89 -62.5 153.5t-196 109t-346.5 72.5l3 20q141 -19 256 -47t196.5 -69t125.5 -99.5t44 -139.5q0 -57 -20.5 -97t-56.5 -65t-81.5 -36.5t-96.5 -11.5zM1003 0v20q14 0 17 -2.5t3 -7.5q0 -4 -3 -7t-17 -3z" />
    <glyph glyph-name="uniFBAC" unicode="&#x6be;" horiz-adv-x="759" arabic-form="initial" 
d="M444 -2q-70 0 -140.5 20.5t-128 58.5t-92.5 91.5t-35 120.5q0 68 26 122.5t71.5 86t103.5 31.5q44 0 81.5 -18t65 -48.5t43 -70t15.5 -82.5q0 -61 -31 -116.5t-90 -99t-143 -69t-190 -25.5v20q94 0 173 22t137.5 61t91 92t32.5 115q0 55 -25 100t-67 72t-93 27
q-52 0 -93 -28.5t-64.5 -78t-23.5 -113.5q0 -55 29.5 -104.5t82 -86.5t120.5 -58.5t144 -21.5q75 0 127.5 22.5t80 65t27.5 102.5q0 77 -45.5 135t-142.5 101t-250 72q-2 0 -4 0.5l-4 1t-4 0.5q-46 7 -95 17t-102 15l2 18q150 -19 272.5 -46.5t210.5 -68.5t135 -101t47 -144
q0 -57 -20.5 -97t-56.5 -65t-81.5 -36.5t-96.5 -11.5zM0 0q-14 0 -17 3t-3 7q0 5 3 7.5t17 2.5v-20z" />
    <glyph glyph-name="uniFBAD" unicode="&#x6be;" horiz-adv-x="828" arabic-form="medial" 
d="M813 0q-51 0 -80.5 19.5t-41.5 65t-12 123.5h20q0 -77 11 -117.5t36 -55.5t67 -15h15v-20h-15zM0 0q-14 0 -17 3t-3 7q0 5 3 7.5t17 2.5v-20zM444 -2q-70 0 -140.5 20.5t-128 58.5t-92.5 91.5t-35 120.5q0 68 26 122.5t71.5 86t103.5 31.5q44 0 81.5 -18t65 -48.5t43 -70
t15.5 -82.5q0 -61 -31 -116.5t-90 -99t-143 -69t-190 -25.5v20q94 0 173 22t137.5 61t91 92t32.5 115q0 55 -25 100t-67 72t-93 27q-52 0 -93 -28.5t-64.5 -78t-23.5 -113.5q0 -55 29.5 -104.5t82 -86.5t120.5 -58.5t144 -21.5q75 0 127.5 22.5t80 65t27.5 102.5
q0 77 -45.5 135t-142.5 101t-250 72q-2 0 -4 0.5l-4 1t-4 0.5q-46 7 -95 17t-102 15l2 18q150 -19 272.5 -46.5t210.5 -68.5t135 -101t47 -144q0 -57 -20.5 -97t-56.5 -65t-81.5 -36.5t-96.5 -11.5zM828 0v20q14 0 17 -2.5t3 -7.5q0 -4 -3 -7t-17 -3z" />
    <glyph glyph-name="uniFBAF" unicode="&#x6d2;" horiz-adv-x="1017" arabic-form="final" 
d="M660 -331l4 -20q-22 -1 -43.5 -1.5t-43.5 -0.5q-92 0 -173.5 8.5t-148.5 25t-115 39t-74 51.5t-26 62q0 34 26.5 62.5t76.5 51.5t119.5 39.5t155 25t184.5 8.5h415v-20h-415q-117 0 -216 -12.5t-172 -35t-113.5 -53t-40.5 -66.5t40 -66.5t111.5 -53t165.5 -34.5t202 -12
q20 0 40.5 0.5t40.5 1.5zM1017 0v20q14 0 17 -2.5t3 -7.5q0 -4 -3 -7t-17 -3z" />
    <glyph glyph-name="uniFBB1" unicode="&#x6d3;" horiz-adv-x="1017" arabic-form="final" 
d="M660 -331l4 -20q-22 -1 -43.5 -1.5t-43.5 -0.5q-92 0 -173.5 8.5t-148.5 25t-115 39t-74 51.5t-26 62q0 34 26.5 62.5t76.5 51.5t119.5 39.5t155 25t184.5 8.5h415v-20h-415q-117 0 -216 -12.5t-172 -35t-113.5 -53t-40.5 -66.5t40 -66.5t111.5 -53t165.5 -34.5t202 -12
q20 0 40.5 0.5t40.5 1.5zM1017 0v20q14 0 17 -2.5t3 -7.5q0 -4 -3 -7t-17 -3zM162 62q-34 0 -57.5 14.5t-23.5 42.5q0 19 11 31t29 18.5t40 6.5q13 0 26 -2t23 -5l-9 -18q-8 3 -18.5 4t-21.5 1q-28 0 -44 -9.5t-16 -25.5q0 -17 16.5 -27.5t44.5 -10.5v-20zM75 62v20h141v-20
h-141z" />
    <glyph glyph-name="uniFBFD" unicode="&#x6cc;" horiz-adv-x="737" arabic-form="final" 
d="M403 -344q-112 0 -191 32.5t-120.5 97.5t-41.5 160q0 26 3 54.5t10 59.5l20 -4q-7 -30 -10 -57t-3 -53q0 -132 85 -201t248 -69q99 0 170.5 23.5t110 66.5t38.5 101q0 41 -17 69t-44.5 48t-60.5 34l11 16q26 -11 49.5 -26t42 -35t29 -46t10.5 -60q0 -42 -17 -76t-48 -59
t-73 -42t-93 -25.5t-108 -8.5zM703 0q-101 0 -153 50l14 16q15 -15 35.5 -25t46.5 -15.5t57 -5.5h34v-20h-34zM737 0v20q14 0 17 -2.5t3 -7.5q0 -4 -3 -7t-17 -3z" />
    <glyph glyph-name="uniFBFE" unicode="&#x6cc;" horiz-adv-x="238" arabic-form="initial" 
d="M138 442h20v-442h-158v20h138v422zM0 0q-14 0 -17 3t-3 7q0 5 3 7.5t17 2.5v-20zM152 -144q-10 0 -18 8t-8 18q0 11 8 18.5t19 7.5q10 0 17.5 -7.5t7.5 -18.5q0 -10 -7.5 -18t-18.5 -8zM84 -144q-10 0 -18 8t-8 18q0 11 8 18.5t19 7.5q10 0 17.5 -7.5t7.5 -18.5
q0 -10 -7.5 -18t-18.5 -8z" />
    <glyph glyph-name="uniFBFF" unicode="&#x6cc;" horiz-adv-x="312" arabic-form="medial" 
d="M0 0v20h16q53 0 85 12t47 39t15 71v300h20v-300q0 -50 -17.5 -81.5t-54 -46t-95.5 -14.5h-16zM297 0q-47 0 -76.5 14.5t-43.5 46t-14 81.5h20q0 -44 11 -71t36 -39t67 -12h15v-20h-15zM312 0v20q14 0 17 -2.5t3 -7.5q0 -4 -3 -7t-17 -3zM0 0q-14 0 -17 3t-3 7q0 5 3 7.5
t17 2.5v-20zM207 -144q-10 0 -18 8t-8 18q0 11 8 18.5t19 7.5q10 0 17.5 -7.5t7.5 -18.5q0 -10 -7.5 -18t-18.5 -8zM139 -144q-10 0 -18 8t-8 18q0 11 8 18.5t19 7.5q10 0 17.5 -7.5t7.5 -18.5q0 -10 -7.5 -18t-18.5 -8z" />
    <glyph glyph-name="uniFE82" unicode="&#x622;" horiz-adv-x="199" arabic-form="final" 
d="M110 0v20h89v-20h-89zM90 0v687h20v-687h-20zM199 0v20q14 0 17 -2.5t3 -7.5q0 -4 -3 -7t-17 -3zM-33 719q0 39 25.5 52t62.5 13q25 0 58.5 -3t66 -5.5t53.5 -0.5v-20q-21 -2 -54 0.5t-67.5 5.5t-58.5 3q-37 0 -51.5 -11t-14.5 -34h-20z" />
    <glyph glyph-name="uniFE84" unicode="&#x623;" horiz-adv-x="199" arabic-form="final" 
d="M110 0v20h89v-20h-89zM90 0v687h20v-687h-20zM199 0v20q14 0 17 -2.5t3 -7.5q0 -4 -3 -7t-17 -3zM116 729q-34 0 -57.5 14.5t-23.5 42.5q0 19 11 31t29 18.5t40 6.5q13 0 26 -2t23 -5l-9 -18q-8 3 -18.5 4t-21.5 1q-28 0 -44 -9.5t-16 -25.5q0 -17 16.5 -27.5t44.5 -10.5
v-20zM29 729v20h141v-20h-141z" />
    <glyph glyph-name="uniFE86" unicode="&#x624;" horiz-adv-x="586" arabic-form="final" 
d="M471 0v20h115v-20h-115zM586 0v20q14 0 17 -2.5t3 -7.5q0 -4 -3 -7t-17 -3zM116 -250v20h202q83 0 121 42.5t38 134.5v511l20 1v-512q0 -65 -18.5 -109t-58 -66t-102.5 -22h-202zM269 0q-69 0 -120.5 32t-80 86t-28.5 118q0 57 21.5 105t59.5 84t88.5 55.5t108.5 19.5
q48 0 94 -12t85 -29l-8 -18q-93 39 -171 39q-73 0 -131.5 -32.5t-92.5 -87.5t-34 -124q0 -62 27 -111t74.5 -77t107.5 -28h224v-20h-224zM313 582q-34 0 -57.5 14.5t-23.5 42.5q0 19 11 31t29 18.5t40 6.5q13 0 26 -2t23 -5l-9 -18q-8 3 -18.5 4t-21.5 1q-28 0 -44 -9.5
t-16 -25.5q0 -17 16.5 -27.5t44.5 -10.5v-20zM226 582v20h141v-20h-141z" />
    <glyph glyph-name="uniFE88" unicode="&#x625;" horiz-adv-x="199" arabic-form="final" 
d="M110 0v20h89v-20h-89zM90 0v799h20v-799h-20zM199 0v20q14 0 17 -2.5t3 -7.5q0 -4 -3 -7t-17 -3zM116 -155q-34 0 -57.5 14.5t-23.5 42.5q0 19 11 31t29 18.5t40 6.5q13 0 26 -2t23 -5l-9 -18q-8 3 -18.5 4t-21.5 1q-28 0 -44 -9.5t-16 -25.5q0 -17 16.5 -27.5
t44.5 -10.5v-20zM29 -155v20h141v-20h-141z" />
    <glyph glyph-name="uniFE8A" unicode="&#x626;" horiz-adv-x="875" arabic-form="final" 
d="M403 -344q-112 0 -191 32.5t-120.5 97.5t-41.5 160q0 26 3 54.5t10 59.5l20 -4q-7 -30 -10 -57t-3 -53q0 -132 85 -201t248 -69q99 0 170.5 23.5t110 66.5t38.5 101q0 41 -17 69t-44.5 48t-60.5 34l11 16q26 -11 49.5 -26t42 -35t29 -46t10.5 -60q0 -42 -17 -76t-48 -59
t-73 -42t-93 -25.5t-108 -8.5zM703 0q-101 0 -153 50l14 16q15 -15 35.5 -25t46.5 -15.5t57 -5.5h34v-20h-34zM737 0v20q14 0 17 -2.5t3 -7.5q0 -4 -3 -7t-17 -3zM96 260q-34 0 -57.5 14.5t-23.5 42.5q0 19 11 31t29 18.5t40 6.5q13 0 26 -2t23 -5l-9 -18q-8 3 -18.5 4
t-21.5 1q-28 0 -44 -9.5t-16 -25.5q0 -17 16.5 -27.5t44.5 -10.5v-20zM9 260v20h141v-20h-141z" />
    <glyph glyph-name="uniFE8B" unicode="&#x626;" horiz-adv-x="238" arabic-form="initial" 
d="M138 442h20v-442h-158v20h138v422zM0 0q-14 0 -17 3t-3 7q0 5 3 7.5t17 2.5v-20zM164 524q-34 0 -57.5 14.5t-23.5 42.5q0 19 11 31t29 18.5t40 6.5q13 0 26 -2t23 -5l-9 -18q-8 3 -18.5 4t-21.5 1q-28 0 -44 -9.5t-16 -25.5q0 -17 16.5 -27.5t44.5 -10.5v-20zM77 524v20
h141v-20h-141z" />
    <glyph glyph-name="uniFE8C" unicode="&#x626;" horiz-adv-x="312" arabic-form="medial" 
d="M0 0v20h16q53 0 85 12t47 39t15 71v300h20v-300q0 -50 -17.5 -81.5t-54 -46t-95.5 -14.5h-16zM297 0q-47 0 -76.5 14.5t-43.5 46t-14 81.5h20q0 -44 11 -71t36 -39t67 -12h15v-20h-15zM312 0v20q14 0 17 -2.5t3 -7.5q0 -4 -3 -7t-17 -3zM0 0q-14 0 -17 3t-3 7q0 5 3 7.5
t17 2.5v-20zM189 524q-34 0 -57.5 14.5t-23.5 42.5q0 19 11 31t29 18.5t40 6.5q13 0 26 -2t23 -5l-9 -18q-8 3 -18.5 4t-21.5 1q-28 0 -44 -9.5t-16 -25.5q0 -17 16.5 -27.5t44.5 -10.5v-20zM102 524v20h141v-20h-141z" />
    <glyph glyph-name="uniFE8E" unicode="&#x627;" horiz-adv-x="199" arabic-form="final" 
d="M110 0v20h89v-20h-89zM90 0v799h20v-799h-20zM199 0v20q14 0 17 -2.5t3 -7.5q0 -4 -3 -7t-17 -3z" />
    <glyph glyph-name="uniFE90" unicode="&#x628;" horiz-adv-x="870" arabic-form="final" 
d="M313 -1q-67 0 -117 19t-82 52.5t-48 75.5t-16 88q0 44 12.5 87t37.5 81l17 -11q-23 -35 -35 -75.5t-12 -81.5q0 -65 29.5 -113.5t84 -75t129.5 -26.5l269 1q53 0 85 12t47 39t15 71v300h20v-300q0 -50 -17.5 -81.5t-54 -46t-95.5 -14.5zM863 0q-47 0 -76.5 14.5t-43.5 46
t-14 81.5h20q0 -44 11 -71t36.5 -39t66.5 -12h7v-20h-7zM870 0v20q14 0 17 -2.5t3 -7.5q0 -4 -3 -7t-17 -3zM400 -144q-10 0 -18 8t-8 18q0 11 8 18.5t18 7.5q11 0 18.5 -7.5t7.5 -18.5q0 -10 -7.5 -18t-18.5 -8z" />
    <glyph glyph-name="uniFE91" unicode="&#x628;" horiz-adv-x="238" arabic-form="initial" 
d="M138 442h20v-442h-158v20h138v422zM0 0q-14 0 -17 3t-3 7q0 5 3 7.5t17 2.5v-20zM118 -144q-10 0 -18 8t-8 18q0 11 8 18.5t18 7.5q11 0 18.5 -7.5t7.5 -18.5q0 -10 -7.5 -18t-18.5 -8z" />
    <glyph glyph-name="uniFE92" unicode="&#x628;" horiz-adv-x="312" arabic-form="medial" 
d="M0 0v20h16q53 0 85 12t47 39t15 71v300h20v-300q0 -50 -17.5 -81.5t-54 -46t-95.5 -14.5h-16zM297 0q-47 0 -76.5 14.5t-43.5 46t-14 81.5h20q0 -44 11 -71t36 -39t67 -12h15v-20h-15zM312 0v20q14 0 17 -2.5t3 -7.5q0 -4 -3 -7t-17 -3zM0 0q-14 0 -17 3t-3 7q0 5 3 7.5
t17 2.5v-20zM173 -144q-10 0 -18 8t-8 18q0 11 8 18.5t18 7.5q11 0 18.5 -7.5t7.5 -18.5q0 -10 -7.5 -18t-18.5 -8z" />
    <glyph glyph-name="uniFE94" unicode="&#x629;" horiz-adv-x="571" arabic-form="final" 
d="M307 45q-58 0 -106.5 13t-84.5 38.5t-56 63t-20 85.5q0 59 28.5 103t81 75.5t123.5 50.5t155 28l2 -20q-91 -9 -160 -29t-116 -50.5t-70.5 -70t-23.5 -87.5q0 -55 30 -95.5t85.5 -62.5t131.5 -22q35 0 68.5 5t64.5 14l6 -20q-33 -9 -68 -14t-71 -5zM556 0
q-47 0 -76.5 14.5t-43.5 46t-14 81.5v385h20v-385q0 -44 11 -71t36.5 -39t66.5 -12h15v-20h-15zM571 0v20q14 0 17 -2.5t3 -7.5q0 -4 -3 -7t-17 -3zM322 609q-10 0 -18 8t-8 18q0 11 8 18.5t19 7.5q10 0 17.5 -7.5t7.5 -18.5q0 -10 -7.5 -18t-18.5 -8zM254 609q-10 0 -18 8
t-8 18q0 11 8 18.5t19 7.5q10 0 17.5 -7.5t7.5 -18.5q0 -10 -7.5 -18t-18.5 -8z" />
    <glyph glyph-name="uniFE96" unicode="&#x62a;" horiz-adv-x="870" arabic-form="final" 
d="M313 -1q-67 0 -117 19t-82 52.5t-48 75.5t-16 88q0 44 12.5 87t37.5 81l17 -11q-23 -35 -35 -75.5t-12 -81.5q0 -65 29.5 -113.5t84 -75t129.5 -26.5l269 1q53 0 85 12t47 39t15 71v300h20v-300q0 -50 -17.5 -81.5t-54 -46t-95.5 -14.5zM863 0q-47 0 -76.5 14.5t-43.5 46
t-14 81.5h20q0 -44 11 -71t36.5 -39t66.5 -12h7v-20h-7zM870 0v20q14 0 17 -2.5t3 -7.5q0 -4 -3 -7t-17 -3zM434 475q-10 0 -18 8t-8 18q0 11 8 18.5t19 7.5q10 0 17.5 -7.5t7.5 -18.5q0 -10 -7.5 -18t-18.5 -8zM366 475q-10 0 -18 8t-8 18q0 11 8 18.5t19 7.5
q10 0 17.5 -7.5t7.5 -18.5q0 -10 -7.5 -18t-18.5 -8z" />
    <glyph glyph-name="uniFE97" unicode="&#x62a;" horiz-adv-x="238" arabic-form="initial" 
d="M138 442h20v-442h-158v20h138v422zM0 0q-14 0 -17 3t-3 7q0 5 3 7.5t17 2.5v-20zM182 534q-10 0 -18 8t-8 18q0 11 8 18.5t19 7.5q10 0 17.5 -7.5t7.5 -18.5q0 -10 -7.5 -18t-18.5 -8zM114 534q-10 0 -18 8t-8 18q0 11 8 18.5t19 7.5q10 0 17.5 -7.5t7.5 -18.5
q0 -10 -7.5 -18t-18.5 -8z" />
    <glyph glyph-name="uniFE98" unicode="&#x62a;" horiz-adv-x="312" arabic-form="medial" 
d="M0 0v20h16q53 0 85 12t47 39t15 71v300h20v-300q0 -50 -17.5 -81.5t-54 -46t-95.5 -14.5h-16zM297 0q-47 0 -76.5 14.5t-43.5 46t-14 81.5h20q0 -44 11 -71t36 -39t67 -12h15v-20h-15zM312 0v20q14 0 17 -2.5t3 -7.5q0 -4 -3 -7t-17 -3zM0 0q-14 0 -17 3t-3 7q0 5 3 7.5
t17 2.5v-20zM207 534q-10 0 -18 8t-8 18q0 11 8 18.5t19 7.5q10 0 17.5 -7.5t7.5 -18.5q0 -10 -7.5 -18t-18.5 -8zM139 534q-10 0 -18 8t-8 18q0 11 8 18.5t19 7.5q10 0 17.5 -7.5t7.5 -18.5q0 -10 -7.5 -18t-18.5 -8z" />
    <glyph glyph-name="uniFE9A" unicode="&#x62b;" horiz-adv-x="870" arabic-form="final" 
d="M313 -1q-67 0 -117 19t-82 52.5t-48 75.5t-16 88q0 44 12.5 87t37.5 81l17 -11q-23 -35 -35 -75.5t-12 -81.5q0 -65 29.5 -113.5t84 -75t129.5 -26.5l269 1q53 0 85 12t47 39t15 71v300h20v-300q0 -50 -17.5 -81.5t-54 -46t-95.5 -14.5zM863 0q-47 0 -76.5 14.5t-43.5 46
t-14 81.5h20q0 -44 11 -71t36.5 -39t66.5 -12h7v-20h-7zM870 0v20q14 0 17 -2.5t3 -7.5q0 -4 -3 -7t-17 -3zM401 579q11 0 18.5 -7.5t7.5 -18.5q0 -10 -7.5 -18t-18.5 -8q-10 0 -18 8t-8 18q0 11 8 18.5t18 7.5zM435 527q10 0 17.5 -7.5t7.5 -18.5q0 -10 -7.5 -18t-18.5 -8
q-10 0 -18 8t-8 18q0 11 8 18.5t19 7.5zM367 527q10 0 17.5 -7.5t7.5 -18.5q0 -10 -7.5 -18t-18.5 -8q-10 0 -18 8t-8 18q0 11 8 18.5t19 7.5z" />
    <glyph glyph-name="uniFE9B" unicode="&#x62b;" horiz-adv-x="238" arabic-form="initial" 
d="M138 442h20v-442h-158v20h138v422zM0 0q-14 0 -17 3t-3 7q0 5 3 7.5t17 2.5v-20zM149 638q11 0 18.5 -7.5t7.5 -18.5q0 -10 -7.5 -18t-18.5 -8q-10 0 -18 8t-8 18q0 11 8 18.5t18 7.5zM183 586q10 0 17.5 -7.5t7.5 -18.5q0 -10 -7.5 -18t-18.5 -8q-10 0 -18 8t-8 18
q0 11 8 18.5t19 7.5zM115 586q10 0 17.5 -7.5t7.5 -18.5q0 -10 -7.5 -18t-18.5 -8q-10 0 -18 8t-8 18q0 11 8 18.5t19 7.5z" />
    <glyph glyph-name="uniFE9C" unicode="&#x62b;" horiz-adv-x="312" arabic-form="medial" 
d="M0 0v20h16q53 0 85 12t47 39t15 71v300h20v-300q0 -50 -17.5 -81.5t-54 -46t-95.5 -14.5h-16zM297 0q-47 0 -76.5 14.5t-43.5 46t-14 81.5h20q0 -44 11 -71t36 -39t67 -12h15v-20h-15zM312 0v20q14 0 17 -2.5t3 -7.5q0 -4 -3 -7t-17 -3zM0 0q-14 0 -17 3t-3 7q0 5 3 7.5
t17 2.5v-20zM174 638q11 0 18.5 -7.5t7.5 -18.5q0 -10 -7.5 -18t-18.5 -8q-10 0 -18 8t-8 18q0 11 8 18.5t18 7.5zM208 586q10 0 17.5 -7.5t7.5 -18.5q0 -10 -7.5 -18t-18.5 -8q-10 0 -18 8t-8 18q0 11 8 18.5t19 7.5zM140 586q10 0 17.5 -7.5t7.5 -18.5q0 -10 -7.5 -18
t-18.5 -8q-10 0 -18 8t-8 18q0 11 8 18.5t19 7.5z" />
    <glyph glyph-name="uniFE9E" unicode="&#x62c;" horiz-adv-x="741" arabic-form="final" 
d="M602 0v20h72v-20h-72zM565 0v250q0 65 -30.5 114t-84.5 76.5t-126 27.5q-50 0 -96.5 -13.5t-85.5 -39.5l-9 18q43 28 91.5 41.5t99.5 13.5q58 0 105.5 -17.5t82.5 -49t54 -75t19 -96.5v-250h-20zM312 -368q-52 0 -100.5 12t-87.5 35.5t-61.5 58t-22.5 78.5q0 39 19 75.5
t57 65.5t95 46t133 17v-20q-84 0 -148 -23.5t-100 -65t-36 -95.5q0 -47 33 -84.5t90 -58.5t129 -21q44 0 85 9t78 25l8 -18q-39 -18 -83 -27t-88 -9zM344 0v20h263l-2 -20h-261zM674 0v20q14 0 17 -2.5t3 -7.5q0 -4 -3 -7t-17 -3zM474 -115q-10 0 -18 8t-8 18q0 11 8 18.5
t18 7.5q11 0 18.5 -7.5t7.5 -18.5q0 -10 -7.5 -18t-18.5 -8z" />
    <glyph glyph-name="uniFE9F" unicode="&#x62c;" horiz-adv-x="576" arabic-form="initial" 
d="M484 0v250q0 65 -30.5 114t-84.5 76.5t-126 27.5q-50 0 -96.5 -13.5t-85.5 -39.5l-9 18q43 28 91.5 41.5t99.5 13.5q58 0 105.5 -17.5t82.5 -49t54 -75t19 -96.5v-250h-20zM0 0v20h526l-2 -20h-524zM0 0q-14 0 -17 3t-3 7q0 5 3 7.5t17 2.5v-20zM258 -144q-10 0 -18 8
t-8 18q0 11 8 18.5t18 7.5q11 0 18.5 -7.5t7.5 -18.5q0 -10 -7.5 -18t-18.5 -8z" />
    <glyph glyph-name="uniFEA0" unicode="&#x62c;" horiz-adv-x="593" arabic-form="medial" 
d="M488 0v20h105v-20h-105zM0 0q-14 0 -17 3t-3 7q0 5 3 7.5t17 2.5v-20zM484 0v250q0 65 -30.5 114t-84.5 76.5t-126 27.5q-50 0 -96.5 -13.5t-85.5 -39.5l-9 18q43 28 91.5 41.5t99.5 13.5q58 0 105.5 -17.5t82.5 -49t54 -75t19 -96.5v-250h-20zM0 0v20h526l-2 -20h-524z
M593 0v20q14 0 17 -2.5t3 -7.5q0 -4 -3 -7t-17 -3zM258 -144q-10 0 -18 8t-8 18q0 11 8 18.5t18 7.5q11 0 18.5 -7.5t7.5 -18.5q0 -10 -7.5 -18t-18.5 -8z" />
    <glyph glyph-name="uniFEA2" unicode="&#x62d;" horiz-adv-x="674" arabic-form="final" 
d="M602 0v20h72v-20h-72zM565 0v250q0 65 -30.5 114t-84.5 76.5t-126 27.5q-50 0 -96.5 -13.5t-85.5 -39.5l-9 18q43 28 91.5 41.5t99.5 13.5q58 0 105.5 -17.5t82.5 -49t54 -75t19 -96.5v-250h-20zM312 -368q-52 0 -100.5 12t-87.5 35.5t-61.5 58t-22.5 78.5q0 39 19 75.5
t57 65.5t95 46t133 17v-20q-84 0 -148 -23.5t-100 -65t-36 -95.5q0 -47 33 -84.5t90 -58.5t129 -21q44 0 85 9t78 25l8 -18q-39 -18 -83 -27t-88 -9zM344 0v20h263l-2 -20h-261zM674 0v20q14 0 17 -2.5t3 -7.5q0 -4 -3 -7t-17 -3z" />
    <glyph glyph-name="uniFEA3" unicode="&#x62d;" horiz-adv-x="576" arabic-form="initial" 
d="M484 0v250q0 65 -30.5 114t-84.5 76.5t-126 27.5q-50 0 -96.5 -13.5t-85.5 -39.5l-9 18q43 28 91.5 41.5t99.5 13.5q58 0 105.5 -17.5t82.5 -49t54 -75t19 -96.5v-250h-20zM0 0v20h526l-2 -20h-524zM0 0q-14 0 -17 3t-3 7q0 5 3 7.5t17 2.5v-20z" />
    <glyph glyph-name="uniFEA4" unicode="&#x62d;" horiz-adv-x="593" arabic-form="medial" 
d="M488 0v20h105v-20h-105zM0 0q-14 0 -17 3t-3 7q0 5 3 7.5t17 2.5v-20zM484 0v250q0 65 -30.5 114t-84.5 76.5t-126 27.5q-50 0 -96.5 -13.5t-85.5 -39.5l-9 18q43 28 91.5 41.5t99.5 13.5q58 0 105.5 -17.5t82.5 -49t54 -75t19 -96.5v-250h-20zM0 0v20h526l-2 -20h-524z
M593 0v20q14 0 17 -2.5t3 -7.5q0 -4 -3 -7t-17 -3z" />
    <glyph glyph-name="uniFEA6" unicode="&#x62e;" horiz-adv-x="674" arabic-form="final" 
d="M602 0v20h72v-20h-72zM565 0v250q0 65 -30.5 114t-84.5 76.5t-126 27.5q-50 0 -96.5 -13.5t-85.5 -39.5l-9 18q43 28 91.5 41.5t99.5 13.5q58 0 105.5 -17.5t82.5 -49t54 -75t19 -96.5v-250h-20zM312 -368q-52 0 -100.5 12t-87.5 35.5t-61.5 58t-22.5 78.5q0 39 19 75.5
t57 65.5t95 46t133 17v-20q-84 0 -148 -23.5t-100 -65t-36 -95.5q0 -47 33 -84.5t90 -58.5t129 -21q44 0 85 9t78 25l8 -18q-39 -18 -83 -27t-88 -9zM344 0v20h263l-2 -20h-261zM674 0v20q14 0 17 -2.5t3 -7.5q0 -4 -3 -7t-17 -3zM324 580q-10 0 -18 8t-8 18q0 11 8 18.5
t18 7.5q11 0 18.5 -7.5t7.5 -18.5q0 -10 -7.5 -18t-18.5 -8z" />
    <glyph glyph-name="uniFEA7" unicode="&#x62e;" horiz-adv-x="576" arabic-form="initial" 
d="M484 0v250q0 65 -30.5 114t-84.5 76.5t-126 27.5q-50 0 -96.5 -13.5t-85.5 -39.5l-9 18q43 28 91.5 41.5t99.5 13.5q58 0 105.5 -17.5t82.5 -49t54 -75t19 -96.5v-250h-20zM0 0v20h526l-2 -20h-524zM0 0q-14 0 -17 3t-3 7q0 5 3 7.5t17 2.5v-20zM243 580q-10 0 -18 8
t-8 18q0 11 8 18.5t18 7.5q11 0 18.5 -7.5t7.5 -18.5q0 -10 -7.5 -18t-18.5 -8z" />
    <glyph glyph-name="uniFEA8" unicode="&#x62e;" horiz-adv-x="593" arabic-form="medial" 
d="M488 0v20h105v-20h-105zM0 0q-14 0 -17 3t-3 7q0 5 3 7.5t17 2.5v-20zM484 0v250q0 65 -30.5 114t-84.5 76.5t-126 27.5q-50 0 -96.5 -13.5t-85.5 -39.5l-9 18q43 28 91.5 41.5t99.5 13.5q58 0 105.5 -17.5t82.5 -49t54 -75t19 -96.5v-250h-20zM0 0v20h526l-2 -20h-524z
M593 0v20q14 0 17 -2.5t3 -7.5q0 -4 -3 -7t-17 -3zM243 580q-10 0 -18 8t-8 18q0 11 8 18.5t18 7.5q11 0 18.5 -7.5t7.5 -18.5q0 -10 -7.5 -18t-18.5 -8z" />
    <glyph glyph-name="uniFEAA" unicode="&#x62f;" horiz-adv-x="554" arabic-form="final" 
d="M442 0v20h112v-20h-112zM554 0v20q14 0 17 -2.5t3 -7.5q0 -4 -3 -7t-17 -3zM463 0q1 126 -36.5 227.5t-111.5 167.5t-183 85l4 20q108 -19 186 -85t120.5 -171.5t40.5 -243.5h-20zM50 0v20h429v-20h-429z" />
    <glyph glyph-name="uniFEAC" unicode="&#x630;" horiz-adv-x="554" arabic-form="final" 
d="M442 0v20h112v-20h-112zM554 0v20q14 0 17 -2.5t3 -7.5q0 -4 -3 -7t-17 -3zM463 0q1 126 -36.5 227.5t-111.5 167.5t-183 85l4 20q108 -19 186 -85t120.5 -171.5t40.5 -243.5h-20zM50 0v20h429v-20h-429zM194 592q-10 0 -18 8t-8 18q0 11 8 18.5t18 7.5q11 0 18.5 -7.5
t7.5 -18.5q0 -10 -7.5 -18t-18.5 -8z" />
    <glyph glyph-name="uniFEAE" unicode="&#x631;" horiz-adv-x="259" arabic-form="final" 
d="M157 0v20h102v-20h-102zM0 -230q49 1 82 21t50.5 59.5t17.5 96.5v495h20v-495q0 -62 -19 -105.5t-55.5 -66.5t-89.5 -25zM259 0v20q14 0 17 -2.5t3 -7.5q0 -4 -3 -7t-17 -3z" />
    <glyph glyph-name="uniFEB0" unicode="&#x632;" horiz-adv-x="259" arabic-form="final" 
d="M157 0v20h102v-20h-102zM0 -230q49 1 82 21t50.5 59.5t17.5 96.5v495h20v-495q0 -62 -19 -105.5t-55.5 -66.5t-89.5 -25zM259 0v20q14 0 17 -2.5t3 -7.5q0 -4 -3 -7t-17 -3zM160 534q-10 0 -18 8t-8 18q0 11 8 18.5t18 7.5q11 0 18.5 -7.5t7.5 -18.5q0 -10 -7.5 -18
t-18.5 -8z" />
    <glyph glyph-name="uniFEB2" unicode="&#x633;" horiz-adv-x="1245" arabic-form="final" 
d="M1230 0q-47 0 -76.5 14.5t-43.5 46t-14 81.5h20q0 -44 11 -71t36.5 -39t66.5 -12h15v-20h-15zM321 -220q-68 0 -120.5 23.5t-88 65.5t-54 98t-18.5 121q0 35 5.5 71.5t14.5 70.5l19 -4q-9 -34 -14 -69t-5 -69q0 -87 32.5 -152t91 -100.5t137.5 -35.5t137.5 35.5t91 100.5
t32.5 152v244h20v-244q0 -65 -18.5 -121t-54 -98t-88 -65.5t-120.5 -23.5zM681 0q-19 0 -36 2t-31 6t-27 9l4 20q17 -8 39.5 -12.5t51.5 -4.5q70 0 103 28t33 94v240h20v-240q0 -50 -17 -81.5t-51.5 -46t-88.5 -14.5zM948 4q-34 0 -60 5.5t-46 17t-37 27.5l14 16
q23 -22 52.5 -34t77.5 -12q70 0 103 28t33 94v296h20v-296q0 -50 -17 -81.5t-51.5 -46t-88.5 -14.5zM1245 0v20q14 0 17 -2.5t3 -7.5q0 -4 -3 -7t-17 -3z" />
    <glyph glyph-name="uniFEB3" unicode="&#x633;" horiz-adv-x="755" arabic-form="initial" 
d="M528 0q-34 0 -60 5.5t-46 17t-37 27.5l14 16q23 -22 52.5 -34t77.5 -12q70 0 103 28t33 94v300h20v-300q0 -50 -17 -81.5t-51.5 -46t-88.5 -14.5zM0 0v20h16q53 0 85 12t47 39t15 71v190h20v-190q0 -50 -17.5 -81.5t-54 -46t-95.5 -14.5h-16zM277 0q-34 0 -60 5.5t-46 17
t-37 27.5l14 16q23 -22 52.5 -34t77.5 -12q70 0 103 28t33 94v240h20v-240q0 -50 -17 -81.5t-51.5 -46t-88.5 -14.5zM0 0q-14 0 -17 3t-3 7q0 5 3 7.5t17 2.5v-20z" />
    <glyph glyph-name="uniFEB4" unicode="&#x633;" horiz-adv-x="814" arabic-form="medial" 
d="M799 0q-47 0 -76.5 14.5t-43.5 46t-14 81.5h20q0 -44 11 -71t36.5 -39t66.5 -12h15v-20h-15zM0 0q-14 0 -17 3t-3 7q0 5 3 7.5t17 2.5v-20zM528 0q-34 0 -60 5.5t-46 17t-37 27.5l14 16q23 -22 52.5 -34t77.5 -12q70 0 103 28t33 94v300h20v-300q0 -50 -17 -81.5
t-51.5 -46t-88.5 -14.5zM0 0v20h16q53 0 85 12t47 39t15 71v190h20v-190q0 -50 -17.5 -81.5t-54 -46t-95.5 -14.5h-16zM277 0q-34 0 -60 5.5t-46 17t-37 27.5l14 16q23 -22 52.5 -34t77.5 -12q70 0 103 28t33 94v240h20v-240q0 -50 -17 -81.5t-51.5 -46t-88.5 -14.5zM814 0
v20q14 0 17 -2.5t3 -7.5q0 -4 -3 -7t-17 -3z" />
    <glyph glyph-name="uniFEB6" unicode="&#x634;" horiz-adv-x="1245" arabic-form="final" 
d="M1230 0q-47 0 -76.5 14.5t-43.5 46t-14 81.5h20q0 -44 11 -71t36.5 -39t66.5 -12h15v-20h-15zM321 -220q-68 0 -120.5 23.5t-88 65.5t-54 98t-18.5 121q0 35 5.5 71.5t14.5 70.5l19 -4q-9 -34 -14 -69t-5 -69q0 -87 32.5 -152t91 -100.5t137.5 -35.5t137.5 35.5t91 100.5
t32.5 152v244h20v-244q0 -65 -18.5 -121t-54 -98t-88 -65.5t-120.5 -23.5zM681 0q-19 0 -36 2t-31 6t-27 9l4 20q17 -8 39.5 -12.5t51.5 -4.5q70 0 103 28t33 94v240h20v-240q0 -50 -17 -81.5t-51.5 -46t-88.5 -14.5zM948 4q-34 0 -60 5.5t-46 17t-37 27.5l14 16
q23 -22 52.5 -34t77.5 -12q70 0 103 28t33 94v296h20v-296q0 -50 -17 -81.5t-51.5 -46t-88.5 -14.5zM1245 0v20q14 0 17 -2.5t3 -7.5q0 -4 -3 -7t-17 -3zM829 628q11 0 18.5 -7.5t7.5 -18.5q0 -10 -7.5 -18t-18.5 -8q-10 0 -18 8t-8 18q0 11 8 18.5t18 7.5zM863 576
q10 0 17.5 -7.5t7.5 -18.5q0 -10 -7.5 -18t-18.5 -8q-10 0 -18 8t-8 18q0 11 8 18.5t19 7.5zM795 576q10 0 17.5 -7.5t7.5 -18.5q0 -10 -7.5 -18t-18.5 -8q-10 0 -18 8t-8 18q0 11 8 18.5t19 7.5z" />
    <glyph glyph-name="uniFEB7" unicode="&#x634;" horiz-adv-x="755" arabic-form="initial" 
d="M528 0q-34 0 -60 5.5t-46 17t-37 27.5l14 16q23 -22 52.5 -34t77.5 -12q70 0 103 28t33 94v300h20v-300q0 -50 -17 -81.5t-51.5 -46t-88.5 -14.5zM0 0v20h16q53 0 85 12t47 39t15 71v190h20v-190q0 -50 -17.5 -81.5t-54 -46t-95.5 -14.5h-16zM277 0q-34 0 -60 5.5t-46 17
t-37 27.5l14 16q23 -22 52.5 -34t77.5 -12q70 0 103 28t33 94v240h20v-240q0 -50 -17 -81.5t-51.5 -46t-88.5 -14.5zM0 0q-14 0 -17 3t-3 7q0 5 3 7.5t17 2.5v-20zM425 628q11 0 18.5 -7.5t7.5 -18.5q0 -10 -7.5 -18t-18.5 -8q-10 0 -18 8t-8 18q0 11 8 18.5t18 7.5z
M459 576q10 0 17.5 -7.5t7.5 -18.5q0 -10 -7.5 -18t-18.5 -8q-10 0 -18 8t-8 18q0 11 8 18.5t19 7.5zM391 576q10 0 17.5 -7.5t7.5 -18.5q0 -10 -7.5 -18t-18.5 -8q-10 0 -18 8t-8 18q0 11 8 18.5t19 7.5z" />
    <glyph glyph-name="uniFEB8" unicode="&#x634;" horiz-adv-x="814" arabic-form="medial" 
d="M799 0q-47 0 -76.5 14.5t-43.5 46t-14 81.5h20q0 -44 11 -71t36.5 -39t66.5 -12h15v-20h-15zM0 0q-14 0 -17 3t-3 7q0 5 3 7.5t17 2.5v-20zM528 0q-34 0 -60 5.5t-46 17t-37 27.5l14 16q23 -22 52.5 -34t77.5 -12q70 0 103 28t33 94v300h20v-300q0 -50 -17 -81.5
t-51.5 -46t-88.5 -14.5zM0 0v20h16q53 0 85 12t47 39t15 71v190h20v-190q0 -50 -17.5 -81.5t-54 -46t-95.5 -14.5h-16zM277 0q-34 0 -60 5.5t-46 17t-37 27.5l14 16q23 -22 52.5 -34t77.5 -12q70 0 103 28t33 94v240h20v-240q0 -50 -17 -81.5t-51.5 -46t-88.5 -14.5zM814 0
v20q14 0 17 -2.5t3 -7.5q0 -4 -3 -7t-17 -3zM425 628q11 0 18.5 -7.5t7.5 -18.5q0 -10 -7.5 -18t-18.5 -8q-10 0 -18 8t-8 18q0 11 8 18.5t18 7.5zM459 576q10 0 17.5 -7.5t7.5 -18.5q0 -10 -7.5 -18t-18.5 -8q-10 0 -18 8t-8 18q0 11 8 18.5t19 7.5zM391 576
q10 0 17.5 -7.5t7.5 -18.5q0 -10 -7.5 -18t-18.5 -8q-10 0 -18 8t-8 18q0 11 8 18.5t19 7.5z" />
    <glyph glyph-name="uniFEBA" unicode="&#x635;" horiz-adv-x="1341" arabic-form="final" 
d="M1191 0v20h150v-20h-150zM715 0q-60 0 -92 24t-40 78l19 15q3 -35 15 -56.5t36.5 -31t61.5 -9.5h538v-20h-538zM1233 0v173q0 88 -29.5 154t-83.5 103t-128 37q-67 0 -121.5 -29.5t-96.5 -77.5t-70.5 -106.5t-44 -117t-17.5 -107.5h-20q2 42 13.5 92t32.5 101.5
t52.5 98.5t72.5 84.5t91 59.5t110 22q64 0 112.5 -25t81 -69t49 -100.5t16.5 -119.5v-173h-20zM321 -220q-68 0 -120.5 23.5t-88 65.5t-54 98t-18.5 121q0 35 5.5 71.5t14.5 70.5l19 -4q-9 -34 -14 -69t-5 -69q0 -87 32.5 -152t91 -100.5t137.5 -35.5t137.5 35.5t91 100.5
t32.5 152v294h20v-294q0 -65 -18.5 -121t-54 -98t-88 -65.5t-120.5 -23.5zM1341 0v20q14 0 17 -2.5t3 -7.5q0 -4 -3 -7t-17 -3z" />
    <glyph glyph-name="uniFEBB" unicode="&#x635;" horiz-adv-x="905" arabic-form="initial" 
d="M815 0v173q0 88 -29.5 154t-83.5 103t-128 37q-67 0 -121.5 -29.5t-96.5 -77.5t-70.5 -106.5t-44 -117t-17.5 -107.5h-20q2 42 13.5 92t32.5 101.5t52.5 98.5t72.5 84.5t91 59.5t110 22q64 0 112.5 -25t81 -69t49 -100.5t16.5 -119.5v-173h-20zM0 0v20h16q53 0 85 12
t47 39t15 71v240h20v-240q0 -50 -17.5 -81.5t-54 -46t-95.5 -14.5h-16zM297 0q-47 0 -76.5 14.5t-43.5 46t-14 81.5h20q0 -44 11 -71t36 -39t67 -12h538v-20h-538zM0 0q-14 0 -17 3t-3 7q0 5 3 7.5t17 2.5v-20z" />
    <glyph glyph-name="uniFEBC" unicode="&#x635;" horiz-adv-x="927" arabic-form="medial" 
d="M825 0v20h102v-20h-102zM0 0q-14 0 -17 3t-3 7q0 5 3 7.5t17 2.5v-20zM815 0v173q0 88 -29.5 154t-83.5 103t-128 37q-67 0 -121.5 -29.5t-96.5 -77.5t-70.5 -106.5t-44 -117t-17.5 -107.5h-20q2 42 13.5 92t32.5 101.5t52.5 98.5t72.5 84.5t91 59.5t110 22
q64 0 112.5 -25t81 -69t49 -100.5t16.5 -119.5v-173h-20zM0 0v20h16q53 0 85 12t47 39t15 71v240h20v-240q0 -50 -17.5 -81.5t-54 -46t-95.5 -14.5h-16zM297 0q-47 0 -76.5 14.5t-43.5 46t-14 81.5h20q0 -44 11 -71t36 -39t67 -12h538v-20h-538zM927 0v20q14 0 17 -2.5
t3 -7.5q0 -4 -3 -7t-17 -3z" />
    <glyph glyph-name="uniFEBE" unicode="&#x636;" horiz-adv-x="1341" arabic-form="final" 
d="M1191 0v20h150v-20h-150zM715 0q-60 0 -92 24t-40 78l19 15q3 -35 15 -56.5t36.5 -31t61.5 -9.5h538v-20h-538zM1233 0v173q0 88 -29.5 154t-83.5 103t-128 37q-67 0 -121.5 -29.5t-96.5 -77.5t-70.5 -106.5t-44 -117t-17.5 -107.5h-20q2 42 13.5 92t32.5 101.5
t52.5 98.5t72.5 84.5t91 59.5t110 22q64 0 112.5 -25t81 -69t49 -100.5t16.5 -119.5v-173h-20zM321 -220q-68 0 -120.5 23.5t-88 65.5t-54 98t-18.5 121q0 35 5.5 71.5t14.5 70.5l19 -4q-9 -34 -14 -69t-5 -69q0 -87 32.5 -152t91 -100.5t137.5 -35.5t137.5 35.5t91 100.5
t32.5 152v294h20v-294q0 -65 -18.5 -121t-54 -98t-88 -65.5t-120.5 -23.5zM1341 0v20q14 0 17 -2.5t3 -7.5q0 -4 -3 -7t-17 -3zM994 579q-10 0 -18 8t-8 18q0 11 8 18.5t18 7.5q11 0 18.5 -7.5t7.5 -18.5q0 -10 -7.5 -18t-18.5 -8z" />
    <glyph glyph-name="uniFEBF" unicode="&#x636;" horiz-adv-x="905" arabic-form="initial" 
d="M815 0v173q0 88 -29.5 154t-83.5 103t-128 37q-67 0 -121.5 -29.5t-96.5 -77.5t-70.5 -106.5t-44 -117t-17.5 -107.5h-20q2 42 13.5 92t32.5 101.5t52.5 98.5t72.5 84.5t91 59.5t110 22q64 0 112.5 -25t81 -69t49 -100.5t16.5 -119.5v-173h-20zM0 0v20h16q53 0 85 12
t47 39t15 71v240h20v-240q0 -50 -17.5 -81.5t-54 -46t-95.5 -14.5h-16zM297 0q-47 0 -76.5 14.5t-43.5 46t-14 81.5h20q0 -44 11 -71t36 -39t67 -12h538v-20h-538zM0 0q-14 0 -17 3t-3 7q0 5 3 7.5t17 2.5v-20zM576 579q-10 0 -18 8t-8 18q0 11 8 18.5t18 7.5
q11 0 18.5 -7.5t7.5 -18.5q0 -10 -7.5 -18t-18.5 -8z" />
    <glyph glyph-name="uniFEC0" unicode="&#x636;" horiz-adv-x="927" arabic-form="medial" 
d="M825 0v20h102v-20h-102zM0 0q-14 0 -17 3t-3 7q0 5 3 7.5t17 2.5v-20zM815 0v173q0 88 -29.5 154t-83.5 103t-128 37q-67 0 -121.5 -29.5t-96.5 -77.5t-70.5 -106.5t-44 -117t-17.5 -107.5h-20q2 42 13.5 92t32.5 101.5t52.5 98.5t72.5 84.5t91 59.5t110 22
q64 0 112.5 -25t81 -69t49 -100.5t16.5 -119.5v-173h-20zM0 0v20h16q53 0 85 12t47 39t15 71v240h20v-240q0 -50 -17.5 -81.5t-54 -46t-95.5 -14.5h-16zM297 0q-47 0 -76.5 14.5t-43.5 46t-14 81.5h20q0 -44 11 -71t36 -39t67 -12h538v-20h-538zM927 0v20q14 0 17 -2.5
t3 -7.5q0 -4 -3 -7t-17 -3zM576 579q-10 0 -18 8t-8 18q0 11 8 18.5t18 7.5q11 0 18.5 -7.5t7.5 -18.5q0 -10 -7.5 -18t-18.5 -8z" />
    <glyph glyph-name="uniFEC2" unicode="&#x637;" horiz-adv-x="862" arabic-form="final" 
d="M753 0v20h109v-20h-109zM753 0v173q0 88 -29.5 154t-83.5 103t-128 37q-69 0 -124.5 -30.5t-97.5 -81t-70.5 -110.5t-43 -120t-14.5 -108h-20q0 41 10.5 91.5t31.5 103.5t52 102t72.5 88t93 62t112.5 23q64 0 112.5 -25t81 -69t49 -100.5t16.5 -119.5v-173h-20zM40 0v20
h717v-20h-717zM142 17v782h20v-782h-20zM862 0v20q14 0 17 -2.5t3 -7.5q0 -4 -3 -7t-17 -3z" />
    <glyph glyph-name="uniFEC3" unicode="&#x637;" horiz-adv-x="864" arabic-form="initial" 
d="M0 0v20h61v-20h-61zM774 0v173q0 88 -29.5 154t-83.5 103t-128 37q-69 0 -124.5 -30.5t-97.5 -81t-70.5 -110.5t-43 -120t-14.5 -108h-20q0 41 10.5 91.5t31.5 103.5t52 102t72.5 88t93 62t112.5 23q64 0 112.5 -25t81 -69t49 -100.5t16.5 -119.5v-173h-20zM61 0v20h717
v-20h-717zM163 17v782h20v-782h-20zM0 0q-14 0 -17 3t-3 7q0 5 3 7.5t17 2.5v-20z" />
    <glyph glyph-name="uniFEC4" unicode="&#x637;" horiz-adv-x="858" arabic-form="medial" 
d="M769 0v20h89v-20h-89zM858 0v20q14 0 17 -2.5t3 -7.5q0 -4 -3 -7t-17 -3zM774 0v173q0 88 -29.5 154t-83.5 103t-128 37q-69 0 -124.5 -30.5t-97.5 -81t-70.5 -110.5t-43 -120t-14.5 -108h-20q0 41 10.5 91.5t31.5 103.5t52 102t72.5 88t93 62t112.5 23q64 0 112.5 -25
t81 -69t49 -100.5t16.5 -119.5v-173h-20zM61 0v20h717v-20h-717zM163 17v782h20v-782h-20zM0 0q-14 0 -17 3t-3 7q0 5 3 7.5t17 2.5v-20zM0 0v20h61v-20h-61z" />
    <glyph glyph-name="uniFEC6" unicode="&#x638;" horiz-adv-x="862" arabic-form="final" 
d="M753 0v20h109v-20h-109zM753 0v173q0 88 -29.5 154t-83.5 103t-128 37q-69 0 -124.5 -30.5t-97.5 -81t-70.5 -110.5t-43 -120t-14.5 -108h-20q0 41 10.5 91.5t31.5 103.5t52 102t72.5 88t93 62t112.5 23q64 0 112.5 -25t81 -69t49 -100.5t16.5 -119.5v-173h-20zM40 0v20
h717v-20h-717zM142 17v782h20v-782h-20zM862 0v20q14 0 17 -2.5t3 -7.5q0 -4 -3 -7t-17 -3zM514 579q-10 0 -18 8t-8 18q0 11 8 18.5t18 7.5q11 0 18.5 -7.5t7.5 -18.5q0 -10 -7.5 -18t-18.5 -8z" />
    <glyph glyph-name="uniFEC7" unicode="&#x638;" horiz-adv-x="864" arabic-form="initial" 
d="M0 0v20h61v-20h-61zM774 0v173q0 88 -29.5 154t-83.5 103t-128 37q-69 0 -124.5 -30.5t-97.5 -81t-70.5 -110.5t-43 -120t-14.5 -108h-20q0 41 10.5 91.5t31.5 103.5t52 102t72.5 88t93 62t112.5 23q64 0 112.5 -25t81 -69t49 -100.5t16.5 -119.5v-173h-20zM61 0v20h717
v-20h-717zM163 17v782h20v-782h-20zM0 0q-14 0 -17 3t-3 7q0 5 3 7.5t17 2.5v-20zM535 579q-10 0 -18 8t-8 18q0 11 8 18.5t18 7.5q11 0 18.5 -7.5t7.5 -18.5q0 -10 -7.5 -18t-18.5 -8z" />
    <glyph glyph-name="uniFEC8" unicode="&#x638;" horiz-adv-x="858" arabic-form="medial" 
d="M769 0v20h89v-20h-89zM858 0v20q14 0 17 -2.5t3 -7.5q0 -4 -3 -7t-17 -3zM774 0v173q0 88 -29.5 154t-83.5 103t-128 37q-69 0 -124.5 -30.5t-97.5 -81t-70.5 -110.5t-43 -120t-14.5 -108h-20q0 41 10.5 91.5t31.5 103.5t52 102t72.5 88t93 62t112.5 23q64 0 112.5 -25
t81 -69t49 -100.5t16.5 -119.5v-173h-20zM61 0v20h717v-20h-717zM163 17v782h20v-782h-20zM0 0q-14 0 -17 3t-3 7q0 5 3 7.5t17 2.5v-20zM0 0v20h61v-20h-61zM535 579q-10 0 -18 8t-8 18q0 11 8 18.5t18 7.5q11 0 18.5 -7.5t7.5 -18.5q0 -10 -7.5 -18t-18.5 -8z" />
    <glyph glyph-name="uniFECA" unicode="&#x639;" horiz-adv-x="680" arabic-form="final" 
d="M288 -364q-54 0 -99.5 14.5t-79 41t-51.5 63t-18 80.5q0 50 20.5 82t55 51.5t75.5 31t82 20.5q102 22 173 62.5t107.5 97t36.5 126.5q0 57 -29 95.5t-85.5 58.5t-140.5 20q-82 0 -140.5 -17t-105.5 -38l-13 -26l-18 10l17 31q47 23 109.5 41.5t150.5 18.5q81 0 143 -20
t97 -63t35 -111q0 -57 -22.5 -105.5t-65 -87.5t-104.5 -67.5t-141 -45.5q-41 -9 -79.5 -19.5t-69.5 -28t-49.5 -45.5t-18.5 -72q0 -59 32.5 -99t85 -60t110.5 -20q34 0 69.5 6t68.5 17t57 24l10 -17q-39 -22 -96 -36t-109 -14zM520 0q-128 0 -228 51t-161 143t-73 215l17 31
q6 -128 64 -222.5t156.5 -146t224.5 -51.5h160v-20h-160zM680 0v20q14 0 17 -2.5t3 -7.5q0 -4 -3 -7t-17 -3z" />
    <glyph glyph-name="uniFECB" unicode="&#x639;" horiz-adv-x="590" arabic-form="initial" 
d="M354 0q-89 0 -151 27t-93.5 80t-31.5 130q0 61 19.5 109.5t55.5 83t87 52.5t115 18q45 0 95.5 -8t86.5 -21l-7 -19q-37 14 -86.5 21t-88.5 7q-123 0 -190 -66.5t-67 -176.5q0 -70 28.5 -118.5t85.5 -73.5t142 -25v-20zM0 0v20h560v-20h-560zM0 0q-14 0 -17 3t-3 7
q0 5 3 7.5t17 2.5v-20z" />
    <glyph glyph-name="uniFECC" unicode="&#x639;" horiz-adv-x="690" arabic-form="medial" 
d="M0 0v20h137q49 0 110 16t123 45t114 68t84 84t32 94q0 46 -32.5 80t-90.5 53.5t-137 19.5q-63 0 -121 -13t-120 -42l-13 -26l-18 10l17 31q47 23 110 41.5t145 18.5q84 0 147 -21.5t98 -60t35 -91.5q0 -44 -23.5 -85t-64 -77.5t-91 -66.5t-105 -52t-106 -34t-93.5 -12
h-137zM530 0q-128 0 -228 51t-161 143t-73 215l17 31q6 -128 64 -222.5t156.5 -146t224.5 -51.5h160v-20h-160zM690 0v20q14 0 17 -2.5t3 -7.5q0 -4 -3 -7t-17 -3zM0 0q-14 0 -17 3t-3 7q0 5 3 7.5t17 2.5v-20z" />
    <glyph glyph-name="uniFECE" unicode="&#x63a;" horiz-adv-x="680" arabic-form="final" 
d="M288 -364q-54 0 -99.5 14.5t-79 41t-51.5 63t-18 80.5q0 50 20.5 82t55 51.5t75.5 31t82 20.5q102 22 173 62.5t107.5 97t36.5 126.5q0 57 -29 95.5t-85.5 58.5t-140.5 20q-82 0 -140.5 -17t-105.5 -38l-13 -26l-18 10l17 31q47 23 109.5 41.5t150.5 18.5q81 0 143 -20
t97 -63t35 -111q0 -57 -22.5 -105.5t-65 -87.5t-104.5 -67.5t-141 -45.5q-41 -9 -79.5 -19.5t-69.5 -28t-49.5 -45.5t-18.5 -72q0 -59 32.5 -99t85 -60t110.5 -20q34 0 69.5 6t68.5 17t57 24l10 -17q-39 -22 -96 -36t-109 -14zM520 0q-128 0 -228 51t-161 143t-73 215l17 31
q6 -128 64 -222.5t156.5 -146t224.5 -51.5h160v-20h-160zM680 0v20q14 0 17 -2.5t3 -7.5q0 -4 -3 -7t-17 -3zM335 592q-10 0 -18 8t-8 18q0 11 8 18.5t18 7.5q11 0 18.5 -7.5t7.5 -18.5q0 -10 -7.5 -18t-18.5 -8z" />
    <glyph glyph-name="uniFECF" unicode="&#x63a;" horiz-adv-x="590" arabic-form="initial" 
d="M354 0q-89 0 -151 27t-93.5 80t-31.5 130q0 61 19.5 109.5t55.5 83t87 52.5t115 18q45 0 95.5 -8t86.5 -21l-7 -19q-37 14 -86.5 21t-88.5 7q-123 0 -190 -66.5t-67 -176.5q0 -70 28.5 -118.5t85.5 -73.5t142 -25v-20zM0 0v20h560v-20h-560zM0 0q-14 0 -17 3t-3 7
q0 5 3 7.5t17 2.5v-20zM355 592q-10 0 -18 8t-8 18q0 11 8 18.5t18 7.5q11 0 18.5 -7.5t7.5 -18.5q0 -10 -7.5 -18t-18.5 -8z" />
    <glyph glyph-name="uniFED0" unicode="&#x63a;" horiz-adv-x="690" arabic-form="medial" 
d="M0 0v20h137q49 0 110 16t123 45t114 68t84 84t32 94q0 46 -32.5 80t-90.5 53.5t-137 19.5q-63 0 -121 -13t-120 -42l-13 -26l-18 10l17 31q47 23 110 41.5t145 18.5q84 0 147 -21.5t98 -60t35 -91.5q0 -44 -23.5 -85t-64 -77.5t-91 -66.5t-105 -52t-106 -34t-93.5 -12
h-137zM530 0q-128 0 -228 51t-161 143t-73 215l17 31q6 -128 64 -222.5t156.5 -146t224.5 -51.5h160v-20h-160zM690 0v20q14 0 17 -2.5t3 -7.5q0 -4 -3 -7t-17 -3zM0 0q-14 0 -17 3t-3 7q0 5 3 7.5t17 2.5v-20zM340 592q-10 0 -18 8t-8 18q0 11 8 18.5t18 7.5
q11 0 18.5 -7.5t7.5 -18.5q0 -10 -7.5 -18t-18.5 -8z" />
    <glyph glyph-name="uniFED2" unicode="&#x641;" horiz-adv-x="991" arabic-form="final" 
d="M313 0q-67 0 -117 19.5t-82 52.5t-48 75t-16 88q0 44 12.5 87t37.5 81l17 -11q-23 -35 -35 -75.5t-12 -81.5q0 -65 29.5 -113.5t84 -75t129.5 -26.5h51v-20h-51zM991 0v20q14 0 17 -2.5t3 -7.5q0 -4 -3 -7t-17 -3zM364 0q-14 0 -17 3t-3 7q0 5 3 7.5t17 2.5v-20zM364 0
v20q87 0 160.5 8t132.5 24q1 1 2 1t2 0.5t2 0.5q73 21 122.5 53t75 75t25.5 96q0 58 -27 103.5t-74 72t-107 26.5q-59 0 -106.5 -26.5t-75 -71.5t-27.5 -103q0 -54 26 -97t76 -75t122 -53q2 0 3.5 -0.5l3 -1t2.5 -1.5q59 -15 131.5 -23t157.5 -8v-20q-118 0 -217.5 16.5
t-172 50.5t-112.5 86.5t-40 125.5q0 65 31 115t83 78t115 28t114.5 -28t82.5 -78t31 -116t-31.5 -113.5t-85.5 -79.5t-123.5 -50.5t-147 -26.5t-154.5 -8zM678 592q-10 0 -18 8t-8 18q0 11 8 18.5t18 7.5q11 0 18.5 -7.5t7.5 -18.5q0 -10 -7.5 -18t-18.5 -8z" />
    <glyph glyph-name="uniFED3" unicode="&#x641;" horiz-adv-x="660" arabic-form="initial" 
d="M0 0v20h570v439h20v-459h-590zM283 6q-45 22 -79 56t-52.5 78t-18.5 96q0 76 37.5 135.5t100.5 94t140 34.5q48 0 94 -12t85 -29l-9 -18q-38 16 -81.5 27.5t-89.5 11.5q-76 0 -134 -33.5t-90.5 -89t-32.5 -122.5q0 -82 48.5 -140t121.5 -83zM0 0q-14 0 -17 3t-3 7
q0 5 3 7.5t17 2.5v-20zM411 592q-10 0 -18 8t-8 18q0 11 8 18.5t18 7.5q11 0 18.5 -7.5t7.5 -18.5q0 -10 -7.5 -18t-18.5 -8z" />
    <glyph glyph-name="uniFED4" unicode="&#x641;" horiz-adv-x="627" arabic-form="medial" 
d="M0 0v20q87 0 160.5 8t132.5 24q1 1 2 1t2 0.5t2 0.5q73 21 122.5 53t75 75t25.5 96q0 58 -27 103.5t-74 72t-107 26.5t-107 -26.5t-74.5 -71.5t-27.5 -103q0 -54 26 -97t76 -75t122 -53q2 0 3.5 -0.5l3 -1t2.5 -1.5q59 -15 131.5 -23t157.5 -8v-20q-118 0 -217.5 16.5
t-172 50.5t-112.5 86.5t-40 125.5q0 65 31 115t83 78t115 28t114.5 -28t82.5 -78t31 -116t-31.5 -113.5t-85.5 -79.5t-123.5 -50.5t-147 -26.5t-154.5 -8zM627 0v20q14 0 17 -2.5t3 -7.5q0 -4 -3 -7t-17 -3zM0 0q-14 0 -17 3t-3 7q0 5 3 7.5t17 2.5v-20zM314 592
q-10 0 -18 8t-8 18q0 11 8 18.5t18 7.5q11 0 18.5 -7.5t7.5 -18.5q0 -10 -7.5 -18t-18.5 -8z" />
    <glyph glyph-name="uniFED6" unicode="&#x642;" horiz-adv-x="811" arabic-form="final" 
d="M647 0v20h164v-20h-164zM811 0v20q14 0 17 -2.5t3 -7.5q0 -4 -3 -7t-17 -3zM381 -276q-82 0 -146 28.5t-107 79.5t-65.5 119t-22.5 147q0 43 7 87t17 85l19 -5q-11 -45 -17 -87t-6 -80q0 -107 39.5 -187t112 -123.5t169.5 -43.5q98 0 170 43.5t111.5 123.5t39.5 187v361
h20v-361q0 -79 -22.5 -147t-65.5 -119t-106.5 -79.5t-146.5 -28.5zM494 0q-69 0 -120.5 32t-80 86t-28.5 118q0 57 21.5 105t59.5 84t88.5 55.5t108.5 19.5q48 0 94 -12t85 -29l-8 -18q-93 39 -171 39q-73 0 -131.5 -32.5t-92.5 -87.5t-34 -124q0 -62 27 -111t74.5 -77
t107.5 -28h208v-20h-208zM577 592q-10 0 -18 8t-8 18q0 11 8 18.5t19 7.5q10 0 17.5 -7.5t7.5 -18.5q0 -10 -7.5 -18t-18.5 -8zM509 592q-10 0 -18 8t-8 18q0 11 8 18.5t19 7.5q10 0 17.5 -7.5t7.5 -18.5q0 -10 -7.5 -18t-18.5 -8z" />
    <glyph glyph-name="uniFED7" unicode="&#x642;" horiz-adv-x="660" arabic-form="initial" 
d="M0 0v20h570v439h20v-459h-590zM283 6q-45 22 -79 56t-52.5 78t-18.5 96q0 76 37.5 135.5t100.5 94t140 34.5q48 0 94 -12t85 -29l-9 -18q-38 16 -81.5 27.5t-89.5 11.5q-76 0 -134 -33.5t-90.5 -89t-32.5 -122.5q0 -82 48.5 -140t121.5 -83zM0 0q-14 0 -17 3t-3 7
q0 5 3 7.5t17 2.5v-20zM445 592q-10 0 -18 8t-8 18q0 11 8 18.5t19 7.5q10 0 17.5 -7.5t7.5 -18.5q0 -10 -7.5 -18t-18.5 -8zM377 592q-10 0 -18 8t-8 18q0 11 8 18.5t19 7.5q10 0 17.5 -7.5t7.5 -18.5q0 -10 -7.5 -18t-18.5 -8z" />
    <glyph glyph-name="uniFED8" unicode="&#x642;" horiz-adv-x="627" arabic-form="medial" 
d="M0 0v20q87 0 160.5 8t132.5 24q1 1 2 1t2 0.5t2 0.5q73 21 122.5 53t75 75t25.5 96q0 58 -27 103.5t-74 72t-107 26.5t-107 -26.5t-74.5 -71.5t-27.5 -103q0 -54 26 -97t76 -75t122 -53q2 0 3.5 -0.5l3 -1t2.5 -1.5q59 -15 131.5 -23t157.5 -8v-20q-118 0 -217.5 16.5
t-172 50.5t-112.5 86.5t-40 125.5q0 65 31 115t83 78t115 28t114.5 -28t82.5 -78t31 -116t-31.5 -113.5t-85.5 -79.5t-123.5 -50.5t-147 -26.5t-154.5 -8zM627 0v20q14 0 17 -2.5t3 -7.5q0 -4 -3 -7t-17 -3zM0 0q-14 0 -17 3t-3 7q0 5 3 7.5t17 2.5v-20zM348 592
q-10 0 -18 8t-8 18q0 11 8 18.5t19 7.5q10 0 17.5 -7.5t7.5 -18.5q0 -10 -7.5 -18t-18.5 -8zM280 592q-10 0 -18 8t-8 18q0 11 8 18.5t19 7.5q10 0 17.5 -7.5t7.5 -18.5q0 -10 -7.5 -18t-18.5 -8z" />
    <glyph glyph-name="uniFEDA" unicode="&#x643;" horiz-adv-x="838" arabic-form="final" 
d="M736 0v20h102v-20h-102zM313 0q-67 0 -117 19.5t-82 52.5t-48 75t-16 88q0 44 12.5 87t37.5 81l17 -11q-23 -35 -35 -75.5t-12 -81.5q0 -65 29.5 -113.5t84 -75t129.5 -26.5h416v779h20v-799h-436zM838 0v20q14 0 17 -2.5t3 -7.5q0 -4 -3 -7t-17 -3zM342 355v20
q61 0 84 9.5t23 21.5l2 -4l-73 27q-15 5 -21.5 13t-6.5 18q0 15 13 31t37 27.5t57 11.5v-20q-23 0 -43 -8.5t-32 -21.5t-12 -27l-8 6l73 -27q18 -7 25 -15t7 -19q0 -7 -4.5 -15t-17.5 -14t-38 -10t-65 -4z" />
    <glyph glyph-name="uniFEDB" unicode="&#x643;" horiz-adv-x="462" arabic-form="initial" 
d="M0 0v20h104q70 0 122 22.5t80.5 63.5t28.5 95q0 38 -14.5 70t-44.5 63.5t-77 68.5t-112 85l-70 52l12 16l70 -52q65 -48 113 -86t80 -71.5t47.5 -68.5t15.5 -77q0 -64 -33 -109t-90 -68.5t-128 -23.5h-104zM17 540v22l375 173v-23zM0 0q-14 0 -17 3t-3 7q0 5 3 7.5
t17 2.5v-20z" />
    <glyph glyph-name="uniFEDC" unicode="&#x643;" horiz-adv-x="484" arabic-form="medial" 
d="M469 0q-47 0 -76.5 14.5t-43.5 46t-14 81.5v56h20v-56q0 -44 11 -71t36.5 -39t66.5 -12h15v-20h-15zM0 0q-14 0 -17 3t-3 7q0 5 3 7.5t17 2.5v-20zM0 0v20h104q70 0 122 22.5t80.5 63.5t28.5 95q0 38 -14.5 70t-44.5 63.5t-77 68.5t-112 85l-70 52l12 16l70 -52
q65 -48 113 -86t80 -71.5t47.5 -68.5t15.5 -77q0 -64 -33 -109t-90 -68.5t-128 -23.5h-104zM17 540v22l375 173v-23zM484 0v20q14 0 17 -2.5t3 -7.5q0 -4 -3 -7t-17 -3z" />
    <glyph glyph-name="uniFEDE" unicode="&#x644;" horiz-adv-x="731" arabic-form="final" 
d="M716 0q-47 0 -76.5 14.5t-43.5 46t-14 81.5h20q0 -44 11 -71t36.5 -39t66.5 -12h15v-20h-15zM321 -210q-68 0 -120.5 23.5t-88 65.5t-54 98t-18.5 121q0 35 5.5 71.5t14.5 70.5l19 -4q-9 -34 -14 -69t-5 -69q0 -87 32.5 -152t91 -100.5t137.5 -35.5t137.5 35.5t91 100.5
t32.5 152v701h20v-701q0 -65 -18.5 -121t-54 -98t-88 -65.5t-120.5 -23.5zM731 0v20q14 0 17 -2.5t3 -7.5q0 -4 -3 -7t-17 -3z" />
    <glyph glyph-name="uniFEDF" unicode="&#x644;" horiz-adv-x="203" arabic-form="initial" 
d="M0 0v20h113v779h20v-799h-133zM0 0q-14 0 -17 3t-3 7q0 5 3 7.5t17 2.5v-20z" />
    <glyph glyph-name="uniFEE0" unicode="&#x644;" horiz-adv-x="292" arabic-form="medial" 
d="M0 0v20h6q53 0 85 12t47 39t15 71v657h20v-657q0 -50 -17.5 -81.5t-54 -46t-95.5 -14.5h-6zM287 0q-47 0 -76.5 14.5t-43.5 46t-14 81.5h20q0 -44 11 -71t36 -39t67 -12h5v-20h-5zM292 0v20q14 0 17 -2.5t3 -7.5q0 -4 -3 -7t-17 -3zM0 0q-14 0 -17 3t-3 7q0 5 3 7.5
t17 2.5v-20z" />
    <glyph glyph-name="uniFEE2" unicode="&#x645;" horiz-adv-x="648" arabic-form="final" 
d="M633 0q-47 0 -76.5 14.5t-43.5 46t-14 81.5l1 61h19v-61q0 -44 11 -71t36.5 -39t66.5 -12h15v-20h-15zM69 -348q-4 32 -9 73t-9.5 82.5t-7.5 76t-3 52.5q0 29 7 51.5t21 38.5t33 24.5t43 8.5q16 0 50 -4.5t79.5 -12t96 -17t98.5 -19.5l-4 -20q-48 10 -98 19.5t-95 17
t-78.5 12t-48.5 4.5q-20 0 -39.5 -9.5t-32 -32t-12.5 -61.5q0 -18 3 -52.5t7.5 -76.5t9.5 -83t9 -72h-20zM464 -14l-17 10q24 43 38 99t14 109q0 101 -43 160t-117 59q-53 0 -92.5 -35.5t-70.5 -91t-60 -116.5l-17 11q21 46 45 90.5t52.5 81t63.5 58.5t79 22q49 0 83.5 -21
t55.5 -55.5t31 -77t10 -85.5q0 -47 -13 -106.5t-42 -111.5zM648 0v20q14 0 17 -2.5t3 -7.5q0 -4 -3 -7t-17 -3z" />
    <glyph glyph-name="uniFEE3" unicode="&#x645;" horiz-adv-x="661" arabic-form="initial" 
d="M0 0v20q45 0 74.5 22t52 59.5t43.5 85.5q21 46 45 91.5t52.5 82.5t64 59t79.5 22q49 0 83.5 -21t55.5 -55.5t31 -77t10 -85.5q0 -47 -13 -106.5t-42 -111.5l-17 10q24 43 38 99t14 109q0 101 -43 160t-117 59q-53 0 -92.5 -35.5t-70.5 -91t-60 -116.5q-21 -48 -45.5 -89
t-58 -65.5t-84.5 -24.5zM535 5l1 -20q-83 -4 -144 2t-107 21.5t-81 39.5t-66 56l14 14q46 -47 97.5 -73.5t120.5 -35.5t165 -4zM0 0q-14 0 -17 3t-3 7q0 5 3 7.5t17 2.5v-20z" />
    <glyph glyph-name="uniFEE4" unicode="&#x645;" horiz-adv-x="720" arabic-form="medial" 
d="M705 0q-47 0 -76.5 14.5t-43.5 46t-14 81.5l1 55h19v-55q0 -44 11 -71t36.5 -39t66.5 -12h15v-20h-15zM0 0q-14 0 -17 3t-3 7q0 5 3 7.5t17 2.5v-20zM0 0v20q45 0 74.5 22t52 59.5t43.5 85.5q21 46 45 91.5t52.5 82.5t64 59t79.5 22q49 0 83.5 -21t55.5 -55.5t31 -77
t10 -85.5q0 -47 -13 -106.5t-42 -111.5l-17 10q24 43 38 99t14 109q0 101 -43 160t-117 59q-53 0 -92.5 -35.5t-70.5 -91t-60 -116.5q-21 -48 -45.5 -89t-58 -65.5t-84.5 -24.5zM535 5l1 -20q-83 -4 -144 2t-107 21.5t-81 39.5t-66 56l14 14q46 -47 97.5 -73.5t120.5 -35.5
t165 -4zM720 0v20q14 0 17 -2.5t3 -7.5q0 -4 -3 -7t-17 -3z" />
    <glyph glyph-name="uniFEE6" unicode="&#x646;" horiz-adv-x="730" arabic-form="final" 
d="M715 0q-61 0 -92.5 24t-39.5 78l18 28q2 -60 28.5 -85t85.5 -25h15v-20h-15zM321 -250q-68 0 -120.5 23.5t-88 65.5t-54 98t-18.5 121q0 35 5.5 71.5t14.5 70.5l19 -4q-9 -34 -14 -69t-5 -69q0 -87 32.5 -152t91 -100.5t137.5 -35.5t137.5 35.5t91 100.5t32.5 152v384h20
v-384q0 -65 -18.5 -121t-54 -98t-88 -65.5t-120.5 -23.5zM730 0v20q14 0 17 -2.5t3 -7.5q0 -4 -3 -7t-17 -3zM321 442q-10 0 -18 8t-8 18q0 11 8 18.5t18 7.5q11 0 18.5 -7.5t7.5 -18.5q0 -10 -7.5 -18t-18.5 -8z" />
    <glyph glyph-name="uniFEE7" unicode="&#x646;" horiz-adv-x="238" arabic-form="initial" 
d="M138 442h20v-442h-158v20h138v422zM0 0q-14 0 -17 3t-3 7q0 5 3 7.5t17 2.5v-20zM148 534q-10 0 -18 8t-8 18q0 11 8 18.5t18 7.5q11 0 18.5 -7.5t7.5 -18.5q0 -10 -7.5 -18t-18.5 -8z" />
    <glyph glyph-name="uniFEE8" unicode="&#x646;" horiz-adv-x="312" arabic-form="medial" 
d="M0 0v20h16q53 0 85 12t47 39t15 71v300h20v-300q0 -50 -17.5 -81.5t-54 -46t-95.5 -14.5h-16zM297 0q-47 0 -76.5 14.5t-43.5 46t-14 81.5h20q0 -44 11 -71t36 -39t67 -12h15v-20h-15zM312 0v20q14 0 17 -2.5t3 -7.5q0 -4 -3 -7t-17 -3zM0 0q-14 0 -17 3t-3 7q0 5 3 7.5
t17 2.5v-20zM173 534q-10 0 -18 8t-8 18q0 11 8 18.5t18 7.5q11 0 18.5 -7.5t7.5 -18.5q0 -10 -7.5 -18t-18.5 -8z" />
    <glyph glyph-name="uniFEEA" unicode="&#x647;" horiz-adv-x="571" arabic-form="final" 
d="M307 45q-58 0 -106.5 13t-84.5 38.5t-56 63t-20 85.5q0 59 28.5 103t81 75.5t123.5 50.5t155 28l2 -20q-91 -9 -160 -29t-116 -50.5t-70.5 -70t-23.5 -87.5q0 -55 30 -95.5t85.5 -62.5t131.5 -22q35 0 68.5 5t64.5 14l6 -20q-33 -9 -68 -14t-71 -5zM556 0
q-47 0 -76.5 14.5t-43.5 46t-14 81.5v385h20v-385q0 -44 11 -71t36.5 -39t66.5 -12h15v-20h-15zM571 0v20q14 0 17 -2.5t3 -7.5q0 -4 -3 -7t-17 -3z" />
    <glyph glyph-name="uniFEEB" unicode="&#x647;" horiz-adv-x="759" arabic-form="initial" 
d="M444 -2q-70 0 -140.5 20.5t-128 58.5t-92.5 91.5t-35 120.5q0 68 26 122.5t71.5 86t103.5 31.5q44 0 81.5 -18t65 -48.5t43 -70t15.5 -82.5q0 -61 -31 -116.5t-90 -99t-143 -69t-190 -25.5v20q94 0 173 22t137.5 61t91 92t32.5 115q0 55 -25 100t-67 72t-93 27
q-52 0 -93 -28.5t-64.5 -78t-23.5 -113.5q0 -55 29.5 -104.5t82 -86.5t120.5 -58.5t144 -21.5q75 0 127.5 22.5t80 65t27.5 102.5q0 77 -45.5 135t-142.5 101t-250 72q-2 0 -4 0.5l-4 1t-4 0.5q-46 7 -95 17t-102 15l2 18q150 -19 272.5 -46.5t210.5 -68.5t135 -101t47 -144
q0 -57 -20.5 -97t-56.5 -65t-81.5 -36.5t-96.5 -11.5zM0 0q-14 0 -17 3t-3 7q0 5 3 7.5t17 2.5v-20z" />
    <glyph glyph-name="uniFEEC" unicode="&#x647;" horiz-adv-x="608" arabic-form="medial" 
d="M340 -297q-51 0 -100.5 19.5t-89.5 57.5t-64 93t-24 127v133q0 104 24.5 177t64.5 118.5t88.5 66.5t96.5 21q59 0 106.5 -26.5t75.5 -75t28 -113.5q0 -68 -30.5 -123.5t-84.5 -95t-125 -61t-153 -21.5h-153v20h153q108 0 192.5 36.5t132.5 100t48 144.5q0 58 -24 101.5
t-67 68.5t-99 25q-76 0 -133 -45t-89 -126.5t-32 -191.5v-133q0 -79 34 -141.5t92 -99t130 -36.5q56 0 98.5 22t66 61t23.5 89q0 58 -32.5 103t-98.5 77l23 11q128 -71 128 -191q0 -59 -27.5 -102t-74.5 -66.5t-104 -23.5zM608 0q-47 0 -101.5 21.5t-97.5 46.5l10 17
q42 -24 93.5 -44.5t95.5 -20.5v-20zM608 0v20q14 0 17 -2.5t3 -7.5q0 -4 -3 -7t-17 -3zM0 0q-14 0 -17 3t-3 7q0 5 3 7.5t17 2.5v-20z" />
    <glyph glyph-name="uniFEEE" unicode="&#x648;" horiz-adv-x="586" arabic-form="final" 
d="M471 0v20h115v-20h-115zM586 0v20q14 0 17 -2.5t3 -7.5q0 -4 -3 -7t-17 -3zM116 -250v20h202q83 0 121 42.5t38 134.5v511l20 1v-512q0 -65 -18.5 -109t-58 -66t-102.5 -22h-202zM269 0q-69 0 -120.5 32t-80 86t-28.5 118q0 57 21.5 105t59.5 84t88.5 55.5t108.5 19.5
q48 0 94 -12t85 -29l-8 -18q-93 39 -171 39q-73 0 -131.5 -32.5t-92.5 -87.5t-34 -124q0 -62 27 -111t74.5 -77t107.5 -28h224v-20h-224z" />
    <glyph glyph-name="uniFEF0" unicode="&#x649;" horiz-adv-x="737" arabic-form="final" 
d="M403 -344q-112 0 -191 32.5t-120.5 97.5t-41.5 160q0 26 3 54.5t10 59.5l20 -4q-7 -30 -10 -57t-3 -53q0 -132 85 -201t248 -69q99 0 170.5 23.5t110 66.5t38.5 101q0 41 -17 69t-44.5 48t-60.5 34l11 16q26 -11 49.5 -26t42 -35t29 -46t10.5 -60q0 -42 -17 -76t-48 -59
t-73 -42t-93 -25.5t-108 -8.5zM703 0q-101 0 -153 50l14 16q15 -15 35.5 -25t46.5 -15.5t57 -5.5h34v-20h-34zM737 0v20q14 0 17 -2.5t3 -7.5q0 -4 -3 -7t-17 -3z" />
    <glyph glyph-name="uniFEF2" unicode="&#x64a;" horiz-adv-x="737" arabic-form="final" 
d="M403 -344q-112 0 -191 32.5t-120.5 97.5t-41.5 160q0 26 3 54.5t10 59.5l20 -4q-7 -30 -10 -57t-3 -53q0 -132 85 -201t248 -69q99 0 170.5 23.5t110 66.5t38.5 101q0 41 -17 69t-44.5 48t-60.5 34l11 16q26 -11 49.5 -26t42 -35t29 -46t10.5 -60q0 -42 -17 -76t-48 -59
t-73 -42t-93 -25.5t-108 -8.5zM703 0q-101 0 -153 50l14 16q15 -15 35.5 -25t46.5 -15.5t57 -5.5h34v-20h-34zM737 0v20q14 0 17 -2.5t3 -7.5q0 -4 -3 -7t-17 -3zM437 -488q-10 0 -18 8t-8 18q0 11 8 18.5t19 7.5q10 0 17.5 -7.5t7.5 -18.5q0 -10 -7.5 -18t-18.5 -8z
M369 -488q-10 0 -18 8t-8 18q0 11 8 18.5t19 7.5q10 0 17.5 -7.5t7.5 -18.5q0 -10 -7.5 -18t-18.5 -8z" />
    <glyph glyph-name="uniFEF3" unicode="&#x64a;" horiz-adv-x="238" arabic-form="initial" 
d="M138 442h20v-442h-158v20h138v422zM0 0q-14 0 -17 3t-3 7q0 5 3 7.5t17 2.5v-20zM152 -144q-10 0 -18 8t-8 18q0 11 8 18.5t19 7.5q10 0 17.5 -7.5t7.5 -18.5q0 -10 -7.5 -18t-18.5 -8zM84 -144q-10 0 -18 8t-8 18q0 11 8 18.5t19 7.5q10 0 17.5 -7.5t7.5 -18.5
q0 -10 -7.5 -18t-18.5 -8z" />
    <glyph glyph-name="uniFEF4" unicode="&#x64a;" horiz-adv-x="312" arabic-form="medial" 
d="M0 0v20h16q53 0 85 12t47 39t15 71v300h20v-300q0 -50 -17.5 -81.5t-54 -46t-95.5 -14.5h-16zM297 0q-47 0 -76.5 14.5t-43.5 46t-14 81.5h20q0 -44 11 -71t36 -39t67 -12h15v-20h-15zM312 0v20q14 0 17 -2.5t3 -7.5q0 -4 -3 -7t-17 -3zM0 0q-14 0 -17 3t-3 7q0 5 3 7.5
t17 2.5v-20zM207 -144q-10 0 -18 8t-8 18q0 11 8 18.5t19 7.5q10 0 17.5 -7.5t7.5 -18.5q0 -10 -7.5 -18t-18.5 -8zM139 -144q-10 0 -18 8t-8 18q0 11 8 18.5t19 7.5q10 0 17.5 -7.5t7.5 -18.5q0 -10 -7.5 -18t-18.5 -8z" />
    <glyph glyph-name=".notdef" horiz-adv-x="587" 
d="M40 0v700h507v-700h-507zM120 70h347v560h-347v-560z" />
    <glyph glyph-name=".null" 
 />
    <glyph glyph-name="nonmarkingreturn" horiz-adv-x="333" 
 />
    <glyph glyph-name="CR" unicode="&#xd;" horiz-adv-x="300" 
 />
    <glyph glyph-name="space" unicode=" " horiz-adv-x="200" 
 />
    <glyph glyph-name="exclam" unicode="!" horiz-adv-x="192" 
d="M86 682h20v-162v-332h-20v332v162zM96 45q11 0 18.5 -7.5t7.5 -18.5q0 -10 -7.5 -18t-18.5 -8q-10 0 -18 8t-8 18q0 11 8 18.5t18 7.5z" />
    <glyph glyph-name="quotedbl" unicode="&#x22;" horiz-adv-x="236" 
d="M60 699h20v-190h-20v190zM156 699h20v-190h-20v190z" />
    <glyph glyph-name="numbersign" unicode="#" horiz-adv-x="707" 
d="M46 228h580l1 -20h-580zM78 488h580l1 -20h-580zM256 699h20l-86 -699h-20zM516 699h20l-86 -699h-20z" />
    <glyph glyph-name="dollar" unicode="$" horiz-adv-x="593" 
d="M280 804h20v-117h-20v117zM280 11h20v-130h-20v130zM478 636q-22 15 -51.5 25.5t-61.5 16t-63 5.5q-92 0 -147.5 -37.5t-55.5 -99.5q0 -51 22.5 -82t60 -50.5t82.5 -33t89.5 -27.5t82 -35.5t59.5 -57t22 -91.5q0 -52 -29 -90.5t-82.5 -60t-125.5 -21.5q-44 0 -88 12.5
t-83 34.5t-68 52l14 14q27 -28 63.5 -49t78 -32.5t83.5 -11.5q99 0 158 41.5t59 110.5q0 52 -22 84t-59.5 52t-82 33.5t-89.5 28t-82.5 35.5t-60 55.5t-22.5 89.5q0 47 27.5 82t78 54.5t117.5 19.5q49 0 99.5 -14t86.5 -37z" />
    <glyph glyph-name="percent" unicode="%" horiz-adv-x="924" 
d="M225 704q81 0 125 -54t44 -154t-44 -154t-125 -54q-53 0 -90.5 24t-57 70.5t-19.5 113.5q0 100 43.5 154t123.5 54zM225 686q-70 0 -108 -49t-38 -141t38 -141t108 -49q71 0 109 49t38 141t-38 141t-109 49zM710 699h26l-538 -699h-26zM697 411q81 0 125 -54t44 -154
t-44 -154t-125 -54q-53 0 -90.5 24t-57 70.5t-19.5 113.5q0 100 43.5 154t123.5 54zM697 393q-70 0 -108 -49t-38 -141t38 -141t108 -49q71 0 109 49t38 141t-38 141t-109 49z" />
    <glyph glyph-name="ampersand" unicode="&#x26;" horiz-adv-x="626" 
d="M577 299q-42 -92 -94 -159.5t-111 -103.5t-122 -36q-52 0 -95 24t-69 65.5t-26 93.5q0 55 26 93t67.5 66t88 51.5t88 47.5t67.5 55.5t26 75.5q0 48 -32 77.5t-87 29.5q-60 0 -96.5 -34t-36.5 -83q0 -46 32 -99.5t91 -119t141.5 -147t183.5 -183.5l-13 -13
q-81 81 -150.5 150t-125.5 127t-96 108t-61.5 93.5t-21.5 83.5q0 38 19.5 69t54 49.5t79.5 18.5q42 0 73.5 -16.5t48.5 -45t17 -66.5q0 -47 -26 -80.5t-67.5 -59.5t-88 -50t-88 -51t-67.5 -62t-26 -85q0 -47 23 -84t61.5 -58t85.5 -21q59 0 114 34.5t104 99.5t90 157z" />
    <glyph glyph-name="quotesingle" unicode="'" horiz-adv-x="140" 
d="M60 699h20v-190h-20v190z" />
    <glyph glyph-name="parenleft" unicode="(" horiz-adv-x="276" 
d="M236 742q-55 -82 -84 -193.5t-29 -239.5t29 -239.5t84 -193.5h-20q-55 82 -84 193.5t-29 239.5t29 239.5t84 193.5h20z" />
    <glyph glyph-name="parenright" unicode=")" horiz-adv-x="276" 
d="M40 742h20q55 -82 84 -193.5t29 -239.5t-29 -239.5t-84 -193.5h-20q55 82 84 193.5t29 239.5t-29 239.5t-84 193.5z" />
    <glyph glyph-name="asterisk" unicode="*" horiz-adv-x="298" 
d="M140 723h18v-117l101 59l9 -17l-101 -58l101 -58l-9 -17l-101 59v-117h-18v117l-101 -59l-9 17l100 58l-100 58l9 17l101 -59v117z" />
    <glyph glyph-name="plus" unicode="+" horiz-adv-x="480" 
d="M40 330h400v-20h-400v20zM230 520h20v-400h-20v400z" />
    <glyph glyph-name="comma" unicode="," horiz-adv-x="170" 
d="M87 -7q-10 0 -18 8t-8 18q0 11 8 18.5t18 7.5q11 0 18.5 -7.5t7.5 -18.5q0 -7 -2 -12.5t-5 -13.5l-43 -113h-20l42 124z" />
    <glyph glyph-name="hyphen" unicode="-" horiz-adv-x="357" 
d="M70 310h217v-20h-217v20z" />
    <glyph glyph-name="period" unicode="." horiz-adv-x="170" 
d="M85 45q11 0 18.5 -7.5t7.5 -18.5q0 -10 -7.5 -18t-18.5 -8q-10 0 -18 8t-8 18q0 11 8 18.5t18 7.5z" />
    <glyph glyph-name="slash" unicode="/" horiz-adv-x="294" 
d="M310 826h21l-306 -956h-21z" />
    <glyph glyph-name="zero" unicode="0" horiz-adv-x="723" 
d="M387 701q134 0 205.5 -91t71.5 -260t-71.5 -260.5t-205.5 -91.5q-133 0 -204.5 91.5t-71.5 260.5t71.5 260t204.5 91zM387 681q-124 0 -190 -85.5t-66 -245.5t66 -246t190 -86t190.5 86t66.5 246t-66.5 245.5t-190.5 85.5z" />
    <glyph glyph-name="one" unicode="1" horiz-adv-x="348" 
d="M6 699h206v-699h-19v688l9 -9h-196v20z" />
    <glyph glyph-name="two" unicode="2" horiz-adv-x="555" 
d="M325 328q55 57 87 113t32 97q0 67 -50 105t-137 38q-54 0 -107.5 -22.5t-94.5 -62.5l-14 14q43 43 100.5 67t115.5 24q64 0 110.5 -19.5t71.5 -56t25 -87.5q0 -45 -33.5 -104.5t-91.5 -119.5l-286 -301l-3 7h469v-20h-480l1 29z" />
    <glyph glyph-name="three" unicode="3" horiz-adv-x="570" 
d="M247 394q120 0 192.5 -48.5t72.5 -135.5q0 -63 -32 -110.5t-90.5 -74.5t-139.5 -27q-60 0 -118.5 16.5t-102.5 42.5l12 16q41 -25 97 -40t113 -15q76 0 129.5 24t82.5 66.5t29 97.5q0 83 -65 125.5t-179 42.5h-78v18l284 293l3 -6h-397v20h415v-18l-282 -293l-3 6h57z
" />
    <glyph glyph-name="four" unicode="4" horiz-adv-x="570" 
d="M35 208v25l291 466h23l-299 -479l-4 8h496v-20h-507zM401 452h20v-452h-20v452z" />
    <glyph glyph-name="five" unicode="5" horiz-adv-x="606" 
d="M158 380l-6 7q28 9 58.5 16t60 10.5t54.5 3.5q74 0 128.5 -24t84.5 -67.5t30 -102.5q0 -68 -30 -119t-85 -78.5t-130 -27.5q-56 0 -119 18.5t-113 49.5l10 16q49 -29 109.5 -46.5t112.5 -17.5q103 0 164 55.5t61 149.5q0 79 -61 126.5t-162 47.5q-21 0 -44 -2.5t-48 -7
t-49 -11.5t-46 -15v338h403v-20h-392l9 9v-308z" />
    <glyph glyph-name="six" unicode="6" horiz-adv-x="646" 
d="M535 639q-39 20 -85.5 31t-89.5 11q-90 0 -150.5 -52t-87 -148.5t-14.5 -230.5q17 88 81 138.5t163 50.5q69 0 119.5 -26t77.5 -74t27 -116q0 -70 -28 -120.5t-79.5 -77.5t-120.5 -27q-82 0 -141.5 38t-91 112.5t-31.5 183.5q0 111 33 194t94.5 129t146.5 46
q44 0 93.5 -12t93.5 -32zM352 419q-71 0 -122 -29t-78 -75t-27 -98q0 -30 12.5 -64.5t39 -65t67.5 -50t99 -19.5q63 0 111 25t75 71.5t27 110.5q0 90 -56 142t-148 52z" />
    <glyph glyph-name="seven" unicode="7" horiz-adv-x="555" 
d="M36 699h493v-25l-342 -674h-22l350 687l5 -8h-473l9 9v-121h-20v132z" />
    <glyph glyph-name="eight" unicode="8" horiz-adv-x="648" 
d="M324 701q66 0 113 -19.5t72.5 -56.5t25.5 -90q0 -61 -34.5 -100.5t-96.5 -58.5q77 -18 120.5 -64t43.5 -117q0 -62 -29.5 -106.5t-84 -67.5t-130.5 -23t-131 23t-84.5 67.5t-29.5 106.5q0 71 44 117t120 64q-62 19 -96.5 58.5t-34.5 100.5q0 53 25.5 90t73.5 56.5
t113 19.5zM323 363q-103 0 -163.5 -44.5t-60.5 -121.5q0 -84 60 -131.5t165 -47.5q104 0 164 47t60 131q0 77 -60 122t-165 45zM324 681q-89 0 -140.5 -39.5t-51.5 -108.5q0 -70 51.5 -110t140.5 -40t140 40t51 110q0 69 -51 108.5t-140 39.5z" />
    <glyph glyph-name="nine" unicode="9" horiz-adv-x="641" 
d="M132 60q38 -19 84 -30.5t88 -11.5q89 0 149 52t86.5 149.5t14.5 231.5q-16 -88 -79.5 -139t-161.5 -51q-69 0 -118.5 26t-76.5 74.5t-27 116.5q0 70 28 119.5t78.5 76.5t119.5 27q82 0 140 -38t89.5 -111.5t31.5 -182.5q0 -111 -33 -194.5t-93.5 -130t-145.5 -46.5
q-43 0 -91.5 12t-92.5 32zM322 681q-62 0 -109.5 -25t-74.5 -70.5t-27 -109.5q0 -91 55.5 -143t146.5 -52q70 0 120 29t77 75.5t27 98.5q0 30 -12.5 64t-38.5 64t-66.5 49.5t-97.5 19.5z" />
    <glyph glyph-name="colon" unicode=":" horiz-adv-x="170" 
d="M85 342q11 0 18.5 -7.5t7.5 -18.5q0 -10 -7.5 -18t-18.5 -8q-10 0 -18 8t-8 18q0 11 8 18.5t18 7.5zM85 45q11 0 18.5 -7.5t7.5 -18.5q0 -10 -7.5 -18t-18.5 -8q-10 0 -18 8t-8 18q0 11 8 18.5t18 7.5z" />
    <glyph glyph-name="semicolon" unicode=";" horiz-adv-x="170" 
d="M85 342q11 0 18.5 -7.5t7.5 -18.5q0 -10 -7.5 -18t-18.5 -8q-10 0 -18 8t-8 18q0 11 8 18.5t18 7.5zM87 -7q-10 0 -18 8t-8 18q0 11 8 18.5t18 7.5q11 0 18.5 -7.5t7.5 -18.5q0 -7 -2 -12.5t-5 -13.5l-43 -113h-20l42 124z" />
    <glyph glyph-name="less" unicode="&#x3c;" horiz-adv-x="480" 
d="M440 527v-22l-381 -177l381 -177v-22l-400 186v26z" />
    <glyph glyph-name="equal" unicode="=" horiz-adv-x="480" 
d="M40 430h400v-20h-400v20zM40 230h400v-20h-400v20z" />
    <glyph glyph-name="greater" unicode="&#x3e;" horiz-adv-x="480" 
d="M40 129v22l381 177l-381 177v22l400 -186v-26z" />
    <glyph glyph-name="question" unicode="?" horiz-adv-x="395" 
d="M24 536q5 70 53 106.5t121 36.5q49 0 88 -16.5t62 -49.5t23 -85q0 -43 -13 -72.5t-33.5 -51t-44 -40t-44 -39.5t-33.5 -49.5t-13 -69.5h-20q0 44 13 73.5t33.5 51.5t44 40.5t44 39.5t33.5 49t13 69q0 66 -43.5 98t-110.5 32t-107.5 -31.5t-45.5 -93.5zM178 45
q11 0 18.5 -7.5t7.5 -18.5q0 -10 -7.5 -18t-18.5 -8q-10 0 -18 8t-8 18q0 11 8 18.5t18 7.5z" />
    <glyph glyph-name="at" unicode="@" horiz-adv-x="1006" 
d="M732 96q0 -42 22.5 -67t52.5 -25q39 0 68 31.5t45 89t16 134.5q0 96 -32 177t-89.5 140t-136 92t-171.5 33q-95 0 -175 -32.5t-138.5 -91.5t-91 -139.5t-32.5 -175.5q0 -91 31.5 -168t88.5 -133.5t134.5 -87.5t169.5 -31q42 0 93 12.5t86 31.5l8 -18q-25 -13 -58 -23.5
t-66.5 -16.5t-62.5 -6q-96 0 -177.5 32.5t-141 92t-92.5 139.5t-33 176q0 100 34 184t95.5 145.5t145 95.5t182.5 34q98 0 180 -34.5t142 -96.5t93.5 -146.5t33.5 -184.5q0 -83 -18.5 -145t-52.5 -96t-80 -34q-38 0 -65.5 30.5t-27.5 81.5v64q-28 -70 -90 -112t-143 -42
q-73 0 -130 34t-90 92.5t-33 133.5q0 76 33 134.5t90 92.5t130 34q54 0 100 -19t80 -53.5t53 -81.5v152h20v-429zM479 507q-67 0 -120 -31.5t-83 -85.5t-30 -124q0 -69 30 -123.5t83 -85.5t120 -31q68 0 120.5 31t82.5 85.5t30 123.5q0 70 -30 124t-82.5 85.5t-120.5 31.5z
" />
    <glyph glyph-name="A" unicode="A" horiz-adv-x="686" 
d="M330 699h22l324 -699h-23l-312 676l-307 -676h-24zM125 233h434v-20h-434v20z" />
    <glyph glyph-name="B" unicode="B" horiz-adv-x="731" 
d="M409 699q68 0 115.5 -20.5t72.5 -59t25 -93.5q0 -66 -36 -108.5t-102 -53.5q83 -10 129 -56.5t46 -120.5q0 -59 -29.5 -101t-85 -64t-135.5 -22h-281v699h281zM409 372q92 0 142.5 40.5t50.5 113.5t-50.5 113t-142.5 40h-261v-307h261zM409 20q110 0 170.5 44t60.5 124
q0 79 -60.5 122t-170.5 43h-261v-333h261z" />
    <glyph glyph-name="C" unicode="C" horiz-adv-x="705" 
d="M636 599q-45 41 -103.5 63t-123.5 22q-70 0 -131.5 -26t-108.5 -72t-73.5 -106.5t-26.5 -129.5t26.5 -129.5t73.5 -106.5t108.5 -72t131.5 -26q65 0 123.5 23t103.5 63l14 -13q-32 -28 -70.5 -49t-81.5 -32t-89 -11q-74 0 -139 27.5t-114.5 76.5t-77.5 113t-28 136
q0 73 28 137t77.5 112.5t114.5 76t139 27.5q46 0 89 -11t81 -31t70 -49z" />
    <glyph glyph-name="D" unicode="D" horiz-adv-x="811" 
d="M403 699q74 0 139 -27t114 -75.5t77 -112t28 -135.5t-28 -135t-77 -111.5t-114 -75.5t-139 -27h-275v699h275zM403 20q70 0 131 25.5t107.5 71t73 105t26.5 127.5t-26.5 128t-73 105.5t-107.5 71t-131 25.5h-255v-659h255z" />
    <glyph glyph-name="E" unicode="E" horiz-adv-x="644" 
d="M128 699h437v-20h-417v-309h371v-20h-371v-330h431v-20h-451v699z" />
    <glyph glyph-name="F" unicode="F" horiz-adv-x="545" 
d="M128 699h407v-20h-387v-336h341v-20h-341v-323h-20v699z" />
    <glyph glyph-name="G" unicode="G" horiz-adv-x="760" 
d="M636 599q-45 41 -103.5 63t-123.5 22q-70 0 -131.5 -26t-108.5 -72t-73.5 -106t-26.5 -129t26.5 -129.5t73.5 -107t108.5 -72.5t131.5 -26q65 0 123.5 23t103.5 63l14 -13q-32 -28 -70.5 -49t-81.5 -32t-89 -11q-74 0 -139 27.5t-114.5 76.5t-77.5 113t-28 137
q0 72 28 136t77.5 112.5t114.5 76t139 27.5q46 0 89 -11t81 -31t70 -49zM630 343h20v-254h-20v254z" />
    <glyph glyph-name="H" unicode="H" horiz-adv-x="799" 
d="M128 699h20v-336h503v336h20v-699h-20v343h-503v-343h-20v699z" />
    <glyph glyph-name="I" unicode="I" horiz-adv-x="276" 
d="M128 699h20v-699h-20v699z" />
    <glyph glyph-name="J" unicode="J" horiz-adv-x="459" 
d="M349 197q0 -95 -44.5 -146t-127.5 -51q-51 0 -96 25.5t-78 72.5l14 14q31 -45 72 -68.5t88 -23.5q74 0 113 45.5t39 131.5v482h-262v20h282v-502z" />
    <glyph glyph-name="K" unicode="K" horiz-adv-x="670" 
d="M128 699h20v-479l442 479h28l-470 -508v-191h-20v699zM320 394l320 -394h-27l-305 376z" />
    <glyph glyph-name="L" unicode="L" horiz-adv-x="491" 
d="M128 699h20v-679h313v-20h-333v699z" />
    <glyph glyph-name="M" unicode="M" horiz-adv-x="934" 
d="M128 699h35l305 -579l303 579h35v-699h-20l-1 680l-317 -603h-2l-318 603v-680h-20v699z" />
    <glyph glyph-name="N" unicode="N" horiz-adv-x="799" 
d="M128 699h30l498 -686l-5 -2v688h20v-699h-30l-498 686l5 2v-688h-20v699z" />
    <glyph glyph-name="O" unicode="O" horiz-adv-x="818" 
d="M409 703q74 0 139 -27.5t114.5 -76t77.5 -112.5t28 -136q0 -73 -28 -137t-77.5 -113t-114.5 -76.5t-139 -27.5t-139 27.5t-114.5 76.5t-77.5 113t-28 137q0 72 28 136t77.5 112.5t114.5 76t139 27.5zM409 683q-70 0 -131 -26t-108 -72t-73.5 -106t-26.5 -128
q0 -69 26.5 -129.5t73.5 -106.5t108 -72t131 -26t131.5 26t108 72t73 106.5t26.5 129.5q0 68 -26.5 128t-73 106t-108 72t-131.5 26z" />
    <glyph glyph-name="P" unicode="P" horiz-adv-x="662" 
d="M365 699q128 0 197.5 -59.5t69.5 -167.5q0 -110 -69.5 -171t-197.5 -61h-226l9 9v-249h-20v699h237zM365 260q118 0 182.5 55.5t64.5 156.5q0 99 -64.5 153t-182.5 54h-226l9 9v-437l-9 9h226z" />
    <glyph glyph-name="Q" unicode="Q" horiz-adv-x="835" 
d="M443 17q58 -61 108 -91.5t97 -30.5q36 0 72.5 18t73.5 53l14 -14q-40 -38 -80 -57t-80 -19q-52 0 -106 31.5t-113 95.5zM409 703q74 0 139 -27.5t114.5 -76t77.5 -112.5t28 -136q0 -73 -28 -137t-77.5 -113t-114.5 -76.5t-139 -27.5t-139 27.5t-114.5 76.5t-77.5 113
t-28 137q0 72 28 136t77.5 112.5t114.5 76t139 27.5zM409 683q-70 0 -131 -26t-108 -72t-73.5 -106t-26.5 -128q0 -69 26.5 -129.5t73.5 -106.5t108 -72t131 -26t131.5 26t108 72t73 106.5t26.5 129.5q0 68 -26.5 128t-73 106t-108 72t-131.5 26z" />
    <glyph glyph-name="R" unicode="R" horiz-adv-x="722" 
d="M365 699q128 0 197.5 -59.5t69.5 -167.5q0 -110 -69.5 -171t-197.5 -61h-217v-240h-20v699h237zM365 260q118 0 182.5 55.5t64.5 156.5q0 99 -64.5 153t-182.5 54h-217v-419h217zM422 254h25l185 -254h-25z" />
    <glyph glyph-name="S" unicode="S" horiz-adv-x="593" 
d="M478 636q-22 15 -51.5 25.5t-61.5 16t-63 5.5q-92 0 -147.5 -37.5t-55.5 -99.5q0 -51 22.5 -82t60 -50.5t82.5 -33t89.5 -27.5t82 -35.5t59.5 -57t22 -91.5q0 -52 -29 -90.5t-82.5 -60t-125.5 -21.5q-44 0 -88 12.5t-83 34.5t-68 52l14 14q27 -28 63.5 -49t78 -32.5
t83.5 -11.5q99 0 158 41.5t59 110.5q0 52 -22 84t-59.5 52t-82 33.5t-89.5 28t-82.5 35.5t-60 55.5t-22.5 89.5q0 47 27.5 82t78 54.5t117.5 19.5q49 0 99.5 -14t86.5 -37z" />
    <glyph glyph-name="T" unicode="T" horiz-adv-x="526" 
d="M13 699h500v-20h-240v-679h-20v679h-240v20z" />
    <glyph glyph-name="U" unicode="U" horiz-adv-x="774" 
d="M130 281q0 -126 67.5 -195t189.5 -69t189.5 69t67.5 195v418h20v-418q0 -90 -32.5 -153.5t-94.5 -97t-150 -33.5t-150 33.5t-94.5 97t-32.5 153.5v418h20v-418z" />
    <glyph glyph-name="V" unicode="V" horiz-adv-x="626" 
d="M10 699h23l280 -676l279 676h24l-292 -699h-22z" />
    <glyph glyph-name="W" unicode="W" horiz-adv-x="987" 
d="M10 699h23l228 -685h-6l227 685h23l228 -685h-6l227 685h23l-237 -699h-21l-228 680h6l-229 -680h-21z" />
    <glyph glyph-name="X" unicode="X" horiz-adv-x="623" 
d="M52 699h24l230 -320l231 320h24l-243 -337l262 -362h-24l-250 346l-249 -346h-24l261 362z" />
    <glyph glyph-name="Y" unicode="Y" horiz-adv-x="606" 
d="M10 699h24l271 -410l267 410h24l-288 -441h-6zM295 277h20v-277h-20v277z" />
    <glyph glyph-name="Z" unicode="Z" horiz-adv-x="650" 
d="M66 699h529v-25l-523 -654h526v-20h-546v25l523 654h-509v20z" />
    <glyph glyph-name="bracketleft" unicode="[" horiz-adv-x="284" 
d="M108 742h149v-20h-129v-826h129v-20h-149v866z" />
    <glyph glyph-name="backslash" unicode="\" horiz-adv-x="294" 
d="M-16 826l306 -956h-21l-306 956h21z" />
    <glyph glyph-name="bracketright" unicode="]" horiz-adv-x="284" 
d="M176 742v-866h-149v20h129v826h-129v20h149z" />
    <glyph glyph-name="asciicircum" unicode="^" horiz-adv-x="478" 
d="M438 128h-22l-177 381l-177 -381h-22l186 400h26z" />
    <glyph glyph-name="underscore" unicode="_" horiz-adv-x="537" 
d="M0 -184h537v-20h-537v20z" />
    <glyph glyph-name="grave" unicode="`" horiz-adv-x="350" 
d="M114 739l136 -110l-26 -5l-129 105z" />
    <glyph glyph-name="a" unicode="a" horiz-adv-x="562" 
d="M255 262q-82 0 -127 -29.5t-45 -83.5q0 -57 40.5 -93t108.5 -36q51 0 92.5 14.5t73 46t51.5 83.5l18 -8q-32 -82 -94 -119t-142 -37q-50 0 -88 19.5t-59 53t-21 76.5q0 63 52 98t140 35h203v-20h-203zM447 345q-1 71 -41.5 111.5t-122.5 40.5q-52 0 -95.5 -19.5
t-85.5 -52.5l-12 16q29 23 59.5 40t64 26.5t69.5 9.5q89 0 136 -46.5t48 -125.5l2 -345h-20z" />
    <glyph glyph-name="b" unicode="b" horiz-adv-x="669" 
d="M366 517q73 0 129.5 -33.5t89 -92t32.5 -133.5q0 -74 -32.5 -132.5t-89 -92t-129.5 -33.5q-72 0 -129 33.5t-89.5 92t-32.5 132.5q0 75 32.5 133.5t89.5 92t129 33.5zM366 497q-67 0 -119 -31t-82 -85t-30 -123t30 -122.5t82 -84.5t119 -31t119 31t82 84.5t30 122.5
t-30 123t-82 85t-119 31zM115 742h20v-742h-20v742z" />
    <glyph glyph-name="c" unicode="c" horiz-adv-x="557" 
d="M466 434q-32 29 -73 46t-90 17q-67 0 -119.5 -30.5t-82.5 -84t-30 -123.5t30 -124t82.5 -84.5t119.5 -30.5q53 0 98 19.5t76 55.5l13 -14q-34 -38 -82 -59.5t-105 -21.5q-72 0 -128.5 33.5t-89.5 92t-33 133.5t33 133.5t89.5 91.5t128.5 33q52 0 97 -18.5t79 -50.5z" />
    <glyph glyph-name="d" unicode="d" horiz-adv-x="673" 
d="M305 519q73 0 130 -34t90 -92.5t33 -134.5q0 -75 -33 -133.5t-90 -92.5t-130 -34t-130 34t-90 92.5t-33 133.5q0 76 33 134.5t90 92.5t130 34zM305 499q-67 0 -120 -31.5t-83 -85.5t-30 -124q0 -69 30 -123.5t83 -85.5t120 -31q68 0 120.5 31t82.5 85.5t30 123.5
q0 70 -30 124t-82.5 85.5t-120.5 31.5zM538 742h20v-742h-20v742z" />
    <glyph glyph-name="e" unicode="e" horiz-adv-x="589" 
d="M521 279q-4 65 -32 114t-76 76.5t-112 27.5q-66 0 -118 -30.5t-81.5 -84t-29.5 -123.5t29.5 -124t81.5 -84.5t118 -30.5q116 0 183 75l14 -14q-35 -38 -86 -59.5t-111 -21.5q-71 0 -127.5 33.5t-89 92t-32.5 133.5t32.5 133.5t89 91.5t127.5 33q72 0 126 -33t84 -91.5
t30 -133.5h-477v20h457z" />
    <glyph glyph-name="f" unicode="f" horiz-adv-x="295" 
d="M117 590q0 46 19.5 83.5t53 59t73.5 19.5q21 -1 42.5 -7t40.5 -17l-11 -17q-16 10 -34.5 15.5t-37.5 5.5q-35 0 -64 -18.5t-45.5 -50.5t-16.5 -73v-590h-20v590zM52 507h253v-20h-253v20z" />
    <glyph glyph-name="g" unicode="g" horiz-adv-x="630" 
d="M536 58q0 -77 -30.5 -133.5t-85.5 -87.5t-130 -31q-62 0 -112.5 23t-95.5 67l14 14q41 -41 88.5 -62.5t105.5 -21.5q69 0 119.5 28.5t78.5 80.5t28 123v459h20v-459zM293 517q70 0 124.5 -32.5t86 -88.5t31.5 -129q0 -71 -31.5 -127.5t-86 -88.5t-124.5 -32
q-69 0 -123.5 32t-86 88.5t-31.5 127.5q0 73 31.5 129t86 88.5t123.5 32.5zM293 498q-64 0 -114.5 -30t-79 -82t-28.5 -119q0 -66 28.5 -117.5t79 -81.5t114.5 -30q65 0 115 30t79 81.5t29 117.5q0 67 -29 119t-79 82t-115 30z" />
    <glyph glyph-name="h" unicode="h" horiz-adv-x="650" 
d="M537 313q0 87 -48.5 135.5t-134.5 48.5q-103 -2 -161 -66.5t-58 -177.5h-18q0 82 28 140.5t81.5 90.5t127.5 33q64 0 109.5 -24.5t69.5 -70t24 -109.5v-313h-20v313zM115 742h20v-742h-20v742z" />
    <glyph glyph-name="i" unicode="i" horiz-adv-x="240" 
d="M110 517h20v-517h-20v517zM120 692q11 0 18.5 -7.5t7.5 -18.5q0 -10 -7.5 -18t-18.5 -8q-10 0 -18 8t-8 18q0 11 8 18.5t18 7.5z" />
    <glyph glyph-name="j" unicode="j" horiz-adv-x="219" 
d="M-46 -161q14 -5 27.5 -8t27.5 -4q96 -2 96 142v548h20v-548q0 -81 -29.5 -122t-86.5 -40q-32 1 -63 14zM115 692q11 0 18.5 -7.5t7.5 -18.5q0 -10 -7.5 -18t-18.5 -8q-10 0 -18 8t-8 18q0 11 8 18.5t18 7.5z" />
    <glyph glyph-name="k" unicode="k" horiz-adv-x="538" 
d="M115 742h20v-742h-20v742zM464 517h28l-364 -370v31zM288 326l234 -326h-24l-226 314z" />
    <glyph glyph-name="l" unicode="l" horiz-adv-x="250" 
d="M115 742h20v-742h-20v742z" />
    <glyph glyph-name="m" unicode="m" horiz-adv-x="1046" 
d="M522 313q0 87 -47.5 135.5t-131.5 48.5q-100 -2 -156.5 -66.5t-56.5 -177.5h-18q0 82 27.5 140.5t79.5 90.5t125 33q62 0 106.5 -24.5t68 -70t23.5 -109.5v-313h-20v313zM933 313q0 87 -47 135.5t-131 48.5q-101 -2 -157 -66.5t-56 -177.5h-18q0 82 27.5 140.5t79.5 90.5
t124 33q63 0 107 -24.5t67.5 -70t23.5 -109.5v-313h-20v313zM110 517h20v-517h-20v517z" />
    <glyph glyph-name="n" unicode="n" horiz-adv-x="644" 
d="M531 313q0 87 -48.5 135.5t-134.5 48.5q-103 -2 -161 -66.5t-58 -177.5h-18q0 82 28 140.5t81.5 90.5t127.5 33q64 0 109.5 -24.5t69.5 -70t24 -109.5v-313h-20v313zM110 517h20v-517h-20v517z" />
    <glyph glyph-name="o" unicode="o" horiz-adv-x="606" 
d="M303 517q72 0 129 -33t89.5 -91.5t32.5 -133.5t-32.5 -133.5t-89.5 -92t-129 -33.5t-128.5 33.5t-89.5 92t-33 133.5t33 133.5t89.5 91.5t128.5 33zM303 497q-67 0 -119 -30.5t-82 -84t-30 -123.5t30 -124t82 -84.5t119 -30.5t119 30.5t82 84.5t30 124t-30 123.5t-82 84
t-119 30.5z" />
    <glyph glyph-name="p" unicode="p" horiz-adv-x="669" 
d="M366 517q73 0 129.5 -33.5t89 -92t32.5 -133.5q0 -74 -32.5 -132.5t-89 -92t-129.5 -33.5q-72 0 -129 33.5t-89.5 92t-32.5 132.5q0 75 32.5 133.5t89.5 92t129 33.5zM366 497q-67 0 -119 -31t-82 -85t-30 -123t30 -122.5t82 -84.5t119 -31t119 31t82 84.5t30 122.5
t-30 123t-82 85t-119 31zM115 517h20v-711h-20v711z" />
    <glyph glyph-name="q" unicode="q" horiz-adv-x="673" 
d="M305 519q73 0 130 -34t90 -92.5t33 -134.5q0 -75 -33 -133.5t-90 -92.5t-130 -34t-130 34t-90 92.5t-33 133.5q0 76 33 134.5t90 92.5t130 34zM305 499q-67 0 -120 -31.5t-83 -85.5t-30 -124q0 -69 30 -123.5t83 -85.5t120 -31q68 0 120.5 31t82.5 85.5t30 123.5
q0 70 -30 124t-82.5 85.5t-120.5 31.5zM538 517h20v-711h-20v711z" />
    <glyph glyph-name="r" unicode="r" horiz-adv-x="338" 
d="M328 497q-63 -1 -107.5 -31t-68 -84t-23.5 -129h-18q0 82 25.5 140.5t74.5 90.5t117 33v-20zM110 517h20v-517h-20v517z" />
    <glyph glyph-name="s" unicode="s" horiz-adv-x="427" 
d="M350 463q-25 16 -57 25t-70 9q-61 0 -103 -24.5t-42 -77.5q0 -39 22.5 -61t58 -35.5t75 -24.5t75 -26.5t58 -42t22.5 -71.5q0 -46 -25 -76t-64.5 -44t-84.5 -14q-54 0 -102 19t-83 53l13 15q33 -32 77 -49.5t95 -17.5q41 0 75 11.5t56 36t23 61.5q2 40 -20 63t-57.5 37.5
t-75.5 26t-76 27t-59 41.5t-23 69t22.5 70t60 40.5t81.5 13.5q41 0 75.5 -10t62.5 -27z" />
    <glyph glyph-name="t" unicode="t" horiz-adv-x="362" 
d="M146 142q0 -60 23 -91.5t67 -30.5q24 1 47.5 9t42.5 24l12 -16q-22 -17 -48 -26.5t-54 -10.5q-36 0 -60.5 15.5t-37 47.5t-12.5 79v488h20v-488zM50 507h278v-20h-278v20z" />
    <glyph glyph-name="u" unicode="u" horiz-adv-x="637" 
d="M112 204q0 -87 47.5 -135.5t132.5 -48.5q101 2 158 67t57 177h17q0 -81 -27.5 -140t-79.5 -90.5t-125 -33.5q-63 0 -107.5 24.5t-68.5 70t-24 109.5v313h20v-313zM507 517h20v-517h-20v517z" />
    <glyph glyph-name="v" unicode="v" horiz-adv-x="456" 
d="M10 517h23l200 -494l199 494h24l-212 -517h-22z" />
    <glyph glyph-name="w" unicode="w" horiz-adv-x="818" 
d="M10 517h24l185 -494l183 494h24l185 -494l184 494h23l-197 -517h-22l-184 489l-186 -489h-22z" />
    <glyph glyph-name="x" unicode="x" horiz-adv-x="489" 
d="M46 517h24l173 -233l173 233h24l-185 -249l199 -268h-25l-187 251l-186 -251h-25l199 268z" />
    <glyph glyph-name="y" unicode="y" horiz-adv-x="456" 
d="M214 -75q-24 -58 -59 -88.5t-76 -30.5q-27 0 -50.5 6.5t-41.5 19.5l9 17q34 -23 81 -23q38 0 69.5 27.5t51.5 78.5l26 66l-214 519h23l201 -494l198 494h24z" />
    <glyph glyph-name="z" unicode="z" horiz-adv-x="510" 
d="M71 517l381 -1v-25l-370 -471l377 -1v-20l-397 1v25l370 471l-361 1v20z" />
    <glyph glyph-name="braceleft" unicode="{" horiz-adv-x="317" 
d="M93 318q28 0 41.5 17.5t13.5 54.5v250q0 35 13.5 57.5t40.5 33.5t69 11h5v-20q-55 0 -81.5 -20t-26.5 -62v-250q0 -25 -4.5 -42t-14.5 -27t-27 -15l-29 -8h-19v20h19zM122 310q17 -4 27 -14.5t14.5 -27.5t4.5 -42v-250q0 -42 26.5 -62t81.5 -20v-20h-5q-42 0 -69 11
t-40.5 33.5t-13.5 57.5v250q0 37 -13.5 54.5t-41.5 17.5h-19v20h19z" />
    <glyph glyph-name="bar" unicode="|" horiz-adv-x="220" 
d="M100 824h20v-953h-20v953z" />
    <glyph glyph-name="braceright" unicode="}" horiz-adv-x="317" 
d="M224 318h19v-20h-19l-29 8q-16 5 -26.5 15t-15 27t-4.5 42v250q0 42 -26 62t-82 20v20h5q42 0 69.5 -11t40.5 -33.5t13 -57.5v-250q0 -37 13.5 -54.5t41.5 -17.5zM195 310l29 8h19v-20h-19q-28 0 -41.5 -17.5t-13.5 -54.5v-250q0 -35 -13 -57.5t-40.5 -33.5t-69.5 -11h-5
v20q56 0 82 20t26 62v250q0 25 4.5 42t15 27.5t26.5 14.5z" />
    <glyph glyph-name="asciitilde" unicode="~" horiz-adv-x="480" 
d="M398 350q0 -37 -18.5 -58.5t-51.5 -21.5q-25 0 -48 10.5t-44.5 24.5t-42 24.5t-40.5 10.5q-50 0 -50 -60h-20q0 38 18.5 59t51.5 21q22 0 44.5 -10.5t45 -24.5t44 -24.5t41.5 -10.5q50 0 50 60h20z" />
    <glyph glyph-name="uni00A0" unicode="&#xa0;" horiz-adv-x="200" 
 />
    <glyph glyph-name="exclamdown" unicode="&#xa1;" horiz-adv-x="192" 
d="M106 -166h-20v162v332h20v-332v-162zM96 471q-10 0 -18 8t-8 18q0 11 8 18.5t18 7.5q11 0 18.5 -7.5t7.5 -18.5q0 -10 -7.5 -18t-18.5 -8z" />
    <glyph glyph-name="cent" unicode="&#xa2;" horiz-adv-x="600" 
d="M294 654h20v-148h-20v148zM294 11h20v-150h-20v150zM466 434q-32 29 -73 46t-90 17q-67 0 -119.5 -30.5t-82.5 -84t-30 -123.5t30 -124t82.5 -84.5t119.5 -30.5q53 0 98 19.5t76 55.5l13 -14q-34 -38 -82 -59.5t-105 -21.5q-72 0 -128.5 33.5t-89.5 92t-33 133.5
t33 133.5t89.5 91.5t128.5 33q52 0 97 -18.5t79 -50.5z" />
    <glyph glyph-name="sterling" unicode="&#xa3;" horiz-adv-x="532" 
d="M52 350h305v-20h-305v20zM318 699q51 0 96 -25.5t78 -72.5l-14 -14q-63 92 -160 92q-73 0 -112.5 -45.5t-39.5 -131.5v-491l-9 9h325v-20h-430v20h103l-9 -9v491q0 95 44.5 146t127.5 51z" />
    <glyph glyph-name="currency" unicode="&#xa4;" horiz-adv-x="726" 
d="M363 589q59 0 110 -21.5t90 -59t61 -87t22 -105.5q0 -55 -22 -104t-61 -86.5t-90 -58.5t-110 -21q-58 0 -108.5 21t-89 58.5t-60.5 86.5t-22 104q0 56 22 105.5t60.5 87t89 59t108.5 21.5zM363 569q-71 0 -130.5 -34.5t-94.5 -91.5t-35 -127q0 -69 35 -125.5t94.5 -90.5
t130.5 -34q73 0 132.5 34t95 90.5t35.5 125.5q0 70 -35.5 127t-95 91.5t-132.5 34.5zM66 629l121 -121l-15 -14l-120 121zM172 141l15 -14l-121 -121l-14 14zM660 629l14 -14l-120 -121l-15 14zM554 141l120 -121l-14 -14l-121 121z" />
    <glyph glyph-name="yen" unicode="&#xa5;" horiz-adv-x="606" 
d="M10 699h24l271 -410l267 410h24l-288 -441h-6zM295 277h20v-277h-20v277zM75 278h460v-20h-460v20zM75 168h460v-20h-460v20z" />
    <glyph glyph-name="brokenbar" unicode="&#xa6;" horiz-adv-x="220" 
d="M100 824h20v-353h-20v353zM100 224h20v-353h-20v353z" />
    <glyph glyph-name="section" unicode="&#xa7;" horiz-adv-x="431" 
d="M353 640q-24 17 -56.5 25.5t-70.5 8.5q-65 0 -105.5 -26t-40.5 -76q0 -38 22.5 -60.5t58.5 -36.5t75.5 -25t75.5 -26.5t58.5 -41t22.5 -68.5q0 -40 -19 -68.5t-47.5 -44.5t-55.5 -19q62 -20 91 -52.5t29 -76.5q0 -41 -23 -71t-62.5 -46t-89.5 -16q-58 0 -106 20.5
t-80 52.5l14 14q33 -32 77 -49.5t93 -17.5q43 0 78.5 13t57.5 38.5t22 62.5q0 38 -22.5 60.5t-58.5 36t-75.5 25t-75.5 27t-58.5 42t-22.5 69.5q0 55 39.5 86t107.5 36q-78 24 -111.5 57t-33.5 78q0 39 21 66.5t58.5 42t85.5 14.5q39 0 74 -9.5t65 -29.5zM225 417
q-66 0 -106.5 -26.5t-40.5 -69.5q0 -32 23 -60.5t60.5 -46t78.5 -17.5q37 0 67 14.5t48.5 40t18.5 58.5q0 47 -39 77t-110 30z" />
    <glyph glyph-name="dieresis" unicode="&#xa8;" horiz-adv-x="290" 
d="M77 692q11 0 18.5 -7.5t7.5 -18.5q0 -10 -7.5 -18t-18.5 -8q-10 0 -18 8t-8 19q0 10 8 17.5t18 7.5zM227 692q11 0 18.5 -7.5t7.5 -18.5q0 -10 -7.5 -18t-18.5 -8q-10 0 -18 8t-8 19q0 10 8 17.5t18 7.5z" />
    <glyph glyph-name="copyright" unicode="&#xa9;" horiz-adv-x="777" 
d="M387 9q-71 0 -132.5 26.5t-107.5 73.5t-71.5 108.5t-25.5 130.5t26 131t72 109t107.5 74t133.5 27q71 0 132.5 -26.5t107.5 -73t72 -108t26 -131.5q0 -69 -26 -131t-72.5 -109t-108 -74t-133.5 -27zM392 166q-51 0 -93.5 24.5t-68 66.5t-25.5 92t25.5 91.5t68 66
t94.5 24.5q36 0 69.5 -13t58.5 -36l-13 -14q-23 20 -52.5 31.5t-62.5 11.5q-46 0 -84.5 -22t-61 -58.5t-22.5 -81.5t22.5 -82t61 -59t84.5 -22q32 0 62 11.5t53 31.5l13 -13q-25 -23 -58.5 -36.5t-70.5 -13.5zM388 29q67 0 125 25t101.5 69.5t68 102.5t24.5 124t-24 124
t-67.5 101.5t-101 68.5t-125.5 25t-126 -25t-101.5 -69.5t-67.5 -102.5t-24 -124t24 -123.5t67 -101.5t101 -69t126 -25z" />
    <glyph glyph-name="ordfeminine" unicode="&#xaa;" horiz-adv-x="372" 
d="M170 608q-47 0 -73 -16t-26 -46q0 -31 23.5 -51t62.5 -20q44 0 76 18t50 61l11 -8q-19 -46 -55.5 -67t-85.5 -21q-46 0 -74 24.5t-28 62.5t31.5 58.5t85.5 20.5h121v-16h-119zM282 657q-1 40 -25 62t-72 22q-30 0 -56.5 -10.5t-52.5 -29.5l-9 16q28 20 57.5 31.5
t63.5 11.5q55 0 84.5 -27.5t29.5 -74.5l1 -200h-20z" />
    <glyph glyph-name="guillemotleft" unicode="&#xab;" horiz-adv-x="381" 
d="M167 403h24l-108 -156l108 -153h-24l-109 153zM280 403h24l-108 -156l108 -153h-24l-109 153z" />
    <glyph glyph-name="logicalnot" unicode="&#xac;" horiz-adv-x="534" 
d="M40 360h400v-20h-400v20zM420 360h20v-200h-20v200z" />
    <glyph glyph-name="uni00AD" unicode="&#xad;" horiz-adv-x="357" 
d="M70 310h217v-20h-217v20z" />
    <glyph glyph-name="registered" unicode="&#xae;" horiz-adv-x="777" 
d="M387 9q-71 0 -132.5 26.5t-107.5 73.5t-71.5 108.5t-25.5 130.5t26 131t72 109t107.5 74t133.5 27q71 0 132.5 -26.5t107.5 -73t72 -108t26 -131.5q0 -69 -26 -131t-72.5 -109t-108 -74t-133.5 -27zM514 168l-98 137h24l99 -137h-25zM388 29q67 0 125 25t101.5 69.5
t68 102.5t24.5 124t-24 124t-67.5 101.5t-101 68.5t-125.5 25t-126 -25t-101.5 -69.5t-67.5 -102.5t-24 -124t24 -123.5t67 -101.5t101 -69t126 -25zM261 168v375h131q70 0 107.5 -31.5t37.5 -90.5q0 -60 -37.5 -93.5t-107.5 -33.5h-111v-126h-20zM281 314h111q59 0 92 28
t33 79q0 50 -33 76t-92 26h-111v-209z" />
    <glyph glyph-name="macron" unicode="&#xaf;" horiz-adv-x="350" 
d="M47 677h257v-20h-257v20z" />
    <glyph glyph-name="degree" unicode="&#xb0;" horiz-adv-x="300" 
d="M188 796q31 0 56.5 -15t41 -40t15.5 -54t-15.5 -53.5t-41 -39.5t-56.5 -15q-30 0 -55.5 15t-41 39.5t-15.5 53.5t15.5 54t41 40t55.5 15zM189 776q-38 0 -65.5 -26.5t-27.5 -62.5t27.5 -62t65.5 -26q37 0 64.5 26t27.5 62t-27.5 62.5t-64.5 26.5z" />
    <glyph glyph-name="plusminus" unicode="&#xb1;" horiz-adv-x="498" 
d="M35 426h428v-74h-428v74zM212 598h75v-418h-75v418zM35 98h428v-76h-428v76z" />
    <glyph glyph-name="uni00B2" unicode="&#xb2;" horiz-adv-x="323" 
d="M181 553q31 33 48.5 62.5t17.5 55.5q0 38 -26 59.5t-72 21.5q-31 0 -62.5 -14t-55.5 -38l-12 15q26 26 61 41t69 15q55 0 87 -26.5t32 -72.5q0 -28 -19 -62t-54 -69l-151 -162h254v-19h-278v21z" />
    <glyph glyph-name="uni00B3" unicode="&#xb3;" horiz-adv-x="325" 
d="M145 591q62 0 99.5 -29t37.5 -82q0 -56 -38 -90.5t-104 -34.5q-33 0 -65 10.5t-56 26.5l11 17q22 -16 51 -26t59 -10q57 0 89 30t32 77q0 46 -32.5 70t-89.5 24h-45v15l142 159h-200v18h226v-15l-142 -160h25z" />
    <glyph glyph-name="acute" unicode="&#xb4;" horiz-adv-x="350" 
d="M237 739l19 -10l-129 -105l-26 5z" />
    <glyph glyph-name="uni00B5" unicode="&#xb5;" horiz-adv-x="660" 
d="M116 517h20v-711h-20v711zM135 204q0 -87 47.5 -135.5t132.5 -48.5q101 2 158 67t57 177h17q0 -81 -27.5 -140t-79.5 -90.5t-125 -33.5q-63 0 -107.5 24.5t-68.5 70t-24 109.5v313h20v-313zM530 517h20v-517h-20v517z" />
    <glyph glyph-name="paragraph" unicode="&#xb6;" horiz-adv-x="557" 
d="M207 419q-10 -1 -19.5 -1.5t-18.5 -0.5q-48 0 -79.5 16t-49.5 40.5t-25.5 52t-7.5 50.5q0 42 19.5 80t63 62t113.5 24h226v-854h-20v834h-182v-834h-20v531z" />
    <glyph glyph-name="periodcentered" unicode="&#xb7;" horiz-adv-x="170" 
d="M85 292q11 0 18.5 -7.5t7.5 -18.5q0 -10 -7.5 -18t-18.5 -8q-10 0 -18 8t-8 18q0 11 8 18.5t18 7.5z" />
    <glyph glyph-name="cedilla" unicode="&#xb8;" horiz-adv-x="254" 
d="M138 5l20 -5l-16 -56q41 -1 61 -23.5t20 -50.5q0 -20 -10 -39.5t-29.5 -31.5t-49.5 -12q-19 0 -39.5 6t-33.5 16l8 20q12 -9 30.5 -15t34.5 -6q35 0 51.5 19.5t16.5 42.5q0 21 -15 38t-43 17h-16h-13z" />
    <glyph glyph-name="uni00B9" unicode="&#xb9;" horiz-adv-x="206" 
d="M10 766h110v-406h-21v387h-89v19z" />
    <glyph glyph-name="ordmasculine" unicode="&#xba;" horiz-adv-x="396" 
d="M198 760q44 0 78.5 -19.5t54.5 -53.5t20 -78t-20 -78.5t-54.5 -53.5t-78.5 -19q-67 0 -110 42t-43 109q0 44 19.5 78t54.5 53.5t79 19.5zM198 741q-58 0 -95.5 -36.5t-37.5 -95.5t37.5 -96t95.5 -37t95 37t37 96t-37 95.5t-95 36.5z" />
    <glyph glyph-name="guillemotright" unicode="&#xbb;" horiz-adv-x="381" 
d="M101 94h-24l108 156l-108 153h24l109 -153zM214 94h-24l108 156l-108 153h24l109 -153z" />
    <glyph glyph-name="onequarter" unicode="&#xbc;" horiz-adv-x="639" 
d="M10 699h110v-406h-21v387h-89v19zM524 699h26l-538 -699h-26zM492 406h22l-159 -271h181v126h21v-126h66v-18h-66v-117h-21v117h-202v21z" />
    <glyph glyph-name="onehalf" unicode="&#xbd;" horiz-adv-x="649" 
d="M10 699h110v-406h-21v387h-89v19zM524 699h26l-538 -699h-26zM507 193q31 33 48.5 62.5t17.5 55.5q0 38 -26 59.5t-72 21.5q-31 0 -62.5 -14t-55.5 -38l-12 15q26 26 61 41t69 15q55 0 87 -26.5t32 -72.5q0 -28 -19 -62t-54 -69l-151 -162h254v-19h-278v21z" />
    <glyph glyph-name="threequarters" unicode="&#xbe;" horiz-adv-x="728" 
d="M145 524q62 0 99.5 -29t37.5 -82q0 -56 -38 -90.5t-104 -34.5q-33 0 -65 10.5t-56 26.5l11 17q22 -16 51 -26t59 -10q57 0 89 30t32 77q0 46 -32.5 70t-89.5 24h-45v15l142 159h-200v18h226v-15l-142 -160h25zM613 699h26l-538 -699h-26zM581 406h22l-159 -271h181v126
h21v-126h66v-18h-66v-117h-21v117h-202v21z" />
    <glyph glyph-name="questiondown" unicode="&#xbf;" horiz-adv-x="395" 
d="M371 -20q-5 -70 -52.5 -106.5t-121.5 -36.5q-48 0 -87.5 16.5t-62.5 50t-23 84.5q0 43 13 72.5t33.5 51t44 40t44 39.5t33.5 49.5t13 69.5h20q0 -43 -13 -73t-33.5 -52t-44 -40.5t-44 -39.5t-33.5 -49t-13 -69q0 -66 43.5 -98t110.5 -32t108 31.5t45 93.5zM217 471
q-10 0 -18 8t-8 18q0 11 8 18.5t18 7.5q11 0 18.5 -7.5t7.5 -18.5q0 -10 -7.5 -18t-18.5 -8z" />
    <glyph glyph-name="Agrave" unicode="&#xc0;" horiz-adv-x="686" 
d="M330 699h22l324 -699h-23l-312 676l-307 -676h-24zM125 233h434v-20h-434v20zM253 891l136 -110l-26 -5l-129 105z" />
    <glyph glyph-name="Aacute" unicode="&#xc1;" horiz-adv-x="686" 
d="M330 699h22l324 -699h-23l-312 676l-307 -676h-24zM125 233h434v-20h-434v20zM451 891l19 -10l-129 -105l-26 5z" />
    <glyph glyph-name="Acircumflex" unicode="&#xc2;" horiz-adv-x="686" 
d="M330 699h22l324 -699h-23l-312 676l-307 -676h-24zM125 233h434v-20h-434v20zM327 886h32l98 -110h-26l-94 98h12l-94 -98h-26z" />
    <glyph glyph-name="Atilde" unicode="&#xc3;" horiz-adv-x="686" 
d="M330 699h22l324 -699h-23l-312 676l-307 -676h-24zM125 233h434v-20h-434v20zM475 858q0 -24 -8.5 -42.5t-24.5 -28.5t-38 -10q-21 0 -36.5 10t-29 22.5t-27.5 22.5t-32 10q-24 0 -37 -16t-13 -45h-19q0 25 8.5 43t24.5 28t38 10q21 0 36.5 -10t29 -22.5t27.5 -22.5
t32 -10q24 0 37 16.5t13 44.5h19z" />
    <glyph glyph-name="Adieresis" unicode="&#xc4;" horiz-adv-x="686" 
d="M330 699h22l324 -699h-23l-312 676l-307 -676h-24zM125 233h434v-20h-434v20zM268 828q10 0 17.5 -7.5t7.5 -18.5q0 -10 -7.5 -18t-18.5 -8q-10 0 -18 8t-8 18q0 11 8 18.5t19 7.5zM420 828q10 0 17.5 -7.5t7.5 -18.5q0 -10 -7.5 -18t-18.5 -8q-10 0 -18 8t-8 18
q0 11 8 18.5t19 7.5z" />
    <glyph glyph-name="Aring" unicode="&#xc5;" horiz-adv-x="686" 
d="M330 699h22l324 -699h-23l-312 676l-307 -676h-24zM125 233h434v-20h-434v20zM342 936q25 0 45 -12t32.5 -32t12.5 -43t-12.5 -42.5t-32.5 -31.5t-45 -12q-24 0 -44.5 12t-32.5 31.5t-12 42.5t12 43t32.5 32t44.5 12zM342 918q-29 0 -50.5 -20t-21.5 -49q0 -28 21.5 -48
t50.5 -20t51 20t22 48q0 29 -22 49t-51 20z" />
    <glyph glyph-name="AE" unicode="&#xc6;" horiz-adv-x="987" 
d="M471 699h437v-20h-417v-309h371v-20h-371v-330h431v-20h-451v699zM431 699h305l-6 -20h-288l-408 -679h-24zM157 243h330l-1 -20h-330z" />
    <glyph glyph-name="Ccedilla" unicode="&#xc7;" horiz-adv-x="705" 
d="M636 599q-45 41 -103.5 63t-123.5 22q-70 0 -131.5 -26t-108.5 -72t-73.5 -106.5t-26.5 -129.5t26.5 -129.5t73.5 -106.5t108.5 -72t131.5 -26q65 0 123.5 23t103.5 63l14 -13q-32 -28 -70.5 -49t-81.5 -32t-89 -11q-74 0 -139 27.5t-114.5 76.5t-77.5 113t-28 136
q0 73 28 137t77.5 112.5t114.5 76t139 27.5q46 0 89 -11t81 -31t70 -49zM394 5l20 -5l-16 -56q41 -1 61 -23.5t20 -50.5q0 -20 -10 -39.5t-29.5 -31.5t-49.5 -12q-19 0 -39.5 6t-33.5 16l8 20q12 -9 30.5 -15t34.5 -6q35 0 51.5 19.5t16.5 42.5q0 21 -15 38t-43 17h-16h-13z
" />
    <glyph glyph-name="Egrave" unicode="&#xc8;" horiz-adv-x="644" 
d="M128 699h437v-20h-417v-309h371v-20h-371v-330h431v-20h-451v699zM261 891l136 -110l-26 -5l-129 105z" />
    <glyph glyph-name="Eacute" unicode="&#xc9;" horiz-adv-x="644" 
d="M128 699h437v-20h-417v-309h371v-20h-371v-330h431v-20h-451v699zM459 891l19 -10l-129 -105l-26 5z" />
    <glyph glyph-name="Ecircumflex" unicode="&#xca;" horiz-adv-x="644" 
d="M128 699h437v-20h-417v-309h371v-20h-371v-330h431v-20h-451v699zM335 886h32l98 -110h-26l-94 98h12l-94 -98h-26z" />
    <glyph glyph-name="Edieresis" unicode="&#xcb;" horiz-adv-x="644" 
d="M128 699h437v-20h-417v-309h371v-20h-371v-330h431v-20h-451v699zM276 828q10 0 17.5 -7.5t7.5 -18.5q0 -10 -7.5 -18t-18.5 -8q-10 0 -18 8t-8 18q0 11 8 18.5t19 7.5zM428 828q10 0 17.5 -7.5t7.5 -18.5q0 -10 -7.5 -18t-18.5 -8q-10 0 -18 8t-8 18q0 11 8 18.5t19 7.5
z" />
    <glyph glyph-name="Igrave" unicode="&#xcc;" horiz-adv-x="276" 
d="M128 699h20v-699h-20v699zM48 891l136 -110l-26 -5l-129 105z" />
    <glyph glyph-name="Iacute" unicode="&#xcd;" horiz-adv-x="276" 
d="M128 699h20v-699h-20v699zM246 891l19 -10l-129 -105l-26 5z" />
    <glyph glyph-name="Icircumflex" unicode="&#xce;" horiz-adv-x="276" 
d="M128 699h20v-699h-20v699zM122 886h32l98 -110h-26l-94 98h12l-94 -98h-26z" />
    <glyph glyph-name="Idieresis" unicode="&#xcf;" horiz-adv-x="276" 
d="M128 699h20v-699h-20v699zM63 828q10 0 17.5 -7.5t7.5 -18.5q0 -10 -7.5 -18t-18.5 -8q-10 0 -18 8t-8 18q0 11 8 18.5t19 7.5zM215 828q10 0 17.5 -7.5t7.5 -18.5q0 -10 -7.5 -18t-18.5 -8q-10 0 -18 8t-8 18q0 11 8 18.5t19 7.5z" />
    <glyph glyph-name="Eth" unicode="&#xd0;" horiz-adv-x="811" 
d="M57 360h375v-20h-375v20zM403 699q74 0 139 -27t114 -75.5t77 -112t28 -135.5t-28 -135t-77 -111.5t-114 -75.5t-139 -27h-275v699h275zM403 20q70 0 131 25.5t107.5 71t73 105t26.5 127.5t-26.5 128t-73 105.5t-107.5 71t-131 25.5h-255v-659h255z" />
    <glyph glyph-name="Ntilde" unicode="&#xd1;" horiz-adv-x="799" 
d="M128 699h30l498 -686l-5 -2v688h20v-699h-30l-498 686l5 2v-688h-20v699zM547 858q0 -24 -8.5 -42.5t-24.5 -28.5t-38 -10q-21 0 -36.5 10t-29 22.5t-27.5 22.5t-32 10q-24 0 -37 -16t-13 -45h-19q0 25 8.5 43t24.5 28t38 10q21 0 36.5 -10t29 -22.5t27.5 -22.5t32 -10
q24 0 37 16.5t13 44.5h19z" />
    <glyph glyph-name="Ograve" unicode="&#xd2;" horiz-adv-x="818" 
d="M409 703q74 0 139 -27.5t114.5 -76t77.5 -112.5t28 -136q0 -73 -28 -137t-77.5 -113t-114.5 -76.5t-139 -27.5t-139 27.5t-114.5 76.5t-77.5 113t-28 137q0 72 28 136t77.5 112.5t114.5 76t139 27.5zM409 683q-70 0 -131 -26t-108 -72t-73.5 -106t-26.5 -128
q0 -69 26.5 -129.5t73.5 -106.5t108 -72t131 -26t131.5 26t108 72t73 106.5t26.5 129.5q0 68 -26.5 128t-73 106t-108 72t-131.5 26zM319 891l136 -110l-26 -5l-129 105z" />
    <glyph glyph-name="Oacute" unicode="&#xd3;" horiz-adv-x="818" 
d="M409 703q74 0 139 -27.5t114.5 -76t77.5 -112.5t28 -136q0 -73 -28 -137t-77.5 -113t-114.5 -76.5t-139 -27.5t-139 27.5t-114.5 76.5t-77.5 113t-28 137q0 72 28 136t77.5 112.5t114.5 76t139 27.5zM409 683q-70 0 -131 -26t-108 -72t-73.5 -106t-26.5 -128
q0 -69 26.5 -129.5t73.5 -106.5t108 -72t131 -26t131.5 26t108 72t73 106.5t26.5 129.5q0 68 -26.5 128t-73 106t-108 72t-131.5 26zM517 891l19 -10l-129 -105l-26 5z" />
    <glyph glyph-name="Ocircumflex" unicode="&#xd4;" horiz-adv-x="818" 
d="M409 703q74 0 139 -27.5t114.5 -76t77.5 -112.5t28 -136q0 -73 -28 -137t-77.5 -113t-114.5 -76.5t-139 -27.5t-139 27.5t-114.5 76.5t-77.5 113t-28 137q0 72 28 136t77.5 112.5t114.5 76t139 27.5zM409 683q-70 0 -131 -26t-108 -72t-73.5 -106t-26.5 -128
q0 -69 26.5 -129.5t73.5 -106.5t108 -72t131 -26t131.5 26t108 72t73 106.5t26.5 129.5q0 68 -26.5 128t-73 106t-108 72t-131.5 26zM393 886h32l98 -110h-26l-94 98h12l-94 -98h-26z" />
    <glyph glyph-name="Otilde" unicode="&#xd5;" horiz-adv-x="818" 
d="M409 703q74 0 139 -27.5t114.5 -76t77.5 -112.5t28 -136q0 -73 -28 -137t-77.5 -113t-114.5 -76.5t-139 -27.5t-139 27.5t-114.5 76.5t-77.5 113t-28 137q0 72 28 136t77.5 112.5t114.5 76t139 27.5zM409 683q-70 0 -131 -26t-108 -72t-73.5 -106t-26.5 -128
q0 -69 26.5 -129.5t73.5 -106.5t108 -72t131 -26t131.5 26t108 72t73 106.5t26.5 129.5q0 68 -26.5 128t-73 106t-108 72t-131.5 26zM541 858q0 -24 -8.5 -42.5t-24.5 -28.5t-38 -10q-21 0 -36.5 10t-29 22.5t-27.5 22.5t-32 10q-24 0 -37 -16t-13 -45h-19q0 25 8.5 43
t24.5 28t38 10q21 0 36.5 -10t29 -22.5t27.5 -22.5t32 -10q24 0 37 16.5t13 44.5h19z" />
    <glyph glyph-name="Odieresis" unicode="&#xd6;" horiz-adv-x="818" 
d="M409 703q74 0 139 -27.5t114.5 -76t77.5 -112.5t28 -136q0 -73 -28 -137t-77.5 -113t-114.5 -76.5t-139 -27.5t-139 27.5t-114.5 76.5t-77.5 113t-28 137q0 72 28 136t77.5 112.5t114.5 76t139 27.5zM409 683q-70 0 -131 -26t-108 -72t-73.5 -106t-26.5 -128
q0 -69 26.5 -129.5t73.5 -106.5t108 -72t131 -26t131.5 26t108 72t73 106.5t26.5 129.5q0 68 -26.5 128t-73 106t-108 72t-131.5 26zM334 828q10 0 17.5 -7.5t7.5 -18.5q0 -10 -7.5 -18t-18.5 -8q-10 0 -18 8t-8 18q0 11 8 18.5t19 7.5zM486 828q10 0 17.5 -7.5t7.5 -18.5
q0 -10 -7.5 -18t-18.5 -8q-10 0 -18 8t-8 18q0 11 8 18.5t19 7.5z" />
    <glyph glyph-name="multiply" unicode="&#xd7;" horiz-adv-x="480" 
d="M374 468l14 -14l-282 -282l-14 14zM106 468l282 -282l-14 -14l-282 282z" />
    <glyph glyph-name="Oslash" unicode="&#xd8;" horiz-adv-x="818" 
d="M697 755h21l-597 -810h-21zM409 699q74 0 139 -27t114.5 -75.5t77.5 -111.5t28 -135t-28 -135.5t-77.5 -111.5t-114.5 -75.5t-139 -27.5t-139 27.5t-114.5 75.5t-77.5 111.5t-28 135.5t28 135t77.5 111.5t114.5 75.5t139 27zM409 679q-70 0 -131 -25.5t-108 -71
t-73.5 -105t-26.5 -127.5t26.5 -127.5t73.5 -105t108 -71.5t131 -26t131.5 26t108 71.5t73 105t26.5 127.5t-26.5 127.5t-73 105t-108 71t-131.5 25.5z" />
    <glyph glyph-name="Ugrave" unicode="&#xd9;" horiz-adv-x="774" 
d="M130 281q0 -126 67.5 -195t189.5 -69t189.5 69t67.5 195v418h20v-418q0 -90 -32.5 -153.5t-94.5 -97t-150 -33.5t-150 33.5t-94.5 97t-32.5 153.5v418h20v-418zM297 891l136 -110l-26 -5l-129 105z" />
    <glyph glyph-name="Uacute" unicode="&#xda;" horiz-adv-x="774" 
d="M130 281q0 -126 67.5 -195t189.5 -69t189.5 69t67.5 195v418h20v-418q0 -90 -32.5 -153.5t-94.5 -97t-150 -33.5t-150 33.5t-94.5 97t-32.5 153.5v418h20v-418zM495 891l19 -10l-129 -105l-26 5z" />
    <glyph glyph-name="Ucircumflex" unicode="&#xdb;" horiz-adv-x="774" 
d="M130 281q0 -126 67.5 -195t189.5 -69t189.5 69t67.5 195v418h20v-418q0 -90 -32.5 -153.5t-94.5 -97t-150 -33.5t-150 33.5t-94.5 97t-32.5 153.5v418h20v-418zM371 886h32l98 -110h-26l-94 98h12l-94 -98h-26z" />
    <glyph glyph-name="Udieresis" unicode="&#xdc;" horiz-adv-x="774" 
d="M130 281q0 -126 67.5 -195t189.5 -69t189.5 69t67.5 195v418h20v-418q0 -90 -32.5 -153.5t-94.5 -97t-150 -33.5t-150 33.5t-94.5 97t-32.5 153.5v418h20v-418zM312 828q10 0 17.5 -7.5t7.5 -18.5q0 -10 -7.5 -18t-18.5 -8q-10 0 -18 8t-8 18q0 11 8 18.5t19 7.5z
M464 828q10 0 17.5 -7.5t7.5 -18.5q0 -10 -7.5 -18t-18.5 -8q-10 0 -18 8t-8 18q0 11 8 18.5t19 7.5z" />
    <glyph glyph-name="Yacute" unicode="&#xdd;" horiz-adv-x="606" 
d="M10 699h24l271 -410l267 410h24l-288 -441h-6zM295 277h20v-277h-20v277zM411 891l19 -10l-129 -105l-26 5z" />
    <glyph glyph-name="Thorn" unicode="&#xde;" horiz-adv-x="662" 
d="M335 587q100 0 165.5 -24t98.5 -73t33 -123q0 -75 -33 -125t-98.5 -75t-165.5 -25h-192v20h192q140 0 208.5 51t68.5 154q0 101 -68.5 150.5t-208.5 49.5h-194l-2 20h196zM128 699h20v-699h-20v699z" />
    <glyph glyph-name="germandbls" unicode="&#xdf;" horiz-adv-x="640" 
d="M110 496q0 75 27.5 130t77 85.5t116.5 30.5q61 0 106 -22.5t70 -63t25 -96.5q0 -70 -40.5 -120t-108.5 -63q84 -10 134.5 -59t50.5 -121q0 -60 -29.5 -104.5t-82.5 -68.5t-126 -24h-55v20h55q99 0 158.5 48.5t59.5 128.5q0 77 -61.5 122.5t-165.5 45.5h-5v20
q89 0 142.5 48t53.5 127q0 74 -49 118t-132 44q-61 0 -106 -28t-70 -78.5t-25 -119.5v-496h-20v496z" />
    <glyph glyph-name="agrave" unicode="&#xe0;" horiz-adv-x="562" 
d="M255 262q-82 0 -127 -29.5t-45 -83.5q0 -57 40.5 -93t108.5 -36q51 0 92.5 14.5t73 46t51.5 83.5l18 -8q-32 -82 -94 -119t-142 -37q-50 0 -88 19.5t-59 53t-21 76.5q0 63 52 98t140 35h203v-20h-203zM447 345q-1 71 -41.5 111.5t-122.5 40.5q-52 0 -95.5 -19.5
t-85.5 -52.5l-12 16q29 23 59.5 40t64 26.5t69.5 9.5q89 0 136 -46.5t48 -125.5l2 -345h-20zM185 739l136 -110l-26 -5l-129 105z" />
    <glyph glyph-name="aacute" unicode="&#xe1;" horiz-adv-x="562" 
d="M255 262q-82 0 -127 -29.5t-45 -83.5q0 -57 40.5 -93t108.5 -36q51 0 92.5 14.5t73 46t51.5 83.5l18 -8q-32 -82 -94 -119t-142 -37q-50 0 -88 19.5t-59 53t-21 76.5q0 63 52 98t140 35h203v-20h-203zM447 345q-1 71 -41.5 111.5t-122.5 40.5q-52 0 -95.5 -19.5
t-85.5 -52.5l-12 16q29 23 59.5 40t64 26.5t69.5 9.5q89 0 136 -46.5t48 -125.5l2 -345h-20zM383 739l19 -10l-129 -105l-26 5z" />
    <glyph glyph-name="acircumflex" unicode="&#xe2;" horiz-adv-x="562" 
d="M255 262q-82 0 -127 -29.5t-45 -83.5q0 -57 40.5 -93t108.5 -36q51 0 92.5 14.5t73 46t51.5 83.5l18 -8q-32 -82 -94 -119t-142 -37q-50 0 -88 19.5t-59 53t-21 76.5q0 63 52 98t140 35h203v-20h-203zM447 345q-1 71 -41.5 111.5t-122.5 40.5q-52 0 -95.5 -19.5
t-85.5 -52.5l-12 16q29 23 59.5 40t64 26.5t69.5 9.5q89 0 136 -46.5t48 -125.5l2 -345h-20zM259 734h32l98 -110h-26l-94 98h12l-94 -98h-26z" />
    <glyph glyph-name="atilde" unicode="&#xe3;" horiz-adv-x="562" 
d="M255 262q-82 0 -127 -29.5t-45 -83.5q0 -57 40.5 -93t108.5 -36q51 0 92.5 14.5t73 46t51.5 83.5l18 -8q-32 -82 -94 -119t-142 -37q-50 0 -88 19.5t-59 53t-21 76.5q0 63 52 98t140 35h203v-20h-203zM447 345q-1 71 -41.5 111.5t-122.5 40.5q-52 0 -95.5 -19.5
t-85.5 -52.5l-12 16q29 23 59.5 40t64 26.5t69.5 9.5q89 0 136 -46.5t48 -125.5l2 -345h-20zM407 710q0 -24 -8.5 -42.5t-24.5 -28.5t-38 -10q-21 0 -36.5 10t-29 22.5t-27.5 22.5t-32 10q-24 0 -37 -16t-13 -45h-19q0 25 8.5 43t24.5 28t38 10q21 0 36.5 -10t29 -22.5
t27.5 -22.5t32 -10q24 0 37 16.5t13 44.5h19z" />
    <glyph glyph-name="adieresis" unicode="&#xe4;" horiz-adv-x="562" 
d="M255 262q-82 0 -127 -29.5t-45 -83.5q0 -57 40.5 -93t108.5 -36q51 0 92.5 14.5t73 46t51.5 83.5l18 -8q-32 -82 -94 -119t-142 -37q-50 0 -88 19.5t-59 53t-21 76.5q0 63 52 98t140 35h203v-20h-203zM447 345q-1 71 -41.5 111.5t-122.5 40.5q-52 0 -95.5 -19.5
t-85.5 -52.5l-12 16q29 23 59.5 40t64 26.5t69.5 9.5q89 0 136 -46.5t48 -125.5l2 -345h-20zM200 692q11 0 18.5 -7.5t7.5 -18.5q0 -10 -7.5 -18t-18.5 -8q-10 0 -18 8t-8 19q0 10 8 17.5t18 7.5zM350 692q11 0 18.5 -7.5t7.5 -18.5q0 -10 -7.5 -18t-18.5 -8q-10 0 -18 8
t-8 19q0 10 8 17.5t18 7.5z" />
    <glyph glyph-name="aring" unicode="&#xe5;" horiz-adv-x="562" 
d="M255 262q-82 0 -127 -29.5t-45 -83.5q0 -57 40.5 -93t108.5 -36q51 0 92.5 14.5t73 46t51.5 83.5l18 -8q-32 -82 -94 -119t-142 -37q-50 0 -88 19.5t-59 53t-21 76.5q0 63 52 98t140 35h203v-20h-203zM447 345q-1 71 -41.5 111.5t-122.5 40.5q-52 0 -95.5 -19.5
t-85.5 -52.5l-12 16q29 23 59.5 40t64 26.5t69.5 9.5q89 0 136 -46.5t48 -125.5l2 -345h-20zM274 754q25 0 45 -12t32.5 -32t12.5 -43t-12.5 -42.5t-32.5 -31.5t-45 -12q-24 0 -44.5 12t-32.5 31.5t-12 42.5t12 43t32.5 32t44.5 12zM274 736q-29 0 -50.5 -20t-21.5 -49
q0 -28 21.5 -48t50.5 -20t51 20t22 48q0 29 -22 49t-51 20z" />
    <glyph glyph-name="ae" unicode="&#xe6;" horiz-adv-x="988" 
d="M470 232q0 -42 18.5 -80t50.5 -68t73.5 -47t87.5 -17q114 0 183 75l14 -14q-37 -39 -87.5 -60t-109.5 -21q-54 0 -102 20.5t-83 57t-53 82.5q-33 -79 -90 -119.5t-140 -40.5q-49 0 -87.5 19t-60 53t-21.5 77q0 62 51.5 97.5t141.5 35.5h193l-1 63q-1 74 -43 113t-122 39
q-46 0 -89.5 -17t-92.5 -55l-12 16q50 39 97.5 57.5t96.5 18.5q83 0 131.5 -41.5t52.5 -116.5q28 74 90.5 116t142.5 42q71 0 125 -33t84.5 -91t30.5 -134h-470v-27zM256 262q-82 0 -127.5 -29.5t-45.5 -83.5q0 -58 41 -93.5t108 -35.5q83 0 134 38.5t84 125.5v78h-194z
M920 279q-4 66 -33 115t-77 76t-110 27q-63 0 -113.5 -27.5t-81 -76.5t-34.5 -114h449z" />
    <glyph glyph-name="ccedilla" unicode="&#xe7;" horiz-adv-x="557" 
d="M466 434q-32 29 -73 46t-90 17q-67 0 -119.5 -30.5t-82.5 -84t-30 -123.5t30 -124t82.5 -84.5t119.5 -30.5q53 0 98 19.5t76 55.5l13 -14q-34 -38 -82 -59.5t-105 -21.5q-72 0 -128.5 33.5t-89.5 92t-33 133.5t33 133.5t89.5 91.5t128.5 33q52 0 97 -18.5t79 -50.5z
M279 5l20 -5l-16 -56q41 -1 61 -23.5t20 -50.5q0 -20 -10 -39.5t-29.5 -31.5t-49.5 -12q-19 0 -39.5 6t-33.5 16l8 20q12 -9 30.5 -15t34.5 -6q35 0 51.5 19.5t16.5 42.5q0 21 -15 38t-43 17h-16h-13z" />
    <glyph glyph-name="egrave" unicode="&#xe8;" horiz-adv-x="589" 
d="M521 279q-4 65 -32 114t-76 76.5t-112 27.5q-66 0 -118 -30.5t-81.5 -84t-29.5 -123.5t29.5 -124t81.5 -84.5t118 -30.5q116 0 183 75l14 -14q-35 -38 -86 -59.5t-111 -21.5q-71 0 -127.5 33.5t-89 92t-32.5 133.5t32.5 133.5t89 91.5t127.5 33q72 0 126 -33t84 -91.5
t30 -133.5h-477v20h457zM205 739l136 -110l-26 -5l-129 105z" />
    <glyph glyph-name="eacute" unicode="&#xe9;" horiz-adv-x="589" 
d="M521 279q-4 65 -32 114t-76 76.5t-112 27.5q-66 0 -118 -30.5t-81.5 -84t-29.5 -123.5t29.5 -124t81.5 -84.5t118 -30.5q116 0 183 75l14 -14q-35 -38 -86 -59.5t-111 -21.5q-71 0 -127.5 33.5t-89 92t-32.5 133.5t32.5 133.5t89 91.5t127.5 33q72 0 126 -33t84 -91.5
t30 -133.5h-477v20h457zM403 739l19 -10l-129 -105l-26 5z" />
    <glyph glyph-name="ecircumflex" unicode="&#xea;" horiz-adv-x="589" 
d="M521 279q-4 65 -32 114t-76 76.5t-112 27.5q-66 0 -118 -30.5t-81.5 -84t-29.5 -123.5t29.5 -124t81.5 -84.5t118 -30.5q116 0 183 75l14 -14q-35 -38 -86 -59.5t-111 -21.5q-71 0 -127.5 33.5t-89 92t-32.5 133.5t32.5 133.5t89 91.5t127.5 33q72 0 126 -33t84 -91.5
t30 -133.5h-477v20h457zM279 734h32l98 -110h-26l-94 98h12l-94 -98h-26z" />
    <glyph glyph-name="edieresis" unicode="&#xeb;" horiz-adv-x="589" 
d="M521 279q-4 65 -32 114t-76 76.5t-112 27.5q-66 0 -118 -30.5t-81.5 -84t-29.5 -123.5t29.5 -124t81.5 -84.5t118 -30.5q116 0 183 75l14 -14q-35 -38 -86 -59.5t-111 -21.5q-71 0 -127.5 33.5t-89 92t-32.5 133.5t32.5 133.5t89 91.5t127.5 33q72 0 126 -33t84 -91.5
t30 -133.5h-477v20h457zM220 692q11 0 18.5 -7.5t7.5 -18.5q0 -10 -7.5 -18t-18.5 -8q-10 0 -18 8t-8 19q0 10 8 17.5t18 7.5zM370 692q11 0 18.5 -7.5t7.5 -18.5q0 -10 -7.5 -18t-18.5 -8q-10 0 -18 8t-8 19q0 10 8 17.5t18 7.5z" />
    <glyph glyph-name="igrave" unicode="&#xec;" horiz-adv-x="240" 
d="M110 517h20v-517h-20v517zM30 739l136 -110l-26 -5l-129 105z" />
    <glyph glyph-name="iacute" unicode="&#xed;" horiz-adv-x="240" 
d="M110 517h20v-517h-20v517zM228 739l19 -10l-129 -105l-26 5z" />
    <glyph glyph-name="icircumflex" unicode="&#xee;" horiz-adv-x="240" 
d="M110 517h20v-517h-20v517zM104 734h32l98 -110h-26l-94 98h12l-94 -98h-26z" />
    <glyph glyph-name="idieresis" unicode="&#xef;" horiz-adv-x="240" 
d="M110 517h20v-517h-20v517zM65 692q12 0 19 -7.5t7 -18.5q0 -10 -7.5 -18t-18.5 -8q-10 0 -18 8t-8 18q0 11 8 18.5t18 7.5zM175 692q11 0 18.5 -7.5t7.5 -18.5q0 -10 -7.5 -18t-18.5 -8q-10 0 -18 8t-8 18q0 11 8 18.5t18 7.5z" />
    <glyph glyph-name="eth" unicode="&#xf0;" horiz-adv-x="566" 
d="M168 742q106 -61 184 -145.5t121 -179.5t43 -190q0 -69 -29 -120t-81.5 -79t-124.5 -28q-67 0 -116.5 27.5t-77 77.5t-27.5 117q0 66 28 114.5t79 75t120 26.5q70 0 126 -33.5t80 -89.5q-21 80 -70 157t-117.5 142.5t-149.5 109.5zM287 418q-94 0 -150.5 -52.5
t-56.5 -141.5q0 -93 56 -148.5t150 -55.5q96 0 153 53.5t57 142.5q0 92 -57 147t-152 55zM137 545l317 147l9 -19l-317 -147z" />
    <glyph glyph-name="ntilde" unicode="&#xf1;" horiz-adv-x="644" 
d="M531 313q0 87 -48.5 135.5t-134.5 48.5q-103 -2 -161 -66.5t-58 -177.5h-18q0 82 28 140.5t81.5 90.5t127.5 33q64 0 109.5 -24.5t69.5 -70t24 -109.5v-313h-20v313zM110 517h20v-517h-20v517zM474 710q0 -24 -8.5 -42.5t-24.5 -28.5t-38 -10q-21 0 -36.5 10t-29 22.5
t-27.5 22.5t-32 10q-24 0 -37 -16t-13 -45h-19q0 25 8.5 43t24.5 28t38 10q21 0 36.5 -10t29 -22.5t27.5 -22.5t32 -10q24 0 37 16.5t13 44.5h19z" />
    <glyph glyph-name="ograve" unicode="&#xf2;" horiz-adv-x="606" 
d="M303 517q72 0 129 -33t89.5 -91.5t32.5 -133.5t-32.5 -133.5t-89.5 -92t-129 -33.5t-128.5 33.5t-89.5 92t-33 133.5t33 133.5t89.5 91.5t128.5 33zM303 497q-67 0 -119 -30.5t-82 -84t-30 -123.5t30 -124t82 -84.5t119 -30.5t119 30.5t82 84.5t30 124t-30 123.5t-82 84
t-119 30.5zM213 739l136 -110l-26 -5l-129 105z" />
    <glyph glyph-name="oacute" unicode="&#xf3;" horiz-adv-x="606" 
d="M303 517q72 0 129 -33t89.5 -91.5t32.5 -133.5t-32.5 -133.5t-89.5 -92t-129 -33.5t-128.5 33.5t-89.5 92t-33 133.5t33 133.5t89.5 91.5t128.5 33zM303 497q-67 0 -119 -30.5t-82 -84t-30 -123.5t30 -124t82 -84.5t119 -30.5t119 30.5t82 84.5t30 124t-30 123.5t-82 84
t-119 30.5zM411 739l19 -10l-129 -105l-26 5z" />
    <glyph glyph-name="ocircumflex" unicode="&#xf4;" horiz-adv-x="606" 
d="M303 517q72 0 129 -33t89.5 -91.5t32.5 -133.5t-32.5 -133.5t-89.5 -92t-129 -33.5t-128.5 33.5t-89.5 92t-33 133.5t33 133.5t89.5 91.5t128.5 33zM303 497q-67 0 -119 -30.5t-82 -84t-30 -123.5t30 -124t82 -84.5t119 -30.5t119 30.5t82 84.5t30 124t-30 123.5t-82 84
t-119 30.5zM287 734h32l98 -110h-26l-94 98h12l-94 -98h-26z" />
    <glyph glyph-name="otilde" unicode="&#xf5;" horiz-adv-x="606" 
d="M303 517q72 0 129 -33t89.5 -91.5t32.5 -133.5t-32.5 -133.5t-89.5 -92t-129 -33.5t-128.5 33.5t-89.5 92t-33 133.5t33 133.5t89.5 91.5t128.5 33zM303 497q-67 0 -119 -30.5t-82 -84t-30 -123.5t30 -124t82 -84.5t119 -30.5t119 30.5t82 84.5t30 124t-30 123.5t-82 84
t-119 30.5zM435 710q0 -24 -8.5 -42.5t-24.5 -28.5t-38 -10q-21 0 -36.5 10t-29 22.5t-27.5 22.5t-32 10q-24 0 -37 -16t-13 -45h-19q0 25 8.5 43t24.5 28t38 10q21 0 36.5 -10t29 -22.5t27.5 -22.5t32 -10q24 0 37 16.5t13 44.5h19z" />
    <glyph glyph-name="odieresis" unicode="&#xf6;" horiz-adv-x="606" 
d="M303 517q72 0 129 -33t89.5 -91.5t32.5 -133.5t-32.5 -133.5t-89.5 -92t-129 -33.5t-128.5 33.5t-89.5 92t-33 133.5t33 133.5t89.5 91.5t128.5 33zM303 497q-67 0 -119 -30.5t-82 -84t-30 -123.5t30 -124t82 -84.5t119 -30.5t119 30.5t82 84.5t30 124t-30 123.5t-82 84
t-119 30.5zM228 692q11 0 18.5 -7.5t7.5 -18.5q0 -10 -7.5 -18t-18.5 -8q-10 0 -18 8t-8 19q0 10 8 17.5t18 7.5zM378 692q11 0 18.5 -7.5t7.5 -18.5q0 -10 -7.5 -18t-18.5 -8q-10 0 -18 8t-8 19q0 10 8 17.5t18 7.5z" />
    <glyph glyph-name="divide" unicode="&#xf7;" horiz-adv-x="480" 
d="M40 330h400v-20h-400v20zM240 521q11 0 18.5 -7.5t7.5 -18.5q0 -10 -7.5 -18t-18.5 -8q-10 0 -18 8t-8 19q0 10 8 17.5t18 7.5zM240 171q11 0 18.5 -7.5t7.5 -18.5q0 -10 -7.5 -18t-18.5 -8q-10 0 -18 8t-8 19q0 10 8 17.5t18 7.5z" />
    <glyph glyph-name="oslash" unicode="&#xf8;" horiz-adv-x="606" 
d="M303 517q72 0 129 -33t89.5 -91.5t32.5 -133.5t-32.5 -133.5t-89.5 -92t-129 -33.5t-128.5 33.5t-89.5 92t-33 133.5t33 133.5t89.5 91.5t128.5 33zM303 497q-67 0 -119 -30.5t-82 -84t-30 -123.5t30 -124t82 -84.5t119 -30.5t119 30.5t82 84.5t30 124t-30 123.5t-82 84
t-119 30.5zM545 627h21l-505 -737h-21z" />
    <glyph glyph-name="ugrave" unicode="&#xf9;" horiz-adv-x="637" 
d="M112 204q0 -87 47.5 -135.5t132.5 -48.5q101 2 158 67t57 177h17q0 -81 -27.5 -140t-79.5 -90.5t-125 -33.5q-63 0 -107.5 24.5t-68.5 70t-24 109.5v313h20v-313zM507 517h20v-517h-20v517zM229 739l136 -110l-26 -5l-129 105z" />
    <glyph glyph-name="uacute" unicode="&#xfa;" horiz-adv-x="637" 
d="M112 204q0 -87 47.5 -135.5t132.5 -48.5q101 2 158 67t57 177h17q0 -81 -27.5 -140t-79.5 -90.5t-125 -33.5q-63 0 -107.5 24.5t-68.5 70t-24 109.5v313h20v-313zM507 517h20v-517h-20v517zM427 739l19 -10l-129 -105l-26 5z" />
    <glyph glyph-name="ucircumflex" unicode="&#xfb;" horiz-adv-x="637" 
d="M112 204q0 -87 47.5 -135.5t132.5 -48.5q101 2 158 67t57 177h17q0 -81 -27.5 -140t-79.5 -90.5t-125 -33.5q-63 0 -107.5 24.5t-68.5 70t-24 109.5v313h20v-313zM507 517h20v-517h-20v517zM303 734h32l98 -110h-26l-94 98h12l-94 -98h-26z" />
    <glyph glyph-name="udieresis" unicode="&#xfc;" horiz-adv-x="637" 
d="M112 204q0 -87 47.5 -135.5t132.5 -48.5q101 2 158 67t57 177h17q0 -81 -27.5 -140t-79.5 -90.5t-125 -33.5q-63 0 -107.5 24.5t-68.5 70t-24 109.5v313h20v-313zM507 517h20v-517h-20v517zM244 692q11 0 18.5 -7.5t7.5 -18.5q0 -10 -7.5 -18t-18.5 -8q-10 0 -18 8t-8 19
q0 10 8 17.5t18 7.5zM394 692q11 0 18.5 -7.5t7.5 -18.5q0 -10 -7.5 -18t-18.5 -8q-10 0 -18 8t-8 19q0 10 8 17.5t18 7.5z" />
    <glyph glyph-name="yacute" unicode="&#xfd;" horiz-adv-x="456" 
d="M214 -75q-24 -58 -59 -88.5t-76 -30.5q-27 0 -50.5 6.5t-41.5 19.5l9 17q34 -23 81 -23q38 0 69.5 27.5t51.5 78.5l26 66l-214 519h23l201 -494l198 494h24zM341 739l19 -10l-129 -105l-26 5z" />
    <glyph glyph-name="thorn" unicode="&#xfe;" horiz-adv-x="669" 
d="M135 365q28 69 89 110.5t142 41.5q73 0 129.5 -33.5t89 -92t32.5 -133.5q0 -74 -32.5 -132.5t-89 -92t-129.5 -33.5q-81 0 -142 41.5t-89 110.5v-346h-20v936h20v-377zM366 497q-67 0 -119 -31t-82 -85t-30 -123t30 -122.5t82 -84.5t119 -31t119 31t82 84.5t30 122.5
t-30 123t-82 85t-119 31z" />
    <glyph glyph-name="ydieresis" unicode="&#xff;" horiz-adv-x="456" 
d="M214 -75q-24 -58 -59 -88.5t-76 -30.5q-27 0 -50.5 6.5t-41.5 19.5l9 17q34 -23 81 -23q38 0 69.5 27.5t51.5 78.5l26 66l-214 519h23l201 -494l198 494h24zM158 692q11 0 18.5 -7.5t7.5 -18.5q0 -10 -7.5 -18t-18.5 -8q-10 0 -18 8t-8 19q0 10 8 17.5t18 7.5zM308 692
q11 0 18.5 -7.5t7.5 -18.5q0 -10 -7.5 -18t-18.5 -8q-10 0 -18 8t-8 19q0 10 8 17.5t18 7.5z" />
    <glyph glyph-name="Amacron" unicode="&#x100;" horiz-adv-x="686" 
d="M330 699h22l324 -699h-23l-312 676l-307 -676h-24zM125 233h434v-20h-434v20zM184 801h317v-20h-317v20z" />
    <glyph glyph-name="amacron" unicode="&#x101;" horiz-adv-x="562" 
d="M255 262q-82 0 -127 -29.5t-45 -83.5q0 -57 40.5 -93t108.5 -36q51 0 92.5 14.5t73 46t51.5 83.5l18 -8q-32 -82 -94 -119t-142 -37q-50 0 -88 19.5t-59 53t-21 76.5q0 63 52 98t140 35h203v-20h-203zM447 345q-1 71 -41.5 111.5t-122.5 40.5q-52 0 -95.5 -19.5
t-85.5 -52.5l-12 16q29 23 59.5 40t64 26.5t69.5 9.5q89 0 136 -46.5t48 -125.5l2 -345h-20zM146 677h257v-20h-257v20z" />
    <glyph glyph-name="Abreve" unicode="&#x102;" horiz-adv-x="686" 
d="M330 699h22l324 -699h-23l-312 676l-307 -676h-24zM125 233h434v-20h-434v20zM258 881q2 -36 26 -60.5t59 -24.5t59.5 24.5t25.5 60.5h20q-1 -45 -31.5 -75t-73.5 -30t-73 30t-32 75h20z" />
    <glyph glyph-name="abreve" unicode="&#x103;" horiz-adv-x="562" 
d="M255 262q-82 0 -127 -29.5t-45 -83.5q0 -57 40.5 -93t108.5 -36q51 0 92.5 14.5t73 46t51.5 83.5l18 -8q-32 -82 -94 -119t-142 -37q-50 0 -88 19.5t-59 53t-21 76.5q0 63 52 98t140 35h203v-20h-203zM447 345q-1 71 -41.5 111.5t-122.5 40.5q-52 0 -95.5 -19.5
t-85.5 -52.5l-12 16q29 23 59.5 40t64 26.5t69.5 9.5q89 0 136 -46.5t48 -125.5l2 -345h-20zM190 726q2 -36 26 -60.5t59 -24.5t59.5 24.5t25.5 60.5h20q-1 -45 -31.5 -75t-73.5 -30t-73 30t-32 75h20z" />
    <glyph glyph-name="Aogonek" unicode="&#x104;" horiz-adv-x="686" 
d="M330 699h22l324 -699h-23l-312 676l-307 -676h-24zM125 233h434v-20h-434v20zM667 16l9 -16q-61 -40 -91.5 -71t-30.5 -68q0 -28 15 -41t37 -13q14 0 29.5 5t29.5 15l10 -16q-17 -12 -35 -18t-35 -6q-32 0 -52 20t-20 54q0 45 34.5 80t99.5 75z" />
    <glyph glyph-name="aogonek" unicode="&#x105;" horiz-adv-x="562" 
d="M255 262q-82 0 -127 -29.5t-45 -83.5q0 -57 40.5 -93t108.5 -36q51 0 92.5 14.5t73 46t51.5 83.5l18 -8q-32 -82 -94 -119t-142 -37q-50 0 -88 19.5t-59 53t-21 76.5q0 63 52 98t140 35h203v-20h-203zM447 345q-1 71 -41.5 111.5t-122.5 40.5q-52 0 -95.5 -19.5
t-85.5 -52.5l-12 16q29 23 59.5 40t64 26.5t69.5 9.5q89 0 136 -46.5t48 -125.5l2 -345h-20zM460 16l9 -16q-61 -40 -91.5 -71t-30.5 -68q0 -28 15 -41t37 -13q14 0 29.5 5t29.5 15l10 -16q-17 -12 -35 -18t-35 -6q-32 0 -52 20t-20 54q0 45 34.5 80t99.5 75z" />
    <glyph glyph-name="Cacute" unicode="&#x106;" horiz-adv-x="705" 
d="M636 599q-45 41 -103.5 63t-123.5 22q-70 0 -131.5 -26t-108.5 -72t-73.5 -106.5t-26.5 -129.5t26.5 -129.5t73.5 -106.5t108.5 -72t131.5 -26q65 0 123.5 23t103.5 63l14 -13q-32 -28 -70.5 -49t-81.5 -32t-89 -11q-74 0 -139 27.5t-114.5 76.5t-77.5 113t-28 136
q0 73 28 137t77.5 112.5t114.5 76t139 27.5q46 0 89 -11t81 -31t70 -49zM516 891l19 -10l-129 -105l-26 5z" />
    <glyph glyph-name="cacute" unicode="&#x107;" horiz-adv-x="557" 
d="M466 434q-32 29 -73 46t-90 17q-67 0 -119.5 -30.5t-82.5 -84t-30 -123.5t30 -124t82.5 -84.5t119.5 -30.5q53 0 98 19.5t76 55.5l13 -14q-34 -38 -82 -59.5t-105 -21.5q-72 0 -128.5 33.5t-89.5 92t-33 133.5t33 133.5t89.5 91.5t128.5 33q52 0 97 -18.5t79 -50.5z
M387 739l19 -10l-129 -105l-26 5z" />
    <glyph glyph-name="Ccircumflex" unicode="&#x108;" horiz-adv-x="705" 
d="M636 599q-45 41 -103.5 63t-123.5 22q-70 0 -131.5 -26t-108.5 -72t-73.5 -106.5t-26.5 -129.5t26.5 -129.5t73.5 -106.5t108.5 -72t131.5 -26q65 0 123.5 23t103.5 63l14 -13q-32 -28 -70.5 -49t-81.5 -32t-89 -11q-74 0 -139 27.5t-114.5 76.5t-77.5 113t-28 136
q0 73 28 137t77.5 112.5t114.5 76t139 27.5q46 0 89 -11t81 -31t70 -49zM392 886h32l98 -110h-26l-94 98h12l-94 -98h-26z" />
    <glyph glyph-name="ccircumflex" unicode="&#x109;" horiz-adv-x="557" 
d="M466 434q-32 29 -73 46t-90 17q-67 0 -119.5 -30.5t-82.5 -84t-30 -123.5t30 -124t82.5 -84.5t119.5 -30.5q53 0 98 19.5t76 55.5l13 -14q-34 -38 -82 -59.5t-105 -21.5q-72 0 -128.5 33.5t-89.5 92t-33 133.5t33 133.5t89.5 91.5t128.5 33q52 0 97 -18.5t79 -50.5z
M263 734h32l98 -110h-26l-94 98h12l-94 -98h-26z" />
    <glyph glyph-name="Cdotaccent" unicode="&#x10a;" horiz-adv-x="705" 
d="M636 599q-45 41 -103.5 63t-123.5 22q-70 0 -131.5 -26t-108.5 -72t-73.5 -106.5t-26.5 -129.5t26.5 -129.5t73.5 -106.5t108.5 -72t131.5 -26q65 0 123.5 23t103.5 63l14 -13q-32 -28 -70.5 -49t-81.5 -32t-89 -11q-74 0 -139 27.5t-114.5 76.5t-77.5 113t-28 136
q0 73 28 137t77.5 112.5t114.5 76t139 27.5q46 0 89 -11t81 -31t70 -49zM408 828q11 0 18.5 -7.5t7.5 -18.5q0 -10 -7.5 -18t-18.5 -8q-10 0 -18 8t-8 18q0 11 8 18.5t18 7.5z" />
    <glyph glyph-name="cdotaccent" unicode="&#x10b;" horiz-adv-x="557" 
d="M466 434q-32 29 -73 46t-90 17q-67 0 -119.5 -30.5t-82.5 -84t-30 -123.5t30 -124t82.5 -84.5t119.5 -30.5q53 0 98 19.5t76 55.5l13 -14q-34 -38 -82 -59.5t-105 -21.5q-72 0 -128.5 33.5t-89.5 92t-33 133.5t33 133.5t89.5 91.5t128.5 33q52 0 97 -18.5t79 -50.5z
M279 692q11 0 18.5 -7.5t7.5 -18.5q0 -10 -7.5 -18t-18.5 -8q-10 0 -18 8t-8 18q0 11 8 18.5t18 7.5z" />
    <glyph glyph-name="Ccaron" unicode="&#x10c;" horiz-adv-x="705" 
d="M636 599q-45 41 -103.5 63t-123.5 22q-70 0 -131.5 -26t-108.5 -72t-73.5 -106.5t-26.5 -129.5t26.5 -129.5t73.5 -106.5t108.5 -72t131.5 -26q65 0 123.5 23t103.5 63l14 -13q-32 -28 -70.5 -49t-81.5 -32t-89 -11q-74 0 -139 27.5t-114.5 76.5t-77.5 113t-28 136
q0 73 28 137t77.5 112.5t114.5 76t139 27.5q46 0 89 -11t81 -31t70 -49zM424 776h-32l-98 110h26l94 -98h-12l94 98h26z" />
    <glyph glyph-name="ccaron" unicode="&#x10d;" horiz-adv-x="557" 
d="M466 434q-32 29 -73 46t-90 17q-67 0 -119.5 -30.5t-82.5 -84t-30 -123.5t30 -124t82.5 -84.5t119.5 -30.5q53 0 98 19.5t76 55.5l13 -14q-34 -38 -82 -59.5t-105 -21.5q-72 0 -128.5 33.5t-89.5 92t-33 133.5t33 133.5t89.5 91.5t128.5 33q52 0 97 -18.5t79 -50.5z
M295 624h-32l-98 110h26l94 -98h-12l94 98h26z" />
    <glyph glyph-name="Dcaron" unicode="&#x10e;" horiz-adv-x="811" 
d="M403 699q74 0 139 -27t114 -75.5t77 -112t28 -135.5t-28 -135t-77 -111.5t-114 -75.5t-139 -27h-275v699h275zM403 20q70 0 131 25.5t107.5 71t73 105t26.5 127.5t-26.5 128t-73 105.5t-107.5 71t-131 25.5h-255v-659h255zM402 776h-32l-98 110h26l94 -98h-12l94 98h26z
" />
    <glyph glyph-name="dcaron" unicode="&#x10f;" horiz-adv-x="665" 
d="M305 519q73 0 130 -34t90 -92.5t33 -134.5q0 -75 -33 -133.5t-90 -92.5t-130 -34t-130 34t-90 92.5t-33 133.5q0 76 33 134.5t90 92.5t130 34zM305 499q-67 0 -120 -31.5t-83 -85.5t-30 -124q0 -69 30 -123.5t83 -85.5t120 -31q68 0 120.5 31t82.5 85.5t30 123.5
q0 70 -30 124t-82.5 85.5t-120.5 31.5zM538 742h20v-742h-20v742zM658 742h20l-2 -179h-18v179z" />
    <glyph glyph-name="Dcroat" unicode="&#x110;" horiz-adv-x="811" 
d="M57 360h375v-20h-375v20zM403 699q74 0 139 -27t114 -75.5t77 -112t28 -135.5t-28 -135t-77 -111.5t-114 -75.5t-139 -27h-275v699h275zM403 20q70 0 131 25.5t107.5 71t73 105t26.5 127.5t-26.5 128t-73 105.5t-107.5 71t-131 25.5h-255v-659h255z" />
    <glyph glyph-name="dcroat" unicode="&#x111;" horiz-adv-x="673" 
d="M288 639h350v-20h-350v20zM305 519q73 0 130 -34t90 -92.5t33 -134.5q0 -75 -33 -133.5t-90 -92.5t-130 -34t-130 34t-90 92.5t-33 133.5q0 76 33 134.5t90 92.5t130 34zM306 499q-68 0 -121 -31.5t-83 -85.5t-30 -124q0 -69 30 -123.5t83 -85.5t121 -31q67 0 119.5 31
t82.5 85.5t30 123.5q0 70 -30 124t-82.5 85.5t-119.5 31.5zM538 742h20v-742h-20v742z" />
    <glyph glyph-name="Emacron" unicode="&#x112;" horiz-adv-x="644" 
d="M128 699h437v-20h-417v-309h371v-20h-371v-330h431v-20h-451v699zM192 801h317v-20h-317v20z" />
    <glyph glyph-name="emacron" unicode="&#x113;" horiz-adv-x="589" 
d="M521 279q-4 65 -32 114t-76 76.5t-112 27.5q-66 0 -118 -30.5t-81.5 -84t-29.5 -123.5t29.5 -124t81.5 -84.5t118 -30.5q116 0 183 75l14 -14q-35 -38 -86 -59.5t-111 -21.5q-71 0 -127.5 33.5t-89 92t-32.5 133.5t32.5 133.5t89 91.5t127.5 33q72 0 126 -33t84 -91.5
t30 -133.5h-477v20h457zM166 677h257v-20h-257v20z" />
    <glyph glyph-name="Ebreve" unicode="&#x114;" horiz-adv-x="644" 
d="M128 699h437v-20h-417v-309h371v-20h-371v-330h431v-20h-451v699zM266 881q2 -36 26 -60.5t59 -24.5t59.5 24.5t25.5 60.5h20q-1 -45 -31.5 -75t-73.5 -30t-73 30t-32 75h20z" />
    <glyph glyph-name="ebreve" unicode="&#x115;" horiz-adv-x="589" 
d="M521 279q-4 65 -32 114t-76 76.5t-112 27.5q-66 0 -118 -30.5t-81.5 -84t-29.5 -123.5t29.5 -124t81.5 -84.5t118 -30.5q116 0 183 75l14 -14q-35 -38 -86 -59.5t-111 -21.5q-71 0 -127.5 33.5t-89 92t-32.5 133.5t32.5 133.5t89 91.5t127.5 33q72 0 126 -33t84 -91.5
t30 -133.5h-477v20h457zM210 726q2 -36 26 -60.5t59 -24.5t59.5 24.5t25.5 60.5h20q-1 -45 -31.5 -75t-73.5 -30t-73 30t-32 75h20z" />
    <glyph glyph-name="Edotaccent" unicode="&#x116;" horiz-adv-x="644" 
d="M128 699h437v-20h-417v-309h371v-20h-371v-330h431v-20h-451v699zM351 828q11 0 18.5 -7.5t7.5 -18.5q0 -10 -7.5 -18t-18.5 -8q-10 0 -18 8t-8 18q0 11 8 18.5t18 7.5z" />
    <glyph glyph-name="edotaccent" unicode="&#x117;" horiz-adv-x="589" 
d="M521 279q-4 65 -32 114t-76 76.5t-112 27.5q-66 0 -118 -30.5t-81.5 -84t-29.5 -123.5t29.5 -124t81.5 -84.5t118 -30.5q116 0 183 75l14 -14q-35 -38 -86 -59.5t-111 -21.5q-71 0 -127.5 33.5t-89 92t-32.5 133.5t32.5 133.5t89 91.5t127.5 33q72 0 126 -33t84 -91.5
t30 -133.5h-477v20h457zM295 692q11 0 18.5 -7.5t7.5 -18.5q0 -10 -7.5 -18t-18.5 -8q-10 0 -18 8t-8 18q0 11 8 18.5t18 7.5z" />
    <glyph glyph-name="Eogonek" unicode="&#x118;" horiz-adv-x="644" 
d="M128 699h437v-20h-417v-309h371v-20h-371v-330h431v-20h-451v699zM570 16l9 -16q-61 -40 -91.5 -71t-30.5 -68q0 -28 15 -41t37 -13q14 0 29.5 5t29.5 15l10 -16q-17 -12 -35 -18t-35 -6q-32 0 -52 20t-20 54q0 45 34.5 80t99.5 75z" />
    <glyph glyph-name="eogonek" unicode="&#x119;" horiz-adv-x="589" 
d="M521 279q-4 65 -32 114t-76 76.5t-112 27.5q-66 0 -118 -30.5t-81.5 -84t-29.5 -123.5t29.5 -124t81.5 -84.5t118 -30.5q116 0 183 75l14 -14q-35 -38 -86 -59.5t-111 -21.5q-71 0 -127.5 33.5t-89 92t-32.5 133.5t32.5 133.5t89 91.5t127.5 33q72 0 126 -33t84 -91.5
t30 -133.5h-477v20h457zM451 65l10 -16q-44 -35 -75.5 -68.5t-48.5 -64t-17 -56.5q0 -27 15 -40t37 -13q30 0 59 20l10 -16q-17 -12 -35 -18t-35 -6q-32 0 -52 20t-20 54q0 46 41 96.5t111 107.5z" />
    <glyph glyph-name="Ecaron" unicode="&#x11a;" horiz-adv-x="644" 
d="M128 699h437v-20h-417v-309h371v-20h-371v-330h431v-20h-451v699zM367 776h-32l-98 110h26l94 -98h-12l94 98h26z" />
    <glyph glyph-name="ecaron" unicode="&#x11b;" horiz-adv-x="589" 
d="M521 279q-4 65 -32 114t-76 76.5t-112 27.5q-66 0 -118 -30.5t-81.5 -84t-29.5 -123.5t29.5 -124t81.5 -84.5t118 -30.5q116 0 183 75l14 -14q-35 -38 -86 -59.5t-111 -21.5q-71 0 -127.5 33.5t-89 92t-32.5 133.5t32.5 133.5t89 91.5t127.5 33q72 0 126 -33t84 -91.5
t30 -133.5h-477v20h457zM311 624h-32l-98 110h26l94 -98h-12l94 98h26z" />
    <glyph glyph-name="Gcircumflex" unicode="&#x11c;" horiz-adv-x="760" 
d="M636 599q-45 41 -103.5 63t-123.5 22q-70 0 -131.5 -26t-108.5 -72t-73.5 -106t-26.5 -129t26.5 -129.5t73.5 -107t108.5 -72.5t131.5 -26q65 0 123.5 23t103.5 63l14 -13q-32 -28 -70.5 -49t-81.5 -32t-89 -11q-74 0 -139 27.5t-114.5 76.5t-77.5 113t-28 137
q0 72 28 136t77.5 112.5t114.5 76t139 27.5q46 0 89 -11t81 -31t70 -49zM630 343h20v-254h-20v254zM364 886h32l98 -110h-26l-94 98h12l-94 -98h-26z" />
    <glyph glyph-name="gcircumflex" unicode="&#x11d;" horiz-adv-x="630" 
d="M536 58q0 -77 -30.5 -133.5t-85.5 -87.5t-130 -31q-62 0 -112.5 23t-95.5 67l14 14q41 -41 88.5 -62.5t105.5 -21.5q69 0 119.5 28.5t78.5 80.5t28 123v459h20v-459zM293 517q70 0 124.5 -32.5t86 -88.5t31.5 -129q0 -71 -31.5 -127.5t-86 -88.5t-124.5 -32
q-69 0 -123.5 32t-86 88.5t-31.5 127.5q0 73 31.5 129t86 88.5t123.5 32.5zM293 498q-64 0 -114.5 -30t-79 -82t-28.5 -119q0 -66 28.5 -117.5t79 -81.5t114.5 -30q65 0 115 30t79 81.5t29 117.5q0 67 -29 119t-79 82t-115 30zM281 734h32l98 -110h-26l-94 98h12l-94 -98
h-26z" />
    <glyph glyph-name="Gbreve" unicode="&#x11e;" horiz-adv-x="760" 
d="M636 599q-45 41 -103.5 63t-123.5 22q-70 0 -131.5 -26t-108.5 -72t-73.5 -106t-26.5 -129t26.5 -129.5t73.5 -107t108.5 -72.5t131.5 -26q65 0 123.5 23t103.5 63l14 -13q-32 -28 -70.5 -49t-81.5 -32t-89 -11q-74 0 -139 27.5t-114.5 76.5t-77.5 113t-28 137
q0 72 28 136t77.5 112.5t114.5 76t139 27.5q46 0 89 -11t81 -31t70 -49zM630 343h20v-254h-20v254zM295 881q2 -36 26 -60.5t59 -24.5t59.5 24.5t25.5 60.5h20q-1 -45 -31.5 -75t-73.5 -30t-73 30t-32 75h20z" />
    <glyph glyph-name="gbreve" unicode="&#x11f;" horiz-adv-x="630" 
d="M536 58q0 -77 -30.5 -133.5t-85.5 -87.5t-130 -31q-62 0 -112.5 23t-95.5 67l14 14q41 -41 88.5 -62.5t105.5 -21.5q69 0 119.5 28.5t78.5 80.5t28 123v459h20v-459zM293 517q70 0 124.5 -32.5t86 -88.5t31.5 -129q0 -71 -31.5 -127.5t-86 -88.5t-124.5 -32
q-69 0 -123.5 32t-86 88.5t-31.5 127.5q0 73 31.5 129t86 88.5t123.5 32.5zM293 498q-64 0 -114.5 -30t-79 -82t-28.5 -119q0 -66 28.5 -117.5t79 -81.5t114.5 -30q65 0 115 30t79 81.5t29 117.5q0 67 -29 119t-79 82t-115 30zM212 726q2 -36 26 -60.5t59 -24.5t59.5 24.5
t25.5 60.5h20q-1 -45 -31.5 -75t-73.5 -30t-73 30t-32 75h20z" />
    <glyph glyph-name="Gdotaccent" unicode="&#x120;" horiz-adv-x="760" 
d="M636 599q-45 41 -103.5 63t-123.5 22q-70 0 -131.5 -26t-108.5 -72t-73.5 -106t-26.5 -129t26.5 -129.5t73.5 -107t108.5 -72.5t131.5 -26q65 0 123.5 23t103.5 63l14 -13q-32 -28 -70.5 -49t-81.5 -32t-89 -11q-74 0 -139 27.5t-114.5 76.5t-77.5 113t-28 137
q0 72 28 136t77.5 112.5t114.5 76t139 27.5q46 0 89 -11t81 -31t70 -49zM630 343h20v-254h-20v254zM380 828q11 0 18.5 -7.5t7.5 -18.5q0 -10 -7.5 -18t-18.5 -8q-10 0 -18 8t-8 18q0 11 8 18.5t18 7.5z" />
    <glyph glyph-name="gdotaccent" unicode="&#x121;" horiz-adv-x="630" 
d="M536 58q0 -77 -30.5 -133.5t-85.5 -87.5t-130 -31q-62 0 -112.5 23t-95.5 67l14 14q41 -41 88.5 -62.5t105.5 -21.5q69 0 119.5 28.5t78.5 80.5t28 123v459h20v-459zM293 517q70 0 124.5 -32.5t86 -88.5t31.5 -129q0 -71 -31.5 -127.5t-86 -88.5t-124.5 -32
q-69 0 -123.5 32t-86 88.5t-31.5 127.5q0 73 31.5 129t86 88.5t123.5 32.5zM293 498q-64 0 -114.5 -30t-79 -82t-28.5 -119q0 -66 28.5 -117.5t79 -81.5t114.5 -30q65 0 115 30t79 81.5t29 117.5q0 67 -29 119t-79 82t-115 30zM297 692q11 0 18.5 -7.5t7.5 -18.5
q0 -10 -7.5 -18t-18.5 -8q-10 0 -18 8t-8 18q0 11 8 18.5t18 7.5z" />
    <glyph glyph-name="uni0122" unicode="&#x122;" horiz-adv-x="760" 
d="M636 599q-45 41 -103.5 63t-123.5 22q-70 0 -131.5 -26t-108.5 -72t-73.5 -106t-26.5 -129t26.5 -129.5t73.5 -107t108.5 -72.5t131.5 -26q65 0 123.5 23t103.5 63l14 -13q-32 -28 -70.5 -49t-81.5 -32t-89 -11q-74 0 -139 27.5t-114.5 76.5t-77.5 113t-28 137
q0 72 28 136t77.5 112.5t114.5 76t139 27.5q46 0 89 -11t81 -31t70 -49zM630 343h20v-254h-20v254zM370 -65h21l-43 -149h-18z" />
    <glyph glyph-name="uni0123" unicode="&#x123;" horiz-adv-x="630" 
d="M536 58q0 -77 -30.5 -133.5t-85.5 -87.5t-130 -31q-62 0 -112.5 23t-95.5 67l14 14q41 -41 88.5 -62.5t105.5 -21.5q69 0 119.5 28.5t78.5 80.5t28 123v459h20v-459zM293 517q70 0 124.5 -32.5t86 -88.5t31.5 -129q0 -71 -31.5 -127.5t-86 -88.5t-124.5 -32
q-69 0 -123.5 32t-86 88.5t-31.5 127.5q0 73 31.5 129t86 88.5t123.5 32.5zM293 498q-64 0 -114.5 -30t-79 -82t-28.5 -119q0 -66 28.5 -117.5t79 -81.5t114.5 -30q65 0 115 30t79 81.5t29 117.5q0 67 -29 119t-79 82t-115 30zM301 615h-21l43 149h18z" />
    <glyph glyph-name="Hcircumflex" unicode="&#x124;" horiz-adv-x="799" 
d="M128 699h20v-336h503v336h20v-699h-20v343h-503v-343h-20v699zM384 886h32l98 -110h-26l-94 98h12l-94 -98h-26z" />
    <glyph glyph-name="hcircumflex" unicode="&#x125;" horiz-adv-x="650" 
d="M537 313q0 87 -48.5 135.5t-134.5 48.5q-103 -2 -161 -66.5t-58 -177.5h-18q0 82 28 140.5t81.5 90.5t127.5 33q64 0 109.5 -24.5t69.5 -70t24 -109.5v-313h-20v313zM115 742h20v-742h-20v742zM110 959h32l98 -110h-26l-94 98h12l-94 -98h-26z" />
    <glyph glyph-name="Hbar" unicode="&#x126;" horiz-adv-x="799" 
d="M62 547h676v-20h-676v20zM128 699h20v-336h503v336h20v-699h-20v343h-503v-343h-20v699z" />
    <glyph glyph-name="hbar" unicode="&#x127;" horiz-adv-x="650" 
d="M35 639h350v-20h-350v20zM537 313q0 87 -48.5 135.5t-134.5 48.5q-69 0 -118 -29.5t-75 -84.5t-26 -130h-18q0 82 28 141t81.5 91t127.5 32q64 0 109.5 -24.5t69.5 -70t24 -109.5v-313h-20v313zM115 742h20v-742h-20v742z" />
    <glyph glyph-name="Itilde" unicode="&#x128;" horiz-adv-x="276" 
d="M128 699h20v-699h-20v699zM270 858q0 -24 -8.5 -42.5t-24.5 -28.5t-38 -10q-21 0 -36.5 10t-29 22.5t-27.5 22.5t-32 10q-24 0 -37 -16t-13 -45h-19q0 25 8.5 43t24.5 28t38 10q21 0 36.5 -10t29 -22.5t27.5 -22.5t32 -10q24 0 37 16.5t13 44.5h19z" />
    <glyph glyph-name="itilde" unicode="&#x129;" horiz-adv-x="240" 
d="M110 517h20v-517h-20v517zM227 710q0 -37 -15.5 -59t-42.5 -22q-17 0 -29.5 10t-23.5 22.5t-22 22.5t-25 10q-19 0 -29 -16t-10 -45h-18q0 37 15 59t42 22q17 0 29.5 -10t23.5 -22.5t22.5 -22.5t25.5 -10q19 0 29 16.5t10 44.5h18z" />
    <glyph glyph-name="Imacron" unicode="&#x12a;" horiz-adv-x="276" 
d="M128 699h20v-699h-20v699zM9 801h257v-20h-257v20z" />
    <glyph glyph-name="imacron" unicode="&#x12b;" horiz-adv-x="240" 
d="M110 517h20v-517h-20v517zM11 677h217v-20h-217v20z" />
    <glyph glyph-name="Ibreve" unicode="&#x12c;" horiz-adv-x="276" 
d="M128 699h20v-699h-20v699zM53 881q2 -36 26 -60.5t59 -24.5t59.5 24.5t25.5 60.5h20q-1 -45 -31.5 -75t-73.5 -30t-73 30t-32 75h20z" />
    <glyph glyph-name="ibreve" unicode="&#x12d;" horiz-adv-x="240" 
d="M110 517h20v-517h-20v517zM35 726q2 -36 26 -60.5t59 -24.5t59.5 24.5t25.5 60.5h20q-1 -45 -31.5 -75t-73.5 -30t-73 30t-32 75h20z" />
    <glyph glyph-name="Iogonek" unicode="&#x12e;" horiz-adv-x="276" 
d="M128 699h20v-699h-20v699zM139 16l9 -16q-61 -40 -91.5 -71t-30.5 -68q0 -28 15 -41t37 -13q14 0 29.5 5t29.5 15l10 -16q-17 -12 -35 -18t-35 -6q-32 0 -52 20t-20 54q0 45 34.5 80t99.5 75z" />
    <glyph glyph-name="iogonek" unicode="&#x12f;" horiz-adv-x="240" 
d="M110 517h20v-517h-20v517zM120 692q11 0 18.5 -7.5t7.5 -18.5q0 -10 -7.5 -18t-18.5 -8q-10 0 -18 8t-8 18q0 11 8 18.5t18 7.5zM121 16l9 -16q-61 -40 -91.5 -71t-30.5 -68q0 -28 15 -41t37 -13q14 0 29.5 5t29.5 15l10 -16q-17 -12 -35 -18t-35 -6q-32 0 -52 20t-20 54
q0 45 34.5 80t99.5 75z" />
    <glyph glyph-name="Idotaccent" unicode="&#x130;" horiz-adv-x="276" 
d="M128 699h20v-699h-20v699zM138 828q11 0 18.5 -7.5t7.5 -18.5q0 -10 -7.5 -18t-18.5 -8q-10 0 -18 8t-8 18q0 11 8 18.5t18 7.5z" />
    <glyph glyph-name="dotlessi" unicode="&#x131;" horiz-adv-x="240" 
d="M110 517h20v-517h-20v517z" />
    <glyph glyph-name="IJ" unicode="&#x132;" horiz-adv-x="735" 
d="M128 699h20v-699h-20v699zM625 197q0 -95 -44.5 -146t-127.5 -51q-51 0 -96 25.5t-78 72.5l14 14q31 -45 72 -68.5t88 -23.5q74 0 113 45.5t39 131.5v482h-262v20h282v-502z" />
    <glyph glyph-name="ij" unicode="&#x133;" horiz-adv-x="459" 
d="M110 517h20v-517h-20v517zM120 692q11 0 18.5 -7.5t7.5 -18.5q0 -10 -7.5 -18t-18.5 -8q-10 0 -18 8t-8 18q0 11 8 18.5t18 7.5zM194 -161q14 -5 27.5 -8t27.5 -4q96 -2 96 142v548h20v-548q0 -81 -29.5 -122t-86.5 -40q-32 1 -63 14zM355 692q11 0 18.5 -7.5t7.5 -18.5
q0 -10 -7.5 -18t-18.5 -8q-10 0 -18 8t-8 18q0 11 8 18.5t18 7.5z" />
    <glyph glyph-name="Jcircumflex" unicode="&#x134;" horiz-adv-x="459" 
d="M349 197q0 -95 -44.5 -146t-127.5 -51q-51 0 -96 25.5t-78 72.5l14 14q31 -45 72 -68.5t88 -23.5q74 0 113 45.5t39 131.5v482h-262v20h282v-502zM188 886h32l98 -110h-26l-94 98h12l-94 -98h-26z" />
    <glyph glyph-name="jcircumflex" unicode="&#x135;" horiz-adv-x="219" 
d="M-46 -161q14 -5 27.5 -8t27.5 -4q96 -2 96 142v548h20v-548q0 -81 -29.5 -122t-86.5 -40q-32 1 -63 14zM99 734h32l98 -110h-26l-94 98h12l-94 -98h-26z" />
    <glyph glyph-name="uni0136" unicode="&#x136;" horiz-adv-x="670" 
d="M128 699h20v-479l442 479h28l-470 -508v-191h-20v699zM320 394l320 -394h-27l-305 376zM325 -65h21l-43 -149h-18z" />
    <glyph glyph-name="uni0137" unicode="&#x137;" horiz-adv-x="538" 
d="M115 742h20v-742h-20v742zM464 517h28l-364 -370v31zM288 326l234 -326h-24l-226 314zM297 -65h21l-43 -149h-18z" />
    <glyph glyph-name="kgreenlandic" unicode="&#x138;" horiz-adv-x="535" 
d="M110 517h20v-517h-20v517zM461 517h28l-364 -370v31zM285 326l234 -326h-24l-226 314z" />
    <glyph glyph-name="Lacute" unicode="&#x139;" horiz-adv-x="491" 
d="M128 699h20v-679h313v-20h-333v699zM256 891l19 -10l-129 -105l-26 5z" />
    <glyph glyph-name="lacute" unicode="&#x13a;" horiz-adv-x="250" 
d="M115 742h20v-742h-20v742zM233 964l19 -10l-129 -105l-26 5z" />
    <glyph glyph-name="uni013B" unicode="&#x13b;" horiz-adv-x="491" 
d="M128 699h20v-679h313v-20h-333v699zM285 -65h21l-43 -149h-18z" />
    <glyph glyph-name="uni013C" unicode="&#x13c;" horiz-adv-x="250" 
d="M115 742h20v-742h-20v742zM115 -65h21l-43 -149h-18z" />
    <glyph glyph-name="Lcaron" unicode="&#x13d;" horiz-adv-x="491" 
d="M128 699h20v-679h313v-20h-333v699zM441 699h20l-2 -179h-18v179z" />
    <glyph glyph-name="lcaron" unicode="&#x13e;" horiz-adv-x="250" 
d="M115 742h20v-742h-20v742zM235 742h20l-2 -179h-18v179z" />
    <glyph glyph-name="Ldot" unicode="&#x13f;" horiz-adv-x="491" 
d="M128 699h20v-679h313v-20h-333v699zM381 416q11 0 18.5 -7.5t7.5 -18.5q0 -10 -7.5 -18t-18.5 -8q-10 0 -18 8t-8 18q0 11 8 18.5t18 7.5z" />
    <glyph glyph-name="ldot" unicode="&#x140;" horiz-adv-x="296" 
d="M115 742h20v-742h-20v742zM264 424q11 0 18.5 -7.5t7.5 -18.5q0 -10 -7.5 -18t-18.5 -8q-10 0 -18 8t-8 18q0 11 8 18.5t18 7.5z" />
    <glyph glyph-name="Lslash" unicode="&#x141;" horiz-adv-x="503" 
d="M30 316l260 144v-23l-260 -144v23zM140 699h20v-679h313v-20h-333v699z" />
    <glyph glyph-name="lslash" unicode="&#x142;" horiz-adv-x="334" 
d="M50 316l260 144v-23l-260 -144v23zM170 742h20v-742h-20v742z" />
    <glyph glyph-name="Nacute" unicode="&#x143;" horiz-adv-x="799" 
d="M128 699h30l498 -686l-5 -2v688h20v-699h-30l-498 686l5 2v-688h-20v699zM523 891l19 -10l-129 -105l-26 5z" />
    <glyph glyph-name="nacute" unicode="&#x144;" horiz-adv-x="644" 
d="M531 313q0 87 -48.5 135.5t-134.5 48.5q-103 -2 -161 -66.5t-58 -177.5h-18q0 82 28 140.5t81.5 90.5t127.5 33q64 0 109.5 -24.5t69.5 -70t24 -109.5v-313h-20v313zM110 517h20v-517h-20v517zM450 739l19 -10l-129 -105l-26 5z" />
    <glyph glyph-name="uni0145" unicode="&#x145;" horiz-adv-x="799" 
d="M128 699h30l498 -686l-5 -2v688h20v-699h-30l-498 686l5 2v-688h-20v699zM385 -65h21l-43 -149h-18z" />
    <glyph glyph-name="uni0146" unicode="&#x146;" horiz-adv-x="644" 
d="M531 313q0 87 -48.5 135.5t-134.5 48.5q-103 -2 -161 -66.5t-58 -177.5h-18q0 82 28 140.5t81.5 90.5t127.5 33q64 0 109.5 -24.5t69.5 -70t24 -109.5v-313h-20v313zM110 517h20v-517h-20v517zM315 -65h21l-43 -149h-18z" />
    <glyph glyph-name="Ncaron" unicode="&#x147;" horiz-adv-x="799" 
d="M128 699h30l498 -686l-5 -2v688h20v-699h-30l-498 686l5 2v-688h-20v699zM431 776h-32l-98 110h26l94 -98h-12l94 98h26z" />
    <glyph glyph-name="ncaron" unicode="&#x148;" horiz-adv-x="644" 
d="M531 313q0 87 -48.5 135.5t-134.5 48.5q-103 -2 -161 -66.5t-58 -177.5h-18q0 82 28 140.5t81.5 90.5t127.5 33q64 0 109.5 -24.5t69.5 -70t24 -109.5v-313h-20v313zM110 517h20v-517h-20v517zM358 624h-32l-98 110h26l94 -98h-12l94 98h26z" />
    <glyph glyph-name="napostrophe" unicode="&#x149;" horiz-adv-x="683" 
d="M35 699h20l-7 -259h-18zM570 313q0 87 -48.5 135.5t-134.5 48.5q-103 -2 -161 -66.5t-58 -177.5h-18q0 82 28 140.5t81.5 90.5t127.5 33q64 0 109.5 -24.5t69.5 -70t24 -109.5v-313h-20v313zM149 517h20v-517h-20v517z" />
    <glyph glyph-name="Eng" unicode="&#x14a;" horiz-adv-x="799" 
d="M671 0q0 -94 -44.5 -145t-127.5 -51q-51 0 -96 25.5t-78 72.5l14 14q31 -45 72 -68.5t88 -23.5q74 0 113 45.5t39 133.5zM128 699h30l493 -679v679h20v-699h-30l-493 679v-679h-20v699z" />
    <glyph glyph-name="eng" unicode="&#x14b;" horiz-adv-x="644" 
d="M531 313q0 87 -48.5 135.5t-134.5 48.5q-103 -2 -161 -66.5t-58 -177.5h-18q0 82 28 140.5t81.5 90.5t127.5 33q64 0 109.5 -24.5t69.5 -70t24 -109.5v-345q0 -54 -13 -90t-39 -53.5t-64 -17.5q-56 2 -102 37l12 16q39 -31 90 -33q47 -1 71.5 35t24.5 106v345zM110 517
h20v-517h-20v517z" />
    <glyph glyph-name="Omacron" unicode="&#x14c;" horiz-adv-x="818" 
d="M409 703q74 0 139 -27.5t114.5 -76t77.5 -112.5t28 -136q0 -73 -28 -137t-77.5 -113t-114.5 -76.5t-139 -27.5t-139 27.5t-114.5 76.5t-77.5 113t-28 137q0 72 28 136t77.5 112.5t114.5 76t139 27.5zM409 683q-70 0 -131 -26t-108 -72t-73.5 -106t-26.5 -128
q0 -69 26.5 -129.5t73.5 -106.5t108 -72t131 -26t131.5 26t108 72t73 106.5t26.5 129.5q0 68 -26.5 128t-73 106t-108 72t-131.5 26zM250 801h317v-20h-317v20z" />
    <glyph glyph-name="omacron" unicode="&#x14d;" horiz-adv-x="606" 
d="M303 517q72 0 129 -33t89.5 -91.5t32.5 -133.5t-32.5 -133.5t-89.5 -92t-129 -33.5t-128.5 33.5t-89.5 92t-33 133.5t33 133.5t89.5 91.5t128.5 33zM303 497q-67 0 -119 -30.5t-82 -84t-30 -123.5t30 -124t82 -84.5t119 -30.5t119 30.5t82 84.5t30 124t-30 123.5t-82 84
t-119 30.5zM174 677h257v-20h-257v20z" />
    <glyph glyph-name="Obreve" unicode="&#x14e;" horiz-adv-x="818" 
d="M409 703q74 0 139 -27.5t114.5 -76t77.5 -112.5t28 -136q0 -73 -28 -137t-77.5 -113t-114.5 -76.5t-139 -27.5t-139 27.5t-114.5 76.5t-77.5 113t-28 137q0 72 28 136t77.5 112.5t114.5 76t139 27.5zM409 683q-70 0 -131 -26t-108 -72t-73.5 -106t-26.5 -128
q0 -69 26.5 -129.5t73.5 -106.5t108 -72t131 -26t131.5 26t108 72t73 106.5t26.5 129.5q0 68 -26.5 128t-73 106t-108 72t-131.5 26zM324 881q2 -36 26 -60.5t59 -24.5t59.5 24.5t25.5 60.5h20q-1 -45 -31.5 -75t-73.5 -30t-73 30t-32 75h20z" />
    <glyph glyph-name="obreve" unicode="&#x14f;" horiz-adv-x="606" 
d="M303 517q72 0 129 -33t89.5 -91.5t32.5 -133.5t-32.5 -133.5t-89.5 -92t-129 -33.5t-128.5 33.5t-89.5 92t-33 133.5t33 133.5t89.5 91.5t128.5 33zM303 497q-67 0 -119 -30.5t-82 -84t-30 -123.5t30 -124t82 -84.5t119 -30.5t119 30.5t82 84.5t30 124t-30 123.5t-82 84
t-119 30.5zM218 726q2 -36 26 -60.5t59 -24.5t59.5 24.5t25.5 60.5h20q-1 -45 -31.5 -75t-73.5 -30t-73 30t-32 75h20z" />
    <glyph glyph-name="Ohungarumlaut" unicode="&#x150;" horiz-adv-x="818" 
d="M409 703q74 0 139 -27.5t114.5 -76t77.5 -112.5t28 -136q0 -73 -28 -137t-77.5 -113t-114.5 -76.5t-139 -27.5t-139 27.5t-114.5 76.5t-77.5 113t-28 137q0 72 28 136t77.5 112.5t114.5 76t139 27.5zM409 683q-70 0 -131 -26t-108 -72t-73.5 -106t-26.5 -128
q0 -69 26.5 -129.5t73.5 -106.5t108 -72t131 -26t131.5 26t108 72t73 106.5t26.5 129.5q0 68 -26.5 128t-73 106t-108 72t-131.5 26zM424 891l17 -11l-94 -104l-22 5zM543 891l17 -11l-94 -104l-22 5z" />
    <glyph glyph-name="ohungarumlaut" unicode="&#x151;" horiz-adv-x="606" 
d="M303 517q72 0 129 -33t89.5 -91.5t32.5 -133.5t-32.5 -133.5t-89.5 -92t-129 -33.5t-128.5 33.5t-89.5 92t-33 133.5t33 133.5t89.5 91.5t128.5 33zM303 497q-67 0 -119 -30.5t-82 -84t-30 -123.5t30 -124t82 -84.5t119 -30.5t119 30.5t82 84.5t30 124t-30 123.5t-82 84
t-119 30.5zM318 739l17 -11l-94 -104l-22 5zM437 739l17 -11l-94 -104l-22 5z" />
    <glyph glyph-name="OE" unicode="&#x152;" horiz-adv-x="1089" 
d="M409 680q-70 0 -131.5 -25.5t-108.5 -71t-73.5 -105.5t-26.5 -128t26.5 -128t73.5 -105.5t108.5 -71.5t131.5 -26l169 -2l1 -17h-170q-74 0 -139 27.5t-114.5 75.5t-77.5 111.5t-28 135.5t28 135t77.5 111.5t114.5 75.5t139 27h172l-2 -19h-170zM573 699h437v-20h-417
v-309h371v-20h-371v-330h431v-20h-451v699z" />
    <glyph glyph-name="oe" unicode="&#x153;" horiz-adv-x="1075" 
d="M1007 279q-4 65 -32.5 114t-76.5 76.5t-112 27.5q-67 0 -119 -30.5t-82 -84t-30 -123.5t30 -124t82 -84.5t119 -30.5q115 0 184 75l14 -14q-36 -38 -87 -59.5t-111 -21.5q-72 0 -128.5 33.5t-89.5 92t-33 133.5t33 133.5t89.5 91.5t128.5 33t126.5 -33t84.5 -91.5
t30 -133.5h-480v20h460zM303 517q72 0 129 -33t89.5 -91.5t32.5 -133.5t-32.5 -133.5t-89.5 -92t-129 -33.5t-128.5 33.5t-89.5 92t-33 133.5t33 133.5t89.5 91.5t128.5 33zM303 497q-67 0 -119 -30.5t-82 -84t-30 -123.5t30 -124t82 -84.5t119 -30.5t119 30.5t82 84.5
t30 124t-30 123.5t-82 84t-119 30.5z" />
    <glyph glyph-name="Racute" unicode="&#x154;" horiz-adv-x="722" 
d="M365 699q128 0 197.5 -59.5t69.5 -167.5q0 -110 -69.5 -171t-197.5 -61h-217v-240h-20v699h237zM365 260q118 0 182.5 55.5t64.5 156.5q0 99 -64.5 153t-182.5 54h-217v-419h217zM422 254h25l185 -254h-25zM449 891l19 -10l-129 -105l-26 5z" />
    <glyph glyph-name="racute" unicode="&#x155;" horiz-adv-x="338" 
d="M328 497q-63 -1 -107.5 -31t-68 -84t-23.5 -129h-18q0 82 25.5 140.5t74.5 90.5t117 33v-20zM110 517h20v-517h-20v517zM324 739l19 -10l-129 -105l-26 5z" />
    <glyph glyph-name="uni0156" unicode="&#x156;" horiz-adv-x="722" 
d="M365 699q128 0 197.5 -59.5t69.5 -167.5q0 -110 -69.5 -171t-197.5 -61h-217v-240h-20v699h237zM365 260q118 0 182.5 55.5t64.5 156.5q0 99 -64.5 153t-182.5 54h-217v-419h217zM422 254h25l185 -254h-25zM351 -65h21l-43 -149h-18z" />
    <glyph glyph-name="uni0157" unicode="&#x157;" horiz-adv-x="338" 
d="M328 497q-63 -1 -107.5 -31t-68 -84t-23.5 -129h-18q0 82 25.5 140.5t74.5 90.5t117 33v-20zM110 517h20v-517h-20v517zM110 -65h21l-43 -149h-18z" />
    <glyph glyph-name="Rcaron" unicode="&#x158;" horiz-adv-x="722" 
d="M365 699q128 0 197.5 -59.5t69.5 -167.5q0 -110 -69.5 -171t-197.5 -61h-217v-240h-20v699h237zM365 260q118 0 182.5 55.5t64.5 156.5q0 99 -64.5 153t-182.5 54h-217v-419h217zM422 254h25l185 -254h-25zM357 776h-32l-98 110h26l94 -98h-12l94 98h26z" />
    <glyph glyph-name="rcaron" unicode="&#x159;" horiz-adv-x="338" 
d="M328 497q-63 -1 -107.5 -31t-68 -84t-23.5 -129h-18q0 82 25.5 140.5t74.5 90.5t117 33v-20zM110 517h20v-517h-20v517zM232 624h-32l-98 110h26l94 -98h-12l94 98h26z" />
    <glyph glyph-name="Sacute" unicode="&#x15a;" horiz-adv-x="593" 
d="M478 636q-22 15 -51.5 25.5t-61.5 16t-63 5.5q-92 0 -147.5 -37.5t-55.5 -99.5q0 -51 22.5 -82t60 -50.5t82.5 -33t89.5 -27.5t82 -35.5t59.5 -57t22 -91.5q0 -52 -29 -90.5t-82.5 -60t-125.5 -21.5q-44 0 -88 12.5t-83 34.5t-68 52l14 14q27 -28 63.5 -49t78 -32.5
t83.5 -11.5q99 0 158 41.5t59 110.5q0 52 -22 84t-59.5 52t-82 33.5t-89.5 28t-82.5 35.5t-60 55.5t-22.5 89.5q0 47 27.5 82t78 54.5t117.5 19.5q49 0 99.5 -14t86.5 -37zM395 891l19 -10l-129 -105l-26 5z" />
    <glyph glyph-name="sacute" unicode="&#x15b;" horiz-adv-x="427" 
d="M350 463q-25 16 -57 25t-70 9q-61 0 -103 -24.5t-42 -77.5q0 -39 22.5 -61t58 -35.5t75 -24.5t75 -26.5t58 -42t22.5 -71.5q0 -46 -25 -76t-64.5 -44t-84.5 -14q-54 0 -102 19t-83 53l13 15q33 -32 77 -49.5t95 -17.5q41 0 75 11.5t56 36t23 61.5q2 40 -20 63t-57.5 37.5
t-75.5 26t-76 27t-59 41.5t-23 69t22.5 70t60 40.5t81.5 13.5q41 0 75.5 -10t62.5 -27zM321 739l19 -10l-129 -105l-26 5z" />
    <glyph glyph-name="Scircumflex" unicode="&#x15c;" horiz-adv-x="593" 
d="M478 636q-22 15 -51.5 25.5t-61.5 16t-63 5.5q-92 0 -147.5 -37.5t-55.5 -99.5q0 -51 22.5 -82t60 -50.5t82.5 -33t89.5 -27.5t82 -35.5t59.5 -57t22 -91.5q0 -52 -29 -90.5t-82.5 -60t-125.5 -21.5q-44 0 -88 12.5t-83 34.5t-68 52l14 14q27 -28 63.5 -49t78 -32.5
t83.5 -11.5q99 0 158 41.5t59 110.5q0 52 -22 84t-59.5 52t-82 33.5t-89.5 28t-82.5 35.5t-60 55.5t-22.5 89.5q0 47 27.5 82t78 54.5t117.5 19.5q49 0 99.5 -14t86.5 -37zM271 886h32l98 -110h-26l-94 98h12l-94 -98h-26z" />
    <glyph glyph-name="scircumflex" unicode="&#x15d;" horiz-adv-x="427" 
d="M350 463q-25 16 -57 25t-70 9q-61 0 -103 -24.5t-42 -77.5q0 -39 22.5 -61t58 -35.5t75 -24.5t75 -26.5t58 -42t22.5 -71.5q0 -46 -25 -76t-64.5 -44t-84.5 -14q-54 0 -102 19t-83 53l13 15q33 -32 77 -49.5t95 -17.5q41 0 75 11.5t56 36t23 61.5q2 40 -20 63t-57.5 37.5
t-75.5 26t-76 27t-59 41.5t-23 69t22.5 70t60 40.5t81.5 13.5q41 0 75.5 -10t62.5 -27zM197 734h32l98 -110h-26l-94 98h12l-94 -98h-26z" />
    <glyph glyph-name="Scedilla" unicode="&#x15e;" horiz-adv-x="593" 
d="M478 636q-22 15 -51.5 25.5t-61.5 16t-63 5.5q-92 0 -147.5 -37.5t-55.5 -99.5q0 -51 22.5 -82t60 -50.5t82.5 -33t89.5 -27.5t82 -35.5t59.5 -57t22 -91.5q0 -52 -29 -90.5t-82.5 -60t-125.5 -21.5q-44 0 -88 12.5t-83 34.5t-68 52l14 14q27 -28 63.5 -49t78 -32.5
t83.5 -11.5q99 0 158 41.5t59 110.5q0 52 -22 84t-59.5 52t-82 33.5t-89.5 28t-82.5 35.5t-60 55.5t-22.5 89.5q0 47 27.5 82t78 54.5t117.5 19.5q49 0 99.5 -14t86.5 -37zM294 5l20 -5l-16 -56q41 -1 61 -23.5t20 -50.5q0 -20 -10 -39.5t-29.5 -31.5t-49.5 -12
q-19 0 -39.5 6t-33.5 16l8 20q12 -9 30.5 -15t34.5 -6q35 0 51.5 19.5t16.5 42.5q0 21 -15 38t-43 17h-16h-13z" />
    <glyph glyph-name="scedilla" unicode="&#x15f;" horiz-adv-x="427" 
d="M350 463q-25 16 -57 25t-70 9q-61 0 -103 -24.5t-42 -77.5q0 -39 22.5 -61t58 -35.5t75 -24.5t75 -26.5t58 -42t22.5 -71.5q0 -46 -25 -76t-64.5 -44t-84.5 -14q-54 0 -102 19t-83 53l13 15q33 -32 77 -49.5t95 -17.5q41 0 75 11.5t56 36t23 61.5q2 40 -20 63t-57.5 37.5
t-75.5 26t-76 27t-59 41.5t-23 69t22.5 70t60 40.5t81.5 13.5q41 0 75.5 -10t62.5 -27zM200 5l20 -5l-16 -56q41 -1 61 -23.5t20 -50.5q0 -20 -10 -39.5t-29.5 -31.5t-49.5 -12q-19 0 -39.5 6t-33.5 16l8 20q12 -9 30.5 -15t34.5 -6q35 0 51.5 19.5t16.5 42.5q0 21 -15 38
t-43 17h-16h-13z" />
    <glyph glyph-name="Scaron" unicode="&#x160;" horiz-adv-x="593" 
d="M478 636q-22 15 -51.5 25.5t-61.5 16t-63 5.5q-92 0 -147.5 -37.5t-55.5 -99.5q0 -51 22.5 -82t60 -50.5t82.5 -33t89.5 -27.5t82 -35.5t59.5 -57t22 -91.5q0 -52 -29 -90.5t-82.5 -60t-125.5 -21.5q-44 0 -88 12.5t-83 34.5t-68 52l14 14q27 -28 63.5 -49t78 -32.5
t83.5 -11.5q99 0 158 41.5t59 110.5q0 52 -22 84t-59.5 52t-82 33.5t-89.5 28t-82.5 35.5t-60 55.5t-22.5 89.5q0 47 27.5 82t78 54.5t117.5 19.5q49 0 99.5 -14t86.5 -37zM303 776h-32l-98 110h26l94 -98h-12l94 98h26z" />
    <glyph glyph-name="scaron" unicode="&#x161;" horiz-adv-x="427" 
d="M350 463q-25 16 -57 25t-70 9q-61 0 -103 -24.5t-42 -77.5q0 -39 22.5 -61t58 -35.5t75 -24.5t75 -26.5t58 -42t22.5 -71.5q0 -46 -25 -76t-64.5 -44t-84.5 -14q-54 0 -102 19t-83 53l13 15q33 -32 77 -49.5t95 -17.5q41 0 75 11.5t56 36t23 61.5q2 40 -20 63t-57.5 37.5
t-75.5 26t-76 27t-59 41.5t-23 69t22.5 70t60 40.5t81.5 13.5q41 0 75.5 -10t62.5 -27zM229 624h-32l-98 110h26l94 -98h-12l94 98h26z" />
    <glyph glyph-name="uni0162" unicode="&#x162;" horiz-adv-x="526" 
d="M13 699h500v-20h-240v-679h-20v679h-240v20zM260 5l20 -5l-16 -56q41 -1 61 -23.5t20 -50.5q0 -20 -10 -39.5t-29.5 -31.5t-49.5 -12q-19 0 -39.5 6t-33.5 16l8 20q12 -9 30.5 -15t34.5 -6q35 0 51.5 19.5t16.5 42.5q0 21 -15 38t-43 17h-16h-13z" />
    <glyph glyph-name="uni0163" unicode="&#x163;" horiz-adv-x="362" 
d="M146 142q0 -60 23 -91.5t67 -30.5q24 1 47.5 9t42.5 24l12 -16q-22 -17 -48 -26.5t-54 -10.5q-36 0 -60.5 15.5t-37 47.5t-12.5 79v488h20v-488zM50 507h278v-20h-278v20zM225 5l20 -5l-16 -56q41 -1 61 -23.5t20 -50.5q0 -20 -10 -39.5t-29.5 -31.5t-49.5 -12
q-19 0 -39.5 6t-33.5 16l8 20q12 -9 30.5 -15t34.5 -6q35 0 51.5 19.5t16.5 42.5q0 21 -15 38t-43 17h-16h-13z" />
    <glyph glyph-name="Tcaron" unicode="&#x164;" horiz-adv-x="526" 
d="M13 699h500v-20h-240v-679h-20v679h-240v20zM279 776h-32l-98 110h26l94 -98h-12l94 98h26z" />
    <glyph glyph-name="tcaron" unicode="&#x165;" horiz-adv-x="362" 
d="M146 142q0 -60 23 -91.5t67 -30.5q24 1 47.5 9t42.5 24l12 -16q-22 -17 -48 -26.5t-54 -10.5q-36 0 -60.5 15.5t-37 47.5t-12.5 79v488h20v-488zM50 507h278v-20h-278v20zM242 742h20l-5 -156h-15v156z" />
    <glyph glyph-name="Tbar" unicode="&#x166;" horiz-adv-x="526" 
d="M13 699h500v-20h-240v-679h-20v679h-240v20zM85 360h356v-20h-356v20z" />
    <glyph glyph-name="tbar" unicode="&#x167;" horiz-adv-x="362" 
d="M126 630h20v-488q0 -60 23 -91.5t67 -30.5q24 1 47.5 9t42.5 24l12 -16q-22 -17 -48 -26.5t-54 -10.5q-36 0 -60.5 15.5t-37 47.5t-12.5 79v488zM50 507h278v-20h-278v20zM49 317h278v-20h-278v20z" />
    <glyph glyph-name="Utilde" unicode="&#x168;" horiz-adv-x="774" 
d="M130 281q0 -126 67.5 -195t189.5 -69t189.5 69t67.5 195v418h20v-418q0 -90 -32.5 -153.5t-94.5 -97t-150 -33.5t-150 33.5t-94.5 97t-32.5 153.5v418h20v-418zM519 858q0 -24 -8.5 -42.5t-24.5 -28.5t-38 -10q-21 0 -36.5 10t-29 22.5t-27.5 22.5t-32 10q-24 0 -37 -16
t-13 -45h-19q0 25 8.5 43t24.5 28t38 10q21 0 36.5 -10t29 -22.5t27.5 -22.5t32 -10q24 0 37 16.5t13 44.5h19z" />
    <glyph glyph-name="utilde" unicode="&#x169;" horiz-adv-x="637" 
d="M112 204q0 -87 47.5 -135.5t132.5 -48.5q101 2 158 67t57 177h17q0 -81 -27.5 -140t-79.5 -90.5t-125 -33.5q-63 0 -107.5 24.5t-68.5 70t-24 109.5v313h20v-313zM507 517h20v-517h-20v517zM451 710q0 -24 -8.5 -42.5t-24.5 -28.5t-38 -10q-21 0 -36.5 10t-29 22.5
t-27.5 22.5t-32 10q-24 0 -37 -16t-13 -45h-19q0 25 8.5 43t24.5 28t38 10q21 0 36.5 -10t29 -22.5t27.5 -22.5t32 -10q24 0 37 16.5t13 44.5h19z" />
    <glyph glyph-name="Umacron" unicode="&#x16a;" horiz-adv-x="774" 
d="M130 281q0 -126 67.5 -195t189.5 -69t189.5 69t67.5 195v418h20v-418q0 -90 -32.5 -153.5t-94.5 -97t-150 -33.5t-150 33.5t-94.5 97t-32.5 153.5v418h20v-418zM228 801h317v-20h-317v20z" />
    <glyph glyph-name="umacron" unicode="&#x16b;" horiz-adv-x="637" 
d="M112 204q0 -87 47.5 -135.5t132.5 -48.5q101 2 158 67t57 177h17q0 -81 -27.5 -140t-79.5 -90.5t-125 -33.5q-63 0 -107.5 24.5t-68.5 70t-24 109.5v313h20v-313zM507 517h20v-517h-20v517zM190 677h257v-20h-257v20z" />
    <glyph glyph-name="Ubreve" unicode="&#x16c;" horiz-adv-x="774" 
d="M130 281q0 -126 67.5 -195t189.5 -69t189.5 69t67.5 195v418h20v-418q0 -90 -32.5 -153.5t-94.5 -97t-150 -33.5t-150 33.5t-94.5 97t-32.5 153.5v418h20v-418zM302 881q2 -36 26 -60.5t59 -24.5t59.5 24.5t25.5 60.5h20q-1 -45 -31.5 -75t-73.5 -30t-73 30t-32 75h20z
" />
    <glyph glyph-name="ubreve" unicode="&#x16d;" horiz-adv-x="637" 
d="M112 204q0 -87 47.5 -135.5t132.5 -48.5q101 2 158 67t57 177h17q0 -81 -27.5 -140t-79.5 -90.5t-125 -33.5q-63 0 -107.5 24.5t-68.5 70t-24 109.5v313h20v-313zM507 517h20v-517h-20v517zM234 726q2 -36 26 -60.5t59 -24.5t59.5 24.5t25.5 60.5h20q-1 -45 -31.5 -75
t-73.5 -30t-73 30t-32 75h20z" />
    <glyph glyph-name="Uring" unicode="&#x16e;" horiz-adv-x="774" 
d="M130 281q0 -126 67.5 -195t189.5 -69t189.5 69t67.5 195v418h20v-418q0 -90 -32.5 -153.5t-94.5 -97t-150 -33.5t-150 33.5t-94.5 97t-32.5 153.5v418h20v-418zM386 936q25 0 45 -12t32.5 -32t12.5 -43t-12.5 -42.5t-32.5 -31.5t-45 -12q-24 0 -44.5 12t-32.5 31.5
t-12 42.5t12 43t32.5 32t44.5 12zM386 918q-29 0 -50.5 -20t-21.5 -49q0 -28 21.5 -48t50.5 -20t51 20t22 48q0 29 -22 49t-51 20z" />
    <glyph glyph-name="uring" unicode="&#x16f;" horiz-adv-x="637" 
d="M112 204q0 -87 47.5 -135.5t132.5 -48.5q101 2 158 67t57 177h17q0 -81 -27.5 -140t-79.5 -90.5t-125 -33.5q-63 0 -107.5 24.5t-68.5 70t-24 109.5v313h20v-313zM507 517h20v-517h-20v517zM318 754q25 0 45 -12t32.5 -32t12.5 -43t-12.5 -42.5t-32.5 -31.5t-45 -12
q-24 0 -44.5 12t-32.5 31.5t-12 42.5t12 43t32.5 32t44.5 12zM318 736q-29 0 -50.5 -20t-21.5 -49q0 -28 21.5 -48t50.5 -20t51 20t22 48q0 29 -22 49t-51 20z" />
    <glyph glyph-name="Uhungarumlaut" unicode="&#x170;" horiz-adv-x="774" 
d="M130 281q0 -126 67.5 -195t189.5 -69t189.5 69t67.5 195v418h20v-418q0 -90 -32.5 -153.5t-94.5 -97t-150 -33.5t-150 33.5t-94.5 97t-32.5 153.5v418h20v-418zM402 891l17 -11l-94 -104l-22 5zM521 891l17 -11l-94 -104l-22 5z" />
    <glyph glyph-name="uhungarumlaut" unicode="&#x171;" horiz-adv-x="637" 
d="M112 204q0 -87 47.5 -135.5t132.5 -48.5q101 2 158 67t57 177h17q0 -81 -27.5 -140t-79.5 -90.5t-125 -33.5q-63 0 -107.5 24.5t-68.5 70t-24 109.5v313h20v-313zM507 517h20v-517h-20v517zM334 739l17 -11l-94 -104l-22 5zM453 739l17 -11l-94 -104l-22 5z" />
    <glyph glyph-name="Uogonek" unicode="&#x172;" horiz-adv-x="774" 
d="M130 281q0 -126 67.5 -195t189.5 -69t189.5 69t67.5 195v418h20v-418q0 -90 -32.5 -153.5t-94.5 -97t-150 -33.5t-150 33.5t-94.5 97t-32.5 153.5v418h20v-418zM556 65l10 -16q-44 -35 -75.5 -68.5t-48.5 -64t-17 -56.5q0 -27 15 -40t37 -13q30 0 59 20l10 -16
q-17 -12 -35 -18t-35 -6q-32 0 -52 20t-20 54q0 46 41 96.5t111 107.5z" />
    <glyph glyph-name="uogonek" unicode="&#x173;" horiz-adv-x="637" 
d="M112 204q0 -87 47.5 -135.5t132.5 -48.5q101 2 158 67t57 177h17q0 -81 -27.5 -140t-79.5 -90.5t-125 -33.5q-63 0 -107.5 24.5t-68.5 70t-24 109.5v313h20v-313zM507 517h20v-517h-20v517zM518 16l9 -16q-61 -40 -91.5 -71t-30.5 -68q0 -28 15 -41t37 -13q14 0 29.5 5
t29.5 15l10 -16q-17 -12 -35 -18t-35 -6q-32 0 -52 20t-20 54q0 45 34.5 80t99.5 75z" />
    <glyph glyph-name="Wcircumflex" unicode="&#x174;" horiz-adv-x="987" 
d="M10 699h23l228 -685h-6l227 685h23l228 -685h-6l227 685h23l-237 -699h-21l-228 680h6l-229 -680h-21zM478 886h32l98 -110h-26l-94 98h12l-94 -98h-26z" />
    <glyph glyph-name="wcircumflex" unicode="&#x175;" horiz-adv-x="818" 
d="M10 517h24l185 -494l183 494h24l185 -494l184 494h23l-197 -517h-22l-184 489l-186 -489h-22zM393 734h32l98 -110h-26l-94 98h12l-94 -98h-26z" />
    </font>
</defs>
</svg>
