<?xml version="1.0" standalone="no"?>
<!DOCTYPE svg PUBLIC "-//W3C//DTD SVG 1.1//EN" "http://www.w3.org/Graphics/SVG/1.1/DTD/svg11.dtd" >
<svg xmlns="http://www.w3.org/2000/svg" xmlns:xlink="http://www.w3.org/1999/xlink" version="1.1">
<metadata>
Created by FontForge 20201107 at Thu Nov  3 19:09:09 2022
 By 
Copyright 2022 The Alexandria Project Authors (https://github.com/Gue3bara/Alexandria)
</metadata>
<defs>
<font id="Alexandria-Regular" horiz-adv-x="0" >
  <font-face 
    font-family="Alexandria"
    font-weight="400"
    font-stretch="normal"
    units-per-em="1000"
    panose-1="0 0 0 0 0 0 0 0 0 0"
    ascent="800"
    descent="-200"
    x-height="531"
    cap-height="700"
    bbox="-267 -566 1489 1146"
    underline-thickness="50"
    underline-position="-125"
    unicode-range="U+000D-FEFC"
  />
<missing-glyph horiz-adv-x="587" 
d="M40 0v700h507v-700h-507zM120 70h347v560h-347v-560z" />
    <glyph glyph-name="fi" unicode="fi" horiz-adv-x="639" 
d="M107 564q0 63 26.5 103.5t68.5 60t88 19.5q24 0 48.5 -6.5t45.5 -17.5l-24 -88q-14 6 -31.5 11.5t-35.5 5.5q-19 0 -35.5 -7.5t-26.5 -24t-10 -42.5v-578h-114v564zM37 512h323v-82h-323v82zM440 531h114v-531h-114v531zM497 750q29 0 48 -19t19 -48q0 -28 -19 -47.5
t-48 -19.5q-28 0 -47.5 19.5t-19.5 47.5q0 29 19.5 48t47.5 19z" />
    <glyph glyph-name="fl" unicode="fl" horiz-adv-x="664" 
d="M107 564q0 63 26.5 103.5t68.5 60t88 19.5q24 0 48.5 -6.5t45.5 -17.5l-24 -88q-14 6 -31.5 11.5t-35.5 5.5q-19 0 -35.5 -7.5t-26.5 -24t-10 -42.5v-578h-114v564zM37 512h323v-82h-323v82zM459 742h115v-742h-115v742z" />
    <glyph glyph-name="uniFC64" unicode="&#xfe8c;&#xfeae;" horiz-adv-x="690" arabic-form="final" 
d="M690 0v115q11 0 15.5 -15.5t4.5 -41.5t-4.5 -42t-15.5 -16zM649 0q-70 0 -114 21.5t-65 65.5t-21 111v284h101v-284q0 -34 7 -52t28.5 -24.5t63.5 -6.5h41v-115h-41zM331 273q-52 0 -102 7.5t-97 21.5v120q43 -16 92.5 -25t106.5 -9t106.5 9t92.5 25v-120
q-46 -14 -96 -21.5t-103 -7.5zM0 -155q48 -1 77 9.5t42 35.5t13 64v528h101v-528q0 -69 -26 -118t-73.5 -75t-114.5 -27zM532 586q-53 0 -86.5 20.5t-33.5 60.5q0 28 16 48t42 31t56 11q18 0 35.5 -4t33.5 -12l-26 -57q-8 2 -18.5 3t-18.5 1q-28 0 -44 -8t-16 -18t16 -18
t44 -8v-50zM394 566v70h212v-70h-212z" />
    <glyph glyph-name="uniFC65" unicode="&#xfe8c;&#xfeb0;" horiz-adv-x="690" arabic-form="final" 
d="M690 0v115q11 0 15.5 -15.5t4.5 -41.5t-4.5 -42t-15.5 -16zM649 0q-70 0 -114 21.5t-65 65.5t-21 111v284h101v-284q0 -34 7 -52t28.5 -24.5t63.5 -6.5h41v-115h-41zM331 273q-52 0 -102 7.5t-97 21.5v120q43 -16 92.5 -25t106.5 -9t106.5 9t92.5 25v-120
q-46 -14 -96 -21.5t-103 -7.5zM0 -155q48 -1 77 9.5t42 35.5t13 64v528h101v-528q0 -69 -26 -118t-73.5 -75t-114.5 -27zM532 586q-53 0 -86.5 20.5t-33.5 60.5q0 28 16 48t42 31t56 11q18 0 35.5 -4t33.5 -12l-26 -57q-8 2 -18.5 3t-18.5 1q-28 0 -44 -8t-16 -18t16 -18
t44 -8v-50zM394 566v70h212v-70h-212zM183 616q-28 0 -47.5 19.5t-19.5 47.5q0 29 19.5 48t47.5 19q29 0 48 -19t19 -48q0 -28 -19 -47.5t-48 -19.5z" />
    <glyph glyph-name="uniFC67" unicode="&#xfe8c;&#xfee6;" horiz-adv-x="1139" arabic-form="final" 
d="M1139 0v115q11 0 15.5 -15.5t4.5 -41.5t-4.5 -42t-15.5 -16zM1098 0q-70 0 -114 21.5t-65 65.5t-21 111v284h101v-284q0 -34 7 -52t28.5 -24.5t63.5 -6.5h41v-115h-41zM780 273q-52 0 -102 7.5t-97 21.5v120q43 -16 92.5 -25t106.5 -9t106.5 9t92.5 25v-120
q-46 -14 -96 -21.5t-103 -7.5zM361 -266q-78 0 -137.5 27t-100.5 75t-62 111.5t-21 137.5q0 44 7 89t19 86l96 -18q-10 -42 -15.5 -80.5t-5.5 -76.5q0 -74 26 -127t75.5 -81t118.5 -28q70 0 119 28t75 81t26 127v397h101v-397q0 -74 -21 -137.5t-62 -111.5t-100.5 -75
t-137.5 -27zM361 469q-28 0 -47.5 19.5t-19.5 47.5q0 29 19.5 48t47.5 19q29 0 48 -19t19 -48q0 -28 -19 -47.5t-48 -19.5zM981 586q-53 0 -86.5 20.5t-33.5 60.5q0 28 16 48t42 31t56 11q18 0 35.5 -4t33.5 -12l-26 -57q-8 2 -18.5 3t-18.5 1q-28 0 -44 -8t-16 -18t16 -18
t44 -8v-50zM843 566v70h212v-70h-212z" />
    <glyph glyph-name="uniFC6A" unicode="&#xfe92;&#xfeae;" horiz-adv-x="690" arabic-form="final" 
d="M690 0v115q11 0 15.5 -15.5t4.5 -41.5t-4.5 -42t-15.5 -16zM649 0q-70 0 -114 21.5t-65 65.5t-21 111v284h101v-284q0 -34 7 -52t28.5 -24.5t63.5 -6.5h41v-115h-41zM331 273q-52 0 -102 7.5t-97 21.5v120q43 -16 92.5 -25t106.5 -9t106.5 9t92.5 25v-120
q-46 -14 -96 -21.5t-103 -7.5zM0 -155q48 -1 77 9.5t42 35.5t13 64v528h101v-528q0 -69 -26 -118t-73.5 -75t-114.5 -27zM500 -268q-28 0 -47.5 19.5t-19.5 47.5q0 29 19.5 48t47.5 19q29 0 48 -19t19 -48q0 -28 -19 -47.5t-48 -19.5z" />
    <glyph glyph-name="uniFC6B" unicode="&#xfe92;&#xfeb0;" horiz-adv-x="690" arabic-form="final" 
d="M690 0v115q11 0 15.5 -15.5t4.5 -41.5t-4.5 -42t-15.5 -16zM649 0q-70 0 -114 21.5t-65 65.5t-21 111v284h101v-284q0 -34 7 -52t28.5 -24.5t63.5 -6.5h41v-115h-41zM331 273q-52 0 -102 7.5t-97 21.5v120q43 -16 92.5 -25t106.5 -9t106.5 9t92.5 25v-120
q-46 -14 -96 -21.5t-103 -7.5zM0 -155q48 -1 77 9.5t42 35.5t13 64v528h101v-528q0 -69 -26 -118t-73.5 -75t-114.5 -27zM500 -268q-28 0 -47.5 19.5t-19.5 47.5q0 29 19.5 48t47.5 19q29 0 48 -19t19 -48q0 -28 -19 -47.5t-48 -19.5zM183 616q-28 0 -47.5 19.5t-19.5 47.5
q0 29 19.5 48t47.5 19q29 0 48 -19t19 -48q0 -28 -19 -47.5t-48 -19.5z" />
    <glyph glyph-name="uniFC6D" unicode="&#xfe92;&#xfee6;" horiz-adv-x="1139" arabic-form="final" 
d="M1139 0v115q11 0 15.5 -15.5t4.5 -41.5t-4.5 -42t-15.5 -16zM1098 0q-70 0 -114 21.5t-65 65.5t-21 111v284h101v-284q0 -34 7 -52t28.5 -24.5t63.5 -6.5h41v-115h-41zM780 273q-52 0 -102 7.5t-97 21.5v120q43 -16 92.5 -25t106.5 -9t106.5 9t92.5 25v-120
q-46 -14 -96 -21.5t-103 -7.5zM361 -266q-78 0 -137.5 27t-100.5 75t-62 111.5t-21 137.5q0 44 7 89t19 86l96 -18q-10 -42 -15.5 -80.5t-5.5 -76.5q0 -74 26 -127t75.5 -81t118.5 -28q70 0 119 28t75 81t26 127v397h101v-397q0 -74 -21 -137.5t-62 -111.5t-100.5 -75
t-137.5 -27zM361 469q-28 0 -47.5 19.5t-19.5 47.5q0 29 19.5 48t47.5 19q29 0 48 -19t19 -48q0 -28 -19 -47.5t-48 -19.5zM949 -268q-28 0 -47.5 19.5t-19.5 47.5q0 29 19.5 48t47.5 19q29 0 48 -19t19 -48q0 -28 -19 -47.5t-48 -19.5z" />
    <glyph glyph-name="uniFC70" unicode="&#xfe98;&#xfeae;" horiz-adv-x="690" arabic-form="final" 
d="M690 0v115q11 0 15.5 -15.5t4.5 -41.5t-4.5 -42t-15.5 -16zM649 0q-70 0 -114 21.5t-65 65.5t-21 111v284h101v-284q0 -34 7 -52t28.5 -24.5t63.5 -6.5h41v-115h-41zM331 273q-52 0 -102 7.5t-97 21.5v120q43 -16 92.5 -25t106.5 -9t106.5 9t92.5 25v-120
q-46 -14 -96 -21.5t-103 -7.5zM0 -155q48 -1 77 9.5t42 35.5t13 64v528h101v-528q0 -69 -26 -118t-73.5 -75t-114.5 -27zM571 604q-26 0 -43.5 17.5t-17.5 43.5q0 27 17.5 44t43.5 17t43.5 -17t17.5 -44q0 -26 -17.5 -43.5t-43.5 -17.5zM429 604q-26 0 -43.5 17.5
t-17.5 43.5q0 27 17.5 44t43.5 17t43.5 -17t17.5 -44q0 -26 -17.5 -43.5t-43.5 -17.5z" />
    <glyph glyph-name="uniFC71" unicode="&#xfe98;&#xfeb0;" horiz-adv-x="690" arabic-form="final" 
d="M690 0v115q11 0 15.5 -15.5t4.5 -41.5t-4.5 -42t-15.5 -16zM649 0q-70 0 -114 21.5t-65 65.5t-21 111v284h101v-284q0 -34 7 -52t28.5 -24.5t63.5 -6.5h41v-115h-41zM331 273q-52 0 -102 7.5t-97 21.5v120q43 -16 92.5 -25t106.5 -9t106.5 9t92.5 25v-120
q-46 -14 -96 -21.5t-103 -7.5zM0 -155q48 -1 77 9.5t42 35.5t13 64v528h101v-528q0 -69 -26 -118t-73.5 -75t-114.5 -27zM571 604q-26 0 -43.5 17.5t-17.5 43.5q0 27 17.5 44t43.5 17t43.5 -17t17.5 -44q0 -26 -17.5 -43.5t-43.5 -17.5zM429 604q-26 0 -43.5 17.5
t-17.5 43.5q0 27 17.5 44t43.5 17t43.5 -17t17.5 -44q0 -26 -17.5 -43.5t-43.5 -17.5zM183 616q-28 0 -47.5 19.5t-19.5 47.5q0 29 19.5 48t47.5 19q29 0 48 -19t19 -48q0 -28 -19 -47.5t-48 -19.5z" />
    <glyph glyph-name="uniFC73" unicode="&#xfe98;&#xfee6;" horiz-adv-x="1139" arabic-form="final" 
d="M1139 0v115q11 0 15.5 -15.5t4.5 -41.5t-4.5 -42t-15.5 -16zM1098 0q-70 0 -114 21.5t-65 65.5t-21 111v284h101v-284q0 -34 7 -52t28.5 -24.5t63.5 -6.5h41v-115h-41zM780 273q-52 0 -102 7.5t-97 21.5v120q43 -16 92.5 -25t106.5 -9t106.5 9t92.5 25v-120
q-46 -14 -96 -21.5t-103 -7.5zM361 -266q-78 0 -137.5 27t-100.5 75t-62 111.5t-21 137.5q0 44 7 89t19 86l96 -18q-10 -42 -15.5 -80.5t-5.5 -76.5q0 -74 26 -127t75.5 -81t118.5 -28q70 0 119 28t75 81t26 127v397h101v-397q0 -74 -21 -137.5t-62 -111.5t-100.5 -75
t-137.5 -27zM361 469q-28 0 -47.5 19.5t-19.5 47.5q0 29 19.5 48t47.5 19q29 0 48 -19t19 -48q0 -28 -19 -47.5t-48 -19.5zM1020 604q-26 0 -43.5 17.5t-17.5 43.5q0 27 17.5 44t43.5 17t43.5 -17t17.5 -44q0 -26 -17.5 -43.5t-43.5 -17.5zM878 604q-26 0 -43.5 17.5
t-17.5 43.5q0 27 17.5 44t43.5 17t43.5 -17t17.5 -44q0 -26 -17.5 -43.5t-43.5 -17.5z" />
    <glyph glyph-name="uniFC76" unicode="&#xfe9c;&#xfeae;" horiz-adv-x="690" arabic-form="final" 
d="M690 0v115q11 0 15.5 -15.5t4.5 -41.5t-4.5 -42t-15.5 -16zM649 0q-70 0 -114 21.5t-65 65.5t-21 111v284h101v-284q0 -34 7 -52t28.5 -24.5t63.5 -6.5h41v-115h-41zM331 273q-52 0 -102 7.5t-97 21.5v120q43 -16 92.5 -25t106.5 -9t106.5 9t92.5 25v-120
q-46 -14 -96 -21.5t-103 -7.5zM0 -155q48 -1 77 9.5t42 35.5t13 64v528h101v-528q0 -69 -26 -118t-73.5 -75t-114.5 -27zM500 849q26 0 43.5 -17.5t17.5 -43.5q0 -27 -17.5 -44t-43.5 -17q-25 0 -43 17t-18 44q0 26 18 43.5t43 17.5zM571 726q26 0 43.5 -17.5t17.5 -43.5
q0 -27 -17.5 -44t-43.5 -17t-43.5 17t-17.5 44q0 26 17.5 43.5t43.5 17.5zM429 726q26 0 43.5 -17.5t17.5 -43.5q0 -27 -17.5 -44t-43.5 -17t-43.5 17t-17.5 44q0 26 17.5 43.5t43.5 17.5z" />
    <glyph glyph-name="uniFC77" unicode="&#xfe9c;&#xfeb0;" horiz-adv-x="690" arabic-form="final" 
d="M690 0v115q11 0 15.5 -15.5t4.5 -41.5t-4.5 -42t-15.5 -16zM649 0q-70 0 -114 21.5t-65 65.5t-21 111v284h101v-284q0 -34 7 -52t28.5 -24.5t63.5 -6.5h41v-115h-41zM331 273q-52 0 -102 7.5t-97 21.5v120q43 -16 92.5 -25t106.5 -9t106.5 9t92.5 25v-120
q-46 -14 -96 -21.5t-103 -7.5zM0 -155q48 -1 77 9.5t42 35.5t13 64v528h101v-528q0 -69 -26 -118t-73.5 -75t-114.5 -27zM500 849q26 0 43.5 -17.5t17.5 -43.5q0 -27 -17.5 -44t-43.5 -17q-25 0 -43 17t-18 44q0 26 18 43.5t43 17.5zM571 726q26 0 43.5 -17.5t17.5 -43.5
q0 -27 -17.5 -44t-43.5 -17t-43.5 17t-17.5 44q0 26 17.5 43.5t43.5 17.5zM429 726q26 0 43.5 -17.5t17.5 -43.5q0 -27 -17.5 -44t-43.5 -17t-43.5 17t-17.5 44q0 26 17.5 43.5t43.5 17.5zM183 616q-28 0 -47.5 19.5t-19.5 47.5q0 29 19.5 48t47.5 19q29 0 48 -19t19 -48
q0 -28 -19 -47.5t-48 -19.5z" />
    <glyph glyph-name="uniFC79" unicode="&#xfe9c;&#xfee6;" horiz-adv-x="1139" arabic-form="final" 
d="M1139 0v115q11 0 15.5 -15.5t4.5 -41.5t-4.5 -42t-15.5 -16zM1098 0q-70 0 -114 21.5t-65 65.5t-21 111v284h101v-284q0 -34 7 -52t28.5 -24.5t63.5 -6.5h41v-115h-41zM780 273q-52 0 -102 7.5t-97 21.5v120q43 -16 92.5 -25t106.5 -9t106.5 9t92.5 25v-120
q-46 -14 -96 -21.5t-103 -7.5zM361 -266q-78 0 -137.5 27t-100.5 75t-62 111.5t-21 137.5q0 44 7 89t19 86l96 -18q-10 -42 -15.5 -80.5t-5.5 -76.5q0 -74 26 -127t75.5 -81t118.5 -28q70 0 119 28t75 81t26 127v397h101v-397q0 -74 -21 -137.5t-62 -111.5t-100.5 -75
t-137.5 -27zM361 469q-28 0 -47.5 19.5t-19.5 47.5q0 29 19.5 48t47.5 19q29 0 48 -19t19 -48q0 -28 -19 -47.5t-48 -19.5zM949 849q26 0 43.5 -17.5t17.5 -43.5q0 -27 -17.5 -44t-43.5 -17q-25 0 -43 17t-18 44q0 26 18 43.5t43 17.5zM1020 726q26 0 43.5 -17.5t17.5 -43.5
q0 -27 -17.5 -44t-43.5 -17t-43.5 17t-17.5 44q0 26 17.5 43.5t43.5 17.5zM878 726q26 0 43.5 -17.5t17.5 -43.5q0 -27 -17.5 -44t-43.5 -17t-43.5 17t-17.5 44q0 26 17.5 43.5t43.5 17.5z" />
    <glyph glyph-name="uniFC8A" unicode="&#xfee8;&#xfeae;" horiz-adv-x="690" arabic-form="final" 
d="M690 0v115q11 0 15.5 -15.5t4.5 -41.5t-4.5 -42t-15.5 -16zM649 0q-70 0 -114 21.5t-65 65.5t-21 111v284h101v-284q0 -34 7 -52t28.5 -24.5t63.5 -6.5h41v-115h-41zM331 273q-52 0 -102 7.5t-97 21.5v120q43 -16 92.5 -25t106.5 -9t106.5 9t92.5 25v-120
q-46 -14 -96 -21.5t-103 -7.5zM0 -155q48 -1 77 9.5t42 35.5t13 64v528h101v-528q0 -69 -26 -118t-73.5 -75t-114.5 -27zM500 616q-28 0 -47.5 19.5t-19.5 47.5q0 29 19.5 48t47.5 19q29 0 48 -19t19 -48q0 -28 -19 -47.5t-48 -19.5z" />
    <glyph glyph-name="uniFC8B" unicode="&#xfee8;&#xfeb0;" horiz-adv-x="690" arabic-form="final" 
d="M690 0v115q11 0 15.5 -15.5t4.5 -41.5t-4.5 -42t-15.5 -16zM649 0q-70 0 -114 21.5t-65 65.5t-21 111v284h101v-284q0 -34 7 -52t28.5 -24.5t63.5 -6.5h41v-115h-41zM331 273q-52 0 -102 7.5t-97 21.5v120q43 -16 92.5 -25t106.5 -9t106.5 9t92.5 25v-120
q-46 -14 -96 -21.5t-103 -7.5zM0 -155q48 -1 77 9.5t42 35.5t13 64v528h101v-528q0 -69 -26 -118t-73.5 -75t-114.5 -27zM500 616q-28 0 -47.5 19.5t-19.5 47.5q0 29 19.5 48t47.5 19q29 0 48 -19t19 -48q0 -28 -19 -47.5t-48 -19.5zM183 616q-28 0 -47.5 19.5t-19.5 47.5
q0 29 19.5 48t47.5 19q29 0 48 -19t19 -48q0 -28 -19 -47.5t-48 -19.5z" />
    <glyph glyph-name="uniFC8D" unicode="&#xfee8;&#xfee6;" horiz-adv-x="1139" arabic-form="final" 
d="M1139 0v115q11 0 15.5 -15.5t4.5 -41.5t-4.5 -42t-15.5 -16zM1098 0q-70 0 -114 21.5t-65 65.5t-21 111v284h101v-284q0 -34 7 -52t28.5 -24.5t63.5 -6.5h41v-115h-41zM780 273q-52 0 -102 7.5t-97 21.5v120q43 -16 92.5 -25t106.5 -9t106.5 9t92.5 25v-120
q-46 -14 -96 -21.5t-103 -7.5zM361 -266q-78 0 -137.5 27t-100.5 75t-62 111.5t-21 137.5q0 44 7 89t19 86l96 -18q-10 -42 -15.5 -80.5t-5.5 -76.5q0 -74 26 -127t75.5 -81t118.5 -28q70 0 119 28t75 81t26 127v397h101v-397q0 -74 -21 -137.5t-62 -111.5t-100.5 -75
t-137.5 -27zM361 469q-28 0 -47.5 19.5t-19.5 47.5q0 29 19.5 48t47.5 19q29 0 48 -19t19 -48q0 -28 -19 -47.5t-48 -19.5zM949 616q-28 0 -47.5 19.5t-19.5 47.5q0 29 19.5 48t47.5 19q29 0 48 -19t19 -48q0 -28 -19 -47.5t-48 -19.5z" />
    <glyph glyph-name="uniFC91" unicode="&#xfef4;&#xfeae;" horiz-adv-x="690" arabic-form="final" 
d="M690 0v115q11 0 15.5 -15.5t4.5 -41.5t-4.5 -42t-15.5 -16zM649 0q-70 0 -114 21.5t-65 65.5t-21 111v284h101v-284q0 -34 7 -52t28.5 -24.5t63.5 -6.5h41v-115h-41zM331 273q-52 0 -102 7.5t-97 21.5v120q43 -16 92.5 -25t106.5 -9t106.5 9t92.5 25v-120
q-46 -14 -96 -21.5t-103 -7.5zM0 -155q48 -1 77 9.5t42 35.5t13 64v528h101v-528q0 -69 -26 -118t-73.5 -75t-114.5 -27zM571 -244q-26 0 -43.5 18t-17.5 43q0 27 17.5 44t43.5 17t43.5 -17t17.5 -44q0 -25 -17.5 -43t-43.5 -18zM429 -244q-26 0 -43.5 18t-17.5 43
q0 27 17.5 44t43.5 17t43.5 -17t17.5 -44q0 -25 -17.5 -43t-43.5 -18z" />
    <glyph glyph-name="uniFC92" unicode="&#xfef4;&#xfeb0;" horiz-adv-x="690" arabic-form="final" 
d="M690 0v115q11 0 15.5 -15.5t4.5 -41.5t-4.5 -42t-15.5 -16zM649 0q-70 0 -114 21.5t-65 65.5t-21 111v284h101v-284q0 -34 7 -52t28.5 -24.5t63.5 -6.5h41v-115h-41zM331 273q-52 0 -102 7.5t-97 21.5v120q43 -16 92.5 -25t106.5 -9t106.5 9t92.5 25v-120
q-46 -14 -96 -21.5t-103 -7.5zM0 -155q48 -1 77 9.5t42 35.5t13 64v528h101v-528q0 -69 -26 -118t-73.5 -75t-114.5 -27zM183 616q-28 0 -47.5 19.5t-19.5 47.5q0 29 19.5 48t47.5 19q29 0 48 -19t19 -48q0 -28 -19 -47.5t-48 -19.5zM571 -244q-26 0 -43.5 18t-17.5 43
q0 27 17.5 44t43.5 17t43.5 -17t17.5 -44q0 -25 -17.5 -43t-43.5 -18zM429 -244q-26 0 -43.5 18t-17.5 43q0 27 17.5 44t43.5 17t43.5 -17t17.5 -44q0 -25 -17.5 -43t-43.5 -18z" />
    <glyph glyph-name="uniFC94" unicode="&#xfef4;&#xfee6;" horiz-adv-x="1139" arabic-form="final" 
d="M1139 0v115q11 0 15.5 -15.5t4.5 -41.5t-4.5 -42t-15.5 -16zM1098 0q-70 0 -114 21.5t-65 65.5t-21 111v284h101v-284q0 -34 7 -52t28.5 -24.5t63.5 -6.5h41v-115h-41zM780 273q-52 0 -102 7.5t-97 21.5v120q43 -16 92.5 -25t106.5 -9t106.5 9t92.5 25v-120
q-46 -14 -96 -21.5t-103 -7.5zM361 -266q-78 0 -137.5 27t-100.5 75t-62 111.5t-21 137.5q0 44 7 89t19 86l96 -18q-10 -42 -15.5 -80.5t-5.5 -76.5q0 -74 26 -127t75.5 -81t118.5 -28q70 0 119 28t75 81t26 127v397h101v-397q0 -74 -21 -137.5t-62 -111.5t-100.5 -75
t-137.5 -27zM361 469q-28 0 -47.5 19.5t-19.5 47.5q0 29 19.5 48t47.5 19q29 0 48 -19t19 -48q0 -28 -19 -47.5t-48 -19.5zM1020 -244q-26 0 -43.5 18t-17.5 43q0 27 17.5 44t43.5 17t43.5 -17t17.5 -44q0 -25 -17.5 -43t-43.5 -18zM878 -244q-26 0 -43.5 18t-17.5 43
q0 27 17.5 44t43.5 17t43.5 -17t17.5 -44q0 -25 -17.5 -43t-43.5 -18z" />
    <glyph glyph-name="uniFD0D" unicode="&#xfeb7;&#xfeae;" horiz-adv-x="1164" arabic-form="isolated" 
d="M909 0q-55 0 -95.5 14t-68 40.5t-43.5 63.5l93 46q7 -15 21 -26t37 -17t56 -6q40 0 60 7t27 25t7 51v284h101v-284q0 -98 -47 -148t-148 -50zM331 274q-52 0 -102 7.5t-97 21.5v120q43 -16 92.5 -25t106.5 -9t106.5 9t92.5 25v-120q-46 -14 -96 -21.5t-103 -7.5zM644 0
q-67 0 -110.5 22t-64 66.5t-20.5 109.5v284h101v-284q0 -33 7 -51t27.5 -25t59.5 -7v-115zM644 0v115q40 0 60 7t27 25t7 51v235h101v-235q0 -98 -47 -148t-148 -50zM0 -155q48 -1 77 9.5t42 35.5t13 64v528h101v-528q0 -69 -26 -118t-73.5 -75t-114.5 -27zM788 845
q26 0 43.5 -17.5t17.5 -43.5q0 -27 -17.5 -44t-43.5 -17q-25 0 -43 17t-18 44q0 26 18 43.5t43 17.5zM859 722q26 0 43.5 -17.5t17.5 -43.5q0 -27 -17.5 -44t-43.5 -17t-43.5 17t-17.5 44q0 26 17.5 43.5t43.5 17.5zM717 722q26 0 43.5 -17.5t17.5 -43.5q0 -27 -17.5 -44
t-43.5 -17t-43.5 17t-17.5 44q0 26 17.5 43.5t43.5 17.5z" />
    <glyph glyph-name="uniFD0E" unicode="&#xfeb3;&#xfeae;" horiz-adv-x="1164" arabic-form="isolated" 
d="M909 0q-55 0 -95.5 14t-68 40.5t-43.5 63.5l93 46q7 -15 21 -26t37 -17t56 -6q40 0 60 7t27 25t7 51v284h101v-284q0 -98 -47 -148t-148 -50zM331 274q-52 0 -102 7.5t-97 21.5v120q43 -16 92.5 -25t106.5 -9t106.5 9t92.5 25v-120q-46 -14 -96 -21.5t-103 -7.5zM644 0
q-67 0 -110.5 22t-64 66.5t-20.5 109.5v284h101v-284q0 -33 7 -51t27.5 -25t59.5 -7v-115zM644 0v115q40 0 60 7t27 25t7 51v235h101v-235q0 -98 -47 -148t-148 -50zM0 -155q48 -1 77 9.5t42 35.5t13 64v528h101v-528q0 -69 -26 -118t-73.5 -75t-114.5 -27z" />
    <glyph glyph-name="uniFD0F" unicode="&#xfebb;&#xfeae;" horiz-adv-x="1278" arabic-form="isolated" 
d="M331 274q-52 0 -102 7.5t-97 21.5v120q43 -16 92.5 -25t106.5 -9t106.5 9t92.5 25v-120q-46 -14 -96 -21.5t-103 -7.5zM644 0q-67 0 -110.5 22t-64 66.5t-20.5 109.5v280h101v-280q0 -33 7 -51t27.5 -25t59.5 -7h574v-115h-574zM1117 0v236q0 65 -21 109t-62 67t-101 23
q-49 0 -91 -17t-76 -48t-58 -75t-37 -98.5t-13 -117.5h-91q0 42 7.5 92.5t24.5 103.5t45 102t68.5 88t95.5 62t125 23q73 0 127 -25t89 -69t52 -100.5t17 -119.5v-236h-101zM0 -155q48 -1 77 9.5t42 35.5t13 64v528h101v-528q0 -69 -26 -118t-73.5 -75t-114.5 -27z" />
    <glyph glyph-name="uniFD10" unicode="&#xfebf;&#xfeae;" horiz-adv-x="1278" arabic-form="isolated" 
d="M331 274q-52 0 -102 7.5t-97 21.5v120q43 -16 92.5 -25t106.5 -9t106.5 9t92.5 25v-120q-46 -14 -96 -21.5t-103 -7.5zM644 0q-67 0 -110.5 22t-64 66.5t-20.5 109.5v280h101v-280q0 -33 7 -51t27.5 -25t59.5 -7h574v-115h-574zM1117 0v236q0 65 -21 109t-62 67t-101 23
q-49 0 -91 -17t-76 -48t-58 -75t-37 -98.5t-13 -117.5h-91q0 42 7.5 92.5t24.5 103.5t45 102t68.5 88t95.5 62t125 23q73 0 127 -25t89 -69t52 -100.5t17 -119.5v-236h-101zM0 -155q48 -1 77 9.5t42 35.5t13 64v528h101v-528q0 -69 -26 -118t-73.5 -75t-114.5 -27zM931 684
q-28 0 -47.5 19.5t-19.5 47.5q0 29 19.5 48t47.5 19q29 0 48 -19t19 -48q0 -28 -19 -47.5t-48 -19.5z" />
    <glyph glyph-name="uniFD29" unicode="&#xfeb8;&#xfeae;" horiz-adv-x="1244" arabic-form="final" 
d="M1244 0v115q11 0 15.5 -15.5t4.5 -41.5t-4.5 -42t-15.5 -16zM1203 0q-70 0 -114 21.5t-65 65.5t-21 111h101q0 -34 7 -52t28.5 -24.5t63.5 -6.5h41v-115h-41zM909 0q-55 0 -95.5 14t-68 40.5t-43.5 63.5l93 46q7 -15 21 -26t37 -17t56 -6q40 0 60 7t27 25t7 51v284h101
v-284q0 -98 -47 -148t-148 -50zM331 274q-52 0 -102 7.5t-97 21.5v120q43 -16 92.5 -25t106.5 -9t106.5 9t92.5 25v-120q-46 -14 -96 -21.5t-103 -7.5zM644 0q-67 0 -110.5 22t-64 66.5t-20.5 109.5v284h101v-284q0 -33 7 -51t27.5 -25t59.5 -7v-115zM644 0v115q40 0 60 7
t27 25t7 51v235h101v-235q0 -98 -47 -148t-148 -50zM0 -155q48 -1 77 9.5t42 35.5t13 64v528h101v-528q0 -69 -26 -118t-73.5 -75t-114.5 -27zM789 845q26 0 43.5 -17.5t17.5 -43.5q0 -27 -17.5 -44t-43.5 -17q-25 0 -43 17t-18 44q0 26 18 43.5t43 17.5zM860 722
q26 0 43.5 -17.5t17.5 -43.5q0 -27 -17.5 -44t-43.5 -17t-43.5 17t-17.5 44q0 26 17.5 43.5t43.5 17.5zM718 722q26 0 43.5 -17.5t17.5 -43.5q0 -27 -17.5 -44t-43.5 -17t-43.5 17t-17.5 44q0 26 17.5 43.5t43.5 17.5z" />
    <glyph glyph-name="uniFD2A" unicode="&#xfeb4;&#xfeae;" horiz-adv-x="1244" arabic-form="final" 
d="M1244 0v115q11 0 15.5 -15.5t4.5 -41.5t-4.5 -42t-15.5 -16zM1203 0q-70 0 -114 21.5t-65 65.5t-21 111h101q0 -34 7 -52t28.5 -24.5t63.5 -6.5h41v-115h-41zM909 0q-55 0 -95.5 14t-68 40.5t-43.5 63.5l93 46q7 -15 21 -26t37 -17t56 -6q40 0 60 7t27 25t7 51v284h101
v-284q0 -98 -47 -148t-148 -50zM331 274q-52 0 -102 7.5t-97 21.5v120q43 -16 92.5 -25t106.5 -9t106.5 9t92.5 25v-120q-46 -14 -96 -21.5t-103 -7.5zM644 0q-67 0 -110.5 22t-64 66.5t-20.5 109.5v284h101v-284q0 -33 7 -51t27.5 -25t59.5 -7v-115zM644 0v115q40 0 60 7
t27 25t7 51v235h101v-235q0 -98 -47 -148t-148 -50zM0 -155q48 -1 77 9.5t42 35.5t13 64v528h101v-528q0 -69 -26 -118t-73.5 -75t-114.5 -27z" />
    <glyph glyph-name="uniFD2B" unicode="&#xfebc;&#xfeae;" horiz-adv-x="1320" arabic-form="final" 
d="M1320 0v115q11 0 15.5 -15.5t4.5 -41.5t-4.5 -42t-15.5 -16zM644 0q-67 0 -110.5 22t-64 66.5t-20.5 109.5v280h101v-280q0 -33 7 -51t27.5 -25t59.5 -7h574v-115h-574zM331 274q-52 0 -102 7.5t-97 21.5v120q43 -16 92.5 -25t106.5 -9t106.5 9t92.5 25v-120
q-46 -14 -96 -21.5t-103 -7.5zM1117 0v236q0 65 -21 109t-62 67t-101 23q-49 0 -91 -17t-76 -48t-58 -75t-37 -98.5t-13 -117.5h-91q0 42 7.5 92.5t24.5 103.5t45 102t68.5 88t95.5 62t125 23q73 0 127 -25t89 -69t52 -100.5t17 -119.5v-236h-101zM1152 0v115h168v-115h-168
zM0 -155q48 -1 77 9.5t42 35.5t13 64v528h101v-528q0 -69 -26 -118t-73.5 -75t-114.5 -27z" />
    <glyph glyph-name="uniFD2C" unicode="&#xfec0;&#xfeae;" horiz-adv-x="1320" arabic-form="final" 
d="M1320 0v115q11 0 15.5 -15.5t4.5 -41.5t-4.5 -42t-15.5 -16zM644 0q-67 0 -110.5 22t-64 66.5t-20.5 109.5v280h101v-280q0 -33 7 -51t27.5 -25t59.5 -7h574v-115h-574zM331 274q-52 0 -102 7.5t-97 21.5v120q43 -16 92.5 -25t106.5 -9t106.5 9t92.5 25v-120
q-46 -14 -96 -21.5t-103 -7.5zM1117 0v236q0 65 -21 109t-62 67t-101 23q-49 0 -91 -17t-76 -48t-58 -75t-37 -98.5t-13 -117.5h-91q0 42 7.5 92.5t24.5 103.5t45 102t68.5 88t95.5 62t125 23q73 0 127 -25t89 -69t52 -100.5t17 -119.5v-236h-101zM1152 0v115h168v-115h-168
zM0 -155q48 -1 77 9.5t42 35.5t13 64v528h101v-528q0 -69 -26 -118t-73.5 -75t-114.5 -27zM931 684q-28 0 -47.5 19.5t-19.5 47.5q0 29 19.5 48t47.5 19q29 0 48 -19t19 -48q0 -28 -19 -47.5t-48 -19.5z" />
    <glyph glyph-name="uniFDF2" unicode="&#x627;&#xfedf;&#xfee0;&#xfeea;" horiz-adv-x="1489" arabic-form="isolated" 
d="M637 0v115h11q43 0 64 6.5t28 24.5t7 52v488h101v-488q0 -67 -21 -111t-65 -65.5t-114 -21.5h-11zM947 0q-70 0 -114 21.5t-65 65.5t-21 111h101q0 -34 7 -52t28.5 -24.5t63.5 -6.5h20v-115h-20zM967 0v115h100v571h101v-686h-201zM1308 0v820h101v-820h-101zM637 0v115
q11 0 15.5 -15.5t4.5 -41.5t-4.5 -42t-15.5 -16zM325 30q-61 0 -113.5 14t-90.5 41t-59.5 67.5t-21.5 94.5q0 61 27.5 107.5t77 79.5t115.5 53.5t143 29.5l12 -114q-46 -5 -94 -16.5t-89 -30.5t-66 -46t-25 -63q0 -35 25 -58t67 -33.5t92 -10.5q38 0 70.5 5t60.5 14l30 -110
q-37 -12 -78.5 -18t-82.5 -6zM596 0q-70 0 -114 21.5t-65 65.5t-21 111v346h101v-346q0 -34 7 -52t28.5 -24.5t63.5 -6.5h41v-115h-41zM840 768q-20 0 -38.5 11t-30.5 30t-12 43v64h50v-64q0 -13 9.5 -23.5t21.5 -10.5q14 0 24.5 16.5t10.5 39.5q0 15 -4 32.5t-10 29.5
l44 23q9 -16 14.5 -40t5.5 -45q0 -28 -11 -52.5t-30 -39t-44 -14.5zM727 768q-24 0 -43 14.5t-30.5 39t-11.5 52.5q0 21 5.5 45t14.5 40l44 -23q-6 -12 -10 -29.5t-4 -32.5q0 -23 11 -39.5t24 -16.5q12 0 22 10.5t10 23.5v64h50v-64q0 -24 -12 -43t-31 -30t-39 -11zM759 980
v166h50v-166h-50z" />
    <glyph glyph-name="uniFEF5" unicode="&#xfedf;&#xfe82;" horiz-adv-x="693" arabic-form="isolated" 
d="M512 0v820h101v-820h-101zM80 0v115h533v-115h-533zM221 0v604h101v-604h-101zM114 684q0 56 28.5 85t87.5 29q25 0 62 -3.5t75 -6.5t63 -2v-76q-25 -2 -62.5 0.5t-75 6t-62.5 3.5q-28 0 -37.5 -7.5t-9.5 -28.5h-69z" />
    <glyph glyph-name="uniFEF6" unicode="&#xfee0;&#xfe82;" horiz-adv-x="732" arabic-form="final" 
d="M221 0v604h101v-604h-101zM80 0v115h333v-115h-333zM732 0v115q11 0 15.5 -15.5t4.5 -41.5t-4.5 -42t-15.5 -16zM382 0q-11 0 -15.5 16t-4.5 43q0 26 4.5 41t15.5 15v-115zM382 0v115h31q43 0 64 6.5t28 24.5t7 52v622h101v-622q0 -67 -21 -111t-65 -65.5t-114 -21.5h-31
zM712 0q-70 0 -114 21.5t-65 65.5t-21 111h101q0 -34 7 -52t28.5 -24.5t63.5 -6.5h20v-115h-20zM114 684q0 56 28.5 85t87.5 29q25 0 62 -3.5t75 -6.5t63 -2v-76q-25 -2 -62.5 0.5t-75 6t-62.5 3.5q-28 0 -37.5 -7.5t-9.5 -28.5h-69z" />
    <glyph glyph-name="uniFEF7" unicode="&#xfedf;&#xfe84;" horiz-adv-x="693" arabic-form="isolated" 
d="M512 0v820h101v-820h-101zM80 0v115h533v-115h-533zM221 0v604h101v-604h-101zM304 708q-53 0 -86.5 20.5t-33.5 60.5q0 28 16 48t42 31t56 11q18 0 35.5 -4t33.5 -12l-26 -57q-8 2 -18.5 3t-18.5 1q-28 0 -44 -8t-16 -18t16 -18t44 -8v-50zM166 688v70h212v-70h-212z
" />
    <glyph glyph-name="uniFEF8" unicode="&#xfee0;&#xfe84;" horiz-adv-x="732" arabic-form="final" 
d="M221 0v604h101v-604h-101zM80 0v115h333v-115h-333zM732 0v115q11 0 15.5 -15.5t4.5 -41.5t-4.5 -42t-15.5 -16zM382 0q-11 0 -15.5 16t-4.5 43q0 26 4.5 41t15.5 15v-115zM382 0v115h31q43 0 64 6.5t28 24.5t7 52v622h101v-622q0 -67 -21 -111t-65 -65.5t-114 -21.5h-31
zM712 0q-70 0 -114 21.5t-65 65.5t-21 111h101q0 -34 7 -52t28.5 -24.5t63.5 -6.5h20v-115h-20zM304 708q-53 0 -86.5 20.5t-33.5 60.5q0 28 16 48t42 31t56 11q18 0 35.5 -4t33.5 -12l-26 -57q-8 2 -18.5 3t-18.5 1q-28 0 -44 -8t-16 -18t16 -18t44 -8v-50zM166 688v70h212
v-70h-212z" />
    <glyph glyph-name="uniFEF9" unicode="&#xfedf;&#xfe88;" horiz-adv-x="693" arabic-form="isolated" 
d="M512 0v820h101v-820h-101zM80 0v115h533v-115h-533zM221 0v604h101v-604h-101zM304 -255q-53 0 -86.5 20.5t-33.5 60.5q0 28 16 48t42 31t56 11q18 0 35.5 -4t33.5 -12l-26 -57q-8 2 -18.5 3t-18.5 1q-28 0 -44 -8t-16 -18t16 -18t44 -8v-50zM166 -275v70h212v-70h-212z
" />
    <glyph glyph-name="uniFEFA" unicode="&#xfee0;&#xfe88;" horiz-adv-x="732" arabic-form="final" 
d="M221 0v604h101v-604h-101zM80 0v115h333v-115h-333zM732 0v115q11 0 15.5 -15.5t4.5 -41.5t-4.5 -42t-15.5 -16zM382 0q-11 0 -15.5 16t-4.5 43q0 26 4.5 41t15.5 15v-115zM382 0v115h31q43 0 64 6.5t28 24.5t7 52v622h101v-622q0 -67 -21 -111t-65 -65.5t-114 -21.5h-31
zM712 0q-70 0 -114 21.5t-65 65.5t-21 111h101q0 -34 7 -52t28.5 -24.5t63.5 -6.5h20v-115h-20zM304 -255q-53 0 -86.5 20.5t-33.5 60.5q0 28 16 48t42 31t56 11q18 0 35.5 -4t33.5 -12l-26 -57q-8 2 -18.5 3t-18.5 1q-28 0 -44 -8t-16 -18t16 -18t44 -8v-50zM166 -275v70
h212v-70h-212z" />
    <glyph glyph-name="uniFEFB" unicode="&#xfedf;&#xfe8e;" horiz-adv-x="693" arabic-form="isolated" 
d="M512 0v820h101v-820h-101zM80 0v115h533v-115h-533zM221 0v604h101v-604h-101z" />
    <glyph glyph-name="uniFEFC" unicode="&#xfee0;&#xfe8e;" horiz-adv-x="732" arabic-form="final" 
d="M221 0v604h101v-604h-101zM80 0v115h333v-115h-333zM732 0v115q11 0 15.5 -15.5t4.5 -41.5t-4.5 -42t-15.5 -16zM382 0q-11 0 -15.5 16t-4.5 43q0 26 4.5 41t15.5 15v-115zM382 0v115h31q43 0 64 6.5t28 24.5t7 52v622h101v-622q0 -67 -21 -111t-65 -65.5t-114 -21.5h-31
zM712 0q-70 0 -114 21.5t-65 65.5t-21 111h101q0 -34 7 -52t28.5 -24.5t63.5 -6.5h20v-115h-20z" />
    <glyph glyph-name="f_f" unicode="ff" horiz-adv-x="716" 
d="M107 564q0 63 26.5 103.5t68.5 60t88 19.5q24 0 48.5 -6.5t45.5 -17.5l-24 -88q-14 6 -31.5 11.5t-35.5 5.5q-19 0 -35.5 -7.5t-26.5 -24t-10 -42.5v-578h-114v564zM37 512h323v-82h-323v82zM468 564q0 63 26.5 103.5t68.5 60t88 19.5q24 0 48.5 -6.5t45.5 -17.5l-24 -88
q-14 6 -31.5 11.5t-35.5 5.5q-19 0 -35.5 -7.5t-26.5 -24t-10 -42.5v-578h-114v564zM398 512h323v-82h-323v82z" />
    <glyph glyph-name="f_f_i" unicode="ffi" horiz-adv-x="1000" 
d="M107 564q0 63 26.5 103.5t68.5 60t88 19.5q24 0 48.5 -6.5t45.5 -17.5l-24 -88q-14 6 -31.5 11.5t-35.5 5.5q-19 0 -35.5 -7.5t-26.5 -24t-10 -42.5v-578h-114v564zM37 512h323v-82h-323v82zM468 564q0 63 26.5 103.5t68.5 60t88 19.5q24 0 48.5 -6.5t45.5 -17.5l-24 -88
q-14 6 -31.5 11.5t-35.5 5.5q-19 0 -35.5 -7.5t-26.5 -24t-10 -42.5v-578h-114v564zM398 512h323v-82h-323v82zM801 531h114v-531h-114v531zM858 750q29 0 48 -19t19 -48q0 -28 -19 -47.5t-48 -19.5q-28 0 -47.5 19.5t-19.5 47.5q0 29 19.5 48t47.5 19z" />
    <glyph glyph-name="f_f_l" unicode="ffl" horiz-adv-x="1025" 
d="M107 564q0 63 26.5 103.5t68.5 60t88 19.5q24 0 48.5 -6.5t45.5 -17.5l-24 -88q-14 6 -31.5 11.5t-35.5 5.5q-19 0 -35.5 -7.5t-26.5 -24t-10 -42.5v-578h-114v564zM37 512h323v-82h-323v82zM468 564q0 63 26.5 103.5t68.5 60t88 19.5q24 0 48.5 -6.5t45.5 -17.5l-24 -88
q-14 6 -31.5 11.5t-35.5 5.5q-19 0 -35.5 -7.5t-26.5 -24t-10 -42.5v-578h-114v564zM398 512h323v-82h-323v82zM820 742h115v-742h-115v742z" />
    <glyph glyph-name="peh_rehar.fina" unicode="&#xfb59;&#xfeae;" horiz-adv-x="690" 
d="M690 0v115q11 0 15.5 -15.5t4.5 -41.5t-4.5 -42t-15.5 -16zM649 0q-70 0 -114 21.5t-65 65.5t-21 111v284h101v-284q0 -34 7 -52t28.5 -24.5t63.5 -6.5h41v-115h-41zM331 273q-52 0 -102 7.5t-97 21.5v120q43 -16 92.5 -25t106.5 -9t106.5 9t92.5 25v-120
q-46 -14 -96 -21.5t-103 -7.5zM0 -155q48 -1 77 9.5t42 35.5t13 64v528h101v-528q0 -69 -26 -118t-73.5 -75t-114.5 -27zM500 -366q-25 0 -43 18t-18 43q0 27 18 44t43 17q26 0 43.5 -17t17.5 -44q0 -25 -17.5 -43t-43.5 -18zM571 -243q-26 0 -43.5 18t-17.5 43
q0 27 17.5 44t43.5 17t43.5 -17t17.5 -44q0 -25 -17.5 -43t-43.5 -18zM429 -243q-26 0 -43.5 18t-17.5 43q0 27 17.5 44t43.5 17t43.5 -17t17.5 -44q0 -25 -17.5 -43t-43.5 -18z" />
    <glyph glyph-name="peh_zainar.fina" unicode="&#xfb59;&#xfeb0;" horiz-adv-x="690" 
d="M690 0v115q11 0 15.5 -15.5t4.5 -41.5t-4.5 -42t-15.5 -16zM649 0q-70 0 -114 21.5t-65 65.5t-21 111v284h101v-284q0 -34 7 -52t28.5 -24.5t63.5 -6.5h41v-115h-41zM331 273q-52 0 -102 7.5t-97 21.5v120q43 -16 92.5 -25t106.5 -9t106.5 9t92.5 25v-120
q-46 -14 -96 -21.5t-103 -7.5zM0 -155q48 -1 77 9.5t42 35.5t13 64v528h101v-528q0 -69 -26 -118t-73.5 -75t-114.5 -27zM500 -366q-25 0 -43 18t-18 43q0 27 18 44t43 17q26 0 43.5 -17t17.5 -44q0 -25 -17.5 -43t-43.5 -18zM571 -243q-26 0 -43.5 18t-17.5 43
q0 27 17.5 44t43.5 17t43.5 -17t17.5 -44q0 -25 -17.5 -43t-43.5 -18zM429 -243q-26 0 -43.5 18t-17.5 43q0 27 17.5 44t43.5 17t43.5 -17t17.5 -44q0 -25 -17.5 -43t-43.5 -18zM183 616q-28 0 -47.5 19.5t-19.5 47.5q0 29 19.5 48t47.5 19q29 0 48 -19t19 -48
q0 -28 -19 -47.5t-48 -19.5z" />
    <glyph glyph-name="peh_noonar.fina" unicode="&#xfb59;&#xfee6;" horiz-adv-x="1139" 
d="M1139 0v115q11 0 15.5 -15.5t4.5 -41.5t-4.5 -42t-15.5 -16zM1098 0q-70 0 -114 21.5t-65 65.5t-21 111v284h101v-284q0 -34 7 -52t28.5 -24.5t63.5 -6.5h41v-115h-41zM780 273q-52 0 -102 7.5t-97 21.5v120q43 -16 92.5 -25t106.5 -9t106.5 9t92.5 25v-120
q-46 -14 -96 -21.5t-103 -7.5zM361 -266q-78 0 -137.5 27t-100.5 75t-62 111.5t-21 137.5q0 44 7 89t19 86l96 -18q-10 -42 -15.5 -80.5t-5.5 -76.5q0 -74 26 -127t75.5 -81t118.5 -28q70 0 119 28t75 81t26 127v397h101v-397q0 -74 -21 -137.5t-62 -111.5t-100.5 -75
t-137.5 -27zM361 469q-28 0 -47.5 19.5t-19.5 47.5q0 29 19.5 48t47.5 19q29 0 48 -19t19 -48q0 -28 -19 -47.5t-48 -19.5zM949 -366q-25 0 -43 18t-18 43q0 27 18 44t43 17q26 0 43.5 -17t17.5 -44q0 -25 -17.5 -43t-43.5 -18zM1020 -243q-26 0 -43.5 18t-17.5 43
q0 27 17.5 44t43.5 17t43.5 -17t17.5 -44q0 -25 -17.5 -43t-43.5 -18zM878 -243q-26 0 -43.5 18t-17.5 43q0 27 17.5 44t43.5 17t43.5 -17t17.5 -44q0 -25 -17.5 -43t-43.5 -18z" />
    <glyph glyph-name="seen_zainar" unicode="&#xfeb3;&#xfeb0;" horiz-adv-x="1164" 
d="M909 0q-55 0 -95.5 14t-68 40.5t-43.5 63.5l93 46q7 -15 21 -26t37 -17t56 -6q40 0 60 7t27 25t7 51v284h101v-284q0 -98 -47 -148t-148 -50zM331 274q-52 0 -102 7.5t-97 21.5v120q43 -16 92.5 -25t106.5 -9t106.5 9t92.5 25v-120q-46 -14 -96 -21.5t-103 -7.5zM644 0
q-67 0 -110.5 22t-64 66.5t-20.5 109.5v284h101v-284q0 -33 7 -51t27.5 -25t59.5 -7v-115zM644 0v115q40 0 60 7t27 25t7 51v235h101v-235q0 -98 -47 -148t-148 -50zM0 -155q48 -1 77 9.5t42 35.5t13 64v528h101v-528q0 -69 -26 -118t-73.5 -75t-114.5 -27zM183 616
q-28 0 -47.5 19.5t-19.5 47.5q0 29 19.5 48t47.5 19q29 0 48 -19t19 -48q0 -28 -19 -47.5t-48 -19.5z" />
    <glyph glyph-name="seen_zainar.fina" unicode="&#xfeb4;&#xfeb0;" horiz-adv-x="1244" 
d="M1244 0v115q11 0 15.5 -15.5t4.5 -41.5t-4.5 -42t-15.5 -16zM1203 0q-70 0 -114 21.5t-65 65.5t-21 111h101q0 -34 7 -52t28.5 -24.5t63.5 -6.5h41v-115h-41zM909 0q-55 0 -95.5 14t-68 40.5t-43.5 63.5l93 46q7 -15 21 -26t37 -17t56 -6q40 0 60 7t27 25t7 51v284h101
v-284q0 -98 -47 -148t-148 -50zM331 274q-52 0 -102 7.5t-97 21.5v120q43 -16 92.5 -25t106.5 -9t106.5 9t92.5 25v-120q-46 -14 -96 -21.5t-103 -7.5zM644 0q-67 0 -110.5 22t-64 66.5t-20.5 109.5v284h101v-284q0 -33 7 -51t27.5 -25t59.5 -7v-115zM644 0v115q40 0 60 7
t27 25t7 51v235h101v-235q0 -98 -47 -148t-148 -50zM0 -155q48 -1 77 9.5t42 35.5t13 64v528h101v-528q0 -69 -26 -118t-73.5 -75t-114.5 -27zM183 616q-28 0 -47.5 19.5t-19.5 47.5q0 29 19.5 48t47.5 19q29 0 48 -19t19 -48q0 -28 -19 -47.5t-48 -19.5z" />
    <glyph glyph-name="sheen_zainar" unicode="&#xfeb7;&#xfeb0;" horiz-adv-x="1164" 
d="M909 0q-55 0 -95.5 14t-68 40.5t-43.5 63.5l93 46q7 -15 21 -26t37 -17t56 -6q40 0 60 7t27 25t7 51v284h101v-284q0 -98 -47 -148t-148 -50zM331 274q-52 0 -102 7.5t-97 21.5v120q43 -16 92.5 -25t106.5 -9t106.5 9t92.5 25v-120q-46 -14 -96 -21.5t-103 -7.5zM644 0
q-67 0 -110.5 22t-64 66.5t-20.5 109.5v284h101v-284q0 -33 7 -51t27.5 -25t59.5 -7v-115zM644 0v115q40 0 60 7t27 25t7 51v235h101v-235q0 -98 -47 -148t-148 -50zM0 -155q48 -1 77 9.5t42 35.5t13 64v528h101v-528q0 -69 -26 -118t-73.5 -75t-114.5 -27zM788 845
q26 0 43.5 -17.5t17.5 -43.5q0 -27 -17.5 -44t-43.5 -17q-25 0 -43 17t-18 44q0 26 18 43.5t43 17.5zM859 722q26 0 43.5 -17.5t17.5 -43.5q0 -27 -17.5 -44t-43.5 -17t-43.5 17t-17.5 44q0 26 17.5 43.5t43.5 17.5zM717 722q26 0 43.5 -17.5t17.5 -43.5q0 -27 -17.5 -44
t-43.5 -17t-43.5 17t-17.5 44q0 26 17.5 43.5t43.5 17.5zM183 616q-28 0 -47.5 19.5t-19.5 47.5q0 29 19.5 48t47.5 19q29 0 48 -19t19 -48q0 -28 -19 -47.5t-48 -19.5z" />
    <glyph glyph-name="sheen_zainar.fina" unicode="&#xfeb8;&#xfeb0;" horiz-adv-x="1244" 
d="M1244 0v115q11 0 15.5 -15.5t4.5 -41.5t-4.5 -42t-15.5 -16zM1203 0q-70 0 -114 21.5t-65 65.5t-21 111h101q0 -34 7 -52t28.5 -24.5t63.5 -6.5h41v-115h-41zM909 0q-55 0 -95.5 14t-68 40.5t-43.5 63.5l93 46q7 -15 21 -26t37 -17t56 -6q40 0 60 7t27 25t7 51v284h101
v-284q0 -98 -47 -148t-148 -50zM331 274q-52 0 -102 7.5t-97 21.5v120q43 -16 92.5 -25t106.5 -9t106.5 9t92.5 25v-120q-46 -14 -96 -21.5t-103 -7.5zM644 0q-67 0 -110.5 22t-64 66.5t-20.5 109.5v284h101v-284q0 -33 7 -51t27.5 -25t59.5 -7v-115zM644 0v115q40 0 60 7
t27 25t7 51v235h101v-235q0 -98 -47 -148t-148 -50zM0 -155q48 -1 77 9.5t42 35.5t13 64v528h101v-528q0 -69 -26 -118t-73.5 -75t-114.5 -27zM789 845q26 0 43.5 -17.5t17.5 -43.5q0 -27 -17.5 -44t-43.5 -17q-25 0 -43 17t-18 44q0 26 18 43.5t43 17.5zM860 722
q26 0 43.5 -17.5t17.5 -43.5q0 -27 -17.5 -44t-43.5 -17t-43.5 17t-17.5 44q0 26 17.5 43.5t43.5 17.5zM718 722q26 0 43.5 -17.5t17.5 -43.5q0 -27 -17.5 -44t-43.5 -17t-43.5 17t-17.5 44q0 26 17.5 43.5t43.5 17.5zM183 616q-28 0 -47.5 19.5t-19.5 47.5q0 29 19.5 48
t47.5 19q29 0 48 -19t19 -48q0 -28 -19 -47.5t-48 -19.5z" />
    <glyph glyph-name="sad_zainar" unicode="&#xfebb;&#xfeb0;" horiz-adv-x="1278" 
d="M331 274q-52 0 -102 7.5t-97 21.5v120q43 -16 92.5 -25t106.5 -9t106.5 9t92.5 25v-120q-46 -14 -96 -21.5t-103 -7.5zM644 0q-67 0 -110.5 22t-64 66.5t-20.5 109.5v280h101v-280q0 -33 7 -51t27.5 -25t59.5 -7h574v-115h-574zM1117 0v236q0 65 -21 109t-62 67t-101 23
q-49 0 -91 -17t-76 -48t-58 -75t-37 -98.5t-13 -117.5h-91q0 42 7.5 92.5t24.5 103.5t45 102t68.5 88t95.5 62t125 23q73 0 127 -25t89 -69t52 -100.5t17 -119.5v-236h-101zM0 -155q48 -1 77 9.5t42 35.5t13 64v528h101v-528q0 -69 -26 -118t-73.5 -75t-114.5 -27zM183 616
q-28 0 -47.5 19.5t-19.5 47.5q0 29 19.5 48t47.5 19q29 0 48 -19t19 -48q0 -28 -19 -47.5t-48 -19.5z" />
    <glyph glyph-name="sad_zainar.fina" unicode="&#xfebc;&#xfeb0;" horiz-adv-x="1320" 
d="M1320 0v115q11 0 15.5 -15.5t4.5 -41.5t-4.5 -42t-15.5 -16zM644 0q-67 0 -110.5 22t-64 66.5t-20.5 109.5v280h101v-280q0 -33 7 -51t27.5 -25t59.5 -7h574v-115h-574zM331 274q-52 0 -102 7.5t-97 21.5v120q43 -16 92.5 -25t106.5 -9t106.5 9t92.5 25v-120
q-46 -14 -96 -21.5t-103 -7.5zM1117 0v236q0 65 -21 109t-62 67t-101 23q-49 0 -91 -17t-76 -48t-58 -75t-37 -98.5t-13 -117.5h-91q0 42 7.5 92.5t24.5 103.5t45 102t68.5 88t95.5 62t125 23q73 0 127 -25t89 -69t52 -100.5t17 -119.5v-236h-101zM1152 0v115h168v-115h-168
zM0 -155q48 -1 77 9.5t42 35.5t13 64v528h101v-528q0 -69 -26 -118t-73.5 -75t-114.5 -27zM183 616q-28 0 -47.5 19.5t-19.5 47.5q0 29 19.5 48t47.5 19q29 0 48 -19t19 -48q0 -28 -19 -47.5t-48 -19.5z" />
    <glyph glyph-name="dad_zainar" unicode="&#xfebf;&#xfeb0;" horiz-adv-x="1278" 
d="M331 274q-52 0 -102 7.5t-97 21.5v120q43 -16 92.5 -25t106.5 -9t106.5 9t92.5 25v-120q-46 -14 -96 -21.5t-103 -7.5zM644 0q-67 0 -110.5 22t-64 66.5t-20.5 109.5v280h101v-280q0 -33 7 -51t27.5 -25t59.5 -7h574v-115h-574zM1117 0v236q0 65 -21 109t-62 67t-101 23
q-49 0 -91 -17t-76 -48t-58 -75t-37 -98.5t-13 -117.5h-91q0 42 7.5 92.5t24.5 103.5t45 102t68.5 88t95.5 62t125 23q73 0 127 -25t89 -69t52 -100.5t17 -119.5v-236h-101zM0 -155q48 -1 77 9.5t42 35.5t13 64v528h101v-528q0 -69 -26 -118t-73.5 -75t-114.5 -27zM931 684
q-28 0 -47.5 19.5t-19.5 47.5q0 29 19.5 48t47.5 19q29 0 48 -19t19 -48q0 -28 -19 -47.5t-48 -19.5zM183 616q-28 0 -47.5 19.5t-19.5 47.5q0 29 19.5 48t47.5 19q29 0 48 -19t19 -48q0 -28 -19 -47.5t-48 -19.5z" />
    <glyph glyph-name="dad_zainar.fina" unicode="&#xfec0;&#xfeb0;" horiz-adv-x="1320" 
d="M1320 0v115q11 0 15.5 -15.5t4.5 -41.5t-4.5 -42t-15.5 -16zM644 0q-67 0 -110.5 22t-64 66.5t-20.5 109.5v280h101v-280q0 -33 7 -51t27.5 -25t59.5 -7h574v-115h-574zM331 274q-52 0 -102 7.5t-97 21.5v120q43 -16 92.5 -25t106.5 -9t106.5 9t92.5 25v-120
q-46 -14 -96 -21.5t-103 -7.5zM1117 0v236q0 65 -21 109t-62 67t-101 23q-49 0 -91 -17t-76 -48t-58 -75t-37 -98.5t-13 -117.5h-91q0 42 7.5 92.5t24.5 103.5t45 102t68.5 88t95.5 62t125 23q73 0 127 -25t89 -69t52 -100.5t17 -119.5v-236h-101zM1152 0v115h168v-115h-168
zM0 -155q48 -1 77 9.5t42 35.5t13 64v528h101v-528q0 -69 -26 -118t-73.5 -75t-114.5 -27zM931 684q-28 0 -47.5 19.5t-19.5 47.5q0 29 19.5 48t47.5 19q29 0 48 -19t19 -48q0 -28 -19 -47.5t-48 -19.5zM183 616q-28 0 -47.5 19.5t-19.5 47.5q0 29 19.5 48t47.5 19
q29 0 48 -19t19 -48q0 -28 -19 -47.5t-48 -19.5z" />
    <glyph glyph-name="lam_alefWaslaar" unicode="&#xfedf;&#xfb51;" horiz-adv-x="693" 
d="M512 0v820h101v-820h-101zM80 0v115h533v-115h-533zM221 0v604h101v-604h-101zM373 688v71q0 19 -10.5 28t-27.5 9q-16 0 -34.5 -10.5t-31.5 -29t-13 -44.5h-42q0 20 5.5 46.5t19 51t36 40.5t56.5 16q32 0 52.5 -14.5t30.5 -37.5t10 -51v-75h-51zM298 688
q-40 0 -68.5 11.5t-51.5 40.5l29 12l-25 -27.5t-29 -33.5l-34 25q17 39 35 60t34 21q10 0 17 -6t18 -13.5t31 -13.5t55 -6h115v-70h-126z" />
    <glyph glyph-name="lam_alefWaslaar.fina" unicode="&#xfee0;&#xfb51;" horiz-adv-x="732" 
d="M221 0v604h101v-604h-101zM80 0v115h333v-115h-333zM732 0v115q11 0 15.5 -15.5t4.5 -41.5t-4.5 -42t-15.5 -16zM382 0q-11 0 -15.5 16t-4.5 43q0 26 4.5 41t15.5 15v-115zM382 0v115h31q43 0 64 6.5t28 24.5t7 52v622h101v-622q0 -67 -21 -111t-65 -65.5t-114 -21.5h-31
zM712 0q-70 0 -114 21.5t-65 65.5t-21 111h101q0 -34 7 -52t28.5 -24.5t63.5 -6.5h20v-115h-20zM373 688v71q0 19 -10.5 28t-27.5 9q-16 0 -34.5 -10.5t-31.5 -29t-13 -44.5h-42q0 20 5.5 46.5t19 51t36 40.5t56.5 16q32 0 52.5 -14.5t30.5 -37.5t10 -51v-75h-51zM298 688
q-40 0 -68.5 11.5t-51.5 40.5l29 12l-25 -27.5t-29 -33.5l-34 25q17 39 35 60t34 21q10 0 17 -6t18 -13.5t31 -13.5t55 -6h115v-70h-126z" />
    <glyph glyph-name="alefMaksura_rehar.fina" unicode="&#x649;&#xfeae;" horiz-adv-x="690" 
d="M690 0v115q11 0 15.5 -15.5t4.5 -41.5t-4.5 -42t-15.5 -16zM649 0q-70 0 -114 21.5t-65 65.5t-21 111v284h101v-284q0 -34 7 -52t28.5 -24.5t63.5 -6.5h41v-115h-41zM331 273q-52 0 -102 7.5t-97 21.5v120q43 -16 92.5 -25t106.5 -9t106.5 9t92.5 25v-120
q-46 -14 -96 -21.5t-103 -7.5zM0 -155q48 -1 77 9.5t42 35.5t13 64v528h101v-528q0 -69 -26 -118t-73.5 -75t-114.5 -27z" />
    <glyph glyph-name="alefMaksura_zainar.fina" unicode="&#x649;&#xfeb0;" horiz-adv-x="690" 
d="M690 0v115q11 0 15.5 -15.5t4.5 -41.5t-4.5 -42t-15.5 -16zM649 0q-70 0 -114 21.5t-65 65.5t-21 111v284h101v-284q0 -34 7 -52t28.5 -24.5t63.5 -6.5h41v-115h-41zM331 273q-52 0 -102 7.5t-97 21.5v120q43 -16 92.5 -25t106.5 -9t106.5 9t92.5 25v-120
q-46 -14 -96 -21.5t-103 -7.5zM0 -155q48 -1 77 9.5t42 35.5t13 64v528h101v-528q0 -69 -26 -118t-73.5 -75t-114.5 -27zM183 616q-28 0 -47.5 19.5t-19.5 47.5q0 29 19.5 48t47.5 19q29 0 48 -19t19 -48q0 -28 -19 -47.5t-48 -19.5z" />
    <glyph glyph-name="alefMaksura_noonar.fina" unicode="&#x649;&#xfee6;" horiz-adv-x="1139" 
d="M1139 0v115q11 0 15.5 -15.5t4.5 -41.5t-4.5 -42t-15.5 -16zM1098 0q-70 0 -114 21.5t-65 65.5t-21 111v284h101v-284q0 -34 7 -52t28.5 -24.5t63.5 -6.5h41v-115h-41zM780 273q-52 0 -102 7.5t-97 21.5v120q43 -16 92.5 -25t106.5 -9t106.5 9t92.5 25v-120
q-46 -14 -96 -21.5t-103 -7.5zM361 -266q-78 0 -137.5 27t-100.5 75t-62 111.5t-21 137.5q0 44 7 89t19 86l96 -18q-10 -42 -15.5 -80.5t-5.5 -76.5q0 -74 26 -127t75.5 -81t118.5 -28q70 0 119 28t75 81t26 127v397h101v-397q0 -74 -21 -137.5t-62 -111.5t-100.5 -75
t-137.5 -27zM361 469q-28 0 -47.5 19.5t-19.5 47.5q0 29 19.5 48t47.5 19q29 0 48 -19t19 -48q0 -28 -19 -47.5t-48 -19.5z" />
    <glyph glyph-name="uni066E.init" unicode="&#x66e;" horiz-adv-x="311" 
d="M140 482h101v-482h-241v115h140v367zM0 0q-11 0 -15.5 16t-4.5 43q0 26 4.5 41t15.5 15v-115z" />
    <glyph glyph-name="uni066E.medi" unicode="&#x66e;" horiz-adv-x="391" 
d="M0 0v115h51q43 0 64 6.5t28 24.5t7 52v284h101v-284q0 -67 -21 -111t-65 -65.5t-114 -21.5h-51zM350 0q-70 0 -114 21.5t-65 65.5t-21 111h101q0 -34 7 -52t28.5 -24.5t63.5 -6.5h41v-115h-41zM391 0v115q11 0 15.5 -15.5t4.5 -41.5t-4.5 -42t-15.5 -16zM0 0
q-11 0 -15.5 16t-4.5 43q0 26 4.5 41t15.5 15v-115z" />
    <glyph glyph-name="uni066E.fina" unicode="&#x66e;" horiz-adv-x="950" 
d="M343 -1q-75 0 -130.5 21.5t-91.5 58.5t-53.5 84t-17.5 98q0 48 14 96t42 91l83 -37q-20 -40 -29 -75.5t-9 -66.5q0 -51 22 -85.5t65 -52t105 -17.5l285 1q43 0 64 6.5t28 24.5t7 52v284h101v-284q0 -67 -21 -111t-65 -65.5t-114 -21.5zM927 0q-70 0 -114 21.5t-65 65.5
t-21 111h101q0 -34 7 -52t28.5 -24.5t63.5 -6.5h23v-115h-23zM950 0v115q11 0 15.5 -15.5t4.5 -41.5t-4.5 -42t-15.5 -16z" />
    <glyph glyph-name="uni066F.fina" unicode="&#x66f;" horiz-adv-x="921" 
d="M730 0v115h191v-115h-191zM921 0v115q11 0 15.5 -15.5t4.5 -41.5t-4.5 -42t-15.5 -16zM422 -285q-88 0 -159 32t-120.5 89.5t-76 133.5t-26.5 164q0 42 6.5 84.5t17.5 82.5l96 -19q-10 -39 -14.5 -75.5t-4.5 -69.5q0 -96 36 -164.5t99.5 -105.5t145.5 -37q81 0 144 36.5
t99 105t36 162.5v327h101v-327q0 -88 -26 -164t-75.5 -133.5t-120 -89.5t-158.5 -32zM607 0q-78 0 -135.5 34t-89.5 91.5t-32 126.5q0 56 20 103.5t56 83t83 55.5t101 20q53 0 103 -16.5t89 -36.5l-45 -103q-82 41 -147 41q-45 0 -81 -19.5t-57 -52.5t-21 -75
q0 -40 19.5 -71t54.5 -48.5t82 -17.5h144v-115h-144z" />
    <glyph glyph-name="uni06A1.init" unicode="&#x6a1;" horiz-adv-x="640" 
d="M0 0v115h479v346h101v-461h-580zM313 2q-54 18 -96 53t-65.5 85t-23.5 110q0 76 35 135.5t94 94t131 34.5q53 0 103 -16.5t89 -36.5l-45 -103q-40 20 -77.5 30.5t-69.5 10.5q-46 0 -82 -19.5t-56.5 -53t-20.5 -76.5q0 -60 28 -104.5t83 -71.5zM0 0q-11 0 -15.5 16
t-4.5 43q0 26 4.5 41t15.5 15v-115z" />
    <glyph glyph-name="uni06A1.medi" unicode="&#x6a1;" horiz-adv-x="645" 
d="M0 0v115q53 0 101.5 3t90.5 9q5 1 9 -5.5t8.5 -12t8.5 -5.5q77 15 130 40t81 58t28 73q0 36 -17 64t-47 44t-70 16q-39 0 -69.5 -16t-47.5 -43.5t-17 -63.5q0 -40 29.5 -74.5t85.5 -59.5t137 -39q5 -1 9 5t8.5 12.5t8.5 5.5q40 -5 84.5 -8t93.5 -3v-115q-122 0 -224 17
t-176.5 51.5t-115.5 89t-41 129.5q0 67 31.5 118t85 80t118.5 29t118 -28.5t85 -80t32 -119.5t-32.5 -117t-88 -81.5t-127.5 -52t-151.5 -27.5t-158.5 -8zM645 0v115q11 0 15.5 -15.5t4.5 -41.5t-4.5 -42t-15.5 -16zM0 0q-11 0 -15.5 16t-4.5 43q0 26 4.5 41t15.5 15v-115z
" />
    <glyph glyph-name="uni06A1.fina" unicode="&#x6a1;" horiz-adv-x="1069" 
d="M343 0q-75 0 -130.5 21.5t-91.5 58.5t-53.5 84t-17.5 98q0 48 14 96t42 91l83 -37q-20 -40 -29 -75.5t-9 -66.5q0 -51 22 -85.5t65 -52t105 -17.5h81v-115h-81zM1069 0v115q11 0 15.5 -15.5t4.5 -41.5t-4.5 -42t-15.5 -16zM424 0q-11 0 -15.5 16t-4.5 43q0 26 4.5 41
t15.5 15v-115zM424 0v115q53 0 101.5 3t90.5 9q5 1 9 -5.5t8.5 -12t8.5 -5.5q77 15 130 40t81 58t28 73q0 36 -17 64t-47 44t-70 16q-39 0 -69.5 -16t-47.5 -43.5t-17 -63.5q0 -40 29.5 -74.5t85.5 -59.5t137 -39q5 -1 9 5t8.5 12.5t8.5 5.5q40 -5 84.5 -8t93.5 -3v-115
q-122 0 -224 17t-176.5 51.5t-115.5 89t-41 129.5q0 67 31.5 118t85 80t118.5 29t118 -28.5t85 -80t32 -119.5t-32.5 -117t-88 -81.5t-127.5 -52t-151.5 -27.5t-158.5 -8z" />
    <glyph glyph-name="uni06C2.fina" unicode="&#x6c2;" horiz-adv-x="637" 
d="M325 30q-61 0 -113.5 14t-90.5 41t-59.5 67.5t-21.5 94.5q0 61 27.5 107.5t77 79.5t115.5 53.5t143 29.5l12 -114q-46 -5 -94 -16.5t-89 -30.5t-66 -46t-25 -63q0 -35 25 -58t67 -33.5t92 -10.5q38 0 70.5 5t60.5 14l30 -110q-37 -12 -78.5 -18t-82.5 -6zM596 0
q-70 0 -114 21.5t-65 65.5t-21 111v346h101v-346q0 -34 7 -52t28.5 -24.5t63.5 -6.5h41v-115h-41zM637 0v115q11 0 15.5 -15.5t4.5 -41.5t-4.5 -42t-15.5 -16zM320 635q-53 0 -86.5 20.5t-33.5 60.5q0 28 16 48t42 31t56 11q18 0 35.5 -4t33.5 -12l-26 -57q-8 2 -18.5 3
t-18.5 1q-28 0 -44 -8t-16 -18t16 -18t44 -8v-50zM182 615v70h212v-70h-212z" />
    <glyph glyph-name="uni06C3.fina" unicode="&#x6c3;" horiz-adv-x="702" 
d="M702 0q-64 0 -106.5 15t-71.5 50.5t-54 95.5q-31 78 -68.5 115t-91.5 37q-42 0 -71 -21.5t-47.5 -56t-31 -74.5t-23.5 -76l-97 32q21 75 45.5 132.5t55 97.5t72 60.5t97.5 20.5q89 0 150 -58t104 -167q15 -37 30 -56t39.5 -25.5t68.5 -6.5v-115zM702 0v115
q11 0 15.5 -15.5t4.5 -41.5t-4.5 -42t-15.5 -16zM381 550q-26 0 -43.5 17.5t-17.5 43.5q0 27 17.5 44t43.5 17t43.5 -17t17.5 -44q0 -26 -17.5 -43.5t-43.5 -17.5zM239 550q-26 0 -43.5 17.5t-17.5 43.5q0 27 17.5 44t43.5 17t43.5 -17t17.5 -44q0 -26 -17.5 -43.5
t-43.5 -17.5z" />
    <glyph glyph-name="uniFB51" unicode="&#x671;" horiz-adv-x="300" arabic-form="final" 
d="M181 0v115h119v-115h-119zM80 0v708h101v-708h-101zM300 0v115q11 0 15.5 -15.5t4.5 -41.5t-4.5 -42t-15.5 -16zM232 792v71q0 19 -10.5 28t-27.5 9q-16 0 -34.5 -10.5t-31.5 -29t-13 -44.5h-42q0 20 5.5 46.5t19 51t36 40.5t56.5 16q32 0 52.5 -14.5t30.5 -37.5t10 -51
v-75h-51zM157 792q-40 0 -68.5 11.5t-51.5 40.5l29 12l-25 -27.5t-29 -33.5l-34 25q17 39 35 60t34 21q10 0 17 -6t18 -13.5t31 -13.5t55 -6h115v-70h-126z" />
    <glyph glyph-name="uniFB57" unicode="&#x67e;" horiz-adv-x="950" arabic-form="final" 
d="M343 -1q-75 0 -130.5 21.5t-91.5 58.5t-53.5 84t-17.5 98q0 48 14 96t42 91l83 -37q-20 -40 -29 -75.5t-9 -66.5q0 -51 22 -85.5t65 -52t105 -17.5l285 1q43 0 64 6.5t28 24.5t7 52v284h101v-284q0 -67 -21 -111t-65 -65.5t-114 -21.5zM927 0q-70 0 -114 21.5t-65 65.5
t-21 111h101q0 -34 7 -52t28.5 -24.5t63.5 -6.5h23v-115h-23zM950 0v115q11 0 15.5 -15.5t4.5 -41.5t-4.5 -42t-15.5 -16zM439 -366q-25 0 -43 18t-18 43q0 27 18 44t43 17q26 0 43.5 -17t17.5 -44q0 -25 -17.5 -43t-43.5 -18zM510 -243q-26 0 -43.5 18t-17.5 43
q0 27 17.5 44t43.5 17t43.5 -17t17.5 -44q0 -25 -17.5 -43t-43.5 -18zM368 -243q-26 0 -43.5 18t-17.5 43q0 27 17.5 44t43.5 17t43.5 -17t17.5 -44q0 -25 -17.5 -43t-43.5 -18z" />
    <glyph glyph-name="uniFB58" unicode="&#x67e;" horiz-adv-x="311" arabic-form="initial" 
d="M140 482h101v-482h-241v115h140v367zM0 0q-11 0 -15.5 16t-4.5 43q0 26 4.5 41t15.5 15v-115zM152 -366q-25 0 -43 18t-18 43q0 27 18 44t43 17q26 0 43.5 -17t17.5 -44q0 -25 -17.5 -43t-43.5 -18zM223 -243q-26 0 -43.5 18t-17.5 43q0 27 17.5 44t43.5 17t43.5 -17
t17.5 -44q0 -25 -17.5 -43t-43.5 -18zM81 -243q-26 0 -43.5 18t-17.5 43q0 27 17.5 44t43.5 17t43.5 -17t17.5 -44q0 -25 -17.5 -43t-43.5 -18z" />
    <glyph glyph-name="uniFB59" unicode="&#x67e;" horiz-adv-x="391" arabic-form="medial" 
d="M0 0v115h51q43 0 64 6.5t28 24.5t7 52v284h101v-284q0 -67 -21 -111t-65 -65.5t-114 -21.5h-51zM350 0q-70 0 -114 21.5t-65 65.5t-21 111h101q0 -34 7 -52t28.5 -24.5t63.5 -6.5h41v-115h-41zM391 0v115q11 0 15.5 -15.5t4.5 -41.5t-4.5 -42t-15.5 -16zM0 0
q-11 0 -15.5 16t-4.5 43q0 26 4.5 41t15.5 15v-115zM201 -366q-25 0 -43 18t-18 43q0 27 18 44t43 17q26 0 43.5 -17t17.5 -44q0 -25 -17.5 -43t-43.5 -18zM272 -243q-26 0 -43.5 18t-17.5 43q0 27 17.5 44t43.5 17t43.5 -17t17.5 -44q0 -25 -17.5 -43t-43.5 -18zM130 -243
q-26 0 -43.5 18t-17.5 43q0 27 17.5 44t43.5 17t43.5 -17t17.5 -44q0 -25 -17.5 -43t-43.5 -18z" />
    <glyph glyph-name="uniFB67" unicode="&#x679;" horiz-adv-x="950" arabic-form="final" 
d="M343 -1q-75 0 -130.5 21.5t-91.5 58.5t-53.5 84t-17.5 98q0 48 14 96t42 91l83 -37q-20 -40 -29 -75.5t-9 -66.5q0 -51 22 -85.5t65 -52t105 -17.5l285 1q43 0 64 6.5t28 24.5t7 52v284h101v-284q0 -67 -21 -111t-65 -65.5t-114 -21.5zM927 0q-70 0 -114 21.5t-65 65.5
t-21 111h101q0 -34 7 -52t28.5 -24.5t63.5 -6.5h23v-115h-23zM950 0v115q11 0 15.5 -15.5t4.5 -41.5t-4.5 -42t-15.5 -16zM316 487v66h24v149h66v-70q14 13 32 20t40 7q38 0 60.5 -28.5t22.5 -77.5v-66h-245zM406 553h86q-1 20 -9.5 32t-24.5 12q-25 0 -37.5 -12.5
t-14.5 -31.5z" />
    <glyph glyph-name="uniFB68" unicode="&#x679;" horiz-adv-x="311" arabic-form="initial" 
d="M140 482h101v-482h-241v115h140v367zM0 0q-11 0 -15.5 16t-4.5 43q0 26 4.5 41t15.5 15v-115zM68 586v66h24v149h66v-70q14 13 32 20t40 7q38 0 60.5 -28.5t22.5 -77.5v-66h-245zM158 652h86q-1 20 -9.5 32t-24.5 12q-25 0 -37.5 -12.5t-14.5 -31.5z" />
    <glyph glyph-name="uniFB69" unicode="&#x679;" horiz-adv-x="391" arabic-form="medial" 
d="M0 0v115h51q43 0 64 6.5t28 24.5t7 52v284h101v-284q0 -67 -21 -111t-65 -65.5t-114 -21.5h-51zM350 0q-70 0 -114 21.5t-65 65.5t-21 111h101q0 -34 7 -52t28.5 -24.5t63.5 -6.5h41v-115h-41zM391 0v115q11 0 15.5 -15.5t4.5 -41.5t-4.5 -42t-15.5 -16zM0 0
q-11 0 -15.5 16t-4.5 43q0 26 4.5 41t15.5 15v-115zM78 586v66h24v149h66v-70q14 13 32 20t40 7q38 0 60.5 -28.5t22.5 -77.5v-66h-245zM168 652h86q-1 20 -9.5 32t-24.5 12q-25 0 -37.5 -12.5t-14.5 -31.5z" />
    <glyph glyph-name="uniFB6B" unicode="&#x6a4;" horiz-adv-x="1069" arabic-form="final" 
d="M343 0q-75 0 -130.5 21.5t-91.5 58.5t-53.5 84t-17.5 98q0 48 14 96t42 91l83 -37q-20 -40 -29 -75.5t-9 -66.5q0 -51 22 -85.5t65 -52t105 -17.5h81v-115h-81zM1069 0v115q11 0 15.5 -15.5t4.5 -41.5t-4.5 -42t-15.5 -16zM424 0q-11 0 -15.5 16t-4.5 43q0 26 4.5 41
t15.5 15v-115zM424 0v115q53 0 101.5 3t90.5 9q5 1 9 -5.5t8.5 -12t8.5 -5.5q77 15 130 40t81 58t28 73q0 36 -17 64t-47 44t-70 16q-39 0 -69.5 -16t-47.5 -43.5t-17 -63.5q0 -40 29.5 -74.5t85.5 -59.5t137 -39q5 -1 9 5t8.5 12.5t8.5 5.5q40 -5 84.5 -8t93.5 -3v-115
q-122 0 -224 17t-176.5 51.5t-115.5 89t-41 129.5q0 67 31.5 118t85 80t118.5 29t118 -28.5t85 -80t32 -119.5t-32.5 -117t-88 -81.5t-127.5 -52t-151.5 -27.5t-158.5 -8zM747 881q26 0 43.5 -17.5t17.5 -43.5q0 -27 -17.5 -44t-43.5 -17q-25 0 -43 17t-18 44q0 26 18 43.5
t43 17.5zM818 758q26 0 43.5 -17.5t17.5 -43.5q0 -27 -17.5 -44t-43.5 -17t-43.5 17t-17.5 44q0 26 17.5 43.5t43.5 17.5zM676 758q26 0 43.5 -17.5t17.5 -43.5q0 -27 -17.5 -44t-43.5 -17t-43.5 17t-17.5 44q0 26 17.5 43.5t43.5 17.5z" />
    <glyph glyph-name="uniFB6C" unicode="&#x6a4;" horiz-adv-x="640" arabic-form="initial" 
d="M0 0v115h479v346h101v-461h-580zM313 2q-54 18 -96 53t-65.5 85t-23.5 110q0 76 35 135.5t94 94t131 34.5q53 0 103 -16.5t89 -36.5l-45 -103q-40 20 -77.5 30.5t-69.5 10.5q-46 0 -82 -19.5t-56.5 -53t-20.5 -76.5q0 -60 28 -104.5t83 -71.5zM0 0q-11 0 -15.5 16
t-4.5 43q0 26 4.5 41t15.5 15v-115zM388 881q26 0 43.5 -17.5t17.5 -43.5q0 -27 -17.5 -44t-43.5 -17q-25 0 -43 17t-18 44q0 26 18 43.5t43 17.5zM459 758q26 0 43.5 -17.5t17.5 -43.5q0 -27 -17.5 -44t-43.5 -17t-43.5 17t-17.5 44q0 26 17.5 43.5t43.5 17.5zM317 758
q26 0 43.5 -17.5t17.5 -43.5q0 -27 -17.5 -44t-43.5 -17t-43.5 17t-17.5 44q0 26 17.5 43.5t43.5 17.5z" />
    <glyph glyph-name="uniFB6D" unicode="&#x6a4;" horiz-adv-x="645" arabic-form="medial" 
d="M0 0v115q53 0 101.5 3t90.5 9q5 1 9 -5.5t8.5 -12t8.5 -5.5q77 15 130 40t81 58t28 73q0 36 -17 64t-47 44t-70 16q-39 0 -69.5 -16t-47.5 -43.5t-17 -63.5q0 -40 29.5 -74.5t85.5 -59.5t137 -39q5 -1 9 5t8.5 12.5t8.5 5.5q40 -5 84.5 -8t93.5 -3v-115q-122 0 -224 17
t-176.5 51.5t-115.5 89t-41 129.5q0 67 31.5 118t85 80t118.5 29t118 -28.5t85 -80t32 -119.5t-32.5 -117t-88 -81.5t-127.5 -52t-151.5 -27.5t-158.5 -8zM645 0v115q11 0 15.5 -15.5t4.5 -41.5t-4.5 -42t-15.5 -16zM0 0q-11 0 -15.5 16t-4.5 43q0 26 4.5 41t15.5 15v-115z
M323 881q26 0 43.5 -17.5t17.5 -43.5q0 -27 -17.5 -44t-43.5 -17q-25 0 -43 17t-18 44q0 26 18 43.5t43 17.5zM394 758q26 0 43.5 -17.5t17.5 -43.5q0 -27 -17.5 -44t-43.5 -17t-43.5 17t-17.5 44q0 26 17.5 43.5t43.5 17.5zM252 758q26 0 43.5 -17.5t17.5 -43.5
q0 -27 -17.5 -44t-43.5 -17t-43.5 17t-17.5 44q0 26 17.5 43.5t43.5 17.5z" />
    <glyph glyph-name="uniFB7B" unicode="&#x686;" horiz-adv-x="764" arabic-form="final" 
d="M644 0v115h120v-115h-120zM764 0v115q11 0 15.5 -15.5t4.5 -41.5t-4.5 -42t-15.5 -16zM528 -264q-19 0 -32.5 13.5t-13.5 32.5q0 20 13.5 33t32.5 13t32.5 -13t13.5 -33q0 -19 -13.5 -32.5t-32.5 -13.5zM582 -171q-20 0 -33 13t-13 33t13 32.5t33 12.5q19 0 32 -12.5
t13 -32.5t-13 -33t-32 -13zM475 -171q-20 0 -33 13t-13 33t13 32.5t33 12.5q19 0 32.5 -12.5t13.5 -32.5t-13.5 -33t-32.5 -13zM521 0v262q0 46 -23.5 80.5t-67.5 54t-105 19.5q-48 0 -93.5 -11t-79.5 -27l-41 91q49 31 104 46.5t112 15.5q65 0 119 -19.5t93.5 -55.5
t61 -85.5t21.5 -108.5v-262h-101zM312 -368q-52 0 -100.5 15t-87.5 44.5t-61.5 72t-22.5 97.5q0 48 19 93.5t57 81.5t95 57.5t133 21.5v-115q-62 0 -107.5 -18.5t-70.5 -49t-25 -67.5q0 -35 21.5 -61.5t60.5 -41.5t90 -15q28 0 56 4.5t53 12.5l35 -100q-34 -16 -70.5 -24
t-74.5 -8zM344 0v115h322l-18 -115h-304z" />
    <glyph glyph-name="uniFB7C" unicode="&#x686;" horiz-adv-x="634" arabic-form="initial" 
d="M441 0v262q0 46 -23.5 80.5t-67.5 54t-105 19.5q-48 0 -93.5 -11t-79.5 -27l-41 91q49 31 104 46.5t112 15.5q65 0 119 -19.5t93.5 -55.5t61 -85.5t21.5 -108.5v-262h-101zM0 0v115h586l-18 -115h-568zM0 0q-11 0 -15.5 16t-4.5 43q0 26 4.5 41t15.5 15v-115zM262 -366
q-25 0 -43 18t-18 43q0 27 18 44t43 17q26 0 43.5 -17t17.5 -44q0 -25 -17.5 -43t-43.5 -18zM333 -243q-26 0 -43.5 18t-17.5 43q0 27 17.5 44t43.5 17t43.5 -17t17.5 -44q0 -25 -17.5 -43t-43.5 -18zM191 -243q-26 0 -43.5 18t-17.5 43q0 27 17.5 44t43.5 17t43.5 -17
t17.5 -44q0 -25 -17.5 -43t-43.5 -18z" />
    <glyph glyph-name="uniFB7D" unicode="&#x686;" horiz-adv-x="661" arabic-form="medial" 
d="M520 0v115h141v-115h-141zM0 0q-11 0 -15.5 16t-4.5 43q0 26 4.5 41t15.5 15v-115zM441 0v262q0 46 -23.5 80.5t-67.5 54t-105 19.5q-48 0 -93.5 -11t-79.5 -27l-41 91q49 31 104 46.5t112 15.5q65 0 119 -19.5t93.5 -55.5t61 -85.5t21.5 -108.5v-262h-101zM0 0v115h586
l-18 -115h-568zM661 0v115q11 0 15.5 -15.5t4.5 -41.5t-4.5 -42t-15.5 -16zM262 -366q-25 0 -43 18t-18 43q0 27 18 44t43 17q26 0 43.5 -17t17.5 -44q0 -25 -17.5 -43t-43.5 -18zM333 -243q-26 0 -43.5 18t-17.5 43q0 27 17.5 44t43.5 17t43.5 -17t17.5 -44
q0 -25 -17.5 -43t-43.5 -18zM191 -243q-26 0 -43.5 18t-17.5 43q0 27 17.5 44t43.5 17t43.5 -17t17.5 -44q0 -25 -17.5 -43t-43.5 -18z" />
    <glyph glyph-name="uniFB89" unicode="&#x688;" horiz-adv-x="614" arabic-form="final" 
d="M422 0v115h192v-115h-192zM614 0v115q11 0 15.5 -15.5t4.5 -41.5t-4.5 -42t-15.5 -16zM433 0q-1 107 -38 191t-105.5 140t-164.5 78l23 112q118 -27 204 -99.5t133.5 -180t48.5 -241.5h-101zM40 0v115h473v-115h-473zM111 625v66h24v149h66v-70q14 13 32 20t40 7
q38 0 60.5 -28.5t22.5 -77.5v-66h-245zM201 691h86q-1 20 -9.5 32t-24.5 12q-25 0 -37.5 -12.5t-14.5 -31.5z" />
    <glyph glyph-name="uniFB8B" unicode="&#x698;" horiz-adv-x="352" arabic-form="final" 
d="M205 0v115h147v-115h-147zM0 -155q48 -1 77 9.5t42 35.5t13 64v528h101v-528q0 -69 -26 -118t-73.5 -75t-114.5 -27zM352 0v115q11 0 15.5 -15.5t4.5 -41.5t-4.5 -42t-15.5 -16zM183 849q26 0 43.5 -17.5t17.5 -43.5q0 -27 -17.5 -44t-43.5 -17q-25 0 -43 17t-18 44
q0 26 18 43.5t43 17.5zM254 726q26 0 43.5 -17.5t17.5 -43.5q0 -27 -17.5 -44t-43.5 -17t-43.5 17t-17.5 44q0 26 17.5 43.5t43.5 17.5zM112 726q26 0 43.5 -17.5t17.5 -43.5q0 -27 -17.5 -44t-43.5 -17t-43.5 17t-17.5 44q0 26 17.5 43.5t43.5 17.5z" />
    <glyph glyph-name="uniFB8D" unicode="&#x691;" horiz-adv-x="352" arabic-form="final" 
d="M205 0v115h147v-115h-147zM0 -155q48 -1 77 9.5t42 35.5t13 64v528h101v-528q0 -69 -26 -118t-73.5 -75t-114.5 -27zM352 0v115q11 0 15.5 -15.5t4.5 -41.5t-4.5 -42t-15.5 -16zM60 586v66h24v149h66v-70q14 13 32 20t40 7q38 0 60.5 -28.5t22.5 -77.5v-66h-245zM150 652
h86q-1 20 -9.5 32t-24.5 12q-25 0 -37.5 -12.5t-14.5 -31.5z" />
    <glyph glyph-name="uniFB8F" unicode="&#x6a9;" horiz-adv-x="950" arabic-form="final" 
d="M503 115v-115h-170q-75 0 -130.5 21.5t-91.5 58.5t-53.5 84t-17.5 98q0 48 14 96t42 91l83 -37q-20 -40 -29 -75.5t-9 -66.5q0 -51 22 -85.5t65 -52t105 -17.5h170zM385 0q-11 0 -15.5 16t-4.5 43q0 26 4.5 41t15.5 15v-115zM385 0v115h174q48 0 81.5 11.5t51 31
t17.5 43.5q0 16 -8.5 33t-33 41t-72.5 61.5t-128 94.5l-50 38l67 87l70 -52q65 -48 113.5 -85.5t80 -71.5t47 -69t15.5 -77q0 -64 -33 -109t-90 -68.5t-128 -23.5h-174zM417 469v124l433 200v-125zM950 0v115q11 0 15.5 -15.5t4.5 -41.5t-4.5 -42t-15.5 -16zM909 0
q-70 0 -114 21.5t-65 65.5t-21 111v2h101v-2q0 -34 7 -52t28.5 -24.5t63.5 -6.5h41v-115h-41z" />
    <glyph glyph-name="uniFB90" unicode="&#x6a9;" horiz-adv-x="525" arabic-form="initial" 
d="M0 0v115h174q48 0 81.5 11.5t51 31t17.5 43.5q0 16 -8.5 33t-33 41t-72.5 61.5t-128 94.5l-50 38l67 87l70 -52q65 -48 113.5 -85.5t80 -71.5t47 -69t15.5 -77q0 -64 -33 -109t-90 -68.5t-128 -23.5h-174zM32 469v124l433 200v-125zM0 0q-11 0 -15.5 16t-4.5 43
q0 26 4.5 41t15.5 15v-115z" />
    <glyph glyph-name="uniFB91" unicode="&#x6a9;" horiz-adv-x="565" arabic-form="medial" 
d="M524 0q-70 0 -114 21.5t-65 65.5t-21 111v2h101v-2q0 -34 7 -52t28.5 -24.5t63.5 -6.5h41v-115h-41zM0 0q-11 0 -15.5 16t-4.5 43q0 26 4.5 41t15.5 15v-115zM0 0v115h174q48 0 81.5 11.5t51 31t17.5 43.5q0 16 -8.5 33t-33 41t-72.5 61.5t-128 94.5l-50 38l67 87l70 -52
q65 -48 113.5 -85.5t80 -71.5t47 -69t15.5 -77q0 -64 -33 -109t-90 -68.5t-128 -23.5h-174zM32 469v124l433 200v-125zM565 0v115q11 0 15.5 -15.5t4.5 -41.5t-4.5 -42t-15.5 -16z" />
    <glyph glyph-name="uniFB93" unicode="&#x6af;" horiz-adv-x="950" arabic-form="final" 
d="M503 115v-115h-170q-75 0 -130.5 21.5t-91.5 58.5t-53.5 84t-17.5 98q0 48 14 96t42 91l83 -37q-20 -40 -29 -75.5t-9 -66.5q0 -51 22 -85.5t65 -52t105 -17.5h170zM385 0q-11 0 -15.5 16t-4.5 43q0 26 4.5 41t15.5 15v-115zM385 0v115h174q48 0 81.5 11.5t51 31
t17.5 43.5q0 16 -8.5 33t-33 41t-72.5 61.5t-128 94.5l-50 38l67 87l70 -52q65 -48 113.5 -85.5t80 -71.5t47 -69t15.5 -77q0 -64 -33 -109t-90 -68.5t-128 -23.5h-174zM417 469v124l433 200v-125zM417 681v124l433 200v-125zM950 0v115q11 0 15.5 -15.5t4.5 -41.5t-4.5 -42
t-15.5 -16zM909 0q-70 0 -114 21.5t-65 65.5t-21 111v2h101v-2q0 -34 7 -52t28.5 -24.5t63.5 -6.5h41v-115h-41z" />
    <glyph glyph-name="uniFB94" unicode="&#x6af;" horiz-adv-x="493" arabic-form="initial" 
d="M32 681v124l433 200v-125zM0 0q-11 0 -15.5 16t-4.5 43q0 26 4.5 41t15.5 15v-115zM0 0v115h174q48 0 81.5 11.5t51 31t17.5 43.5q0 16 -8.5 33t-33 41t-72.5 61.5t-128 94.5l-50 38l67 87l70 -52q65 -48 113.5 -85.5t80 -71.5t47 -69t15.5 -77q0 -64 -33 -109t-90 -68.5
t-128 -23.5h-174zM32 469v124l433 200v-125z" />
    <glyph glyph-name="uniFB95" unicode="&#x6af;" horiz-adv-x="565" arabic-form="medial" 
d="M524 0q-70 0 -114 21.5t-65 65.5t-21 111v2h101v-2q0 -34 7 -52t28.5 -24.5t63.5 -6.5h41v-115h-41zM0 0q-11 0 -15.5 16t-4.5 43q0 26 4.5 41t15.5 15v-115zM0 0v115h174q48 0 81.5 11.5t51 31t17.5 43.5q0 16 -8.5 33t-33 41t-72.5 61.5t-128 94.5l-50 38l67 87l70 -52
q65 -48 113.5 -85.5t80 -71.5t47 -69t15.5 -77q0 -64 -33 -109t-90 -68.5t-128 -23.5h-174zM32 469v124l433 200v-125zM32 681v124l433 200v-125zM565 0v115q11 0 15.5 -15.5t4.5 -41.5t-4.5 -42t-15.5 -16z" />
    <glyph glyph-name="uniFB9F" unicode="&#x6ba;" horiz-adv-x="820" arabic-form="final" 
d="M779 0q-88 0 -135.5 34.5t-59.5 104.5l97 40q3 -39 22 -51.5t76 -12.5h41v-115h-41zM361 -266q-78 0 -137.5 27t-100.5 75t-62 111.5t-21 137.5q0 44 7 89t19 86l96 -18q-10 -42 -15.5 -80.5t-5.5 -76.5q0 -74 26 -127t75.5 -81t118.5 -28q70 0 119 28t75 81t26 127v397
h101v-397q0 -74 -21 -137.5t-62 -111.5t-100.5 -75t-137.5 -27zM820 0v115q11 0 15.5 -15.5t4.5 -41.5t-4.5 -42t-15.5 -16z" />
    <glyph glyph-name="uniFBA7" unicode="&#x6c1;" horiz-adv-x="702" arabic-form="final" 
d="M702 0q-64 0 -106.5 15t-71.5 50.5t-54 95.5q-31 78 -68.5 115t-91.5 37q-42 0 -71 -21.5t-47.5 -56t-31 -74.5t-23.5 -76l-97 32q21 75 45.5 132.5t55 97.5t72 60.5t97.5 20.5q89 0 150 -58t104 -167q15 -37 30 -56t39.5 -25.5t68.5 -6.5v-115zM702 0v115
q11 0 15.5 -15.5t4.5 -41.5t-4.5 -42t-15.5 -16z" />
    <glyph glyph-name="uniFBA8" unicode="&#x6c1;" horiz-adv-x="311" arabic-form="initial" 
d="M140 482h101v-482h-241v115h140v367zM0 0q-11 0 -15.5 16t-4.5 43q0 26 4.5 41t15.5 15v-115zM137 -91q38 0 55.5 -18.5t17.5 -42.5q0 -27 -17.5 -44t-44.5 -17q-24 0 -42.5 16t-18.5 45q0 14 5.5 26t11.5 24l57 114h59l-56 -156z" />
    <glyph glyph-name="uniFBA9" unicode="&#x6c1;" horiz-adv-x="498" arabic-form="medial" 
d="M498 115v-115h-21q-30 0 -49.5 -21.5t-32.5 -57t-21 -79t-16 -87.5l-87 -36q-83 39 -141 110t-76 171h-54v115h141q0 -43 5 -81t19 -73.5t41 -70t70 -70.5l-5 -2q12 71 28.5 126t40 93t57 58t80.5 20h21zM498 0v115q11 0 15.5 -15.5t4.5 -41.5t-4.5 -42t-15.5 -16zM0 0
q-11 0 -15.5 16t-4.5 43q0 26 4.5 41t15.5 15v-115z" />
    <glyph glyph-name="uniFBAB" unicode="&#x6be;" horiz-adv-x="994" arabic-form="final" 
d="M953 0q-59 0 -97 21.5t-55.5 65.5t-17.5 111l72 22q1 -46 9.5 -68.5t29.5 -29.5t59 -7h41v-115h-41zM48 -133l-3 18t-4.5 46.5t3 60t19.5 60t44.5 46.5t78.5 18v-116q-42 1 -62.5 -16t-27 -47t-6.5 -70h-42zM600 -2q-70 0 -140.5 21.5t-128 62t-92.5 97.5t-35 127
q0 60 26 110.5t71.5 81.5t103.5 31q44 0 81.5 -18t65 -48.5t43 -70t15.5 -82.5q0 -61 -26.5 -116.5t-79.5 -99t-132.5 -69t-185.5 -25.5v116q101 0 173.5 27t111 71.5t38.5 95.5q0 29 -14 52.5t-37.5 37.5t-52.5 14q-28 0 -50.5 -14t-36 -37t-13.5 -51q0 -44 29 -81.5
t76 -65t101 -42.5t104 -15q38 0 69.5 10.5t50.5 34.5t19 65q0 63 -53.5 112t-171 86.5t-311.5 65.5l15 114q141 -20 256 -49.5t196.5 -73t125.5 -105.5t44 -148q0 -60 -20.5 -102.5t-56.5 -68.5t-81.5 -38.5t-96.5 -12.5zM994 0v115q11 0 15.5 -15.5t4.5 -41.5t-4.5 -42
t-15.5 -16z" />
    <glyph glyph-name="uniFBAC" unicode="&#x6be;" horiz-adv-x="749" arabic-form="initial" 
d="M444 -2q-70 0 -140.5 21.5t-128 62t-92.5 97.5t-35 127q0 60 26 110.5t71.5 81.5t103.5 31q44 0 81.5 -18t65 -48.5t43 -70t15.5 -82.5q0 -61 -31 -116.5t-90 -99t-143 -69t-190 -25.5v115q76 0 140 16t112 43t74.5 62t26.5 74q0 29 -14 52.5t-37.5 37.5t-52.5 14
q-28 0 -50.5 -14t-36 -37t-13.5 -51q0 -44 29 -81.5t76 -65t101 -42.5t104 -15q38 0 69.5 10.5t50.5 34.5t19 65q0 55 -43.5 93t-136.5 65.5t-241 52.5q-5 1 -10.5 1.5t-11 1.5t-11.5 2q-30 5 -62.5 9.5t-67.5 10.5l13 113q149 -21 272.5 -45t213 -60.5t138 -94.5t48.5 -147
q0 -60 -20.5 -102.5t-56.5 -68.5t-81.5 -38.5t-96.5 -12.5zM0 0q-11 0 -15.5 16t-4.5 43q0 26 4.5 41t15.5 15v-115z" />
    <glyph glyph-name="uniFBAD" unicode="&#x6be;" horiz-adv-x="838" arabic-form="medial" 
d="M797 0q-59 0 -97 21.5t-55.5 65.5t-17.5 111l72 22q1 -46 9.5 -68.5t29.5 -29.5t59 -7h41v-115h-41zM0 0q-11 0 -15.5 16t-4.5 43q0 26 4.5 41t15.5 15v-115zM444 -2q-70 0 -140.5 21.5t-128 62t-92.5 97.5t-35 127q0 60 26 110.5t71.5 81.5t103.5 31q44 0 81.5 -18
t65 -48.5t43 -70t15.5 -82.5q0 -61 -31 -116.5t-90 -99t-143 -69t-190 -25.5v115q76 0 140 16t112 43t74.5 62t26.5 74q0 29 -14 52.5t-37.5 37.5t-52.5 14q-28 0 -50.5 -14t-36 -37t-13.5 -51q0 -44 29 -81.5t76 -65t101 -42.5t104 -15q38 0 69.5 10.5t50.5 34.5t19 65
q0 55 -43.5 93t-136.5 65.5t-241 52.5q-5 1 -10.5 1.5t-11 1.5t-11.5 2q-30 5 -62.5 9.5t-67.5 10.5l13 113q149 -21 272.5 -45t213 -60.5t138 -94.5t48.5 -147q0 -60 -20.5 -102.5t-56.5 -68.5t-81.5 -38.5t-96.5 -12.5zM838 0v115q11 0 15.5 -15.5t4.5 -41.5t-4.5 -42
t-15.5 -16z" />
    <glyph glyph-name="uniFBAF" unicode="&#x6d2;" horiz-adv-x="1082" arabic-form="final" 
d="M723 -251l22 -113q-31 -2 -60 -3t-57 -1q-85 0 -168 8t-156 25t-129.5 45t-88.5 68.5t-32 94.5q0 55 33.5 95.5t91.5 68.5t134.5 45.5t163 25t174.5 7.5h431v-115h-431q-103 0 -193.5 -11t-158 -29t-106 -40.5t-38.5 -46.5q0 -23 37 -45.5t102 -40.5t151 -29t183 -11
q23 0 46.5 0.5t48.5 1.5zM1082 0v115q11 0 15.5 -15.5t4.5 -41.5t-4.5 -42t-15.5 -16z" />
    <glyph glyph-name="uniFBB1" unicode="&#x6d3;" horiz-adv-x="1082" arabic-form="final" 
d="M723 -251l22 -113q-31 -2 -60 -3t-57 -1q-85 0 -168 8t-156 25t-129.5 45t-88.5 68.5t-32 94.5q0 55 33.5 95.5t91.5 68.5t134.5 45.5t163 25t174.5 7.5h431v-115h-431q-103 0 -193.5 -11t-158 -29t-106 -40.5t-38.5 -46.5q0 -23 37 -45.5t102 -40.5t151 -29t183 -11
q23 0 46.5 0.5t48.5 1.5zM1082 0v115q11 0 15.5 -15.5t4.5 -41.5t-4.5 -42t-15.5 -16zM217 219q-53 0 -86.5 20.5t-33.5 60.5q0 28 16 48t42 31t56 11q18 0 35.5 -4t33.5 -12l-26 -57q-8 2 -18.5 3t-18.5 1q-28 0 -44 -8t-16 -18t16 -18t44 -8v-50zM79 199v70h212v-70h-212z
" />
    <glyph glyph-name="uniFBFD" unicode="&#x6cc;" horiz-adv-x="875" arabic-form="final" 
d="M467 -322q-133 0 -229 37.5t-147 111.5t-51 183q0 32 4.5 65.5t12.5 70.5l95 -19q-6 -37 -8.5 -64t-2.5 -46q0 -112 80.5 -168t241.5 -56q96 0 165.5 17.5t107.5 46.5t38 63q0 20 -15 34t-50 28t-95 35l31 109q41 -13 82 -29t74.5 -39t53.5 -56.5t20 -82.5t-21 -87.5
t-58.5 -67.5t-88.5 -48t-112 -28.5t-128 -9.5zM723 0q-117 0 -177 58l70 82q7 -6 22.5 -12t37.5 -9.5t47 -3.5h152v-115h-152zM875 0v115q11 0 15.5 -15.5t4.5 -41.5t-4.5 -42t-15.5 -16z" />
    <glyph glyph-name="uniFBFE" unicode="&#x6cc;" horiz-adv-x="311" arabic-form="initial" 
d="M140 482h101v-482h-241v115h140v367zM0 0q-11 0 -15.5 16t-4.5 43q0 26 4.5 41t15.5 15v-115zM223 -244q-26 0 -43.5 18t-17.5 43q0 27 17.5 44t43.5 17t43.5 -17t17.5 -44q0 -25 -17.5 -43t-43.5 -18zM81 -244q-26 0 -43.5 18t-17.5 43q0 27 17.5 44t43.5 17t43.5 -17
t17.5 -44q0 -25 -17.5 -43t-43.5 -18z" />
    <glyph glyph-name="uniFBFF" unicode="&#x6cc;" horiz-adv-x="391" arabic-form="medial" 
d="M0 0v115h51q43 0 64 6.5t28 24.5t7 52v284h101v-284q0 -67 -21 -111t-65 -65.5t-114 -21.5h-51zM350 0q-70 0 -114 21.5t-65 65.5t-21 111h101q0 -34 7 -52t28.5 -24.5t63.5 -6.5h41v-115h-41zM391 0v115q11 0 15.5 -15.5t4.5 -41.5t-4.5 -42t-15.5 -16zM0 0
q-11 0 -15.5 16t-4.5 43q0 26 4.5 41t15.5 15v-115zM272 -244q-26 0 -43.5 18t-17.5 43q0 27 17.5 44t43.5 17t43.5 -17t17.5 -44q0 -25 -17.5 -43t-43.5 -18zM130 -244q-26 0 -43.5 18t-17.5 43q0 27 17.5 44t43.5 17t43.5 -17t17.5 -44q0 -25 -17.5 -43t-43.5 -18z" />
    <glyph glyph-name="uniFE82" unicode="&#x622;" horiz-adv-x="300" arabic-form="final" 
d="M181 0v115h119v-115h-119zM80 0v708h101v-708h-101zM300 0v115q11 0 15.5 -15.5t4.5 -41.5t-4.5 -42t-15.5 -16zM-27 788q0 56 28.5 85t87.5 29q25 0 62 -3.5t75 -6.5t63 -2v-76q-25 -2 -62.5 0.5t-75 6t-62.5 3.5q-28 0 -37.5 -7.5t-9.5 -28.5h-69z" />
    <glyph glyph-name="uniFE84" unicode="&#x623;" horiz-adv-x="300" arabic-form="final" 
d="M181 0v115h119v-115h-119zM80 0v708h101v-708h-101zM300 0v115q11 0 15.5 -15.5t4.5 -41.5t-4.5 -42t-15.5 -16zM163 812q-53 0 -86.5 20.5t-33.5 60.5q0 28 16 48t42 31t56 11q18 0 35.5 -4t33.5 -12l-26 -57q-8 2 -18.5 3t-18.5 1q-28 0 -44 -8t-16 -18t16 -18t44 -8
v-50zM25 792v70h212v-70h-212z" />
    <glyph glyph-name="uniFE86" unicode="&#x624;" horiz-adv-x="611" arabic-form="final" 
d="M465 0v115h146v-115h-146zM611 0v115q11 0 15.5 -15.5t4.5 -41.5t-4.5 -42t-15.5 -16zM80 -266v115h195q62 0 89 25t27 80v507h101v-507q0 -70 -26.5 -119.5t-75 -75t-115.5 -25.5h-195zM297 0q-78 0 -135.5 34t-89.5 91.5t-32 126.5q0 56 20 103.5t56 83t83 55.5t101 20
q53 0 103 -16.5t89 -36.5l-45 -103q-82 41 -147 41q-45 0 -81 -19.5t-57 -52.5t-21 -75q0 -40 19.5 -71t54.5 -48.5t82 -17.5h144v-115h-144zM308 658q-53 0 -86.5 20.5t-33.5 60.5q0 28 16 48t42 31t56 11q18 0 35.5 -4t33.5 -12l-26 -57q-8 2 -18.5 3t-18.5 1
q-28 0 -44 -8t-16 -18t16 -18t44 -8v-50zM170 638v70h212v-70h-212z" />
    <glyph glyph-name="uniFE88" unicode="&#x625;" horiz-adv-x="300" arabic-form="final" 
d="M181 0v115h119v-115h-119zM80 0v820h101v-820h-101zM300 0v115q11 0 15.5 -15.5t4.5 -41.5t-4.5 -42t-15.5 -16zM163 -255q-53 0 -86.5 20.5t-33.5 60.5q0 28 16 48t42 31t56 11q18 0 35.5 -4t33.5 -12l-26 -57q-8 2 -18.5 3t-18.5 1q-28 0 -44 -8t-16 -18t16 -18t44 -8
v-50zM25 -275v70h212v-70h-212z" />
    <glyph glyph-name="uniFE8A" unicode="&#x626;" horiz-adv-x="875" arabic-form="final" 
d="M467 -322q-133 0 -229 37.5t-147 111.5t-51 183q0 32 4.5 65.5t12.5 70.5l95 -19q-6 -37 -8.5 -64t-2.5 -46q0 -112 80.5 -168t241.5 -56q96 0 165.5 17.5t107.5 46.5t38 63q0 20 -15 34t-50 28t-95 35l31 109q41 -13 82 -29t74.5 -39t53.5 -56.5t20 -82.5t-21 -87.5
t-58.5 -67.5t-88.5 -48t-112 -28.5t-128 -9.5zM723 0q-117 0 -177 58l70 82q7 -6 22.5 -12t37.5 -9.5t47 -3.5h152v-115h-152zM875 0v115q11 0 15.5 -15.5t4.5 -41.5t-4.5 -42t-15.5 -16zM147 270q-53 0 -86.5 20.5t-33.5 60.5q0 28 16 48t42 31t56 11q18 0 35.5 -4
t33.5 -12l-26 -57q-8 2 -18.5 3t-18.5 1q-28 0 -44 -8t-16 -18t16 -18t44 -8v-50zM9 250v70h212v-70h-212z" />
    <glyph glyph-name="uniFE8B" unicode="&#x626;" horiz-adv-x="311" arabic-form="initial" 
d="M140 482h101v-482h-241v115h140v367zM0 0q-11 0 -15.5 16t-4.5 43q0 26 4.5 41t15.5 15v-115zM223 626q-53 0 -86.5 20.5t-33.5 60.5q0 28 16 48t42 31t56 11q18 0 35.5 -4t33.5 -12l-26 -57q-8 2 -18.5 3t-18.5 1q-28 0 -44 -8t-16 -18t16 -18t44 -8v-50zM85 606v70h212
v-70h-212z" />
    <glyph glyph-name="uniFE8C" unicode="&#x626;" horiz-adv-x="391" arabic-form="medial" 
d="M0 0v115h51q43 0 64 6.5t28 24.5t7 52v284h101v-284q0 -67 -21 -111t-65 -65.5t-114 -21.5h-51zM350 0q-70 0 -114 21.5t-65 65.5t-21 111h101q0 -34 7 -52t28.5 -24.5t63.5 -6.5h41v-115h-41zM391 0v115q11 0 15.5 -15.5t4.5 -41.5t-4.5 -42t-15.5 -16zM0 0
q-11 0 -15.5 16t-4.5 43q0 26 4.5 41t15.5 15v-115zM233 626q-53 0 -86.5 20.5t-33.5 60.5q0 28 16 48t42 31t56 11q18 0 35.5 -4t33.5 -12l-26 -57q-8 2 -18.5 3t-18.5 1q-28 0 -44 -8t-16 -18t16 -18t44 -8v-50zM95 606v70h212v-70h-212z" />
    <glyph glyph-name="uniFE8E" unicode="&#x627;" horiz-adv-x="300" arabic-form="final" 
d="M181 0v115h119v-115h-119zM80 0v820h101v-820h-101zM300 0v115q11 0 15.5 -15.5t4.5 -41.5t-4.5 -42t-15.5 -16z" />
    <glyph glyph-name="uniFE90" unicode="&#x628;" horiz-adv-x="950" arabic-form="final" 
d="M343 -1q-75 0 -130.5 21.5t-91.5 58.5t-53.5 84t-17.5 98q0 48 14 96t42 91l83 -37q-20 -40 -29 -75.5t-9 -66.5q0 -51 22 -85.5t65 -52t105 -17.5l285 1q43 0 64 6.5t28 24.5t7 52v284h101v-284q0 -67 -21 -111t-65 -65.5t-114 -21.5zM927 0q-70 0 -114 21.5t-65 65.5
t-21 111h101q0 -34 7 -52t28.5 -24.5t63.5 -6.5h23v-115h-23zM950 0v115q11 0 15.5 -15.5t4.5 -41.5t-4.5 -42t-15.5 -16zM439 -268q-28 0 -47.5 19.5t-19.5 47.5q0 29 19.5 48t47.5 19q29 0 48 -19t19 -48q0 -28 -19 -47.5t-48 -19.5z" />
    <glyph glyph-name="uniFE91" unicode="&#x628;" horiz-adv-x="311" arabic-form="initial" 
d="M140 482h101v-482h-241v115h140v367zM0 0q-11 0 -15.5 16t-4.5 43q0 26 4.5 41t15.5 15v-115zM152 -268q-28 0 -47.5 19.5t-19.5 47.5q0 29 19.5 48t47.5 19q29 0 48 -19t19 -48q0 -28 -19 -47.5t-48 -19.5z" />
    <glyph glyph-name="uniFE92" unicode="&#x628;" horiz-adv-x="391" arabic-form="medial" 
d="M0 0v115h51q43 0 64 6.5t28 24.5t7 52v284h101v-284q0 -67 -21 -111t-65 -65.5t-114 -21.5h-51zM350 0q-70 0 -114 21.5t-65 65.5t-21 111h101q0 -34 7 -52t28.5 -24.5t63.5 -6.5h41v-115h-41zM391 0v115q11 0 15.5 -15.5t4.5 -41.5t-4.5 -42t-15.5 -16zM0 0
q-11 0 -15.5 16t-4.5 43q0 26 4.5 41t15.5 15v-115zM201 -268q-28 0 -47.5 19.5t-19.5 47.5q0 29 19.5 48t47.5 19q29 0 48 -19t19 -48q0 -28 -19 -47.5t-48 -19.5z" />
    <glyph glyph-name="uniFE94" unicode="&#x629;" horiz-adv-x="637" arabic-form="final" 
d="M325 30q-61 0 -113.5 14t-90.5 41t-59.5 67.5t-21.5 94.5q0 61 27.5 107.5t77 79.5t115.5 53.5t143 29.5l12 -114q-46 -5 -94 -16.5t-89 -30.5t-66 -46t-25 -63q0 -35 25 -58t67 -33.5t92 -10.5q38 0 70.5 5t60.5 14l30 -110q-37 -12 -78.5 -18t-82.5 -6zM596 0
q-70 0 -114 21.5t-65 65.5t-21 111v346h101v-346q0 -34 7 -52t28.5 -24.5t63.5 -6.5h41v-115h-41zM637 0v115q11 0 15.5 -15.5t4.5 -41.5t-4.5 -42t-15.5 -16zM359 653q-26 0 -43.5 17.5t-17.5 43.5q0 27 17.5 44t43.5 17t43.5 -17t17.5 -44q0 -26 -17.5 -43.5t-43.5 -17.5z
M217 653q-26 0 -43.5 17.5t-17.5 43.5q0 27 17.5 44t43.5 17t43.5 -17t17.5 -44q0 -26 -17.5 -43.5t-43.5 -17.5z" />
    <glyph glyph-name="uniFE96" unicode="&#x62a;" horiz-adv-x="950" arabic-form="final" 
d="M343 -1q-75 0 -130.5 21.5t-91.5 58.5t-53.5 84t-17.5 98q0 48 14 96t42 91l83 -37q-20 -40 -29 -75.5t-9 -66.5q0 -51 22 -85.5t65 -52t105 -17.5l285 1q43 0 64 6.5t28 24.5t7 52v284h101v-284q0 -67 -21 -111t-65 -65.5t-114 -21.5zM927 0q-70 0 -114 21.5t-65 65.5
t-21 111h101q0 -34 7 -52t28.5 -24.5t63.5 -6.5h23v-115h-23zM950 0v115q11 0 15.5 -15.5t4.5 -41.5t-4.5 -42t-15.5 -16zM510 505q-26 0 -43.5 17.5t-17.5 43.5q0 27 17.5 44t43.5 17t43.5 -17t17.5 -44q0 -26 -17.5 -43.5t-43.5 -17.5zM368 505q-26 0 -43.5 17.5
t-17.5 43.5q0 27 17.5 44t43.5 17t43.5 -17t17.5 -44q0 -26 -17.5 -43.5t-43.5 -17.5z" />
    <glyph glyph-name="uniFE97" unicode="&#x62a;" horiz-adv-x="311" arabic-form="initial" 
d="M140 482h101v-482h-241v115h140v367zM0 0q-11 0 -15.5 16t-4.5 43q0 26 4.5 41t15.5 15v-115zM262 604q-26 0 -43.5 17.5t-17.5 43.5q0 27 17.5 44t43.5 17t43.5 -17t17.5 -44q0 -26 -17.5 -43.5t-43.5 -17.5zM120 604q-26 0 -43.5 17.5t-17.5 43.5q0 27 17.5 44t43.5 17
t43.5 -17t17.5 -44q0 -26 -17.5 -43.5t-43.5 -17.5z" />
    <glyph glyph-name="uniFE98" unicode="&#x62a;" horiz-adv-x="391" arabic-form="medial" 
d="M0 0v115h51q43 0 64 6.5t28 24.5t7 52v284h101v-284q0 -67 -21 -111t-65 -65.5t-114 -21.5h-51zM350 0q-70 0 -114 21.5t-65 65.5t-21 111h101q0 -34 7 -52t28.5 -24.5t63.5 -6.5h41v-115h-41zM391 0v115q11 0 15.5 -15.5t4.5 -41.5t-4.5 -42t-15.5 -16zM0 0
q-11 0 -15.5 16t-4.5 43q0 26 4.5 41t15.5 15v-115zM272 604q-26 0 -43.5 17.5t-17.5 43.5q0 27 17.5 44t43.5 17t43.5 -17t17.5 -44q0 -26 -17.5 -43.5t-43.5 -17.5zM130 604q-26 0 -43.5 17.5t-17.5 43.5q0 27 17.5 44t43.5 17t43.5 -17t17.5 -44q0 -26 -17.5 -43.5
t-43.5 -17.5z" />
    <glyph glyph-name="uniFE9A" unicode="&#x62b;" horiz-adv-x="950" arabic-form="final" 
d="M343 -1q-75 0 -130.5 21.5t-91.5 58.5t-53.5 84t-17.5 98q0 48 14 96t42 91l83 -37q-20 -40 -29 -75.5t-9 -66.5q0 -51 22 -85.5t65 -52t105 -17.5l285 1q43 0 64 6.5t28 24.5t7 52v284h101v-284q0 -67 -21 -111t-65 -65.5t-114 -21.5zM927 0q-70 0 -114 21.5t-65 65.5
t-21 111h101q0 -34 7 -52t28.5 -24.5t63.5 -6.5h23v-115h-23zM950 0v115q11 0 15.5 -15.5t4.5 -41.5t-4.5 -42t-15.5 -16zM439 750q26 0 43.5 -17.5t17.5 -43.5q0 -27 -17.5 -44t-43.5 -17q-25 0 -43 17t-18 44q0 26 18 43.5t43 17.5zM510 627q26 0 43.5 -17.5t17.5 -43.5
q0 -27 -17.5 -44t-43.5 -17t-43.5 17t-17.5 44q0 26 17.5 43.5t43.5 17.5zM368 627q26 0 43.5 -17.5t17.5 -43.5q0 -27 -17.5 -44t-43.5 -17t-43.5 17t-17.5 44q0 26 17.5 43.5t43.5 17.5z" />
    <glyph glyph-name="uniFE9B" unicode="&#x62b;" horiz-adv-x="311" arabic-form="initial" 
d="M140 482h101v-482h-241v115h140v367zM0 0q-11 0 -15.5 16t-4.5 43q0 26 4.5 41t15.5 15v-115zM191 849q26 0 43.5 -17.5t17.5 -43.5q0 -27 -17.5 -44t-43.5 -17q-25 0 -43 17t-18 44q0 26 18 43.5t43 17.5zM262 726q26 0 43.5 -17.5t17.5 -43.5q0 -27 -17.5 -44
t-43.5 -17t-43.5 17t-17.5 44q0 26 17.5 43.5t43.5 17.5zM120 726q26 0 43.5 -17.5t17.5 -43.5q0 -27 -17.5 -44t-43.5 -17t-43.5 17t-17.5 44q0 26 17.5 43.5t43.5 17.5z" />
    <glyph glyph-name="uniFE9C" unicode="&#x62b;" horiz-adv-x="391" arabic-form="medial" 
d="M0 0v115h51q43 0 64 6.5t28 24.5t7 52v284h101v-284q0 -67 -21 -111t-65 -65.5t-114 -21.5h-51zM350 0q-70 0 -114 21.5t-65 65.5t-21 111h101q0 -34 7 -52t28.5 -24.5t63.5 -6.5h41v-115h-41zM391 0v115q11 0 15.5 -15.5t4.5 -41.5t-4.5 -42t-15.5 -16zM0 0
q-11 0 -15.5 16t-4.5 43q0 26 4.5 41t15.5 15v-115zM201 849q26 0 43.5 -17.5t17.5 -43.5q0 -27 -17.5 -44t-43.5 -17q-25 0 -43 17t-18 44q0 26 18 43.5t43 17.5zM272 726q26 0 43.5 -17.5t17.5 -43.5q0 -27 -17.5 -44t-43.5 -17t-43.5 17t-17.5 44q0 26 17.5 43.5
t43.5 17.5zM130 726q26 0 43.5 -17.5t17.5 -43.5q0 -27 -17.5 -44t-43.5 -17t-43.5 17t-17.5 44q0 26 17.5 43.5t43.5 17.5z" />
    <glyph glyph-name="uniFE9E" unicode="&#x62c;" horiz-adv-x="741" arabic-form="final" 
d="M644 0v115h97v-115h-97zM521 0v262q0 46 -23.5 80.5t-67.5 54t-105 19.5q-48 0 -93.5 -11t-79.5 -27l-41 91q49 31 104 46.5t112 15.5q65 0 119 -19.5t93.5 -55.5t61 -85.5t21.5 -108.5v-262h-101zM312 -368q-52 0 -100.5 15t-87.5 44.5t-61.5 72t-22.5 97.5
q0 48 19 93.5t57 81.5t95 57.5t133 21.5v-115q-62 0 -107.5 -18.5t-70.5 -49t-25 -67.5q0 -35 21.5 -61.5t60.5 -41.5t90 -15q28 0 56 4.5t53 12.5l35 -100q-34 -16 -70.5 -24t-74.5 -8zM344 0v115h322l-18 -115h-304zM741 0v115q11 0 15.5 -15.5t4.5 -41.5t-4.5 -42
t-15.5 -16zM515 -197q-28 0 -47.5 19.5t-19.5 47.5q0 29 19.5 48t47.5 19q29 0 48 -19t19 -48q0 -28 -19 -47.5t-48 -19.5z" />
    <glyph glyph-name="uniFE9F" unicode="&#x62c;" horiz-adv-x="634" arabic-form="initial" 
d="M441 0v262q0 46 -23.5 80.5t-67.5 54t-105 19.5q-48 0 -93.5 -11t-79.5 -27l-41 91q49 31 104 46.5t112 15.5q65 0 119 -19.5t93.5 -55.5t61 -85.5t21.5 -108.5v-262h-101zM0 0v115h586l-18 -115h-568zM0 0q-11 0 -15.5 16t-4.5 43q0 26 4.5 41t15.5 15v-115zM262 -268
q-28 0 -47.5 19.5t-19.5 47.5q0 29 19.5 48t47.5 19q29 0 48 -19t19 -48q0 -28 -19 -47.5t-48 -19.5z" />
    <glyph glyph-name="uniFEA0" unicode="&#x62c;" horiz-adv-x="661" arabic-form="medial" 
d="M520 0v115h141v-115h-141zM0 0q-11 0 -15.5 16t-4.5 43q0 26 4.5 41t15.5 15v-115zM441 0v262q0 46 -23.5 80.5t-67.5 54t-105 19.5q-48 0 -93.5 -11t-79.5 -27l-41 91q49 31 104 46.5t112 15.5q65 0 119 -19.5t93.5 -55.5t61 -85.5t21.5 -108.5v-262h-101zM0 0v115h586
l-18 -115h-568zM661 0v115q11 0 15.5 -15.5t4.5 -41.5t-4.5 -42t-15.5 -16zM262 -268q-28 0 -47.5 19.5t-19.5 47.5q0 29 19.5 48t47.5 19q29 0 48 -19t19 -48q0 -28 -19 -47.5t-48 -19.5z" />
    <glyph glyph-name="uniFEA2" unicode="&#x62d;" horiz-adv-x="741" arabic-form="final" 
d="M644 0v115h97v-115h-97zM521 0v262q0 46 -23.5 80.5t-67.5 54t-105 19.5q-48 0 -93.5 -11t-79.5 -27l-41 91q49 31 104 46.5t112 15.5q65 0 119 -19.5t93.5 -55.5t61 -85.5t21.5 -108.5v-262h-101zM312 -368q-52 0 -100.5 15t-87.5 44.5t-61.5 72t-22.5 97.5
q0 48 19 93.5t57 81.5t95 57.5t133 21.5v-115q-62 0 -107.5 -18.5t-70.5 -49t-25 -67.5q0 -35 21.5 -61.5t60.5 -41.5t90 -15q28 0 56 4.5t53 12.5l35 -100q-34 -16 -70.5 -24t-74.5 -8zM344 0v115h322l-18 -115h-304zM741 0v115q11 0 15.5 -15.5t4.5 -41.5t-4.5 -42
t-15.5 -16z" />
    <glyph glyph-name="uniFEA3" unicode="&#x62d;" horiz-adv-x="634" arabic-form="initial" 
d="M441 0v262q0 46 -23.5 80.5t-67.5 54t-105 19.5q-48 0 -93.5 -11t-79.5 -27l-41 91q49 31 104 46.5t112 15.5q65 0 119 -19.5t93.5 -55.5t61 -85.5t21.5 -108.5v-262h-101zM0 0v115h586l-18 -115h-568zM0 0q-11 0 -15.5 16t-4.5 43q0 26 4.5 41t15.5 15v-115z" />
    <glyph glyph-name="uniFEA4" unicode="&#x62d;" horiz-adv-x="661" arabic-form="medial" 
d="M520 0v115h141v-115h-141zM0 0q-11 0 -15.5 16t-4.5 43q0 26 4.5 41t15.5 15v-115zM441 0v262q0 46 -23.5 80.5t-67.5 54t-105 19.5q-48 0 -93.5 -11t-79.5 -27l-41 91q49 31 104 46.5t112 15.5q65 0 119 -19.5t93.5 -55.5t61 -85.5t21.5 -108.5v-262h-101zM0 0v115h586
l-18 -115h-568zM661 0v115q11 0 15.5 -15.5t4.5 -41.5t-4.5 -42t-15.5 -16z" />
    <glyph glyph-name="uniFEA6" unicode="&#x62e;" horiz-adv-x="741" arabic-form="final" 
d="M644 0v115h97v-115h-97zM521 0v262q0 46 -23.5 80.5t-67.5 54t-105 19.5q-48 0 -93.5 -11t-79.5 -27l-41 91q49 31 104 46.5t112 15.5q65 0 119 -19.5t93.5 -55.5t61 -85.5t21.5 -108.5v-262h-101zM312 -368q-52 0 -100.5 15t-87.5 44.5t-61.5 72t-22.5 97.5
q0 48 19 93.5t57 81.5t95 57.5t133 21.5v-115q-62 0 -107.5 -18.5t-70.5 -49t-25 -67.5q0 -35 21.5 -61.5t60.5 -41.5t90 -15q28 0 56 4.5t53 12.5l35 -100q-34 -16 -70.5 -24t-74.5 -8zM344 0v115h322l-18 -115h-304zM741 0v115q11 0 15.5 -15.5t4.5 -41.5t-4.5 -42
t-15.5 -16zM327 665q-28 0 -47.5 19.5t-19.5 47.5q0 29 19.5 48t47.5 19q29 0 48 -19t19 -48q0 -28 -19 -47.5t-48 -19.5z" />
    <glyph glyph-name="uniFEA7" unicode="&#x62e;" horiz-adv-x="634" arabic-form="initial" 
d="M441 0v262q0 46 -23.5 80.5t-67.5 54t-105 19.5q-48 0 -93.5 -11t-79.5 -27l-41 91q49 31 104 46.5t112 15.5q65 0 119 -19.5t93.5 -55.5t61 -85.5t21.5 -108.5v-262h-101zM0 0v115h586l-18 -115h-568zM0 0q-11 0 -15.5 16t-4.5 43q0 26 4.5 41t15.5 15v-115zM247 665
q-28 0 -47.5 19.5t-19.5 47.5q0 29 19.5 48t47.5 19q29 0 48 -19t19 -48q0 -28 -19 -47.5t-48 -19.5z" />
    <glyph glyph-name="uniFEA8" unicode="&#x62e;" horiz-adv-x="661" arabic-form="medial" 
d="M520 0v115h141v-115h-141zM0 0q-11 0 -15.5 16t-4.5 43q0 26 4.5 41t15.5 15v-115zM441 0v262q0 46 -23.5 80.5t-67.5 54t-105 19.5q-48 0 -93.5 -11t-79.5 -27l-41 91q49 31 104 46.5t112 15.5q65 0 119 -19.5t93.5 -55.5t61 -85.5t21.5 -108.5v-262h-101zM0 0v115h586
l-18 -115h-568zM661 0v115q11 0 15.5 -15.5t4.5 -41.5t-4.5 -42t-15.5 -16zM247 665q-28 0 -47.5 19.5t-19.5 47.5q0 29 19.5 48t47.5 19q29 0 48 -19t19 -48q0 -28 -19 -47.5t-48 -19.5z" />
    <glyph glyph-name="uniFEAA" unicode="&#x62f;" horiz-adv-x="614" arabic-form="final" 
d="M422 0v115h192v-115h-192zM614 0v115q11 0 15.5 -15.5t4.5 -41.5t-4.5 -42t-15.5 -16zM433 0q-1 107 -38 191t-105.5 140t-164.5 78l23 112q118 -27 204 -99.5t133.5 -180t48.5 -241.5h-101zM40 0v115h473v-115h-473z" />
    <glyph glyph-name="uniFEAC" unicode="&#x630;" horiz-adv-x="614" arabic-form="final" 
d="M422 0v115h192v-115h-192zM614 0v115q11 0 15.5 -15.5t4.5 -41.5t-4.5 -42t-15.5 -16zM433 0q-1 107 -38 191t-105.5 140t-164.5 78l23 112q118 -27 204 -99.5t133.5 -180t48.5 -241.5h-101zM40 0v115h473v-115h-473zM234 655q-28 0 -47.5 19.5t-19.5 47.5q0 29 19.5 48
t47.5 19q29 0 48 -19t19 -48q0 -28 -19 -47.5t-48 -19.5z" />
    <glyph glyph-name="uniFEAE" unicode="&#x631;" horiz-adv-x="352" arabic-form="final" 
d="M205 0v115h147v-115h-147zM0 -155q48 -1 77 9.5t42 35.5t13 64v528h101v-528q0 -69 -26 -118t-73.5 -75t-114.5 -27zM352 0v115q11 0 15.5 -15.5t4.5 -41.5t-4.5 -42t-15.5 -16z" />
    <glyph glyph-name="uniFEB0" unicode="&#x632;" horiz-adv-x="352" arabic-form="final" 
d="M205 0v115h147v-115h-147zM0 -155q48 -1 77 9.5t42 35.5t13 64v528h101v-528q0 -69 -26 -118t-73.5 -75t-114.5 -27zM352 0v115q11 0 15.5 -15.5t4.5 -41.5t-4.5 -42t-15.5 -16zM183 616q-28 0 -47.5 19.5t-19.5 47.5q0 29 19.5 48t47.5 19q29 0 48 -19t19 -48
q0 -28 -19 -47.5t-48 -19.5z" />
    <glyph glyph-name="uniFEB2" unicode="&#x633;" horiz-adv-x="1343" arabic-form="final" 
d="M1302 0q-70 0 -114 21.5t-65 65.5t-21 111h101q0 -34 7 -52t28.5 -24.5t63.5 -6.5h41v-115h-41zM361 -226q-78 0 -137.5 27t-100.5 75t-62 111.5t-21 137.5q0 44 7 89t19 86l96 -18q-10 -42 -15.5 -80.5t-5.5 -76.5q0 -74 26 -127t75.5 -81t118.5 -28q70 0 119 28t75 81
t26 127v258h101v-258q0 -74 -21 -137.5t-62 -111.5t-100.5 -75t-137.5 -27zM776 0q-33 0 -64.5 12t-57.5 38.5t-41 67.5l67 46q9 -26 32.5 -40t49.5 -14q32 0 58 21.5t26 66.5v235h101v-235q0 -67 -25 -111t-64 -65.5t-82 -21.5zM1041 0q-33 0 -64.5 12t-57.5 38.5t-41 67.5
l67 46q9 -26 32.5 -40t49.5 -14q32 0 58 21.5t26 66.5v284h101v-284q0 -67 -25 -111t-64 -65.5t-82 -21.5zM1343 0v115q11 0 15.5 -15.5t4.5 -41.5t-4.5 -42t-15.5 -16z" />
    <glyph glyph-name="uniFEB3" unicode="&#x633;" horiz-adv-x="840" arabic-form="initial" 
d="M609 0q-33 0 -64.5 12t-57.5 38.5t-41 67.5l67 46q9 -26 32.5 -40t49.5 -14q32 0 58 21.5t26 66.5v284h101v-284q0 -67 -25 -111t-64 -65.5t-82 -21.5zM0 0v115h50q43 0 64 6.5t28 24.5t7 52v185h101v-185q0 -67 -21 -111t-65 -65.5t-114 -21.5h-50zM344 0
q-33 0 -64.5 12t-57.5 38.5t-41 67.5l67 46q9 -26 32.5 -40t49.5 -14q32 0 58 21.5t26 66.5v235h101v-235q0 -67 -25 -111t-64 -65.5t-82 -21.5zM0 0q-11 0 -15.5 16t-4.5 43q0 26 4.5 41t15.5 15v-115z" />
    <glyph glyph-name="uniFEB4" unicode="&#x633;" horiz-adv-x="920" arabic-form="medial" 
d="M879 0q-70 0 -114 21.5t-65 65.5t-21 111h101q0 -34 7 -52t28.5 -24.5t63.5 -6.5h41v-115h-41zM0 0q-11 0 -15.5 16t-4.5 43q0 26 4.5 41t15.5 15v-115zM609 0q-33 0 -64.5 12t-57.5 38.5t-41 67.5l67 46q9 -26 32.5 -40t49.5 -14q32 0 58 21.5t26 66.5v284h101v-284
q0 -67 -25 -111t-64 -65.5t-82 -21.5zM0 0v115h50q43 0 64 6.5t28 24.5t7 52v185h101v-185q0 -67 -21 -111t-65 -65.5t-114 -21.5h-50zM344 0q-33 0 -64.5 12t-57.5 38.5t-41 67.5l67 46q9 -26 32.5 -40t49.5 -14q32 0 58 21.5t26 66.5v235h101v-235q0 -67 -25 -111
t-64 -65.5t-82 -21.5zM920 0v115q11 0 15.5 -15.5t4.5 -41.5t-4.5 -42t-15.5 -16z" />
    <glyph glyph-name="uniFEB6" unicode="&#x634;" horiz-adv-x="1343" arabic-form="final" 
d="M1302 0q-70 0 -114 21.5t-65 65.5t-21 111h101q0 -34 7 -52t28.5 -24.5t63.5 -6.5h41v-115h-41zM361 -226q-78 0 -137.5 27t-100.5 75t-62 111.5t-21 137.5q0 44 7 89t19 86l96 -18q-10 -42 -15.5 -80.5t-5.5 -76.5q0 -74 26 -127t75.5 -81t118.5 -28q70 0 119 28t75 81
t26 127v258h101v-258q0 -74 -21 -137.5t-62 -111.5t-100.5 -75t-137.5 -27zM776 0q-33 0 -64.5 12t-57.5 38.5t-41 67.5l67 46q9 -26 32.5 -40t49.5 -14q32 0 58 21.5t26 66.5v235h101v-235q0 -67 -25 -111t-64 -65.5t-82 -21.5zM1041 0q-33 0 -64.5 12t-57.5 38.5t-41 67.5
l67 46q9 -26 32.5 -40t49.5 -14q32 0 58 21.5t26 66.5v284h101v-284q0 -67 -25 -111t-64 -65.5t-82 -21.5zM1343 0v115q11 0 15.5 -15.5t4.5 -41.5t-4.5 -42t-15.5 -16zM897 850q26 0 43.5 -17.5t17.5 -43.5q0 -27 -17.5 -44t-43.5 -17q-25 0 -43 17t-18 44q0 26 18 43.5
t43 17.5zM968 727q26 0 43.5 -17.5t17.5 -43.5q0 -27 -17.5 -44t-43.5 -17t-43.5 17t-17.5 44q0 26 17.5 43.5t43.5 17.5zM826 727q26 0 43.5 -17.5t17.5 -43.5q0 -27 -17.5 -44t-43.5 -17t-43.5 17t-17.5 44q0 26 17.5 43.5t43.5 17.5z" />
    <glyph glyph-name="uniFEB7" unicode="&#x634;" horiz-adv-x="840" arabic-form="initial" 
d="M609 0q-33 0 -64.5 12t-57.5 38.5t-41 67.5l67 46q9 -26 32.5 -40t49.5 -14q32 0 58 21.5t26 66.5v284h101v-284q0 -67 -25 -111t-64 -65.5t-82 -21.5zM0 0v115h50q43 0 64 6.5t28 24.5t7 52v185h101v-185q0 -67 -21 -111t-65 -65.5t-114 -21.5h-50zM344 0
q-33 0 -64.5 12t-57.5 38.5t-41 67.5l67 46q9 -26 32.5 -40t49.5 -14q32 0 58 21.5t26 66.5v235h101v-235q0 -67 -25 -111t-64 -65.5t-82 -21.5zM0 0q-11 0 -15.5 16t-4.5 43q0 26 4.5 41t15.5 15v-115zM461 850q26 0 43.5 -17.5t17.5 -43.5q0 -27 -17.5 -44t-43.5 -17
q-25 0 -43 17t-18 44q0 26 18 43.5t43 17.5zM532 727q26 0 43.5 -17.5t17.5 -43.5q0 -27 -17.5 -44t-43.5 -17t-43.5 17t-17.5 44q0 26 17.5 43.5t43.5 17.5zM390 727q26 0 43.5 -17.5t17.5 -43.5q0 -27 -17.5 -44t-43.5 -17t-43.5 17t-17.5 44q0 26 17.5 43.5t43.5 17.5z
" />
    <glyph glyph-name="uniFEB8" unicode="&#x634;" horiz-adv-x="920" arabic-form="medial" 
d="M879 0q-70 0 -114 21.5t-65 65.5t-21 111h101q0 -34 7 -52t28.5 -24.5t63.5 -6.5h41v-115h-41zM0 0q-11 0 -15.5 16t-4.5 43q0 26 4.5 41t15.5 15v-115zM609 0q-33 0 -64.5 12t-57.5 38.5t-41 67.5l67 46q9 -26 32.5 -40t49.5 -14q32 0 58 21.5t26 66.5v284h101v-284
q0 -67 -25 -111t-64 -65.5t-82 -21.5zM0 0v115h50q43 0 64 6.5t28 24.5t7 52v185h101v-185q0 -67 -21 -111t-65 -65.5t-114 -21.5h-50zM344 0q-33 0 -64.5 12t-57.5 38.5t-41 67.5l67 46q9 -26 32.5 -40t49.5 -14q32 0 58 21.5t26 66.5v235h101v-235q0 -67 -25 -111
t-64 -65.5t-82 -21.5zM920 0v115q11 0 15.5 -15.5t4.5 -41.5t-4.5 -42t-15.5 -16zM461 850q26 0 43.5 -17.5t17.5 -43.5q0 -27 -17.5 -44t-43.5 -17q-25 0 -43 17t-18 44q0 26 18 43.5t43 17.5zM532 727q26 0 43.5 -17.5t17.5 -43.5q0 -27 -17.5 -44t-43.5 -17t-43.5 17
t-17.5 44q0 26 17.5 43.5t43.5 17.5zM390 727q26 0 43.5 -17.5t17.5 -43.5q0 -27 -17.5 -44t-43.5 -17t-43.5 17t-17.5 44q0 26 17.5 43.5t43.5 17.5z" />
    <glyph glyph-name="uniFEBA" unicode="&#x635;" horiz-adv-x="1467" arabic-form="final" 
d="M1274 0v115h193v-115h-193zM781 0q-99 0 -146.5 43.5t-52.5 131.5l99 9q2 -28 10 -43t29.5 -20.5t60.5 -5.5h569v-115h-569zM1249 0v236q0 65 -21 109t-62 67t-101 23q-49 0 -91 -17t-76 -48t-58 -75t-37 -98.5t-13 -117.5h-91q0 42 7.5 92.5t24.5 103.5t45 102t68.5 88
t95.5 62t125 23q73 0 127 -25t89 -69t52 -100.5t17 -119.5v-236h-101zM361 -226q-78 0 -137.5 27t-100.5 75t-62 111.5t-21 137.5q0 44 7 89t19 86l96 -18q-10 -42 -15.5 -80.5t-5.5 -76.5q0 -74 26 -127t75.5 -81t118.5 -28q70 0 119 28t75 81t26 127v308h101v-308
q0 -74 -21 -137.5t-62 -111.5t-100.5 -75t-137.5 -27zM1467 0v115q11 0 15.5 -15.5t4.5 -41.5t-4.5 -42t-15.5 -16z" />
    <glyph glyph-name="uniFEBB" unicode="&#x635;" horiz-adv-x="979" arabic-form="initial" 
d="M818 0v236q0 65 -21 109t-62 67t-101 23q-49 0 -91 -17t-76 -48t-58 -75t-37 -98.5t-13 -117.5h-91q0 42 7.5 92.5t24.5 103.5t45 102t68.5 88t95.5 62t125 23q73 0 127 -25t89 -69t52 -100.5t17 -119.5v-236h-101zM0 0v115h51q43 0 64 6.5t28 24.5t7 52v235h101v-235
q0 -67 -21 -111t-65 -65.5t-114 -21.5h-51zM350 0q-70 0 -114 21.5t-65 65.5t-21 111h101q0 -34 7 -52t28.5 -24.5t63.5 -6.5h569v-115h-569zM0 0q-11 0 -15.5 16t-4.5 43q0 26 4.5 41t15.5 15v-115z" />
    <glyph glyph-name="uniFEBC" unicode="&#x635;" horiz-adv-x="1038" arabic-form="medial" 
d="M870 0v115h168v-115h-168zM0 0q-11 0 -15.5 16t-4.5 43q0 26 4.5 41t15.5 15v-115zM818 0v236q0 65 -21 109t-62 67t-101 23q-49 0 -91 -17t-76 -48t-58 -75t-37 -98.5t-13 -117.5h-91q0 42 7.5 92.5t24.5 103.5t45 102t68.5 88t95.5 62t125 23q73 0 127 -25t89 -69
t52 -100.5t17 -119.5v-236h-101zM0 0v115h51q43 0 64 6.5t28 24.5t7 52v235h101v-235q0 -67 -21 -111t-65 -65.5t-114 -21.5h-51zM350 0q-70 0 -114 21.5t-65 65.5t-21 111h101q0 -34 7 -52t28.5 -24.5t63.5 -6.5h569v-115h-569zM1038 0v115q11 0 15.5 -15.5t4.5 -41.5
t-4.5 -42t-15.5 -16z" />
    <glyph glyph-name="uniFEBE" unicode="&#x636;" horiz-adv-x="1467" arabic-form="final" 
d="M1274 0v115h193v-115h-193zM781 0q-99 0 -146.5 43.5t-52.5 131.5l99 9q2 -28 10 -43t29.5 -20.5t60.5 -5.5h569v-115h-569zM1249 0v236q0 65 -21 109t-62 67t-101 23q-49 0 -91 -17t-76 -48t-58 -75t-37 -98.5t-13 -117.5h-91q0 42 7.5 92.5t24.5 103.5t45 102t68.5 88
t95.5 62t125 23q73 0 127 -25t89 -69t52 -100.5t17 -119.5v-236h-101zM361 -226q-78 0 -137.5 27t-100.5 75t-62 111.5t-21 137.5q0 44 7 89t19 86l96 -18q-10 -42 -15.5 -80.5t-5.5 -76.5q0 -74 26 -127t75.5 -81t118.5 -28q70 0 119 28t75 81t26 127v308h101v-308
q0 -74 -21 -137.5t-62 -111.5t-100.5 -75t-137.5 -27zM1467 0v115q11 0 15.5 -15.5t4.5 -41.5t-4.5 -42t-15.5 -16zM1065 684q-28 0 -47.5 19.5t-19.5 47.5q0 29 19.5 48t47.5 19q29 0 48 -19t19 -48q0 -28 -19 -47.5t-48 -19.5z" />
    <glyph glyph-name="uniFEBF" unicode="&#x636;" horiz-adv-x="979" arabic-form="initial" 
d="M818 0v236q0 65 -21 109t-62 67t-101 23q-49 0 -91 -17t-76 -48t-58 -75t-37 -98.5t-13 -117.5h-91q0 42 7.5 92.5t24.5 103.5t45 102t68.5 88t95.5 62t125 23q73 0 127 -25t89 -69t52 -100.5t17 -119.5v-236h-101zM0 0v115h51q43 0 64 6.5t28 24.5t7 52v235h101v-235
q0 -67 -21 -111t-65 -65.5t-114 -21.5h-51zM350 0q-70 0 -114 21.5t-65 65.5t-21 111h101q0 -34 7 -52t28.5 -24.5t63.5 -6.5h569v-115h-569zM0 0q-11 0 -15.5 16t-4.5 43q0 26 4.5 41t15.5 15v-115zM634 684q-28 0 -47.5 19.5t-19.5 47.5q0 29 19.5 48t47.5 19q29 0 48 -19
t19 -48q0 -28 -19 -47.5t-48 -19.5z" />
    <glyph glyph-name="uniFEC0" unicode="&#x636;" horiz-adv-x="1038" arabic-form="medial" 
d="M870 0v115h168v-115h-168zM0 0q-11 0 -15.5 16t-4.5 43q0 26 4.5 41t15.5 15v-115zM818 0v236q0 65 -21 109t-62 67t-101 23q-49 0 -91 -17t-76 -48t-58 -75t-37 -98.5t-13 -117.5h-91q0 42 7.5 92.5t24.5 103.5t45 102t68.5 88t95.5 62t125 23q73 0 127 -25t89 -69
t52 -100.5t17 -119.5v-236h-101zM0 0v115h51q43 0 64 6.5t28 24.5t7 52v235h101v-235q0 -67 -21 -111t-65 -65.5t-114 -21.5h-51zM350 0q-70 0 -114 21.5t-65 65.5t-21 111h101q0 -34 7 -52t28.5 -24.5t63.5 -6.5h569v-115h-569zM1038 0v115q11 0 15.5 -15.5t4.5 -41.5
t-4.5 -42t-15.5 -16zM634 684q-28 0 -47.5 19.5t-19.5 47.5q0 29 19.5 48t47.5 19q29 0 48 -19t19 -48q0 -28 -19 -47.5t-48 -19.5z" />
    <glyph glyph-name="uniFEC2" unicode="&#x637;" horiz-adv-x="893" arabic-form="final" 
d="M744 0v115h149v-115h-149zM673 0v236q0 65 -21 109t-62 67t-101 23q-49 0 -91 -17t-76 -48t-58 -75t-37 -98.5t-13 -117.5h-60q0 42 7 92.5t22.5 103.5t41 102t63 88t87.5 62t114 23q73 0 127 -25t89 -69t52 -100.5t17 -119.5v-236h-101zM40 0v115h734v-115h-734zM123 55
v765h101v-616zM893 0v115q11 0 15.5 -15.5t4.5 -41.5t-4.5 -42t-15.5 -16z" />
    <glyph glyph-name="uniFEC3" unicode="&#x637;" horiz-adv-x="861" arabic-form="initial" 
d="M0 0v115h67v-115h-67zM700 0v236q0 65 -21 109t-62 67t-101 23q-49 0 -91 -17t-76 -48t-58 -75t-37 -98.5t-13 -117.5h-60q0 42 7 92.5t22.5 103.5t41 102t63 88t87.5 62t114 23q73 0 127 -25t89 -69t52 -100.5t17 -119.5v-236h-101zM67 0v115h734v-115h-734zM150 55v765
h101v-616zM0 0q-11 0 -15.5 16t-4.5 43q0 26 4.5 41t15.5 15v-115z" />
    <glyph glyph-name="uniFEC4" unicode="&#x637;" horiz-adv-x="920" arabic-form="medial" 
d="M781 0v115h139v-115h-139zM920 0v115q11 0 15.5 -15.5t4.5 -41.5t-4.5 -42t-15.5 -16zM700 0v236q0 65 -21 109t-62 67t-101 23q-49 0 -91 -17t-76 -48t-58 -75t-37 -98.5t-13 -117.5h-60q0 42 7 92.5t22.5 103.5t41 102t63 88t87.5 62t114 23q73 0 127 -25t89 -69
t52 -100.5t17 -119.5v-236h-101zM67 0v115h734v-115h-734zM150 55v765h101v-616zM0 0q-11 0 -15.5 16t-4.5 43q0 26 4.5 41t15.5 15v-115zM0 0v115h67v-115h-67z" />
    <glyph glyph-name="uniFEC6" unicode="&#x638;" horiz-adv-x="893" arabic-form="final" 
d="M744 0v115h149v-115h-149zM673 0v236q0 65 -21 109t-62 67t-101 23q-49 0 -91 -17t-76 -48t-58 -75t-37 -98.5t-13 -117.5h-60q0 42 7 92.5t22.5 103.5t41 102t63 88t87.5 62t114 23q73 0 127 -25t89 -69t52 -100.5t17 -119.5v-236h-101zM40 0v115h734v-115h-734zM123 55
v765h101v-616zM893 0v115q11 0 15.5 -15.5t4.5 -41.5t-4.5 -42t-15.5 -16zM489 684q-28 0 -47.5 19.5t-19.5 47.5q0 29 19.5 48t47.5 19q29 0 48 -19t19 -48q0 -28 -19 -47.5t-48 -19.5z" />
    <glyph glyph-name="uniFEC7" unicode="&#x638;" horiz-adv-x="861" arabic-form="initial" 
d="M0 0v115h67v-115h-67zM700 0v236q0 65 -21 109t-62 67t-101 23q-49 0 -91 -17t-76 -48t-58 -75t-37 -98.5t-13 -117.5h-60q0 42 7 92.5t22.5 103.5t41 102t63 88t87.5 62t114 23q73 0 127 -25t89 -69t52 -100.5t17 -119.5v-236h-101zM67 0v115h734v-115h-734zM150 55v765
h101v-616zM0 0q-11 0 -15.5 16t-4.5 43q0 26 4.5 41t15.5 15v-115zM516 684q-28 0 -47.5 19.5t-19.5 47.5q0 29 19.5 48t47.5 19q29 0 48 -19t19 -48q0 -28 -19 -47.5t-48 -19.5z" />
    <glyph glyph-name="uniFEC8" unicode="&#x638;" horiz-adv-x="920" arabic-form="medial" 
d="M781 0v115h139v-115h-139zM920 0v115q11 0 15.5 -15.5t4.5 -41.5t-4.5 -42t-15.5 -16zM700 0v236q0 65 -21 109t-62 67t-101 23q-49 0 -91 -17t-76 -48t-58 -75t-37 -98.5t-13 -117.5h-60q0 42 7 92.5t22.5 103.5t41 102t63 88t87.5 62t114 23q73 0 127 -25t89 -69
t52 -100.5t17 -119.5v-236h-101zM67 0v115h734v-115h-734zM150 55v765h101v-616zM0 0q-11 0 -15.5 16t-4.5 43q0 26 4.5 41t15.5 15v-115zM0 0v115h67v-115h-67zM516 684q-28 0 -47.5 19.5t-19.5 47.5q0 29 19.5 48t47.5 19q29 0 48 -19t19 -48q0 -28 -19 -47.5t-48 -19.5z
" />
    <glyph glyph-name="uniFECA" unicode="&#x639;" horiz-adv-x="717" arabic-form="final" 
d="M325 -368q-81 0 -136 20t-88 55t-47 80t-14 95q0 56 16.5 96.5t50 72.5t85.5 61t122 62q59 28 107.5 52t77 48t28.5 48q0 22 -24 39.5t-65.5 27.5t-94.5 10q-40 0 -80.5 -8t-88.5 -24l-40 -52l-65 20l89 145q41 14 87.5 24t98.5 10q83 0 147 -22t100.5 -63.5t36.5 -100.5
q0 -48 -23.5 -85.5t-63 -67.5t-87.5 -54.5t-97 -47.5q-42 -19 -80.5 -38.5t-69 -41t-48.5 -47.5t-18 -59q0 -39 25 -71t69 -50.5t100 -18.5q31 0 64.5 5.5t63 14.5t47.5 20l52 -99q-46 -27 -107.5 -41.5t-129.5 -14.5zM524 0q-115 0 -207.5 42t-156 117.5t-91.5 175.5l89 59
q15 -85 65 -148t127.5 -97t173.5 -34h193v-115h-193zM717 0v115q11 0 15.5 -15.5t4.5 -41.5t-4.5 -42t-15.5 -16z" />
    <glyph glyph-name="uniFECB" unicode="&#x639;" horiz-adv-x="628" arabic-form="initial" 
d="M398 21q-82 0 -150.5 24t-109 74t-40.5 129q0 66 24 116t66 83.5t96 50t114 16.5q44 0 92.5 -9t88.5 -26l-44 -97q-29 8 -67.5 12.5t-68.5 4.5q-95 0 -147.5 -41t-52.5 -109q0 -43 22 -73t66.5 -45.5t110.5 -15.5v-94zM0 0v115h598v-115h-598zM0 0q-11 0 -15.5 16
t-4.5 43q0 26 4.5 41t15.5 15v-115z" />
    <glyph glyph-name="uniFECC" unicode="&#x639;" horiz-adv-x="747" arabic-form="medial" 
d="M0 0v115h166q45 0 98 15.5t104.5 40t94.5 53.5t68.5 56t25.5 47q0 19 -24 35t-67 26.5t-99 10.5q-47 0 -89 -8t-90 -24l-40 -52l-65 20l89 145q41 14 89 24t107 10q87 0 152 -22.5t101.5 -62.5t36.5 -95q0 -45 -24.5 -87.5t-65.5 -79.5t-93 -67.5t-107 -53t-107.5 -34.5
t-94.5 -12h-166zM538 0q-115 0 -207.5 42t-156 117.5t-91.5 175.5l89 59q15 -85 65 -148t127.5 -97t173.5 -34h209v-115h-209zM747 0v115q11 0 15.5 -15.5t4.5 -41.5t-4.5 -42t-15.5 -16zM0 0q-11 0 -15.5 16t-4.5 43q0 26 4.5 41t15.5 15v-115z" />
    <glyph glyph-name="uniFECE" unicode="&#x63a;" horiz-adv-x="717" arabic-form="final" 
d="M325 -368q-81 0 -136 20t-88 55t-47 80t-14 95q0 56 16.5 96.5t50 72.5t85.5 61t122 62q59 28 107.5 52t77 48t28.5 48q0 22 -24 39.5t-65.5 27.5t-94.5 10q-40 0 -80.5 -8t-88.5 -24l-40 -52l-65 20l89 145q41 14 87.5 24t98.5 10q83 0 147 -22t100.5 -63.5t36.5 -100.5
q0 -48 -23.5 -85.5t-63 -67.5t-87.5 -54.5t-97 -47.5q-42 -19 -80.5 -38.5t-69 -41t-48.5 -47.5t-18 -59q0 -39 25 -71t69 -50.5t100 -18.5q31 0 64.5 5.5t63 14.5t47.5 20l52 -99q-46 -27 -107.5 -41.5t-129.5 -14.5zM524 0q-115 0 -207.5 42t-156 117.5t-91.5 175.5l89 59
q15 -85 65 -148t127.5 -97t173.5 -34h193v-115h-193zM717 0v115q11 0 15.5 -15.5t4.5 -41.5t-4.5 -42t-15.5 -16zM344 648q-28 0 -47.5 19.5t-19.5 47.5q0 29 19.5 48t47.5 19q29 0 48 -19t19 -48q0 -28 -19 -47.5t-48 -19.5z" />
    <glyph glyph-name="uniFECF" unicode="&#x63a;" horiz-adv-x="628" arabic-form="initial" 
d="M398 21q-82 0 -150.5 24t-109 74t-40.5 129q0 66 24 116t66 83.5t96 50t114 16.5q44 0 92.5 -9t88.5 -26l-44 -97q-29 8 -67.5 12.5t-68.5 4.5q-95 0 -147.5 -41t-52.5 -109q0 -43 22 -73t66.5 -45.5t110.5 -15.5v-94zM0 0v115h598v-115h-598zM0 0q-11 0 -15.5 16
t-4.5 43q0 26 4.5 41t15.5 15v-115zM398 648q-28 0 -47.5 19.5t-19.5 47.5q0 29 19.5 48t47.5 19q29 0 48 -19t19 -48q0 -28 -19 -47.5t-48 -19.5z" />
    <glyph glyph-name="uniFED0" unicode="&#x63a;" horiz-adv-x="747" arabic-form="medial" 
d="M0 0v115h166q45 0 98 15.5t104.5 40t94.5 53.5t68.5 56t25.5 47q0 19 -24 35t-67 26.5t-99 10.5q-47 0 -89 -8t-90 -24l-40 -52l-65 20l89 145q41 14 89 24t107 10q87 0 152 -22.5t101.5 -62.5t36.5 -95q0 -45 -24.5 -87.5t-65.5 -79.5t-93 -67.5t-107 -53t-107.5 -34.5
t-94.5 -12h-166zM538 0q-115 0 -207.5 42t-156 117.5t-91.5 175.5l89 59q15 -85 65 -148t127.5 -97t173.5 -34h209v-115h-209zM747 0v115q11 0 15.5 -15.5t4.5 -41.5t-4.5 -42t-15.5 -16zM0 0q-11 0 -15.5 16t-4.5 43q0 26 4.5 41t15.5 15v-115zM368 648q-28 0 -47.5 19.5
t-19.5 47.5q0 29 19.5 48t47.5 19q29 0 48 -19t19 -48q0 -28 -19 -47.5t-48 -19.5z" />
    <glyph glyph-name="uniFED2" unicode="&#x641;" horiz-adv-x="1069" arabic-form="final" 
d="M343 0q-75 0 -130.5 21.5t-91.5 58.5t-53.5 84t-17.5 98q0 48 14 96t42 91l83 -37q-20 -40 -29 -75.5t-9 -66.5q0 -51 22 -85.5t65 -52t105 -17.5h81v-115h-81zM1069 0v115q11 0 15.5 -15.5t4.5 -41.5t-4.5 -42t-15.5 -16zM424 0q-11 0 -15.5 16t-4.5 43q0 26 4.5 41
t15.5 15v-115zM424 0v115q53 0 101.5 3t90.5 9q5 1 9 -5.5t8.5 -12t8.5 -5.5q77 15 130 40t81 58t28 73q0 36 -17 64t-47 44t-70 16q-39 0 -69.5 -16t-47.5 -43.5t-17 -63.5q0 -40 29.5 -74.5t85.5 -59.5t137 -39q5 -1 9 5t8.5 12.5t8.5 5.5q40 -5 84.5 -8t93.5 -3v-115
q-122 0 -224 17t-176.5 51.5t-115.5 89t-41 129.5q0 67 31.5 118t85 80t118.5 29t118 -28.5t85 -80t32 -119.5t-32.5 -117t-88 -81.5t-127.5 -52t-151.5 -27.5t-158.5 -8zM747 648q-28 0 -47.5 19.5t-19.5 47.5q0 29 19.5 48t47.5 19q29 0 48 -19t19 -48q0 -28 -19 -47.5
t-48 -19.5z" />
    <glyph glyph-name="uniFED3" unicode="&#x641;" horiz-adv-x="640" arabic-form="initial" 
d="M0 0v115h479v346h101v-461h-580zM313 2q-54 18 -96 53t-65.5 85t-23.5 110q0 76 35 135.5t94 94t131 34.5q53 0 103 -16.5t89 -36.5l-45 -103q-40 20 -77.5 30.5t-69.5 10.5q-46 0 -82 -19.5t-56.5 -53t-20.5 -76.5q0 -60 28 -104.5t83 -71.5zM0 0q-11 0 -15.5 16
t-4.5 43q0 26 4.5 41t15.5 15v-115zM388 648q-28 0 -47.5 19.5t-19.5 47.5q0 29 19.5 48t47.5 19q29 0 48 -19t19 -48q0 -28 -19 -47.5t-48 -19.5z" />
    <glyph glyph-name="uniFED4" unicode="&#x641;" horiz-adv-x="645" arabic-form="medial" 
d="M0 0v115q53 0 101.5 3t90.5 9q5 1 9 -5.5t8.5 -12t8.5 -5.5q77 15 130 40t81 58t28 73q0 36 -17 64t-47 44t-70 16q-39 0 -69.5 -16t-47.5 -43.5t-17 -63.5q0 -40 29.5 -74.5t85.5 -59.5t137 -39q5 -1 9 5t8.5 12.5t8.5 5.5q40 -5 84.5 -8t93.5 -3v-115q-122 0 -224 17
t-176.5 51.5t-115.5 89t-41 129.5q0 67 31.5 118t85 80t118.5 29t118 -28.5t85 -80t32 -119.5t-32.5 -117t-88 -81.5t-127.5 -52t-151.5 -27.5t-158.5 -8zM645 0v115q11 0 15.5 -15.5t4.5 -41.5t-4.5 -42t-15.5 -16zM0 0q-11 0 -15.5 16t-4.5 43q0 26 4.5 41t15.5 15v-115z
M323 648q-28 0 -47.5 19.5t-19.5 47.5q0 29 19.5 48t47.5 19q29 0 48 -19t19 -48q0 -28 -19 -47.5t-48 -19.5z" />
    <glyph glyph-name="uniFED6" unicode="&#x642;" horiz-adv-x="921" arabic-form="final" 
d="M730 0v115h191v-115h-191zM921 0v115q11 0 15.5 -15.5t4.5 -41.5t-4.5 -42t-15.5 -16zM422 -285q-88 0 -159 32t-120.5 89.5t-76 133.5t-26.5 164q0 42 6.5 84.5t17.5 82.5l96 -19q-10 -39 -14.5 -75.5t-4.5 -69.5q0 -96 36 -164.5t99.5 -105.5t145.5 -37q81 0 144 36.5
t99 105t36 162.5v327h101v-327q0 -88 -26 -164t-75.5 -133.5t-120 -89.5t-158.5 -32zM607 0q-78 0 -135.5 34t-89.5 91.5t-32 126.5q0 56 20 103.5t56 83t83 55.5t101 20q53 0 103 -16.5t89 -36.5l-45 -103q-82 41 -147 41q-45 0 -81 -19.5t-57 -52.5t-21 -75
q0 -40 19.5 -71t54.5 -48.5t82 -17.5h144v-115h-144zM681 636q-26 0 -43.5 17.5t-17.5 43.5q0 27 17.5 44t43.5 17t43.5 -17t17.5 -44q0 -26 -17.5 -43.5t-43.5 -17.5zM539 636q-26 0 -43.5 17.5t-17.5 43.5q0 27 17.5 44t43.5 17t43.5 -17t17.5 -44q0 -26 -17.5 -43.5
t-43.5 -17.5z" />
    <glyph glyph-name="uniFED7" unicode="&#x642;" horiz-adv-x="640" arabic-form="initial" 
d="M0 0v115h479v346h101v-461h-580zM313 2q-54 18 -96 53t-65.5 85t-23.5 110q0 76 35 135.5t94 94t131 34.5q53 0 103 -16.5t89 -36.5l-45 -103q-40 20 -77.5 30.5t-69.5 10.5q-46 0 -82 -19.5t-56.5 -53t-20.5 -76.5q0 -60 28 -104.5t83 -71.5zM0 0q-11 0 -15.5 16
t-4.5 43q0 26 4.5 41t15.5 15v-115zM459 636q-26 0 -43.5 17.5t-17.5 43.5q0 27 17.5 44t43.5 17t43.5 -17t17.5 -44q0 -26 -17.5 -43.5t-43.5 -17.5zM317 636q-26 0 -43.5 17.5t-17.5 43.5q0 27 17.5 44t43.5 17t43.5 -17t17.5 -44q0 -26 -17.5 -43.5t-43.5 -17.5z" />
    <glyph glyph-name="uniFED8" unicode="&#x642;" horiz-adv-x="645" arabic-form="medial" 
d="M0 0v115q53 0 101.5 3t90.5 9q5 1 9 -5.5t8.5 -12t8.5 -5.5q77 15 130 40t81 58t28 73q0 36 -17 64t-47 44t-70 16q-39 0 -69.5 -16t-47.5 -43.5t-17 -63.5q0 -40 29.5 -74.5t85.5 -59.5t137 -39q5 -1 9 5t8.5 12.5t8.5 5.5q40 -5 84.5 -8t93.5 -3v-115q-122 0 -224 17
t-176.5 51.5t-115.5 89t-41 129.5q0 67 31.5 118t85 80t118.5 29t118 -28.5t85 -80t32 -119.5t-32.5 -117t-88 -81.5t-127.5 -52t-151.5 -27.5t-158.5 -8zM645 0v115q11 0 15.5 -15.5t4.5 -41.5t-4.5 -42t-15.5 -16zM0 0q-11 0 -15.5 16t-4.5 43q0 26 4.5 41t15.5 15v-115z
M394 636q-26 0 -43.5 17.5t-17.5 43.5q0 27 17.5 44t43.5 17t43.5 -17t17.5 -44q0 -26 -17.5 -43.5t-43.5 -17.5zM252 636q-26 0 -43.5 17.5t-17.5 43.5q0 27 17.5 44t43.5 17t43.5 -17t17.5 -44q0 -26 -17.5 -43.5t-43.5 -17.5z" />
    <glyph glyph-name="uniFEDA" unicode="&#x643;" horiz-adv-x="947" arabic-form="final" 
d="M778 0v115h169v-115h-169zM343 0q-75 0 -130.5 21.5t-91.5 58.5t-53.5 84t-17.5 98q0 48 14 96t42 91l83 -37q-20 -40 -29 -75.5t-9 -66.5q0 -51 22 -85.5t65 -52t105 -17.5h384v705h101v-820h-485zM947 0v115q11 0 15.5 -15.5t4.5 -41.5t-4.5 -42t-15.5 -16zM352 372v62
q43 0 90.5 5.5t77.5 13.5l-5 -7l-91 33q-24 9 -34.5 23.5t-10.5 30.5q0 31 21 61t59 50.5t89 20.5v-61q-38 0 -66 -13.5t-43 -33.5t-15 -41l-26 39l115 -42q29 -10 40.5 -25.5t11.5 -29.5q0 -16 -7.5 -31t-29.5 -27.5t-64.5 -20t-111.5 -7.5z" />
    <glyph glyph-name="uniFEDB" unicode="&#x643;" horiz-adv-x="525" arabic-form="initial" 
d="M0 0v115h174q48 0 81.5 11.5t51 31t17.5 43.5q0 16 -8.5 33t-33 41t-72.5 61.5t-128 94.5l-50 38l67 87l70 -52q65 -48 113.5 -85.5t80 -71.5t47 -69t15.5 -77q0 -64 -33 -109t-90 -68.5t-128 -23.5h-174zM32 469v124l433 200v-125zM0 0q-11 0 -15.5 16t-4.5 43
q0 26 4.5 41t15.5 15v-115z" />
    <glyph glyph-name="uniFEDC" unicode="&#x643;" horiz-adv-x="565" arabic-form="medial" 
d="M524 0q-70 0 -114 21.5t-65 65.5t-21 111v2h101v-2q0 -34 7 -52t28.5 -24.5t63.5 -6.5h41v-115h-41zM0 0q-11 0 -15.5 16t-4.5 43q0 26 4.5 41t15.5 15v-115zM0 0v115h174q48 0 81.5 11.5t51 31t17.5 43.5q0 16 -8.5 33t-33 41t-72.5 61.5t-128 94.5l-50 38l67 87l70 -52
q65 -48 113.5 -85.5t80 -71.5t47 -69t15.5 -77q0 -64 -33 -109t-90 -68.5t-128 -23.5h-174zM32 469v124l433 200v-125zM565 0v115q11 0 15.5 -15.5t4.5 -41.5t-4.5 -42t-15.5 -16z" />
    <glyph glyph-name="uniFEDE" unicode="&#x644;" horiz-adv-x="802" arabic-form="final" 
d="M761 0q-70 0 -114 21.5t-65 65.5t-21 111h101q0 -34 7 -52t28.5 -24.5t63.5 -6.5h41v-115h-41zM351 -206q-74 0 -131.5 27t-97.5 75t-61 111.5t-21 137.5q0 44 7 89t19 86l96 -18q-10 -42 -15.5 -80.5t-5.5 -76.5q0 -74 25.5 -127t73 -81t111.5 -28q65 0 112 28t72.5 81
t25.5 127v675h101v-675q0 -74 -21 -137.5t-61 -111.5t-97.5 -75t-131.5 -27zM802 0v115q11 0 15.5 -15.5t4.5 -41.5t-4.5 -42t-15.5 -16z" />
    <glyph glyph-name="uniFEDF" unicode="&#x644;" horiz-adv-x="291" arabic-form="initial" 
d="M0 0v115h130v705h101v-820h-231zM0 0q-11 0 -15.5 16t-4.5 43q0 26 4.5 41t15.5 15v-115z" />
    <glyph glyph-name="uniFEE0" unicode="&#x644;" horiz-adv-x="350" arabic-form="medial" 
d="M0 0v115h31q43 0 64 6.5t28 24.5t7 52v622h101v-622q0 -67 -21 -111t-65 -65.5t-114 -21.5h-31zM330 0q-70 0 -114 21.5t-65 65.5t-21 111h101q0 -34 7 -52t28.5 -24.5t63.5 -6.5h20v-115h-20zM350 0v115q11 0 15.5 -15.5t4.5 -41.5t-4.5 -42t-15.5 -16zM0 0
q-11 0 -15.5 16t-4.5 43q0 26 4.5 41t15.5 15v-115z" />
    <glyph glyph-name="uniFEE2" unicode="&#x645;" horiz-adv-x="736" arabic-form="final" 
d="M695 0q-65 0 -107 21.5t-62.5 65.5t-20.5 111v24h91v-24q0 -34 7 -52t28.5 -24.5t63.5 -6.5h41v-115h-41zM67 -348q-4 33 -8.5 73.5t-9 82t-7 76t-2.5 55.5q0 43 12.5 80t35 65.5t54 44.5t68.5 16q21 0 58.5 -5t85 -13t99 -17.5t100.5 -19.5l-17 -104q-48 10 -98 19.5
t-95 17t-78.5 12t-48.5 4.5q-21 0 -40 -9.5t-31.5 -32t-12.5 -61.5q0 -18 3 -52.5t7.5 -76.5t9.5 -83t9 -72h-94zM536 -14l-88 57q23 40 35 86t12 93q0 74 -24 109t-70 35q-29 0 -54.5 -14.5t-53.5 -50t-66 -99.5l-87 58q23 40 49 79t57 71t69 51.5t86 19.5q53 0 90.5 -22.5
t60.5 -60t33.5 -83.5t10.5 -93q0 -51 -14 -115.5t-46 -120.5zM736 0v115q11 0 15.5 -15.5t4.5 -41.5t-4.5 -42t-15.5 -16z" />
    <glyph glyph-name="uniFEE3" unicode="&#x645;" horiz-adv-x="700" arabic-form="initial" 
d="M0 0v115q48 0 80 19t56.5 52t47.5 74q23 40 49 79t57 71t69 51.5t86 19.5q53 0 90.5 -22.5t60.5 -60t33.5 -83.5t10.5 -93q0 -51 -14 -115.5t-46 -120.5l-88 57q23 40 35 86t12 93q0 74 -24 109t-70 35q-29 0 -54.5 -14.5t-53.5 -50t-66 -99.5q-40 -68 -78.5 -113
t-84 -67t-108.5 -22zM575 101l5 -115q-90 -5 -156 1.5t-115.5 23.5t-88 43.5t-71.5 60.5l73 80q37 -38 83.5 -60.5t112 -30.5t157.5 -3zM0 0q-11 0 -15.5 16t-4.5 43q0 26 4.5 41t15.5 15v-115z" />
    <glyph glyph-name="uniFEE4" unicode="&#x645;" horiz-adv-x="780" arabic-form="medial" 
d="M739 0q-65 0 -107 21.5t-62.5 65.5t-20.5 111v24h91v-24q0 -34 7 -52t28.5 -24.5t63.5 -6.5h41v-115h-41zM0 0q-11 0 -15.5 16t-4.5 43q0 26 4.5 41t15.5 15v-115zM0 0v115q48 0 80 19t56.5 52t47.5 74q23 40 49 79t57 71t69 51.5t86 19.5q53 0 90.5 -22.5t60.5 -60
t33.5 -83.5t10.5 -93q0 -51 -14 -115.5t-46 -120.5l-88 57q23 40 35 86t12 93q0 74 -24 109t-70 35q-29 0 -54.5 -14.5t-53.5 -50t-66 -99.5q-40 -68 -78.5 -113t-84 -67t-108.5 -22zM575 101l5 -115q-90 -5 -156 1.5t-115.5 23.5t-88 43.5t-71.5 60.5l73 80
q37 -38 83.5 -60.5t112 -30.5t157.5 -3zM780 0v115q11 0 15.5 -15.5t4.5 -41.5t-4.5 -42t-15.5 -16z" />
    <glyph glyph-name="uniFEE6" unicode="&#x646;" horiz-adv-x="820" arabic-form="final" 
d="M779 0q-88 0 -135.5 34.5t-59.5 104.5l97 40q3 -39 22 -51.5t76 -12.5h41v-115h-41zM361 -266q-78 0 -137.5 27t-100.5 75t-62 111.5t-21 137.5q0 44 7 89t19 86l96 -18q-10 -42 -15.5 -80.5t-5.5 -76.5q0 -74 26 -127t75.5 -81t118.5 -28q70 0 119 28t75 81t26 127v397
h101v-397q0 -74 -21 -137.5t-62 -111.5t-100.5 -75t-137.5 -27zM820 0v115q11 0 15.5 -15.5t4.5 -41.5t-4.5 -42t-15.5 -16zM361 469q-28 0 -47.5 19.5t-19.5 47.5q0 29 19.5 48t47.5 19q29 0 48 -19t19 -48q0 -28 -19 -47.5t-48 -19.5z" />
    <glyph glyph-name="uniFEE7" unicode="&#x646;" horiz-adv-x="311" arabic-form="initial" 
d="M140 482h101v-482h-241v115h140v367zM0 0q-11 0 -15.5 16t-4.5 43q0 26 4.5 41t15.5 15v-115zM191 616q-28 0 -47.5 19.5t-19.5 47.5q0 29 19.5 48t47.5 19q29 0 48 -19t19 -48q0 -28 -19 -47.5t-48 -19.5z" />
    <glyph glyph-name="uniFEE8" unicode="&#x646;" horiz-adv-x="391" arabic-form="medial" 
d="M0 0v115h51q43 0 64 6.5t28 24.5t7 52v284h101v-284q0 -67 -21 -111t-65 -65.5t-114 -21.5h-51zM350 0q-70 0 -114 21.5t-65 65.5t-21 111h101q0 -34 7 -52t28.5 -24.5t63.5 -6.5h41v-115h-41zM391 0v115q11 0 15.5 -15.5t4.5 -41.5t-4.5 -42t-15.5 -16zM0 0
q-11 0 -15.5 16t-4.5 43q0 26 4.5 41t15.5 15v-115zM201 616q-28 0 -47.5 19.5t-19.5 47.5q0 29 19.5 48t47.5 19q29 0 48 -19t19 -48q0 -28 -19 -47.5t-48 -19.5z" />
    <glyph glyph-name="uniFEEA" unicode="&#x647;" horiz-adv-x="637" arabic-form="final" 
d="M325 30q-61 0 -113.5 14t-90.5 41t-59.5 67.5t-21.5 94.5q0 61 27.5 107.5t77 79.5t115.5 53.5t143 29.5l12 -114q-46 -5 -94 -16.5t-89 -30.5t-66 -46t-25 -63q0 -35 25 -58t67 -33.5t92 -10.5q38 0 70.5 5t60.5 14l30 -110q-37 -12 -78.5 -18t-82.5 -6zM596 0
q-70 0 -114 21.5t-65 65.5t-21 111v346h101v-346q0 -34 7 -52t28.5 -24.5t63.5 -6.5h41v-115h-41zM637 0v115q11 0 15.5 -15.5t4.5 -41.5t-4.5 -42t-15.5 -16z" />
    <glyph glyph-name="uniFEEB" unicode="&#x647;" horiz-adv-x="749" arabic-form="initial" 
d="M444 -2q-70 0 -140.5 21.5t-128 62t-92.5 97.5t-35 127q0 60 26 110.5t71.5 81.5t103.5 31q44 0 81.5 -18t65 -48.5t43 -70t15.5 -82.5q0 -61 -31 -116.5t-90 -99t-143 -69t-190 -25.5v115q76 0 140 16t112 43t74.5 62t26.5 74q0 29 -14 52.5t-37.5 37.5t-52.5 14
q-28 0 -50.5 -14t-36 -37t-13.5 -51q0 -44 29 -81.5t76 -65t101 -42.5t104 -15q38 0 69.5 10.5t50.5 34.5t19 65q0 55 -43.5 93t-136.5 65.5t-241 52.5q-5 1 -10.5 1.5t-11 1.5t-11.5 2q-30 5 -62.5 9.5t-67.5 10.5l13 113q149 -21 272.5 -45t213 -60.5t138 -94.5t48.5 -147
q0 -60 -20.5 -102.5t-56.5 -68.5t-81.5 -38.5t-96.5 -12.5zM0 0q-11 0 -15.5 16t-4.5 43q0 26 4.5 41t15.5 15v-115z" />
    <glyph glyph-name="uniFEEC" unicode="&#x647;" horiz-adv-x="649" arabic-form="medial" 
d="M356 -297q-49 0 -97.5 19.5t-88.5 57.5t-64 93t-24 127v133q0 104 24.5 177t64.5 118.5t88.5 66.5t96.5 21q59 0 106.5 -26.5t75.5 -75t28 -113.5q0 -68 -30.5 -123.5t-84.5 -95t-125 -61t-153 -21.5h-173v115h173q85 0 151 25t103.5 67t37.5 94q0 31 -13 53.5
t-37.5 34.5t-58.5 12q-52 0 -91 -31.5t-60.5 -91t-21.5 -145.5v-133q0 -52 23 -93.5t62 -65t88 -23.5q35 0 59 12t37 34.5t13 53.5q0 38 -20 80t-63 72l42 72q142 -79 142 -224q0 -66 -27.5 -114t-75 -74.5t-107.5 -26.5zM649 0q-97 0 -161 21t-106 49l56 96
q36 -24 88 -37.5t123 -13.5v-115zM649 0v115q11 0 15.5 -15.5t4.5 -41.5t-4.5 -42t-15.5 -16zM0 0q-11 0 -15.5 16t-4.5 43q0 26 4.5 41t15.5 15v-115z" />
    <glyph glyph-name="uniFEEE" unicode="&#x648;" horiz-adv-x="611" arabic-form="final" 
d="M465 0v115h146v-115h-146zM611 0v115q11 0 15.5 -15.5t4.5 -41.5t-4.5 -42t-15.5 -16zM80 -266v115h195q62 0 89 25t27 80v507h101v-507q0 -70 -26.5 -119.5t-75 -75t-115.5 -25.5h-195zM297 0q-78 0 -135.5 34t-89.5 91.5t-32 126.5q0 56 20 103.5t56 83t83 55.5t101 20
q53 0 103 -16.5t89 -36.5l-45 -103q-82 41 -147 41q-45 0 -81 -19.5t-57 -52.5t-21 -75q0 -40 19.5 -71t54.5 -48.5t82 -17.5h144v-115h-144z" />
    <glyph glyph-name="uniFEF0" unicode="&#x649;" horiz-adv-x="875" arabic-form="final" 
d="M467 -322q-133 0 -229 37.5t-147 111.5t-51 183q0 32 4.5 65.5t12.5 70.5l95 -19q-6 -37 -8.5 -64t-2.5 -46q0 -112 80.5 -168t241.5 -56q96 0 165.5 17.5t107.5 46.5t38 63q0 20 -15 34t-50 28t-95 35l31 109q41 -13 82 -29t74.5 -39t53.5 -56.5t20 -82.5t-21 -87.5
t-58.5 -67.5t-88.5 -48t-112 -28.5t-128 -9.5zM723 0q-117 0 -177 58l70 82q7 -6 22.5 -12t37.5 -9.5t47 -3.5h152v-115h-152zM875 0v115q11 0 15.5 -15.5t4.5 -41.5t-4.5 -42t-15.5 -16z" />
    <glyph glyph-name="uniFEF2" unicode="&#x64a;" horiz-adv-x="875" arabic-form="final" 
d="M467 -322q-133 0 -229 37.5t-147 111.5t-51 183q0 32 4.5 65.5t12.5 70.5l95 -19q-6 -37 -8.5 -64t-2.5 -46q0 -112 80.5 -168t241.5 -56q96 0 165.5 17.5t107.5 46.5t38 63q0 20 -15 34t-50 28t-95 35l31 109q41 -13 82 -29t74.5 -39t53.5 -56.5t20 -82.5t-21 -87.5
t-58.5 -67.5t-88.5 -48t-112 -28.5t-128 -9.5zM723 0q-117 0 -177 58l70 82q7 -6 22.5 -12t37.5 -9.5t47 -3.5h152v-115h-152zM875 0v115q11 0 15.5 -15.5t4.5 -41.5t-4.5 -42t-15.5 -16zM539 -566q-26 0 -43.5 18t-17.5 43q0 27 17.5 44t43.5 17t43.5 -17t17.5 -44
q0 -25 -17.5 -43t-43.5 -18zM397 -566q-26 0 -43.5 18t-17.5 43q0 27 17.5 44t43.5 17t43.5 -17t17.5 -44q0 -25 -17.5 -43t-43.5 -18z" />
    <glyph glyph-name="uniFEF3" unicode="&#x64a;" horiz-adv-x="311" arabic-form="initial" 
d="M140 482h101v-482h-241v115h140v367zM0 0q-11 0 -15.5 16t-4.5 43q0 26 4.5 41t15.5 15v-115zM223 -244q-26 0 -43.5 18t-17.5 43q0 27 17.5 44t43.5 17t43.5 -17t17.5 -44q0 -25 -17.5 -43t-43.5 -18zM81 -244q-26 0 -43.5 18t-17.5 43q0 27 17.5 44t43.5 17t43.5 -17
t17.5 -44q0 -25 -17.5 -43t-43.5 -18z" />
    <glyph glyph-name="uniFEF4" unicode="&#x64a;" horiz-adv-x="391" arabic-form="medial" 
d="M0 0v115h51q43 0 64 6.5t28 24.5t7 52v284h101v-284q0 -67 -21 -111t-65 -65.5t-114 -21.5h-51zM350 0q-70 0 -114 21.5t-65 65.5t-21 111h101q0 -34 7 -52t28.5 -24.5t63.5 -6.5h41v-115h-41zM391 0v115q11 0 15.5 -15.5t4.5 -41.5t-4.5 -42t-15.5 -16zM0 0
q-11 0 -15.5 16t-4.5 43q0 26 4.5 41t15.5 15v-115zM272 -244q-26 0 -43.5 18t-17.5 43q0 27 17.5 44t43.5 17t43.5 -17t17.5 -44q0 -25 -17.5 -43t-43.5 -18zM130 -244q-26 0 -43.5 18t-17.5 43q0 27 17.5 44t43.5 17t43.5 -17t17.5 -44q0 -25 -17.5 -43t-43.5 -18z" />
    <glyph glyph-name=".notdef" horiz-adv-x="587" 
d="M40 0v700h507v-700h-507zM120 70h347v560h-347v-560z" />
    <glyph glyph-name=".null" 
 />
    <glyph glyph-name="nonmarkingreturn" horiz-adv-x="333" 
 />
    <glyph glyph-name="CR" unicode="&#xd;" horiz-adv-x="300" 
 />
    <glyph glyph-name="space" unicode=" " horiz-adv-x="270" 
 />
    <glyph glyph-name="exclam" unicode="!" horiz-adv-x="210" 
d="M65 691h110v-172l-19 -299h-72l-19 299v172zM120 118q27 0 45 -17.5t18 -45.5t-18 -46t-45 -18t-45 18t-18 46t18 45.5t45 17.5z" />
    <glyph glyph-name="quotedbl" unicode="&#x22;" horiz-adv-x="362" 
d="M60 700h88v-242h-88v242zM214 700h88v-242h-88v242z" />
    <glyph glyph-name="numbersign" unicode="#" horiz-adv-x="725" 
d="M35 257h629l-8 -81h-629zM68 518h628l-7 -81h-629zM232 700h85l-87 -700h-84zM494 700h85l-87 -700h-84z" />
    <glyph glyph-name="dollar" unicode="$" horiz-adv-x="622" 
d="M275 831h88v-198h-88v198zM275 71h88v-211h-88v211zM518 538q-38 24 -75 38t-70 20t-60 6q-52 0 -83 -20t-31 -58q0 -34 20.5 -55.5t54 -35t74 -25.5t80.5 -26.5t74 -37.5t54 -58.5t20 -89.5q0 -62 -34 -107.5t-93.5 -70.5t-136.5 -25q-55 0 -107 14.5t-97.5 39.5
t-81.5 58l51 97q36 -33 76.5 -56t82 -35t78.5 -12q62 0 96.5 24t34.5 67q0 35 -20.5 56.5t-54 35.5t-74 25t-81 25.5t-74 36.5t-54 57t-20.5 89q0 59 32 102.5t89.5 67.5t133.5 24q68 0 132 -20t113 -52z" />
    <glyph glyph-name="percent" unicode="%" horiz-adv-x="964" 
d="M221 702q86 0 135.5 -55t49.5 -153t-49.5 -153.5t-135.5 -55.5q-57 0 -98.5 25t-64 72t-22.5 112q0 98 49.5 153t135.5 55zM221 638q-52 0 -80 -38t-28 -106q0 -69 28 -107t80 -38t80.5 38t28.5 107q0 68 -28.5 106t-80.5 38zM690 700h90l-514 -700h-91zM743 415
q86 0 135.5 -55t49.5 -153t-49.5 -153.5t-135.5 -55.5q-57 0 -98.5 25t-64 72t-22.5 112q0 98 49.5 153t135.5 55zM743 351q-52 0 -80 -38t-28 -106q0 -69 28 -107t80 -38t80.5 38t28.5 107q0 68 -28.5 106t-80.5 38z" />
    <glyph glyph-name="ampersand" unicode="&#x26;" horiz-adv-x="663" 
d="M615 286q-37 -90 -89.5 -155t-115.5 -100.5t-133 -35.5q-62 0 -112 25.5t-79 69.5t-29 101q0 54 25.5 92t65.5 65.5t85 49.5t85 44.5t65.5 50t25.5 65.5q0 35 -23 57t-62 22q-42 0 -67 -25.5t-25 -62.5q0 -39 25.5 -84.5t78 -104.5t132 -137.5t188.5 -183.5l-59 -57
q-96 93 -170 166t-128 130.5t-89 104t-52 87t-17 78.5q0 46 23 81.5t63.5 55.5t95.5 20q53 0 92.5 -19t62 -52t22.5 -75q0 -49 -25 -84t-64.5 -61t-84 -48t-84.5 -45.5t-65 -52.5t-25 -69q0 -36 17 -63.5t46.5 -42.5t65.5 -15q52 0 100.5 32t89 91t69.5 138z" />
    <glyph glyph-name="quotesingle" unicode="'" horiz-adv-x="208" 
d="M60 700h88v-242h-88v242z" />
    <glyph glyph-name="parenleft" unicode="(" horiz-adv-x="312" 
d="M296 742q-55 -85 -86.5 -196.5t-31.5 -236.5q0 -124 31.5 -235.5t86.5 -197.5h-104q-59 86 -90.5 197.5t-31.5 235.5q0 125 31.5 236.5t90.5 196.5h104z" />
    <glyph glyph-name="parenright" unicode=")" horiz-adv-x="312" 
d="M16 742h104q59 -85 90.5 -196.5t31.5 -236.5q0 -124 -31.5 -235.5t-90.5 -197.5h-104q55 86 86.5 197.5t31.5 235.5q0 125 -31.5 236.5t-86.5 196.5z" />
    <glyph glyph-name="asterisk" unicode="*" horiz-adv-x="348" 
d="M144 721h60l-1 -104l89 53l30 -53l-90 -51l90 -51l-30 -53l-89 53l1 -103h-60l1 104l-89 -53l-31 52l90 51l-90 51l31 54l89 -54z" />
    <glyph glyph-name="plus" unicode="+" horiz-adv-x="498" 
d="M35 362h428v-76h-428v76zM212 538h75v-428h-75v428z" />
    <glyph glyph-name="comma" unicode="," horiz-adv-x="214" 
d="M120 -7q-38 0 -55.5 18.5t-17.5 42.5q0 27 17.5 44t44.5 17q24 0 42.5 -16t18.5 -45q0 -14 -5.5 -26t-11.5 -24l-57 -114h-59l56 156z" />
    <glyph glyph-name="hyphen" unicode="-" horiz-adv-x="368" 
d="M61 342h246v-76h-246v76z" />
    <glyph glyph-name="period" unicode="." horiz-adv-x="218" 
d="M109 118q27 0 45 -17.5t18 -45.5t-18 -46t-45 -18t-45 18t-18 46t18 45.5t45 17.5z" />
    <glyph glyph-name="slash" unicode="/" horiz-adv-x="331" 
d="M296 817h98l-317 -935h-98z" />
    <glyph glyph-name="zero" unicode="0" horiz-adv-x="707" 
d="M355 705q143 0 220 -92t77 -263t-77 -263t-220 -92q-144 0 -221 92t-77 263t77 263t221 92zM355 617q-88 0 -132.5 -65.5t-44.5 -201.5q0 -135 44.5 -201t132.5 -66t132 66t44 201q0 136 -44 201.5t-132 65.5z" />
    <glyph glyph-name="one" unicode="1" horiz-adv-x="375" 
d="M6 700h269v-700h-118v652l52 -52h-203v100z" />
    <glyph glyph-name="two" unicode="2" horiz-adv-x="585" 
d="M305 360q40 41 64.5 82t24.5 72q0 44 -32.5 68.5t-90.5 24.5q-47 0 -99.5 -23t-97.5 -63l-48 85q59 46 125.5 72.5t135.5 26.5t120.5 -21.5t80.5 -61t29 -92.5q0 -52 -37 -110.5t-95 -118.5l-228 -237l-16 36h410v-100h-513v83z" />
    <glyph glyph-name="three" unicode="3" horiz-adv-x="589" 
d="M321 405q98 -7 158.5 -56t60.5 -132q0 -65 -33.5 -115.5t-95 -78.5t-146.5 -28q-70 0 -138 20.5t-116 54.5l49 90q41 -34 92.5 -52.5t104.5 -18.5t90.5 15.5t57.5 44t20 65.5q0 59 -45 89t-125 30h-102v70l241 237l16 -40h-364l-1 100h460v-70l-262 -258l-15 40z" />
    <glyph glyph-name="four" unicode="4" horiz-adv-x="597" 
d="M11 174v84l238 442h114l-250 -469l-27 43h480v-100h-555zM352 444h110v-444h-110v444z" />
    <glyph glyph-name="five" unicode="5" horiz-adv-x="618" 
d="M212 390l-26 51q12 1 35.5 1.5t49.5 0.5h44q80 0 138.5 -28t90.5 -76t32 -109q0 -71 -33.5 -124t-94 -82t-142.5 -29q-64 0 -134.5 22t-124.5 58l48 90q44 -34 96 -53t104 -19q71 0 113 35t42 94q0 56 -40.5 88.5t-123.5 32.5q-12 0 -35 -0.5t-50.5 -2t-53.5 -3.5t-45 -4
v367h444v-100h-387l53 52v-262z" />
    <glyph glyph-name="six" unicode="6" horiz-adv-x="634" 
d="M520 568q-32 21 -73.5 32.5t-81.5 11.5q-68 0 -112 -33t-64.5 -92t-18.5 -138q28 51 76.5 77t114.5 26q70 0 120.5 -27.5t78 -77.5t27.5 -118q0 -72 -30.5 -124.5t-86 -81t-130.5 -28.5q-88 0 -152 40.5t-98.5 116.5t-34.5 183q0 112 37 195t105 129t160 46
q52 0 109 -14.5t100 -38.5zM339 364q-47 0 -81 -19.5t-51.5 -51t-17.5 -68.5q0 -23 8 -47t26 -43.5t45.5 -31.5t65.5 -12q43 0 75 16.5t50 48t18 74.5q0 62 -37 98t-101 36z" />
    <glyph glyph-name="seven" unicode="7" horiz-adv-x="571" 
d="M8 700h533v-85l-295 -615h-125l311 646l30 -46h-400l53 51l-2 -150h-105v199z" />
    <glyph glyph-name="eight" unicode="8" horiz-adv-x="633" 
d="M318 705q72 0 124.5 -22t80.5 -62.5t28 -96.5q0 -51 -27.5 -90t-74.5 -60q63 -22 100 -68t37 -110q0 -62 -32.5 -107t-92.5 -69.5t-142 -24.5t-142 24t-92.5 69t-32.5 106q0 65 38.5 111.5t103.5 68.5q-50 23 -79 62.5t-29 91.5q0 55 28.5 94.5t80.5 61t123 21.5z
M318 325q-73 0 -114 -31.5t-41 -87.5q0 -58 41 -90.5t115 -32.5t115 32t41 90q0 56 -41.5 88t-115.5 32zM319 624q-63 0 -98 -28t-35 -78t35 -78t98 -28t97.5 28t34.5 78t-34.5 78t-97.5 28z" />
    <glyph glyph-name="nine" unicode="9" horiz-adv-x="632" 
d="M115 132q32 -21 73 -32.5t81 -11.5q68 0 111.5 33t64 92.5t18.5 137.5q-28 -51 -76 -77t-114 -26q-69 0 -119.5 27.5t-77.5 77.5t-27 118q0 72 30.5 124.5t85.5 81t129 28.5q88 0 151.5 -40.5t98 -116.5t34.5 -183q0 -112 -37 -195t-104.5 -129t-159.5 -46
q-52 0 -108.5 14.5t-99.5 38.5zM300 609q-42 0 -73.5 -16.5t-49.5 -47.5t-18 -75q0 -61 36.5 -97.5t99.5 -36.5q48 0 81.5 19.5t51 51t16.5 68.5q0 23 -8 47t-25.5 43.5t-45 31.5t-65.5 12z" />
    <glyph glyph-name="colon" unicode=":" horiz-adv-x="218" 
d="M109 415q27 0 45 -17.5t18 -45.5t-18 -46t-45 -18t-45 18t-18 46t18 45.5t45 17.5zM109 118q27 0 45 -17.5t18 -45.5t-18 -46t-45 -18t-45 18t-18 46t18 45.5t45 17.5z" />
    <glyph glyph-name="semicolon" unicode=";" horiz-adv-x="216" 
d="M109 415q27 0 45 -17.5t18 -45.5t-18 -46t-45 -18t-45 18t-18 46t18 45.5t45 17.5zM120 -7q-38 0 -55.5 18.5t-17.5 42.5q0 27 17.5 44t44.5 17q24 0 42.5 -16t18.5 -45q0 -14 -5.5 -26t-11.5 -24l-57 -114h-59l56 156z" />
    <glyph glyph-name="less" unicode="&#x3c;" horiz-adv-x="498" 
d="M463 559v-84l-351 -149l351 -150v-84l-428 186v96z" />
    <glyph glyph-name="equal" unicode="=" horiz-adv-x="498" 
d="M35 466h428v-75h-428v75zM35 257h428v-75h-428v75z" />
    <glyph glyph-name="greater" unicode="&#x3e;" horiz-adv-x="498" 
d="M35 97v84l351 149l-351 150v84l428 -186v-96z" />
    <glyph glyph-name="question" unicode="?" horiz-adv-x="443" 
d="M23 499q2 93 58 144t149 51q60 0 105 -19t70 -55.5t25 -91.5q0 -40 -12.5 -68.5t-33 -50t-42.5 -40.5t-42.5 -38.5t-33 -44.5t-12.5 -60h-88q0 41 11.5 69.5t29 49.5t37.5 38.5t37.5 35.5t29 40t11.5 53q0 46 -27.5 67.5t-74.5 21.5q-49 0 -77 -25.5t-30 -77.5zM209 118
q27 0 45 -17.5t18 -45.5t-18 -46t-45 -18t-45 18t-18 46t18 45.5t45 17.5z" />
    <glyph glyph-name="at" unicode="@" horiz-adv-x="974" 
d="M714 148q0 -29 13 -42t33 -13q25 0 46 22.5t34.5 62t13.5 91.5q0 75 -25 139.5t-72 112.5t-114 75t-150 27q-78 0 -145.5 -27.5t-119 -76t-80 -113t-28.5 -139.5q0 -73 27.5 -135t76 -108t114.5 -71t142 -25q44 0 97.5 14.5t95.5 44.5l41 -72q-29 -21 -69.5 -36.5
t-83.5 -24t-81 -8.5q-95 0 -176.5 31.5t-142 88.5t-94 134t-33.5 167q0 92 35 171.5t97.5 138.5t146 92t180.5 33q96 0 178 -32t142 -89.5t93.5 -136.5t33.5 -172q0 -76 -24.5 -132t-67.5 -87t-99 -31q-46 0 -77 20t-39 62l-2 21q-31 -46 -75.5 -68.5t-96.5 -22.5
q-61 0 -113.5 29.5t-85 82.5t-32.5 123q0 66 27.5 120t77 86.5t115.5 32.5q44 0 78 -14.5t54.5 -32.5t25.5 -29v66h108v-350zM469 410q-37 0 -65 -18.5t-43.5 -49t-15.5 -68.5q0 -39 15.5 -71.5t44 -52t66.5 -19.5q40 0 68.5 19t44 51.5t15.5 71.5q0 38 -16 69t-45 49.5
t-69 18.5z" />
    <glyph glyph-name="A" unicode="A" horiz-adv-x="738" 
d="M310 700h121l306 -700h-126l-244 581l-243 -581h-123zM155 262h419v-100h-419v100z" />
    <glyph glyph-name="B" unicode="B" horiz-adv-x="706" 
d="M396 700q73 0 125.5 -21t81 -60t28.5 -94q0 -59 -33 -101t-90 -55q70 -12 110 -59t40 -118q0 -60 -31 -103t-88 -66t-136 -23h-311v700h304zM390 409q56 0 88 25.5t32 71.5q0 45 -32 69.5t-88 23.5h-180v-190h180zM390 101q69 -1 108 26.5t39 78.5q0 48 -39 75.5
t-108 26.5h-180v-207h180z" />
    <glyph glyph-name="C" unicode="C" horiz-adv-x="697" 
d="M599 518q-38 42 -90 66t-105 24q-52 0 -97.5 -19.5t-80 -54.5t-53.5 -81.5t-19 -100.5q0 -53 19 -99.5t53.5 -81.5t80 -55t97.5 -20q53 0 104 22.5t91 61.5l70 -73q-35 -35 -79.5 -61t-93 -40t-98.5 -14q-77 0 -143 27.5t-115.5 76.5t-77.5 114.5t-28 140.5t28 139.5
t78.5 113.5t117 76t144.5 27q50 0 98 -13t91 -37t77 -58z" />
    <glyph glyph-name="D" unicode="D" horiz-adv-x="775" 
d="M379 700q79 0 145 -26t114.5 -73t75.5 -111t27 -140t-27 -139.5t-76 -111t-116 -73.5t-146 -26h-284v700h287zM382 101q51 0 94.5 18t76 51.5t51 79t18.5 99.5q0 55 -19 100.5t-52 79.5t-77.5 52t-96.5 18h-167v-498h172z" />
    <glyph glyph-name="E" unicode="E" horiz-adv-x="656" 
d="M92 700h500v-101h-382v-197h342v-100h-342v-201h394v-101h-512v700z" />
    <glyph glyph-name="F" unicode="F" horiz-adv-x="575" 
d="M92 700h470l-1 -101h-351v-208h318v-100h-318v-291h-118v700z" />
    <glyph glyph-name="G" unicode="G" horiz-adv-x="749" 
d="M611 527q-40 38 -93.5 59.5t-108.5 21.5q-54 0 -100 -20t-81 -55t-54.5 -81.5t-19.5 -100.5t19.5 -101t54.5 -82.5t81.5 -55.5t100.5 -20q49 0 101.5 20t94.5 54l68 -82q-35 -27 -80.5 -48t-94.5 -32.5t-97 -11.5q-78 0 -144.5 27.5t-117 76.5t-78.5 114.5t-28 140.5
t28.5 139.5t79.5 113.5t119.5 76t147.5 27q50 0 98.5 -12t92.5 -34t78 -53zM571 342h103v-258h-103v258z" />
    <glyph glyph-name="H" unicode="H" horiz-adv-x="791" 
d="M92 700h118v-307h371v307h118v-700h-118v293h-371v-293h-118v700z" />
    <glyph glyph-name="I" unicode="I" horiz-adv-x="302" 
d="M92 700h118v-700h-118v700z" />
    <glyph glyph-name="J" unicode="J" horiz-adv-x="499" 
d="M422 215q0 -105 -58.5 -162.5t-159.5 -57.5q-63 0 -115 26.5t-91 73.5l56 86q35 -37 74 -57t75 -20q47 0 73.5 29.5t26.5 84.5v381h-242v101h361v-485z" />
    <glyph glyph-name="K" unicode="K" horiz-adv-x="718" 
d="M92 700h118v-376l334 376h139l-473 -519v-181h-118v700zM399 417l302 -417h-142l-238 323z" />
    <glyph glyph-name="L" unicode="L" horiz-adv-x="534" 
d="M92 700h118v-599h303v-101h-421v700z" />
    <glyph glyph-name="M" unicode="M" horiz-adv-x="940" 
d="M92 700h137l242 -475l240 475h137v-700h-109l-1 535l-230 -462h-75l-232 462v-535h-109v700z" />
    <glyph glyph-name="N" unicode="N" horiz-adv-x="792" 
d="M92 700h116l405 -555l-30 -10v565h116v-700h-116l-404 554l31 10v-564h-118v700z" />
    <glyph glyph-name="O" unicode="O" horiz-adv-x="810" 
d="M405 707q78 0 145.5 -27t118 -76t79 -113.5t28.5 -139.5t-28.5 -140.5t-79 -114.5t-118 -76.5t-145.5 -27.5t-145.5 27.5t-118 76.5t-79 114.5t-28.5 140.5t28.5 140t79 113.5t118 75.5t145.5 27zM406 607q-52 0 -97.5 -19.5t-80.5 -54.5t-54.5 -81.5t-19.5 -100.5
t20 -101t55 -82.5t80.5 -55.5t96.5 -20t96.5 20t79.5 55.5t53.5 82.5t19.5 101t-19.5 100.5t-53.5 81.5t-79.5 54.5t-96.5 19.5z" />
    <glyph glyph-name="P" unicode="P" horiz-adv-x="673" 
d="M371 700q132 0 204.5 -62.5t72.5 -175.5q0 -118 -72.5 -183.5t-204.5 -65.5h-213l52 52v-265h-118v700h279zM366 314q81 0 125 35.5t44 109.5q0 71 -44 105.5t-125 34.5h-208l52 52v-389l-52 52h208z" />
    <glyph glyph-name="Q" unicode="Q" horiz-adv-x="818" 
d="M503 37q33 -43 67.5 -67.5t70.5 -24.5q28 0 61.5 15.5t67.5 43.5l47 -79q-40 -37 -90.5 -57t-99.5 -20q-67 0 -125.5 40t-100.5 112zM405 707q78 0 145.5 -27t118 -76t79 -113.5t28.5 -139.5t-28.5 -140.5t-79 -114.5t-118 -76.5t-145.5 -27.5t-145.5 27.5t-118 76.5
t-79 114.5t-28.5 140.5t28.5 140t79 113.5t118 75.5t145.5 27zM406 607q-52 0 -97.5 -19.5t-80.5 -54.5t-54.5 -81.5t-19.5 -100.5t20 -101t55 -82.5t80.5 -55.5t96.5 -20t96.5 20t79.5 55.5t53.5 82.5t19.5 101t-19.5 100.5t-53.5 81.5t-79.5 54.5t-96.5 19.5z" />
    <glyph glyph-name="R" unicode="R" horiz-adv-x="723" 
d="M376 700q135 0 208.5 -62.5t73.5 -175.5q0 -118 -73.5 -183.5t-208.5 -65.5h-166v-213h-118v700h284zM376 314q81 0 125.5 35.5t44.5 109.5q0 71 -44.5 105.5t-125.5 34.5h-166v-285h166zM380 259h116l174 -259h-134z" />
    <glyph glyph-name="S" unicode="S" horiz-adv-x="622" 
d="M518 538q-38 24 -75 38t-70 20t-60 6q-52 0 -83 -20t-31 -58q0 -34 20.5 -55.5t54 -35t74 -25.5t80.5 -26.5t74 -37.5t54 -58.5t20 -89.5q0 -62 -34 -107.5t-93.5 -70.5t-136.5 -25q-55 0 -107 14.5t-97.5 39.5t-81.5 58l51 97q36 -33 76.5 -56t82 -35t78.5 -12
q62 0 96.5 24t34.5 67q0 35 -20.5 56.5t-54 35.5t-74 25t-81 25.5t-74 36.5t-54 57t-20.5 89q0 59 32 102.5t89.5 67.5t133.5 24q68 0 132 -20t113 -52z" />
    <glyph glyph-name="T" unicode="T" horiz-adv-x="579" 
d="M9 700h561v-101h-222v-599h-118v599h-221v101z" />
    <glyph glyph-name="U" unicode="U" horiz-adv-x="759" 
d="M196 287q0 -91 50 -143t135 -52q84 0 133 51.5t49 143.5v413h118v-413q0 -91 -36 -157.5t-103.5 -102t-160.5 -35.5q-94 0 -162 35.5t-104.5 102t-36.5 157.5v413h118v-413z" />
    <glyph glyph-name="V" unicode="V" horiz-adv-x="690" 
d="M3 700h127l216 -576l218 576h123l-283 -700h-122z" />
    <glyph glyph-name="W" unicode="W" horiz-adv-x="1063" 
d="M3 700h127l188 -626h-30l188 626h116l189 -626h-30l187 626h122l-237 -700h-122l-184 605l30 -1l-187 -604h-121z" />
    <glyph glyph-name="X" unicode="X" horiz-adv-x="692" 
d="M33 700h137l171 -249l172 249h138l-235 -336l255 -364h-141l-189 270l-188 -270h-138l255 359z" />
    <glyph glyph-name="Y" unicode="Y" horiz-adv-x="637" 
d="M1 700h119l200 -346l196 346h120l-308 -552h-17zM262 295h117v-295h-117v295z" />
    <glyph glyph-name="Z" unicode="Z" horiz-adv-x="666" 
d="M50 700h573v-80l-426 -519h431v-101h-591v80l427 519h-414v101z" />
    <glyph glyph-name="bracketleft" unicode="[" horiz-adv-x="329" 
d="M82 742h227v-87h-124v-692h124v-87h-227v866z" />
    <glyph glyph-name="backslash" unicode="\" horiz-adv-x="331" 
d="M35 817l317 -935h-98l-317 935h98z" />
    <glyph glyph-name="bracketright" unicode="]" horiz-adv-x="329" 
d="M247 742v-866h-227v87h124v692h-124v87h227z" />
    <glyph glyph-name="asciicircum" unicode="^" horiz-adv-x="537" 
d="M502 133h-84l-149 323l-150 -323h-84l186 393h96z" />
    <glyph glyph-name="underscore" unicode="_" horiz-adv-x="566" 
d="M0 -138h566v-66h-566v66z" />
    <glyph glyph-name="grave" unicode="`" horiz-adv-x="324" 
d="M174 755l99 -135l-95 -10l-122 96z" />
    <glyph glyph-name="a" unicode="a" horiz-adv-x="586" 
d="M259 237q-56 0 -83 -17t-27 -56q0 -37 27.5 -59t75.5 -22q43 0 77 15t54 40.5t21 57.5l22 -97q-25 -52 -76 -78t-122 -26q-57 0 -99 22t-65 59.5t-23 83.5q0 72 52.5 115t148.5 44h176v-82h-159zM403 337q0 52 -32 81t-95 29q-38 0 -77.5 -14t-79.5 -41l-47 74
q37 23 70 38t70.5 23t88.5 8q103 0 158.5 -49.5t56.5 -136.5l1 -349h-113z" />
    <glyph glyph-name="b" unicode="b" horiz-adv-x="680" 
d="M391 535q76 0 133 -34t89 -95t32 -142q0 -79 -31.5 -139.5t-88 -94.5t-132.5 -34q-73 0 -124.5 32t-78.5 92.5t-27 143.5q0 86 27 146.5t78.5 92.5t122.5 32zM367 444q-47 0 -84 -23t-57.5 -62.5t-20.5 -91.5t20.5 -92.5t57.5 -63t84 -22.5q48 0 84.5 23t57 63t20.5 92
q0 51 -20.5 91t-57 63t-84.5 23zM90 742h115v-742h-115v742z" />
    <glyph glyph-name="c" unicode="c" horiz-adv-x="564" 
d="M460 379q-28 29 -66 45t-86 16q-46 0 -82 -22t-56 -61.5t-20 -91.5t20 -91.5t56 -62t82 -22.5q50 0 90 16.5t67 48.5l64 -63q-36 -45 -93.5 -70t-132.5 -25q-79 0 -139.5 34t-94.5 94.5t-34 140.5t34 140.5t94.5 95t139.5 34.5q72 0 127.5 -21.5t92.5 -60.5z" />
    <glyph glyph-name="d" unicode="d" horiz-adv-x="682" 
d="M288 536q74 0 125.5 -32.5t79 -93t26.5 -144.5q1 -84 -26 -145t-78.5 -93.5t-124.5 -32.5q-76 0 -133.5 34.5t-89.5 96t-32 141.5t32 140.5t89 94.5t132 34zM314 443q-48 0 -85 -23t-57.5 -63.5t-21.5 -92.5q1 -52 21.5 -92t57.5 -63t85 -23t85 23t57.5 63t20.5 92
q0 53 -20.5 93t-57.5 63t-85 23zM477 742h115v-742h-115v742z" />
    <glyph glyph-name="e" unicode="e" horiz-adv-x="588" 
d="M453 304q-2 45 -20.5 76.5t-51.5 49t-76 17.5q-48 0 -83.5 -22t-55.5 -61.5t-20 -92.5q0 -57 21.5 -99t60 -65t88.5 -23q89 0 150 63l61 -61q-39 -43 -95 -66.5t-125 -23.5q-82 0 -143 34t-95 94.5t-34 140.5t34 140.5t95 94.5t140 35q94 0 151 -38.5t81 -108.5t17 -166
h-425v82h325z" />
    <glyph glyph-name="f" unicode="f" horiz-adv-x="355" 
d="M107 564q0 63 26.5 103.5t68.5 60t88 19.5q24 0 48.5 -6.5t45.5 -17.5l-24 -88q-14 6 -31.5 11.5t-35.5 5.5q-19 0 -35.5 -7.5t-26.5 -24t-10 -42.5v-578h-114v564zM37 512h323v-82h-323v82z" />
    <glyph glyph-name="g" unicode="g" horiz-adv-x="640" 
d="M565 53q0 -77 -34 -133t-96 -86.5t-146 -30.5q-62 0 -117 18.5t-104 51.5l49 79q38 -28 78 -43.5t89 -15.5q51 0 88.5 19.5t58 54.5t20.5 83v481h114v-478zM271 535q70 1 119.5 -29.5t75.5 -87.5t25 -137q1 -80 -24.5 -137.5t-74 -88t-117.5 -30.5q-72 0 -126 32.5
t-84 90.5t-30 134q0 75 29.5 131.5t83 89t123.5 32.5zM298 447q-45 0 -80 -21.5t-54.5 -59.5t-20.5 -87q1 -49 20.5 -87t54 -59.5t80.5 -21.5q45 0 79.5 21.5t54 59.5t19.5 87q0 50 -19.5 87.5t-54 59t-79.5 21.5z" />
    <glyph glyph-name="h" unicode="h" horiz-adv-x="669" 
d="M485 300q0 62 -34 97.5t-94 35.5q-71 -1 -111.5 -50t-40.5 -122h-32q0 99 28 159t79.5 87.5t121.5 27.5q62 0 106.5 -25t68 -70.5t23.5 -109.5v-330h-115v300zM90 742h115v-742h-115v742z" />
    <glyph glyph-name="i" unicode="i" horiz-adv-x="284" 
d="M85 531h114v-531h-114v531zM142 750q29 0 48 -19t19 -48q0 -28 -19 -47.5t-48 -19.5q-28 0 -47.5 19.5t-19.5 47.5q0 29 19.5 48t47.5 19z" />
    <glyph glyph-name="j" unicode="j" horiz-adv-x="275" 
d="M-35 -97q12 -4 23.5 -6.5t23.5 -3.5q72 -2 72 98v540h115v-556q0 -83 -43 -128.5t-120 -44.5q-54 2 -96 19zM141 750q29 0 48 -19t19 -48q0 -28 -19 -47.5t-48 -19.5q-28 0 -47.5 19.5t-19.5 47.5q0 29 19.5 48t47.5 19z" />
    <glyph glyph-name="k" unicode="k" horiz-adv-x="595" 
d="M90 742h115v-742h-115v742zM440 531h132l-376 -390v137zM364 342l223 -342h-136l-172 273z" />
    <glyph glyph-name="l" unicode="l" horiz-adv-x="295" 
d="M90 742h115v-742h-115v742z" />
    <glyph glyph-name="m" unicode="m" horiz-adv-x="1043" 
d="M472 300q0 63 -33 98.5t-92 35.5q-69 -2 -108.5 -51t-39.5 -121h-32q0 98 27.5 158t78 87.5t119.5 27.5q61 0 104.5 -25t67 -70.5t23.5 -109.5v-330h-115v300zM859 300q0 63 -33.5 98.5t-92.5 35.5q-68 -2 -107 -51t-39 -121h-33q0 98 27.5 158t78 87.5t119.5 27.5
q61 0 104.5 -25t67 -70.5t23.5 -109.5v-330h-115v300zM85 531h114v-531h-114v531z" />
    <glyph glyph-name="n" unicode="n" horiz-adv-x="663" 
d="M479 300q0 62 -34 97.5t-94 35.5q-71 -1 -111.5 -50t-40.5 -122h-32q0 99 28 159t79.5 87.5t121.5 27.5q62 0 106.5 -25t68 -70.5t23.5 -109.5v-330h-115v300zM85 531h115v-531h-115v531z" />
    <glyph glyph-name="o" unicode="o" horiz-adv-x="625" 
d="M313 535q82 0 144.5 -34t97.5 -94.5t35 -140.5t-35 -141t-97.5 -95t-144.5 -34t-145 34t-98 95t-35 141t35 140.5t98 94.5t145 34zM313 442q-48 0 -85 -22.5t-57.5 -62.5t-20.5 -92q0 -53 20.5 -93t57.5 -62.5t85 -22.5t84.5 22.5t57 62.5t20.5 93q0 52 -20.5 92
t-57 62.5t-84.5 22.5z" />
    <glyph glyph-name="p" unicode="p" horiz-adv-x="680" 
d="M391 535q76 0 133 -34t89 -95t32 -142q0 -79 -31.5 -139.5t-88 -94.5t-132.5 -34q-73 0 -124.5 32t-78.5 92.5t-27 143.5q0 86 27 146.5t78.5 92.5t122.5 32zM367 444q-47 0 -84 -23t-57.5 -62.5t-20.5 -91.5t20.5 -92.5t57.5 -63t84 -22.5q48 0 84.5 23t57 63t20.5 92
q0 51 -20.5 91t-57 63t-84.5 23zM90 531h115v-725h-115v725z" />
    <glyph glyph-name="q" unicode="q" horiz-adv-x="682" 
d="M288 536q74 0 125.5 -32.5t79 -93t26.5 -144.5q1 -84 -26 -145t-78.5 -93.5t-124.5 -32.5q-76 0 -133.5 34.5t-89.5 96t-32 141.5t32 140.5t89 94.5t132 34zM314 443q-48 0 -85 -23t-57.5 -63.5t-21.5 -92.5q1 -52 21.5 -92t57.5 -63t85 -23t85 23t57.5 63t20.5 92
q0 53 -20.5 93t-57.5 63t-85 23zM477 531h115v-725h-115v725z" />
    <glyph glyph-name="r" unicode="r" horiz-adv-x="394" 
d="M384 431q-57 3 -98.5 -19.5t-64 -62.5t-22.5 -92l-32 4q0 89 26 150t75 92.5t116 31.5v-104zM85 531h115v-531h-115v531z" />
    <glyph glyph-name="s" unicode="s" horiz-adv-x="470" 
d="M388 402q-35 21 -76.5 33.5t-76.5 12.5q-34 0 -56 -13t-22 -43q0 -25 20.5 -39.5t52.5 -24.5t68 -21t68.5 -28.5t52.5 -47.5t20 -79q0 -54 -28.5 -88.5t-75 -51t-100.5 -16.5q-58 0 -116 19t-98 55l41 78q35 -31 85 -48.5t93 -17.5q25 0 44.5 6.5t31 19.5t11.5 34
q0 28 -20 44t-52 26.5t-68 21t-67.5 27.5t-51.5 46t-20 77q0 54 28 87.5t72.5 49t95.5 15.5q50 0 100 -14t86 -39z" />
    <glyph glyph-name="t" unicode="t" horiz-adv-x="407" 
d="M220 168q0 -43 15 -58.5t42 -15.5q18 0 37.5 6t42.5 18l29 -83q-31 -19 -64 -29.5t-67 -10.5q-40 0 -74 15.5t-54.5 49.5t-20.5 88v509h114v-489zM31 512h346v-82h-346v82z" />
    <glyph glyph-name="u" unicode="u" horiz-adv-x="653" 
d="M183 231q0 -62 33 -97.5t91 -35.5q69 2 107.5 51t38.5 121h31q0 -98 -27 -158t-76.5 -87.5t-117.5 -28.5q-61 0 -104.5 25t-67 71t-23.5 109v330h115v-300zM453 531h115v-531h-115v531z" />
    <glyph glyph-name="v" unicode="v" horiz-adv-x="525" 
d="M1 531h120l148 -425l146 425h115l-204 -531h-119z" />
    <glyph glyph-name="w" unicode="w" horiz-adv-x="893" 
d="M1 531h118l138 -425l134 425h119l135 -425l136 425h117l-194 -531h-119l-135 402l-135 -402h-118z" />
    <glyph glyph-name="x" unicode="x" horiz-adv-x="554" 
d="M27 531h132l119 -186l121 186h126l-171 -259l183 -272h-132l-127 199l-136 -199h-128l188 272z" />
    <glyph glyph-name="y" unicode="y" horiz-adv-x="531" 
d="M294 -75q-25 -61 -69 -92.5t-104 -31.5q-36 0 -65.5 11t-57.5 33l49 85q36 -26 69 -26q26 0 47 15t34 46l18 42l-220 524h119l159 -410l148 410h115z" />
    <glyph glyph-name="z" unicode="z" horiz-adv-x="537" 
d="M54 531l437 -1v-74l-304 -368h313v-89l-455 1v74l304 368l-295 1v88z" />
    <glyph glyph-name="braceleft" unicode="{" horiz-adv-x="345" 
d="M76 353q23 0 33 13t10 42v209q0 46 15.5 73.5t50 40t90.5 12.5h43v-87q-53 0 -74 -16.5t-21 -54.5v-171q0 -35 -12 -51t-33 -27t-49 -32l-53 -40h-31v89h31zM129 313q28 -21 49 -32t33 -27t12 -52v-170q0 -37 21 -54t74 -17v-87h-43q-56 0 -90.5 12.5t-50 40.5t-15.5 73
v209q0 29 -10 42t-33 13h-31v89h31z" />
    <glyph glyph-name="bar" unicode="|" horiz-adv-x="269" 
d="M91 811h87v-928h-87v928z" />
    <glyph glyph-name="braceright" unicode="}" horiz-adv-x="345" 
d="M269 353h31v-89h-31l-53 40q-28 21 -49 32t-33 27t-12 51v171q0 38 -21 54.5t-74 16.5v87h43q56 0 90.5 -12.5t50 -40t15.5 -73.5v-209q0 -29 10.5 -42t32.5 -13zM216 313l53 40h31v-89h-31q-22 0 -32.5 -13t-10.5 -42v-209q0 -45 -15.5 -73t-50 -40.5t-90.5 -12.5h-43
v87q53 0 74 17t21 54v170q0 36 12 52t33 27t49 32z" />
    <glyph glyph-name="asciitilde" unicode="~" horiz-adv-x="498" 
d="M433 386q0 -68 -24.5 -102t-72.5 -34q-25 0 -46 8.5t-39.5 20t-34.5 20.5t-31 9q-39 0 -39 -52h-80q0 68 24.5 102t72.5 34q24 0 45 -8.5t39.5 -20t35 -20.5t32.5 -9q39 0 39 52h79z" />
    <glyph glyph-name="uni00A0" unicode="&#xa0;" horiz-adv-x="270" 
 />
    <glyph glyph-name="exclamdown" unicode="&#xa1;" horiz-adv-x="210" 
d="M175 -161h-110v172l19 299h72l19 -299v-172zM120 412q-27 0 -45 17.5t-18 45.5t18 46t45 18t45 -18t18 -46t-18 -45.5t-45 -17.5z" />
    <glyph glyph-name="cent" unicode="&#xa2;" horiz-adv-x="600" 
d="M262 682h87v-194h-87v194zM262 50h87v-190h-87v190zM460 379q-28 29 -66 45t-86 16q-46 0 -82 -22t-56 -61.5t-20 -91.5t20 -91.5t56 -62t82 -22.5q50 0 90 16.5t67 48.5l64 -63q-36 -45 -93.5 -70t-132.5 -25q-79 0 -139.5 34t-94.5 94.5t-34 140.5t34 140.5t94.5 95
t139.5 34.5q72 0 127.5 -21.5t92.5 -60.5z" />
    <glyph glyph-name="sterling" unicode="&#xa3;" horiz-adv-x="547" 
d="M37 382h377v-60h-377v60zM333 705q57 0 108.5 -23.5t89.5 -67.5l-47 -86q-65 77 -139 77q-52 0 -79.5 -31t-27.5 -92v-443l-52 52h332v-91h-481v91h135l-52 -52v445q0 106 55.5 163.5t157.5 57.5z" />
    <glyph glyph-name="currency" unicode="&#xa4;" horiz-adv-x="711" 
d="M355 583q56 0 105 -20.5t86 -57t58 -84t21 -102.5q0 -54 -21 -101.5t-58 -83.5t-86 -56.5t-105 -20.5q-55 0 -103.5 20.5t-85.5 56.5t-58 83.5t-21 101.5q0 55 21 102.5t58 84t85.5 57t103.5 20.5zM355 492q-48 0 -88.5 -23.5t-64 -62.5t-23.5 -87q0 -47 23.5 -86t64 -62
t88.5 -23q49 0 89.5 23t65 62t24.5 86q0 48 -24.5 87t-65 62.5t-89.5 23.5zM100 638l115 -114l-66 -66l-114 115zM149 177l66 -66l-115 -114l-65 65zM611 638l65 -65l-114 -115l-66 66zM562 177l114 -115l-65 -65l-115 114z" />
    <glyph glyph-name="yen" unicode="&#xa5;" horiz-adv-x="635" 
d="M0 700h119l200 -346l196 346h120l-308 -552h-16zM261 295h118v-295h-118v295zM61 297h518v-60h-518v60zM61 177h518v-60h-518v60z" />
    <glyph glyph-name="brokenbar" unicode="&#xa6;" horiz-adv-x="269" 
d="M91 811h87v-346h-87v346zM91 230h87v-347h-87v347z" />
    <glyph glyph-name="section" unicode="&#xa7;" horiz-adv-x="499" 
d="M412 573q-40 23 -79 34t-73 11q-44 0 -70.5 -17t-26.5 -45q0 -29 22 -46.5t57 -29.5t73.5 -23.5t73.5 -28.5t57 -46t22 -76q0 -29 -14.5 -55.5t-39 -45.5t-54.5 -28q45 -19 66 -45t21 -70q0 -42 -25.5 -75.5t-71.5 -52.5t-108 -19q-61 0 -118.5 19.5t-102.5 56.5l35 69
q43 -33 90 -50.5t93 -17.5q31 0 54.5 9t37 24.5t13.5 33.5q0 29 -22 46.5t-56 29.5t-73 24t-73 29t-56 45.5t-22 74.5q0 47 33 80t89 46q-57 23 -79 50.5t-22 67.5q0 42 24 74t68.5 50t103.5 18q49 0 96.5 -13t92.5 -39zM242 379q-48 0 -74 -17.5t-26 -46.5q0 -24 17 -43
t46 -29.5t64 -10.5q32 0 53.5 8.5t32.5 24t11 34.5q0 36 -35 58t-89 22z" />
    <glyph glyph-name="dieresis" unicode="&#xa8;" horiz-adv-x="367" 
d="M111 742q25 0 42.5 -17t17.5 -43t-17.5 -43.5t-42.5 -17.5q-26 0 -43.5 17.5t-17.5 43.5t17.5 43t43.5 17zM289 742q25 0 42.5 -17t17.5 -43t-17.5 -43.5t-42.5 -17.5q-26 0 -43.5 17.5t-17.5 43.5t17.5 43t43.5 17z" />
    <glyph glyph-name="copyright" unicode="&#xa9;" horiz-adv-x="745" 
d="M371 9q-71 0 -132.5 26.5t-107.5 73.5t-71.5 108.5t-25.5 130.5t26 131t72 109t107.5 74t133.5 27q71 0 132.5 -26.5t107.5 -73t72 -108t26 -131.5q0 -69 -26 -131t-72.5 -109t-108 -74t-133.5 -27zM376 175q-50 0 -90.5 23t-64 62.5t-23.5 88.5t24 87.5t65 61.5t91 23
q36 0 71 -14t60 -39l-35 -40q-19 20 -44 31t-51 11q-34 0 -61.5 -16t-43.5 -43t-16 -61t16 -61.5t43.5 -44t61.5 -16.5q25 0 50.5 10.5t44.5 29.5l35 -37q-26 -25 -61 -40.5t-72 -15.5zM371 66q60 0 111.5 22.5t90 61.5t60 90.5t21.5 109.5t-21.5 109t-59.5 90t-89 61
t-111 22t-111.5 -22.5t-89.5 -61.5t-59.5 -90.5t-21.5 -109.5t21 -109t59 -90t89 -61t111 -22z" />
    <glyph glyph-name="ordfeminine" unicode="&#xaa;" horiz-adv-x="385" 
d="M174 600q-31 0 -48 -11.5t-17 -32.5q0 -22 16 -35.5t43 -13.5q29 0 51.5 12t36.5 40l14 -25q-16 -39 -49 -59t-80 -20q-50 0 -79 26.5t-29 68.5q0 43 32.5 66t92.5 24h107v-40h-91zM255 655q0 29 -19 45t-57 16q-24 0 -51.5 -8t-55.5 -23l-20 54q36 17 73 27t73 10
q65 0 101 -30t36 -82v-206h-79z" />
    <glyph glyph-name="guillemotleft" unicode="&#xab;" horiz-adv-x="456" 
d="M139 432h96l-107 -173l107 -172h-96l-116 172zM319 432h96l-107 -173l107 -172h-96l-116 172z" />
    <glyph glyph-name="logicalnot" unicode="&#xac;" horiz-adv-x="561" 
d="M35 401h451v-75h-451v75zM402 401h84v-255h-84v255z" />
    <glyph glyph-name="uni00AD" unicode="&#xad;" horiz-adv-x="368" 
d="M61 342h246v-76h-246v76z" />
    <glyph glyph-name="registered" unicode="&#xae;" horiz-adv-x="745" 
d="M371 9q-71 0 -132.5 26.5t-107.5 73.5t-71.5 108.5t-25.5 130.5t26 131t72 109t107.5 74t133.5 27q71 0 132.5 -26.5t107.5 -73t72 -108t26 -131.5q0 -69 -26 -131t-72.5 -109t-108 -74t-133.5 -27zM458 188l-77 126h57l86 -126h-66zM371 66q60 0 111.5 22.5t90 61.5
t60 90.5t21.5 109.5t-21.5 109t-59.5 90t-89 61t-111 22t-111.5 -22.5t-89.5 -61.5t-59.5 -90.5t-21.5 -109.5t21 -109t59 -90t89 -61t111 -22zM244 188v341h136q66 0 101.5 -30t35.5 -86q0 -57 -35.5 -89t-101.5 -32h-79v-104h-57zM301 338h79q39 0 61 19.5t22 54.5t-22 53
t-61 18h-79v-145z" />
    <glyph glyph-name="macron" unicode="&#xaf;" horiz-adv-x="350" 
d="M28 716h295v-70h-295v70z" />
    <glyph glyph-name="degree" unicode="&#xb0;" horiz-adv-x="346" 
d="M197 809q32 0 58.5 -15.5t42 -41.5t15.5 -58q0 -31 -15.5 -57t-42 -41.5t-58.5 -15.5t-58.5 15.5t-42 41.5t-15.5 57q0 32 15.5 58t42 41.5t58.5 15.5zM197 760q-28 0 -47.5 -19.5t-19.5 -46.5q0 -26 19.5 -45.5t47.5 -19.5t47.5 19.5t19.5 45.5q0 27 -19.5 46.5
t-47.5 19.5z" />
    <glyph glyph-name="plusminus" unicode="&#xb1;" horiz-adv-x="498" 
d="M35 426h428v-74h-428v74zM212 598h75v-418h-75v418zM35 98h428v-76h-428v76z" />
    <glyph glyph-name="uni00B2" unicode="&#xb2;" horiz-adv-x="359" 
d="M179 576q22 22 35.5 45t13.5 39q0 23 -17 36.5t-48 13.5q-27 0 -58 -14t-59 -38l-33 58q37 28 78.5 44t84.5 16q62 0 100.5 -28.5t38.5 -76.5q0 -32 -22 -66.5t-58 -69.5l-108 -112h206v-63h-311v54z" />
    <glyph glyph-name="uni00B3" unicode="&#xb3;" horiz-adv-x="354" 
d="M207 598q52 -5 84.5 -34t32.5 -78q0 -58 -43 -94.5t-116 -36.5q-41 0 -81.5 12.5t-68.5 32.5l35 62q23 -22 51 -34t58 -12q39 0 61 19t22 50q0 32 -22 48t-62 16h-62v44l112 117h-173v59h269v-46l-119 -123z" />
    <glyph glyph-name="acute" unicode="&#xb4;" horiz-adv-x="350" 
d="M168 755l118 -49l-122 -96l-95 10z" />
    <glyph glyph-name="uni00B5" unicode="&#xb5;" horiz-adv-x="675" 
d="M90 531h115v-725h-115v725zM205 231q0 -62 33 -97.5t91 -35.5q69 2 107.5 51t38.5 121h31q0 -98 -27 -158t-76.5 -87.5t-117.5 -28.5q-61 0 -104.5 25t-67 71t-23.5 109v330h115v-300zM475 531h115v-531h-115v531z" />
    <glyph glyph-name="paragraph" unicode="&#xb6;" horiz-adv-x="615" 
d="M217 361q-8 -1 -15.5 -1h-15.5q-56 0 -92.5 18.5t-57 47.5t-29 61.5t-8.5 59.5q0 50 22.5 94.5t72 72.5t130.5 28h299v-851h-88v783h-131v-783h-87v470z" />
    <glyph glyph-name="periodcentered" unicode="&#xb7;" horiz-adv-x="226" 
d="M113 353q29 0 48 -19t19 -48q0 -28 -19 -47.5t-48 -19.5q-28 0 -47.5 19.5t-19.5 47.5q0 29 19.5 48t47.5 19z" />
    <glyph glyph-name="cedilla" unicode="&#xb8;" horiz-adv-x="294" 
d="M137 8l75 -8l-19 -51q44 -7 62.5 -29.5t18.5 -49.5q0 -29 -15.5 -48.5t-41.5 -29.5t-59 -10q-25 0 -50.5 6t-46.5 15l24 65q13 -5 29 -8.5t30 -3.5q20 0 30.5 8t10.5 17q0 11 -12 18t-37 7h-17h-15z" />
    <glyph glyph-name="uni00B9" unicode="&#xb9;" horiz-adv-x="239" 
d="M5 773h167v-413h-84v348h-83v65z" />
    <glyph glyph-name="ordmasculine" unicode="&#xba;" horiz-adv-x="407" 
d="M203 775q52 0 91 -20t61 -56t22 -84q0 -47 -22 -83t-61 -56t-91 -20q-77 0 -125 44t-48 115q0 48 21.5 84t60.5 56t91 20zM203 712q-40 0 -66 -27t-26 -70q0 -44 26 -71t66 -27q41 0 66 27t25 71q0 43 -25 70t-66 27z" />
    <glyph glyph-name="guillemotright" unicode="&#xbb;" horiz-adv-x="468" 
d="M137 87h-96l107 173l-107 172h96l116 -172zM317 87h-96l107 173l-107 172h96l116 -172z" />
    <glyph glyph-name="onequarter" unicode="&#xbc;" horiz-adv-x="760" 
d="M5 700h167v-413h-84v348h-83v65zM552 700h90l-514 -700h-91zM554 413h80l-139 -255h120v103h79v-103h61v-59h-61v-99h-79v99h-204v56z" />
    <glyph glyph-name="onehalf" unicode="&#xbd;" horiz-adv-x="792" 
d="M5 700h167v-413h-84v348h-83v65zM552 700h90l-514 -700h-91zM612 216q22 22 35.5 45t13.5 39q0 23 -17 36.5t-48 13.5q-27 0 -58 -14t-59 -38l-33 58q37 28 78.5 44t84.5 16q62 0 100.5 -28.5t38.5 -76.5q0 -32 -22 -66.5t-58 -69.5l-108 -112h206v-63h-311v54z" />
    <glyph glyph-name="threequarters" unicode="&#xbe;" horiz-adv-x="844" 
d="M207 527q52 -5 84.5 -34t32.5 -78q0 -58 -43 -94.5t-116 -36.5q-41 0 -81.5 12.5t-68.5 32.5l35 62q23 -22 51 -34t58 -12q39 0 61 19t22 50q0 32 -22 48t-62 16h-62v44l112 117h-173v59h269v-46l-119 -123zM636 700h90l-514 -700h-91zM638 413h80l-139 -255h120v103h79
v-103h61v-59h-61v-99h-79v99h-204v56z" />
    <glyph glyph-name="questiondown" unicode="&#xbf;" horiz-adv-x="443" 
d="M420 31q-2 -93 -58 -144t-149 -51q-59 0 -104.5 19t-70.5 56t-25 91q0 40 12.5 68.5t33 50t42.5 40.5t42.5 38.5t33 45t12.5 59.5h88q0 -41 -11.5 -69.5t-29 -49.5t-37.5 -38.5t-37.5 -35.5t-29 -40t-11.5 -53q0 -46 28 -67.5t74 -21.5q49 0 77 25.5t30 77.5zM234 412
q-27 0 -45 17.5t-18 45.5t18 46t45 18t45 -18t18 -46t-18 -45.5t-45 -17.5z" />
    <glyph glyph-name="Agrave" unicode="&#xc0;" horiz-adv-x="738" 
d="M310 700h121l306 -700h-126l-244 581l-243 -581h-123zM155 262h419v-100h-419v100zM320 904l99 -135l-95 -10l-122 96z" />
    <glyph glyph-name="Aacute" unicode="&#xc1;" horiz-adv-x="738" 
d="M310 700h121l306 -700h-126l-244 581l-243 -581h-123zM155 262h419v-100h-419v100zM409 904l118 -49l-122 -96l-95 10z" />
    <glyph glyph-name="Acircumflex" unicode="&#xc2;" horiz-adv-x="738" 
d="M310 700h121l306 -700h-126l-244 581l-243 -581h-123zM155 262h419v-100h-419v100zM311 902h116l107 -138h-112l-87 98h68l-87 -98h-112z" />
    <glyph glyph-name="Atilde" unicode="&#xc3;" horiz-adv-x="738" 
d="M310 700h121l306 -700h-126l-244 581l-243 -581h-123zM155 262h419v-100h-419v100zM530 889q0 -33 -7.5 -63t-25.5 -48.5t-51 -18.5q-21 0 -40.5 7.5t-36.5 17.5t-31 17.5t-25 7.5q-17 0 -22 -13.5t-5 -32.5h-78q0 34 7.5 63.5t26 48t50.5 18.5q21 0 40.5 -7.5
t36.5 -17.5t31 -17.5t25 -7.5q17 0 22 13.5t5 32.5h78z" />
    <glyph glyph-name="Adieresis" unicode="&#xc4;" horiz-adv-x="738" 
d="M310 700h121l306 -700h-126l-244 581l-243 -581h-123zM155 262h419v-100h-419v100zM281 880q26 0 43 -17t17 -43q0 -25 -17 -43t-43 -18t-43.5 18t-17.5 43q0 26 17.5 43t43.5 17zM459 880q26 0 43 -17t17 -43q0 -25 -17 -43t-43 -18t-43.5 18t-17.5 43q0 26 17.5 43
t43.5 17z" />
    <glyph glyph-name="Aring" unicode="&#xc5;" horiz-adv-x="738" 
d="M310 700h121l306 -700h-126l-244 581l-243 -581h-123zM155 262h419v-100h-419v100zM369 967q31 0 56 -15t40 -39.5t15 -54.5t-15 -55t-40 -40t-56 -15q-30 0 -55.5 15t-40.5 40t-15 55t15 54.5t40.5 39.5t55.5 15zM369 908q-21 0 -36.5 -15t-15.5 -35q0 -21 15.5 -36
t36.5 -15t36.5 15t15.5 36q0 20 -15.5 35t-36.5 15z" />
    <glyph glyph-name="AE" unicode="&#xc6;" horiz-adv-x="1051" 
d="M488 700h499v-101h-382v-197h343v-100h-343v-201h394v-101h-511v700zM407 700h347l1 -92h-291l-340 -608h-123zM188 264h364l-3 -88h-363z" />
    <glyph glyph-name="Ccedilla" unicode="&#xc7;" horiz-adv-x="697" 
d="M599 518q-38 42 -90 66t-105 24q-52 0 -97.5 -19.5t-80 -54.5t-53.5 -81.5t-19 -100.5q0 -53 19 -99.5t53.5 -81.5t80 -55t97.5 -20q53 0 104 22.5t91 61.5l70 -73q-35 -35 -79.5 -61t-93 -40t-98.5 -14q-77 0 -143 27.5t-115.5 76.5t-77.5 114.5t-28 140.5t28 139.5
t78.5 113.5t117 76t144.5 27q50 0 98 -13t91 -37t77 -58zM359 8l75 -8l-19 -51q44 -7 62.5 -29.5t18.5 -49.5q0 -29 -15.5 -48.5t-41.5 -29.5t-59 -10q-25 0 -50.5 6t-46.5 15l24 65q13 -5 29 -8.5t30 -3.5q20 0 30.5 8t10.5 17q0 11 -12 18t-37 7h-17h-15z" />
    <glyph glyph-name="Egrave" unicode="&#xc8;" horiz-adv-x="656" 
d="M92 700h500v-101h-382v-197h342v-100h-342v-201h394v-101h-512v700zM302 904l99 -135l-95 -10l-122 96z" />
    <glyph glyph-name="Eacute" unicode="&#xc9;" horiz-adv-x="656" 
d="M92 700h500v-101h-382v-197h342v-100h-342v-201h394v-101h-512v700zM391 904l118 -49l-122 -96l-95 10z" />
    <glyph glyph-name="Ecircumflex" unicode="&#xca;" horiz-adv-x="656" 
d="M92 700h500v-101h-382v-197h342v-100h-342v-201h394v-101h-512v700zM293 902h116l107 -138h-112l-87 98h68l-87 -98h-112z" />
    <glyph glyph-name="Edieresis" unicode="&#xcb;" horiz-adv-x="656" 
d="M92 700h500v-101h-382v-197h342v-100h-342v-201h394v-101h-512v700zM263 880q26 0 43 -17t17 -43q0 -25 -17 -43t-43 -18t-43.5 18t-17.5 43q0 26 17.5 43t43.5 17zM441 880q26 0 43 -17t17 -43q0 -25 -17 -43t-43 -18t-43.5 18t-17.5 43q0 26 17.5 43t43.5 17z" />
    <glyph glyph-name="Igrave" unicode="&#xcc;" horiz-adv-x="302" 
d="M92 700h118v-700h-118v700zM102 904l99 -135l-95 -10l-122 96z" />
    <glyph glyph-name="Iacute" unicode="&#xcd;" horiz-adv-x="302" 
d="M92 700h118v-700h-118v700zM191 904l118 -49l-122 -96l-95 10z" />
    <glyph glyph-name="Icircumflex" unicode="&#xce;" horiz-adv-x="302" 
d="M92 700h118v-700h-118v700zM93 902h116l107 -138h-112l-87 98h68l-87 -98h-112z" />
    <glyph glyph-name="Idieresis" unicode="&#xcf;" horiz-adv-x="302" 
d="M92 700h118v-700h-118v700zM63 880q26 0 43 -17t17 -43q0 -25 -17 -43t-43 -18t-43.5 18t-17.5 43q0 26 17.5 43t43.5 17zM241 880q26 0 43 -17t17 -43q0 -25 -17 -43t-43 -18t-43.5 18t-17.5 43q0 26 17.5 43t43.5 17z" />
    <glyph glyph-name="Eth" unicode="&#xd0;" horiz-adv-x="775" 
d="M20 383h388v-66h-388v66zM379 700q79 0 145 -26t114.5 -73t75.5 -111t27 -140t-27 -140t-76 -111t-115.5 -73t-146.5 -26h-284v700h287zM382 101q51 0 94.5 18t76.5 51.5t51 79t18 99.5q0 55 -18.5 100.5t-52 79t-78 52t-96.5 18.5h-167v-498h172z" />
    <glyph glyph-name="Ntilde" unicode="&#xd1;" horiz-adv-x="792" 
d="M92 700h116l405 -555l-30 -10v565h116v-700h-116l-404 554l31 10v-564h-118v700zM567 889q0 -33 -7.5 -63t-25.5 -48.5t-51 -18.5q-21 0 -40.5 7.5t-36.5 17.5t-31 17.5t-25 7.5q-17 0 -22 -13.5t-5 -32.5h-78q0 34 7.5 63.5t26 48t50.5 18.5q21 0 40.5 -7.5t36.5 -17.5
t31 -17.5t25 -7.5q17 0 22 13.5t5 32.5h78z" />
    <glyph glyph-name="Ograve" unicode="&#xd2;" horiz-adv-x="810" 
d="M405 707q78 0 145.5 -27t118 -76t79 -113.5t28.5 -139.5t-28.5 -140.5t-79 -114.5t-118 -76.5t-145.5 -27.5t-145.5 27.5t-118 76.5t-79 114.5t-28.5 140.5t28.5 140t79 113.5t118 75.5t145.5 27zM406 607q-52 0 -97.5 -19.5t-80.5 -54.5t-54.5 -81.5t-19.5 -100.5
t20 -101t55 -82.5t80.5 -55.5t96.5 -20t96.5 20t79.5 55.5t53.5 82.5t19.5 101t-19.5 100.5t-53.5 81.5t-79.5 54.5t-96.5 19.5zM356 904l99 -135l-95 -10l-122 96z" />
    <glyph glyph-name="Oacute" unicode="&#xd3;" horiz-adv-x="810" 
d="M405 707q78 0 145.5 -27t118 -76t79 -113.5t28.5 -139.5t-28.5 -140.5t-79 -114.5t-118 -76.5t-145.5 -27.5t-145.5 27.5t-118 76.5t-79 114.5t-28.5 140.5t28.5 140t79 113.5t118 75.5t145.5 27zM406 607q-52 0 -97.5 -19.5t-80.5 -54.5t-54.5 -81.5t-19.5 -100.5
t20 -101t55 -82.5t80.5 -55.5t96.5 -20t96.5 20t79.5 55.5t53.5 82.5t19.5 101t-19.5 100.5t-53.5 81.5t-79.5 54.5t-96.5 19.5zM445 904l118 -49l-122 -96l-95 10z" />
    <glyph glyph-name="Ocircumflex" unicode="&#xd4;" horiz-adv-x="810" 
d="M405 707q78 0 145.5 -27t118 -76t79 -113.5t28.5 -139.5t-28.5 -140.5t-79 -114.5t-118 -76.5t-145.5 -27.5t-145.5 27.5t-118 76.5t-79 114.5t-28.5 140.5t28.5 140t79 113.5t118 75.5t145.5 27zM406 607q-52 0 -97.5 -19.5t-80.5 -54.5t-54.5 -81.5t-19.5 -100.5
t20 -101t55 -82.5t80.5 -55.5t96.5 -20t96.5 20t79.5 55.5t53.5 82.5t19.5 101t-19.5 100.5t-53.5 81.5t-79.5 54.5t-96.5 19.5zM347 902h116l107 -138h-112l-87 98h68l-87 -98h-112z" />
    <glyph glyph-name="Otilde" unicode="&#xd5;" horiz-adv-x="810" 
d="M405 707q78 0 145.5 -27t118 -76t79 -113.5t28.5 -139.5t-28.5 -140.5t-79 -114.5t-118 -76.5t-145.5 -27.5t-145.5 27.5t-118 76.5t-79 114.5t-28.5 140.5t28.5 140t79 113.5t118 75.5t145.5 27zM406 607q-52 0 -97.5 -19.5t-80.5 -54.5t-54.5 -81.5t-19.5 -100.5
t20 -101t55 -82.5t80.5 -55.5t96.5 -20t96.5 20t79.5 55.5t53.5 82.5t19.5 101t-19.5 100.5t-53.5 81.5t-79.5 54.5t-96.5 19.5zM566 889q0 -33 -7.5 -63t-25.5 -48.5t-51 -18.5q-21 0 -40.5 7.5t-36.5 17.5t-31 17.5t-25 7.5q-17 0 -22 -13.5t-5 -32.5h-78q0 34 7.5 63.5
t26 48t50.5 18.5q21 0 40.5 -7.5t36.5 -17.5t31 -17.5t25 -7.5q17 0 22 13.5t5 32.5h78z" />
    <glyph glyph-name="Odieresis" unicode="&#xd6;" horiz-adv-x="810" 
d="M405 707q78 0 145.5 -27t118 -76t79 -113.5t28.5 -139.5t-28.5 -140.5t-79 -114.5t-118 -76.5t-145.5 -27.5t-145.5 27.5t-118 76.5t-79 114.5t-28.5 140.5t28.5 140t79 113.5t118 75.5t145.5 27zM406 607q-52 0 -97.5 -19.5t-80.5 -54.5t-54.5 -81.5t-19.5 -100.5
t20 -101t55 -82.5t80.5 -55.5t96.5 -20t96.5 20t79.5 55.5t53.5 82.5t19.5 101t-19.5 100.5t-53.5 81.5t-79.5 54.5t-96.5 19.5zM317 880q26 0 43 -17t17 -43q0 -25 -17 -43t-43 -18t-43.5 18t-17.5 43q0 26 17.5 43t43.5 17zM495 880q26 0 43 -17t17 -43q0 -25 -17 -43
t-43 -18t-43.5 18t-17.5 43q0 26 17.5 43t43.5 17z" />
    <glyph glyph-name="multiply" unicode="&#xd7;" horiz-adv-x="498" 
d="M374 502l53 -54l-302 -301l-53 53zM125 502l302 -302l-53 -53l-302 301z" />
    <glyph glyph-name="Oslash" unicode="&#xd8;" horiz-adv-x="810" 
d="M625 755h100l-541 -810h-99zM405 703q78 0 145.5 -27t118 -75t79 -112t28.5 -139t-28.5 -139.5t-79 -113t-118 -75.5t-145.5 -27t-145.5 27t-118 75.5t-79 113t-28.5 139.5t28.5 139.5t79 112t118 74.5t145.5 27zM406 603q-52 0 -97.5 -19.5t-80.5 -54t-54.5 -80.5
t-19.5 -99t20 -99.5t55 -81.5t80.5 -54.5t96.5 -19.5t96.5 19.5t79.5 54.5t53.5 81.5t19.5 99.5t-19.5 99t-53.5 80.5t-79.5 54t-96.5 19.5z" />
    <glyph glyph-name="Ugrave" unicode="&#xd9;" horiz-adv-x="759" 
d="M196 287q0 -91 50 -143t135 -52q84 0 133 51.5t49 143.5v413h118v-413q0 -91 -36 -157.5t-103.5 -102t-160.5 -35.5q-94 0 -162 35.5t-104.5 102t-36.5 157.5v413h118v-413zM331 904l99 -135l-95 -10l-122 96z" />
    <glyph glyph-name="Uacute" unicode="&#xda;" horiz-adv-x="759" 
d="M196 287q0 -91 50 -143t135 -52q84 0 133 51.5t49 143.5v413h118v-413q0 -91 -36 -157.5t-103.5 -102t-160.5 -35.5q-94 0 -162 35.5t-104.5 102t-36.5 157.5v413h118v-413zM420 904l118 -49l-122 -96l-95 10z" />
    <glyph glyph-name="Ucircumflex" unicode="&#xdb;" horiz-adv-x="759" 
d="M196 287q0 -91 50 -143t135 -52q84 0 133 51.5t49 143.5v413h118v-413q0 -91 -36 -157.5t-103.5 -102t-160.5 -35.5q-94 0 -162 35.5t-104.5 102t-36.5 157.5v413h118v-413zM322 902h116l107 -138h-112l-87 98h68l-87 -98h-112z" />
    <glyph glyph-name="Udieresis" unicode="&#xdc;" horiz-adv-x="759" 
d="M196 287q0 -91 50 -143t135 -52q84 0 133 51.5t49 143.5v413h118v-413q0 -91 -36 -157.5t-103.5 -102t-160.5 -35.5q-94 0 -162 35.5t-104.5 102t-36.5 157.5v413h118v-413zM292 880q26 0 43 -17t17 -43q0 -25 -17 -43t-43 -18t-43.5 18t-17.5 43q0 26 17.5 43t43.5 17z
M470 880q26 0 43 -17t17 -43q0 -25 -17 -43t-43 -18t-43.5 18t-17.5 43q0 26 17.5 43t43.5 17z" />
    <glyph glyph-name="Yacute" unicode="&#xdd;" horiz-adv-x="637" 
d="M1 700h119l200 -346l196 346h120l-308 -552h-17zM262 295h117v-295h-117v295zM358 904l118 -49l-122 -96l-95 10z" />
    <glyph glyph-name="Thorn" unicode="&#xde;" horiz-adv-x="678" 
d="M357 600q95 0 161 -27t100.5 -79t34.5 -127q0 -78 -34.5 -132.5t-100.5 -82.5t-161 -28h-155v92h150q89 0 135 37.5t46 110.5q0 71 -46 107.5t-135 36.5h-151l-16 92h172zM92 700h118v-700h-118v700z" />
    <glyph glyph-name="germandbls" unicode="&#xdf;" horiz-adv-x="654" 
d="M78 487q0 79 30.5 137.5t88 90.5t136.5 32q69 0 121.5 -24t82 -67t29.5 -102t-31.5 -106t-84.5 -67q68 -13 112 -55.5t44 -115.5q0 -61 -32.5 -108.5t-91.5 -74.5t-139 -27h-51v84h60q65 0 103.5 34.5t38.5 87.5q0 58 -45.5 90t-121.5 32h-13v83q65 0 103 34.5t38 92.5
q0 56 -34 88.5t-90 32.5q-43 0 -74 -20t-48 -57t-17 -87v-495h-114v487z" />
    <glyph glyph-name="agrave" unicode="&#xe0;" horiz-adv-x="586" 
d="M259 237q-56 0 -83 -17t-27 -56q0 -37 27.5 -59t75.5 -22q43 0 77 15t54 40.5t21 57.5l22 -97q-25 -52 -76 -78t-122 -26q-57 0 -99 22t-65 59.5t-23 83.5q0 72 52.5 115t148.5 44h176v-82h-159zM403 337q0 52 -32 81t-95 29q-38 0 -77.5 -14t-79.5 -41l-47 74
q37 23 70 38t70.5 23t88.5 8q103 0 158.5 -49.5t56.5 -136.5l1 -349h-113zM241 755l99 -135l-95 -10l-122 96z" />
    <glyph glyph-name="aacute" unicode="&#xe1;" horiz-adv-x="586" 
d="M259 237q-56 0 -83 -17t-27 -56q0 -37 27.5 -59t75.5 -22q43 0 77 15t54 40.5t21 57.5l22 -97q-25 -52 -76 -78t-122 -26q-57 0 -99 22t-65 59.5t-23 83.5q0 72 52.5 115t148.5 44h176v-82h-159zM403 337q0 52 -32 81t-95 29q-38 0 -77.5 -14t-79.5 -41l-47 74
q37 23 70 38t70.5 23t88.5 8q103 0 158.5 -49.5t56.5 -136.5l1 -349h-113zM330 755l118 -49l-122 -96l-95 10z" />
    <glyph glyph-name="acircumflex" unicode="&#xe2;" horiz-adv-x="586" 
d="M259 237q-56 0 -83 -17t-27 -56q0 -37 27.5 -59t75.5 -22q43 0 77 15t54 40.5t21 57.5l22 -97q-25 -52 -76 -78t-122 -26q-57 0 -99 22t-65 59.5t-23 83.5q0 72 52.5 115t148.5 44h176v-82h-159zM403 337q0 52 -32 81t-95 29q-38 0 -77.5 -14t-79.5 -41l-47 74
q37 23 70 38t70.5 23t88.5 8q103 0 158.5 -49.5t56.5 -136.5l1 -349h-113zM232 753h116l107 -138h-112l-87 98h68l-87 -98h-112z" />
    <glyph glyph-name="atilde" unicode="&#xe3;" horiz-adv-x="586" 
d="M259 237q-56 0 -83 -17t-27 -56q0 -37 27.5 -59t75.5 -22q43 0 77 15t54 40.5t21 57.5l22 -97q-25 -52 -76 -78t-122 -26q-57 0 -99 22t-65 59.5t-23 83.5q0 72 52.5 115t148.5 44h176v-82h-159zM403 337q0 52 -32 81t-95 29q-38 0 -77.5 -14t-79.5 -41l-47 74
q37 23 70 38t70.5 23t88.5 8q103 0 158.5 -49.5t56.5 -136.5l1 -349h-113zM451 734q0 -33 -7.5 -63t-25.5 -48.5t-51 -18.5q-21 0 -40.5 7.5t-36.5 17.5t-31 17.5t-25 7.5q-17 0 -22 -13.5t-5 -32.5h-78q0 34 7.5 63.5t26 48t50.5 18.5q21 0 40.5 -7.5t36.5 -17.5t31 -17.5
t25 -7.5q17 0 22 13.5t5 32.5h78z" />
    <glyph glyph-name="adieresis" unicode="&#xe4;" horiz-adv-x="586" 
d="M259 237q-56 0 -83 -17t-27 -56q0 -37 27.5 -59t75.5 -22q43 0 77 15t54 40.5t21 57.5l22 -97q-25 -52 -76 -78t-122 -26q-57 0 -99 22t-65 59.5t-23 83.5q0 72 52.5 115t148.5 44h176v-82h-159zM403 337q0 52 -32 81t-95 29q-38 0 -77.5 -14t-79.5 -41l-47 74
q37 23 70 38t70.5 23t88.5 8q103 0 158.5 -49.5t56.5 -136.5l1 -349h-113zM202 742q25 0 42.5 -17t17.5 -43t-17.5 -43.5t-42.5 -17.5q-26 0 -43.5 17.5t-17.5 43.5t17.5 43t43.5 17zM380 742q25 0 42.5 -17t17.5 -43t-17.5 -43.5t-42.5 -17.5q-26 0 -43.5 17.5t-17.5 43.5
t17.5 43t43.5 17z" />
    <glyph glyph-name="aring" unicode="&#xe5;" horiz-adv-x="586" 
d="M259 237q-56 0 -83 -17t-27 -56q0 -37 27.5 -59t75.5 -22q43 0 77 15t54 40.5t21 57.5l22 -97q-25 -52 -76 -78t-122 -26q-57 0 -99 22t-65 59.5t-23 83.5q0 72 52.5 115t148.5 44h176v-82h-159zM403 337q0 52 -32 81t-95 29q-38 0 -77.5 -14t-79.5 -41l-47 74
q37 23 70 38t70.5 23t88.5 8q103 0 158.5 -49.5t56.5 -136.5l1 -349h-113zM290 798q31 0 56 -15t40 -39.5t15 -54.5t-15 -55t-40 -40t-56 -15q-30 0 -55.5 15t-40.5 40t-15 55t15 54.5t40.5 39.5t55.5 15zM290 739q-21 0 -36.5 -15t-15.5 -35q0 -21 15.5 -36t36.5 -15
t36.5 15t15.5 36q0 20 -15.5 35t-36.5 15z" />
    <glyph glyph-name="ae" unicode="&#xe6;" horiz-adv-x="975" 
d="M521 227q0 -28 13.5 -54t37 -46t54 -31.5t63.5 -11.5q90 0 150 63l62 -61q-41 -44 -97.5 -67t-123.5 -23q-51 0 -94.5 15t-77 43.5t-54.5 69.5q-31 -64 -89 -96.5t-138 -32.5q-56 0 -98 20t-65 56t-23 84q0 71 52.5 109.5t149.5 39.5h162v33q0 53 -33 81.5t-95 28.5
q-41 0 -85.5 -14t-90.5 -41l-29 78q59 32 116.5 48.5t112.5 16.5q65 0 112.5 -20.5t74.5 -59.5q35 39 83 59.5t106 20.5q82 0 142.5 -36.5t92.5 -102.5t29 -154h-420v-15zM265 245q-55 0 -85.5 -21t-30.5 -60q0 -41 28.5 -66.5t75.5 -25.5q53 0 91.5 24t61.5 73l-1 76h-140z
M826 301q-1 46 -20.5 80.5t-52 54t-75.5 19.5q-41 0 -74.5 -19t-55 -53.5t-27.5 -81.5h305z" />
    <glyph glyph-name="ccedilla" unicode="&#xe7;" horiz-adv-x="564" 
d="M460 379q-28 29 -66 45t-86 16q-46 0 -82 -22t-56 -61.5t-20 -91.5t20 -91.5t56 -62t82 -22.5q50 0 90 16.5t67 48.5l64 -63q-36 -45 -93.5 -70t-132.5 -25q-79 0 -139.5 34t-94.5 94.5t-34 140.5t34 140.5t94.5 95t139.5 34.5q72 0 127.5 -21.5t92.5 -60.5zM265 8l75 -8
l-19 -51q44 -7 62.5 -29.5t18.5 -49.5q0 -29 -15.5 -48.5t-41.5 -29.5t-59 -10q-25 0 -50.5 6t-46.5 15l24 65q13 -5 29 -8.5t30 -3.5q20 0 30.5 8t10.5 17q0 11 -12 18t-37 7h-17h-15z" />
    <glyph glyph-name="egrave" unicode="&#xe8;" horiz-adv-x="588" 
d="M453 304q-2 45 -20.5 76.5t-51.5 49t-76 17.5q-48 0 -83.5 -22t-55.5 -61.5t-20 -92.5q0 -57 21.5 -99t60 -65t88.5 -23q89 0 150 63l61 -61q-39 -43 -95 -66.5t-125 -23.5q-82 0 -143 34t-95 94.5t-34 140.5t34 140.5t95 94.5t140 35q94 0 151 -38.5t81 -108.5t17 -166
h-425v82h325zM250 755l99 -135l-95 -10l-122 96z" />
    <glyph glyph-name="eacute" unicode="&#xe9;" horiz-adv-x="588" 
d="M453 304q-2 45 -20.5 76.5t-51.5 49t-76 17.5q-48 0 -83.5 -22t-55.5 -61.5t-20 -92.5q0 -57 21.5 -99t60 -65t88.5 -23q89 0 150 63l61 -61q-39 -43 -95 -66.5t-125 -23.5q-82 0 -143 34t-95 94.5t-34 140.5t34 140.5t95 94.5t140 35q94 0 151 -38.5t81 -108.5t17 -166
h-425v82h325zM339 755l118 -49l-122 -96l-95 10z" />
    <glyph glyph-name="ecircumflex" unicode="&#xea;" horiz-adv-x="588" 
d="M453 304q-2 45 -20.5 76.5t-51.5 49t-76 17.5q-48 0 -83.5 -22t-55.5 -61.5t-20 -92.5q0 -57 21.5 -99t60 -65t88.5 -23q89 0 150 63l61 -61q-39 -43 -95 -66.5t-125 -23.5q-82 0 -143 34t-95 94.5t-34 140.5t34 140.5t95 94.5t140 35q94 0 151 -38.5t81 -108.5t17 -166
h-425v82h325zM241 753h116l107 -138h-112l-87 98h68l-87 -98h-112z" />
    <glyph glyph-name="edieresis" unicode="&#xeb;" horiz-adv-x="588" 
d="M453 304q-2 45 -20.5 76.5t-51.5 49t-76 17.5q-48 0 -83.5 -22t-55.5 -61.5t-20 -92.5q0 -57 21.5 -99t60 -65t88.5 -23q89 0 150 63l61 -61q-39 -43 -95 -66.5t-125 -23.5q-82 0 -143 34t-95 94.5t-34 140.5t34 140.5t95 94.5t140 35q94 0 151 -38.5t81 -108.5t17 -166
h-425v82h325zM211 742q25 0 42.5 -17t17.5 -43t-17.5 -43.5t-42.5 -17.5q-26 0 -43.5 17.5t-17.5 43.5t17.5 43t43.5 17zM389 742q25 0 42.5 -17t17.5 -43t-17.5 -43.5t-42.5 -17.5q-26 0 -43.5 17.5t-17.5 43.5t17.5 43t43.5 17z" />
    <glyph glyph-name="igrave" unicode="&#xec;" horiz-adv-x="284" 
d="M85 531h114v-531h-114v531zM93 755l99 -135l-95 -10l-122 96z" />
    <glyph glyph-name="iacute" unicode="&#xed;" horiz-adv-x="284" 
d="M85 531h114v-531h-114v531zM182 755l118 -49l-122 -96l-95 10z" />
    <glyph glyph-name="icircumflex" unicode="&#xee;" horiz-adv-x="284" 
d="M85 531h114v-531h-114v531zM84 753h116l107 -138h-112l-87 98h68l-87 -98h-112z" />
    <glyph glyph-name="idieresis" unicode="&#xef;" horiz-adv-x="284" 
d="M85 531h114v-531h-114v531zM64 742q26 0 43 -17t17 -43q0 -25 -17 -43t-43 -18t-43.5 18t-17.5 43q0 26 17.5 43t43.5 17zM222 742q26 0 43 -17t17 -43q0 -25 -17 -43t-43 -18t-43.5 18t-17.5 43q0 26 17.5 43t43.5 17z" />
    <glyph glyph-name="eth" unicode="&#xf0;" horiz-adv-x="590" 
d="M199 747q108 -50 188.5 -127t124.5 -169t44 -189q0 -81 -34 -141t-95.5 -93t-144.5 -33q-74 0 -129.5 28.5t-86 80t-30.5 120.5q0 67 28 116t79 76t120 27q57 0 105.5 -23t72.5 -62q-11 67 -56 130t-113 117t-149 91zM289 364q-65 0 -104 -36t-39 -98q0 -63 39.5 -101
t103.5 -38q66 0 105.5 37t39.5 98q0 62 -39.5 100t-105.5 38zM108 546l376 172l28 -58l-376 -172z" />
    <glyph glyph-name="ntilde" unicode="&#xf1;" horiz-adv-x="663" 
d="M479 300q0 62 -34 97.5t-94 35.5q-71 -1 -111.5 -50t-40.5 -122h-32q0 99 28 159t79.5 87.5t121.5 27.5q62 0 106.5 -25t68 -70.5t23.5 -109.5v-330h-115v300zM85 531h115v-531h-115v531zM507 734q0 -33 -7.5 -63t-25.5 -48.5t-51 -18.5q-21 0 -40.5 7.5t-36.5 17.5
t-31 17.5t-25 7.5q-17 0 -22 -13.5t-5 -32.5h-78q0 34 7.5 63.5t26 48t50.5 18.5q21 0 40.5 -7.5t36.5 -17.5t31 -17.5t25 -7.5q17 0 22 13.5t5 32.5h78z" />
    <glyph glyph-name="ograve" unicode="&#xf2;" horiz-adv-x="625" 
d="M313 535q82 0 144.5 -34t97.5 -94.5t35 -140.5t-35 -141t-97.5 -95t-144.5 -34t-145 34t-98 95t-35 141t35 140.5t98 94.5t145 34zM313 442q-48 0 -85 -22.5t-57.5 -62.5t-20.5 -92q0 -53 20.5 -93t57.5 -62.5t85 -22.5t84.5 22.5t57 62.5t20.5 93q0 52 -20.5 92
t-57 62.5t-84.5 22.5zM264 755l99 -135l-95 -10l-122 96z" />
    <glyph glyph-name="oacute" unicode="&#xf3;" horiz-adv-x="625" 
d="M313 535q82 0 144.5 -34t97.5 -94.5t35 -140.5t-35 -141t-97.5 -95t-144.5 -34t-145 34t-98 95t-35 141t35 140.5t98 94.5t145 34zM313 442q-48 0 -85 -22.5t-57.5 -62.5t-20.5 -92q0 -53 20.5 -93t57.5 -62.5t85 -22.5t84.5 22.5t57 62.5t20.5 93q0 52 -20.5 92
t-57 62.5t-84.5 22.5zM353 755l118 -49l-122 -96l-95 10z" />
    <glyph glyph-name="ocircumflex" unicode="&#xf4;" horiz-adv-x="625" 
d="M313 535q82 0 144.5 -34t97.5 -94.5t35 -140.5t-35 -141t-97.5 -95t-144.5 -34t-145 34t-98 95t-35 141t35 140.5t98 94.5t145 34zM313 442q-48 0 -85 -22.5t-57.5 -62.5t-20.5 -92q0 -53 20.5 -93t57.5 -62.5t85 -22.5t84.5 22.5t57 62.5t20.5 93q0 52 -20.5 92
t-57 62.5t-84.5 22.5zM255 753h116l107 -138h-112l-87 98h68l-87 -98h-112z" />
    <glyph glyph-name="otilde" unicode="&#xf5;" horiz-adv-x="625" 
d="M313 535q82 0 144.5 -34t97.5 -94.5t35 -140.5t-35 -141t-97.5 -95t-144.5 -34t-145 34t-98 95t-35 141t35 140.5t98 94.5t145 34zM313 442q-48 0 -85 -22.5t-57.5 -62.5t-20.5 -92q0 -53 20.5 -93t57.5 -62.5t85 -22.5t84.5 22.5t57 62.5t20.5 93q0 52 -20.5 92
t-57 62.5t-84.5 22.5zM474 734q0 -33 -7.5 -63t-25.5 -48.5t-51 -18.5q-21 0 -40.5 7.5t-36.5 17.5t-31 17.5t-25 7.5q-17 0 -22 -13.5t-5 -32.5h-78q0 34 7.5 63.5t26 48t50.5 18.5q21 0 40.5 -7.5t36.5 -17.5t31 -17.5t25 -7.5q17 0 22 13.5t5 32.5h78z" />
    <glyph glyph-name="odieresis" unicode="&#xf6;" horiz-adv-x="625" 
d="M313 535q82 0 144.5 -34t97.5 -94.5t35 -140.5t-35 -141t-97.5 -95t-144.5 -34t-145 34t-98 95t-35 141t35 140.5t98 94.5t145 34zM313 442q-48 0 -85 -22.5t-57.5 -62.5t-20.5 -92q0 -53 20.5 -93t57.5 -62.5t85 -22.5t84.5 22.5t57 62.5t20.5 93q0 52 -20.5 92
t-57 62.5t-84.5 22.5zM225 742q25 0 42.5 -17t17.5 -43t-17.5 -43.5t-42.5 -17.5q-26 0 -43.5 17.5t-17.5 43.5t17.5 43t43.5 17zM403 742q25 0 42.5 -17t17.5 -43t-17.5 -43.5t-42.5 -17.5q-26 0 -43.5 17.5t-17.5 43.5t17.5 43t43.5 17z" />
    <glyph glyph-name="divide" unicode="&#xf7;" horiz-adv-x="498" 
d="M35 362h428v-76h-428v76zM249 564q26 0 43.5 -17t17.5 -43t-17.5 -43.5t-43.5 -17.5q-25 0 -42.5 17.5t-17.5 43.5t17.5 43t42.5 17zM249 208q26 0 43.5 -17t17.5 -43t-17.5 -43.5t-43.5 -17.5q-25 0 -42.5 17.5t-17.5 43.5t17.5 43t42.5 17z" />
    <glyph glyph-name="oslash" unicode="&#xf8;" horiz-adv-x="625" 
d="M313 535q82 0 144.5 -34t97.5 -94.5t35 -140.5t-35 -141t-97.5 -95t-144.5 -34t-145 34t-98 95t-35 141t35 140.5t98 94.5t145 34zM313 450q-50 0 -88 -23.5t-59.5 -65t-21.5 -96.5t21.5 -97.5t59.5 -66t88 -23.5t88 23.5t59.5 66t21.5 97.5t-21.5 96.5t-59.5 65
t-88 23.5zM519 627h82l-494 -723h-82z" />
    <glyph glyph-name="ugrave" unicode="&#xf9;" horiz-adv-x="653" 
d="M183 231q0 -62 33 -97.5t91 -35.5q69 2 107.5 51t38.5 121h31q0 -98 -27 -158t-76.5 -87.5t-117.5 -28.5q-61 0 -104.5 25t-67 71t-23.5 109v330h115v-300zM453 531h115v-531h-115v531zM278 755l99 -135l-95 -10l-122 96z" />
    <glyph glyph-name="uacute" unicode="&#xfa;" horiz-adv-x="653" 
d="M183 231q0 -62 33 -97.5t91 -35.5q69 2 107.5 51t38.5 121h31q0 -98 -27 -158t-76.5 -87.5t-117.5 -28.5q-61 0 -104.5 25t-67 71t-23.5 109v330h115v-300zM453 531h115v-531h-115v531zM367 755l118 -49l-122 -96l-95 10z" />
    <glyph glyph-name="ucircumflex" unicode="&#xfb;" horiz-adv-x="653" 
d="M183 231q0 -62 33 -97.5t91 -35.5q69 2 107.5 51t38.5 121h31q0 -98 -27 -158t-76.5 -87.5t-117.5 -28.5q-61 0 -104.5 25t-67 71t-23.5 109v330h115v-300zM453 531h115v-531h-115v531zM269 753h116l107 -138h-112l-87 98h68l-87 -98h-112z" />
    <glyph glyph-name="udieresis" unicode="&#xfc;" horiz-adv-x="653" 
d="M183 231q0 -62 33 -97.5t91 -35.5q69 2 107.5 51t38.5 121h31q0 -98 -27 -158t-76.5 -87.5t-117.5 -28.5q-61 0 -104.5 25t-67 71t-23.5 109v330h115v-300zM453 531h115v-531h-115v531zM239 742q25 0 42.5 -17t17.5 -43t-17.5 -43.5t-42.5 -17.5q-26 0 -43.5 17.5
t-17.5 43.5t17.5 43t43.5 17zM417 742q25 0 42.5 -17t17.5 -43t-17.5 -43.5t-42.5 -17.5q-26 0 -43.5 17.5t-17.5 43.5t17.5 43t43.5 17z" />
    <glyph glyph-name="yacute" unicode="&#xfd;" horiz-adv-x="531" 
d="M294 -75q-25 -61 -69 -92.5t-104 -31.5q-36 0 -65.5 11t-57.5 33l49 85q36 -26 69 -26q26 0 47 15t34 46l18 42l-220 524h119l159 -410l148 410h115zM308 755l118 -49l-122 -96l-95 10z" />
    <glyph glyph-name="thorn" unicode="&#xfe;" horiz-adv-x="680" 
d="M205 439q29 47 76.5 71.5t109.5 24.5q76 0 133 -34t89 -95t32 -142q0 -79 -31.5 -139.5t-88 -94.5t-132.5 -34q-64 0 -111.5 25t-76.5 71v-286h-115v936h115v-303zM367 444q-47 0 -84 -23t-57.5 -62.5t-20.5 -91.5t20.5 -92.5t57.5 -63t84 -22.5q48 0 84.5 23t57 63
t20.5 92q0 51 -20.5 91t-57 63t-84.5 23z" />
    <glyph glyph-name="ydieresis" unicode="&#xff;" horiz-adv-x="531" 
d="M294 -75q-25 -61 -69 -92.5t-104 -31.5q-36 0 -65.5 11t-57.5 33l49 85q36 -26 69 -26q26 0 47 15t34 46l18 42l-220 524h119l159 -410l148 410h115zM180 742q25 0 42.5 -17t17.5 -43t-17.5 -43.5t-42.5 -17.5q-26 0 -43.5 17.5t-17.5 43.5t17.5 43t43.5 17zM358 742
q25 0 42.5 -17t17.5 -43t-17.5 -43.5t-42.5 -17.5q-26 0 -43.5 17.5t-17.5 43.5t17.5 43t43.5 17z" />
    <glyph glyph-name="Amacron" unicode="&#x100;" horiz-adv-x="738" 
d="M310 700h121l306 -700h-126l-244 581l-243 -581h-123zM155 262h419v-100h-419v100zM216 839h306v-70h-306v70z" />
    <glyph glyph-name="amacron" unicode="&#x101;" horiz-adv-x="586" 
d="M259 237q-56 0 -83 -17t-27 -56q0 -37 27.5 -59t75.5 -22q43 0 77 15t54 40.5t21 57.5l22 -97q-25 -52 -76 -78t-122 -26q-57 0 -99 22t-65 59.5t-23 83.5q0 72 52.5 115t148.5 44h176v-82h-159zM403 337q0 52 -32 81t-95 29q-38 0 -77.5 -14t-79.5 -41l-47 74
q37 23 70 38t70.5 23t88.5 8q103 0 158.5 -49.5t56.5 -136.5l1 -349h-113zM142 716h295v-70h-295v70z" />
    <glyph glyph-name="Abreve" unicode="&#x102;" horiz-adv-x="738" 
d="M310 700h121l306 -700h-126l-244 581l-243 -581h-123zM155 262h419v-100h-419v100zM306 899q2 -29 19.5 -48t43.5 -19t44 19t19 48h78q-2 -63 -41.5 -101.5t-99.5 -38.5t-99.5 38.5t-41.5 101.5h78z" />
    <glyph glyph-name="abreve" unicode="&#x103;" horiz-adv-x="586" 
d="M259 237q-56 0 -83 -17t-27 -56q0 -37 27.5 -59t75.5 -22q43 0 77 15t54 40.5t21 57.5l22 -97q-25 -52 -76 -78t-122 -26q-57 0 -99 22t-65 59.5t-23 83.5q0 72 52.5 115t148.5 44h176v-82h-159zM403 337q0 52 -32 81t-95 29q-38 0 -77.5 -14t-79.5 -41l-47 74
q37 23 70 38t70.5 23t88.5 8q103 0 158.5 -49.5t56.5 -136.5l1 -349h-113zM227 748q2 -29 19.5 -48t43.5 -19t44 19t19 48h78q-2 -63 -41.5 -101.5t-99.5 -38.5t-99.5 38.5t-41.5 101.5h78z" />
    <glyph glyph-name="Aogonek" unicode="&#x104;" horiz-adv-x="738" 
d="M310 700h121l306 -700h-126l-244 581l-243 -581h-123zM155 262h419v-100h-419v100zM665 36l72 -36q-47 -36 -67 -60.5t-20 -46.5q0 -16 7.5 -22t18.5 -6q7 0 16 2t17 6l27 -71q-22 -10 -43.5 -14.5t-41.5 -4.5q-46 0 -76 22.5t-30 67.5q0 38 26 80.5t94 82.5z" />
    <glyph glyph-name="aogonek" unicode="&#x105;" horiz-adv-x="586" 
d="M259 237q-56 0 -83 -17t-27 -56q0 -37 27.5 -59t75.5 -22q43 0 77 15t54 40.5t21 57.5l22 -97q-25 -52 -76 -78t-122 -26q-57 0 -99 22t-65 59.5t-23 83.5q0 72 52.5 115t148.5 44h176v-82h-159zM403 337q0 52 -32 81t-95 29q-38 0 -77.5 -14t-79.5 -41l-47 74
q37 23 70 38t70.5 23t88.5 8q103 0 158.5 -49.5t56.5 -136.5l1 -349h-113zM445 36l72 -36q-47 -36 -67 -60.5t-20 -46.5q0 -16 7.5 -22t18.5 -6q7 0 16 2t17 6l27 -71q-22 -10 -43.5 -14.5t-41.5 -4.5q-46 0 -76 22.5t-30 67.5q0 38 26 80.5t94 82.5z" />
    <glyph glyph-name="Cacute" unicode="&#x106;" horiz-adv-x="697" 
d="M599 518q-38 42 -90 66t-105 24q-52 0 -97.5 -19.5t-80 -54.5t-53.5 -81.5t-19 -100.5q0 -53 19 -99.5t53.5 -81.5t80 -55t97.5 -20q53 0 104 22.5t91 61.5l70 -73q-35 -35 -79.5 -61t-93 -40t-98.5 -14q-77 0 -143 27.5t-115.5 76.5t-77.5 114.5t-28 140.5t28 139.5
t78.5 113.5t117 76t144.5 27q50 0 98 -13t91 -37t77 -58zM462 904l118 -49l-122 -96l-95 10z" />
    <glyph glyph-name="cacute" unicode="&#x107;" horiz-adv-x="564" 
d="M460 379q-28 29 -66 45t-86 16q-46 0 -82 -22t-56 -61.5t-20 -91.5t20 -91.5t56 -62t82 -22.5q50 0 90 16.5t67 48.5l64 -63q-36 -45 -93.5 -70t-132.5 -25q-79 0 -139.5 34t-94.5 94.5t-34 140.5t34 140.5t94.5 95t139.5 34.5q72 0 127.5 -21.5t92.5 -60.5zM344 755
l118 -49l-122 -96l-95 10z" />
    <glyph glyph-name="Ccircumflex" unicode="&#x108;" horiz-adv-x="697" 
d="M599 518q-38 42 -90 66t-105 24q-52 0 -97.5 -19.5t-80 -54.5t-53.5 -81.5t-19 -100.5q0 -53 19 -99.5t53.5 -81.5t80 -55t97.5 -20q53 0 104 22.5t91 61.5l70 -73q-35 -35 -79.5 -61t-93 -40t-98.5 -14q-77 0 -143 27.5t-115.5 76.5t-77.5 114.5t-28 140.5t28 139.5
t78.5 113.5t117 76t144.5 27q50 0 98 -13t91 -37t77 -58zM364 902h116l107 -138h-112l-87 98h68l-87 -98h-112z" />
    <glyph glyph-name="ccircumflex" unicode="&#x109;" horiz-adv-x="564" 
d="M460 379q-28 29 -66 45t-86 16q-46 0 -82 -22t-56 -61.5t-20 -91.5t20 -91.5t56 -62t82 -22.5q50 0 90 16.5t67 48.5l64 -63q-36 -45 -93.5 -70t-132.5 -25q-79 0 -139.5 34t-94.5 94.5t-34 140.5t34 140.5t94.5 95t139.5 34.5q72 0 127.5 -21.5t92.5 -60.5zM246 753h116
l107 -138h-112l-87 98h68l-87 -98h-112z" />
    <glyph glyph-name="Cdotaccent" unicode="&#x10a;" horiz-adv-x="697" 
d="M599 518q-38 42 -90 66t-105 24q-52 0 -97.5 -19.5t-80 -54.5t-53.5 -81.5t-19 -100.5q0 -53 19 -99.5t53.5 -81.5t80 -55t97.5 -20q53 0 104 22.5t91 61.5l70 -73q-35 -35 -79.5 -61t-93 -40t-98.5 -14q-77 0 -143 27.5t-115.5 76.5t-77.5 114.5t-28 140.5t28 139.5
t78.5 113.5t117 76t144.5 27q50 0 98 -13t91 -37t77 -58zM422 893q29 0 48 -19t19 -48q0 -28 -19 -47.5t-48 -19.5q-28 0 -47.5 19.5t-19.5 47.5q0 29 19.5 48t47.5 19z" />
    <glyph glyph-name="cdotaccent" unicode="&#x10b;" horiz-adv-x="564" 
d="M460 379q-28 29 -66 45t-86 16q-46 0 -82 -22t-56 -61.5t-20 -91.5t20 -91.5t56 -62t82 -22.5q50 0 90 16.5t67 48.5l64 -63q-36 -45 -93.5 -70t-132.5 -25q-79 0 -139.5 34t-94.5 94.5t-34 140.5t34 140.5t94.5 95t139.5 34.5q72 0 127.5 -21.5t92.5 -60.5zM304 750
q29 0 48 -19t19 -48q0 -28 -19 -47.5t-48 -19.5q-28 0 -47.5 19.5t-19.5 47.5q0 29 19.5 48t47.5 19z" />
    <glyph glyph-name="Ccaron" unicode="&#x10c;" horiz-adv-x="697" 
d="M599 518q-38 42 -90 66t-105 24q-52 0 -97.5 -19.5t-80 -54.5t-53.5 -81.5t-19 -100.5q0 -53 19 -99.5t53.5 -81.5t80 -55t97.5 -20q53 0 104 22.5t91 61.5l70 -73q-35 -35 -79.5 -61t-93 -40t-98.5 -14q-77 0 -143 27.5t-115.5 76.5t-77.5 114.5t-28 140.5t28 139.5
t78.5 113.5t117 76t144.5 27q50 0 98 -13t91 -37t77 -58zM450 764h-116l-107 138h112l87 -98h-68l87 98h112z" />
    <glyph glyph-name="ccaron" unicode="&#x10d;" horiz-adv-x="564" 
d="M460 379q-28 29 -66 45t-86 16q-46 0 -82 -22t-56 -61.5t-20 -91.5t20 -91.5t56 -62t82 -22.5q50 0 90 16.5t67 48.5l64 -63q-36 -45 -93.5 -70t-132.5 -25q-79 0 -139.5 34t-94.5 94.5t-34 140.5t34 140.5t94.5 95t139.5 34.5q72 0 127.5 -21.5t92.5 -60.5zM362 615
h-116l-107 138h112l87 -98h-68l87 98h112z" />
    <glyph glyph-name="Dcaron" unicode="&#x10e;" horiz-adv-x="775" 
d="M379 700q79 0 145 -26t114.5 -73t75.5 -111t27 -140t-27 -139.5t-76 -111t-116 -73.5t-146 -26h-284v700h287zM382 101q51 0 94.5 18t76 51.5t51 79t18.5 99.5q0 55 -19 100.5t-52 79.5t-77.5 52t-96.5 18h-167v-498h172zM393 764h-116l-107 138h112l87 -98h-68l87 98
h112z" />
    <glyph glyph-name="dcaron" unicode="&#x10f;" horiz-adv-x="767" 
d="M288 536q74 0 125.5 -32.5t79 -93t26.5 -144.5q1 -84 -26 -145t-78.5 -93.5t-124.5 -32.5q-76 0 -133.5 34.5t-89.5 96t-32 141.5t32 140.5t89 94.5t132 34zM314 443q-48 0 -85 -23t-57.5 -63.5t-21.5 -92.5q1 -52 21.5 -92t57.5 -63t85 -23t85 23t57.5 63t20.5 92
q0 53 -20.5 93t-57.5 63t-85 23zM477 742h115v-742h-115v742zM679 742h108l-30 -200h-78v200z" />
    <glyph glyph-name="Dcroat" unicode="&#x110;" horiz-adv-x="775" 
d="M20 383h388v-66h-388v66zM379 700q79 0 145 -26t114.5 -73t75.5 -111t27 -140t-27 -140t-76 -111t-115.5 -73t-146.5 -26h-284v700h287zM382 101q51 0 94.5 18t76.5 51.5t51 79t18 99.5q0 55 -18.5 100.5t-52 79t-78 52t-96.5 18.5h-167v-498h172z" />
    <glyph glyph-name="dcroat" unicode="&#x111;" horiz-adv-x="681" 
d="M273 656h389v-66h-389v66zM284 516q69 0 122 -33t83 -91.5t30 -134.5q0 -77 -29.5 -136.5t-81.5 -92.5t-121 -33q-74 0 -131 33t-89 92.5t-32 136.5t31.5 135t88 91t129.5 33zM314 423q-48 0 -85 -21.5t-58 -59.5t-21 -88q0 -49 21 -87t58 -59.5t85 -21.5t84.5 21.5
t57.5 59.5t21 87q0 50 -21 88t-57.5 59.5t-84.5 21.5zM477 742h114v-742h-114v742z" />
    <glyph glyph-name="Emacron" unicode="&#x112;" horiz-adv-x="656" 
d="M92 700h500v-101h-382v-197h342v-100h-342v-201h394v-101h-512v700zM198 839h306v-70h-306v70z" />
    <glyph glyph-name="emacron" unicode="&#x113;" horiz-adv-x="588" 
d="M453 304q-2 45 -20.5 76.5t-51.5 49t-76 17.5q-48 0 -83.5 -22t-55.5 -61.5t-20 -92.5q0 -57 21.5 -99t60 -65t88.5 -23q89 0 150 63l61 -61q-39 -43 -95 -66.5t-125 -23.5q-82 0 -143 34t-95 94.5t-34 140.5t34 140.5t95 94.5t140 35q94 0 151 -38.5t81 -108.5t17 -166
h-425v82h325zM151 716h295v-70h-295v70z" />
    <glyph glyph-name="Ebreve" unicode="&#x114;" horiz-adv-x="656" 
d="M92 700h500v-101h-382v-197h342v-100h-342v-201h394v-101h-512v700zM288 899q2 -29 19.5 -48t43.5 -19t44 19t19 48h78q-2 -63 -41.5 -101.5t-99.5 -38.5t-99.5 38.5t-41.5 101.5h78z" />
    <glyph glyph-name="ebreve" unicode="&#x115;" horiz-adv-x="588" 
d="M453 304q-2 45 -20.5 76.5t-51.5 49t-76 17.5q-48 0 -83.5 -22t-55.5 -61.5t-20 -92.5q0 -57 21.5 -99t60 -65t88.5 -23q89 0 150 63l61 -61q-39 -43 -95 -66.5t-125 -23.5q-82 0 -143 34t-95 94.5t-34 140.5t34 140.5t95 94.5t140 35q94 0 151 -38.5t81 -108.5t17 -166
h-425v82h325zM236 748q2 -29 19.5 -48t43.5 -19t44 19t19 48h78q-2 -63 -41.5 -101.5t-99.5 -38.5t-99.5 38.5t-41.5 101.5h78z" />
    <glyph glyph-name="Edotaccent" unicode="&#x116;" horiz-adv-x="656" 
d="M92 700h500v-101h-382v-197h342v-100h-342v-201h394v-101h-512v700zM351 893q29 0 48 -19t19 -48q0 -28 -19 -47.5t-48 -19.5q-28 0 -47.5 19.5t-19.5 47.5q0 29 19.5 48t47.5 19z" />
    <glyph glyph-name="edotaccent" unicode="&#x117;" horiz-adv-x="588" 
d="M453 304q-2 45 -20.5 76.5t-51.5 49t-76 17.5q-48 0 -83.5 -22t-55.5 -61.5t-20 -92.5q0 -57 21.5 -99t60 -65t88.5 -23q89 0 150 63l61 -61q-39 -43 -95 -66.5t-125 -23.5q-82 0 -143 34t-95 94.5t-34 140.5t34 140.5t95 94.5t140 35q94 0 151 -38.5t81 -108.5t17 -166
h-425v82h325zM299 750q29 0 48 -19t19 -48q0 -28 -19 -47.5t-48 -19.5q-28 0 -47.5 19.5t-19.5 47.5q0 29 19.5 48t47.5 19z" />
    <glyph glyph-name="Eogonek" unicode="&#x118;" horiz-adv-x="656" 
d="M92 700h500v-101h-382v-197h342v-100h-342v-201h394v-101h-512v700zM532 36l72 -36q-47 -36 -67 -60.5t-20 -46.5q0 -16 7.5 -22t18.5 -6q7 0 16 2t17 6l27 -71q-22 -10 -43.5 -14.5t-41.5 -4.5q-46 0 -76 22.5t-30 67.5q0 38 26 80.5t94 82.5z" />
    <glyph glyph-name="eogonek" unicode="&#x119;" horiz-adv-x="588" 
d="M453 304q-2 45 -20.5 76.5t-51.5 49t-76 17.5q-48 0 -83.5 -22t-55.5 -61.5t-20 -92.5q0 -57 21.5 -99t60 -65t88.5 -23q89 0 150 63l61 -61q-39 -43 -95 -66.5t-125 -23.5q-82 0 -143 34t-95 94.5t-34 140.5t34 140.5t95 94.5t140 35q94 0 151 -38.5t81 -108.5t17 -166
h-425v82h325zM432 80l54 -30q-24 -21 -43.5 -48t-31.5 -54.5t-12 -48.5q0 -16 6.5 -25t20.5 -9q18 0 32 8l27 -71q-23 -10 -45.5 -14.5t-39.5 -4.5q-48 0 -77 27.5t-29 75.5q0 46 31.5 94t106.5 100z" />
    <glyph glyph-name="Ecaron" unicode="&#x11a;" horiz-adv-x="656" 
d="M92 700h500v-101h-382v-197h342v-100h-342v-201h394v-101h-512v700zM379 764h-116l-107 138h112l87 -98h-68l87 98h112z" />
    <glyph glyph-name="ecaron" unicode="&#x11b;" horiz-adv-x="588" 
d="M453 304q-2 45 -20.5 76.5t-51.5 49t-76 17.5q-48 0 -83.5 -22t-55.5 -61.5t-20 -92.5q0 -57 21.5 -99t60 -65t88.5 -23q89 0 150 63l61 -61q-39 -43 -95 -66.5t-125 -23.5q-82 0 -143 34t-95 94.5t-34 140.5t34 140.5t95 94.5t140 35q94 0 151 -38.5t81 -108.5t17 -166
h-425v82h325zM357 615h-116l-107 138h112l87 -98h-68l87 98h112z" />
    <glyph glyph-name="Gcircumflex" unicode="&#x11c;" horiz-adv-x="749" 
d="M611 527q-40 38 -93.5 59.5t-108.5 21.5q-54 0 -100 -20t-81 -55t-54.5 -81.5t-19.5 -100.5t19.5 -101t54.5 -82.5t81.5 -55.5t100.5 -20q49 0 101.5 20t94.5 54l68 -82q-35 -27 -80.5 -48t-94.5 -32.5t-97 -11.5q-78 0 -144.5 27.5t-117 76.5t-78.5 114.5t-28 140.5
t28.5 139.5t79.5 113.5t119.5 76t147.5 27q50 0 98.5 -12t92.5 -34t78 -53zM571 342h103v-258h-103v258zM329 902h116l107 -138h-112l-87 98h68l-87 -98h-112z" />
    <glyph glyph-name="gcircumflex" unicode="&#x11d;" horiz-adv-x="640" 
d="M565 53q0 -77 -34 -133t-96 -86.5t-146 -30.5q-62 0 -117 18.5t-104 51.5l49 79q38 -28 78 -43.5t89 -15.5q51 0 88.5 19.5t58 54.5t20.5 83v481h114v-478zM271 535q70 1 119.5 -29.5t75.5 -87.5t25 -137q1 -80 -24.5 -137.5t-74 -88t-117.5 -30.5q-72 0 -126 32.5
t-84 90.5t-30 134q0 75 29.5 131.5t83 89t123.5 32.5zM298 447q-45 0 -80 -21.5t-54.5 -59.5t-20.5 -87q1 -49 20.5 -87t54 -59.5t80.5 -21.5q45 0 79.5 21.5t54 59.5t19.5 87q0 50 -19.5 87.5t-54 59t-79.5 21.5zM248 753h116l107 -138h-112l-87 98h68l-87 -98h-112z" />
    <glyph glyph-name="Gbreve" unicode="&#x11e;" horiz-adv-x="749" 
d="M611 527q-40 38 -93.5 59.5t-108.5 21.5q-54 0 -100 -20t-81 -55t-54.5 -81.5t-19.5 -100.5t19.5 -101t54.5 -82.5t81.5 -55.5t100.5 -20q49 0 101.5 20t94.5 54l68 -82q-35 -27 -80.5 -48t-94.5 -32.5t-97 -11.5q-78 0 -144.5 27.5t-117 76.5t-78.5 114.5t-28 140.5
t28.5 139.5t79.5 113.5t119.5 76t147.5 27q50 0 98.5 -12t92.5 -34t78 -53zM571 342h103v-258h-103v258zM324 899q2 -29 19.5 -48t43.5 -19t44 19t19 48h78q-2 -63 -41.5 -101.5t-99.5 -38.5t-99.5 38.5t-41.5 101.5h78z" />
    <glyph glyph-name="gbreve" unicode="&#x11f;" horiz-adv-x="640" 
d="M565 53q0 -77 -34 -133t-96 -86.5t-146 -30.5q-62 0 -117 18.5t-104 51.5l49 79q38 -28 78 -43.5t89 -15.5q51 0 88.5 19.5t58 54.5t20.5 83v481h114v-478zM271 535q70 1 119.5 -29.5t75.5 -87.5t25 -137q1 -80 -24.5 -137.5t-74 -88t-117.5 -30.5q-72 0 -126 32.5
t-84 90.5t-30 134q0 75 29.5 131.5t83 89t123.5 32.5zM298 447q-45 0 -80 -21.5t-54.5 -59.5t-20.5 -87q1 -49 20.5 -87t54 -59.5t80.5 -21.5q45 0 79.5 21.5t54 59.5t19.5 87q0 50 -19.5 87.5t-54 59t-79.5 21.5zM243 748q2 -29 19.5 -48t43.5 -19t44 19t19 48h78
q-2 -63 -41.5 -101.5t-99.5 -38.5t-99.5 38.5t-41.5 101.5h78z" />
    <glyph glyph-name="Gdotaccent" unicode="&#x120;" horiz-adv-x="749" 
d="M611 527q-40 38 -93.5 59.5t-108.5 21.5q-54 0 -100 -20t-81 -55t-54.5 -81.5t-19.5 -100.5t19.5 -101t54.5 -82.5t81.5 -55.5t100.5 -20q49 0 101.5 20t94.5 54l68 -82q-35 -27 -80.5 -48t-94.5 -32.5t-97 -11.5q-78 0 -144.5 27.5t-117 76.5t-78.5 114.5t-28 140.5
t28.5 139.5t79.5 113.5t119.5 76t147.5 27q50 0 98.5 -12t92.5 -34t78 -53zM571 342h103v-258h-103v258zM387 893q29 0 48 -19t19 -48q0 -28 -19 -47.5t-48 -19.5q-28 0 -47.5 19.5t-19.5 47.5q0 29 19.5 48t47.5 19z" />
    <glyph glyph-name="gdotaccent" unicode="&#x121;" horiz-adv-x="640" 
d="M565 53q0 -77 -34 -133t-96 -86.5t-146 -30.5q-62 0 -117 18.5t-104 51.5l49 79q38 -28 78 -43.5t89 -15.5q51 0 88.5 19.5t58 54.5t20.5 83v481h114v-478zM271 535q70 1 119.5 -29.5t75.5 -87.5t25 -137q1 -80 -24.5 -137.5t-74 -88t-117.5 -30.5q-72 0 -126 32.5
t-84 90.5t-30 134q0 75 29.5 131.5t83 89t123.5 32.5zM298 447q-45 0 -80 -21.5t-54.5 -59.5t-20.5 -87q1 -49 20.5 -87t54 -59.5t80.5 -21.5q45 0 79.5 21.5t54 59.5t19.5 87q0 50 -19.5 87.5t-54 59t-79.5 21.5zM306 750q29 0 48 -19t19 -48q0 -28 -19 -47.5t-48 -19.5
q-28 0 -47.5 19.5t-19.5 47.5q0 29 19.5 48t47.5 19z" />
    <glyph glyph-name="uni0122" unicode="&#x122;" horiz-adv-x="749" 
d="M611 527q-40 38 -93.5 59.5t-108.5 21.5q-54 0 -100 -20t-81 -55t-54.5 -81.5t-19.5 -100.5t19.5 -101t54.5 -82.5t81.5 -55.5t100.5 -20q49 0 101.5 20t94.5 54l68 -82q-35 -27 -80.5 -48t-94.5 -32.5t-97 -11.5q-78 0 -144.5 27.5t-117 76.5t-78.5 114.5t-28 140.5
t28.5 139.5t79.5 113.5t119.5 76t147.5 27q50 0 98.5 -12t92.5 -34t78 -53zM571 342h103v-258h-103v258zM335 -58h106l-58 -161h-82z" />
    <glyph glyph-name="uni0123" unicode="&#x123;" horiz-adv-x="640" 
d="M565 53q0 -77 -34 -133t-96 -86.5t-146 -30.5q-62 0 -117 18.5t-104 51.5l49 79q38 -28 78 -43.5t89 -15.5q51 0 88.5 19.5t58 54.5t20.5 83v481h114v-478zM271 535q70 1 119.5 -29.5t75.5 -87.5t25 -137q1 -80 -24.5 -137.5t-74 -88t-117.5 -30.5q-72 0 -126 32.5
t-84 90.5t-30 134q0 75 29.5 131.5t83 89t123.5 32.5zM298 447q-45 0 -80 -21.5t-54.5 -59.5t-20.5 -87q1 -49 20.5 -87t54 -59.5t80.5 -21.5q45 0 79.5 21.5t54 59.5t19.5 87q0 50 -19.5 87.5t-54 59t-79.5 21.5zM358 613h-106l58 161h82z" />
    <glyph glyph-name="Hcircumflex" unicode="&#x124;" horiz-adv-x="791" 
d="M92 700h118v-307h371v307h118v-700h-118v293h-371v-293h-118v700zM342 902h116l107 -138h-112l-87 98h68l-87 -98h-112z" />
    <glyph glyph-name="hcircumflex" unicode="&#x125;" horiz-adv-x="669" 
d="M485 300q0 62 -34 97.5t-94 35.5q-71 -1 -111.5 -50t-40.5 -122h-32q0 99 28 159t79.5 87.5t121.5 27.5q62 0 106.5 -25t68 -70.5t23.5 -109.5v-330h-115v300zM90 742h115v-742h-115v742zM88 964h116l107 -138h-112l-87 98h68l-87 -98h-112z" />
    <glyph glyph-name="Hbar" unicode="&#x126;" horiz-adv-x="791" 
d="M1 590h790v-66h-790v66zM92 700h118v-307h371v307h118v-700h-118v293h-371v-293h-118v700z" />
    <glyph glyph-name="hbar" unicode="&#x127;" horiz-adv-x="669" 
d="M20 656h389v-66h-389v66zM485 281q0 62 -34 97.5t-94 35.5q-47 0 -81.5 -23t-52.5 -61.5t-18 -87.5h-32q0 99 28 159t79.5 87.5t121.5 27.5q62 0 106.5 -25t68 -70.5t23.5 -109.5v-311h-115v281zM90 742h115v-742h-115v742z" />
    <glyph glyph-name="Itilde" unicode="&#x128;" horiz-adv-x="302" 
d="M92 700h118v-700h-118v700zM312 889q0 -33 -7.5 -63t-25.5 -48.5t-51 -18.5q-21 0 -40.5 7.5t-36.5 17.5t-31 17.5t-25 7.5q-17 0 -22 -13.5t-5 -32.5h-78q0 34 7.5 63.5t26 48t50.5 18.5q21 0 40.5 -7.5t36.5 -17.5t31 -17.5t25 -7.5q17 0 22 13.5t5 32.5h78z" />
    <glyph glyph-name="itilde" unicode="&#x129;" horiz-adv-x="284" 
d="M85 531h114v-531h-114v531zM291 732q0 -54 -17 -92t-61 -38q-19 0 -35.5 7t-31 16.5t-26 16.5t-20.5 7q-14 0 -19 -12.5t-5 -30.5h-78q0 53 17.5 91.5t61.5 38.5q18 0 34.5 -6.5t31 -15.5t26 -15.5t20.5 -6.5q14 0 19 12t5 28h78z" />
    <glyph glyph-name="Imacron" unicode="&#x12a;" horiz-adv-x="302" 
d="M92 700h118v-700h-118v700zM3 839h295v-70h-295v70z" />
    <glyph glyph-name="imacron" unicode="&#x12b;" horiz-adv-x="284" 
d="M85 531h114v-531h-114v531zM14 716h255v-70h-255v70z" />
    <glyph glyph-name="Ibreve" unicode="&#x12c;" horiz-adv-x="302" 
d="M92 700h118v-700h-118v700zM88 899q2 -29 19.5 -48t43.5 -19t44 19t19 48h78q-2 -63 -41.5 -101.5t-99.5 -38.5t-99.5 38.5t-41.5 101.5h78z" />
    <glyph glyph-name="ibreve" unicode="&#x12d;" horiz-adv-x="284" 
d="M85 531h114v-531h-114v531zM79 748q2 -29 19.5 -48t43.5 -19t44 19t19 48h78q-2 -63 -41.5 -101.5t-99.5 -38.5t-99.5 38.5t-41.5 101.5h78z" />
    <glyph glyph-name="Iogonek" unicode="&#x12e;" horiz-adv-x="302" 
d="M92 700h118v-700h-118v700zM138 36l72 -36q-47 -36 -67 -60.5t-20 -46.5q0 -16 7.5 -22t18.5 -6q7 0 16 2t17 6l27 -71q-22 -10 -43.5 -14.5t-41.5 -4.5q-46 0 -76 22.5t-30 67.5q0 38 26 80.5t94 82.5z" />
    <glyph glyph-name="iogonek" unicode="&#x12f;" horiz-adv-x="284" 
d="M85 531h114v-531h-114v531zM142 750q29 0 48 -19t19 -48q0 -28 -19 -47.5t-48 -19.5q-28 0 -47.5 19.5t-19.5 47.5q0 29 19.5 48t47.5 19zM127 36l72 -36q-47 -36 -67 -60.5t-20 -46.5q0 -16 7.5 -22t18.5 -6q7 0 16 2t17 6l27 -71q-22 -10 -43.5 -14.5t-41.5 -4.5
q-46 0 -76 22.5t-30 67.5q0 38 26 80.5t94 82.5z" />
    <glyph glyph-name="Idotaccent" unicode="&#x130;" horiz-adv-x="302" 
d="M92 700h118v-700h-118v700zM151 893q29 0 48 -19t19 -48q0 -28 -19 -47.5t-48 -19.5q-28 0 -47.5 19.5t-19.5 47.5q0 29 19.5 48t47.5 19z" />
    <glyph glyph-name="dotlessi" unicode="&#x131;" horiz-adv-x="284" 
d="M85 531h114v-531h-114v531z" />
    <glyph glyph-name="IJ" unicode="&#x132;" horiz-adv-x="801" 
d="M92 700h118v-700h-118v700zM724 215q0 -105 -58.5 -162.5t-159.5 -57.5q-63 0 -115 26.5t-91 73.5l56 86q35 -37 74 -57t75 -20q47 0 73.5 29.5t26.5 84.5v381h-242v101h361v-485z" />
    <glyph glyph-name="ij" unicode="&#x133;" horiz-adv-x="559" 
d="M85 531h114v-531h-114v531zM142 750q29 0 48 -19t19 -48q0 -28 -19 -47.5t-48 -19.5q-28 0 -47.5 19.5t-19.5 47.5q0 29 19.5 48t47.5 19zM249 -97q12 -4 23.5 -6.5t23.5 -3.5q72 -2 72 98v540h115v-556q0 -83 -43 -128.5t-120 -44.5q-54 2 -96 19zM425 750q29 0 48 -19
t19 -48q0 -28 -19 -47.5t-48 -19.5q-28 0 -47.5 19.5t-19.5 47.5q0 29 19.5 48t47.5 19z" />
    <glyph glyph-name="Jcircumflex" unicode="&#x134;" horiz-adv-x="499" 
d="M422 215q0 -105 -58.5 -162.5t-159.5 -57.5q-63 0 -115 26.5t-91 73.5l56 86q35 -37 74 -57t75 -20q47 0 73.5 29.5t26.5 84.5v381h-242v101h361v-485zM180 902h116l107 -138h-112l-87 98h68l-87 -98h-112z" />
    <glyph glyph-name="jcircumflex" unicode="&#x135;" horiz-adv-x="275" 
d="M-35 -97q12 -4 23.5 -6.5t23.5 -3.5q72 -2 72 98v540h115v-556q0 -83 -43 -128.5t-120 -44.5q-54 2 -96 19zM83 753h116l107 -138h-112l-87 98h68l-87 -98h-112z" />
    <glyph glyph-name="uni0136" unicode="&#x136;" horiz-adv-x="718" 
d="M92 700h118v-376l334 376h139l-473 -519v-181h-118v700zM399 417l302 -417h-142l-238 323zM301 -58h106l-58 -161h-82z" />
    <glyph glyph-name="uni0137" unicode="&#x137;" horiz-adv-x="595" 
d="M90 742h115v-742h-115v742zM440 531h132l-376 -390v137zM364 342l223 -342h-136l-172 273zM269 -58h106l-58 -161h-82z" />
    <glyph glyph-name="kgreenlandic" unicode="&#x138;" horiz-adv-x="590" 
d="M85 531h114v-531h-114v531zM435 531h132l-376 -390v137zM359 342l223 -342h-136l-172 273z" />
    <glyph glyph-name="Lacute" unicode="&#x139;" horiz-adv-x="534" 
d="M92 700h118v-599h303v-101h-421v700zM193 904l118 -49l-122 -96l-95 10z" />
    <glyph glyph-name="lacute" unicode="&#x13a;" horiz-adv-x="295" 
d="M90 742h115v-742h-115v742zM188 966l118 -49l-122 -96l-95 10z" />
    <glyph glyph-name="uni013B" unicode="&#x13b;" horiz-adv-x="534" 
d="M92 700h118v-599h303v-101h-421v700zM251 -58h106l-58 -161h-82z" />
    <glyph glyph-name="uni013C" unicode="&#x13c;" horiz-adv-x="295" 
d="M90 742h115v-742h-115v742zM96 -58h106l-58 -161h-82z" />
    <glyph glyph-name="Lcaron" unicode="&#x13d;" horiz-adv-x="534" 
d="M92 700h118v-599h303v-101h-421v700zM405 700h108l-30 -200h-78v200z" />
    <glyph glyph-name="lcaron" unicode="&#x13e;" horiz-adv-x="368" 
d="M90 742h115v-742h-115v742zM280 742h108l-30 -200h-78v200z" />
    <glyph glyph-name="Ldot" unicode="&#x13f;" horiz-adv-x="534" 
d="M92 700h118v-599h303v-101h-421v700zM417 467q29 0 48 -19t19 -48q0 -28 -19 -47.5t-48 -19.5q-28 0 -47.5 19.5t-19.5 47.5q0 29 19.5 48t47.5 19z" />
    <glyph glyph-name="ldot" unicode="&#x140;" horiz-adv-x="409" 
d="M90 742h115v-742h-115v742zM341 465q29 0 48 -19t19 -48q0 -28 -19 -47.5t-48 -19.5q-28 0 -47.5 19.5t-19.5 47.5q0 29 19.5 48t47.5 19z" />
    <glyph glyph-name="Lslash" unicode="&#x141;" horiz-adv-x="566" 
d="M23 337l336 177v-67l-336 -177v67zM124 700h118v-600h303v-100h-421v700z" />
    <glyph glyph-name="lslash" unicode="&#x142;" horiz-adv-x="388" 
d="M31 333l336 176v-76l-336 -177v77zM142 742h115v-742h-115v742z" />
    <glyph glyph-name="Nacute" unicode="&#x143;" horiz-adv-x="792" 
d="M92 700h116l405 -555l-30 -10v565h116v-700h-116l-404 554l31 10v-564h-118v700zM446 904l118 -49l-122 -96l-95 10z" />
    <glyph glyph-name="nacute" unicode="&#x144;" horiz-adv-x="663" 
d="M479 300q0 62 -34 97.5t-94 35.5q-71 -1 -111.5 -50t-40.5 -122h-32q0 99 28 159t79.5 87.5t121.5 27.5q62 0 106.5 -25t68 -70.5t23.5 -109.5v-330h-115v300zM85 531h115v-531h-115v531zM386 755l118 -49l-122 -96l-95 10z" />
    <glyph glyph-name="uni0145" unicode="&#x145;" horiz-adv-x="792" 
d="M92 700h116l405 -555l-30 -10v565h116v-700h-116l-404 554l31 10v-564h-118v700zM344 -58h106l-58 -161h-82z" />
    <glyph glyph-name="uni0146" unicode="&#x146;" horiz-adv-x="663" 
d="M479 300q0 62 -34 97.5t-94 35.5q-71 -1 -111.5 -50t-40.5 -122h-32q0 99 28 159t79.5 87.5t121.5 27.5q62 0 106.5 -25t68 -70.5t23.5 -109.5v-330h-115v300zM85 531h115v-531h-115v531zM284 -58h106l-58 -161h-82z" />
    <glyph glyph-name="Ncaron" unicode="&#x147;" horiz-adv-x="792" 
d="M92 700h116l405 -555l-30 -10v565h116v-700h-116l-404 554l31 10v-564h-118v700zM434 764h-116l-107 138h112l87 -98h-68l87 98h112z" />
    <glyph glyph-name="ncaron" unicode="&#x148;" horiz-adv-x="663" 
d="M479 300q0 62 -34 97.5t-94 35.5q-71 -1 -111.5 -50t-40.5 -122h-32q0 99 28 159t79.5 87.5t121.5 27.5q62 0 106.5 -25t68 -70.5t23.5 -109.5v-330h-115v300zM85 531h115v-531h-115v531zM404 615h-116l-107 138h112l87 -98h-68l87 98h112z" />
    <glyph glyph-name="napostrophe" unicode="&#x149;" horiz-adv-x="782" 
d="M35 700h88l-15 -260h-73v260zM598 300q0 62 -34 97.5t-94 35.5q-71 -1 -111.5 -50t-40.5 -122h-32q0 99 28 159t79.5 87.5t121.5 27.5q62 0 106.5 -25t68 -70.5t23.5 -109.5v-330h-115v300zM204 531h115v-531h-115v531z" />
    <glyph glyph-name="Eng" unicode="&#x14a;" horiz-adv-x="792" 
d="M699 1q0 -93 -59 -148.5t-159 -55.5q-60 0 -109.5 21t-86.5 59l56 86q33 -28 70 -42.5t68 -14.5q46 0 73.5 29.5t27.5 84.5zM92 700h116l375 -513v513h116v-700h-116l-373 512v-512h-118v700z" />
    <glyph glyph-name="eng" unicode="&#x14b;" horiz-adv-x="663" 
d="M479 300q0 62 -34 97.5t-94 35.5q-71 -1 -111.5 -50t-40.5 -122h-32q0 99 28 159t79.5 87.5t121.5 27.5q62 0 106.5 -25t68 -70.5t23.5 -109.5v-345q0 -63 -25.5 -104t-65 -60.5t-82.5 -19.5q-62 0 -111 36l38 85q33 -25 68 -25q26 0 44.5 17.5t18.5 56.5v329zM85 531
h115v-531h-115v531z" />
    <glyph glyph-name="Omacron" unicode="&#x14c;" horiz-adv-x="810" 
d="M405 707q78 0 145.5 -27t118 -76t79 -113.5t28.5 -139.5t-28.5 -140.5t-79 -114.5t-118 -76.5t-145.5 -27.5t-145.5 27.5t-118 76.5t-79 114.5t-28.5 140.5t28.5 140t79 113.5t118 75.5t145.5 27zM406 607q-52 0 -97.5 -19.5t-80.5 -54.5t-54.5 -81.5t-19.5 -100.5
t20 -101t55 -82.5t80.5 -55.5t96.5 -20t96.5 20t79.5 55.5t53.5 82.5t19.5 101t-19.5 100.5t-53.5 81.5t-79.5 54.5t-96.5 19.5zM252 839h306v-70h-306v70z" />
    <glyph glyph-name="omacron" unicode="&#x14d;" horiz-adv-x="625" 
d="M313 535q82 0 144.5 -34t97.5 -94.5t35 -140.5t-35 -141t-97.5 -95t-144.5 -34t-145 34t-98 95t-35 141t35 140.5t98 94.5t145 34zM313 442q-48 0 -85 -22.5t-57.5 -62.5t-20.5 -92q0 -53 20.5 -93t57.5 -62.5t85 -22.5t84.5 22.5t57 62.5t20.5 93q0 52 -20.5 92
t-57 62.5t-84.5 22.5zM165 716h295v-70h-295v70z" />
    <glyph glyph-name="Obreve" unicode="&#x14e;" horiz-adv-x="810" 
d="M405 707q78 0 145.5 -27t118 -76t79 -113.5t28.5 -139.5t-28.5 -140.5t-79 -114.5t-118 -76.5t-145.5 -27.5t-145.5 27.5t-118 76.5t-79 114.5t-28.5 140.5t28.5 140t79 113.5t118 75.5t145.5 27zM406 607q-52 0 -97.5 -19.5t-80.5 -54.5t-54.5 -81.5t-19.5 -100.5
t20 -101t55 -82.5t80.5 -55.5t96.5 -20t96.5 20t79.5 55.5t53.5 82.5t19.5 101t-19.5 100.5t-53.5 81.5t-79.5 54.5t-96.5 19.5zM342 899q2 -29 19.5 -48t43.5 -19t44 19t19 48h78q-2 -63 -41.5 -101.5t-99.5 -38.5t-99.5 38.5t-41.5 101.5h78z" />
    <glyph glyph-name="obreve" unicode="&#x14f;" horiz-adv-x="625" 
d="M313 535q82 0 144.5 -34t97.5 -94.5t35 -140.5t-35 -141t-97.5 -95t-144.5 -34t-145 34t-98 95t-35 141t35 140.5t98 94.5t145 34zM313 442q-48 0 -85 -22.5t-57.5 -62.5t-20.5 -92q0 -53 20.5 -93t57.5 -62.5t85 -22.5t84.5 22.5t57 62.5t20.5 93q0 52 -20.5 92
t-57 62.5t-84.5 22.5zM250 748q2 -29 19.5 -48t43.5 -19t44 19t19 48h78q-2 -63 -41.5 -101.5t-99.5 -38.5t-99.5 38.5t-41.5 101.5h78z" />
    <glyph glyph-name="Ohungarumlaut" unicode="&#x150;" horiz-adv-x="810" 
d="M405 707q78 0 145.5 -27t118 -76t79 -113.5t28.5 -139.5t-28.5 -140.5t-79 -114.5t-118 -76.5t-145.5 -27.5t-145.5 27.5t-118 76.5t-79 114.5t-28.5 140.5t28.5 140t79 113.5t118 75.5t145.5 27zM406 607q-52 0 -97.5 -19.5t-80.5 -54.5t-54.5 -81.5t-19.5 -100.5
t20 -101t55 -82.5t80.5 -55.5t96.5 -20t96.5 20t79.5 55.5t53.5 82.5t19.5 101t-19.5 100.5t-53.5 81.5t-79.5 54.5t-96.5 19.5zM337 911l98 -44l-92 -108l-84 9zM502 911l98 -44l-92 -108l-84 9z" />
    <glyph glyph-name="ohungarumlaut" unicode="&#x151;" horiz-adv-x="625" 
d="M313 535q82 0 144.5 -34t97.5 -94.5t35 -140.5t-35 -141t-97.5 -95t-144.5 -34t-145 34t-98 95t-35 141t35 140.5t98 94.5t145 34zM313 442q-48 0 -85 -22.5t-57.5 -62.5t-20.5 -92q0 -53 20.5 -93t57.5 -62.5t85 -22.5t84.5 22.5t57 62.5t20.5 93q0 52 -20.5 92
t-57 62.5t-84.5 22.5zM245 762l98 -44l-92 -108l-84 9zM410 762l98 -44l-92 -108l-84 9z" />
    <glyph glyph-name="OE" unicode="&#x152;" horiz-adv-x="1097" 
d="M405 599q-53 0 -98.5 -19t-80 -53t-53.5 -79.5t-19 -98.5t19 -98.5t53.5 -79t80 -52.5t98.5 -19h164l-1 -100h-164q-78 0 -145.5 26.5t-117.5 74t-78.5 111.5t-28.5 138t28 137.5t78.5 111t118 74.5t145.5 27h157l-1 -101h-155zM533 700h500v-101h-382v-197h342v-100
h-342v-201h394v-101h-512v700z" />
    <glyph glyph-name="oe" unicode="&#x153;" horiz-adv-x="1041" 
d="M892 301q-2 45 -21 79.5t-52 54.5t-76 20q-48 0 -84 -24t-56.5 -65.5t-20.5 -94.5q0 -57 22 -99t60.5 -65t89.5 -23q89 0 151 63l61 -61q-39 -43 -95.5 -66.5t-126.5 -23.5q-78 0 -134 34t-86 94.5t-30 140.5t30.5 140.5t86 95t131.5 34.5q83 0 143.5 -37t92 -103
t29.5 -153h-442v59h327zM313 535q78 0 135 -34t88 -94.5t31 -140.5t-31 -141t-88 -95t-135 -34q-82 0 -145 34t-98 95t-35 141t35 140.5t98 94.5t145 34zM313 442q-48 0 -84.5 -22.5t-57.5 -62.5t-21 -92q0 -53 21 -93t57.5 -62.5t84.5 -22.5q47 0 83.5 22.5t57.5 62.5
t21 93q0 52 -21 92t-57.5 62.5t-83.5 22.5z" />
    <glyph glyph-name="Racute" unicode="&#x154;" horiz-adv-x="723" 
d="M376 700q135 0 208.5 -62.5t73.5 -175.5q0 -118 -73.5 -183.5t-208.5 -65.5h-166v-213h-118v700h284zM376 314q81 0 125.5 35.5t44.5 109.5q0 71 -44.5 105.5t-125.5 34.5h-166v-285h166zM380 259h116l174 -259h-134zM385 904l118 -49l-122 -96l-95 10z" />
    <glyph glyph-name="racute" unicode="&#x155;" horiz-adv-x="394" 
d="M384 431q-57 3 -98.5 -19.5t-64 -62.5t-22.5 -92l-32 4q0 89 26 150t75 92.5t116 31.5v-104zM85 531h115v-531h-115v531zM279 755l118 -49l-122 -96l-95 10z" />
    <glyph glyph-name="uni0156" unicode="&#x156;" horiz-adv-x="723" 
d="M376 700q135 0 208.5 -62.5t73.5 -175.5q0 -118 -73.5 -183.5t-208.5 -65.5h-166v-213h-118v700h284zM376 314q81 0 125.5 35.5t44.5 109.5q0 71 -44.5 105.5t-125.5 34.5h-166v-285h166zM380 259h116l174 -259h-134zM308 -58h106l-58 -161h-82z" />
    <glyph glyph-name="uni0157" unicode="&#x157;" horiz-adv-x="394" 
d="M384 431q-57 3 -98.5 -19.5t-64 -62.5t-22.5 -92l-32 4q0 89 26 150t75 92.5t116 31.5v-104zM85 531h115v-531h-115v531zM88 -58h106l-58 -161h-82z" />
    <glyph glyph-name="Rcaron" unicode="&#x158;" horiz-adv-x="723" 
d="M376 700q135 0 208.5 -62.5t73.5 -175.5q0 -118 -73.5 -183.5t-208.5 -65.5h-166v-213h-118v700h284zM376 314q81 0 125.5 35.5t44.5 109.5q0 71 -44.5 105.5t-125.5 34.5h-166v-285h166zM380 259h116l174 -259h-134zM373 764h-116l-107 138h112l87 -98h-68l87 98h112z
" />
    <glyph glyph-name="rcaron" unicode="&#x159;" horiz-adv-x="394" 
d="M384 431q-57 3 -98.5 -19.5t-64 -62.5t-22.5 -92l-32 4q0 89 26 150t75 92.5t116 31.5v-104zM85 531h115v-531h-115v531zM297 615h-116l-107 138h112l87 -98h-68l87 98h112z" />
    <glyph glyph-name="Sacute" unicode="&#x15a;" horiz-adv-x="622" 
d="M518 538q-38 24 -75 38t-70 20t-60 6q-52 0 -83 -20t-31 -58q0 -34 20.5 -55.5t54 -35t74 -25.5t80.5 -26.5t74 -37.5t54 -58.5t20 -89.5q0 -62 -34 -107.5t-93.5 -70.5t-136.5 -25q-55 0 -107 14.5t-97.5 39.5t-81.5 58l51 97q36 -33 76.5 -56t82 -35t78.5 -12
q62 0 96.5 24t34.5 67q0 35 -20.5 56.5t-54 35.5t-74 25t-81 25.5t-74 36.5t-54 57t-20.5 89q0 59 32 102.5t89.5 67.5t133.5 24q68 0 132 -20t113 -52zM359 904l118 -49l-122 -96l-95 10z" />
    <glyph glyph-name="sacute" unicode="&#x15b;" horiz-adv-x="470" 
d="M388 402q-35 21 -76.5 33.5t-76.5 12.5q-34 0 -56 -13t-22 -43q0 -25 20.5 -39.5t52.5 -24.5t68 -21t68.5 -28.5t52.5 -47.5t20 -79q0 -54 -28.5 -88.5t-75 -51t-100.5 -16.5q-58 0 -116 19t-98 55l41 78q35 -31 85 -48.5t93 -17.5q25 0 44.5 6.5t31 19.5t11.5 34
q0 28 -20 44t-52 26.5t-68 21t-67.5 27.5t-51.5 46t-20 77q0 54 28 87.5t72.5 49t95.5 15.5q50 0 100 -14t86 -39zM281 755l118 -49l-122 -96l-95 10z" />
    <glyph glyph-name="Scircumflex" unicode="&#x15c;" horiz-adv-x="622" 
d="M518 538q-38 24 -75 38t-70 20t-60 6q-52 0 -83 -20t-31 -58q0 -34 20.5 -55.5t54 -35t74 -25.5t80.5 -26.5t74 -37.5t54 -58.5t20 -89.5q0 -62 -34 -107.5t-93.5 -70.5t-136.5 -25q-55 0 -107 14.5t-97.5 39.5t-81.5 58l51 97q36 -33 76.5 -56t82 -35t78.5 -12
q62 0 96.5 24t34.5 67q0 35 -20.5 56.5t-54 35.5t-74 25t-81 25.5t-74 36.5t-54 57t-20.5 89q0 59 32 102.5t89.5 67.5t133.5 24q68 0 132 -20t113 -52zM261 902h116l107 -138h-112l-87 98h68l-87 -98h-112z" />
    <glyph glyph-name="scircumflex" unicode="&#x15d;" horiz-adv-x="470" 
d="M388 402q-35 21 -76.5 33.5t-76.5 12.5q-34 0 -56 -13t-22 -43q0 -25 20.5 -39.5t52.5 -24.5t68 -21t68.5 -28.5t52.5 -47.5t20 -79q0 -54 -28.5 -88.5t-75 -51t-100.5 -16.5q-58 0 -116 19t-98 55l41 78q35 -31 85 -48.5t93 -17.5q25 0 44.5 6.5t31 19.5t11.5 34
q0 28 -20 44t-52 26.5t-68 21t-67.5 27.5t-51.5 46t-20 77q0 54 28 87.5t72.5 49t95.5 15.5q50 0 100 -14t86 -39zM183 753h116l107 -138h-112l-87 98h68l-87 -98h-112z" />
    <glyph glyph-name="Scedilla" unicode="&#x15e;" horiz-adv-x="622" 
d="M518 538q-38 24 -75 38t-70 20t-60 6q-52 0 -83 -20t-31 -58q0 -34 20.5 -55.5t54 -35t74 -25.5t80.5 -26.5t74 -37.5t54 -58.5t20 -89.5q0 -62 -34 -107.5t-93.5 -70.5t-136.5 -25q-55 0 -107 14.5t-97.5 39.5t-81.5 58l51 97q36 -33 76.5 -56t82 -35t78.5 -12
q62 0 96.5 24t34.5 67q0 35 -20.5 56.5t-54 35.5t-74 25t-81 25.5t-74 36.5t-54 57t-20.5 89q0 59 32 102.5t89.5 67.5t133.5 24q68 0 132 -20t113 -52zM292 8l75 -8l-19 -51q44 -7 62.5 -29.5t18.5 -49.5q0 -29 -15.5 -48.5t-41.5 -29.5t-59 -10q-25 0 -50.5 6t-46.5 15
l24 65q13 -5 29 -8.5t30 -3.5q20 0 30.5 8t10.5 17q0 11 -12 18t-37 7h-17h-15z" />
    <glyph glyph-name="scedilla" unicode="&#x15f;" horiz-adv-x="470" 
d="M388 402q-35 21 -76.5 33.5t-76.5 12.5q-34 0 -56 -13t-22 -43q0 -25 20.5 -39.5t52.5 -24.5t68 -21t68.5 -28.5t52.5 -47.5t20 -79q0 -54 -28.5 -88.5t-75 -51t-100.5 -16.5q-58 0 -116 19t-98 55l41 78q35 -31 85 -48.5t93 -17.5q25 0 44.5 6.5t31 19.5t11.5 34
q0 28 -20 44t-52 26.5t-68 21t-67.5 27.5t-51.5 46t-20 77q0 54 28 87.5t72.5 49t95.5 15.5q50 0 100 -14t86 -39zM210 8l75 -8l-19 -51q44 -7 62.5 -29.5t18.5 -49.5q0 -29 -15.5 -48.5t-41.5 -29.5t-59 -10q-25 0 -50.5 6t-46.5 15l24 65q13 -5 29 -8.5t30 -3.5
q20 0 30.5 8t10.5 17q0 11 -12 18t-37 7h-17h-15z" />
    <glyph glyph-name="Scaron" unicode="&#x160;" horiz-adv-x="622" 
d="M518 538q-38 24 -75 38t-70 20t-60 6q-52 0 -83 -20t-31 -58q0 -34 20.5 -55.5t54 -35t74 -25.5t80.5 -26.5t74 -37.5t54 -58.5t20 -89.5q0 -62 -34 -107.5t-93.5 -70.5t-136.5 -25q-55 0 -107 14.5t-97.5 39.5t-81.5 58l51 97q36 -33 76.5 -56t82 -35t78.5 -12
q62 0 96.5 24t34.5 67q0 35 -20.5 56.5t-54 35.5t-74 25t-81 25.5t-74 36.5t-54 57t-20.5 89q0 59 32 102.5t89.5 67.5t133.5 24q68 0 132 -20t113 -52zM347 764h-116l-107 138h112l87 -98h-68l87 98h112z" />
    <glyph glyph-name="scaron" unicode="&#x161;" horiz-adv-x="470" 
d="M388 402q-35 21 -76.5 33.5t-76.5 12.5q-34 0 -56 -13t-22 -43q0 -25 20.5 -39.5t52.5 -24.5t68 -21t68.5 -28.5t52.5 -47.5t20 -79q0 -54 -28.5 -88.5t-75 -51t-100.5 -16.5q-58 0 -116 19t-98 55l41 78q35 -31 85 -48.5t93 -17.5q25 0 44.5 6.5t31 19.5t11.5 34
q0 28 -20 44t-52 26.5t-68 21t-67.5 27.5t-51.5 46t-20 77q0 54 28 87.5t72.5 49t95.5 15.5q50 0 100 -14t86 -39zM299 615h-116l-107 138h112l87 -98h-68l87 98h112z" />
    <glyph glyph-name="uni0162" unicode="&#x162;" horiz-adv-x="579" 
d="M9 700h561v-101h-222v-599h-118v599h-221v101zM265 8l75 -8l-19 -51q44 -7 62.5 -29.5t18.5 -49.5q0 -29 -15.5 -48.5t-41.5 -29.5t-59 -10q-25 0 -50.5 6t-46.5 15l24 65q13 -5 29 -8.5t30 -3.5q20 0 30.5 8t10.5 17q0 11 -12 18t-37 7h-17h-15z" />
    <glyph glyph-name="uni0163" unicode="&#x163;" horiz-adv-x="407" 
d="M220 168q0 -43 15 -58.5t42 -15.5q18 0 37.5 6t42.5 18l29 -83q-31 -19 -64 -29.5t-67 -10.5q-40 0 -74 15.5t-54.5 49.5t-20.5 88v509h114v-489zM31 512h346v-82h-346v82zM231 8l75 -8l-19 -51q44 -7 62.5 -29.5t18.5 -49.5q0 -29 -15.5 -48.5t-41.5 -29.5t-59 -10
q-25 0 -50.5 6t-46.5 15l24 65q13 -5 29 -8.5t30 -3.5q20 0 30.5 8t10.5 17q0 11 -12 18t-37 7h-17h-15z" />
    <glyph glyph-name="Tcaron" unicode="&#x164;" horiz-adv-x="579" 
d="M9 700h561v-101h-222v-599h-118v599h-221v101zM325 764h-116l-107 138h112l87 -98h-68l87 98h112z" />
    <glyph glyph-name="tcaron" unicode="&#x165;" horiz-adv-x="407" 
d="M220 168q0 -43 15 -58.5t42 -15.5q18 0 37.5 6t42.5 18l29 -83q-31 -19 -64 -29.5t-67 -10.5q-40 0 -74 15.5t-54.5 49.5t-20.5 88v509h114v-489zM31 512h346v-82h-346v82zM282 742h108l-30 -167h-78v167z" />
    <glyph glyph-name="Tbar" unicode="&#x166;" horiz-adv-x="579" 
d="M9 700h561v-101h-222v-599h-118v599h-221v101zM80 363h416v-66h-416v66z" />
    <glyph glyph-name="tbar" unicode="&#x167;" horiz-adv-x="407" 
d="M106 657h114v-489q0 -43 15 -58.5t42 -15.5q18 0 37.5 6t42.5 18l29 -83q-31 -19 -64 -29.5t-67 -10.5q-40 0 -74 15.5t-54.5 49.5t-20.5 88v509zM31 512h346v-82h-346v82zM31 332h346v-82h-346v82z" />
    <glyph glyph-name="Utilde" unicode="&#x168;" horiz-adv-x="759" 
d="M196 287q0 -91 50 -143t135 -52q84 0 133 51.5t49 143.5v413h118v-413q0 -91 -36 -157.5t-103.5 -102t-160.5 -35.5q-94 0 -162 35.5t-104.5 102t-36.5 157.5v413h118v-413zM541 889q0 -33 -7.5 -63t-25.5 -48.5t-51 -18.5q-21 0 -40.5 7.5t-36.5 17.5t-31 17.5t-25 7.5
q-17 0 -22 -13.5t-5 -32.5h-78q0 34 7.5 63.5t26 48t50.5 18.5q21 0 40.5 -7.5t36.5 -17.5t31 -17.5t25 -7.5q17 0 22 13.5t5 32.5h78z" />
    <glyph glyph-name="utilde" unicode="&#x169;" horiz-adv-x="653" 
d="M183 231q0 -62 33 -97.5t91 -35.5q69 2 107.5 51t38.5 121h31q0 -98 -27 -158t-76.5 -87.5t-117.5 -28.5q-61 0 -104.5 25t-67 71t-23.5 109v330h115v-300zM453 531h115v-531h-115v531zM488 734q0 -33 -7.5 -63t-25.5 -48.5t-51 -18.5q-21 0 -40.5 7.5t-36.5 17.5
t-31 17.5t-25 7.5q-17 0 -22 -13.5t-5 -32.5h-78q0 34 7.5 63.5t26 48t50.5 18.5q21 0 40.5 -7.5t36.5 -17.5t31 -17.5t25 -7.5q17 0 22 13.5t5 32.5h78z" />
    <glyph glyph-name="Umacron" unicode="&#x16a;" horiz-adv-x="759" 
d="M196 287q0 -91 50 -143t135 -52q84 0 133 51.5t49 143.5v413h118v-413q0 -91 -36 -157.5t-103.5 -102t-160.5 -35.5q-94 0 -162 35.5t-104.5 102t-36.5 157.5v413h118v-413zM227 839h306v-70h-306v70z" />
    </font>
</defs>
</svg>
