<?xml version="1.0" standalone="no"?>
<!DOCTYPE svg PUBLIC "-//W3C//DTD SVG 1.1//EN" "http://www.w3.org/Graphics/SVG/1.1/DTD/svg11.dtd" >
<svg xmlns="http://www.w3.org/2000/svg" xmlns:xlink="http://www.w3.org/1999/xlink" version="1.1">
<metadata>
Created by FontForge 20201107 at Thu Nov  3 19:09:09 2022
 By 
Copyright 2022 The Alexandria Project Authors (https://github.com/Gue3bara/Alexandria)
</metadata>
<defs>
<font id="Alexandria-Black" horiz-adv-x="0" >
  <font-face 
    font-family="Alexandria Black"
    font-weight="900"
    font-stretch="normal"
    units-per-em="1000"
    panose-1="0 0 0 0 0 0 0 0 0 0"
    ascent="800"
    descent="-200"
    x-height="547"
    cap-height="701"
    bbox="-243 -600 1824 1338"
    underline-thickness="50"
    underline-position="-125"
    unicode-range="U+000D-FEFC"
  />
<missing-glyph horiz-adv-x="587" 
d="M40 0v700h507v-700h-507zM120 70h347v560h-347v-560z" />
    <glyph glyph-name="fi" unicode="fi" horiz-adv-x="761" 
d="M95 566q0 57 28 99t79 65t120 22q32 0 65 -5t62 -14l-22 -166q-16 5 -30 8t-26 3q-16 1 -27.5 -4.5t-18 -16t-6.5 -25.5v-532h-224v566zM20 517h405v-142h-405v142zM481 547h225v-547h-225v547zM594 817q50 0 82 -32t32 -82t-32 -82t-82 -32t-82 32t-32 82t32 82t82 32z
" />
    <glyph glyph-name="fl" unicode="fl" horiz-adv-x="801" 
d="M95 566q0 57 28 99t79 65t120 22q32 0 65 -5t62 -14l-22 -166q-16 5 -30 8t-26 3q-16 1 -27.5 -4.5t-18 -16t-6.5 -25.5v-532h-224v566zM20 517h405v-142h-405v142zM516 742h225v-742h-225v742z" />
    <glyph glyph-name="uniFC64" unicode="&#xfe8c;&#xfeae;" horiz-adv-x="875" arabic-form="final" 
d="M875 0v225q8 0 14 -30.5t6 -80.5q0 -52 -6 -83t-14 -31zM842 0q-88 0 -152 37.5t-99 107t-35 164.5v228h193v-228q0 -32 8 -50.5t28 -26t57 -7.5h33v-225h-33zM431 210q-79 0 -154 11t-145 32v233q62 -25 139.5 -38t159.5 -13q83 0 158.5 13.5t139.5 39.5v-235
q-70 -21 -144.5 -32t-153.5 -11zM0 -82q53 3 81.5 13t39.5 27t11 41v538h193v-538q0 -85 -35.5 -149t-100 -101.5t-153.5 -43.5zM701 662q-81 0 -131.5 31.5t-50.5 90.5q0 42 24 73t63.5 47.5t84.5 16.5q28 0 54.5 -6t49.5 -19l-39 -86q-13 2 -28 4t-28 2q-41 0 -65.5 -12
t-24.5 -27q0 -14 24.5 -26.5t66.5 -12.5v-76zM492 632v106h320v-106h-320z" />
    <glyph glyph-name="uniFC65" unicode="&#xfe8c;&#xfeb0;" horiz-adv-x="875" arabic-form="final" 
d="M875 0v225q8 0 14 -30.5t6 -80.5q0 -52 -6 -83t-14 -31zM842 0q-88 0 -152 37.5t-99 107t-35 164.5v228h193v-228q0 -32 8 -50.5t28 -26t57 -7.5h33v-225h-33zM431 210q-79 0 -154 11t-145 32v233q62 -25 139.5 -38t159.5 -13q83 0 158.5 13.5t139.5 39.5v-235
q-70 -21 -144.5 -32t-153.5 -11zM0 -82q53 3 81.5 13t39.5 27t11 41v538h193v-538q0 -85 -35.5 -149t-100 -101.5t-153.5 -43.5zM701 662q-81 0 -131.5 31.5t-50.5 90.5q0 42 24 73t63.5 47.5t84.5 16.5q28 0 54.5 -6t49.5 -19l-39 -86q-13 2 -28 4t-28 2q-41 0 -65.5 -12
t-24.5 -27q0 -14 24.5 -26.5t66.5 -12.5v-76zM492 632v106h320v-106h-320zM229 642q-46 0 -75 28.5t-29 74.5t29 75t75 29t75 -29t29 -75t-29 -74.5t-75 -28.5z" />
    <glyph glyph-name="uniFC67" unicode="&#xfe8c;&#xfee6;" horiz-adv-x="1413" arabic-form="final" 
d="M1413 0v225q8 0 14 -30.5t6 -80.5q0 -52 -6 -83t-14 -31zM1380 0q-88 0 -152 37.5t-99 107t-35 164.5v228h193v-228q0 -32 8 -50.5t28 -26t57 -7.5h33v-225h-33zM969 210q-79 0 -154 11t-145 32v233q62 -25 139.5 -38t159.5 -13q83 0 158.5 13.5t139.5 39.5v-235
q-70 -21 -144.5 -32t-153.5 -11zM441 -290q-102 0 -177.5 35.5t-125 98.5t-74 146.5t-24.5 180.5q0 34 3.5 68t9.5 68l187 -35q-4 -25 -5.5 -50t-1.5 -51q0 -77 20.5 -130t66.5 -79.5t121 -26.5t126 26.5t77 80t26 133.5v362h193v-362q0 -99 -27.5 -183.5t-81.5 -147.5
t-132.5 -98.5t-180.5 -35.5zM452 543q-46 0 -75 28.5t-29 74.5t29 75t75 29t75 -29t29 -75t-29 -74.5t-75 -28.5zM1240 662q-81 0 -131.5 31.5t-50.5 90.5q0 42 24 73t63.5 47.5t84.5 16.5q28 0 54.5 -6t49.5 -19l-39 -86q-13 2 -28 4t-28 2q-41 0 -65.5 -12t-24.5 -27
q0 -14 24.5 -26.5t66.5 -12.5v-76zM1031 632v106h320v-106h-320z" />
    <glyph glyph-name="uniFC6A" unicode="&#xfe92;&#xfeae;" horiz-adv-x="875" arabic-form="final" 
d="M875 0v225q8 0 14 -30.5t6 -80.5q0 -52 -6 -83t-14 -31zM842 0q-88 0 -152 37.5t-99 107t-35 164.5v228h193v-228q0 -32 8 -50.5t28 -26t57 -7.5h33v-225h-33zM431 210q-79 0 -154 11t-145 32v233q62 -25 139.5 -38t159.5 -13q83 0 158.5 13.5t139.5 39.5v-235
q-70 -21 -144.5 -32t-153.5 -11zM0 -82q53 3 81.5 13t39.5 27t11 41v538h193v-538q0 -85 -35.5 -149t-100 -101.5t-153.5 -43.5zM652 -311q-46 0 -75 28.5t-29 74.5t29 75t75 29t75 -29t29 -75t-29 -74.5t-75 -28.5z" />
    <glyph glyph-name="uniFC6B" unicode="&#xfe92;&#xfeb0;" horiz-adv-x="875" arabic-form="final" 
d="M875 0v225q8 0 14 -30.5t6 -80.5q0 -52 -6 -83t-14 -31zM842 0q-88 0 -152 37.5t-99 107t-35 164.5v228h193v-228q0 -32 8 -50.5t28 -26t57 -7.5h33v-225h-33zM431 210q-79 0 -154 11t-145 32v233q62 -25 139.5 -38t159.5 -13q83 0 158.5 13.5t139.5 39.5v-235
q-70 -21 -144.5 -32t-153.5 -11zM0 -82q53 3 81.5 13t39.5 27t11 41v538h193v-538q0 -85 -35.5 -149t-100 -101.5t-153.5 -43.5zM652 -311q-46 0 -75 28.5t-29 74.5t29 75t75 29t75 -29t29 -75t-29 -74.5t-75 -28.5zM229 642q-46 0 -75 28.5t-29 74.5t29 75t75 29t75 -29
t29 -75t-29 -74.5t-75 -28.5z" />
    <glyph glyph-name="uniFC6D" unicode="&#xfe92;&#xfee6;" horiz-adv-x="1413" arabic-form="final" 
d="M1413 0v225q8 0 14 -30.5t6 -80.5q0 -52 -6 -83t-14 -31zM1380 0q-88 0 -152 37.5t-99 107t-35 164.5v228h193v-228q0 -32 8 -50.5t28 -26t57 -7.5h33v-225h-33zM969 210q-79 0 -154 11t-145 32v233q62 -25 139.5 -38t159.5 -13q83 0 158.5 13.5t139.5 39.5v-235
q-70 -21 -144.5 -32t-153.5 -11zM441 -290q-102 0 -177.5 35.5t-125 98.5t-74 146.5t-24.5 180.5q0 34 3.5 68t9.5 68l187 -35q-4 -25 -5.5 -50t-1.5 -51q0 -77 20.5 -130t66.5 -79.5t121 -26.5t126 26.5t77 80t26 133.5v362h193v-362q0 -99 -27.5 -183.5t-81.5 -147.5
t-132.5 -98.5t-180.5 -35.5zM452 543q-46 0 -75 28.5t-29 74.5t29 75t75 29t75 -29t29 -75t-29 -74.5t-75 -28.5zM1191 -311q-46 0 -75 28.5t-29 74.5t29 75t75 29t75 -29t29 -75t-29 -74.5t-75 -28.5z" />
    <glyph glyph-name="uniFC70" unicode="&#xfe98;&#xfeae;" horiz-adv-x="875" arabic-form="final" 
d="M875 0v225q8 0 14 -30.5t6 -80.5q0 -52 -6 -83t-14 -31zM842 0q-88 0 -152 37.5t-99 107t-35 164.5v228h193v-228q0 -32 8 -50.5t28 -26t57 -7.5h33v-225h-33zM431 210q-79 0 -154 11t-145 32v233q62 -25 139.5 -38t159.5 -13q83 0 158.5 13.5t139.5 39.5v-235
q-70 -21 -144.5 -32t-153.5 -11zM0 -82q53 3 81.5 13t39.5 27t11 41v538h193v-538q0 -85 -35.5 -149t-100 -101.5t-153.5 -43.5zM744 619q-36 0 -58.5 22t-22.5 57q0 36 22.5 58.5t58.5 22.5q35 0 57.5 -22.5t22.5 -58.5q0 -35 -22.5 -57t-57.5 -22zM562 619q-36 0 -58.5 22
t-22.5 57q0 36 22.5 58.5t58.5 22.5q35 0 57.5 -22.5t22.5 -58.5q0 -35 -22.5 -57t-57.5 -22z" />
    <glyph glyph-name="uniFC71" unicode="&#xfe98;&#xfeb0;" horiz-adv-x="875" arabic-form="final" 
d="M875 0v225q8 0 14 -30.5t6 -80.5q0 -52 -6 -83t-14 -31zM842 0q-88 0 -152 37.5t-99 107t-35 164.5v228h193v-228q0 -32 8 -50.5t28 -26t57 -7.5h33v-225h-33zM431 210q-79 0 -154 11t-145 32v233q62 -25 139.5 -38t159.5 -13q83 0 158.5 13.5t139.5 39.5v-235
q-70 -21 -144.5 -32t-153.5 -11zM0 -82q53 3 81.5 13t39.5 27t11 41v538h193v-538q0 -85 -35.5 -149t-100 -101.5t-153.5 -43.5zM744 619q-36 0 -58.5 22t-22.5 57q0 36 22.5 58.5t58.5 22.5q35 0 57.5 -22.5t22.5 -58.5q0 -35 -22.5 -57t-57.5 -22zM562 619q-36 0 -58.5 22
t-22.5 57q0 36 22.5 58.5t58.5 22.5q35 0 57.5 -22.5t22.5 -58.5q0 -35 -22.5 -57t-57.5 -22zM229 642q-46 0 -75 28.5t-29 74.5t29 75t75 29t75 -29t29 -75t-29 -74.5t-75 -28.5z" />
    <glyph glyph-name="uniFC73" unicode="&#xfe98;&#xfee6;" horiz-adv-x="1413" arabic-form="final" 
d="M1413 0v225q8 0 14 -30.5t6 -80.5q0 -52 -6 -83t-14 -31zM1380 0q-88 0 -152 37.5t-99 107t-35 164.5v228h193v-228q0 -32 8 -50.5t28 -26t57 -7.5h33v-225h-33zM969 210q-79 0 -154 11t-145 32v233q62 -25 139.5 -38t159.5 -13q83 0 158.5 13.5t139.5 39.5v-235
q-70 -21 -144.5 -32t-153.5 -11zM441 -290q-102 0 -177.5 35.5t-125 98.5t-74 146.5t-24.5 180.5q0 34 3.5 68t9.5 68l187 -35q-4 -25 -5.5 -50t-1.5 -51q0 -77 20.5 -130t66.5 -79.5t121 -26.5t126 26.5t77 80t26 133.5v362h193v-362q0 -99 -27.5 -183.5t-81.5 -147.5
t-132.5 -98.5t-180.5 -35.5zM452 543q-46 0 -75 28.5t-29 74.5t29 75t75 29t75 -29t29 -75t-29 -74.5t-75 -28.5zM1283 619q-36 0 -58.5 22t-22.5 57q0 36 22.5 58.5t58.5 22.5q35 0 57.5 -22.5t22.5 -58.5q0 -35 -22.5 -57t-57.5 -22zM1101 619q-36 0 -58.5 22t-22.5 57
q0 36 22.5 58.5t58.5 22.5q35 0 57.5 -22.5t22.5 -58.5q0 -35 -22.5 -57t-57.5 -22z" />
    <glyph glyph-name="uniFC76" unicode="&#xfe9c;&#xfeae;" horiz-adv-x="875" arabic-form="final" 
d="M875 0v225q8 0 14 -30.5t6 -80.5q0 -52 -6 -83t-14 -31zM842 0q-88 0 -152 37.5t-99 107t-35 164.5v228h193v-228q0 -32 8 -50.5t28 -26t57 -7.5h33v-225h-33zM431 210q-79 0 -154 11t-145 32v233q62 -25 139.5 -38t159.5 -13q83 0 158.5 13.5t139.5 39.5v-235
q-70 -21 -144.5 -32t-153.5 -11zM0 -82q53 3 81.5 13t39.5 27t11 41v538h193v-538q0 -85 -35.5 -149t-100 -101.5t-153.5 -43.5zM652 941q34 0 55.5 -21.5t21.5 -54.5q0 -34 -21.5 -55.5t-55.5 -21.5t-55.5 21.5t-21.5 55.5q0 33 21.5 54.5t55.5 21.5zM743 780q35 0 58 -22
t23 -57t-23 -58t-58 -23t-57.5 23t-22.5 58t22.5 57t57.5 22zM561 780q35 0 58 -22t23 -57t-23 -58t-58 -23t-57.5 23t-22.5 58t22.5 57t57.5 22z" />
    <glyph glyph-name="uniFC77" unicode="&#xfe9c;&#xfeb0;" horiz-adv-x="875" arabic-form="final" 
d="M875 0v225q8 0 14 -30.5t6 -80.5q0 -52 -6 -83t-14 -31zM842 0q-88 0 -152 37.5t-99 107t-35 164.5v228h193v-228q0 -32 8 -50.5t28 -26t57 -7.5h33v-225h-33zM431 210q-79 0 -154 11t-145 32v233q62 -25 139.5 -38t159.5 -13q83 0 158.5 13.5t139.5 39.5v-235
q-70 -21 -144.5 -32t-153.5 -11zM0 -82q53 3 81.5 13t39.5 27t11 41v538h193v-538q0 -85 -35.5 -149t-100 -101.5t-153.5 -43.5zM652 941q34 0 55.5 -21.5t21.5 -54.5q0 -34 -21.5 -55.5t-55.5 -21.5t-55.5 21.5t-21.5 55.5q0 33 21.5 54.5t55.5 21.5zM743 780q35 0 58 -22
t23 -57t-23 -58t-58 -23t-57.5 23t-22.5 58t22.5 57t57.5 22zM561 780q35 0 58 -22t23 -57t-23 -58t-58 -23t-57.5 23t-22.5 58t22.5 57t57.5 22zM229 642q-46 0 -75 28.5t-29 74.5t29 75t75 29t75 -29t29 -75t-29 -74.5t-75 -28.5z" />
    <glyph glyph-name="uniFC79" unicode="&#xfe9c;&#xfee6;" horiz-adv-x="1413" arabic-form="final" 
d="M1413 0v225q8 0 14 -30.5t6 -80.5q0 -52 -6 -83t-14 -31zM1380 0q-88 0 -152 37.5t-99 107t-35 164.5v228h193v-228q0 -32 8 -50.5t28 -26t57 -7.5h33v-225h-33zM969 210q-79 0 -154 11t-145 32v233q62 -25 139.5 -38t159.5 -13q83 0 158.5 13.5t139.5 39.5v-235
q-70 -21 -144.5 -32t-153.5 -11zM441 -290q-102 0 -177.5 35.5t-125 98.5t-74 146.5t-24.5 180.5q0 34 3.5 68t9.5 68l187 -35q-4 -25 -5.5 -50t-1.5 -51q0 -77 20.5 -130t66.5 -79.5t121 -26.5t126 26.5t77 80t26 133.5v362h193v-362q0 -99 -27.5 -183.5t-81.5 -147.5
t-132.5 -98.5t-180.5 -35.5zM452 543q-46 0 -75 28.5t-29 74.5t29 75t75 29t75 -29t29 -75t-29 -74.5t-75 -28.5zM1191 941q34 0 55.5 -21.5t21.5 -54.5q0 -34 -21.5 -55.5t-55.5 -21.5t-55.5 21.5t-21.5 55.5q0 33 21.5 54.5t55.5 21.5zM1282 780q35 0 58 -22t23 -57
t-23 -58t-58 -23t-57.5 23t-22.5 58t22.5 57t57.5 22zM1100 780q35 0 58 -22t23 -57t-23 -58t-58 -23t-57.5 23t-22.5 58t22.5 57t57.5 22z" />
    <glyph glyph-name="uniFC8A" unicode="&#xfee8;&#xfeae;" horiz-adv-x="875" arabic-form="final" 
d="M875 0v225q8 0 14 -30.5t6 -80.5q0 -52 -6 -83t-14 -31zM842 0q-88 0 -152 37.5t-99 107t-35 164.5v228h193v-228q0 -32 8 -50.5t28 -26t57 -7.5h33v-225h-33zM431 210q-79 0 -154 11t-145 32v233q62 -25 139.5 -38t159.5 -13q83 0 158.5 13.5t139.5 39.5v-235
q-70 -21 -144.5 -32t-153.5 -11zM0 -82q53 3 81.5 13t39.5 27t11 41v538h193v-538q0 -85 -35.5 -149t-100 -101.5t-153.5 -43.5zM652 642q-46 0 -75 28.5t-29 74.5t29 75t75 29t75 -29t29 -75t-29 -74.5t-75 -28.5z" />
    <glyph glyph-name="uniFC8B" unicode="&#xfee8;&#xfeb0;" horiz-adv-x="875" arabic-form="final" 
d="M875 0v225q8 0 14 -30.5t6 -80.5q0 -52 -6 -83t-14 -31zM842 0q-88 0 -152 37.5t-99 107t-35 164.5v228h193v-228q0 -32 8 -50.5t28 -26t57 -7.5h33v-225h-33zM431 210q-79 0 -154 11t-145 32v233q62 -25 139.5 -38t159.5 -13q83 0 158.5 13.5t139.5 39.5v-235
q-70 -21 -144.5 -32t-153.5 -11zM0 -82q53 3 81.5 13t39.5 27t11 41v538h193v-538q0 -85 -35.5 -149t-100 -101.5t-153.5 -43.5zM652 642q-46 0 -75 28.5t-29 74.5t29 75t75 29t75 -29t29 -75t-29 -74.5t-75 -28.5zM229 642q-46 0 -75 28.5t-29 74.5t29 75t75 29t75 -29
t29 -75t-29 -74.5t-75 -28.5z" />
    <glyph glyph-name="uniFC8D" unicode="&#xfee8;&#xfee6;" horiz-adv-x="1413" arabic-form="final" 
d="M1413 0v225q8 0 14 -30.5t6 -80.5q0 -52 -6 -83t-14 -31zM1380 0q-88 0 -152 37.5t-99 107t-35 164.5v228h193v-228q0 -32 8 -50.5t28 -26t57 -7.5h33v-225h-33zM969 210q-79 0 -154 11t-145 32v233q62 -25 139.5 -38t159.5 -13q83 0 158.5 13.5t139.5 39.5v-235
q-70 -21 -144.5 -32t-153.5 -11zM441 -290q-102 0 -177.5 35.5t-125 98.5t-74 146.5t-24.5 180.5q0 34 3.5 68t9.5 68l187 -35q-4 -25 -5.5 -50t-1.5 -51q0 -77 20.5 -130t66.5 -79.5t121 -26.5t126 26.5t77 80t26 133.5v362h193v-362q0 -99 -27.5 -183.5t-81.5 -147.5
t-132.5 -98.5t-180.5 -35.5zM452 543q-46 0 -75 28.5t-29 74.5t29 75t75 29t75 -29t29 -75t-29 -74.5t-75 -28.5zM1191 642q-46 0 -75 28.5t-29 74.5t29 75t75 29t75 -29t29 -75t-29 -74.5t-75 -28.5z" />
    <glyph glyph-name="uniFC91" unicode="&#xfef4;&#xfeae;" horiz-adv-x="875" arabic-form="final" 
d="M875 0v225q8 0 14 -30.5t6 -80.5q0 -52 -6 -83t-14 -31zM842 0q-88 0 -152 37.5t-99 107t-35 164.5v228h193v-228q0 -32 8 -50.5t28 -26t57 -7.5h33v-225h-33zM431 210q-79 0 -154 11t-145 32v233q62 -25 139.5 -38t159.5 -13q83 0 158.5 13.5t139.5 39.5v-235
q-70 -21 -144.5 -32t-153.5 -11zM0 -82q53 3 81.5 13t39.5 27t11 41v538h193v-538q0 -85 -35.5 -149t-100 -101.5t-153.5 -43.5zM743 -240q-35 0 -57.5 22t-22.5 57t22.5 58t57.5 23t58 -23t23 -58t-23 -57t-58 -22zM561 -240q-35 0 -57.5 22t-22.5 57t22.5 58t57.5 23
t58 -23t23 -58t-23 -57t-58 -22z" />
    <glyph glyph-name="uniFC92" unicode="&#xfef4;&#xfeb0;" horiz-adv-x="875" arabic-form="final" 
d="M875 0v225q8 0 14 -30.5t6 -80.5q0 -52 -6 -83t-14 -31zM842 0q-88 0 -152 37.5t-99 107t-35 164.5v228h193v-228q0 -32 8 -50.5t28 -26t57 -7.5h33v-225h-33zM431 210q-79 0 -154 11t-145 32v233q62 -25 139.5 -38t159.5 -13q83 0 158.5 13.5t139.5 39.5v-235
q-70 -21 -144.5 -32t-153.5 -11zM0 -82q53 3 81.5 13t39.5 27t11 41v538h193v-538q0 -85 -35.5 -149t-100 -101.5t-153.5 -43.5zM229 642q-46 0 -75 28.5t-29 74.5t29 75t75 29t75 -29t29 -75t-29 -74.5t-75 -28.5zM743 -240q-35 0 -57.5 22t-22.5 57t22.5 58t57.5 23
t58 -23t23 -58t-23 -57t-58 -22zM561 -240q-35 0 -57.5 22t-22.5 57t22.5 58t57.5 23t58 -23t23 -58t-23 -57t-58 -22z" />
    <glyph glyph-name="uniFC94" unicode="&#xfef4;&#xfee6;" horiz-adv-x="1413" arabic-form="final" 
d="M1413 0v225q8 0 14 -30.5t6 -80.5q0 -52 -6 -83t-14 -31zM1380 0q-88 0 -152 37.5t-99 107t-35 164.5v228h193v-228q0 -32 8 -50.5t28 -26t57 -7.5h33v-225h-33zM969 210q-79 0 -154 11t-145 32v233q62 -25 139.5 -38t159.5 -13q83 0 158.5 13.5t139.5 39.5v-235
q-70 -21 -144.5 -32t-153.5 -11zM441 -290q-102 0 -177.5 35.5t-125 98.5t-74 146.5t-24.5 180.5q0 34 3.5 68t9.5 68l187 -35q-4 -25 -5.5 -50t-1.5 -51q0 -77 20.5 -130t66.5 -79.5t121 -26.5t126 26.5t77 80t26 133.5v362h193v-362q0 -99 -27.5 -183.5t-81.5 -147.5
t-132.5 -98.5t-180.5 -35.5zM452 543q-46 0 -75 28.5t-29 74.5t29 75t75 29t75 -29t29 -75t-29 -74.5t-75 -28.5zM1282 -240q-35 0 -57.5 22t-22.5 57t22.5 58t57.5 23t58 -23t23 -58t-23 -57t-58 -22zM1100 -240q-35 0 -57.5 22t-22.5 57t22.5 58t57.5 23t58 -23t23 -58
t-23 -57t-58 -22z" />
    <glyph glyph-name="uniFD0D" unicode="&#xfeb7;&#xfeae;" horiz-adv-x="1528" arabic-form="isolated" 
d="M1196 0q-99 0 -156.5 30t-81.5 89t-24 145l116 45q0 -32 12 -50.5t43 -26t87 -7.5q37 0 57 7.5t28 26t8 50.5v228h193v-273q0 -133 -68 -198.5t-214 -65.5zM431 210q-79 0 -154 11t-145 32v233q62 -25 139.5 -38t159.5 -13q83 0 158.5 13.5t139.5 39.5v-235
q-70 -21 -144.5 -32t-153.5 -11zM842 0q-88 0 -152 37.5t-99 107t-35 164.5v228h193v-228q0 -32 8 -50.5t28 -26t57 -7.5v-225zM838 0l4 225q37 0 57 7.5t28 26t8 50.5v178h193v-223q0 -133 -69 -198.5t-221 -65.5zM0 -82q53 3 81.5 13t39.5 27t11 41v538h193v-538
q0 -85 -35.5 -149t-100 -101.5t-153.5 -43.5zM1032 937q34 0 55.5 -21.5t21.5 -54.5q0 -34 -21.5 -55.5t-55.5 -21.5t-55.5 21.5t-21.5 55.5q0 33 21.5 54.5t55.5 21.5zM1123 776q35 0 58 -22t23 -57t-23 -58t-58 -23t-57.5 23t-22.5 58t22.5 57t57.5 22zM941 776
q35 0 58 -22t23 -57t-23 -58t-58 -23t-57.5 23t-22.5 58t22.5 57t57.5 22z" />
    <glyph glyph-name="uniFD0E" unicode="&#xfeb3;&#xfeae;" horiz-adv-x="1528" arabic-form="isolated" 
d="M1196 0q-99 0 -156.5 30t-81.5 89t-24 145l116 45q0 -32 12 -50.5t43 -26t87 -7.5q37 0 57 7.5t28 26t8 50.5v228h193v-273q0 -133 -68 -198.5t-214 -65.5zM431 210q-79 0 -154 11t-145 32v233q62 -25 139.5 -38t159.5 -13q83 0 158.5 13.5t139.5 39.5v-235
q-70 -21 -144.5 -32t-153.5 -11zM842 0q-88 0 -152 37.5t-99 107t-35 164.5v228h193v-228q0 -32 8 -50.5t28 -26t57 -7.5v-225zM838 0l4 225q37 0 57 7.5t28 26t8 50.5v178h193v-223q0 -133 -69 -198.5t-221 -65.5zM0 -82q53 3 81.5 13t39.5 27t11 41v538h193v-538
q0 -85 -35.5 -149t-100 -101.5t-153.5 -43.5z" />
    <glyph glyph-name="uniFD0F" unicode="&#xfebb;&#xfeae;" horiz-adv-x="1595" arabic-form="isolated" 
d="M435 210q-79 0 -154 11t-145 32v233q62 -25 139.5 -38t159.5 -13q83 0 158.5 13.5t139.5 39.5v-235q-70 -21 -144.5 -32t-153.5 -11zM846 0q-88 0 -152 37.5t-99 107t-35 164.5v226h193v-226q0 -32 8 -50.5t28 -26t57 -7.5h699v-225h-699zM1352 0v265q0 48 -18.5 78.5
t-50 45t-69.5 14.5t-80 -14t-81 -40.5t-70.5 -65t-50 -87.5t-18.5 -107h-160q0 47 9 103.5t30 116t54.5 115t83 99.5t116 70t152.5 26q89 0 154 -28.5t107.5 -78t63.5 -113t21 -134.5v-265h-193zM0 -82q53 3 81.5 13t39.5 27t11 41v538h193v-538q0 -85 -35.5 -149
t-100 -101.5t-153.5 -43.5z" />
    <glyph glyph-name="uniFD10" unicode="&#xfebf;&#xfeae;" horiz-adv-x="1595" arabic-form="isolated" 
d="M435 210q-79 0 -154 11t-145 32v233q62 -25 139.5 -38t159.5 -13q83 0 158.5 13.5t139.5 39.5v-235q-70 -21 -144.5 -32t-153.5 -11zM846 0q-88 0 -152 37.5t-99 107t-35 164.5v226h193v-226q0 -32 8 -50.5t28 -26t57 -7.5h699v-225h-699zM1352 0v265q0 48 -18.5 78.5
t-50 45t-69.5 14.5t-80 -14t-81 -40.5t-70.5 -65t-50 -87.5t-18.5 -107h-160q0 47 9 103.5t30 116t54.5 115t83 99.5t116 70t152.5 26q89 0 154 -28.5t107.5 -78t63.5 -113t21 -134.5v-265h-193zM0 -82q53 3 81.5 13t39.5 27t11 41v538h193v-538q0 -85 -35.5 -149
t-100 -101.5t-153.5 -43.5zM1201 722q-46 0 -75 28.5t-29 74.5t29 75t75 29t75 -29t29 -75t-29 -74.5t-75 -28.5z" />
    <glyph glyph-name="uniFD29" unicode="&#xfeb8;&#xfeae;" horiz-adv-x="1604" arabic-form="final" 
d="M1604 0v225q8 0 14 -30.5t6 -80.5q0 -52 -6 -83t-14 -31zM1571 0q-88 0 -152 37.5t-99 107t-35 164.5h193q0 -32 8 -50.5t28 -26t57 -7.5h33v-225h-33zM1196 0q-99 0 -156.5 30t-81.5 89t-24 145l116 45q0 -32 12 -50.5t43 -26t87 -7.5q37 0 57 7.5t28 26t8 50.5v228h193
v-273q0 -133 -68 -198.5t-214 -65.5zM431 210q-79 0 -154 11t-145 32v233q62 -25 139.5 -38t159.5 -13q83 0 158.5 13.5t139.5 39.5v-235q-70 -21 -144.5 -32t-153.5 -11zM842 0q-88 0 -152 37.5t-99 107t-35 164.5v228h193v-228q0 -32 8 -50.5t28 -26t57 -7.5v-225zM838 0
l4 225q37 0 57 7.5t28 26t8 50.5v178h193v-223q0 -133 -69 -198.5t-221 -65.5zM0 -82q53 3 81.5 13t39.5 27t11 41v538h193v-538q0 -85 -35.5 -149t-100 -101.5t-153.5 -43.5zM1032 937q34 0 55.5 -21.5t21.5 -54.5q0 -34 -21.5 -55.5t-55.5 -21.5t-55.5 21.5t-21.5 55.5
q0 33 21.5 54.5t55.5 21.5zM1123 776q35 0 58 -22t23 -57t-23 -58t-58 -23t-57.5 23t-22.5 58t22.5 57t57.5 22zM941 776q35 0 58 -22t23 -57t-23 -58t-58 -23t-57.5 23t-22.5 58t22.5 57t57.5 22z" />
    <glyph glyph-name="uniFD2A" unicode="&#xfeb4;&#xfeae;" horiz-adv-x="1604" arabic-form="final" 
d="M1604 0v225q8 0 14 -30.5t6 -80.5q0 -52 -6 -83t-14 -31zM1571 0q-88 0 -152 37.5t-99 107t-35 164.5h193q0 -32 8 -50.5t28 -26t57 -7.5h33v-225h-33zM1196 0q-99 0 -156.5 30t-81.5 89t-24 145l116 45q0 -32 12 -50.5t43 -26t87 -7.5q37 0 57 7.5t28 26t8 50.5v228h193
v-273q0 -133 -68 -198.5t-214 -65.5zM431 210q-79 0 -154 11t-145 32v233q62 -25 139.5 -38t159.5 -13q83 0 158.5 13.5t139.5 39.5v-235q-70 -21 -144.5 -32t-153.5 -11zM842 0q-88 0 -152 37.5t-99 107t-35 164.5v228h193v-228q0 -32 8 -50.5t28 -26t57 -7.5v-225zM838 0
l4 225q37 0 57 7.5t28 26t8 50.5v178h193v-223q0 -133 -69 -198.5t-221 -65.5zM0 -82q53 3 81.5 13t39.5 27t11 41v538h193v-538q0 -85 -35.5 -149t-100 -101.5t-153.5 -43.5z" />
    <glyph glyph-name="uniFD2B" unicode="&#xfebc;&#xfeae;" horiz-adv-x="1660" arabic-form="final" 
d="M1660 0v225q8 0 14 -30.5t6 -80.5q0 -52 -6 -83t-14 -31zM846 0q-88 0 -152 37.5t-99 107t-35 164.5v226h193v-226q0 -32 8 -50.5t28 -26t57 -7.5h699v-225h-699zM435 210q-79 0 -154 11t-145 32v233q62 -25 139.5 -38t159.5 -13q83 0 158.5 13.5t139.5 39.5v-235
q-70 -21 -144.5 -32t-153.5 -11zM1352 0v265q0 48 -18.5 78.5t-50 45t-69.5 14.5t-80 -14t-81 -40.5t-70.5 -65t-50 -87.5t-18.5 -107h-160q0 47 9 103.5t30 116t54.5 115t83 99.5t116 70t152.5 26q89 0 154 -28.5t107.5 -78t63.5 -113t21 -134.5v-265h-193zM1455 0v225h205
v-225h-205zM0 -82q53 3 81.5 13t39.5 27t11 41v538h193v-538q0 -85 -35.5 -149t-100 -101.5t-153.5 -43.5z" />
    <glyph glyph-name="uniFD2C" unicode="&#xfec0;&#xfeae;" horiz-adv-x="1660" arabic-form="final" 
d="M1660 0v225q8 0 14 -30.5t6 -80.5q0 -52 -6 -83t-14 -31zM846 0q-88 0 -152 37.5t-99 107t-35 164.5v226h193v-226q0 -32 8 -50.5t28 -26t57 -7.5h699v-225h-699zM435 210q-79 0 -154 11t-145 32v233q62 -25 139.5 -38t159.5 -13q83 0 158.5 13.5t139.5 39.5v-235
q-70 -21 -144.5 -32t-153.5 -11zM1352 0v265q0 48 -18.5 78.5t-50 45t-69.5 14.5t-80 -14t-81 -40.5t-70.5 -65t-50 -87.5t-18.5 -107h-160q0 47 9 103.5t30 116t54.5 115t83 99.5t116 70t152.5 26q89 0 154 -28.5t107.5 -78t63.5 -113t21 -134.5v-265h-193zM1455 0v225h205
v-225h-205zM0 -82q53 3 81.5 13t39.5 27t11 41v538h193v-538q0 -85 -35.5 -149t-100 -101.5t-153.5 -43.5zM1201 722q-46 0 -75 28.5t-29 74.5t29 75t75 29t75 -29t29 -75t-29 -74.5t-75 -28.5z" />
    <glyph glyph-name="uniFDF2" unicode="&#x627;&#xfedf;&#xfee0;&#xfeea;" horiz-adv-x="1894" arabic-form="isolated" 
d="M768 0v225h25q37 0 57 7.5t28 26t8 50.5v434h193v-434q0 -95 -35 -164t-99 -106.5t-152 -38.5h-25zM1172 0q-88 0 -152 37.5t-99 107t-35 164.5h193q0 -32 8 -50.5t28 -26t57 -7.5h25v-225h-25zM1197 0v225h121v518h193v-743h-314zM1631 0v901h193v-901h-193zM768 0v225
q8 0 14 -30.5t6 -80.5q0 -52 -6 -83t-14 -31zM335 49q-57 0 -110 15.5t-95 47t-66 79t-24 110.5q0 72 32.5 127t90 91.5t135 55t167.5 18.5v-185q-59 0 -102.5 -7.5t-72.5 -22t-43 -34.5t-14 -44q0 -20 10 -35t32.5 -23t57.5 -8t65.5 8.5t59.5 24.5l95 -161
q-49 -28 -105.5 -42.5t-112.5 -14.5zM735 0q-88 0 -152 37.5t-99 107t-35 164.5v317h193v-317q0 -32 8 -50.5t28 -26t57 -7.5h33v-225h-33zM1051 840q-30 0 -56 15t-42 39t-16 52v75h96v-66q0 -13 6.5 -20.5t11.5 -7.5q6 0 14.5 10.5t8.5 33.5q0 16 -4.5 34t-11.5 31l86 38
q11 -21 18.5 -50t7.5 -53q0 -36 -16 -65.5t-43 -47.5t-60 -18zM919 840q-33 0 -60 18t-43 47.5t-16 65.5q0 24 7.5 53t18.5 50l86 -38q-7 -13 -11.5 -31t-4.5 -34q0 -23 8.5 -33.5t14.5 -10.5q5 0 11.5 7.5t6.5 20.5v66h96v-75q0 -28 -16 -52t-42 -39t-56 -15zM937 1119v219
h96v-219h-96z" />
    <glyph glyph-name="uniFEF5" unicode="&#xfedf;&#xfe82;" horiz-adv-x="855" arabic-form="isolated" 
d="M592 0v901h193v-901h-193zM70 0v225h715v-225h-715zM212 0v620h193v-620h-193zM124 719q0 74 33 114t102 40q29 0 72.5 -5t87.5 -9t74 -2v-104q-27 -2 -68.5 1.5t-82.5 8t-69 4.5q-30 0 -40.5 -9.5t-10.5 -38.5h-98z" />
    <glyph glyph-name="uniFEF6" unicode="&#xfee0;&#xfe82;" horiz-adv-x="903" arabic-form="final" 
d="M212 0v620h193v-620h-193zM70 0v225h418v-225h-418zM903 0v225q8 0 14 -30.5t6 -80.5q0 -52 -6 -83t-14 -31zM444 0q-8 0 -14 31t-6 83q0 50 6 80.5t14 30.5v-225zM444 0v225h55q37 0 57 7.5t28 26t8 50.5v592h193v-592q0 -95 -35 -164t-99 -106.5t-152 -38.5h-55zM878 0
q-88 0 -152 37.5t-99 107t-35 164.5h193q0 -32 8 -50.5t28 -26t57 -7.5h25v-225h-25zM124 719q0 74 33 114t102 40q29 0 72.5 -5t87.5 -9t74 -2v-104q-27 -2 -68.5 1.5t-82.5 8t-69 4.5q-30 0 -40.5 -9.5t-10.5 -38.5h-98z" />
    <glyph glyph-name="uniFEF7" unicode="&#xfedf;&#xfe84;" horiz-adv-x="855" arabic-form="isolated" 
d="M592 0v901h193v-901h-193zM70 0v225h715v-225h-715zM212 0v620h193v-620h-193zM358 743q-81 0 -131.5 31.5t-50.5 90.5q0 42 24 73t63.5 47.5t84.5 16.5q28 0 54.5 -6t49.5 -19l-39 -86q-13 2 -28 4t-28 2q-41 0 -65.5 -12t-24.5 -27q0 -14 24.5 -26.5t66.5 -12.5v-76z
M149 713v106h320v-106h-320z" />
    <glyph glyph-name="uniFEF8" unicode="&#xfee0;&#xfe84;" horiz-adv-x="903" arabic-form="final" 
d="M212 0v620h193v-620h-193zM70 0v225h418v-225h-418zM903 0v225q8 0 14 -30.5t6 -80.5q0 -52 -6 -83t-14 -31zM444 0q-8 0 -14 31t-6 83q0 50 6 80.5t14 30.5v-225zM444 0v225h55q37 0 57 7.5t28 26t8 50.5v592h193v-592q0 -95 -35 -164t-99 -106.5t-152 -38.5h-55zM878 0
q-88 0 -152 37.5t-99 107t-35 164.5h193q0 -32 8 -50.5t28 -26t57 -7.5h25v-225h-25zM358 743q-81 0 -131.5 31.5t-50.5 90.5q0 42 24 73t63.5 47.5t84.5 16.5q28 0 54.5 -6t49.5 -19l-39 -86q-13 2 -28 4t-28 2q-41 0 -65.5 -12t-24.5 -27q0 -14 24.5 -26.5t66.5 -12.5v-76
zM149 713v106h320v-106h-320z" />
    <glyph glyph-name="uniFEF9" unicode="&#xfedf;&#xfe88;" horiz-adv-x="855" arabic-form="isolated" 
d="M592 0v901h193v-901h-193zM70 0v225h715v-225h-715zM212 0v620h193v-620h-193zM358 -343q-81 0 -131.5 31.5t-50.5 90.5q0 42 24 73t63.5 47.5t84.5 16.5q28 0 54.5 -6t49.5 -19l-39 -86q-13 2 -28 4t-28 2q-41 0 -65.5 -12t-24.5 -27q0 -14 24.5 -26.5t66.5 -12.5v-76z
M149 -373v106h320v-106h-320z" />
    <glyph glyph-name="uniFEFA" unicode="&#xfee0;&#xfe88;" horiz-adv-x="903" arabic-form="final" 
d="M212 0v620h193v-620h-193zM70 0v225h418v-225h-418zM903 0v225q8 0 14 -30.5t6 -80.5q0 -52 -6 -83t-14 -31zM444 0q-8 0 -14 31t-6 83q0 50 6 80.5t14 30.5v-225zM444 0v225h55q37 0 57 7.5t28 26t8 50.5v592h193v-592q0 -95 -35 -164t-99 -106.5t-152 -38.5h-55zM878 0
q-88 0 -152 37.5t-99 107t-35 164.5h193q0 -32 8 -50.5t28 -26t57 -7.5h25v-225h-25zM358 -343q-81 0 -131.5 31.5t-50.5 90.5q0 42 24 73t63.5 47.5t84.5 16.5q28 0 54.5 -6t49.5 -19l-39 -86q-13 2 -28 4t-28 2q-41 0 -65.5 -12t-24.5 -27q0 -14 24.5 -26.5t66.5 -12.5
v-76zM149 -373v106h320v-106h-320z" />
    <glyph glyph-name="uniFEFB" unicode="&#xfedf;&#xfe8e;" horiz-adv-x="855" arabic-form="isolated" 
d="M592 0v901h193v-901h-193zM70 0v225h715v-225h-715zM212 0v620h193v-620h-193z" />
    <glyph glyph-name="uniFEFC" unicode="&#xfee0;&#xfe8e;" horiz-adv-x="903" arabic-form="final" 
d="M212 0v620h193v-620h-193zM70 0v225h418v-225h-418zM903 0v225q8 0 14 -30.5t6 -80.5q0 -52 -6 -83t-14 -31zM444 0q-8 0 -14 31t-6 83q0 50 6 80.5t14 30.5v-225zM444 0v225h55q37 0 57 7.5t28 26t8 50.5v592h193v-592q0 -95 -35 -164t-99 -106.5t-152 -38.5h-55zM878 0
q-88 0 -152 37.5t-99 107t-35 164.5h193q0 -32 8 -50.5t28 -26t57 -7.5h25v-225h-25z" />
    <glyph glyph-name="f_f" unicode="ff" horiz-adv-x="852" 
d="M95 566q0 57 28 99t79 65t120 22q32 0 65 -5t62 -14l-22 -166q-16 5 -30 8t-26 3q-16 1 -27.5 -4.5t-18 -16t-6.5 -25.5v-532h-224v566zM20 517h405v-142h-405v142zM521 566q0 57 28 99t79 65t120 22q32 0 65 -5t62 -14l-22 -166q-16 5 -30 8t-26 3q-16 1 -27.5 -4.5
t-18 -16t-6.5 -25.5v-532h-224v566zM446 517h405v-142h-405v142z" />
    <glyph glyph-name="f_f_i" unicode="ffi" horiz-adv-x="1187" 
d="M95 566q0 57 28 99t79 65t120 22q32 0 65 -5t62 -14l-22 -166q-16 5 -30 8t-26 3q-16 1 -27.5 -4.5t-18 -16t-6.5 -25.5v-532h-224v566zM20 517h405v-142h-405v142zM521 566q0 57 28 99t79 65t120 22q32 0 65 -5t62 -14l-22 -166q-16 5 -30 8t-26 3q-16 1 -27.5 -4.5
t-18 -16t-6.5 -25.5v-532h-224v566zM446 517h405v-142h-405v142zM907 547h225v-547h-225v547zM1020 817q50 0 82 -32t32 -82t-32 -82t-82 -32t-82 32t-32 82t32 82t82 32z" />
    <glyph glyph-name="f_f_l" unicode="ffl" horiz-adv-x="1227" 
d="M95 566q0 57 28 99t79 65t120 22q32 0 65 -5t62 -14l-22 -166q-16 5 -30 8t-26 3q-16 1 -27.5 -4.5t-18 -16t-6.5 -25.5v-532h-224v566zM20 517h405v-142h-405v142zM521 566q0 57 28 99t79 65t120 22q32 0 65 -5t62 -14l-22 -166q-16 5 -30 8t-26 3q-16 1 -27.5 -4.5
t-18 -16t-6.5 -25.5v-532h-224v566zM446 517h405v-142h-405v142zM942 742h225v-742h-225v742z" />
    <glyph glyph-name="peh_rehar.fina" unicode="&#xfb59;&#xfeae;" horiz-adv-x="875" 
d="M875 0v225q8 0 14 -30.5t6 -80.5q0 -52 -6 -83t-14 -31zM842 0q-88 0 -152 37.5t-99 107t-35 164.5v228h193v-228q0 -32 8 -50.5t28 -26t57 -7.5h33v-225h-33zM431 210q-79 0 -154 11t-145 32v233q62 -25 139.5 -38t159.5 -13q83 0 158.5 13.5t139.5 39.5v-235
q-70 -21 -144.5 -32t-153.5 -11zM0 -82q53 3 81.5 13t39.5 27t11 41v538h193v-538q0 -85 -35.5 -149t-100 -101.5t-153.5 -43.5zM652 -400q-34 0 -55.5 21.5t-21.5 54.5q0 34 21.5 55.5t55.5 21.5t55.5 -21.5t21.5 -55.5q0 -33 -21.5 -54.5t-55.5 -21.5zM743 -239
q-35 0 -57.5 22t-22.5 57t22.5 58t57.5 23t58 -23t23 -58t-23 -57t-58 -22zM561 -239q-35 0 -57.5 22t-22.5 57t22.5 58t57.5 23t58 -23t23 -58t-23 -57t-58 -22z" />
    <glyph glyph-name="peh_zainar.fina" unicode="&#xfb59;&#xfeb0;" horiz-adv-x="875" 
d="M875 0v225q8 0 14 -30.5t6 -80.5q0 -52 -6 -83t-14 -31zM842 0q-88 0 -152 37.5t-99 107t-35 164.5v228h193v-228q0 -32 8 -50.5t28 -26t57 -7.5h33v-225h-33zM431 210q-79 0 -154 11t-145 32v233q62 -25 139.5 -38t159.5 -13q83 0 158.5 13.5t139.5 39.5v-235
q-70 -21 -144.5 -32t-153.5 -11zM0 -82q53 3 81.5 13t39.5 27t11 41v538h193v-538q0 -85 -35.5 -149t-100 -101.5t-153.5 -43.5zM652 -400q-34 0 -55.5 21.5t-21.5 54.5q0 34 21.5 55.5t55.5 21.5t55.5 -21.5t21.5 -55.5q0 -33 -21.5 -54.5t-55.5 -21.5zM743 -239
q-35 0 -57.5 22t-22.5 57t22.5 58t57.5 23t58 -23t23 -58t-23 -57t-58 -22zM561 -239q-35 0 -57.5 22t-22.5 57t22.5 58t57.5 23t58 -23t23 -58t-23 -57t-58 -22zM229 642q-46 0 -75 28.5t-29 74.5t29 75t75 29t75 -29t29 -75t-29 -74.5t-75 -28.5z" />
    <glyph glyph-name="peh_noonar.fina" unicode="&#xfb59;&#xfee6;" horiz-adv-x="1413" 
d="M1413 0v225q8 0 14 -30.5t6 -80.5q0 -52 -6 -83t-14 -31zM1380 0q-88 0 -152 37.5t-99 107t-35 164.5v228h193v-228q0 -32 8 -50.5t28 -26t57 -7.5h33v-225h-33zM969 210q-79 0 -154 11t-145 32v233q62 -25 139.5 -38t159.5 -13q83 0 158.5 13.5t139.5 39.5v-235
q-70 -21 -144.5 -32t-153.5 -11zM441 -290q-102 0 -177.5 35.5t-125 98.5t-74 146.5t-24.5 180.5q0 34 3.5 68t9.5 68l187 -35q-4 -25 -5.5 -50t-1.5 -51q0 -77 20.5 -130t66.5 -79.5t121 -26.5t126 26.5t77 80t26 133.5v362h193v-362q0 -99 -27.5 -183.5t-81.5 -147.5
t-132.5 -98.5t-180.5 -35.5zM452 543q-46 0 -75 28.5t-29 74.5t29 75t75 29t75 -29t29 -75t-29 -74.5t-75 -28.5zM1191 -400q-34 0 -55.5 21.5t-21.5 54.5q0 34 21.5 55.5t55.5 21.5t55.5 -21.5t21.5 -55.5q0 -33 -21.5 -54.5t-55.5 -21.5zM1282 -239q-35 0 -57.5 22
t-22.5 57t22.5 58t57.5 23t58 -23t23 -58t-23 -57t-58 -22zM1100 -239q-35 0 -57.5 22t-22.5 57t22.5 58t57.5 23t58 -23t23 -58t-23 -57t-58 -22z" />
    <glyph glyph-name="seen_zainar" unicode="&#xfeb3;&#xfeb0;" horiz-adv-x="1528" 
d="M1196 0q-99 0 -156.5 30t-81.5 89t-24 145l116 45q0 -32 12 -50.5t43 -26t87 -7.5q37 0 57 7.5t28 26t8 50.5v228h193v-273q0 -133 -68 -198.5t-214 -65.5zM431 210q-79 0 -154 11t-145 32v233q62 -25 139.5 -38t159.5 -13q83 0 158.5 13.5t139.5 39.5v-235
q-70 -21 -144.5 -32t-153.5 -11zM842 0q-88 0 -152 37.5t-99 107t-35 164.5v228h193v-228q0 -32 8 -50.5t28 -26t57 -7.5v-225zM838 0l4 225q37 0 57 7.5t28 26t8 50.5v178h193v-223q0 -133 -69 -198.5t-221 -65.5zM0 -82q53 3 81.5 13t39.5 27t11 41v538h193v-538
q0 -85 -35.5 -149t-100 -101.5t-153.5 -43.5zM228 642q-46 0 -75 28.5t-29 74.5t29 75t75 29t75 -29t29 -75t-29 -74.5t-75 -28.5z" />
    <glyph glyph-name="seen_zainar.fina" unicode="&#xfeb4;&#xfeb0;" horiz-adv-x="1604" 
d="M1604 0v225q8 0 14 -30.5t6 -80.5q0 -52 -6 -83t-14 -31zM1571 0q-88 0 -152 37.5t-99 107t-35 164.5h193q0 -32 8 -50.5t28 -26t57 -7.5h33v-225h-33zM1196 0q-99 0 -156.5 30t-81.5 89t-24 145l116 45q0 -32 12 -50.5t43 -26t87 -7.5q37 0 57 7.5t28 26t8 50.5v228h193
v-273q0 -133 -68 -198.5t-214 -65.5zM431 210q-79 0 -154 11t-145 32v233q62 -25 139.5 -38t159.5 -13q83 0 158.5 13.5t139.5 39.5v-235q-70 -21 -144.5 -32t-153.5 -11zM842 0q-88 0 -152 37.5t-99 107t-35 164.5v228h193v-228q0 -32 8 -50.5t28 -26t57 -7.5v-225zM838 0
l4 225q37 0 57 7.5t28 26t8 50.5v178h193v-223q0 -133 -69 -198.5t-221 -65.5zM0 -82q53 3 81.5 13t39.5 27t11 41v538h193v-538q0 -85 -35.5 -149t-100 -101.5t-153.5 -43.5zM228 642q-46 0 -75 28.5t-29 74.5t29 75t75 29t75 -29t29 -75t-29 -74.5t-75 -28.5z" />
    <glyph glyph-name="sheen_zainar" unicode="&#xfeb7;&#xfeb0;" horiz-adv-x="1528" 
d="M1196 0q-99 0 -156.5 30t-81.5 89t-24 145l116 45q0 -32 12 -50.5t43 -26t87 -7.5q37 0 57 7.5t28 26t8 50.5v228h193v-273q0 -133 -68 -198.5t-214 -65.5zM431 210q-79 0 -154 11t-145 32v233q62 -25 139.5 -38t159.5 -13q83 0 158.5 13.5t139.5 39.5v-235
q-70 -21 -144.5 -32t-153.5 -11zM842 0q-88 0 -152 37.5t-99 107t-35 164.5v228h193v-228q0 -32 8 -50.5t28 -26t57 -7.5v-225zM838 0l4 225q37 0 57 7.5t28 26t8 50.5v178h193v-223q0 -133 -69 -198.5t-221 -65.5zM0 -82q53 3 81.5 13t39.5 27t11 41v538h193v-538
q0 -85 -35.5 -149t-100 -101.5t-153.5 -43.5zM1032 937q34 0 55.5 -21.5t21.5 -54.5q0 -34 -21.5 -55.5t-55.5 -21.5t-55.5 21.5t-21.5 55.5q0 33 21.5 54.5t55.5 21.5zM1123 776q35 0 58 -22t23 -57t-23 -58t-58 -23t-57.5 23t-22.5 58t22.5 57t57.5 22zM941 776
q35 0 58 -22t23 -57t-23 -58t-58 -23t-57.5 23t-22.5 58t22.5 57t57.5 22zM228 642q-46 0 -75 28.5t-29 74.5t29 75t75 29t75 -29t29 -75t-29 -74.5t-75 -28.5z" />
    <glyph glyph-name="sheen_zainar.fina" unicode="&#xfeb8;&#xfeb0;" horiz-adv-x="1604" 
d="M1604 0v225q8 0 14 -30.5t6 -80.5q0 -52 -6 -83t-14 -31zM1571 0q-88 0 -152 37.5t-99 107t-35 164.5h193q0 -32 8 -50.5t28 -26t57 -7.5h33v-225h-33zM1196 0q-99 0 -156.5 30t-81.5 89t-24 145l116 45q0 -32 12 -50.5t43 -26t87 -7.5q37 0 57 7.5t28 26t8 50.5v228h193
v-273q0 -133 -68 -198.5t-214 -65.5zM431 210q-79 0 -154 11t-145 32v233q62 -25 139.5 -38t159.5 -13q83 0 158.5 13.5t139.5 39.5v-235q-70 -21 -144.5 -32t-153.5 -11zM842 0q-88 0 -152 37.5t-99 107t-35 164.5v228h193v-228q0 -32 8 -50.5t28 -26t57 -7.5v-225zM838 0
l4 225q37 0 57 7.5t28 26t8 50.5v178h193v-223q0 -133 -69 -198.5t-221 -65.5zM0 -82q53 3 81.5 13t39.5 27t11 41v538h193v-538q0 -85 -35.5 -149t-100 -101.5t-153.5 -43.5zM1032 937q34 0 55.5 -21.5t21.5 -54.5q0 -34 -21.5 -55.5t-55.5 -21.5t-55.5 21.5t-21.5 55.5
q0 33 21.5 54.5t55.5 21.5zM1123 776q35 0 58 -22t23 -57t-23 -58t-58 -23t-57.5 23t-22.5 58t22.5 57t57.5 22zM941 776q35 0 58 -22t23 -57t-23 -58t-58 -23t-57.5 23t-22.5 58t22.5 57t57.5 22zM228 642q-46 0 -75 28.5t-29 74.5t29 75t75 29t75 -29t29 -75t-29 -74.5
t-75 -28.5z" />
    <glyph glyph-name="sad_zainar" unicode="&#xfebb;&#xfeb0;" horiz-adv-x="1595" 
d="M435 210q-79 0 -154 11t-145 32v233q62 -25 139.5 -38t159.5 -13q83 0 158.5 13.5t139.5 39.5v-235q-70 -21 -144.5 -32t-153.5 -11zM846 0q-88 0 -152 37.5t-99 107t-35 164.5v226h193v-226q0 -32 8 -50.5t28 -26t57 -7.5h699v-225h-699zM1352 0v265q0 48 -18.5 78.5
t-50 45t-69.5 14.5t-80 -14t-81 -40.5t-70.5 -65t-50 -87.5t-18.5 -107h-160q0 47 9 103.5t30 116t54.5 115t83 99.5t116 70t152.5 26q89 0 154 -28.5t107.5 -78t63.5 -113t21 -134.5v-265h-193zM0 -82q53 3 81.5 13t39.5 27t11 41v538h193v-538q0 -85 -35.5 -149
t-100 -101.5t-153.5 -43.5zM229 642q-46 0 -75 28.5t-29 74.5t29 75t75 29t75 -29t29 -75t-29 -74.5t-75 -28.5z" />
    <glyph glyph-name="sad_zainar.fina" unicode="&#xfebc;&#xfeb0;" horiz-adv-x="1660" 
d="M1660 0v225q8 0 14 -30.5t6 -80.5q0 -52 -6 -83t-14 -31zM846 0q-88 0 -152 37.5t-99 107t-35 164.5v226h193v-226q0 -32 8 -50.5t28 -26t57 -7.5h699v-225h-699zM435 210q-79 0 -154 11t-145 32v233q62 -25 139.5 -38t159.5 -13q83 0 158.5 13.5t139.5 39.5v-235
q-70 -21 -144.5 -32t-153.5 -11zM1352 0v265q0 48 -18.5 78.5t-50 45t-69.5 14.5t-80 -14t-81 -40.5t-70.5 -65t-50 -87.5t-18.5 -107h-160q0 47 9 103.5t30 116t54.5 115t83 99.5t116 70t152.5 26q89 0 154 -28.5t107.5 -78t63.5 -113t21 -134.5v-265h-193zM1455 0v225h205
v-225h-205zM0 -82q53 3 81.5 13t39.5 27t11 41v538h193v-538q0 -85 -35.5 -149t-100 -101.5t-153.5 -43.5zM229 642q-46 0 -75 28.5t-29 74.5t29 75t75 29t75 -29t29 -75t-29 -74.5t-75 -28.5z" />
    <glyph glyph-name="dad_zainar" unicode="&#xfebf;&#xfeb0;" horiz-adv-x="1595" 
d="M435 210q-79 0 -154 11t-145 32v233q62 -25 139.5 -38t159.5 -13q83 0 158.5 13.5t139.5 39.5v-235q-70 -21 -144.5 -32t-153.5 -11zM846 0q-88 0 -152 37.5t-99 107t-35 164.5v226h193v-226q0 -32 8 -50.5t28 -26t57 -7.5h699v-225h-699zM1352 0v265q0 48 -18.5 78.5
t-50 45t-69.5 14.5t-80 -14t-81 -40.5t-70.5 -65t-50 -87.5t-18.5 -107h-160q0 47 9 103.5t30 116t54.5 115t83 99.5t116 70t152.5 26q89 0 154 -28.5t107.5 -78t63.5 -113t21 -134.5v-265h-193zM0 -82q53 3 81.5 13t39.5 27t11 41v538h193v-538q0 -85 -35.5 -149
t-100 -101.5t-153.5 -43.5zM1201 722q-46 0 -75 28.5t-29 74.5t29 75t75 29t75 -29t29 -75t-29 -74.5t-75 -28.5zM229 642q-46 0 -75 28.5t-29 74.5t29 75t75 29t75 -29t29 -75t-29 -74.5t-75 -28.5z" />
    <glyph glyph-name="dad_zainar.fina" unicode="&#xfec0;&#xfeb0;" horiz-adv-x="1660" 
d="M1660 0v225q8 0 14 -30.5t6 -80.5q0 -52 -6 -83t-14 -31zM846 0q-88 0 -152 37.5t-99 107t-35 164.5v226h193v-226q0 -32 8 -50.5t28 -26t57 -7.5h699v-225h-699zM435 210q-79 0 -154 11t-145 32v233q62 -25 139.5 -38t159.5 -13q83 0 158.5 13.5t139.5 39.5v-235
q-70 -21 -144.5 -32t-153.5 -11zM1352 0v265q0 48 -18.5 78.5t-50 45t-69.5 14.5t-80 -14t-81 -40.5t-70.5 -65t-50 -87.5t-18.5 -107h-160q0 47 9 103.5t30 116t54.5 115t83 99.5t116 70t152.5 26q89 0 154 -28.5t107.5 -78t63.5 -113t21 -134.5v-265h-193zM1455 0v225h205
v-225h-205zM0 -82q53 3 81.5 13t39.5 27t11 41v538h193v-538q0 -85 -35.5 -149t-100 -101.5t-153.5 -43.5zM1201 722q-46 0 -75 28.5t-29 74.5t29 75t75 29t75 -29t29 -75t-29 -74.5t-75 -28.5zM229 642q-46 0 -75 28.5t-29 74.5t29 75t75 29t75 -29t29 -75t-29 -74.5
t-75 -28.5z" />
    <glyph glyph-name="lam_alefWaslaar" unicode="&#xfedf;&#xfb51;" horiz-adv-x="855" 
d="M592 0v901h193v-901h-193zM70 0v225h715v-225h-715zM212 0v620h193v-620h-193zM461 723v107q0 27 -16.5 41t-40.5 14q-25 0 -52.5 -15.5t-46.5 -44t-19 -66.5h-63q0 30 8.5 69.5t28.5 76t53.5 60.5t83.5 24q48 0 79 -21.5t46 -56.5t15 -76v-112h-76zM348 723
q-61 0 -103.5 17t-75.5 61l42 18q-15 -17 -37 -41.5t-43 -50.5l-51 38q25 59 52 90t52 31q15 0 26 -9t27 -20t46 -20t82 -9h172v-105h-189z" />
    <glyph glyph-name="lam_alefWaslaar.fina" unicode="&#xfee0;&#xfb51;" horiz-adv-x="903" 
d="M212 0v620h193v-620h-193zM70 0v225h418v-225h-418zM903 0v225q8 0 14 -30.5t6 -80.5q0 -52 -6 -83t-14 -31zM444 0q-8 0 -14 31t-6 83q0 50 6 80.5t14 30.5v-225zM444 0v225h55q37 0 57 7.5t28 26t8 50.5v592h193v-592q0 -95 -35 -164t-99 -106.5t-152 -38.5h-55zM878 0
q-88 0 -152 37.5t-99 107t-35 164.5h193q0 -32 8 -50.5t28 -26t57 -7.5h25v-225h-25zM461 723v107q0 27 -16.5 41t-40.5 14q-25 0 -52.5 -15.5t-46.5 -44t-19 -66.5h-63q0 30 8.5 69.5t28.5 76t53.5 60.5t83.5 24q48 0 79 -21.5t46 -56.5t15 -76v-112h-76zM348 723
q-61 0 -103.5 17t-75.5 61l42 18q-15 -17 -37 -41.5t-43 -50.5l-51 38q25 59 52 90t52 31q15 0 26 -9t27 -20t46 -20t82 -9h172v-105h-189z" />
    <glyph glyph-name="alefMaksura_rehar.fina" unicode="&#x649;&#xfeae;" horiz-adv-x="875" 
d="M875 0v225q8 0 14 -30.5t6 -80.5q0 -52 -6 -83t-14 -31zM842 0q-88 0 -152 37.5t-99 107t-35 164.5v228h193v-228q0 -32 8 -50.5t28 -26t57 -7.5h33v-225h-33zM431 210q-79 0 -154 11t-145 32v233q62 -25 139.5 -38t159.5 -13q83 0 158.5 13.5t139.5 39.5v-235
q-70 -21 -144.5 -32t-153.5 -11zM0 -82q53 3 81.5 13t39.5 27t11 41v538h193v-538q0 -85 -35.5 -149t-100 -101.5t-153.5 -43.5z" />
    <glyph glyph-name="alefMaksura_zainar.fina" unicode="&#x649;&#xfeb0;" horiz-adv-x="875" 
d="M875 0v225q8 0 14 -30.5t6 -80.5q0 -52 -6 -83t-14 -31zM842 0q-88 0 -152 37.5t-99 107t-35 164.5v228h193v-228q0 -32 8 -50.5t28 -26t57 -7.5h33v-225h-33zM431 210q-79 0 -154 11t-145 32v233q62 -25 139.5 -38t159.5 -13q83 0 158.5 13.5t139.5 39.5v-235
q-70 -21 -144.5 -32t-153.5 -11zM0 -82q53 3 81.5 13t39.5 27t11 41v538h193v-538q0 -85 -35.5 -149t-100 -101.5t-153.5 -43.5zM229 642q-46 0 -75 28.5t-29 74.5t29 75t75 29t75 -29t29 -75t-29 -74.5t-75 -28.5z" />
    <glyph glyph-name="alefMaksura_noonar.fina" unicode="&#x649;&#xfee6;" horiz-adv-x="1413" 
d="M1413 0v225q8 0 14 -30.5t6 -80.5q0 -52 -6 -83t-14 -31zM1380 0q-88 0 -152 37.5t-99 107t-35 164.5v228h193v-228q0 -32 8 -50.5t28 -26t57 -7.5h33v-225h-33zM969 210q-79 0 -154 11t-145 32v233q62 -25 139.5 -38t159.5 -13q83 0 158.5 13.5t139.5 39.5v-235
q-70 -21 -144.5 -32t-153.5 -11zM441 -290q-102 0 -177.5 35.5t-125 98.5t-74 146.5t-24.5 180.5q0 34 3.5 68t9.5 68l187 -35q-4 -25 -5.5 -50t-1.5 -51q0 -77 20.5 -130t66.5 -79.5t121 -26.5t126 26.5t77 80t26 133.5v362h193v-362q0 -99 -27.5 -183.5t-81.5 -147.5
t-132.5 -98.5t-180.5 -35.5zM452 543q-46 0 -75 28.5t-29 74.5t29 75t75 29t75 -29t29 -75t-29 -74.5t-75 -28.5z" />
    <glyph glyph-name="uni066E.init" unicode="&#x66e;" horiz-adv-x="412" 
d="M159 537h193v-537h-352v225h159v312zM0 0q-8 0 -14 31t-6 83q0 50 6 80.5t14 30.5v-225z" />
    <glyph glyph-name="uni066E.medi" unicode="&#x66e;" horiz-adv-x="470" 
d="M0 0v225h58q37 0 57 7.5t28 26t8 50.5v228h193v-228q0 -95 -35 -164t-99 -106.5t-152 -38.5h-58zM437 0q-88 0 -152 37.5t-99 107t-35 164.5h193q0 -32 8 -50.5t28 -26t57 -7.5h33v-225h-33zM470 0v225q8 0 14 -30.5t6 -80.5q0 -52 -6 -83t-14 -31zM0 0q-8 0 -14 31
t-6 83q0 50 6 80.5t14 30.5v-225z" />
    <glyph glyph-name="uni066E.fina" unicode="&#x66e;" horiz-adv-x="1088" 
d="M344 -1q-89 0 -154.5 25t-108 69t-63 99.5t-20.5 116.5q0 56 17 113t50 108l148 -67q-15 -31 -23 -60.5t-8 -56.5q0 -35 16 -63t50.5 -43.5t89.5 -15.5l341 1q37 0 57 7.5t28 26t8 50.5v228h193v-228q0 -95 -35 -164t-99 -106.5t-152 -38.5zM1058 0q-88 0 -152 37.5
t-99 107t-35 164.5h193q0 -32 8 -50.5t28 -26t57 -7.5h30v-225h-30zM1088 0v225q8 0 14 -30.5t6 -80.5q0 -52 -6 -83t-14 -31z" />
    <glyph glyph-name="uni066F.fina" unicode="&#x66f;" horiz-adv-x="1087" 
d="M786 0v225h301v-225h-301zM1087 0v225q8 0 14 -30.5t6 -80.5q0 -52 -6 -83t-14 -31zM505 -358q-109 0 -195 38.5t-146.5 107t-92 159t-31.5 194.5q0 57 9.5 113.5t25.5 107.5l180 -34q-12 -51 -17 -94.5t-5 -78.5q0 -96 33.5 -160t94 -96t142.5 -32q85 0 146.5 32.5
t95.5 94t34 149.5v391l193 -33v-358q0 -105 -32 -196t-92.5 -159.5t-147 -107t-195.5 -38.5zM746 0q-92 0 -161 37.5t-106.5 100.5t-37.5 138q0 61 23.5 112t65.5 89t97.5 59t118.5 21q62 0 121 -18t105 -38l-77 -199q-88 41 -149 41q-35 0 -60 -9.5t-38.5 -24t-13.5 -28.5
q0 -12 12 -25t37 -22t63 -9h170v-225h-170z" />
    <glyph glyph-name="uni06A1.init" unicode="&#x6a1;" horiz-adv-x="677" 
d="M0 0v225h434v276h193v-501h-627zM232 12q-37 16 -68 53.5t-49.5 89.5t-18.5 111q0 89 41 154t110.5 101t152.5 36q63 0 122 -18t105 -38l-77 -194q-48 20 -89 30t-77 10q-40 0 -67 -11t-41 -29.5t-14 -41.5q0 -22 12.5 -49t28.5 -37zM0 0q-8 0 -14 31t-6 83q0 50 6 80.5
t14 30.5v-225z" />
    <glyph glyph-name="uni06A1.medi" unicode="&#x6a1;" horiz-adv-x="772" 
d="M0 0v225q57 0 105.5 1.5t89.5 2.5q8 1 15 -6t14 -13.5t13 -6.5q90 8 141.5 22.5t73.5 34t22 43.5q0 19 -11 34.5t-30.5 24.5t-45.5 9t-46.5 -10.5t-31.5 -26t-11 -31.5q0 -23 22.5 -43t75.5 -35t145 -23q7 0 13.5 7t13.5 14t14 6q41 -2 88 -3t102 -1v-225q-146 0 -268 18
t-211.5 56t-138.5 97t-49 140q0 73 38 128t102 86.5t141 31.5q78 0 142 -31t102 -86.5t38 -129.5q0 -73 -38.5 -126t-105.5 -89t-153 -56.5t-181 -29.5t-190 -9zM772 0v225q8 0 14 -30.5t6 -80.5q0 -52 -6 -83t-14 -31zM0 0q-8 0 -14 31t-6 83q0 50 6 80.5t14 30.5v-225z
" />
    <glyph glyph-name="uni06A1.fina" unicode="&#x6a1;" horiz-adv-x="1196" 
d="M386 0q-89 0 -154.5 25.5t-108 69t-63 99t-20.5 116.5q0 56 17 113t50 108l148 -67q-15 -31 -23 -60.5t-8 -56.5q0 -35 16 -63t50.5 -43.5t89.5 -15.5h44v-225h-38zM1196 0v225q8 0 14 -30.5t6 -80.5q0 -52 -6 -83t-14 -31zM424 0q-8 0 -14 31t-6 83q0 50 6 80.5t14 30.5
v-225zM424 0v225q57 0 105.5 1.5t89.5 2.5q8 1 15 -6t14 -13.5t13 -6.5q90 8 141.5 22.5t73.5 34t22 43.5q0 19 -11 34.5t-30.5 24.5t-45.5 9t-46.5 -10.5t-31.5 -26t-11 -31.5q0 -23 22.5 -43t75.5 -35t145 -23q7 0 13.5 7t13.5 14t14 6q41 -2 88 -3t102 -1v-225
q-146 0 -268 18t-211.5 56t-138.5 97t-49 140q0 73 38 128t102 86.5t141 31.5q78 0 142 -31t102 -86.5t38 -129.5q0 -73 -38.5 -126t-105.5 -89t-153 -56.5t-181 -29.5t-190 -9z" />
    <glyph glyph-name="uni06C2.fina" unicode="&#x6c2;" horiz-adv-x="768" 
d="M335 49q-57 0 -110 15.5t-95 47t-66 79t-24 110.5q0 72 32.5 127t90 91.5t135 55t167.5 18.5v-185q-59 0 -102.5 -7.5t-72.5 -22t-43 -34.5t-14 -44q0 -20 10 -35t32.5 -23t57.5 -8t65.5 8.5t59.5 24.5l95 -161q-49 -28 -105.5 -42.5t-112.5 -14.5zM735 0
q-88 0 -152 37.5t-99 107t-35 164.5v317h193v-317q0 -32 8 -50.5t28 -26t57 -7.5h33v-225h-33zM768 0v225q8 0 14 -30.5t6 -80.5q0 -52 -6 -83t-14 -31zM371 749q-81 0 -131.5 31.5t-50.5 90.5q0 42 24 73t63.5 47.5t84.5 16.5q28 0 54.5 -6t49.5 -19l-39 -86q-13 2 -28 4
t-28 2q-41 0 -65.5 -12t-24.5 -27q0 -14 24.5 -26.5t66.5 -12.5v-76zM162 719v106h320v-106h-320z" />
    <glyph glyph-name="uni06C3.fina" unicode="&#x6c3;" horiz-adv-x="735" 
d="M735 0q-75 0 -127.5 20t-90 64.5t-68.5 119.5q-24 62 -48.5 85.5t-57.5 23.5q-26 0 -44 -14.5t-30.5 -39t-22.5 -57t-20 -68.5l-186 63q23 79 49.5 142t61.5 107.5t82 68t110 23.5q104 0 172 -67t113 -183q12 -29 21.5 -42.5t28.5 -17t57 -3.5v-225zM735 0v225
q8 0 14 -30.5t6 -80.5q0 -52 -6 -83t-14 -31zM435 618q-36 0 -58.5 22t-22.5 57q0 36 22.5 58.5t58.5 22.5q35 0 57.5 -22.5t22.5 -58.5q0 -35 -22.5 -57t-57.5 -22zM253 618q-36 0 -58.5 22t-22.5 57q0 36 22.5 58.5t58.5 22.5q35 0 57.5 -22.5t22.5 -58.5q0 -35 -22.5 -57
t-57.5 -22z" />
    <glyph glyph-name="uniFB51" unicode="&#x671;" horiz-adv-x="368" arabic-form="final" 
d="M253 0v225h115v-225h-115zM70 0v763h193v-763h-193zM368 0v225q8 0 14 -30.5t6 -80.5q0 -52 -6 -83t-14 -31zM319 866v107q0 27 -16.5 41t-40.5 14q-25 0 -52.5 -15.5t-46.5 -44t-19 -66.5h-63q0 30 8.5 69.5t28.5 76t53.5 60.5t83.5 24q48 0 79 -21.5t46 -56.5t15 -76
v-112h-76zM206 866q-61 0 -103.5 17t-75.5 61l42 18q-15 -17 -37 -41.5t-43 -50.5l-51 38q25 59 52 90t52 31q15 0 26 -9t27 -20t46 -20t82 -9h172v-105h-189z" />
    <glyph glyph-name="uniFB57" unicode="&#x67e;" horiz-adv-x="1088" arabic-form="final" 
d="M344 -1q-89 0 -154.5 25t-108 69t-63 99.5t-20.5 116.5q0 56 17 113t50 108l148 -67q-15 -31 -23 -60.5t-8 -56.5q0 -35 16 -63t50.5 -43.5t89.5 -15.5l341 1q37 0 57 7.5t28 26t8 50.5v228h193v-228q0 -95 -35 -164t-99 -106.5t-152 -38.5zM1058 0q-88 0 -152 37.5
t-99 107t-35 164.5h193q0 -32 8 -50.5t28 -26t57 -7.5h30v-225h-30zM1088 0v225q8 0 14 -30.5t6 -80.5q0 -52 -6 -83t-14 -31zM482 -400q-34 0 -55.5 21.5t-21.5 54.5q0 34 21.5 55.5t55.5 21.5t55.5 -21.5t21.5 -55.5q0 -33 -21.5 -54.5t-55.5 -21.5zM573 -239
q-35 0 -57.5 22t-22.5 57t22.5 58t57.5 23t58 -23t23 -58t-23 -57t-58 -22zM391 -239q-35 0 -57.5 22t-22.5 57t22.5 58t57.5 23t58 -23t23 -58t-23 -57t-58 -22z" />
    <glyph glyph-name="uniFB58" unicode="&#x67e;" horiz-adv-x="412" arabic-form="initial" 
d="M159 537h193v-537h-352v225h159v312zM0 0q-8 0 -14 31t-6 83q0 50 6 80.5t14 30.5v-225zM190 -400q-34 0 -55.5 21.5t-21.5 54.5q0 34 21.5 55.5t55.5 21.5t55.5 -21.5t21.5 -55.5q0 -33 -21.5 -54.5t-55.5 -21.5zM281 -239q-35 0 -57.5 22t-22.5 57t22.5 58t57.5 23
t58 -23t23 -58t-23 -57t-58 -22zM99 -239q-35 0 -57.5 22t-22.5 57t22.5 58t57.5 23t58 -23t23 -58t-23 -57t-58 -22z" />
    <glyph glyph-name="uniFB59" unicode="&#x67e;" horiz-adv-x="470" arabic-form="medial" 
d="M0 0v225h58q37 0 57 7.5t28 26t8 50.5v228h193v-228q0 -95 -35 -164t-99 -106.5t-152 -38.5h-58zM437 0q-88 0 -152 37.5t-99 107t-35 164.5h193q0 -32 8 -50.5t28 -26t57 -7.5h33v-225h-33zM470 0v225q8 0 14 -30.5t6 -80.5q0 -52 -6 -83t-14 -31zM0 0q-8 0 -14 31
t-6 83q0 50 6 80.5t14 30.5v-225zM232 -400q-34 0 -55.5 21.5t-21.5 54.5q0 34 21.5 55.5t55.5 21.5t55.5 -21.5t21.5 -55.5q0 -33 -21.5 -54.5t-55.5 -21.5zM323 -239q-35 0 -57.5 22t-22.5 57t22.5 58t57.5 23t58 -23t23 -58t-23 -57t-58 -22zM141 -239q-35 0 -57.5 22
t-22.5 57t22.5 58t57.5 23t58 -23t23 -58t-23 -57t-58 -22z" />
    <glyph glyph-name="uniFB67" unicode="&#x679;" horiz-adv-x="1088" arabic-form="final" 
d="M344 -1q-89 0 -154.5 25t-108 69t-63 99.5t-20.5 116.5q0 56 17 113t50 108l148 -67q-15 -31 -23 -60.5t-8 -56.5q0 -35 16 -63t50.5 -43.5t89.5 -15.5l341 1q37 0 57 7.5t28 26t8 50.5v228h193v-228q0 -95 -35 -164t-99 -106.5t-152 -38.5zM1058 0q-88 0 -152 37.5
t-99 107t-35 164.5h193q0 -32 8 -50.5t28 -26t57 -7.5h30v-225h-30zM1088 0v225q8 0 14 -30.5t6 -80.5q0 -52 -6 -83t-14 -31zM321 604v95h29v227h96v-116q17 17 37.5 27t43.5 10q54 0 85 -40t31 -108v-95h-322zM446 699h101q-1 28 -13 45.5t-35 15.5q-20 -1 -35.5 -18
t-17.5 -43z" />
    <glyph glyph-name="uniFB68" unicode="&#x679;" horiz-adv-x="412" arabic-form="initial" 
d="M159 537h193v-537h-352v225h159v312zM0 0q-8 0 -14 31t-6 83q0 50 6 80.5t14 30.5v-225zM95 632v95h29v227h96v-116q17 17 37.5 27t43.5 10q54 0 85 -40t31 -108v-95h-322zM220 727h101q-1 28 -13 45.5t-35 15.5q-20 -1 -35.5 -18t-17.5 -43z" />
    <glyph glyph-name="uniFB69" unicode="&#x679;" horiz-adv-x="470" arabic-form="medial" 
d="M0 0v225h58q37 0 57 7.5t28 26t8 50.5v228h193v-228q0 -95 -35 -164t-99 -106.5t-152 -38.5h-58zM437 0q-88 0 -152 37.5t-99 107t-35 164.5h193q0 -32 8 -50.5t28 -26t57 -7.5h33v-225h-33zM470 0v225q8 0 14 -30.5t6 -80.5q0 -52 -6 -83t-14 -31zM0 0q-8 0 -14 31
t-6 83q0 50 6 80.5t14 30.5v-225zM71 632v95h29v227h96v-116q17 17 37.5 27t43.5 10q54 0 85 -40t31 -108v-95h-322zM196 727h101q-1 28 -13 45.5t-35 15.5q-20 -1 -35.5 -18t-17.5 -43z" />
    <glyph glyph-name="uniFB6B" unicode="&#x6a4;" horiz-adv-x="1196" arabic-form="final" 
d="M386 0q-89 0 -154.5 25.5t-108 69t-63 99t-20.5 116.5q0 56 17 113t50 108l148 -67q-15 -31 -23 -60.5t-8 -56.5q0 -35 16 -63t50.5 -43.5t89.5 -15.5h44v-225h-38zM1196 0v225q8 0 14 -30.5t6 -80.5q0 -52 -6 -83t-14 -31zM424 0q-8 0 -14 31t-6 83q0 50 6 80.5t14 30.5
v-225zM424 0v225q57 0 105.5 1.5t89.5 2.5q8 1 15 -6t14 -13.5t13 -6.5q90 8 141.5 22.5t73.5 34t22 43.5q0 19 -11 34.5t-30.5 24.5t-45.5 9t-46.5 -10.5t-31.5 -26t-11 -31.5q0 -23 22.5 -43t75.5 -35t145 -23q7 0 13.5 7t13.5 14t14 6q41 -2 88 -3t102 -1v-225
q-146 0 -268 18t-211.5 56t-138.5 97t-49 140q0 73 38 128t102 86.5t141 31.5q78 0 142 -31t102 -86.5t38 -129.5q0 -73 -38.5 -126t-105.5 -89t-153 -56.5t-181 -29.5t-190 -9zM810 959q34 0 55.5 -21.5t21.5 -54.5q0 -34 -21.5 -55.5t-55.5 -21.5t-55.5 21.5t-21.5 55.5
q0 33 21.5 54.5t55.5 21.5zM901 798q35 0 58 -22t23 -57t-23 -58t-58 -23t-57.5 23t-22.5 58t22.5 57t57.5 22zM719 798q35 0 58 -22t23 -57t-23 -58t-58 -23t-57.5 23t-22.5 58t22.5 57t57.5 22z" />
    <glyph glyph-name="uniFB6C" unicode="&#x6a4;" horiz-adv-x="677" arabic-form="initial" 
d="M0 0v225h434v276h193v-501h-627zM232 12q-37 16 -68 53.5t-49.5 89.5t-18.5 111q0 89 41 154t110.5 101t152.5 36q63 0 122 -18t105 -38l-77 -194q-48 20 -89 30t-77 10q-40 0 -67 -11t-41 -29.5t-14 -41.5q0 -22 12.5 -49t28.5 -37zM0 0q-8 0 -14 31t-6 83q0 50 6 80.5
t14 30.5v-225zM401 959q34 0 55.5 -21.5t21.5 -54.5q0 -34 -21.5 -55.5t-55.5 -21.5t-55.5 21.5t-21.5 55.5q0 33 21.5 54.5t55.5 21.5zM492 798q35 0 58 -22t23 -57t-23 -58t-58 -23t-57.5 23t-22.5 58t22.5 57t57.5 22zM310 798q35 0 58 -22t23 -57t-23 -58t-58 -23
t-57.5 23t-22.5 58t22.5 57t57.5 22z" />
    <glyph glyph-name="uniFB6D" unicode="&#x6a4;" horiz-adv-x="772" arabic-form="medial" 
d="M0 0v225q57 0 105.5 1.5t89.5 2.5q8 1 15 -6t14 -13.5t13 -6.5q90 8 141.5 22.5t73.5 34t22 43.5q0 19 -11 34.5t-30.5 24.5t-45.5 9t-46.5 -10.5t-31.5 -26t-11 -31.5q0 -23 22.5 -43t75.5 -35t145 -23q7 0 13.5 7t13.5 14t14 6q41 -2 88 -3t102 -1v-225q-146 0 -268 18
t-211.5 56t-138.5 97t-49 140q0 73 38 128t102 86.5t141 31.5q78 0 142 -31t102 -86.5t38 -129.5q0 -73 -38.5 -126t-105.5 -89t-153 -56.5t-181 -29.5t-190 -9zM772 0v225q8 0 14 -30.5t6 -80.5q0 -52 -6 -83t-14 -31zM0 0q-8 0 -14 31t-6 83q0 50 6 80.5t14 30.5v-225z
M386 959q34 0 55.5 -21.5t21.5 -54.5q0 -34 -21.5 -55.5t-55.5 -21.5t-55.5 21.5t-21.5 55.5q0 33 21.5 54.5t55.5 21.5zM477 798q35 0 58 -22t23 -57t-23 -58t-58 -23t-57.5 23t-22.5 58t22.5 57t57.5 22zM295 798q35 0 58 -22t23 -57t-23 -58t-58 -23t-57.5 23t-22.5 58
t22.5 57t57.5 22z" />
    <glyph glyph-name="uniFB7B" unicode="&#x686;" horiz-adv-x="816" arabic-form="final" 
d="M653 0v225h163v-225h-163zM816 0v225q8 0 14 -30.5t6 -80.5q0 -52 -6 -83t-14 -31zM602 -345q-28 0 -46 17.5t-18 45.5t18 45.5t46 17.5t45.5 -17.5t17.5 -45.5t-17.5 -45.5t-45.5 -17.5zM677 -212q-29 0 -47.5 18t-18.5 47q0 30 18.5 48.5t47.5 18.5t48 -18.5t19 -48.5
q0 -29 -19 -47t-48 -18zM526 -212q-29 0 -47.5 18t-18.5 47q0 30 18.5 48.5t47.5 18.5t48 -18.5t19 -48.5q0 -29 -19 -47t-48 -18zM484 170v101q0 28 -19 50.5t-56 35.5t-91 13q-37 0 -76.5 -8t-68.5 -20l-85 189q52 32 111 48t119 16q69 0 133 -20.5t115 -61.5t81 -101.5
t30 -140.5v-101h-193zM385 -398q-61 0 -122 18.5t-110.5 56t-79.5 93.5t-30 131q0 60 24.5 117.5t73.5 104t122.5 74.5t171.5 28v-225q-62 0 -107 -15t-68.5 -37.5t-23.5 -45.5q0 -18 17 -35t52 -28t89 -11h16.5t16.5 1l49 -215q-22 -6 -45 -9t-46 -3zM435 0v225h275
l-43 -225h-232z" />
    <glyph glyph-name="uniFB7C" unicode="&#x686;" horiz-adv-x="714" arabic-form="initial" 
d="M444 170v101q0 28 -19 50.5t-56 35.5t-91 13q-37 0 -76.5 -8t-68.5 -20l-85 189q52 32 111 48t119 16q69 0 133 -20.5t115 -61.5t81 -101.5t30 -140.5v-101h-193zM0 0v225h670l-43 -225h-627zM0 0q-8 0 -14 31t-6 83q0 50 6 80.5t14 30.5v-225zM325 -400
q-34 0 -55.5 21.5t-21.5 54.5q0 34 21.5 55.5t55.5 21.5t55.5 -21.5t21.5 -55.5q0 -33 -21.5 -54.5t-55.5 -21.5zM416 -239q-35 0 -57.5 22t-22.5 57t22.5 58t57.5 23t58 -23t23 -58t-23 -57t-58 -22zM234 -239q-35 0 -57.5 22t-22.5 57t22.5 58t57.5 23t58 -23t23 -58
t-23 -57t-58 -22z" />
    <glyph glyph-name="uniFB7D" unicode="&#x686;" horiz-adv-x="752" arabic-form="medial" 
d="M612 0v225h140v-225h-140zM0 0q-8 0 -14 31t-6 83q0 50 6 80.5t14 30.5v-225zM444 170v101q0 28 -19 50.5t-56 35.5t-91 13q-37 0 -76.5 -8t-68.5 -20l-85 189q52 32 111 48t119 16q69 0 133 -20.5t115 -61.5t81 -101.5t30 -140.5v-101h-193zM0 0v225h670l-43 -225h-627z
M752 0v225q8 0 14 -30.5t6 -80.5q0 -52 -6 -83t-14 -31zM325 -400q-34 0 -55.5 21.5t-21.5 54.5q0 34 21.5 55.5t55.5 21.5t55.5 -21.5t21.5 -55.5q0 -33 -21.5 -54.5t-55.5 -21.5zM416 -239q-35 0 -57.5 22t-22.5 57t22.5 58t57.5 23t58 -23t23 -58t-23 -57t-58 -22z
M234 -239q-35 0 -57.5 22t-22.5 57t22.5 58t57.5 23t58 -23t23 -58t-23 -57t-58 -22z" />
    <glyph glyph-name="uniFB89" unicode="&#x688;" horiz-adv-x="664" arabic-form="final" 
d="M472 0v225h192v-225h-192zM664 0v225q8 0 14 -30.5t6 -80.5q0 -52 -6 -83t-14 -31zM398 0q-1 106 -35.5 187.5t-101.5 136.5t-164 79l41 208q139 -32 240 -117t156.5 -211t56.5 -283h-193zM30 0v225h486v-225h-486zM79 706v95h29v227h96v-116q17 17 37.5 27t43.5 10
q54 0 85 -40t31 -108v-95h-322zM204 801h101q-1 28 -13 45.5t-35 15.5q-20 -1 -35.5 -18t-17.5 -43z" />
    <glyph glyph-name="uniFB8B" unicode="&#x698;" horiz-adv-x="440" arabic-form="final" 
d="M283 0v225h157v-225h-157zM0 -82q53 3 81.5 13t39.5 27t11 41v538h193v-538q0 -85 -35.5 -149t-100 -101.5t-153.5 -43.5zM440 0v225q8 0 14 -30.5t6 -80.5q0 -52 -6 -83t-14 -31zM229 939q34 0 55.5 -21.5t21.5 -54.5q0 -34 -21.5 -55.5t-55.5 -21.5t-55.5 21.5
t-21.5 55.5q0 33 21.5 54.5t55.5 21.5zM320 778q35 0 58 -22t23 -57t-23 -58t-58 -23t-57.5 23t-22.5 58t22.5 57t57.5 22zM138 778q35 0 58 -22t23 -57t-23 -58t-58 -23t-57.5 23t-22.5 58t22.5 57t57.5 22z" />
    <glyph glyph-name="uniFB8D" unicode="&#x691;" horiz-adv-x="440" arabic-form="final" 
d="M283 0v225h157v-225h-157zM0 -82q53 3 81.5 13t39.5 27t11 41v538h193v-538q0 -85 -35.5 -149t-100 -101.5t-153.5 -43.5zM440 0v225q8 0 14 -30.5t6 -80.5q0 -52 -6 -83t-14 -31zM68 632v95h29v227h96v-116q17 17 37.5 27t43.5 10q54 0 85 -40t31 -108v-95h-322z
M193 727h101q-1 28 -13 45.5t-35 15.5q-20 -1 -35.5 -18t-17.5 -43z" />
    <glyph glyph-name="uniFB8F" unicode="&#x6a9;" horiz-adv-x="1140" arabic-form="final" 
d="M619 225v-225h-233q-89 0 -154.5 25.5t-108 69t-63 99t-20.5 116.5q0 56 17 113t50 108l148 -67q-15 -31 -23 -60.5t-8 -56.5q0 -35 16 -63t50.5 -43.5t89.5 -15.5h239zM512 0q-8 0 -14 31t-6 83q0 50 6 80.5t14 30.5v-225zM512 0v225h174q44 0 74 9t45.5 24t15.5 33
q0 11 -7 23.5t-28 32t-60.5 51.5t-105.5 81l-78 59l115 180l70 -52q79 -58 133.5 -104t88.5 -87.5t49.5 -85.5t15.5 -98q0 -87 -41.5 -152.5t-115.5 -102t-171 -36.5h-174zM542 538v181l533 245v-241zM1140 0v225q8 0 14 -30.5t6 -80.5q0 -52 -6 -83t-14 -31zM1107 0
q-88 0 -152 37.5t-99 107t-35 164.5v8l192 -21l1 -2q2 -26 10.5 -41.5t28.5 -21.5t54 -6h33v-225h-33z" />
    <glyph glyph-name="uniFB90" unicode="&#x6a9;" horiz-adv-x="613" arabic-form="initial" 
d="M0 0v225h174q44 0 74 9t45.5 24t15.5 33q0 11 -7 23.5t-28 32t-60.5 51.5t-105.5 81l-78 59l115 180l70 -52q79 -58 133.5 -104t88.5 -87.5t49.5 -85.5t15.5 -98q0 -87 -41.5 -152.5t-115.5 -102t-171 -36.5h-174zM30 538v181l533 245v-241zM0 0q-8 0 -14 31t-6 83
q0 50 6 80.5t14 30.5v-225z" />
    <glyph glyph-name="uniFB91" unicode="&#x6a9;" horiz-adv-x="628" arabic-form="medial" 
d="M595 0q-88 0 -152 37.5t-99 107t-35 164.5v8l192 -21l1 -2q2 -26 10.5 -41.5t28.5 -21.5t54 -6h33v-225h-33zM0 0q-8 0 -14 31t-6 83q0 50 6 80.5t14 30.5v-225zM0 0v225h174q44 0 74 9t45.5 24t15.5 33q0 11 -7 23.5t-28 32t-60.5 51.5t-105.5 81l-78 59l115 180l70 -52
q79 -58 133.5 -104t88.5 -87.5t49.5 -85.5t15.5 -98q0 -87 -41.5 -152.5t-115.5 -102t-171 -36.5h-174zM30 538v181l533 245v-241zM628 0v225q8 0 14 -30.5t6 -80.5q0 -52 -6 -83t-14 -31z" />
    <glyph glyph-name="uniFB93" unicode="&#x6af;" horiz-adv-x="1140" arabic-form="final" 
d="M619 225v-225h-233q-89 0 -154.5 25.5t-108 69t-63 99t-20.5 116.5q0 56 17 113t50 108l148 -67q-15 -31 -23 -60.5t-8 -56.5q0 -35 16 -63t50.5 -43.5t89.5 -15.5h239zM512 0q-8 0 -14 31t-6 83q0 50 6 80.5t14 30.5v-225zM512 0v225h174q44 0 74 9t45.5 24t15.5 33
q0 11 -7 23.5t-28 32t-60.5 51.5t-105.5 81l-78 59l115 180l70 -52q79 -58 133.5 -104t88.5 -87.5t49.5 -85.5t15.5 -98q0 -87 -41.5 -152.5t-115.5 -102t-171 -36.5h-174zM542 538v181l533 245v-241zM1075 1060l-531 -244v124l531 245v-125zM1140 0v225q8 0 14 -30.5
t6 -80.5q0 -52 -6 -83t-14 -31zM1107 0q-88 0 -152 37.5t-99 107t-35 164.5v8l192 -21l1 -2q2 -26 10.5 -41.5t28.5 -21.5t54 -6h33v-225h-33z" />
    <glyph glyph-name="uniFB94" unicode="&#x6af;" horiz-adv-x="618" arabic-form="initial" 
d="M563 1060l-531 -244v124l531 245v-125zM0 0q-8 0 -14 31t-6 83q0 50 6 80.5t14 30.5v-225zM0 0v225h174q44 0 74 9t45.5 24t15.5 33q0 11 -7 23.5t-28 32t-60.5 51.5t-105.5 81l-78 59l115 180l70 -52q79 -58 133.5 -104t88.5 -87.5t49.5 -85.5t15.5 -98
q0 -87 -41.5 -152.5t-115.5 -102t-171 -36.5h-174zM30 538v181l533 245v-241z" />
    <glyph glyph-name="uniFB95" unicode="&#x6af;" horiz-adv-x="628" arabic-form="medial" 
d="M595 0q-88 0 -152 37.5t-99 107t-35 164.5v8l192 -21l1 -2q2 -26 10.5 -41.5t28.5 -21.5t54 -6h33v-225h-33zM0 0q-8 0 -14 31t-6 83q0 50 6 80.5t14 30.5v-225zM0 0v225h174q44 0 74 9t45.5 24t15.5 33q0 11 -7 23.5t-28 32t-60.5 51.5t-105.5 81l-78 59l115 180l70 -52
q79 -58 133.5 -104t88.5 -87.5t49.5 -85.5t15.5 -98q0 -87 -41.5 -152.5t-115.5 -102t-171 -36.5h-174zM30 538v181l533 245v-241zM563 1060l-531 -244v124l531 245v-125zM628 0v225q8 0 14 -30.5t6 -80.5q0 -52 -6 -83t-14 -31z" />
    <glyph glyph-name="uniFB9F" unicode="&#x6ba;" horiz-adv-x="988" arabic-form="final" 
d="M955 0q-118 0 -193 67.5t-90 185.5l190 38q2 -38 22.5 -52t70.5 -14h33v-225h-33zM441 -290q-102 0 -177.5 35.5t-125 98.5t-74 146.5t-24.5 180.5q0 34 3.5 68t9.5 68l187 -35q-4 -25 -5.5 -50t-1.5 -51q0 -77 20.5 -130t66.5 -79.5t121 -26.5t126 26.5t77 80t26 133.5
v362h193v-362q0 -99 -27.5 -183.5t-81.5 -147.5t-132.5 -98.5t-180.5 -35.5zM988 0v225q8 0 14 -30.5t6 -80.5q0 -52 -6 -83t-14 -31z" />
    <glyph glyph-name="uniFBA7" unicode="&#x6c1;" horiz-adv-x="735" arabic-form="final" 
d="M735 0q-75 0 -127.5 20t-90 64.5t-68.5 119.5q-24 62 -48.5 85.5t-57.5 23.5q-26 0 -44 -14.5t-30.5 -39t-22.5 -57t-20 -68.5l-186 63q23 79 49.5 142t61.5 107.5t82 68t110 23.5q104 0 172 -67t113 -183q12 -29 21.5 -42.5t28.5 -17t57 -3.5v-225zM735 0v225
q8 0 14 -30.5t6 -80.5q0 -52 -6 -83t-14 -31z" />
    <glyph glyph-name="uniFBA8" unicode="&#x6c1;" horiz-adv-x="412" arabic-form="initial" 
d="M159 537h193v-537h-352v225h159v312zM0 0q-8 0 -14 31t-6 83q0 50 6 80.5t14 30.5v-225zM157 -96q71 3 103 -27.5t32 -73.5q0 -45 -29 -73.5t-74 -28.5q-40 0 -71 26t-31 75q0 23 8 43t19 37l97 146h104l-94 -226z" />
    <glyph glyph-name="uniFBA9" unicode="&#x6c1;" horiz-adv-x="718" arabic-form="medial" 
d="M718 225v-225h-30q-43 0 -71.5 -31t-46.5 -82.5t-30.5 -114t-23.5 -125.5l-126 -51q-119 56 -202.5 158t-109.5 246h-78v225h251q0 -119 11.5 -201t37 -137t67.5 -92t104 -66l-77 18q0 93 17.5 179t53.5 153t91.5 106.5t131.5 39.5h30zM718 0v225q8 0 14 -30.5t6 -80.5
q0 -52 -6 -83t-14 -31zM0 0q-8 0 -14 31t-6 83q0 50 6 80.5t14 30.5v-225z" />
    <glyph glyph-name="uniFBAB" unicode="&#x6be;" horiz-adv-x="1230" arabic-form="final" 
d="M1197 0q-69 0 -119.5 37.5t-78 107t-27.5 164.5l134 -38q3 -18 13 -28t29 -14t49 -4h33v-225h-33zM45 -133q-4 30 -5 67.5t5.5 78t23 78t46 68t76 48.5t112.5 18v-225q-60 1 -93.5 -10.5t-49 -40.5t-19.5 -82h-96zM790 -2q-78 0 -155.5 24.5t-141.5 71t-102 113.5
t-38 153q0 74 29 135.5t78 98t110 36.5q47 0 87.5 -21t72 -57.5t49 -83.5t17.5 -99q0 -72 -31 -138.5t-93 -118.5t-154.5 -82t-214.5 -30v225q111 2 185.5 26.5t112 58.5t37.5 64q0 19 -9 34.5t-24 24.5t-33 9q-16 0 -30.5 -8.5t-23 -24t-8.5 -35.5q0 -30 20 -63.5t58 -63
t91.5 -48t119.5 -18.5q46 0 70.5 9t34 24t9.5 32q0 47 -59.5 91.5t-186 82.5t-329.5 67l27 223q165 -23 301 -58t234.5 -87t152 -125t53.5 -172q0 -71 -26 -122t-71 -84t-101.5 -48.5t-117.5 -15.5zM1230 0v225q8 0 14 -30.5t6 -80.5q0 -52 -6 -83t-14 -31z" />
    <glyph glyph-name="uniFBAC" unicode="&#x6be;" horiz-adv-x="873" arabic-form="initial" 
d="M517 -2q-78 0 -155.5 24.5t-141.5 71t-102 113.5t-38 153q0 74 29 135.5t78 98t110 36.5q47 0 87.5 -21t72 -57.5t49 -83.5t17.5 -99q0 -72 -35.5 -138.5t-103.5 -118.5t-165 -82t-219 -30v225q83 1 150.5 16t115.5 37.5t73.5 48t25.5 47.5q0 19 -9 34.5t-24 24.5t-33 9
q-16 0 -30.5 -8.5t-23 -24t-8.5 -35.5q0 -30 20 -63.5t58 -63t91.5 -48t119.5 -18.5q46 0 70.5 9t34 24t9.5 32q0 51 -46 89t-143.5 69t-252.5 61q-8 -19 -17 -21.5t-18 2.5t-19 6q-26 5 -55.5 9.5t-60.5 8.5l24 202q174 -24 317 -52t247 -71t160.5 -111t56.5 -170
q0 -71 -26 -122t-71 -84t-101.5 -48.5t-117.5 -15.5zM0 0q-8 0 -14 31t-6 83q0 50 6 80.5t14 30.5v-225z" />
    <glyph glyph-name="uniFBAD" unicode="&#x6be;" horiz-adv-x="957" arabic-form="medial" 
d="M924 0q-69 0 -119.5 37.5t-78 107t-27.5 164.5l134 -38q3 -18 13 -28t29 -14t49 -4h33v-225h-33zM0 0q-8 0 -14 31t-6 83q0 50 6 80.5t14 30.5v-225zM517 -2q-78 0 -155.5 24.5t-141.5 71t-102 113.5t-38 153q0 74 29 135.5t78 98t110 36.5q47 0 87.5 -21t72 -57.5
t49 -83.5t17.5 -99q0 -72 -35.5 -138.5t-103.5 -118.5t-165 -82t-219 -30v225q83 1 150.5 16t115.5 37.5t73.5 48t25.5 47.5q0 19 -9 34.5t-24 24.5t-33 9q-16 0 -30.5 -8.5t-23 -24t-8.5 -35.5q0 -30 20 -63.5t58 -63t91.5 -48t119.5 -18.5q46 0 70.5 9t34 24t9.5 32
q0 51 -46 89t-143.5 69t-252.5 61q-8 -19 -17 -21.5t-18 2.5t-19 6q-26 5 -55.5 9.5t-60.5 8.5l24 202q174 -24 317 -52t247 -71t160.5 -111t56.5 -170q0 -71 -26 -122t-71 -84t-101.5 -48.5t-117.5 -15.5zM957 0v225q8 0 14 -30.5t6 -80.5q0 -52 -6 -83t-14 -31z" />
    <glyph glyph-name="uniFBAF" unicode="&#x6d2;" horiz-adv-x="1157" arabic-form="final" 
d="M771 -177l42 -223q-31 -2 -61 -3t-58 -1q-85 0 -173 8t-168 27.5t-143.5 55t-100.5 90.5t-37 133q0 79 38.5 134.5t104.5 91t149 55t174 27t179 7.5h440v-225h-440q-88 0 -169 -9.5t-145 -23.5t-101 -29.5t-37 -27.5t35.5 -27t96.5 -29.5t138 -23.5t159 -9q19 0 38 0.5
t39 1.5zM1157 0v225q8 0 14 -30.5t6 -80.5q0 -52 -6 -83t-14 -31z" />
    <glyph glyph-name="uniFBB1" unicode="&#x6d3;" horiz-adv-x="1157" arabic-form="final" 
d="M771 -177l42 -223q-31 -2 -61 -3t-58 -1q-85 0 -173 8t-168 27.5t-143.5 55t-100.5 90.5t-37 133q0 79 38.5 134.5t104.5 91t149 55t174 27t179 7.5h440v-225h-440q-88 0 -169 -9.5t-145 -23.5t-101 -29.5t-37 -27.5t35.5 -27t96.5 -29.5t138 -23.5t159 -9q19 0 38 0.5
t39 1.5zM1157 0v225q8 0 14 -30.5t6 -80.5q0 -52 -6 -83t-14 -31zM253 348q-81 0 -131.5 31.5t-50.5 90.5q0 42 24 73t63.5 47.5t84.5 16.5q28 0 54.5 -6t49.5 -19l-39 -86q-13 2 -28 4t-28 2q-41 0 -65.5 -12t-24.5 -27q0 -14 24.5 -26.5t66.5 -12.5v-76zM44 318v106h320
v-106h-320z" />
    <glyph glyph-name="uniFBFD" unicode="&#x6cc;" horiz-adv-x="920" arabic-form="final" 
d="M485 -360q-147 0 -248.5 54.5t-154 156t-52.5 242.5q0 34 3 70.5t9 74.5l176 -35q-5 -33 -7.5 -58t-2.5 -49q0 -124 63.5 -177.5t207.5 -53.5q85 0 137 14.5t75.5 36t23.5 41.5q0 19 -16 34t-43 30t-60 30l55 178q39 -19 83.5 -43t84 -56t64.5 -74t25 -97
q0 -37 -13.5 -80t-44 -85t-79.5 -77t-120 -56t-166 -21zM839 0q-211 0 -318 105l136 160q9 -9 35.5 -18t65 -15.5t81.5 -6.5h81v-225h-81zM920 0v225q8 0 14 -30.5t6 -80.5q0 -52 -6 -83t-14 -31z" />
    <glyph glyph-name="uniFBFE" unicode="&#x6cc;" horiz-adv-x="412" arabic-form="initial" 
d="M159 537h193v-537h-352v225h159v312zM0 0q-8 0 -14 31t-6 83q0 50 6 80.5t14 30.5v-225zM281 -240q-35 0 -57.5 22t-22.5 57t22.5 58t57.5 23t58 -23t23 -58t-23 -57t-58 -22zM99 -240q-35 0 -57.5 22t-22.5 57t22.5 58t57.5 23t58 -23t23 -58t-23 -57t-58 -22z" />
    <glyph glyph-name="uniFBFF" unicode="&#x6cc;" horiz-adv-x="470" arabic-form="medial" 
d="M0 0v225h58q37 0 57 7.5t28 26t8 50.5v228h193v-228q0 -95 -35 -164t-99 -106.5t-152 -38.5h-58zM437 0q-88 0 -152 37.5t-99 107t-35 164.5h193q0 -32 8 -50.5t28 -26t57 -7.5h33v-225h-33zM470 0v225q8 0 14 -30.5t6 -80.5q0 -52 -6 -83t-14 -31zM0 0q-8 0 -14 31
t-6 83q0 50 6 80.5t14 30.5v-225zM323 -240q-35 0 -57.5 22t-22.5 57t22.5 58t57.5 23t58 -23t23 -58t-23 -57t-58 -22zM141 -240q-35 0 -57.5 22t-22.5 57t22.5 58t57.5 23t58 -23t23 -58t-23 -57t-58 -22z" />
    <glyph glyph-name="uniFE82" unicode="&#x622;" horiz-adv-x="368" arabic-form="final" 
d="M253 0v225h115v-225h-115zM70 0v763h193v-763h-193zM368 0v225q8 0 14 -30.5t6 -80.5q0 -52 -6 -83t-14 -31zM-18 862q0 74 33 114t102 40q29 0 72.5 -5t87.5 -9t74 -2v-104q-27 -2 -68.5 1.5t-82.5 8t-69 4.5q-30 0 -40.5 -9.5t-10.5 -38.5h-98z" />
    <glyph glyph-name="uniFE84" unicode="&#x623;" horiz-adv-x="368" arabic-form="final" 
d="M253 0v225h115v-225h-115zM70 0v763h193v-763h-193zM368 0v225q8 0 14 -30.5t6 -80.5q0 -52 -6 -83t-14 -31zM216 886q-81 0 -131.5 31.5t-50.5 90.5q0 42 24 73t63.5 47.5t84.5 16.5q28 0 54.5 -6t49.5 -19l-39 -86q-13 2 -28 4t-28 2q-41 0 -65.5 -12t-24.5 -27
q0 -14 24.5 -26.5t66.5 -12.5v-76zM7 856v106h320v-106h-320z" />
    <glyph glyph-name="uniFE86" unicode="&#x624;" horiz-adv-x="686" arabic-form="final" 
d="M532 0v225h154v-225h-154zM686 0v225q8 0 14 -30.5t6 -80.5q0 -52 -6 -83t-14 -31zM86 -297v225h165q74 0 100.5 19t26.5 51v503h193v-503q0 -90 -39.5 -156.5t-111.5 -102.5t-169 -36h-165zM345 0q-93 0 -161.5 37.5t-106 100.5t-37.5 138q0 61 23.5 112t65.5 89
t97.5 59t118.5 21q62 0 121 -18t105 -38l-77 -199q-85 53 -149 53q-35 0 -60 -12.5t-38.5 -31t-13.5 -36.5q0 -16 12 -33t37 -28.5t63 -11.5h170v-202h-170zM359 700q-81 0 -131.5 31.5t-50.5 90.5q0 42 24 73t63.5 47.5t84.5 16.5q28 0 54.5 -6t49.5 -19l-39 -86
q-13 2 -28 4t-28 2q-41 0 -65.5 -12t-24.5 -27q0 -14 24.5 -26.5t66.5 -12.5v-76zM150 670v106h320v-106h-320z" />
    <glyph glyph-name="uniFE88" unicode="&#x625;" horiz-adv-x="368" arabic-form="final" 
d="M253 0v225h115v-225h-115zM70 0v901h193v-901h-193zM368 0v225q8 0 14 -30.5t6 -80.5q0 -52 -6 -83t-14 -31zM216 -343q-81 0 -131.5 31.5t-50.5 90.5q0 42 24 73t63.5 47.5t84.5 16.5q28 0 54.5 -6t49.5 -19l-39 -86q-13 2 -28 4t-28 2q-41 0 -65.5 -12t-24.5 -27
q0 -14 24.5 -26.5t66.5 -12.5v-76zM7 -373v106h320v-106h-320z" />
    <glyph glyph-name="uniFE8A" unicode="&#x626;" horiz-adv-x="875" arabic-form="final" 
d="M485 -360q-147 0 -248.5 54.5t-154 156t-52.5 242.5q0 34 3 70.5t9 74.5l176 -35q-5 -33 -7.5 -58t-2.5 -49q0 -124 63.5 -177.5t207.5 -53.5q85 0 137 14.5t75.5 36t23.5 41.5q0 19 -16 34t-43 30t-60 30l55 178q39 -19 83.5 -43t84 -56t64.5 -74t25 -97
q0 -37 -13.5 -80t-44 -85t-79.5 -77t-120 -56t-166 -21zM839 0q-211 0 -318 105l136 160q9 -9 35.5 -18t65 -15.5t81.5 -6.5h81v-225h-81zM920 0v225q8 0 14 -30.5t6 -80.5q0 -52 -6 -83t-14 -31zM218 296q-81 0 -131.5 31.5t-50.5 90.5q0 42 24 73t63.5 47.5t84.5 16.5
q28 0 54.5 -6t49.5 -19l-39 -86q-13 2 -28 4t-28 2q-41 0 -65.5 -12t-24.5 -27q0 -14 24.5 -26.5t66.5 -12.5v-76zM9 266v106h320v-106h-320z" />
    <glyph glyph-name="uniFE8B" unicode="&#x626;" horiz-adv-x="412" arabic-form="initial" 
d="M159 537h193v-537h-352v225h159v312zM0 0q-8 0 -14 31t-6 83q0 50 6 80.5t14 30.5v-225zM305 680q-81 0 -131.5 31.5t-50.5 90.5q0 42 24 73t63.5 47.5t84.5 16.5q28 0 54.5 -6t49.5 -19l-39 -86q-13 2 -28 4t-28 2q-41 0 -65.5 -12t-24.5 -27q0 -14 24.5 -26.5
t66.5 -12.5v-76zM96 650v106h320v-106h-320z" />
    <glyph glyph-name="uniFE8C" unicode="&#x626;" horiz-adv-x="470" arabic-form="medial" 
d="M0 0v225h58q37 0 57 7.5t28 26t8 50.5v228h193v-228q0 -95 -35 -164t-99 -106.5t-152 -38.5h-58zM437 0q-88 0 -152 37.5t-99 107t-35 164.5h193q0 -32 8 -50.5t28 -26t57 -7.5h33v-225h-33zM470 0v225q8 0 14 -30.5t6 -80.5q0 -52 -6 -83t-14 -31zM0 0q-8 0 -14 31
t-6 83q0 50 6 80.5t14 30.5v-225zM281 680q-81 0 -131.5 31.5t-50.5 90.5q0 42 24 73t63.5 47.5t84.5 16.5q28 0 54.5 -6t49.5 -19l-39 -86q-13 2 -28 4t-28 2q-41 0 -65.5 -12t-24.5 -27q0 -14 24.5 -26.5t66.5 -12.5v-76zM72 650v106h320v-106h-320z" />
    <glyph glyph-name="uniFE8E" unicode="&#x627;" horiz-adv-x="368" arabic-form="final" 
d="M253 0v225h115v-225h-115zM70 0v901h193v-901h-193zM368 0v225q8 0 14 -30.5t6 -80.5q0 -52 -6 -83t-14 -31z" />
    <glyph glyph-name="uniFE90" unicode="&#x628;" horiz-adv-x="1088" arabic-form="final" 
d="M344 -1q-89 0 -154.5 25t-108 69t-63 99.5t-20.5 116.5q0 56 17 113t50 108l148 -67q-15 -31 -23 -60.5t-8 -56.5q0 -35 16 -63t50.5 -43.5t89.5 -15.5l341 1q37 0 57 7.5t28 26t8 50.5v228h193v-228q0 -95 -35 -164t-99 -106.5t-152 -38.5zM1058 0q-88 0 -152 37.5
t-99 107t-35 164.5h193q0 -32 8 -50.5t28 -26t57 -7.5h30v-225h-30zM1088 0v225q8 0 14 -30.5t6 -80.5q0 -52 -6 -83t-14 -31zM482 -311q-46 0 -75 28.5t-29 74.5t29 75t75 29t75 -29t29 -75t-29 -74.5t-75 -28.5z" />
    <glyph glyph-name="uniFE91" unicode="&#x628;" horiz-adv-x="412" arabic-form="initial" 
d="M159 537h193v-537h-352v225h159v312zM0 0q-8 0 -14 31t-6 83q0 50 6 80.5t14 30.5v-225zM190 -311q-46 0 -75 28.5t-29 74.5t29 75t75 29t75 -29t29 -75t-29 -74.5t-75 -28.5z" />
    <glyph glyph-name="uniFE92" unicode="&#x628;" horiz-adv-x="470" arabic-form="medial" 
d="M0 0v225h58q37 0 57 7.5t28 26t8 50.5v228h193v-228q0 -95 -35 -164t-99 -106.5t-152 -38.5h-58zM437 0q-88 0 -152 37.5t-99 107t-35 164.5h193q0 -32 8 -50.5t28 -26t57 -7.5h33v-225h-33zM470 0v225q8 0 14 -30.5t6 -80.5q0 -52 -6 -83t-14 -31zM0 0q-8 0 -14 31
t-6 83q0 50 6 80.5t14 30.5v-225zM232 -311q-46 0 -75 28.5t-29 74.5t29 75t75 29t75 -29t29 -75t-29 -74.5t-75 -28.5z" />
    <glyph glyph-name="uniFE94" unicode="&#x629;" horiz-adv-x="768" arabic-form="final" 
d="M335 49q-57 0 -110 15.5t-95 47t-66 79t-24 110.5q0 72 32.5 127t90 91.5t135 55t167.5 18.5v-185q-59 0 -102.5 -7.5t-72.5 -22t-43 -34.5t-14 -44q0 -20 10 -35t32.5 -23t57.5 -8t65.5 8.5t59.5 24.5l95 -161q-49 -28 -105.5 -42.5t-112.5 -14.5zM735 0
q-88 0 -152 37.5t-99 107t-35 164.5v317h193v-317q0 -32 8 -50.5t28 -26t57 -7.5h33v-225h-33zM768 0v225q8 0 14 -30.5t6 -80.5q0 -52 -6 -83t-14 -31zM414 706q-36 0 -58.5 22t-22.5 57q0 36 22.5 58.5t58.5 22.5q35 0 57.5 -22.5t22.5 -58.5q0 -35 -22.5 -57t-57.5 -22z
M232 706q-36 0 -58.5 22t-22.5 57q0 36 22.5 58.5t58.5 22.5q35 0 57.5 -22.5t22.5 -58.5q0 -35 -22.5 -57t-57.5 -22z" />
    <glyph glyph-name="uniFE96" unicode="&#x62a;" horiz-adv-x="1088" arabic-form="final" 
d="M344 -1q-89 0 -154.5 25t-108 69t-63 99.5t-20.5 116.5q0 56 17 113t50 108l148 -67q-15 -31 -23 -60.5t-8 -56.5q0 -35 16 -63t50.5 -43.5t89.5 -15.5l341 1q37 0 57 7.5t28 26t8 50.5v228h193v-228q0 -95 -35 -164t-99 -106.5t-152 -38.5zM1058 0q-88 0 -152 37.5
t-99 107t-35 164.5h193q0 -32 8 -50.5t28 -26t57 -7.5h30v-225h-30zM1088 0v225q8 0 14 -30.5t6 -80.5q0 -52 -6 -83t-14 -31zM574 589q-36 0 -58.5 22t-22.5 57q0 36 22.5 58.5t58.5 22.5q35 0 57.5 -22.5t22.5 -58.5q0 -35 -22.5 -57t-57.5 -22zM392 589q-36 0 -58.5 22
t-22.5 57q0 36 22.5 58.5t58.5 22.5q35 0 57.5 -22.5t22.5 -58.5q0 -35 -22.5 -57t-57.5 -22z" />
    <glyph glyph-name="uniFE97" unicode="&#x62a;" horiz-adv-x="412" arabic-form="initial" 
d="M159 537h193v-537h-352v225h159v312zM0 0q-8 0 -14 31t-6 83q0 50 6 80.5t14 30.5v-225zM348 617q-36 0 -58.5 22t-22.5 57q0 36 22.5 58.5t58.5 22.5q35 0 57.5 -22.5t22.5 -58.5q0 -35 -22.5 -57t-57.5 -22zM166 617q-36 0 -58.5 22t-22.5 57q0 36 22.5 58.5t58.5 22.5
q35 0 57.5 -22.5t22.5 -58.5q0 -35 -22.5 -57t-57.5 -22z" />
    <glyph glyph-name="uniFE98" unicode="&#x62a;" horiz-adv-x="470" arabic-form="medial" 
d="M0 0v225h58q37 0 57 7.5t28 26t8 50.5v228h193v-228q0 -95 -35 -164t-99 -106.5t-152 -38.5h-58zM437 0q-88 0 -152 37.5t-99 107t-35 164.5h193q0 -32 8 -50.5t28 -26t57 -7.5h33v-225h-33zM470 0v225q8 0 14 -30.5t6 -80.5q0 -52 -6 -83t-14 -31zM0 0q-8 0 -14 31
t-6 83q0 50 6 80.5t14 30.5v-225zM324 617q-36 0 -58.5 22t-22.5 57q0 36 22.5 58.5t58.5 22.5q35 0 57.5 -22.5t22.5 -58.5q0 -35 -22.5 -57t-57.5 -22zM142 617q-36 0 -58.5 22t-22.5 57q0 36 22.5 58.5t58.5 22.5q35 0 57.5 -22.5t22.5 -58.5q0 -35 -22.5 -57t-57.5 -22z
" />
    <glyph glyph-name="uniFE9A" unicode="&#x62b;" horiz-adv-x="1088" arabic-form="final" 
d="M344 -1q-89 0 -154.5 25t-108 69t-63 99.5t-20.5 116.5q0 56 17 113t50 108l148 -67q-15 -31 -23 -60.5t-8 -56.5q0 -35 16 -63t50.5 -43.5t89.5 -15.5l341 1q37 0 57 7.5t28 26t8 50.5v228h193v-228q0 -95 -35 -164t-99 -106.5t-152 -38.5zM1058 0q-88 0 -152 37.5
t-99 107t-35 164.5h193q0 -32 8 -50.5t28 -26t57 -7.5h30v-225h-30zM1088 0v225q8 0 14 -30.5t6 -80.5q0 -52 -6 -83t-14 -31zM482 911q34 0 55.5 -21.5t21.5 -54.5q0 -34 -21.5 -55.5t-55.5 -21.5t-55.5 21.5t-21.5 55.5q0 33 21.5 54.5t55.5 21.5zM573 750q35 0 58 -22
t23 -57t-23 -58t-58 -23t-57.5 23t-22.5 58t22.5 57t57.5 22zM391 750q35 0 58 -22t23 -57t-23 -58t-58 -23t-57.5 23t-22.5 58t22.5 57t57.5 22z" />
    <glyph glyph-name="uniFE9B" unicode="&#x62b;" horiz-adv-x="412" arabic-form="initial" 
d="M159 537h193v-537h-352v225h159v312zM0 0q-8 0 -14 31t-6 83q0 50 6 80.5t14 30.5v-225zM256 939q34 0 55.5 -21.5t21.5 -54.5q0 -34 -21.5 -55.5t-55.5 -21.5t-55.5 21.5t-21.5 55.5q0 33 21.5 54.5t55.5 21.5zM347 778q35 0 58 -22t23 -57t-23 -58t-58 -23t-57.5 23
t-22.5 58t22.5 57t57.5 22zM165 778q35 0 58 -22t23 -57t-23 -58t-58 -23t-57.5 23t-22.5 58t22.5 57t57.5 22z" />
    <glyph glyph-name="uniFE9C" unicode="&#x62b;" horiz-adv-x="470" arabic-form="medial" 
d="M0 0v225h58q37 0 57 7.5t28 26t8 50.5v228h193v-228q0 -95 -35 -164t-99 -106.5t-152 -38.5h-58zM437 0q-88 0 -152 37.5t-99 107t-35 164.5h193q0 -32 8 -50.5t28 -26t57 -7.5h33v-225h-33zM470 0v225q8 0 14 -30.5t6 -80.5q0 -52 -6 -83t-14 -31zM0 0q-8 0 -14 31
t-6 83q0 50 6 80.5t14 30.5v-225zM232 939q34 0 55.5 -21.5t21.5 -54.5q0 -34 -21.5 -55.5t-55.5 -21.5t-55.5 21.5t-21.5 55.5q0 33 21.5 54.5t55.5 21.5zM323 778q35 0 58 -22t23 -57t-23 -58t-58 -23t-57.5 23t-22.5 58t22.5 57t57.5 22zM141 778q35 0 58 -22t23 -57
t-23 -58t-58 -23t-57.5 23t-22.5 58t22.5 57t57.5 22z" />
    <glyph glyph-name="uniFE9E" unicode="&#x62c;" horiz-adv-x="741" arabic-form="final" 
d="M653 0v225h139v-225h-139zM484 170v101q0 28 -19 50.5t-56 35.5t-91 13q-37 0 -76.5 -8t-68.5 -20l-85 189q52 32 111 48t119 16q69 0 133 -20.5t115 -61.5t81 -101.5t30 -140.5v-101h-193zM394 -398q-67 0 -130 19.5t-113 57.5t-79 93.5t-29 128.5q0 60 24.5 117.5
t73.5 104t122.5 74.5t171.5 28v-225q-62 0 -107 -15t-68.5 -37.5t-23.5 -45.5q0 -18 17 -35t52 -28t89 -11q25 0 49.5 2t46.5 6l70 -203q-40 -16 -82 -23.5t-84 -7.5zM435 0v225h275l-43 -225h-232zM792 0v225q8 0 14 -30.5t6 -80.5q0 -52 -6 -83t-14 -31zM552 -270
q-46 0 -75 28.5t-29 74.5t29 75t75 29t75 -29t29 -75t-29 -74.5t-75 -28.5z" />
    <glyph glyph-name="uniFE9F" unicode="&#x62c;" horiz-adv-x="714" arabic-form="initial" 
d="M444 170v101q0 28 -19 50.5t-56 35.5t-91 13q-37 0 -76.5 -8t-68.5 -20l-85 189q52 32 111 48t119 16q69 0 133 -20.5t115 -61.5t81 -101.5t30 -140.5v-101h-193zM0 0v225h670l-43 -225h-627zM0 0q-8 0 -14 31t-6 83q0 50 6 80.5t14 30.5v-225zM325 -311q-46 0 -75 28.5
t-29 74.5t29 75t75 29t75 -29t29 -75t-29 -74.5t-75 -28.5z" />
    <glyph glyph-name="uniFEA0" unicode="&#x62c;" horiz-adv-x="752" arabic-form="medial" 
d="M612 0v225h140v-225h-140zM0 0q-8 0 -14 31t-6 83q0 50 6 80.5t14 30.5v-225zM444 170v101q0 28 -19 50.5t-56 35.5t-91 13q-37 0 -76.5 -8t-68.5 -20l-85 189q52 32 111 48t119 16q69 0 133 -20.5t115 -61.5t81 -101.5t30 -140.5v-101h-193zM0 0v225h670l-43 -225h-627z
M752 0v225q8 0 14 -30.5t6 -80.5q0 -52 -6 -83t-14 -31zM325 -311q-46 0 -75 28.5t-29 74.5t29 75t75 29t75 -29t29 -75t-29 -74.5t-75 -28.5z" />
    <glyph glyph-name="uniFEA2" unicode="&#x62d;" horiz-adv-x="792" arabic-form="final" 
d="M653 0v225h139v-225h-139zM484 170v101q0 28 -19 50.5t-56 35.5t-91 13q-37 0 -76.5 -8t-68.5 -20l-85 189q52 32 111 48t119 16q69 0 133 -20.5t115 -61.5t81 -101.5t30 -140.5v-101h-193zM394 -398q-67 0 -130 19.5t-113 57.5t-79 93.5t-29 128.5q0 60 24.5 117.5
t73.5 104t122.5 74.5t171.5 28v-225q-62 0 -107 -15t-68.5 -37.5t-23.5 -45.5q0 -18 17 -35t52 -28t89 -11q25 0 49.5 2t46.5 6l70 -203q-40 -16 -82 -23.5t-84 -7.5zM435 0v225h275l-43 -225h-232zM792 0v225q8 0 14 -30.5t6 -80.5q0 -52 -6 -83t-14 -31z" />
    <glyph glyph-name="uniFEA3" unicode="&#x62d;" horiz-adv-x="714" arabic-form="initial" 
d="M444 170v101q0 28 -19 50.5t-56 35.5t-91 13q-37 0 -76.5 -8t-68.5 -20l-85 189q52 32 111 48t119 16q69 0 133 -20.5t115 -61.5t81 -101.5t30 -140.5v-101h-193zM0 0v225h670l-43 -225h-627zM0 0q-8 0 -14 31t-6 83q0 50 6 80.5t14 30.5v-225z" />
    <glyph glyph-name="uniFEA4" unicode="&#x62d;" horiz-adv-x="752" arabic-form="medial" 
d="M612 0v225h140v-225h-140zM0 0q-8 0 -14 31t-6 83q0 50 6 80.5t14 30.5v-225zM444 170v101q0 28 -19 50.5t-56 35.5t-91 13q-37 0 -76.5 -8t-68.5 -20l-85 189q52 32 111 48t119 16q69 0 133 -20.5t115 -61.5t81 -101.5t30 -140.5v-101h-193zM0 0v225h670l-43 -225h-627z
M752 0v225q8 0 14 -30.5t6 -80.5q0 -52 -6 -83t-14 -31z" />
    <glyph glyph-name="uniFEA6" unicode="&#x62e;" horiz-adv-x="792" arabic-form="final" 
d="M653 0v225h139v-225h-139zM484 170v101q0 28 -19 50.5t-56 35.5t-91 13q-37 0 -76.5 -8t-68.5 -20l-85 189q52 32 111 48t119 16q69 0 133 -20.5t115 -61.5t81 -101.5t30 -140.5v-101h-193zM394 -398q-67 0 -130 19.5t-113 57.5t-79 93.5t-29 128.5q0 60 24.5 117.5
t73.5 104t122.5 74.5t171.5 28v-225q-62 0 -107 -15t-68.5 -37.5t-23.5 -45.5q0 -18 17 -35t52 -28t89 -11q25 0 49.5 2t46.5 6l70 -203q-40 -16 -82 -23.5t-84 -7.5zM435 0v225h275l-43 -225h-232zM792 0v225q8 0 14 -30.5t6 -80.5q0 -52 -6 -83t-14 -31zM318 698
q-46 0 -75 28.5t-29 74.5t29 75t75 29t75 -29t29 -75t-29 -74.5t-75 -28.5z" />
    <glyph glyph-name="uniFEA7" unicode="&#x62e;" horiz-adv-x="714" arabic-form="initial" 
d="M444 170v101q0 28 -19 50.5t-56 35.5t-91 13q-37 0 -76.5 -8t-68.5 -20l-85 189q52 32 111 48t119 16q69 0 133 -20.5t115 -61.5t81 -101.5t30 -140.5v-101h-193zM0 0v225h670l-43 -225h-627zM0 0q-8 0 -14 31t-6 83q0 50 6 80.5t14 30.5v-225zM278 698q-46 0 -75 28.5
t-29 74.5t29 75t75 29t75 -29t29 -75t-29 -74.5t-75 -28.5z" />
    <glyph glyph-name="uniFEA8" unicode="&#x62e;" horiz-adv-x="752" arabic-form="medial" 
d="M612 0v225h140v-225h-140zM0 0q-8 0 -14 31t-6 83q0 50 6 80.5t14 30.5v-225zM444 170v101q0 28 -19 50.5t-56 35.5t-91 13q-37 0 -76.5 -8t-68.5 -20l-85 189q52 32 111 48t119 16q69 0 133 -20.5t115 -61.5t81 -101.5t30 -140.5v-101h-193zM0 0v225h670l-43 -225h-627z
M752 0v225q8 0 14 -30.5t6 -80.5q0 -52 -6 -83t-14 -31zM278 698q-46 0 -75 28.5t-29 74.5t29 75t75 29t75 -29t29 -75t-29 -74.5t-75 -28.5z" />
    <glyph glyph-name="uniFEAA" unicode="&#x62f;" horiz-adv-x="664" arabic-form="final" 
d="M472 0v225h192v-225h-192zM664 0v225q8 0 14 -30.5t6 -80.5q0 -52 -6 -83t-14 -31zM398 0q-1 106 -35.5 187.5t-101.5 136.5t-164 79l41 208q139 -32 240 -117t156.5 -211t56.5 -283h-193zM30 0v225h486v-225h-486z" />
    <glyph glyph-name="uniFEAC" unicode="&#x630;" horiz-adv-x="664" arabic-form="final" 
d="M472 0v225h192v-225h-192zM664 0v225q8 0 14 -30.5t6 -80.5q0 -52 -6 -83t-14 -31zM398 0q-1 106 -35.5 187.5t-101.5 136.5t-164 79l41 208q139 -32 240 -117t156.5 -211t56.5 -283h-193zM30 0v225h486v-225h-486zM240 714q-46 0 -75 28.5t-29 74.5t29 75t75 29t75 -29
t29 -75t-29 -74.5t-75 -28.5z" />
    <glyph glyph-name="uniFEAE" unicode="&#x631;" horiz-adv-x="440" arabic-form="final" 
d="M283 0v225h157v-225h-157zM0 -82q53 3 81.5 13t39.5 27t11 41v538h193v-538q0 -85 -35.5 -149t-100 -101.5t-153.5 -43.5zM440 0v225q8 0 14 -30.5t6 -80.5q0 -52 -6 -83t-14 -31z" />
    <glyph glyph-name="uniFEB0" unicode="&#x632;" horiz-adv-x="440" arabic-form="final" 
d="M283 0v225h157v-225h-157zM0 -82q53 3 81.5 13t39.5 27t11 41v538h193v-538q0 -85 -35.5 -149t-100 -101.5t-153.5 -43.5zM440 0v225q8 0 14 -30.5t6 -80.5q0 -52 -6 -83t-14 -31zM229 640q-46 0 -75 28.5t-29 74.5t29 75t75 29t75 -29t29 -75t-29 -74.5t-75 -28.5z" />
    <glyph glyph-name="uniFEB2" unicode="&#x633;" horiz-adv-x="1689" arabic-form="final" 
d="M1656 0q-88 0 -152 37.5t-99 107t-35 164.5h193q0 -32 8 -50.5t28 -26t57 -7.5h33v-225h-33zM441 -234q-102 0 -177.5 35.5t-125 98.5t-74 146.5t-24.5 180.5q0 34 3.5 68t9.5 68l187 -35q-4 -25 -5.5 -50t-1.5 -51q0 -77 20.5 -130t66.5 -79.5t121 -26.5t126 26.5t77 80
t26 133.5v208h193v-208q0 -99 -27.5 -183.5t-81.5 -147.5t-132.5 -98.5t-180.5 -35.5zM983 0q-58 0 -111 28t-87 86.5t-34 149.5l105 45q0 -45 26.5 -68t57.5 -23q32 0 57.5 22.5t25.5 68.5v178h193v-223q0 -91 -34 -149.5t-87 -86.5t-112 -28zM1333 0q-58 0 -111 28
t-87 86.5t-34 149.5l105 45q0 -45 26.5 -68t57.5 -23q32 0 57.5 22.5t25.5 68.5v228h193v-273q0 -91 -34 -149.5t-87 -86.5t-112 -28zM1689 0v225q8 0 14 -30.5t6 -80.5q0 -52 -6 -83t-14 -31z" />
    <glyph glyph-name="uniFEB3" unicode="&#x633;" horiz-adv-x="1097" arabic-form="initial" 
d="M814 0q-58 0 -111 28t-87 86.5t-34 149.5l105 45q0 -45 26.5 -68t57.5 -23q32 0 57.5 22.5t25.5 68.5v228h193v-273q0 -91 -34 -149.5t-87 -86.5t-112 -28zM0 0v225h58q37 0 57 7.5t28 26t8 50.5v130h193v-130q0 -95 -35 -164.5t-99 -107t-152 -37.5h-58zM464 0
q-58 0 -111 28t-87 86.5t-34 149.5l105 45q0 -45 26.5 -68t57.5 -23q32 0 57.5 22.5t25.5 68.5v178h193v-223q0 -91 -34 -149.5t-87 -86.5t-112 -28zM0 0q-8 0 -14 31t-6 83q0 50 6 80.5t14 30.5v-225z" />
    <glyph glyph-name="uniFEB4" unicode="&#x633;" horiz-adv-x="1173" arabic-form="medial" 
d="M1140 0q-88 0 -152 37.5t-99 107t-35 164.5h193q0 -32 8 -50.5t28 -26t57 -7.5h33v-225h-33zM0 0q-8 0 -14 31t-6 83q0 50 6 80.5t14 30.5v-225zM814 0q-58 0 -111 28t-87 86.5t-34 149.5l105 45q0 -45 26.5 -68t57.5 -23q32 0 57.5 22.5t25.5 68.5v228h193v-273
q0 -91 -34 -149.5t-87 -86.5t-112 -28zM0 0v225h58q37 0 57 7.5t28 26t8 50.5v130h193v-130q0 -95 -35 -164.5t-99 -107t-152 -37.5h-58zM464 0q-58 0 -111 28t-87 86.5t-34 149.5l105 45q0 -45 26.5 -68t57.5 -23q32 0 57.5 22.5t25.5 68.5v178h193v-223q0 -91 -34 -149.5
t-87 -86.5t-112 -28zM1173 0v225q8 0 14 -30.5t6 -80.5q0 -52 -6 -83t-14 -31z" />
    <glyph glyph-name="uniFEB6" unicode="&#x634;" horiz-adv-x="1689" arabic-form="final" 
d="M1656 0q-88 0 -152 37.5t-99 107t-35 164.5h193q0 -32 8 -50.5t28 -26t57 -7.5h33v-225h-33zM441 -234q-102 0 -177.5 35.5t-125 98.5t-74 146.5t-24.5 180.5q0 34 3.5 68t9.5 68l187 -35q-4 -25 -5.5 -50t-1.5 -51q0 -77 20.5 -130t66.5 -79.5t121 -26.5t126 26.5t77 80
t26 133.5v208h193v-208q0 -99 -27.5 -183.5t-81.5 -147.5t-132.5 -98.5t-180.5 -35.5zM983 0q-58 0 -111 28t-87 86.5t-34 149.5l105 45q0 -45 26.5 -68t57.5 -23q32 0 57.5 22.5t25.5 68.5v178h193v-223q0 -91 -34 -149.5t-87 -86.5t-112 -28zM1333 0q-58 0 -111 28
t-87 86.5t-34 149.5l105 45q0 -45 26.5 -68t57.5 -23q32 0 57.5 22.5t25.5 68.5v228h193v-273q0 -91 -34 -149.5t-87 -86.5t-112 -28zM1689 0v225q8 0 14 -30.5t6 -80.5q0 -52 -6 -83t-14 -31zM1120 939q34 0 55.5 -21.5t21.5 -54.5q0 -34 -21.5 -55.5t-55.5 -21.5
t-55.5 21.5t-21.5 55.5q0 33 21.5 54.5t55.5 21.5zM1211 778q35 0 58 -22t23 -57t-23 -58t-58 -23t-57.5 23t-22.5 58t22.5 57t57.5 22zM1029 778q35 0 58 -22t23 -57t-23 -58t-58 -23t-57.5 23t-22.5 58t22.5 57t57.5 22z" />
    <glyph glyph-name="uniFEB7" unicode="&#x634;" horiz-adv-x="1097" arabic-form="initial" 
d="M814 0q-58 0 -111 28t-87 86.5t-34 149.5l105 45q0 -45 26.5 -68t57.5 -23q32 0 57.5 22.5t25.5 68.5v228h193v-273q0 -91 -34 -149.5t-87 -86.5t-112 -28zM0 0v225h58q37 0 57 7.5t28 26t8 50.5v130h193v-130q0 -95 -35 -164.5t-99 -107t-152 -37.5h-58zM464 0
q-58 0 -111 28t-87 86.5t-34 149.5l105 45q0 -45 26.5 -68t57.5 -23q32 0 57.5 22.5t25.5 68.5v178h193v-223q0 -91 -34 -149.5t-87 -86.5t-112 -28zM0 0q-8 0 -14 31t-6 83q0 50 6 80.5t14 30.5v-225zM601 939q34 0 55.5 -21.5t21.5 -54.5q0 -34 -21.5 -55.5t-55.5 -21.5
t-55.5 21.5t-21.5 55.5q0 33 21.5 54.5t55.5 21.5zM692 778q35 0 58 -22t23 -57t-23 -58t-58 -23t-57.5 23t-22.5 58t22.5 57t57.5 22zM510 778q35 0 58 -22t23 -57t-23 -58t-58 -23t-57.5 23t-22.5 58t22.5 57t57.5 22z" />
    <glyph glyph-name="uniFEB8" unicode="&#x634;" horiz-adv-x="1173" arabic-form="medial" 
d="M1140 0q-88 0 -152 37.5t-99 107t-35 164.5h193q0 -32 8 -50.5t28 -26t57 -7.5h33v-225h-33zM0 0q-8 0 -14 31t-6 83q0 50 6 80.5t14 30.5v-225zM814 0q-58 0 -111 28t-87 86.5t-34 149.5l105 45q0 -45 26.5 -68t57.5 -23q32 0 57.5 22.5t25.5 68.5v228h193v-273
q0 -91 -34 -149.5t-87 -86.5t-112 -28zM0 0v225h58q37 0 57 7.5t28 26t8 50.5v130h193v-130q0 -95 -35 -164.5t-99 -107t-152 -37.5h-58zM464 0q-58 0 -111 28t-87 86.5t-34 149.5l105 45q0 -45 26.5 -68t57.5 -23q32 0 57.5 22.5t25.5 68.5v178h193v-223q0 -91 -34 -149.5
t-87 -86.5t-112 -28zM1173 0v225q8 0 14 -30.5t6 -80.5q0 -52 -6 -83t-14 -31zM601 939q34 0 55.5 -21.5t21.5 -54.5q0 -34 -21.5 -55.5t-55.5 -21.5t-55.5 21.5t-21.5 55.5q0 33 21.5 54.5t55.5 21.5zM692 778q35 0 58 -22t23 -57t-23 -58t-58 -23t-57.5 23t-22.5 58
t22.5 57t57.5 22zM510 778q35 0 58 -22t23 -57t-23 -58t-58 -23t-57.5 23t-22.5 58t22.5 57t57.5 22z" />
    <glyph glyph-name="uniFEBA" unicode="&#x635;" horiz-adv-x="1787" arabic-form="final" 
d="M1578 0v225h209v-225h-209zM955 0q-95 0 -152.5 74t-65.5 202l126 9q3 -23 12 -36t28.5 -18.5t51.5 -5.5h699v-225h-699zM1461 0v265q0 48 -18.5 78.5t-50 45t-69.5 14.5t-80 -14t-81 -40.5t-70.5 -65t-50 -87.5t-18.5 -107h-160q0 47 9 103.5t30 116t54.5 115t83 99.5
t116 70t152.5 26q89 0 154 -28.5t107.5 -78t63.5 -113t21 -134.5v-265h-193zM441 -234q-102 0 -177.5 35.5t-125 98.5t-74 146.5t-24.5 180.5q0 34 3.5 68t9.5 68l187 -35q-4 -25 -5.5 -50t-1.5 -51q0 -77 20.5 -130t66.5 -79.5t121 -26.5t126 26.5t77 80t26 133.5v256h193
v-256q0 -99 -27.5 -183.5t-81.5 -147.5t-132.5 -98.5t-180.5 -35.5zM1787 0v225q8 0 14 -30.5t6 -80.5q0 -52 -6 -83t-14 -31z" />
    <glyph glyph-name="uniFEBB" unicode="&#x635;" horiz-adv-x="1186" arabic-form="initial" 
d="M943 0v265q0 48 -18.5 78.5t-50 45t-69.5 14.5t-80 -14t-81 -40.5t-70.5 -65t-50 -87.5t-18.5 -107h-160q0 47 9 103.5t30 116t54.5 115t83 99.5t116 70t152.5 26q89 0 154 -28.5t107.5 -78t63.5 -113t21 -134.5v-265h-193zM0 0v225h58q37 0 57 7.5t28 26t8 50.5v178h193
v-178q0 -95 -35 -164.5t-99 -107t-152 -37.5h-58zM437 0q-67 0 -116.5 37.5t-76 107t-26.5 164.5h126q0 -32 8 -50.5t28 -26t57 -7.5h699v-225h-699zM0 0q-8 0 -14 31t-6 83q0 50 6 80.5t14 30.5v-225z" />
    <glyph glyph-name="uniFEBC" unicode="&#x635;" horiz-adv-x="1251" arabic-form="medial" 
d="M1046 0v225h205v-225h-205zM0 0q-8 0 -14 31t-6 83q0 50 6 80.5t14 30.5v-225zM943 0v265q0 48 -18.5 78.5t-50 45t-69.5 14.5t-80 -14t-81 -40.5t-70.5 -65t-50 -87.5t-18.5 -107h-160q0 47 9 103.5t30 116t54.5 115t83 99.5t116 70t152.5 26q89 0 154 -28.5t107.5 -78
t63.5 -113t21 -134.5v-265h-193zM0 0v225h58q37 0 57 7.5t28 26t8 50.5v178h193v-178q0 -95 -35 -164.5t-99 -107t-152 -37.5h-58zM437 0q-67 0 -116.5 37.5t-76 107t-26.5 164.5h126q0 -32 8 -50.5t28 -26t57 -7.5h699v-225h-699zM1251 0v225q8 0 14 -30.5t6 -80.5
q0 -52 -6 -83t-14 -31z" />
    <glyph glyph-name="uniFEBE" unicode="&#x636;" horiz-adv-x="1787" arabic-form="final" 
d="M1578 0v225h209v-225h-209zM955 0q-95 0 -152.5 74t-65.5 202l126 9q3 -23 12 -36t28.5 -18.5t51.5 -5.5h699v-225h-699zM1461 0v265q0 48 -18.5 78.5t-50 45t-69.5 14.5t-80 -14t-81 -40.5t-70.5 -65t-50 -87.5t-18.5 -107h-160q0 47 9 103.5t30 116t54.5 115t83 99.5
t116 70t152.5 26q89 0 154 -28.5t107.5 -78t63.5 -113t21 -134.5v-265h-193zM441 -234q-102 0 -177.5 35.5t-125 98.5t-74 146.5t-24.5 180.5q0 34 3.5 68t9.5 68l187 -35q-4 -25 -5.5 -50t-1.5 -51q0 -77 20.5 -130t66.5 -79.5t121 -26.5t126 26.5t77 80t26 133.5v256h193
v-256q0 -99 -27.5 -183.5t-81.5 -147.5t-132.5 -98.5t-180.5 -35.5zM1787 0v225q8 0 14 -30.5t6 -80.5q0 -52 -6 -83t-14 -31zM1308 722q-46 0 -75 28.5t-29 74.5t29 75t75 29t75 -29t29 -75t-29 -74.5t-75 -28.5z" />
    <glyph glyph-name="uniFEBF" unicode="&#x636;" horiz-adv-x="1186" arabic-form="initial" 
d="M943 0v265q0 48 -18.5 78.5t-50 45t-69.5 14.5t-80 -14t-81 -40.5t-70.5 -65t-50 -87.5t-18.5 -107h-160q0 47 9 103.5t30 116t54.5 115t83 99.5t116 70t152.5 26q89 0 154 -28.5t107.5 -78t63.5 -113t21 -134.5v-265h-193zM0 0v225h58q37 0 57 7.5t28 26t8 50.5v178h193
v-178q0 -95 -35 -164.5t-99 -107t-152 -37.5h-58zM437 0q-67 0 -116.5 37.5t-76 107t-26.5 164.5h126q0 -32 8 -50.5t28 -26t57 -7.5h699v-225h-699zM0 0q-8 0 -14 31t-6 83q0 50 6 80.5t14 30.5v-225zM790 722q-46 0 -75 28.5t-29 74.5t29 75t75 29t75 -29t29 -75
t-29 -74.5t-75 -28.5z" />
    <glyph glyph-name="uniFEC0" unicode="&#x636;" horiz-adv-x="1251" arabic-form="medial" 
d="M1046 0v225h205v-225h-205zM0 0q-8 0 -14 31t-6 83q0 50 6 80.5t14 30.5v-225zM943 0v265q0 48 -18.5 78.5t-50 45t-69.5 14.5t-80 -14t-81 -40.5t-70.5 -65t-50 -87.5t-18.5 -107h-160q0 47 9 103.5t30 116t54.5 115t83 99.5t116 70t152.5 26q89 0 154 -28.5t107.5 -78
t63.5 -113t21 -134.5v-265h-193zM0 0v225h58q37 0 57 7.5t28 26t8 50.5v178h193v-178q0 -95 -35 -164.5t-99 -107t-152 -37.5h-58zM437 0q-67 0 -116.5 37.5t-76 107t-26.5 164.5h126q0 -32 8 -50.5t28 -26t57 -7.5h699v-225h-699zM1251 0v225q8 0 14 -30.5t6 -80.5
q0 -52 -6 -83t-14 -31zM790 722q-46 0 -75 28.5t-29 74.5t29 75t75 29t75 -29t29 -75t-29 -74.5t-75 -28.5z" />
    <glyph glyph-name="uniFEC2" unicode="&#x637;" horiz-adv-x="1031" arabic-form="final" 
d="M855 0v225h176v-225h-176zM724 0v265q0 48 -18.5 78.5t-50 45t-69.5 14.5t-80 -14t-81 -40.5t-70.5 -65t-50 -87.5t-18.5 -107h-106q0 47 8 103.5t26 116t48 115t73.5 99.5t101.5 70t134 26q89 0 154 -28.5t107.5 -78t63.5 -113t21 -134.5v-265h-193zM40 0v225h877v-225
h-877zM138 141v760h193v-626zM1031 0v225q8 0 14 -30.5t6 -80.5q0 -52 -6 -83t-14 -31z" />
    <glyph glyph-name="uniFEC3" unicode="&#x637;" horiz-adv-x="980" arabic-form="initial" 
d="M0 0v225h53v-225h-53zM737 0v265q0 48 -18.5 78.5t-50 45t-69.5 14.5t-80 -14t-81 -40.5t-70.5 -65t-50 -87.5t-18.5 -107h-106q0 47 8 103.5t26 116t48 115t73.5 99.5t101.5 70t134 26q89 0 154 -28.5t107.5 -78t63.5 -113t21 -134.5v-265h-193zM53 0v225h877v-225h-877
zM151 141v760h193v-626zM0 0q-8 0 -14 31t-6 83q0 50 6 80.5t14 30.5v-225z" />
    <glyph glyph-name="uniFEC4" unicode="&#x637;" horiz-adv-x="1045" arabic-form="medial" 
d="M873 0v225h172v-225h-172zM1045 0v225q8 0 14 -30.5t6 -80.5q0 -52 -6 -83t-14 -31zM737 0v265q0 48 -18.5 78.5t-50 45t-69.5 14.5t-80 -14t-81 -40.5t-70.5 -65t-50 -87.5t-18.5 -107h-106q0 47 8 103.5t26 116t48 115t73.5 99.5t101.5 70t134 26q89 0 154 -28.5
t107.5 -78t63.5 -113t21 -134.5v-265h-193zM53 0v225h877v-225h-877zM151 141v760h193v-626zM0 0q-8 0 -14 31t-6 83q0 50 6 80.5t14 30.5v-225zM0 0v225h53v-225h-53z" />
    <glyph glyph-name="uniFEC6" unicode="&#x638;" horiz-adv-x="1031" arabic-form="final" 
d="M855 0v225h176v-225h-176zM724 0v265q0 48 -18.5 78.5t-50 45t-69.5 14.5t-80 -14t-81 -40.5t-70.5 -65t-50 -87.5t-18.5 -107h-106q0 47 8 103.5t26 116t48 115t73.5 99.5t101.5 70t134 26q89 0 154 -28.5t107.5 -78t63.5 -113t21 -134.5v-265h-193zM40 0v225h877v-225
h-877zM138 141v760h193v-626zM1031 0v225q8 0 14 -30.5t6 -80.5q0 -52 -6 -83t-14 -31zM571 722q-46 0 -75 28.5t-29 74.5t29 75t75 29t75 -29t29 -75t-29 -74.5t-75 -28.5z" />
    <glyph glyph-name="uniFEC7" unicode="&#x638;" horiz-adv-x="980" arabic-form="initial" 
d="M0 0v225h53v-225h-53zM737 0v265q0 48 -18.5 78.5t-50 45t-69.5 14.5t-80 -14t-81 -40.5t-70.5 -65t-50 -87.5t-18.5 -107h-106q0 47 8 103.5t26 116t48 115t73.5 99.5t101.5 70t134 26q89 0 154 -28.5t107.5 -78t63.5 -113t21 -134.5v-265h-193zM53 0v225h877v-225h-877
zM151 141v760h193v-626zM0 0q-8 0 -14 31t-6 83q0 50 6 80.5t14 30.5v-225zM584 722q-46 0 -75 28.5t-29 74.5t29 75t75 29t75 -29t29 -75t-29 -74.5t-75 -28.5z" />
    <glyph glyph-name="uniFEC8" unicode="&#x638;" horiz-adv-x="1045" arabic-form="medial" 
d="M873 0v225h172v-225h-172zM1045 0v225q8 0 14 -30.5t6 -80.5q0 -52 -6 -83t-14 -31zM737 0v265q0 48 -18.5 78.5t-50 45t-69.5 14.5t-80 -14t-81 -40.5t-70.5 -65t-50 -87.5t-18.5 -107h-106q0 47 8 103.5t26 116t48 115t73.5 99.5t101.5 70t134 26q89 0 154 -28.5
t107.5 -78t63.5 -113t21 -134.5v-265h-193zM53 0v225h877v-225h-877zM151 141v760h193v-626zM0 0q-8 0 -14 31t-6 83q0 50 6 80.5t14 30.5v-225zM0 0v225h53v-225h-53zM584 722q-46 0 -75 28.5t-29 74.5t29 75t75 29t75 -29t29 -75t-29 -74.5t-75 -28.5z" />
    <glyph glyph-name="uniFECA" unicode="&#x639;" horiz-adv-x="757" arabic-form="final" 
d="M390 -398q-79 0 -143.5 24t-110.5 64t-71 88.5t-25 97.5q0 57 30.5 106t79 90t103.5 75t104 62q35 20 62 36.5t43 30.5t16 25t-17 21.5t-48 17t-75 6.5q-33 0 -63.5 -5t-61.5 -17l-22 -35l-109 72l97 158q39 12 84 20t100 8q91 0 160.5 -24t108.5 -66.5t39 -100.5
q0 -47 -25 -89t-65.5 -79t-88.5 -71t-95 -64q-33 -21 -62.5 -41t-52.5 -39t-36 -36.5t-13 -34.5q0 -18 17 -35t52 -28t89 -11q22 0 46.5 2t52 6.5t58.5 11.5l65 -188q-51 -29 -108 -43.5t-115 -14.5zM580 0q-126 0 -227.5 44.5t-171 126t-99.5 190.5l134 59
q10 -58 37.5 -102t69 -68.5t92.5 -24.5h342v-225h-177zM757 0v225q8 0 14 -30.5t6 -80.5q0 -52 -6 -83t-14 -31z" />
    <glyph glyph-name="uniFECB" unicode="&#x639;" horiz-adv-x="627" arabic-form="initial" 
d="M402 67q-88 0 -160.5 24t-115.5 75.5t-43 132.5q0 62 26 108.5t70 77.5t101 46.5t118 15.5q51 0 101.5 -12t91.5 -36l-85 -188q-25 5 -53.5 8t-54.5 3q-65 0 -93.5 -17t-28.5 -39q0 -10 9 -19.5t36.5 -15.5t80.5 -6v-158zM0 0v225h597v-225h-597zM0 0q-8 0 -14 31t-6 83
q0 50 6 80.5t14 30.5v-225z" />
    <glyph glyph-name="uniFECC" unicode="&#x639;" horiz-adv-x="749" arabic-form="medial" 
d="M0 0v225h280q22 0 46.5 4.5t48.5 12.5t43.5 17.5t31 19.5t11.5 19q0 11 -17.5 22t-48.5 18.5t-72 7.5q-34 0 -65 -6t-60 -18l-26 -24l-107 63l97 158q39 12 84 20t99 8q92 0 161.5 -24t108.5 -67t39 -101q0 -48 -26 -93t-70 -84.5t-99 -72t-114 -56t-114.5 -36.5
t-100.5 -13h-130zM563 0q-126 0 -227.5 44.5t-171 126t-99.5 190.5l137 59q10 -58 36.5 -102t67.5 -68.5t91 -24.5h352v-225h-186zM749 0v225q8 0 14 -30.5t6 -80.5q0 -52 -6 -83t-14 -31zM0 0q-8 0 -14 31t-6 83q0 50 6 80.5t14 30.5v-225z" />
    <glyph glyph-name="uniFECE" unicode="&#x63a;" horiz-adv-x="757" arabic-form="final" 
d="M390 -398q-79 0 -143.5 24t-110.5 64t-71 88.5t-25 97.5q0 57 30.5 106t79 90t103.5 75t104 62q35 20 62 36.5t43 30.5t16 25t-17 21.5t-48 17t-75 6.5q-33 0 -63.5 -5t-61.5 -17l-22 -35l-109 72l97 158q39 12 84 20t100 8q91 0 160.5 -24t108.5 -66.5t39 -100.5
q0 -47 -25 -89t-65.5 -79t-88.5 -71t-95 -64q-33 -21 -62.5 -41t-52.5 -39t-36 -36.5t-13 -34.5q0 -18 17 -35t52 -28t89 -11q22 0 46.5 2t52 6.5t58.5 11.5l65 -188q-51 -29 -108 -43.5t-115 -14.5zM580 0q-126 0 -227.5 44.5t-171 126t-99.5 190.5l134 59
q10 -58 37.5 -102t69 -68.5t92.5 -24.5h342v-225h-177zM757 0v225q8 0 14 -30.5t6 -80.5q0 -52 -6 -83t-14 -31zM363 650q-46 0 -75 28.5t-29 74.5t29 75t75 29t75 -29t29 -75t-29 -74.5t-75 -28.5z" />
    <glyph glyph-name="uniFECF" unicode="&#x63a;" horiz-adv-x="627" arabic-form="initial" 
d="M402 67q-88 0 -160.5 24t-115.5 75.5t-43 132.5q0 62 26 108.5t70 77.5t101 46.5t118 15.5q51 0 101.5 -12t91.5 -36l-85 -188q-25 5 -53.5 8t-54.5 3q-65 0 -93.5 -17t-28.5 -39q0 -10 9 -19.5t36.5 -15.5t80.5 -6v-158zM0 0v225h597v-225h-597zM0 0q-8 0 -14 31t-6 83
q0 50 6 80.5t14 30.5v-225zM398 650q-46 0 -75 28.5t-29 74.5t29 75t75 29t75 -29t29 -75t-29 -74.5t-75 -28.5z" />
    <glyph glyph-name="uniFED0" unicode="&#x63a;" horiz-adv-x="749" arabic-form="medial" 
d="M0 0v225h280q22 0 46.5 4.5t48.5 12.5t43.5 17.5t31 19.5t11.5 19q0 11 -17.5 22t-48.5 18.5t-72 7.5q-34 0 -65 -6t-60 -18l-26 -24l-107 63l97 158q39 12 84 20t99 8q92 0 161.5 -24t108.5 -67t39 -101q0 -48 -26 -93t-70 -84.5t-99 -72t-114 -56t-114.5 -36.5
t-100.5 -13h-130zM563 0q-126 0 -227.5 44.5t-171 126t-99.5 190.5l137 59q10 -58 36.5 -102t67.5 -68.5t91 -24.5h352v-225h-186zM749 0v225q8 0 14 -30.5t6 -80.5q0 -52 -6 -83t-14 -31zM0 0q-8 0 -14 31t-6 83q0 50 6 80.5t14 30.5v-225zM345 650q-46 0 -75 28.5
t-29 74.5t29 75t75 29t75 -29t29 -75t-29 -74.5t-75 -28.5z" />
    <glyph glyph-name="uniFED2" unicode="&#x641;" horiz-adv-x="1196" arabic-form="final" 
d="M386 0q-89 0 -154.5 25.5t-108 69t-63 99t-20.5 116.5q0 56 17 113t50 108l148 -67q-15 -31 -23 -60.5t-8 -56.5q0 -35 16 -63t50.5 -43.5t89.5 -15.5h44v-225h-38zM1196 0v225q8 0 14 -30.5t6 -80.5q0 -52 -6 -83t-14 -31zM424 0q-8 0 -14 31t-6 83q0 50 6 80.5t14 30.5
v-225zM424 0v225q57 0 105.5 1.5t89.5 2.5q8 1 15 -6t14 -13.5t13 -6.5q90 8 141.5 22.5t73.5 34t22 43.5q0 19 -11 34.5t-30.5 24.5t-45.5 9t-46.5 -10.5t-31.5 -26t-11 -31.5q0 -23 22.5 -43t75.5 -35t145 -23q7 0 13.5 7t13.5 14t14 6q41 -2 88 -3t102 -1v-225
q-146 0 -268 18t-211.5 56t-138.5 97t-49 140q0 73 38 128t102 86.5t141 31.5q78 0 142 -31t102 -86.5t38 -129.5q0 -73 -38.5 -126t-105.5 -89t-153 -56.5t-181 -29.5t-190 -9zM810 660q-46 0 -75 28.5t-29 74.5t29 75t75 29t75 -29t29 -75t-29 -74.5t-75 -28.5z" />
    <glyph glyph-name="uniFED3" unicode="&#x641;" horiz-adv-x="677" arabic-form="initial" 
d="M0 0v225h434v276h193v-501h-627zM232 12q-37 16 -68 53.5t-49.5 89.5t-18.5 111q0 89 41 154t110.5 101t152.5 36q63 0 122 -18t105 -38l-77 -194q-48 20 -89 30t-77 10q-40 0 -67 -11t-41 -29.5t-14 -41.5q0 -22 12.5 -49t28.5 -37zM0 0q-8 0 -14 31t-6 83q0 50 6 80.5
t14 30.5v-225zM401 660q-46 0 -75 28.5t-29 74.5t29 75t75 29t75 -29t29 -75t-29 -74.5t-75 -28.5z" />
    <glyph glyph-name="uniFED4" unicode="&#x641;" horiz-adv-x="772" arabic-form="medial" 
d="M0 0v225q57 0 105.5 1.5t89.5 2.5q8 1 15 -6t14 -13.5t13 -6.5q90 8 141.5 22.5t73.5 34t22 43.5q0 19 -11 34.5t-30.5 24.5t-45.5 9t-46.5 -10.5t-31.5 -26t-11 -31.5q0 -23 22.5 -43t75.5 -35t145 -23q7 0 13.5 7t13.5 14t14 6q41 -2 88 -3t102 -1v-225q-146 0 -268 18
t-211.5 56t-138.5 97t-49 140q0 73 38 128t102 86.5t141 31.5q78 0 142 -31t102 -86.5t38 -129.5q0 -73 -38.5 -126t-105.5 -89t-153 -56.5t-181 -29.5t-190 -9zM772 0v225q8 0 14 -30.5t6 -80.5q0 -52 -6 -83t-14 -31zM0 0q-8 0 -14 31t-6 83q0 50 6 80.5t14 30.5v-225z
M386 660q-46 0 -75 28.5t-29 74.5t29 75t75 29t75 -29t29 -75t-29 -74.5t-75 -28.5z" />
    <glyph glyph-name="uniFED6" unicode="&#x642;" horiz-adv-x="1087" arabic-form="final" 
d="M786 0v225h301v-225h-301zM1087 0v225q8 0 14 -30.5t6 -80.5q0 -52 -6 -83t-14 -31zM505 -358q-109 0 -195 38.5t-146.5 107t-92 159t-31.5 194.5q0 57 9.5 113.5t25.5 107.5l180 -34q-12 -51 -17 -94.5t-5 -78.5q0 -96 33.5 -160t94 -96t142.5 -32q85 0 146.5 32.5
t95.5 94t34 149.5v391l193 -33v-358q0 -105 -32 -196t-92.5 -159.5t-147 -107t-195.5 -38.5zM746 0q-92 0 -161 37.5t-106.5 100.5t-37.5 138q0 61 23.5 112t65.5 89t97.5 59t118.5 21q62 0 121 -18t105 -38l-77 -199q-88 41 -149 41q-35 0 -60 -9.5t-38.5 -24t-13.5 -28.5
q0 -12 12 -25t37 -22t63 -9h170v-225h-170zM838 637q-36 0 -58.5 22t-22.5 57q0 36 22.5 58.5t58.5 22.5q35 0 57.5 -22.5t22.5 -58.5q0 -35 -22.5 -57t-57.5 -22zM656 637q-36 0 -58.5 22t-22.5 57q0 36 22.5 58.5t58.5 22.5q35 0 57.5 -22.5t22.5 -58.5q0 -35 -22.5 -57
t-57.5 -22z" />
    <glyph glyph-name="uniFED7" unicode="&#x642;" horiz-adv-x="677" arabic-form="initial" 
d="M0 0v225h434v276h193v-501h-627zM232 12q-37 16 -68 53.5t-49.5 89.5t-18.5 111q0 89 41 154t110.5 101t152.5 36q63 0 122 -18t105 -38l-77 -194q-48 20 -89 30t-77 10q-40 0 -67 -11t-41 -29.5t-14 -41.5q0 -22 12.5 -49t28.5 -37zM0 0q-8 0 -14 31t-6 83q0 50 6 80.5
t14 30.5v-225zM493 637q-36 0 -58.5 22t-22.5 57q0 36 22.5 58.5t58.5 22.5q35 0 57.5 -22.5t22.5 -58.5q0 -35 -22.5 -57t-57.5 -22zM311 637q-36 0 -58.5 22t-22.5 57q0 36 22.5 58.5t58.5 22.5q35 0 57.5 -22.5t22.5 -58.5q0 -35 -22.5 -57t-57.5 -22z" />
    <glyph glyph-name="uniFED8" unicode="&#x642;" horiz-adv-x="772" arabic-form="medial" 
d="M0 0v225q57 0 105.5 1.5t89.5 2.5q8 1 15 -6t14 -13.5t13 -6.5q90 8 141.5 22.5t73.5 34t22 43.5q0 19 -11 34.5t-30.5 24.5t-45.5 9t-46.5 -10.5t-31.5 -26t-11 -31.5q0 -23 22.5 -43t75.5 -35t145 -23q7 0 13.5 7t13.5 14t14 6q41 -2 88 -3t102 -1v-225q-146 0 -268 18
t-211.5 56t-138.5 97t-49 140q0 73 38 128t102 86.5t141 31.5q78 0 142 -31t102 -86.5t38 -129.5q0 -73 -38.5 -126t-105.5 -89t-153 -56.5t-181 -29.5t-190 -9zM772 0v225q8 0 14 -30.5t6 -80.5q0 -52 -6 -83t-14 -31zM0 0q-8 0 -14 31t-6 83q0 50 6 80.5t14 30.5v-225z
M478 637q-36 0 -58.5 22t-22.5 57q0 36 22.5 58.5t58.5 22.5q35 0 57.5 -22.5t22.5 -58.5q0 -35 -22.5 -57t-57.5 -22zM296 637q-36 0 -58.5 22t-22.5 57q0 36 22.5 58.5t58.5 22.5q35 0 57.5 -22.5t22.5 -58.5q0 -35 -22.5 -57t-57.5 -22z" />
    <glyph glyph-name="uniFEDA" unicode="&#x643;" horiz-adv-x="1132" arabic-form="final" 
d="M915 0v225h217v-225h-217zM396 0q-89 0 -154.5 25.5t-108 69t-63 99t-20.5 116.5q0 56 17 113t50 108l148 -67q-15 -31 -23 -60.5t-8 -56.5q0 -35 16 -63t50.5 -43.5t89.5 -15.5h434v676h193v-901h-621zM1132 0v225q8 0 14 -30.5t6 -80.5q0 -52 -6 -83t-14 -31zM396 424
v103q50 0 106.5 6t92.5 16l-11 -36l-119 46q-30 12 -44.5 33t-14.5 45q0 40 27.5 79.5t77.5 66.5t117 27v-119q-44 0 -77.5 -16t-52 -40.5t-18.5 -48.5l-24 90l150 -60q38 -15 52 -38t14 -42q0 -21 -10 -40.5t-38 -36t-83 -26t-145 -9.5z" />
    <glyph glyph-name="uniFEDB" unicode="&#x643;" horiz-adv-x="613" arabic-form="initial" 
d="M0 0v225h174q44 0 74 9t45.5 24t15.5 33q0 11 -7 23.5t-28 32t-60.5 51.5t-105.5 81l-78 59l115 180l70 -52q79 -58 133.5 -104t88.5 -87.5t49.5 -85.5t15.5 -98q0 -87 -41.5 -152.5t-115.5 -102t-171 -36.5h-174zM30 538v181l533 245v-241zM0 0q-8 0 -14 31t-6 83
q0 50 6 80.5t14 30.5v-225z" />
    <glyph glyph-name="uniFEDC" unicode="&#x643;" horiz-adv-x="628" arabic-form="medial" 
d="M595 0q-88 0 -152 37.5t-99 107t-35 164.5v8l192 -21l1 -2q2 -26 10.5 -41.5t28.5 -21.5t54 -6h33v-225h-33zM0 0q-8 0 -14 31t-6 83q0 50 6 80.5t14 30.5v-225zM0 0v225h174q44 0 74 9t45.5 24t15.5 33q0 11 -7 23.5t-28 32t-60.5 51.5t-105.5 81l-78 59l115 180l70 -52
q79 -58 133.5 -104t88.5 -87.5t49.5 -85.5t15.5 -98q0 -87 -41.5 -152.5t-115.5 -102t-171 -36.5h-174zM30 538v181l533 245v-241zM628 0v225q8 0 14 -30.5t6 -80.5q0 -52 -6 -83t-14 -31z" />
    <glyph glyph-name="uniFEDE" unicode="&#x644;" horiz-adv-x="947" arabic-form="final" 
d="M916 0q-88 0 -152 37.5t-99 107t-35 164.5h193q0 -32 8 -50.5t28 -26t57 -7.5h33v-225h-33zM430 -212q-73 0 -143 29t-125.5 87t-88.5 144t-33 201q0 37 3.5 71t9.5 68l187 -35q-4 -25 -5.5 -50t-1.5 -48q0 -79 19.5 -132t61.5 -80t107 -27t112 26.5t72 80t25 133.5v645
h193v-645q0 -117 -33.5 -204.5t-89.5 -146t-126 -88t-144 -29.5zM947 0v225q8 0 14 -30.5t6 -80.5q0 -52 -6 -83t-14 -31z" />
    <glyph glyph-name="uniFEDF" unicode="&#x644;" horiz-adv-x="394" arabic-form="initial" 
d="M0 0v225h151v676h193v-901h-344zM0 0q-8 0 -14 31t-6 83q0 50 6 80.5t14 30.5v-225z" />
    <glyph glyph-name="uniFEE0" unicode="&#x644;" horiz-adv-x="459" arabic-form="medial" 
d="M0 0v225h55q37 0 57 7.5t28 26t8 50.5v592h193v-592q0 -95 -35 -164t-99 -106.5t-152 -38.5h-55zM434 0q-88 0 -152 37.5t-99 107t-35 164.5h193q0 -32 8 -50.5t28 -26t57 -7.5h25v-225h-25zM459 0v225q8 0 14 -30.5t6 -80.5q0 -52 -6 -83t-14 -31zM0 0q-8 0 -14 31
t-6 83q0 50 6 80.5t14 30.5v-225z" />
    <glyph glyph-name="uniFEE2" unicode="&#x645;" horiz-adv-x="831" arabic-form="final" 
d="M798 0q-83 0 -145 37.5t-96.5 107t-34.5 164.5v16l171 -16l13 -22q3 -23 12 -37t28.5 -19.5t51.5 -5.5h33v-225h-33zM63 -383q-4 36 -8 77.5t-7.5 81.5t-5.5 74t-2 56q0 67 18.5 128.5t54.5 110t88 76.5t119 28q19 0 53 -8t82 -23.5t107.5 -37t128.5 -49.5l-42 -168
q-50 11 -101.5 22t-97.5 20t-80 14t-50 5q-21 0 -41 -10.5t-33 -36.5t-13 -71q0 -19 2.5 -52t6.5 -74t8.5 -83t7.5 -80h-195zM649 -37l-192 71q29 43 44 92.5t15 99.5q0 58 -18 85t-48 27q-20 0 -44 -12t-49.5 -34.5t-52.5 -54.5l-172 114q27 35 58.5 71.5t69.5 67.5
t84.5 50t102.5 19q61 0 109.5 -24t82.5 -67.5t52 -103.5t18 -133q0 -71 -16.5 -141t-43.5 -127zM831 0v225q8 0 14 -30.5t6 -80.5q0 -52 -6 -83t-14 -31z" />
    <glyph glyph-name="uniFEE3" unicode="&#x645;" horiz-adv-x="800" arabic-form="initial" 
d="M0 0v225q38 0 65.5 9t52.5 32.5t55 64.5q27 35 58 71.5t69.5 67.5t86 50t107.5 19q59 0 106 -24t80.5 -68t51.5 -105t18 -136q0 -60 -14 -124.5t-37 -118.5l-189 70q23 40 35 84t12 89q0 58 -18 85t-48 27q-22 0 -49 -14.5t-56 -42t-59 -66.5q-51 -70 -99.5 -112.5
t-102.5 -62.5t-125 -20zM688 188l11 -225q-106 -6 -184 1.5t-136.5 27.5t-104 51t-84.5 72l123 129q32 -33 82.5 -46.5t122.5 -14t170 4.5zM0 0q-8 0 -14 31t-6 83q0 50 6 80.5t14 30.5v-225z" />
    <glyph glyph-name="uniFEE4" unicode="&#x645;" horiz-adv-x="869" arabic-form="medial" 
d="M836 0q-83 0 -145 37.5t-96.5 107t-34.5 164.5v16l171 -16l13 -22q3 -23 12 -37t28.5 -19.5t51.5 -5.5h33v-225h-33zM0 0q-8 0 -14 31t-6 83q0 50 6 80.5t14 30.5v-225zM0 0v225q38 0 65.5 9t52.5 32.5t55 64.5q27 35 58 71.5t69.5 67.5t86 50t107.5 19q59 0 106 -24
t80.5 -68t51.5 -105t18 -136q0 -60 -14 -124.5t-37 -118.5l-189 70q23 40 35 84t12 89q0 58 -18 85t-48 27q-22 0 -49 -14.5t-56 -42t-59 -66.5q-51 -70 -99.5 -112.5t-102.5 -62.5t-125 -20zM688 188l11 -225q-106 -6 -184 1.5t-136.5 27.5t-104 51t-84.5 72l123 129
q32 -33 82.5 -46.5t122.5 -14t170 4.5zM869 0v225q8 0 14 -30.5t6 -80.5q0 -52 -6 -83t-14 -31z" />
    <glyph glyph-name="uniFEE6" unicode="&#x646;" horiz-adv-x="988" arabic-form="final" 
d="M955 0q-118 0 -193 67.5t-90 185.5l190 38q2 -38 22.5 -52t70.5 -14h33v-225h-33zM441 -290q-102 0 -177.5 35.5t-125 98.5t-74 146.5t-24.5 180.5q0 34 3.5 68t9.5 68l187 -35q-4 -25 -5.5 -50t-1.5 -51q0 -77 20.5 -130t66.5 -79.5t121 -26.5t126 26.5t77 80t26 133.5
v362h193v-362q0 -99 -27.5 -183.5t-81.5 -147.5t-132.5 -98.5t-180.5 -35.5zM988 0v225q8 0 14 -30.5t6 -80.5q0 -52 -6 -83t-14 -31zM452 543q-46 0 -75 28.5t-29 74.5t29 75t75 29t75 -29t29 -75t-29 -74.5t-75 -28.5z" />
    <glyph glyph-name="uniFEE7" unicode="&#x646;" horiz-adv-x="412" arabic-form="initial" 
d="M159 537h193v-537h-352v225h159v312zM0 0q-8 0 -14 31t-6 83q0 50 6 80.5t14 30.5v-225zM256 640q-46 0 -75 28.5t-29 74.5t29 75t75 29t75 -29t29 -75t-29 -74.5t-75 -28.5z" />
    <glyph glyph-name="uniFEE8" unicode="&#x646;" horiz-adv-x="470" arabic-form="medial" 
d="M0 0v225h58q37 0 57 7.5t28 26t8 50.5v228h193v-228q0 -95 -35 -164t-99 -106.5t-152 -38.5h-58zM437 0q-88 0 -152 37.5t-99 107t-35 164.5h193q0 -32 8 -50.5t28 -26t57 -7.5h33v-225h-33zM470 0v225q8 0 14 -30.5t6 -80.5q0 -52 -6 -83t-14 -31zM0 0q-8 0 -14 31
t-6 83q0 50 6 80.5t14 30.5v-225zM232 640q-46 0 -75 28.5t-29 74.5t29 75t75 29t75 -29t29 -75t-29 -74.5t-75 -28.5z" />
    <glyph glyph-name="uniFEEA" unicode="&#x647;" horiz-adv-x="768" arabic-form="final" 
d="M335 49q-57 0 -110 15.5t-95 47t-66 79t-24 110.5q0 72 32.5 127t90 91.5t135 55t167.5 18.5v-185q-59 0 -102.5 -7.5t-72.5 -22t-43 -34.5t-14 -44q0 -20 10 -35t32.5 -23t57.5 -8t65.5 8.5t59.5 24.5l95 -161q-49 -28 -105.5 -42.5t-112.5 -14.5zM735 0
q-88 0 -152 37.5t-99 107t-35 164.5v317h193v-317q0 -32 8 -50.5t28 -26t57 -7.5h33v-225h-33zM768 0v225q8 0 14 -30.5t6 -80.5q0 -52 -6 -83t-14 -31z" />
    <glyph glyph-name="uniFEEB" unicode="&#x647;" horiz-adv-x="873" arabic-form="initial" 
d="M517 -2q-78 0 -155.5 24.5t-141.5 71t-102 113.5t-38 153q0 74 29 135.5t78 98t110 36.5q47 0 87.5 -21t72 -57.5t49 -83.5t17.5 -99q0 -72 -35.5 -138.5t-103.5 -118.5t-165 -82t-219 -30v225q83 1 150.5 16t115.5 37.5t73.5 48t25.5 47.5q0 19 -9 34.5t-24 24.5t-33 9
q-16 0 -30.5 -8.5t-23 -24t-8.5 -35.5q0 -30 20 -63.5t58 -63t91.5 -48t119.5 -18.5q46 0 70.5 9t34 24t9.5 32q0 51 -46 89t-143.5 69t-252.5 61q-8 -19 -17 -21.5t-18 2.5t-19 6q-26 5 -55.5 9.5t-60.5 8.5l24 202q174 -24 317 -52t247 -71t160.5 -111t56.5 -170
q0 -71 -26 -122t-71 -84t-101.5 -48.5t-117.5 -15.5zM0 0q-8 0 -14 31t-6 83q0 50 6 80.5t14 30.5v-225z" />
    <glyph glyph-name="uniFEEC" unicode="&#x647;" horiz-adv-x="796" arabic-form="medial" 
d="M441 -311q-64 0 -127.5 22.5t-116 66t-84.5 107.5t-32 148v134q0 98 25.5 178.5t72 138.5t111 89.5t143.5 31.5q81 0 143 -33t97.5 -90.5t35.5 -132.5q0 -76 -37 -140t-104 -110.5t-158.5 -72.5t-199.5 -26h-210v225h267q73 0 129 16.5t88 45.5t32 64q0 21 -11 36
t-31.5 23t-49.5 8q-45 0 -79 -24t-52.5 -78.5t-18.5 -148.5v-136q0 -45 19.5 -80t53.5 -55.5t76 -20.5q30 0 50.5 10.5t31.5 29.5t11 46q0 33 -17 69t-54 62l80 115q184 -92 184 -267q0 -84 -37.5 -139.5t-98.5 -83.5t-132 -28zM796 0q-127 0 -211 27.5t-140 64.5l107 188
q37 -25 101.5 -40t142.5 -15v-225zM796 0v225q8 0 14 -30.5t6 -80.5q0 -52 -6 -83t-14 -31zM0 0q-8 0 -14 31t-6 83q0 50 6 80.5t14 30.5v-225z" />
    <glyph glyph-name="uniFEEE" unicode="&#x648;" horiz-adv-x="686" arabic-form="final" 
d="M532 0v225h154v-225h-154zM686 0v225q8 0 14 -30.5t6 -80.5q0 -52 -6 -83t-14 -31zM86 -297v225h165q74 0 100.5 19t26.5 51v503h193v-503q0 -90 -39.5 -156.5t-111.5 -102.5t-169 -36h-165zM345 0q-93 0 -161.5 37.5t-106 100.5t-37.5 138q0 61 23.5 112t65.5 89
t97.5 59t118.5 21q62 0 121 -18t105 -38l-77 -199q-85 53 -149 53q-35 0 -60 -12.5t-38.5 -31t-13.5 -36.5q0 -16 12 -33t37 -28.5t63 -11.5h170v-202h-170z" />
    <glyph glyph-name="uniFEF0" unicode="&#x649;" horiz-adv-x="920" arabic-form="final" 
d="M485 -360q-147 0 -248.5 54.5t-154 156t-52.5 242.5q0 34 3 70.5t9 74.5l176 -35q-5 -33 -7.5 -58t-2.5 -49q0 -124 63.5 -177.5t207.5 -53.5q85 0 137 14.5t75.5 36t23.5 41.5q0 19 -16 34t-43 30t-60 30l55 178q39 -19 83.5 -43t84 -56t64.5 -74t25 -97
q0 -37 -13.5 -80t-44 -85t-79.5 -77t-120 -56t-166 -21zM839 0q-211 0 -318 105l136 160q9 -9 35.5 -18t65 -15.5t81.5 -6.5h81v-225h-81zM920 0v225q8 0 14 -30.5t6 -80.5q0 -52 -6 -83t-14 -31z" />
    <glyph glyph-name="uniFEF2" unicode="&#x64a;" horiz-adv-x="920" arabic-form="final" 
d="M485 -360q-147 0 -248.5 54.5t-154 156t-52.5 242.5q0 34 3 70.5t9 74.5l176 -35q-5 -33 -7.5 -58t-2.5 -49q0 -124 63.5 -177.5t207.5 -53.5q85 0 137 14.5t75.5 36t23.5 41.5q0 19 -16 34t-43 30t-60 30l55 178q39 -19 83.5 -43t84 -56t64.5 -74t25 -97
q0 -37 -13.5 -80t-44 -85t-79.5 -77t-120 -56t-166 -21zM839 0q-211 0 -318 105l136 160q9 -9 35.5 -18t65 -15.5t81.5 -6.5h81v-225h-81zM920 0v225q8 0 14 -30.5t6 -80.5q0 -52 -6 -83t-14 -31zM576 -600q-35 0 -57.5 22t-22.5 57t22.5 58t57.5 23t58 -23t23 -58t-23 -57
t-58 -22zM394 -600q-35 0 -57.5 22t-22.5 57t22.5 58t57.5 23t58 -23t23 -58t-23 -57t-58 -22z" />
    <glyph glyph-name="uniFEF3" unicode="&#x64a;" horiz-adv-x="412" arabic-form="initial" 
d="M159 537h193v-537h-352v225h159v312zM0 0q-8 0 -14 31t-6 83q0 50 6 80.5t14 30.5v-225zM281 -240q-35 0 -57.5 22t-22.5 57t22.5 58t57.5 23t58 -23t23 -58t-23 -57t-58 -22zM99 -240q-35 0 -57.5 22t-22.5 57t22.5 58t57.5 23t58 -23t23 -58t-23 -57t-58 -22z" />
    <glyph glyph-name="uniFEF4" unicode="&#x64a;" horiz-adv-x="470" arabic-form="medial" 
d="M0 0v225h58q37 0 57 7.5t28 26t8 50.5v228h193v-228q0 -95 -35 -164t-99 -106.5t-152 -38.5h-58zM437 0q-88 0 -152 37.5t-99 107t-35 164.5h193q0 -32 8 -50.5t28 -26t57 -7.5h33v-225h-33zM470 0v225q8 0 14 -30.5t6 -80.5q0 -52 -6 -83t-14 -31zM0 0q-8 0 -14 31
t-6 83q0 50 6 80.5t14 30.5v-225zM323 -240q-35 0 -57.5 22t-22.5 57t22.5 58t57.5 23t58 -23t23 -58t-23 -57t-58 -22zM141 -240q-35 0 -57.5 22t-22.5 57t22.5 58t57.5 23t58 -23t23 -58t-23 -57t-58 -22z" />
    <glyph glyph-name=".notdef" horiz-adv-x="587" 
d="M40 0v700h507v-700h-507zM120 70h347v560h-347v-560z" />
    <glyph glyph-name=".null" 
 />
    <glyph glyph-name="nonmarkingreturn" horiz-adv-x="333" 
 />
    <glyph glyph-name="CR" unicode="&#xd;" horiz-adv-x="300" 
 />
    <glyph glyph-name="space" unicode=" " horiz-adv-x="270" 
 />
    <glyph glyph-name="exclam" unicode="!" horiz-adv-x="294" 
d="M40 701h214v-184l-40 -259h-134l-40 259v184zM143 197q45 0 73.5 -28.5t28.5 -73.5q0 -46 -28.5 -74.5t-73.5 -28.5q-46 0 -74.5 28.5t-28.5 74.5q0 45 28.5 73.5t74.5 28.5z" />
    <glyph glyph-name="quotedbl" unicode="&#x22;" horiz-adv-x="509" 
d="M60 701h168v-302h-168v302zM281 701h168v-302h-168v302z" />
    <glyph glyph-name="numbersign" unicode="#" horiz-adv-x="745" 
d="M23 291h685l-19 -153h-685zM56 554h685l-18 -153h-685zM204 701h160l-87 -701h-160zM469 701h160l-87 -701h-160z" />
    <glyph glyph-name="dollar" unicode="$" horiz-adv-x="664" 
d="M263 864h166v-285h-166v285zM263 118h166v-283h-166v283zM575 458q-35 21 -80 40t-87.5 31t-73.5 12q-19 0 -31 -7t-12 -24q0 -20 19.5 -32.5t52 -21.5t71.5 -19.5t77.5 -26t71 -39.5t52 -62t19.5 -93q0 -79 -41 -129.5t-108 -75t-146 -24.5q-61 0 -124.5 13.5t-121.5 39
t-105 61.5l86 175q36 -31 85 -56t98 -40t84 -15q26 0 41 9.5t15 29.5t-19.5 32.5t-52 21.5t-71.5 18.5t-77.5 24t-71 38t-52 59.5t-19.5 90q0 71 37 123t104.5 80t158.5 28q83 0 164.5 -23t140.5 -61z" />
    <glyph glyph-name="percent" unicode="%" horiz-adv-x="1016" 
d="M217 705q93 0 148.5 -58t55.5 -156t-55.5 -157t-148.5 -59q-62 0 -108 26.5t-71.5 75.5t-25.5 114q0 98 56 156t149 58zM217 587q-29 0 -46.5 -26t-17.5 -70t17.5 -70.5t46.5 -26.5t46.5 26.5t17.5 70.5t-17.5 70t-46.5 26zM677 701h149l-487 -701h-149zM800 425
q93 0 148.5 -58t55.5 -156t-55.5 -157t-148.5 -59q-62 0 -108 26.5t-71.5 75.5t-25.5 114q0 98 56 156t149 58zM800 307q-29 0 -46.5 -26t-17.5 -70t17.5 -70.5t46.5 -26.5t46.5 26.5t17.5 70.5t-17.5 70t-46.5 26z" />
    <glyph glyph-name="ampersand" unicode="&#x26;" horiz-adv-x="706" 
d="M659 271q-30 -86 -82.5 -149.5t-121.5 -97.5t-147 -34q-74 0 -131.5 27t-90.5 74.5t-33 108.5q0 54 24.5 92t63 64.5t82 47.5t82 40.5t63 42.5t24.5 55q0 20 -12 32.5t-32 12.5q-21 0 -32.5 -15t-11.5 -39q0 -30 18 -66t62 -87.5t120.5 -126.5t194.5 -184l-113 -109
q-112 107 -191.5 185t-131 135t-81 99.5t-41 79t-11.5 73.5q0 56 26.5 96t75 61.5t114.5 21.5q65 0 114.5 -21.5t78 -59t28.5 -86.5q0 -51 -24 -87t-61.5 -62t-80 -46.5t-80 -39.5t-61.5 -40.5t-24 -51.5q0 -22 10.5 -38t29 -25t41.5 -9q45 0 85.5 29.5t71 81t44.5 116.5z
" />
    <glyph glyph-name="quotesingle" unicode="'" horiz-adv-x="288" 
d="M60 701h168v-302h-168v302z" />
    <glyph glyph-name="parenleft" unicode="(" horiz-adv-x="370" 
d="M381 742q-55 -90 -89 -201.5t-34 -231.5t34 -231.5t89 -201.5h-201q-64 90 -98.5 201.5t-34.5 231.5t34.5 231.5t98.5 201.5h201z" />
    <glyph glyph-name="parenright" unicode=")" horiz-adv-x="370" 
d="M-11 742h201q65 -90 99 -201.5t34 -231.5t-34 -231.5t-99 -201.5h-201q55 90 89 201.5t34 231.5t-34 231.5t-89 201.5z" />
    <glyph glyph-name="asterisk" unicode="*" horiz-adv-x="406" 
d="M148 718h110l-2 -88l75 45l55 -95l-79 -41l79 -43l-55 -96l-76 47l3 -88h-110l3 89l-76 -46l-55 94l78 43l-78 41l55 97l75 -47z" />
    <glyph glyph-name="plus" unicode="+" horiz-adv-x="520" 
d="M30 399h460v-140h-460v140zM190 559h140v-460h-140v460z" />
    <glyph glyph-name="comma" unicode="," horiz-adv-x="265" 
d="M166 -6q-70 -3 -102.5 27.5t-32.5 73.5q0 45 29 73.5t74 28.5q41 0 71.5 -25.5t30.5 -75.5q0 -23 -8 -43t-19 -37l-97 -146h-104l94 226z" />
    <glyph glyph-name="hyphen" unicode="-" horiz-adv-x="380" 
d="M50 379h280v-140h-280v140z" />
    <glyph glyph-name="period" unicode="." horiz-adv-x="265" 
d="M133 197q45 0 73.5 -28.5t28.5 -73.5q0 -46 -28.5 -74.5t-73.5 -28.5q-46 0 -74.5 28.5t-28.5 74.5q0 45 28.5 73.5t74.5 28.5z" />
    <glyph glyph-name="slash" unicode="/" horiz-adv-x="373" 
d="M279 806h188l-329 -910h-188z" />
    <glyph glyph-name="zero" unicode="0" horiz-adv-x="700" 
d="M351 708q155 0 238 -92t83 -264q0 -173 -83 -266t-238 -93q-156 0 -239 93t-83 265q0 173 83 265t239 92zM351 540q-47 0 -65.5 -41t-18.5 -148q0 -106 18.5 -148t65.5 -42t65 42t18 148q0 107 -18 148t-65 41z" />
    <glyph glyph-name="one" unicode="1" horiz-adv-x="426" 
d="M-30 701h354v-701h-232v619l101 -101h-223v183z" />
    <glyph glyph-name="two" unicode="2" horiz-adv-x="620" 
d="M282 399q22 23 37.5 47t15.5 42t-12.5 27.5t-35.5 9.5q-40 0 -90 -24.5t-101 -65.5l-86 167q75 51 153 80t160 29q73 0 130.5 -23.5t91 -66t33.5 -99.5q0 -61 -39.5 -119.5t-98.5 -117.5l-180 -178l-29 71h357v-178h-550l-1 146z" />
    <glyph glyph-name="three" unicode="3" horiz-adv-x="614" 
d="M427 419q73 -16 119.5 -66.5t46.5 -129.5q0 -68 -36 -121t-101.5 -82.5t-154.5 -29.5q-82 0 -161 25.5t-132 67.5l82 156q47 -39 95 -58.5t97 -19.5q28 0 46.5 6.5t28 20.5t9.5 35q0 30 -21 46.5t-63 16.5h-131v120l207 197l28 -68h-340v167h513v-131l-240 -211l-23 88z
" />
    <glyph glyph-name="four" unicode="4" horiz-adv-x="615" 
d="M-10 135v151l170 415h218l-196 -493l-62 93h460v-166h-590zM289 435h211v-435h-211v435z" />
    <glyph glyph-name="five" unicode="5" horiz-adv-x="631" 
d="M291 348l-116 101h70.5h51.5h26q85 0 148 -26t97.5 -73.5t34.5 -111.5q0 -75 -37 -130.5t-103.5 -86.5t-157.5 -31q-75 0 -153.5 25.5t-137.5 66.5l83 159q41 -34 87 -57.5t94 -23.5q38 0 56.5 16t18.5 45t-18.5 44t-57.5 15h-38h-57.5h-59.5h-43v421h491v-178h-380
l101 101v-276z" />
    <glyph glyph-name="six" unicode="6" horiz-adv-x="627" 
d="M484 496q-28 23 -62 34.5t-75 11.5q-44 0 -74 -15t-45 -44.5t-15 -72.5q23 25 58 41t85 16q67 0 116.5 -29t77 -81t27.5 -121q0 -75 -33.5 -130.5t-93 -85.5t-139.5 -30q-96 0 -165 43t-106 122t-37 187q0 112 41 195t115.5 128.5t174.5 45.5q63 0 126.5 -16t107.5 -45z
M304 307q-23 0 -39 -8.5t-24 -24t-8 -38.5q0 -16 4.5 -29t13 -22.5t21.5 -14t31 -4.5q23 0 38 8t23 24t8 39q0 34 -17 52t-51 18z" />
    <glyph glyph-name="seven" unicode="7" horiz-adv-x="602" 
d="M16 701h579v-154l-241 -547h-245l272 617l60 -94h-322l101 102v-200h-204v276z" />
    <glyph glyph-name="eight" unicode="8" horiz-adv-x="629" 
d="M290 711q79 0 136.5 -24t89.5 -68t32 -104q0 -40 -19 -78t-51 -62q49 -26 78 -74t29 -103q0 -63 -36.5 -109.5t-102.5 -72.5t-155 -26q-88 0 -154 25.5t-102.5 71.5t-36.5 107q0 56 32.5 105.5t85.5 75.5q-37 27 -59 67t-22 80q0 58 31.5 100t89 65.5t134.5 23.5z
M292 284q-38 0 -57.5 -17t-19.5 -49q0 -31 19.5 -47t56.5 -16q38 0 58 16t20 47q0 32 -19.5 49t-57.5 17zM291 561q-31 0 -47.5 -14.5t-16.5 -43.5q0 -27 16.5 -40.5t47.5 -13.5q32 0 48.5 13.5t16.5 40.5q0 29 -16.5 43.5t-48.5 14.5z" />
    <glyph glyph-name="nine" unicode="9" horiz-adv-x="626" 
d="M98 206q28 -23 62 -34.5t74 -11.5q45 0 75 15t45 44.5t15 72.5q-22 -25 -57.5 -41.5t-85.5 -16.5q-66 0 -115.5 29t-77 81.5t-27.5 121.5q0 75 33 130t93 85t140 30q96 0 164.5 -43t105.5 -121.5t37 -186.5q0 -112 -41 -195t-115.5 -129t-175.5 -46q-61 0 -124.5 17
t-108.5 45zM279 536q-22 0 -37.5 -8t-23 -23.5t-7.5 -39.5q0 -34 16.5 -52t50.5 -18q24 0 39.5 8.5t23.5 24.5t8 38q0 17 -4.5 29.5t-13 22t-21.5 14t-31 4.5z" />
    <glyph glyph-name="colon" unicode=":" horiz-adv-x="265" 
d="M133 494q45 0 73.5 -28.5t28.5 -73.5q0 -46 -28.5 -74.5t-73.5 -28.5q-46 0 -74.5 28.5t-28.5 74.5q0 45 28.5 73.5t74.5 28.5zM133 197q45 0 73.5 -28.5t28.5 -73.5q0 -46 -28.5 -74.5t-73.5 -28.5q-46 0 -74.5 28.5t-28.5 74.5q0 45 28.5 73.5t74.5 28.5z" />
    <glyph glyph-name="semicolon" unicode=";" horiz-adv-x="265" 
d="M133 494q45 0 73.5 -28.5t28.5 -73.5q0 -46 -28.5 -74.5t-73.5 -28.5q-46 0 -74.5 28.5t-28.5 74.5q0 45 28.5 73.5t74.5 28.5zM166 -6q-70 -3 -102.5 27.5t-32.5 73.5q0 45 29 73.5t74 28.5q41 0 71.5 -25.5t30.5 -75.5q0 -23 -8 -43t-19 -37l-97 -146h-104l94 226z" />
    <glyph glyph-name="less" unicode="&#x3c;" horiz-adv-x="520" 
d="M490 597v-156l-316 -118l316 -118v-156l-460 185v178z" />
    <glyph glyph-name="equal" unicode="=" horiz-adv-x="520" 
d="M30 509h460v-140h-460v140zM30 289h460v-140h-460v140z" />
    <glyph glyph-name="greater" unicode="&#x3e;" horiz-adv-x="520" 
d="M30 59v156l316 118l-316 118v156l460 -185v-178z" />
    <glyph glyph-name="question" unicode="?" horiz-adv-x="498" 
d="M21 455q0 121 65 188.5t182 67.5q73 0 124 -21.5t78.5 -62t27.5 -98.5q0 -36 -12 -64t-31.5 -50t-41 -40.5t-41 -37.5t-31.5 -40t-12 -47h-167q0 37 9 64.5t23.5 47.5t30.5 36t30.5 30t23.5 29.5t9 34.5q0 22 -9 32t-32 10q-28 0 -41 -19t-13 -60h-172zM241 197
q46 0 74.5 -28.5t28.5 -73.5q0 -46 -28.5 -74.5t-74.5 -28.5q-45 0 -73.5 28.5t-28.5 74.5q0 45 28.5 73.5t73.5 28.5z" />
    <glyph glyph-name="at" unicode="@" horiz-adv-x="865" 
d="M641 166q0 -25 8.5 -34.5t21.5 -9.5q18 0 34.5 19t27 53.5t10.5 78.5q0 68 -20 127.5t-59 104t-95.5 69.5t-129.5 25q-65 0 -122.5 -26t-101 -71.5t-68 -105.5t-24.5 -128q0 -67 23 -124.5t64.5 -100t97 -66t119.5 -23.5q42 0 92 15t92 48l51 -86q-29 -23 -69 -40.5
t-83.5 -26.5t-82.5 -9q-88 0 -163 31t-131 86.5t-87 131t-31 164.5q0 90 33 168.5t91 137t135 91.5t165 33t163 -31.5t130.5 -88.5t86.5 -134t31 -168q0 -73 -25 -128t-68 -85t-99 -30q-45 0 -76 17.5t-42 56.5l-2 7q-28 -39 -62.5 -55t-69.5 -16q-52 0 -99.5 28.5
t-77.5 79.5t-30 120q0 63 23.5 115.5t66.5 84.5t102 32q27 0 49.5 -8.5t39.5 -20.5t26 -24v41h135v-325zM419 379q-22 0 -38 -14.5t-25 -37.5t-9 -51q0 -30 8.5 -55.5t25 -41t39.5 -15.5q25 0 42 15t26 40.5t9 55.5q0 29 -9 52.5t-26.5 37.5t-42.5 14z" />
    <glyph glyph-name="A" unicode="A" horiz-adv-x="799" 
d="M286 701h238l285 -701h-247l-164 470l-170 -470h-238zM190 265h402v-166h-402v166z" />
    <glyph glyph-name="B" unicode="B" horiz-adv-x="724" 
d="M405 701q85 0 147 -22t96.5 -61.5t34.5 -93.5q0 -52 -32 -92.5t-86 -57.5q63 -14 101 -62.5t38 -114.5q0 -60 -35 -104.5t-98 -68.5t-149 -24h-372v701h355zM392 431q24 0 38.5 14t14.5 37t-14.5 36t-38.5 13h-111v-100h111zM392 170q32 0 51.5 15.5t19.5 40.5
q0 23 -19.5 37t-51.5 14h-111v-107h111z" />
    <glyph glyph-name="C" unicode="C" horiz-adv-x="688" 
d="M557 427q-31 44 -74.5 70t-84.5 26q-31 0 -57.5 -12.5t-46.5 -35t-30.5 -53t-10.5 -66.5q0 -37 10.5 -68t30.5 -53.5t46.5 -35t57.5 -12.5q38 0 81.5 22.5t77.5 59.5l134 -143q-39 -43 -89.5 -75t-106 -49.5t-109.5 -17.5q-81 0 -148.5 27.5t-117.5 77t-77.5 117
t-27.5 147.5q0 79 28 145t79.5 115t121 76t151.5 27q54 0 108.5 -16t103 -45t84.5 -69z" />
    <glyph glyph-name="D" unicode="D" horiz-adv-x="759" 
d="M363 701q87 0 157 -24.5t120 -70.5t77 -110.5t27 -144.5t-27.5 -144.5t-78.5 -111t-123 -71t-161 -24.5h-304v701h313zM369 180q32 0 57 12t43.5 34t28 53t9.5 70t-10.5 70.5t-30 54.5t-47 35t-61.5 12h-76v-341h87z" />
    <glyph glyph-name="E" unicode="E" horiz-adv-x="690" 
d="M50 701h593v-176h-361v-86h328v-176h-328v-87h370v-176h-602v701z" />
    <glyph glyph-name="F" unicode="F" horiz-adv-x="631" 
d="M50 701h564v-176h-332v-121h311v-176h-311v-228h-232v701z" />
    <glyph glyph-name="G" unicode="G" horiz-adv-x="738" 
d="M582 447q-35 35 -82 55.5t-91 20.5q-34 0 -62.5 -13t-49.5 -36t-32.5 -54.5t-11.5 -68.5q0 -38 12 -69.5t33 -55t50 -36.5t63 -13q31 0 76.5 17.5t83.5 44.5l131 -163q-39 -26 -91.5 -47t-109 -33t-106.5 -12q-82 0 -151.5 27.5t-121 76.5t-79.5 116.5t-28 146.5
t29 145.5t82.5 116t125.5 76.5t158 27q55 0 110.5 -13.5t105.5 -38t87 -58.5zM503 369h199v-293h-199v293z" />
    <glyph glyph-name="H" unicode="H" horiz-adv-x="781" 
d="M50 701h232v-272h217v272h232v-701h-232v253h-217v-253h-232v701z" />
    <glyph glyph-name="I" unicode="I" horiz-adv-x="332" 
d="M50 701h232v-701h-232v701z" />
    <glyph glyph-name="J" unicode="J" horiz-adv-x="569" 
d="M529 237q0 -118 -71.5 -182.5t-192.5 -64.5q-85 0 -152.5 32t-120.5 90l105 150q41 -41 80.5 -60t65.5 -19q24 0 38.5 14.5t14.5 44.5v276h-238v183h471v-464z" />
    <glyph glyph-name="K" unicode="K" horiz-adv-x="773" 
d="M50 701h232v-256l209 256h267l-476 -531v-170h-232v701zM492 444l281 -444h-277l-159 262z" />
    <glyph glyph-name="L" unicode="L" horiz-adv-x="584" 
d="M50 701h232v-508h292v-193h-524v701z" />
    <glyph glyph-name="M" unicode="M" horiz-adv-x="939" 
d="M50 701h246l174 -366l173 366h246v-701h-203v384l-141 -316h-151l-141 316v-384h-203v701z" />
    <glyph glyph-name="N" unicode="N" horiz-adv-x="781" 
d="M50 701h194l339 -440l-62 -21v461h210v-701h-194l-338 438l62 21v-459h-211v701z" />
    <glyph glyph-name="O" unicode="O" horiz-adv-x="800" 
d="M400 716q84 0 154 -27t122 -76t80.5 -115.5t28.5 -145.5t-28.5 -146.5t-80.5 -117t-122 -77t-154 -27.5t-154 27.5t-122 77t-80.5 116.5t-28.5 147t28.5 146.5t80.5 115t122 75.5t154 27zM403 523q-30 0 -57.5 -12.5t-48 -36t-32.5 -54.5t-12 -69q0 -37 12 -69t33 -55.5
t48 -36.5t57 -13t56 13t46 36.5t31 55.5t11 69q0 38 -11 69t-31 54.5t-46 36t-56 12.5z" />
    <glyph glyph-name="P" unicode="P" horiz-adv-x="686" 
d="M379 701q137 0 212 -65.5t75 -185.5q0 -127 -75 -197.5t-212 -70.5h-198l101 101v-283h-232v701h329zM367 358q38 0 58.5 22.5t20.5 62.5q0 39 -20.5 60.5t-58.5 21.5h-186l101 101v-369l-101 101h186z" />
    <glyph glyph-name="Q" unicode="Q" horiz-adv-x="801" 
d="M550 55q11 -28 31 -46.5t45 -18.5q21 0 51.5 13t60.5 35l77 -137q-40 -35 -99.5 -56.5t-114.5 -21.5q-81 0 -143 48t-88 127zM400 716q84 0 154 -27t122 -76t80.5 -115.5t28.5 -145.5t-28.5 -146.5t-80.5 -117t-122 -77t-154 -27.5t-154 27.5t-122 77t-80.5 116.5
t-28.5 147t28.5 146.5t80.5 115t122 75.5t154 27zM403 523q-30 0 -57.5 -12.5t-48 -36t-32.5 -54.5t-12 -69q0 -37 12 -69t33 -55.5t48 -36.5t57 -13t56 13t46 36.5t31 55.5t11 69q0 38 -11 69t-31 54.5t-46 36t-56 12.5z" />
    <glyph glyph-name="R" unicode="R" horiz-adv-x="725" 
d="M389 701q143 0 221 -65.5t78 -185.5q0 -127 -78 -197.5t-221 -70.5h-107v-182h-232v701h339zM389 358q38 0 58.5 22.5t20.5 62.5q0 39 -20.5 60.5t-58.5 21.5h-107v-167h107zM330 265h224l161 -265h-262z" />
    <glyph glyph-name="S" unicode="S" horiz-adv-x="664" 
d="M575 458q-35 21 -80 40t-87.5 31t-73.5 12q-19 0 -31 -7t-12 -24q0 -20 19.5 -32.5t52 -21.5t71.5 -19.5t77.5 -26t71 -39.5t52 -62t19.5 -93q0 -79 -41 -129.5t-108 -75t-146 -24.5q-61 0 -124.5 13.5t-121.5 39t-105 61.5l86 175q36 -31 85 -56t98 -40t84 -15
q26 0 41 9.5t15 29.5t-19.5 32.5t-52 21.5t-71.5 18.5t-77.5 24t-71 38t-52 59.5t-19.5 90q0 71 37 123t104.5 80t158.5 28q83 0 164.5 -23t140.5 -61z" />
    <glyph glyph-name="T" unicode="T" horiz-adv-x="641" 
d="M5 701h631v-183h-200v-518h-232v518h-199v183z" />
    <glyph glyph-name="U" unicode="U" horiz-adv-x="741" 
d="M272 291q0 -52 31 -83t71 -31t67.5 31t27.5 83v410h232v-410q0 -93 -40.5 -162t-114 -107t-173.5 -38t-175 38t-116.5 107t-41.5 162v410h232v-410z" />
    <glyph glyph-name="V" unicode="V" horiz-adv-x="764" 
d="M-5 701h248l145 -460l144 460h237l-268 -701h-240z" />
    <glyph glyph-name="W" unicode="W" horiz-adv-x="1151" 
d="M-5 701h248l137 -558h-48l136 558h226l138 -558h-48l135 558h237l-237 -701h-238l-130 517h50l-133 -517h-238z" />
    <glyph glyph-name="X" unicode="X" horiz-adv-x="773" 
d="M10 701h270l102 -165l102 165h273l-227 -334l248 -367h-278l-118 181l-116 -181h-271l246 356z" />
    <glyph glyph-name="Y" unicode="Y" horiz-adv-x="719" 
d="M-10 701h231l141 -270l136 270h231l-354 -681h-28zM246 317h232v-317h-232v317z" />
    <glyph glyph-name="Z" unicode="Z" horiz-adv-x="683" 
d="M32 701h624v-145l-327 -378h334v-178h-643v145l327 378h-315v178z" />
    <glyph glyph-name="bracketleft" unicode="[" horiz-adv-x="381" 
d="M54 742h317v-166h-117v-534h117v-166h-317v866z" />
    <glyph glyph-name="backslash" unicode="\" horiz-adv-x="373" 
d="M94 806l329 -910h-188l-329 910h188z" />
    <glyph glyph-name="bracketright" unicode="]" horiz-adv-x="381" 
d="M327 742v-866h-317v166h117v534h-117v166h317z" />
    <glyph glyph-name="asciicircum" unicode="^" horiz-adv-x="608" 
d="M578 143h-156l-118 261l-118 -261h-156l185 380h178z" />
    <glyph glyph-name="underscore" unicode="_" horiz-adv-x="599" 
d="M0 -84h599v-120h-599v120z" />
    <glyph glyph-name="grave" unicode="`" horiz-adv-x="387" 
d="M202 780l111 -179l-143 -10l-138 129z" />
    <glyph glyph-name="a" unicode="a" horiz-adv-x="613" 
d="M274 225q-23 0 -35.5 -11t-12.5 -33t13 -35t37 -13q15 0 29 5t26 14.5t21 22.5l26 -66q-19 -56 -64.5 -87.5t-115.5 -31.5q-58 0 -99 21.5t-62.5 60t-21.5 90.5q0 81 54 123.5t158 43.5h144v-104h-97zM352 327q0 29 -21.5 45.5t-63.5 16.5q-31 0 -75 -9t-91 -26l-50 150
q47 17 93.5 29t91.5 18t85 6q119 0 185.5 -53t66.5 -150v-354h-221v327z" />
    <glyph glyph-name="b" unicode="b" horiz-adv-x="690" 
d="M424 555q76 0 132.5 -35t87.5 -99t31 -151q0 -84 -30 -146.5t-85 -97t-130 -34.5q-64 0 -112 34.5t-74.5 97.5t-26.5 147q0 86 25.5 150t72 99t109.5 35zM366 382q-24 0 -42.5 -13t-28.5 -37t-10 -56t10 -56t28.5 -37t42.5 -13q25 0 43.5 13t28.5 37t10 56t-10 56
t-28.5 37t-43.5 13zM60 742h225v-742h-225v742z" />
    <glyph glyph-name="c" unicode="c" horiz-adv-x="561" 
d="M384 321q-10 25 -28 38.5t-42 13.5q-22 0 -38 -12.5t-25 -35t-9 -53.5t9 -54t25 -35.5t38 -12.5q24 0 41 14t26 45l182 -84q-30 -73 -98.5 -113t-162.5 -40q-87 0 -151.5 34.5t-100 97.5t-35.5 147q0 86 36 150t101 99t152 35q89 0 157 -41.5t102 -116.5z" />
    <glyph glyph-name="d" unicode="d" horiz-adv-x="690" 
d="M260 555q65 0 112.5 -34.5t74 -97t26.5 -147.5q0 -86 -25.5 -150t-72 -99t-109.5 -35q-76 0 -132.5 35t-87.5 99.5t-31 150.5q0 85 30 147t85.5 96.5t129.5 34.5zM324 377q-25 0 -43.5 -13t-28.5 -37t-10 -56t10 -56t28.5 -37t43.5 -13t43 13t28 37t10 56t-10 56t-28 37
t-43 13zM405 742h225v-742h-225v742z" />
    <glyph glyph-name="e" unicode="e" horiz-adv-x="614" 
d="M373 327q2 23 -6 40.5t-23 27.5t-35 10q-25 0 -42 -16t-25.5 -43.5t-8.5 -61.5q0 -41 12.5 -69t35 -42.5t52.5 -14.5q59 0 111 49l117 -115q-43 -48 -105.5 -74t-142.5 -26q-93 0 -160 34.5t-102.5 97.5t-35.5 147q0 87 36.5 150.5t102 98.5t153.5 35q96 0 163 -41
t100.5 -115.5t27.5 -175.5h-394v104h169z" />
    <glyph glyph-name="f" unicode="f" horiz-adv-x="426" 
d="M95 566q0 57 28 99t79 65t120 22q32 0 65 -5t62 -14l-22 -166q-16 5 -30 8t-26 3q-16 1 -27.5 -4.5t-18 -16t-6.5 -25.5v-532h-224v566zM20 517h405v-142h-405v142z" />
    <glyph glyph-name="g" unicode="g" horiz-adv-x="654" 
d="M601 45q0 -76 -39 -132t-107.5 -86.5t-159.5 -30.5q-79 0 -147 21.5t-111 49.5l71 151q36 -22 81.5 -35t85.5 -13q33 0 56 8.5t34.5 24t11.5 36.5v508h224v-502zM236 555q65 0 110.5 -32t69.5 -90t24 -137q0 -80 -23.5 -139t-68 -91.5t-108.5 -32.5t-115 32.5t-80.5 92
t-29.5 139.5q0 79 28.5 136.5t78.5 89.5t114 32zM301 390q-23 0 -40 -12t-26.5 -34.5t-9.5 -52.5q0 -29 9.5 -51.5t26.5 -34.5t40 -12t40 12t26.5 34.5t9.5 51.5q0 30 -9.5 52.5t-26.5 34.5t-40 12z" />
    <glyph glyph-name="h" unicode="h" horiz-adv-x="687" 
d="M422 284q0 35 -18 55t-47 20q-33 0 -52.5 -24t-19.5 -64h-50q0 87 26 151.5t74.5 99.5t115.5 35q58 0 102 -25.5t69 -72.5t25 -110v-349h-225v284zM60 742h225v-742h-225v742z" />
    <glyph glyph-name="i" unicode="i" horiz-adv-x="335" 
d="M55 547h225v-547h-225v547zM168 817q50 0 82 -32t32 -82t-32 -82t-82 -32t-82 32t-32 82t32 82t82 32z" />
    <glyph glyph-name="j" unicode="j" horiz-adv-x="340" 
d="M-22 -23q9 -2 18.5 -4t19.5 -2q44 -2 44 46v530h225v-564q0 -86 -59 -136.5t-158 -49.5q-75 0 -133 23zM171 817q50 0 82 -32t32 -82t-32 -82t-82 -32t-82 32t-32 82t32 82t82 32z" />
    <glyph glyph-name="k" unicode="k" horiz-adv-x="662" 
d="M60 742h225v-742h-225v742zM412 547h254l-391 -414v261zM453 360l210 -360h-267l-109 224z" />
    <glyph glyph-name="l" unicode="l" horiz-adv-x="345" 
d="M60 742h225v-742h-225v742z" />
    <glyph glyph-name="m" unicode="m" horiz-adv-x="1032" 
d="M411 284q0 35 -17 55t-45 20q-31 0 -50 -24t-19 -64h-50q0 87 25.5 151.5t73.5 99.5t114 35q57 0 100.5 -25.5t68 -72.5t24.5 -110v-349h-225v284zM767 284q0 35 -17 55t-45 20q-31 0 -50 -24t-19 -64h-50q0 87 25.5 151.5t73.5 99.5t114 35q57 0 100.5 -25.5t68 -72.5
t24.5 -110v-349h-225v284zM55 547h225v-547h-225v547z" />
    <glyph glyph-name="n" unicode="n" horiz-adv-x="682" 
d="M417 284q0 35 -18 55t-47 20q-33 0 -52.5 -24t-19.5 -64h-50q0 87 26 151.5t74.5 99.5t115.5 35q58 0 102 -25.5t69 -72.5t25 -110v-349h-225v284zM55 547h225v-547h-225v547z" />
    <glyph glyph-name="o" unicode="o" horiz-adv-x="648" 
d="M324 555q94 0 163.5 -34.5t107.5 -97.5t38 -149q0 -85 -38 -148.5t-107.5 -98.5t-163.5 -35t-163.5 35t-107.5 98.5t-38 148.5q0 86 38 149t107.5 97.5t163.5 34.5zM324 377q-25 0 -43.5 -13t-28.5 -37t-10 -56t10 -56t28.5 -37t43.5 -13t43.5 13t28.5 37t10 56t-10 56
t-28.5 37t-43.5 13z" />
    <glyph glyph-name="p" unicode="p" horiz-adv-x="690" 
d="M424 555q76 0 132.5 -35t87.5 -99t31 -151q0 -84 -30 -146.5t-85 -97t-130 -34.5q-64 0 -112 34.5t-74.5 97.5t-26.5 147q0 86 25.5 150t72 99t109.5 35zM366 382q-24 0 -42.5 -13t-28.5 -37t-10 -56t10 -56t28.5 -37t42.5 -13q25 0 43.5 13t28.5 37t10 56t-10 56
t-28.5 37t-43.5 13zM60 547h225v-741h-225v741z" />
    <glyph glyph-name="q" unicode="q" horiz-adv-x="690" 
d="M260 555q65 0 112.5 -34.5t74 -97t26.5 -147.5q0 -86 -25.5 -150t-72 -99t-109.5 -35q-76 0 -132.5 35t-87.5 99.5t-31 150.5q0 85 30 147t85.5 96.5t129.5 34.5zM324 377q-25 0 -43.5 -13t-28.5 -37t-10 -56t10 -56t28.5 -37t43.5 -13t43 13t28 37t10 56t-10 56t-28 37
t-43 13zM405 547h225v-741h-225v741z" />
    <glyph glyph-name="r" unicode="r" horiz-adv-x="457" 
d="M447 354q-50 8 -88 -1t-58.5 -32.5t-20.5 -59.5l-50 10q0 87 27 151.5t75.5 99.5t114.5 35v-203zM55 547h225v-547h-225v547z" />
    <glyph glyph-name="s" unicode="s" horiz-adv-x="552" 
d="M459 349q-61 30 -107 45t-78 15q-14 0 -22.5 -5t-8.5 -13q0 -13 20.5 -21t53 -16.5t68.5 -20t68.5 -31t53 -50t20.5 -76.5q0 -56 -30.5 -98t-86 -65t-131.5 -23t-143 19.5t-124 58.5l68 140q55 -34 105.5 -51t96.5 -17q11 0 18.5 2t11.5 5.5t4 8.5q0 12 -20 20
t-51.5 15.5t-67.5 19t-67.5 31t-51.5 50t-20 76.5q0 58 30 100t84 65.5t127 23.5q65 0 129 -17t125 -52z" />
    <glyph glyph-name="t" unicode="t" horiz-adv-x="460" 
d="M307 210q0 -22 12 -34.5t32 -11.5q10 0 25 4t31 10l38 -154q-27 -16 -69.5 -25t-86.5 -9q-62 0 -108.5 22.5t-72 64.5t-25.5 99v494h224v-460zM8 517h427v-142h-427v142z" />
    <glyph glyph-name="u" unicode="u" horiz-adv-x="672" 
d="M265 263q0 -34 16.5 -54.5t43.5 -20.5q31 0 49 24t18 64h50q0 -87 -25.5 -151t-72.5 -99.5t-113 -35.5q-56 0 -99 26t-67.5 72.5t-24.5 109.5v349h225v-284zM392 547h225v-547h-225v547z" />
    <glyph glyph-name="v" unicode="v" horiz-adv-x="612" 
d="M-10 547h231l87 -343l89 343h225l-202 -547h-230z" />
    <glyph glyph-name="w" unicode="w" horiz-adv-x="977" 
d="M-10 547h228l87 -326l84 326h208l87 -326l86 326h217l-200 -547h-220l-78 288l-81 -288h-220z" />
    <glyph glyph-name="x" unicode="x" horiz-adv-x="654" 
d="M6 547h258l63 -128l74 128h246l-170 -266l182 -281h-259l-73 142l-85 -142h-247l181 280z" />
    <glyph glyph-name="y" unicode="y" horiz-adv-x="624" 
d="M409 -38q-34 -85 -93 -125.5t-147 -40.5q-54 0 -99.5 15.5t-89.5 48.5l94 148q35 -32 73 -32q20 0 33 7t21 21l8 13l-227 530h231l108 -312l89 312h224z" />
    <glyph glyph-name="z" unicode="z" horiz-adv-x="568" 
d="M35 547h502v-131l-228 -248h238v-168h-522v131l228 248h-218v168z" />
    <glyph glyph-name="braceleft" unicode="{" horiz-adv-x="377" 
d="M54 394q17 0 24 7.5t7 26.5v163q0 58 18 91t60.5 47.5t114.5 14.5h88v-165q-50 0 -65.5 -13t-15.5 -46v-77q0 -48 -14 -77.5t-46.5 -44.5t-89.5 -20l-81 -77h-45v170h45zM135 317q57 -5 89.5 -20t46.5 -44t14 -78v-77q0 -33 15.5 -46t65.5 -13v-165h-88
q-72 0 -114.5 14.5t-60.5 48t-18 90.5v163q0 20 -7 27t-24 7h-45v170h45z" />
    <glyph glyph-name="bar" unicode="|" horiz-adv-x="326" 
d="M80 796h166v-899h-166v899z" />
    <glyph glyph-name="braceright" unicode="}" horiz-adv-x="377" 
d="M323 394h45v-170h-45l-81 77q-56 5 -89 20t-47 44.5t-14 77.5v77q0 33 -15.5 46t-65.5 13v165h88q73 0 115 -14.5t60 -47.5t18 -91v-163q0 -19 7 -26.5t24 -7.5zM242 317l81 77h45v-170h-45q-17 0 -24 -7t-7 -27v-163q0 -57 -18 -90.5t-60 -48t-115 -14.5h-88v165
q50 0 65.5 13t15.5 46v77q0 49 14 78t47 44t89 20z" />
    <glyph glyph-name="asciitilde" unicode="~" horiz-adv-x="520" 
d="M473 427q0 -103 -31 -152t-96 -49q-26 0 -45 6.5t-33 15.5t-25 15.5t-21 6.5q-26 0 -26 -41h-149q0 103 31.5 152t96.5 49q26 0 45 -6.5t33 -15.5t25 -15.5t21 -6.5q26 0 26 41h148z" />
    <glyph glyph-name="uni00A0" unicode="&#xa0;" horiz-adv-x="270" 
 />
    <glyph glyph-name="exclamdown" unicode="&#xa1;" horiz-adv-x="294" 
d="M254 -155h-214v184l40 259h134l40 -259v-184zM152 349q-46 0 -74.5 28.5t-28.5 73.5q0 46 28.5 74.5t74.5 28.5q45 0 73.5 -28.5t28.5 -74.5q0 -45 -28.5 -73.5t-73.5 -28.5z" />
    <glyph glyph-name="cent" unicode="&#xa2;" horiz-adv-x="600" 
d="M229 714h166v-255h-166v255zM229 98h166v-263h-166v263zM384 321q-10 25 -28 38.5t-42 13.5q-22 0 -38 -12.5t-25 -35t-9 -53.5t9 -54t25 -35.5t38 -12.5q24 0 41 14t26 45l182 -84q-30 -73 -98.5 -113t-162.5 -40q-87 0 -151.5 34.5t-100 97.5t-35.5 147q0 86 36 150
t101 99t152 35q89 0 157 -41.5t102 -116.5z" />
    <glyph glyph-name="sterling" unicode="&#xa3;" horiz-adv-x="576" 
d="M20 373h462v-70h-462v70zM351 711q64 0 123 -21t102 -61l-84 -170q-65 59 -116 59q-26 0 -39.5 -14.5t-13.5 -44.5v-387l-101 101h339v-173h-541v173h171l-101 -101v392q0 118 68.5 182.5t192.5 64.5z" />
    <glyph glyph-name="currency" unicode="&#xa4;" horiz-adv-x="693" 
d="M346 577q53 0 99 -20t81 -54.5t54.5 -80.5t19.5 -99q0 -52 -20 -98.5t-54.5 -81t-80.5 -54.5t-99 -20q-52 0 -98.5 20t-81 54.5t-54.5 81t-20 98.5q0 53 20 99t54.5 80.5t81 54.5t98.5 20zM346 403q-22 0 -40 -11t-28.5 -29t-10.5 -40t10.5 -40t28.5 -28.5t40 -10.5
t40 10.5t29 28.5t11 40t-11 40t-29 29t-40 11zM140 649l107 -107l-125 -125l-107 107zM122 218l125 -125l-107 -107l-125 125zM553 649l125 -125l-107 -107l-125 125zM571 218l107 -107l-125 -125l-107 107z" />
    <glyph glyph-name="yen" unicode="&#xa5;" horiz-adv-x="739" 
d="M0 701h231l141 -270l136 270h231l-354 -681h-28zM256 317h232v-317h-232v317zM71 345h598v-70h-598v70zM71 230h598v-70h-598v70z" />
    <glyph glyph-name="brokenbar" unicode="&#xa6;" horiz-adv-x="326" 
d="M80 796h166v-339h-166v339zM80 236h166v-339h-166v339z" />
    <glyph glyph-name="section" unicode="&#xa7;" horiz-adv-x="586" 
d="M490 486q-62 30 -109 45t-76 15q-17 0 -25 -4.5t-8 -11.5q0 -13 21.5 -22.5t55 -19.5t71 -23t71 -33t55 -50t21.5 -74q0 -30 -10.5 -55.5t-31 -45.5t-49.5 -36q23 -19 34.5 -36.5t11.5 -52.5q0 -50 -29.5 -89t-84 -61t-130.5 -22q-69 0 -138 19.5t-128 58.5l61 140
q56 -34 108 -51t92 -17q14 0 22.5 2t12 5.5t3.5 7.5q0 12 -21 21t-54 18t-69.5 22t-69.5 33t-54 50t-21 74q0 46 24 80.5t67 57.5q-29 21 -37.5 42t-8.5 46q0 51 28.5 90.5t81.5 62t126 22.5q62 0 126 -17t128 -52zM274 329q-25 0 -36.5 -5.5t-11.5 -15.5q0 -9 10.5 -16
t28 -11t39.5 -4q18 0 30 2.5t17.5 7t5.5 10.5q0 14 -25.5 23t-57.5 9z" />
    <glyph glyph-name="dieresis" unicode="&#xa8;" horiz-adv-x="470" 
d="M134 782q39 0 63.5 -25t24.5 -64q0 -38 -24.5 -63t-63.5 -25t-63.5 25t-24.5 63q0 39 24.5 64t63.5 25zM336 782q39 0 63.5 -25t24.5 -64q0 -38 -24.5 -63t-63.5 -25t-63.5 25t-24.5 63q0 39 24.5 64t63.5 25z" />
    <glyph glyph-name="copyright" unicode="&#xa9;" horiz-adv-x="707" 
d="M352 9q-71 0 -132.5 26.5t-107.5 73.5t-71.5 108.5t-25.5 130.5t26 131t72 109t107.5 74t133.5 27q71 0 132.5 -26.5t107.5 -73t72 -108t26 -131.5q0 -69 -26 -131t-72.5 -109t-108 -74t-133.5 -27zM357 187q-48 0 -86 21t-59.5 57.5t-21.5 83.5t22 83t61 57t88 21
q36 0 72.5 -16t60.5 -42l-60 -72q-14 20 -33.5 31.5t-37.5 11.5q-19 0 -34 -9t-23.5 -25.5t-8.5 -37.5t8.5 -37.5t23.5 -26t34 -9.5q17 0 36 10t35 26l60 -64q-26 -29 -63 -46t-74 -17zM352 109q51 0 94.5 19t76.5 52.5t51 77t18 92.5t-18 92.5t-50.5 76.5t-76 51.5
t-93.5 18.5q-51 0 -94.5 -19t-76 -52.5t-50.5 -77t-18 -92.5t18 -92.5t50.5 -76.5t75.5 -51.5t93 -18.5z" />
    <glyph glyph-name="ordfeminine" unicode="&#xaa;" horiz-adv-x="400" 
d="M179 591q-12 0 -18.5 -6t-6.5 -17t7 -17.5t20 -6.5q12 0 23.5 5t19.5 15l17 -43q-12 -32 -40.5 -51t-72.5 -19q-55 0 -86 29t-31 76q0 50 34.5 75.5t101.5 26.5h90v-67h-58zM224 653q0 16 -12.5 24.5t-38.5 8.5q-19 0 -47 -5t-58 -14l-34 97q46 14 91.5 22t83.5 8
q77 0 121 -32t43 -91v-213h-149v195z" />
    <glyph glyph-name="guillemotleft" unicode="&#xab;" horiz-adv-x="544" 
d="M107 466h180l-106 -193l106 -195h-180l-124 195zM366 466h180l-106 -193l106 -195h-180l-124 195z" />
    <glyph glyph-name="logicalnot" unicode="&#xac;" horiz-adv-x="593" 
d="M30 449h510v-140h-510v140zM380 449h160v-320h-160v320z" />
    <glyph glyph-name="uni00AD" unicode="&#xad;" horiz-adv-x="380" 
d="M50 379h280v-140h-280v140z" />
    <glyph glyph-name="registered" unicode="&#xae;" horiz-adv-x="707" 
d="M352 9q-71 0 -132.5 26.5t-107.5 73.5t-71.5 108.5t-25.5 130.5t26 131t72 109t107.5 74t133.5 27q71 0 132.5 -26.5t107.5 -73t72 -108t26 -131.5q0 -69 -26 -131t-72.5 -109t-108 -74t-133.5 -27zM393 211l-53 114h96l70 -114h-113zM352 109q51 0 94.5 19t76.5 52.5
t51 77t18 92.5t-18 92.5t-50.5 76.5t-76 51.5t-93.5 18.5q-51 0 -94.5 -19t-76 -52.5t-50.5 -77t-18 -92.5t18 -92.5t50.5 -76.5t75.5 -51.5t93 -18.5zM224 211v301h141q62 0 95.5 -28t33.5 -79q0 -55 -33.5 -85.5t-95.5 -30.5h-41v-78h-100zM324 365h41q17 0 25.5 9.5
t8.5 26.5t-8.5 26.5t-25.5 9.5h-41v-72z" />
    <glyph glyph-name="macron" unicode="&#xaf;" horiz-adv-x="340" 
d="M15 762h320v-128h-320v128z" />
    <glyph glyph-name="degree" unicode="&#xb0;" horiz-adv-x="400" 
d="M207 824q34 0 61 -16.5t43.5 -43.5t16.5 -61q0 -33 -16.5 -60.5t-43.5 -44t-60 -16.5q-34 0 -61.5 16.5t-44 44t-16.5 60.5q0 34 16.5 61t44 43.5t60.5 16.5zM207 741q-16 0 -27 -11t-11 -27t11 -27t27 -11t27 11t11 27t-11 27t-27 11z" />
    <glyph glyph-name="plusminus" unicode="&#xb1;" horiz-adv-x="498" 
d="M35 426h428v-74h-428v74zM212 598h75v-418h-75v418zM35 98h428v-76h-428v76z" />
    <glyph glyph-name="uni00B2" unicode="&#xb2;" horiz-adv-x="396" 
d="M174 602q11 12 20 25t9 23q0 8 -6 12t-17 4q-24 0 -55.5 -14.5t-63.5 -39.5l-58 108q49 32 99 49.5t103 17.5q69 0 115.5 -31.5t46.5 -83.5q0 -37 -24.5 -72.5t-62.5 -70.5l-58 -54h149v-115h-349v93z" />
    <glyph glyph-name="uni00B3" unicode="&#xb3;" horiz-adv-x="382" 
d="M274 613q39 -10 65.5 -40t26.5 -77q0 -61 -48.5 -101t-130.5 -40q-51 0 -100.5 16t-81.5 42l62 114q25 -31 52 -46t55 -15q20 0 29.5 7t9.5 23t-9.5 23.5t-29.5 7.5h-82v78l78 68h-142v108h318v-84l-91 -79z" />
    <glyph glyph-name="acute" unicode="&#xb4;" horiz-adv-x="350" 
d="M157 780l169 -60l-162 -129l-142 10z" />
    <glyph glyph-name="uni00B5" unicode="&#xb5;" horiz-adv-x="692" 
d="M60 547h225v-741h-225v741zM285 263q0 -34 16.5 -54.5t43.5 -20.5q31 0 49 24t18 64h50q0 -87 -25.5 -151t-72.5 -99.5t-113 -35.5q-56 0 -99 26t-67.5 72.5t-24.5 109.5v349h225v-284zM412 547h225v-547h-225v547z" />
    <glyph glyph-name="paragraph" unicode="&#xb6;" horiz-adv-x="682" 
d="M228 293h-11h-11q-64 0 -106.5 22t-66 56t-33.5 72t-10 70q0 58 25.5 110.5t82.5 85.5t151 33h383v-847h-166v723h-72v-723h-166v398z" />
    <glyph glyph-name="periodcentered" unicode="&#xb7;" horiz-adv-x="242" 
d="M121 408q50 0 82 -32t32 -82t-32 -82t-82 -32t-82 32t-32 82t32 82t82 32z" />
    <glyph glyph-name="cedilla" unicode="&#xb8;" horiz-adv-x="342" 
d="M135 10l118 -10l-22 -59q45 -12 64 -33.5t19 -49.5q0 -37 -20 -59.5t-51.5 -32.5t-65.5 -10q-30 0 -61 5t-58 14l30 90q11 -4 22.5 -5.5t22.5 -1.5q17 0 28.5 4.5t11.5 14.5q0 13 -18 18t-39 5h-8.5h-8.5z" />
    <glyph glyph-name="uni00B9" unicode="&#xb9;" horiz-adv-x="278" 
d="M-1 781h232v-421h-156v302h-76v119z" />
    <glyph glyph-name="ordmasculine" unicode="&#xba;" horiz-adv-x="419" 
d="M209 793q61 0 105 -21t68.5 -59t24.5 -90q0 -51 -24.5 -89.5t-68.5 -59.5t-105 -21q-90 0 -143.5 46.5t-53.5 123.5q0 52 24 90t68.5 59t104.5 21zM209 678q-20 0 -32 -15.5t-12 -41.5q0 -25 12 -40.5t32 -15.5t32 15.5t12 40.5q0 26 -12 41.5t-32 15.5z" />
    <glyph glyph-name="guillemotright" unicode="&#xbb;" horiz-adv-x="544" 
d="M178 78h-180l106 193l-106 195h180l124 -195zM437 78h-180l106 193l-106 195h180l124 -195z" />
    <glyph glyph-name="onequarter" unicode="&#xbc;" horiz-adv-x="907" 
d="M-1 701h232v-421h-156v302h-76v119zM592 701h149l-487 -701h-149zM628 421h149l-116 -237h49v76h145v-76h55v-107h-55v-77h-145v77h-208v98z" />
    <glyph glyph-name="onehalf" unicode="&#xbd;" horiz-adv-x="954" 
d="M-1 701h232v-421h-156v302h-76v119zM592 701h149l-487 -701h-149zM732 242q11 12 20 25t9 23q0 8 -6 12t-17 4q-24 0 -55.5 -14.5t-63.5 -39.5l-58 108q49 32 99 49.5t103 17.5q69 0 115.5 -31.5t46.5 -83.5q0 -37 -24.5 -72.5t-62.5 -70.5l-58 -54h149v-115h-349v93z
" />
    <glyph glyph-name="threequarters" unicode="&#xbe;" horiz-adv-x="981" 
d="M274 533q39 -10 65.5 -40t26.5 -77q0 -61 -48.5 -101t-130.5 -40q-51 0 -100.5 16t-81.5 42l62 114q25 -31 52 -46t55 -15q20 0 29.5 7t9.5 23t-9.5 23.5t-29.5 7.5h-82v78l78 68h-142v108h318v-84l-91 -79zM666 701h149l-487 -701h-149zM702 421h149l-116 -237h49v76
h145v-76h55v-107h-55v-77h-145v77h-208v98z" />
    <glyph glyph-name="questiondown" unicode="&#xbf;" horiz-adv-x="498" 
d="M477 92q0 -121 -65 -188.5t-182 -67.5q-72 0 -123.5 21.5t-79 62.5t-27.5 98q0 36 12 64t31.5 50t41 40.5t41 37.5t31.5 40t12 47h167q0 -37 -9 -64.5t-23.5 -47.5t-30.5 -36t-30.5 -30t-23.5 -29.5t-9 -34.5q0 -22 9.5 -32t31.5 -10q28 0 41 19.5t13 59.5h172zM257 350
q-46 0 -74.5 28.5t-28.5 73.5q0 46 28.5 74.5t74.5 28.5q45 0 73.5 -28.5t28.5 -74.5q0 -45 -28.5 -73.5t-73.5 -28.5z" />
    <glyph glyph-name="Agrave" unicode="&#xc0;" horiz-adv-x="799" 
d="M286 701h238l285 -701h-247l-164 470l-170 -470h-238zM190 265h402v-166h-402v166zM393 934l111 -179l-143 -10l-138 129z" />
    <glyph glyph-name="Aacute" unicode="&#xc1;" horiz-adv-x="799" 
d="M286 701h238l285 -701h-247l-164 470l-170 -470h-238zM190 265h402v-166h-402v166zM423 934l169 -60l-162 -129l-142 10z" />
    <glyph glyph-name="Acircumflex" unicode="&#xc2;" horiz-adv-x="799" 
d="M286 701h238l285 -701h-247l-164 470l-170 -470h-238zM190 265h402v-166h-402v166zM306 914h188l111 -162h-140l-120 132h110l-120 -132h-140z" />
    <glyph glyph-name="Atilde" unicode="&#xc3;" horiz-adv-x="799" 
d="M286 701h238l285 -701h-247l-164 470l-170 -470h-238zM190 265h402v-166h-402v166zM601 927q0 -62 -11.5 -101t-35 -57.5t-60.5 -18.5q-24 0 -43.5 6t-36 14.5t-29.5 14.5t-24 6q-14 0 -21 -9.5t-8 -29.5h-117q0 61 11.5 100.5t35.5 58.5t61 19q23 0 43 -6t36.5 -14.5
t29.5 -14.5t23 -6q15 0 22 9.5t8 28.5h116z" />
    <glyph glyph-name="Adieresis" unicode="&#xc4;" horiz-adv-x="799" 
d="M286 701h238l285 -701h-247l-164 470l-170 -470h-238zM190 265h402v-166h-402v166zM299 929q39 0 63.5 -25t24.5 -64q0 -38 -24.5 -63t-63.5 -25t-63.5 25t-24.5 63q0 39 24.5 64t63.5 25zM501 929q39 0 63.5 -25t24.5 -64q0 -38 -24.5 -63t-63.5 -25t-63.5 25t-24.5 63
q0 39 24.5 64t63.5 25z" />
    <glyph glyph-name="Aring" unicode="&#xc5;" horiz-adv-x="799" 
d="M286 701h238l285 -701h-247l-164 470l-170 -470h-238zM190 265h402v-166h-402v166zM400 981q35 0 63 -16.5t44.5 -44.5t16.5 -63q0 -34 -16.5 -62.5t-44.5 -45t-63 -16.5q-34 0 -62.5 16.5t-45 45t-16.5 62.5q0 35 16.5 63t45 44.5t62.5 16.5zM401 896q-17 0 -28.5 -11
t-11.5 -28q0 -16 11.5 -27.5t27.5 -11.5q17 0 28 11.5t11 27.5q0 17 -11 28t-27 11z" />
    <glyph glyph-name="AE" unicode="&#xc6;" horiz-adv-x="1147" 
d="M507 701h593v-176h-361v-86h328v-176h-328v-87h370v-176h-602v701zM380 701h396l8 -176h-294l-260 -525h-240zM225 288h403l-5 -166h-403z" />
    <glyph glyph-name="Ccedilla" unicode="&#xc7;" horiz-adv-x="688" 
d="M557 427q-31 44 -74.5 70t-84.5 26q-31 0 -57.5 -12.5t-46.5 -35t-30.5 -53t-10.5 -66.5q0 -37 10.5 -68t30.5 -53.5t46.5 -35t57.5 -12.5q38 0 81.5 22.5t77.5 59.5l134 -143q-39 -43 -89.5 -75t-106 -49.5t-109.5 -17.5q-81 0 -148.5 27.5t-117.5 77t-77.5 117
t-27.5 147.5q0 79 28 145t79.5 115t121 76t151.5 27q54 0 108.5 -16t103 -45t84.5 -69zM314 10l118 -10l-22 -59q45 -12 64 -33.5t19 -49.5q0 -37 -20 -59.5t-51.5 -32.5t-65.5 -10q-30 0 -61 5t-58 14l30 90q11 -4 22.5 -5.5t22.5 -1.5q17 0 28.5 4.5t11.5 14.5
q0 13 -18 18t-39 5h-8.5h-8.5z" />
    <glyph glyph-name="Egrave" unicode="&#xc8;" horiz-adv-x="690" 
d="M50 701h593v-176h-361v-86h328v-176h-328v-87h370v-176h-602v701zM341 934l111 -179l-143 -10l-138 129z" />
    <glyph glyph-name="Eacute" unicode="&#xc9;" horiz-adv-x="690" 
d="M50 701h593v-176h-361v-86h328v-176h-328v-87h370v-176h-602v701zM371 934l169 -60l-162 -129l-142 10z" />
    <glyph glyph-name="Ecircumflex" unicode="&#xca;" horiz-adv-x="690" 
d="M50 701h593v-176h-361v-86h328v-176h-328v-87h370v-176h-602v701zM254 914h188l111 -162h-140l-120 132h110l-120 -132h-140z" />
    <glyph glyph-name="Edieresis" unicode="&#xcb;" horiz-adv-x="690" 
d="M50 701h593v-176h-361v-86h328v-176h-328v-87h370v-176h-602v701zM247 929q39 0 63.5 -25t24.5 -64q0 -38 -24.5 -63t-63.5 -25t-63.5 25t-24.5 63q0 39 24.5 64t63.5 25zM449 929q39 0 63.5 -25t24.5 -64q0 -38 -24.5 -63t-63.5 -25t-63.5 25t-24.5 63q0 39 24.5 64
t63.5 25z" />
    <glyph glyph-name="Igrave" unicode="&#xcc;" horiz-adv-x="332" 
d="M50 701h232v-701h-232v701zM159 934l111 -179l-143 -10l-138 129z" />
    <glyph glyph-name="Iacute" unicode="&#xcd;" horiz-adv-x="332" 
d="M50 701h232v-701h-232v701zM189 934l169 -60l-162 -129l-142 10z" />
    <glyph glyph-name="Icircumflex" unicode="&#xce;" horiz-adv-x="332" 
d="M50 701h232v-701h-232v701zM72 914h188l111 -162h-140l-120 132h110l-120 -132h-140z" />
    <glyph glyph-name="Idieresis" unicode="&#xcf;" horiz-adv-x="332" 
d="M50 701h232v-701h-232v701zM65 929q39 0 63.5 -25t24.5 -64q0 -38 -24.5 -63t-63.5 -25t-63.5 25t-24.5 63q0 39 24.5 64t63.5 25zM267 929q39 0 63.5 -25t24.5 -64q0 -38 -24.5 -63t-63.5 -25t-63.5 25t-24.5 63q0 39 24.5 64t63.5 25z" />
    <glyph glyph-name="Eth" unicode="&#xd0;" horiz-adv-x="759" 
d="M-12 400h427v-98h-427v98zM363 701q87 0 157 -24.5t120 -70.5t77 -110.5t27 -144.5t-27.5 -144.5t-78.5 -111t-123 -71t-161 -24.5h-304v701h313zM369 180q32 0 57 12t43.5 34t28 53t9.5 70t-10.5 70.5t-30 54.5t-47 35t-61.5 12h-76v-341h87z" />
    <glyph glyph-name="Ntilde" unicode="&#xd1;" horiz-adv-x="781" 
d="M50 701h194l339 -440l-62 -21v461h210v-701h-194l-338 438l62 21v-459h-211v701zM592 927q0 -62 -11.5 -101t-35 -57.5t-60.5 -18.5q-24 0 -43.5 6t-36 14.5t-29.5 14.5t-24 6q-14 0 -21 -9.5t-8 -29.5h-117q0 61 11.5 100.5t35.5 58.5t61 19q23 0 43 -6t36.5 -14.5
t29.5 -14.5t23 -6q15 0 22 9.5t8 28.5h116z" />
    <glyph glyph-name="Ograve" unicode="&#xd2;" horiz-adv-x="800" 
d="M400 716q84 0 154 -27t122 -76t80.5 -115.5t28.5 -145.5t-28.5 -146.5t-80.5 -117t-122 -77t-154 -27.5t-154 27.5t-122 77t-80.5 116.5t-28.5 147t28.5 146.5t80.5 115t122 75.5t154 27zM403 523q-30 0 -57.5 -12.5t-48 -36t-32.5 -54.5t-12 -69q0 -37 12 -69t33 -55.5
t48 -36.5t57 -13t56 13t46 36.5t31 55.5t11 69q0 38 -11 69t-31 54.5t-46 36t-56 12.5zM393 934l111 -179l-143 -10l-138 129z" />
    <glyph glyph-name="Oacute" unicode="&#xd3;" horiz-adv-x="800" 
d="M400 716q84 0 154 -27t122 -76t80.5 -115.5t28.5 -145.5t-28.5 -146.5t-80.5 -117t-122 -77t-154 -27.5t-154 27.5t-122 77t-80.5 116.5t-28.5 147t28.5 146.5t80.5 115t122 75.5t154 27zM403 523q-30 0 -57.5 -12.5t-48 -36t-32.5 -54.5t-12 -69q0 -37 12 -69t33 -55.5
t48 -36.5t57 -13t56 13t46 36.5t31 55.5t11 69q0 38 -11 69t-31 54.5t-46 36t-56 12.5zM423 934l169 -60l-162 -129l-142 10z" />
    <glyph glyph-name="Ocircumflex" unicode="&#xd4;" horiz-adv-x="800" 
d="M400 716q84 0 154 -27t122 -76t80.5 -115.5t28.5 -145.5t-28.5 -146.5t-80.5 -117t-122 -77t-154 -27.5t-154 27.5t-122 77t-80.5 116.5t-28.5 147t28.5 146.5t80.5 115t122 75.5t154 27zM403 523q-30 0 -57.5 -12.5t-48 -36t-32.5 -54.5t-12 -69q0 -37 12 -69t33 -55.5
t48 -36.5t57 -13t56 13t46 36.5t31 55.5t11 69q0 38 -11 69t-31 54.5t-46 36t-56 12.5zM306 914h188l111 -162h-140l-120 132h110l-120 -132h-140z" />
    <glyph glyph-name="Otilde" unicode="&#xd5;" horiz-adv-x="800" 
d="M400 716q84 0 154 -27t122 -76t80.5 -115.5t28.5 -145.5t-28.5 -146.5t-80.5 -117t-122 -77t-154 -27.5t-154 27.5t-122 77t-80.5 116.5t-28.5 147t28.5 146.5t80.5 115t122 75.5t154 27zM403 523q-30 0 -57.5 -12.5t-48 -36t-32.5 -54.5t-12 -69q0 -37 12 -69t33 -55.5
t48 -36.5t57 -13t56 13t46 36.5t31 55.5t11 69q0 38 -11 69t-31 54.5t-46 36t-56 12.5zM601 927q0 -62 -11.5 -101t-35 -57.5t-60.5 -18.5q-24 0 -43.5 6t-36 14.5t-29.5 14.5t-24 6q-14 0 -21 -9.5t-8 -29.5h-117q0 61 11.5 100.5t35.5 58.5t61 19q23 0 43 -6t36.5 -14.5
t29.5 -14.5t23 -6q15 0 22 9.5t8 28.5h116z" />
    <glyph glyph-name="Odieresis" unicode="&#xd6;" horiz-adv-x="800" 
d="M400 716q84 0 154 -27t122 -76t80.5 -115.5t28.5 -145.5t-28.5 -146.5t-80.5 -117t-122 -77t-154 -27.5t-154 27.5t-122 77t-80.5 116.5t-28.5 147t28.5 146.5t80.5 115t122 75.5t154 27zM403 523q-30 0 -57.5 -12.5t-48 -36t-32.5 -54.5t-12 -69q0 -37 12 -69t33 -55.5
t48 -36.5t57 -13t56 13t46 36.5t31 55.5t11 69q0 38 -11 69t-31 54.5t-46 36t-56 12.5zM299 929q39 0 63.5 -25t24.5 -64q0 -38 -24.5 -63t-63.5 -25t-63.5 25t-24.5 63q0 39 24.5 64t63.5 25zM501 929q39 0 63.5 -25t24.5 -64q0 -38 -24.5 -63t-63.5 -25t-63.5 25t-24.5 63
q0 39 24.5 64t63.5 25z" />
    <glyph glyph-name="multiply" unicode="&#xd7;" horiz-adv-x="520" 
d="M373 541l99 -99l-325 -325l-99 99zM147 541l325 -325l-99 -99l-325 325z" />
    <glyph glyph-name="Oslash" unicode="&#xd8;" horiz-adv-x="800" 
d="M573 755h127l-473 -810h-127zM400 704q84 0 154 -26.5t122 -74.5t80.5 -113t28.5 -143t-28.5 -144t-80.5 -114.5t-122 -75.5t-154 -27t-154 27t-122 75.5t-80.5 114.5t-28.5 144t28.5 143.5t80.5 113t122 74t154 26.5zM403 511q-30 0 -57.5 -12t-48 -34.5t-32.5 -52.5
t-12 -66t12 -66.5t33 -53t48 -35t57 -12.5t56 12.5t46 35t31 53t11 66.5t-11 66t-31 52.5t-46 34.5t-56 12z" />
    <glyph glyph-name="Ugrave" unicode="&#xd9;" horiz-adv-x="741" 
d="M272 291q0 -52 31 -83t71 -31t67.5 31t27.5 83v410h232v-410q0 -93 -40.5 -162t-114 -107t-173.5 -38t-175 38t-116.5 107t-41.5 162v410h232v-410zM364 934l111 -179l-143 -10l-138 129z" />
    <glyph glyph-name="Uacute" unicode="&#xda;" horiz-adv-x="741" 
d="M272 291q0 -52 31 -83t71 -31t67.5 31t27.5 83v410h232v-410q0 -93 -40.5 -162t-114 -107t-173.5 -38t-175 38t-116.5 107t-41.5 162v410h232v-410zM394 934l169 -60l-162 -129l-142 10z" />
    <glyph glyph-name="Ucircumflex" unicode="&#xdb;" horiz-adv-x="741" 
d="M272 291q0 -52 31 -83t71 -31t67.5 31t27.5 83v410h232v-410q0 -93 -40.5 -162t-114 -107t-173.5 -38t-175 38t-116.5 107t-41.5 162v410h232v-410zM277 914h188l111 -162h-140l-120 132h110l-120 -132h-140z" />
    <glyph glyph-name="Udieresis" unicode="&#xdc;" horiz-adv-x="741" 
d="M272 291q0 -52 31 -83t71 -31t67.5 31t27.5 83v410h232v-410q0 -93 -40.5 -162t-114 -107t-173.5 -38t-175 38t-116.5 107t-41.5 162v410h232v-410zM270 929q39 0 63.5 -25t24.5 -64q0 -38 -24.5 -63t-63.5 -25t-63.5 25t-24.5 63q0 39 24.5 64t63.5 25zM472 929
q39 0 63.5 -25t24.5 -64q0 -38 -24.5 -63t-63.5 -25t-63.5 25t-24.5 63q0 39 24.5 64t63.5 25z" />
    <glyph glyph-name="Yacute" unicode="&#xdd;" horiz-adv-x="719" 
d="M-10 701h231l141 -270l136 270h231l-354 -681h-28zM246 317h232v-317h-232v317zM383 934l169 -60l-162 -129l-142 10z" />
    <glyph glyph-name="Thorn" unicode="&#xde;" horiz-adv-x="698" 
d="M382 615q90 0 156.5 -30.5t103 -86t36.5 -131.5q0 -80 -36.5 -140t-103 -92.5t-156.5 -32.5h-112v176h102q31 0 49.5 22.5t18.5 59.5q0 36 -18.5 57.5t-49.5 21.5h-102l-32 176h144zM50 701h232v-701h-232v701z" />
    <glyph glyph-name="germandbls" unicode="&#xdf;" horiz-adv-x="670" 
d="M40 496q0 78 35 135.5t99 89t151 31.5q86 0 149 -25.5t97.5 -71.5t34.5 -108q0 -46 -21.5 -90t-56.5 -72q56 -19 89 -65t33 -103q0 -66 -36 -114.5t-101 -75.5t-154 -27h-47v158h23q50 0 73.5 15.5t23.5 49.5q0 32 -23.5 46.5t-73.5 14.5h-23v157q40 0 58 17.5t18 54.5
q0 38 -14 55t-45 17q-22 0 -36 -7.5t-21 -23.5t-7 -41v-513h-225v496z" />
    <glyph glyph-name="agrave" unicode="&#xe0;" horiz-adv-x="613" 
d="M274 225q-23 0 -35.5 -11t-12.5 -33t13 -35t37 -13q15 0 29 5t26 14.5t21 22.5l26 -66q-19 -56 -64.5 -87.5t-115.5 -31.5q-58 0 -99 21.5t-62.5 60t-21.5 90.5q0 81 54 123.5t158 43.5h144v-104h-97zM352 327q0 29 -21.5 45.5t-63.5 16.5q-31 0 -75 -9t-91 -26l-50 150
q47 17 93.5 29t91.5 18t85 6q119 0 185.5 -53t66.5 -150v-354h-221v327zM301 780l111 -179l-143 -10l-138 129z" />
    <glyph glyph-name="aacute" unicode="&#xe1;" horiz-adv-x="613" 
d="M274 225q-23 0 -35.5 -11t-12.5 -33t13 -35t37 -13q15 0 29 5t26 14.5t21 22.5l26 -66q-19 -56 -64.5 -87.5t-115.5 -31.5q-58 0 -99 21.5t-62.5 60t-21.5 90.5q0 81 54 123.5t158 43.5h144v-104h-97zM352 327q0 29 -21.5 45.5t-63.5 16.5q-31 0 -75 -9t-91 -26l-50 150
q47 17 93.5 29t91.5 18t85 6q119 0 185.5 -53t66.5 -150v-354h-221v327zM331 780l169 -60l-162 -129l-142 10z" />
    <glyph glyph-name="acircumflex" unicode="&#xe2;" horiz-adv-x="613" 
d="M274 225q-23 0 -35.5 -11t-12.5 -33t13 -35t37 -13q15 0 29 5t26 14.5t21 22.5l26 -66q-19 -56 -64.5 -87.5t-115.5 -31.5q-58 0 -99 21.5t-62.5 60t-21.5 90.5q0 81 54 123.5t158 43.5h144v-104h-97zM352 327q0 29 -21.5 45.5t-63.5 16.5q-31 0 -75 -9t-91 -26l-50 150
q47 17 93.5 29t91.5 18t85 6q119 0 185.5 -53t66.5 -150v-354h-221v327zM214 769h188l111 -162h-140l-120 132h110l-120 -132h-140z" />
    <glyph glyph-name="atilde" unicode="&#xe3;" horiz-adv-x="613" 
d="M274 225q-23 0 -35.5 -11t-12.5 -33t13 -35t37 -13q15 0 29 5t26 14.5t21 22.5l26 -66q-19 -56 -64.5 -87.5t-115.5 -31.5q-58 0 -99 21.5t-62.5 60t-21.5 90.5q0 81 54 123.5t158 43.5h144v-104h-97zM352 327q0 29 -21.5 45.5t-63.5 16.5q-31 0 -75 -9t-91 -26l-50 150
q47 17 93.5 29t91.5 18t85 6q119 0 185.5 -53t66.5 -150v-354h-221v327zM509 771q0 -62 -11.5 -101t-35 -57.5t-60.5 -18.5q-24 0 -43.5 6t-36 14.5t-29.5 14.5t-24 6q-14 0 -21 -9.5t-8 -29.5h-117q0 61 11.5 100.5t35.5 58.5t61 19q23 0 43 -6t36.5 -14.5t29.5 -14.5
t23 -6q15 0 22 9.5t8 28.5h116z" />
    <glyph glyph-name="adieresis" unicode="&#xe4;" horiz-adv-x="613" 
d="M274 225q-23 0 -35.5 -11t-12.5 -33t13 -35t37 -13q15 0 29 5t26 14.5t21 22.5l26 -66q-19 -56 -64.5 -87.5t-115.5 -31.5q-58 0 -99 21.5t-62.5 60t-21.5 90.5q0 81 54 123.5t158 43.5h144v-104h-97zM352 327q0 29 -21.5 45.5t-63.5 16.5q-31 0 -75 -9t-91 -26l-50 150
q47 17 93.5 29t91.5 18t85 6q119 0 185.5 -53t66.5 -150v-354h-221v327zM207 782q39 0 63.5 -25t24.5 -64q0 -38 -24.5 -63t-63.5 -25t-63.5 25t-24.5 63q0 39 24.5 64t63.5 25zM409 782q39 0 63.5 -25t24.5 -64q0 -38 -24.5 -63t-63.5 -25t-63.5 25t-24.5 63q0 39 24.5 64
t63.5 25z" />
    <glyph glyph-name="aring" unicode="&#xe5;" horiz-adv-x="613" 
d="M274 225q-23 0 -35.5 -11t-12.5 -33t13 -35t37 -13q15 0 29 5t26 14.5t21 22.5l26 -66q-19 -56 -64.5 -87.5t-115.5 -31.5q-58 0 -99 21.5t-62.5 60t-21.5 90.5q0 81 54 123.5t158 43.5h144v-104h-97zM352 327q0 29 -21.5 45.5t-63.5 16.5q-31 0 -75 -9t-91 -26l-50 150
q47 17 93.5 29t91.5 18t85 6q119 0 185.5 -53t66.5 -150v-354h-221v327zM308 827q35 0 63 -16.5t44.5 -44.5t16.5 -63q0 -34 -16.5 -62.5t-44.5 -45t-63 -16.5q-34 0 -62.5 16.5t-45 45t-16.5 62.5q0 35 16.5 63t45 44.5t62.5 16.5zM309 742q-17 0 -28.5 -11t-11.5 -28
q0 -16 11.5 -27.5t27.5 -11.5q17 0 28 11.5t11 27.5q0 17 -11 28t-27 11z" />
    <glyph glyph-name="ae" unicode="&#xe6;" horiz-adv-x="958" 
d="M587 217q5 -15 13.5 -26t20 -18.5t25.5 -11t30 -3.5q60 0 112 49l117 -115q-43 -48 -106 -74t-143 -26q-51 0 -92.5 12t-73.5 34.5t-54 54.5q-31 -49 -85 -76.5t-131 -27.5q-64 0 -110 21.5t-70.5 60.5t-24.5 91q0 81 54.5 123.5t158.5 43.5h127l-1 9q-4 24 -25.5 37.5
t-59.5 13.5q-31 0 -76 -9t-92 -26l-50 150q71 26 140.5 39.5t130.5 13.5q55 0 99 -11t76 -34q31 21 69 32t84 11q96 0 163.5 -41t101 -115.5t27.5 -175.5h-357zM275 225q-23 0 -36 -11t-13 -33t13.5 -35t37.5 -13q22 0 43 11t35 31v50h-80zM717 327q2 23 -6.5 40.5
t-23.5 27.5t-35 10q-19 0 -33.5 -10t-24 -27.5t-14.5 -40.5h137z" />
    <glyph glyph-name="ccedilla" unicode="&#xe7;" horiz-adv-x="561" 
d="M384 321q-10 25 -28 38.5t-42 13.5q-22 0 -38 -12.5t-25 -35t-9 -53.5t9 -54t25 -35.5t38 -12.5q24 0 41 14t26 45l182 -84q-30 -73 -98.5 -113t-162.5 -40q-87 0 -151.5 34.5t-100 97.5t-35.5 147q0 86 36 150t101 99t152 35q89 0 157 -41.5t102 -116.5zM236 10l118 -10
l-22 -59q45 -12 64 -33.5t19 -49.5q0 -37 -20 -59.5t-51.5 -32.5t-65.5 -10q-30 0 -61 5t-58 14l30 90q11 -4 22.5 -5.5t22.5 -1.5q17 0 28.5 4.5t11.5 14.5q0 13 -18 18t-39 5h-8.5h-8.5z" />
    <glyph glyph-name="egrave" unicode="&#xe8;" horiz-adv-x="614" 
d="M373 327q2 23 -6 40.5t-23 27.5t-35 10q-25 0 -42 -16t-25.5 -43.5t-8.5 -61.5q0 -41 12.5 -69t35 -42.5t52.5 -14.5q59 0 111 49l117 -115q-43 -48 -105.5 -74t-142.5 -26q-93 0 -160 34.5t-102.5 97.5t-35.5 147q0 87 36.5 150.5t102 98.5t153.5 35q96 0 163 -41
t100.5 -115.5t27.5 -175.5h-394v104h169zM296 780l111 -179l-143 -10l-138 129z" />
    <glyph glyph-name="eacute" unicode="&#xe9;" horiz-adv-x="614" 
d="M373 327q2 23 -6 40.5t-23 27.5t-35 10q-25 0 -42 -16t-25.5 -43.5t-8.5 -61.5q0 -41 12.5 -69t35 -42.5t52.5 -14.5q59 0 111 49l117 -115q-43 -48 -105.5 -74t-142.5 -26q-93 0 -160 34.5t-102.5 97.5t-35.5 147q0 87 36.5 150.5t102 98.5t153.5 35q96 0 163 -41
t100.5 -115.5t27.5 -175.5h-394v104h169zM326 780l169 -60l-162 -129l-142 10z" />
    <glyph glyph-name="ecircumflex" unicode="&#xea;" horiz-adv-x="614" 
d="M373 327q2 23 -6 40.5t-23 27.5t-35 10q-25 0 -42 -16t-25.5 -43.5t-8.5 -61.5q0 -41 12.5 -69t35 -42.5t52.5 -14.5q59 0 111 49l117 -115q-43 -48 -105.5 -74t-142.5 -26q-93 0 -160 34.5t-102.5 97.5t-35.5 147q0 87 36.5 150.5t102 98.5t153.5 35q96 0 163 -41
t100.5 -115.5t27.5 -175.5h-394v104h169zM209 769h188l111 -162h-140l-120 132h110l-120 -132h-140z" />
    <glyph glyph-name="edieresis" unicode="&#xeb;" horiz-adv-x="614" 
d="M373 327q2 23 -6 40.5t-23 27.5t-35 10q-25 0 -42 -16t-25.5 -43.5t-8.5 -61.5q0 -41 12.5 -69t35 -42.5t52.5 -14.5q59 0 111 49l117 -115q-43 -48 -105.5 -74t-142.5 -26q-93 0 -160 34.5t-102.5 97.5t-35.5 147q0 87 36.5 150.5t102 98.5t153.5 35q96 0 163 -41
t100.5 -115.5t27.5 -175.5h-394v104h169zM202 782q39 0 63.5 -25t24.5 -64q0 -38 -24.5 -63t-63.5 -25t-63.5 25t-24.5 63q0 39 24.5 64t63.5 25zM404 782q39 0 63.5 -25t24.5 -64q0 -38 -24.5 -63t-63.5 -25t-63.5 25t-24.5 63q0 39 24.5 64t63.5 25z" />
    <glyph glyph-name="igrave" unicode="&#xec;" horiz-adv-x="335" 
d="M55 547h225v-547h-225v547zM161 780l111 -179l-143 -10l-138 129z" />
    <glyph glyph-name="iacute" unicode="&#xed;" horiz-adv-x="335" 
d="M55 547h225v-547h-225v547zM191 780l169 -60l-162 -129l-142 10z" />
    <glyph glyph-name="icircumflex" unicode="&#xee;" horiz-adv-x="335" 
d="M55 547h225v-547h-225v547zM74 769h188l111 -162h-140l-120 132h110l-120 -132h-140z" />
    <glyph glyph-name="idieresis" unicode="&#xef;" horiz-adv-x="335" 
d="M55 547h225v-547h-225v547zM67 782q39 0 63.5 -25t24.5 -64q0 -38 -24.5 -63t-63.5 -25t-63.5 25t-24.5 63q0 39 24.5 64t63.5 25zM269 782q39 0 63.5 -25t24.5 -64q0 -38 -24.5 -63t-63.5 -25t-63.5 25t-24.5 63q0 39 24.5 64t63.5 25z" />
    <glyph glyph-name="eth" unicode="&#xf0;" horiz-adv-x="617" 
d="M235 752q111 -37 193.5 -105t128 -156.5t45.5 -187.5q0 -95 -39.5 -165.5t-110.5 -109.5t-168 -39q-83 0 -145 29.5t-96 83t-34 125.5q0 67 28 116.5t79 77t120 27.5q42 0 81.5 -10.5t63.5 -28.5q0 51 -40.5 98t-107.5 87t-149 69zM291 300q-31 0 -49 -17t-18 -45
q0 -29 18.5 -46.5t49.5 -17.5q32 0 50.5 17.5t18.5 45.5q0 29 -19 46t-51 17zM75 550l444 203l37 -78l-444 -201z" />
    <glyph glyph-name="ntilde" unicode="&#xf1;" horiz-adv-x="682" 
d="M417 284q0 35 -18 55t-47 20q-33 0 -52.5 -24t-19.5 -64h-50q0 87 26 151.5t74.5 99.5t115.5 35q58 0 102 -25.5t69 -72.5t25 -110v-349h-225v284zM55 547h225v-547h-225v547zM561 771q0 -62 -11.5 -101t-35 -57.5t-60.5 -18.5q-24 0 -43.5 6t-36 14.5t-29.5 14.5t-24 6
q-14 0 -21 -9.5t-8 -29.5h-117q0 61 11.5 100.5t35.5 58.5t61 19q23 0 43 -6t36.5 -14.5t29.5 -14.5t23 -6q15 0 22 9.5t8 28.5h116z" />
    <glyph glyph-name="ograve" unicode="&#xf2;" horiz-adv-x="648" 
d="M324 555q94 0 163.5 -34.5t107.5 -97.5t38 -149q0 -85 -38 -148.5t-107.5 -98.5t-163.5 -35t-163.5 35t-107.5 98.5t-38 148.5q0 86 38 149t107.5 97.5t163.5 34.5zM324 377q-25 0 -43.5 -13t-28.5 -37t-10 -56t10 -56t28.5 -37t43.5 -13t43.5 13t28.5 37t10 56t-10 56
t-28.5 37t-43.5 13zM317 780l111 -179l-143 -10l-138 129z" />
    <glyph glyph-name="oacute" unicode="&#xf3;" horiz-adv-x="648" 
d="M324 555q94 0 163.5 -34.5t107.5 -97.5t38 -149q0 -85 -38 -148.5t-107.5 -98.5t-163.5 -35t-163.5 35t-107.5 98.5t-38 148.5q0 86 38 149t107.5 97.5t163.5 34.5zM324 377q-25 0 -43.5 -13t-28.5 -37t-10 -56t10 -56t28.5 -37t43.5 -13t43.5 13t28.5 37t10 56t-10 56
t-28.5 37t-43.5 13zM347 780l169 -60l-162 -129l-142 10z" />
    <glyph glyph-name="ocircumflex" unicode="&#xf4;" horiz-adv-x="648" 
d="M324 555q94 0 163.5 -34.5t107.5 -97.5t38 -149q0 -85 -38 -148.5t-107.5 -98.5t-163.5 -35t-163.5 35t-107.5 98.5t-38 148.5q0 86 38 149t107.5 97.5t163.5 34.5zM324 377q-25 0 -43.5 -13t-28.5 -37t-10 -56t10 -56t28.5 -37t43.5 -13t43.5 13t28.5 37t10 56t-10 56
t-28.5 37t-43.5 13zM230 769h188l111 -162h-140l-120 132h110l-120 -132h-140z" />
    <glyph glyph-name="otilde" unicode="&#xf5;" horiz-adv-x="648" 
d="M324 555q94 0 163.5 -34.5t107.5 -97.5t38 -149q0 -85 -38 -148.5t-107.5 -98.5t-163.5 -35t-163.5 35t-107.5 98.5t-38 148.5q0 86 38 149t107.5 97.5t163.5 34.5zM324 377q-25 0 -43.5 -13t-28.5 -37t-10 -56t10 -56t28.5 -37t43.5 -13t43.5 13t28.5 37t10 56t-10 56
t-28.5 37t-43.5 13zM525 771q0 -62 -11.5 -101t-35 -57.5t-60.5 -18.5q-24 0 -43.5 6t-36 14.5t-29.5 14.5t-24 6q-14 0 -21 -9.5t-8 -29.5h-117q0 61 11.5 100.5t35.5 58.5t61 19q23 0 43 -6t36.5 -14.5t29.5 -14.5t23 -6q15 0 22 9.5t8 28.5h116z" />
    <glyph glyph-name="odieresis" unicode="&#xf6;" horiz-adv-x="648" 
d="M324 555q94 0 163.5 -34.5t107.5 -97.5t38 -149q0 -85 -38 -148.5t-107.5 -98.5t-163.5 -35t-163.5 35t-107.5 98.5t-38 148.5q0 86 38 149t107.5 97.5t163.5 34.5zM324 377q-25 0 -43.5 -13t-28.5 -37t-10 -56t10 -56t28.5 -37t43.5 -13t43.5 13t28.5 37t10 56t-10 56
t-28.5 37t-43.5 13zM223 782q39 0 63.5 -25t24.5 -64q0 -38 -24.5 -63t-63.5 -25t-63.5 25t-24.5 63q0 39 24.5 64t63.5 25zM425 782q39 0 63.5 -25t24.5 -64q0 -38 -24.5 -63t-63.5 -25t-63.5 25t-24.5 63q0 39 24.5 64t63.5 25z" />
    <glyph glyph-name="divide" unicode="&#xf7;" horiz-adv-x="520" 
d="M30 399h460v-140h-460v140zM260 600q40 0 65.5 -25.5t25.5 -66.5q0 -40 -25.5 -65.5t-65.5 -25.5t-65.5 25.5t-25.5 65.5q0 41 25.5 66.5t65.5 25.5zM260 240q40 0 65.5 -25.5t25.5 -66.5q0 -40 -25.5 -65.5t-65.5 -25.5t-65.5 25.5t-25.5 65.5q0 41 25.5 66.5t65.5 25.5
z" />
    <glyph glyph-name="oslash" unicode="&#xf8;" horiz-adv-x="648" 
d="M324 555q94 0 163.5 -34.5t107.5 -97.5t38 -149q0 -85 -38 -148.5t-107.5 -98.5t-163.5 -35t-163.5 35t-107.5 98.5t-38 148.5q0 86 38 149t107.5 97.5t163.5 34.5zM324 396q-29 0 -51 -15.5t-34 -43.5t-12 -66t12 -66t34 -43.5t51 -15.5q30 0 51.5 15.5t33.5 43.5t12 66
t-12 66t-33.5 43.5t-51.5 15.5zM522 627h88l-478 -707h-88z" />
    <glyph glyph-name="ugrave" unicode="&#xf9;" horiz-adv-x="672" 
d="M265 263q0 -34 16.5 -54.5t43.5 -20.5q31 0 49 24t18 64h50q0 -87 -25.5 -151t-72.5 -99.5t-113 -35.5q-56 0 -99 26t-67.5 72.5t-24.5 109.5v349h225v-284zM392 547h225v-547h-225v547zM329 780l111 -179l-143 -10l-138 129z" />
    <glyph glyph-name="uacute" unicode="&#xfa;" horiz-adv-x="672" 
d="M265 263q0 -34 16.5 -54.5t43.5 -20.5q31 0 49 24t18 64h50q0 -87 -25.5 -151t-72.5 -99.5t-113 -35.5q-56 0 -99 26t-67.5 72.5t-24.5 109.5v349h225v-284zM392 547h225v-547h-225v547zM359 780l169 -60l-162 -129l-142 10z" />
    <glyph glyph-name="ucircumflex" unicode="&#xfb;" horiz-adv-x="672" 
d="M265 263q0 -34 16.5 -54.5t43.5 -20.5q31 0 49 24t18 64h50q0 -87 -25.5 -151t-72.5 -99.5t-113 -35.5q-56 0 -99 26t-67.5 72.5t-24.5 109.5v349h225v-284zM392 547h225v-547h-225v547zM242 769h188l111 -162h-140l-120 132h110l-120 -132h-140z" />
    <glyph glyph-name="udieresis" unicode="&#xfc;" horiz-adv-x="672" 
d="M265 263q0 -34 16.5 -54.5t43.5 -20.5q31 0 49 24t18 64h50q0 -87 -25.5 -151t-72.5 -99.5t-113 -35.5q-56 0 -99 26t-67.5 72.5t-24.5 109.5v349h225v-284zM392 547h225v-547h-225v547zM235 782q39 0 63.5 -25t24.5 -64q0 -38 -24.5 -63t-63.5 -25t-63.5 25t-24.5 63
q0 39 24.5 64t63.5 25zM437 782q39 0 63.5 -25t24.5 -64q0 -38 -24.5 -63t-63.5 -25t-63.5 25t-24.5 63q0 39 24.5 64t63.5 25z" />
    <glyph glyph-name="yacute" unicode="&#xfd;" horiz-adv-x="624" 
d="M409 -38q-34 -85 -93 -125.5t-147 -40.5q-54 0 -99.5 15.5t-89.5 48.5l94 148q35 -32 73 -32q20 0 33 7t21 21l8 13l-227 530h231l108 -312l89 312h224zM335 780l169 -60l-162 -129l-142 10z" />
    <glyph glyph-name="thorn" unicode="&#xfe;" horiz-adv-x="690" 
d="M285 492q26 31 61.5 47t77.5 16q76 0 132.5 -35t87.5 -99t31 -151q0 -84 -30 -146.5t-85 -97t-130 -34.5q-44 0 -81 16.5t-64 47.5v-250h-225v936h225v-250zM366 382q-24 0 -42.5 -13t-28.5 -37t-10 -56t10 -56t28.5 -37t42.5 -13q25 0 43.5 13t28.5 37t10 56t-10 56
t-28.5 37t-43.5 13z" />
    <glyph glyph-name="ydieresis" unicode="&#xff;" horiz-adv-x="624" 
d="M409 -38q-34 -85 -93 -125.5t-147 -40.5q-54 0 -99.5 15.5t-89.5 48.5l94 148q35 -32 73 -32q20 0 33 7t21 21l8 13l-227 530h231l108 -312l89 312h224zM211 782q39 0 63.5 -25t24.5 -64q0 -38 -24.5 -63t-63.5 -25t-63.5 25t-24.5 63q0 39 24.5 64t63.5 25zM413 782
q39 0 63.5 -25t24.5 -64q0 -38 -24.5 -63t-63.5 -25t-63.5 25t-24.5 63q0 39 24.5 64t63.5 25z" />
    <glyph glyph-name="Amacron" unicode="&#x100;" horiz-adv-x="799" 
d="M286 701h238l285 -701h-247l-164 470l-170 -470h-238zM190 265h402v-166h-402v166zM210 880h380v-128h-380v128z" />
    <glyph glyph-name="amacron" unicode="&#x101;" horiz-adv-x="613" 
d="M274 225q-23 0 -35.5 -11t-12.5 -33t13 -35t37 -13q15 0 29 5t26 14.5t21 22.5l26 -66q-19 -56 -64.5 -87.5t-115.5 -31.5q-58 0 -99 21.5t-62.5 60t-21.5 90.5q0 81 54 123.5t158 43.5h144v-104h-97zM352 327q0 29 -21.5 45.5t-63.5 16.5q-31 0 -75 -9t-91 -26l-50 150
q47 17 93.5 29t91.5 18t85 6q119 0 185.5 -53t66.5 -150v-354h-221v327zM148 762h320v-128h-320v128z" />
    <glyph glyph-name="Abreve" unicode="&#x102;" horiz-adv-x="799" 
d="M286 701h238l285 -701h-247l-164 470l-170 -470h-238zM190 265h402v-166h-402v166zM351 926q2 -22 15.5 -36t33.5 -14t33.5 14t15.5 36h135q-4 -79 -54 -126.5t-130 -47.5t-130 47.5t-54 126.5h135z" />
    <glyph glyph-name="abreve" unicode="&#x103;" horiz-adv-x="613" 
d="M274 225q-23 0 -35.5 -11t-12.5 -33t13 -35t37 -13q15 0 29 5t26 14.5t21 22.5l26 -66q-19 -56 -64.5 -87.5t-115.5 -31.5q-58 0 -99 21.5t-62.5 60t-21.5 90.5q0 81 54 123.5t158 43.5h144v-104h-97zM352 327q0 29 -21.5 45.5t-63.5 16.5q-31 0 -75 -9t-91 -26l-50 150
q47 17 93.5 29t91.5 18t85 6q119 0 185.5 -53t66.5 -150v-354h-221v327zM259 769q2 -22 15.5 -36t33.5 -14t33.5 14t15.5 36h135q-4 -79 -54 -126.5t-130 -47.5t-130 47.5t-54 126.5h135z" />
    <glyph glyph-name="Aogonek" unicode="&#x104;" horiz-adv-x="799" 
d="M286 701h238l285 -701h-247l-164 470l-170 -470h-238zM190 265h402v-166h-402v166zM604 43l123 -43q-28 -19 -48.5 -42t-20.5 -48q0 -13 5 -19.5t15 -6.5q5 0 11.5 2t13.5 6l31 -111q-22 -10 -50 -17.5t-57 -7.5q-60 0 -88 34.5t-28 82.5q0 44 24 87.5t69 82.5z" />
    <glyph glyph-name="aogonek" unicode="&#x105;" horiz-adv-x="613" 
d="M274 225q-23 0 -35.5 -11t-12.5 -33t13 -35t37 -13q15 0 29 5t26 14.5t21 22.5l26 -66q-19 -56 -64.5 -87.5t-115.5 -31.5q-58 0 -99 21.5t-62.5 60t-21.5 90.5q0 81 54 123.5t158 43.5h144v-104h-97zM352 327q0 29 -21.5 45.5t-63.5 16.5q-31 0 -75 -9t-91 -26l-50 150
q47 17 93.5 29t91.5 18t85 6q119 0 185.5 -53t66.5 -150v-354h-221v327zM393 43l123 -43q-28 -19 -48.5 -42t-20.5 -48q0 -13 5 -19.5t15 -6.5q5 0 11.5 2t13.5 6l31 -111q-22 -10 -50 -17.5t-57 -7.5q-60 0 -88 34.5t-28 82.5q0 44 24 87.5t69 82.5z" />
    <glyph glyph-name="Cacute" unicode="&#x106;" horiz-adv-x="688" 
d="M557 427q-31 44 -74.5 70t-84.5 26q-31 0 -57.5 -12.5t-46.5 -35t-30.5 -53t-10.5 -66.5q0 -37 10.5 -68t30.5 -53.5t46.5 -35t57.5 -12.5q38 0 81.5 22.5t77.5 59.5l134 -143q-39 -43 -89.5 -75t-106 -49.5t-109.5 -17.5q-81 0 -148.5 27.5t-117.5 77t-77.5 117
t-27.5 147.5q0 79 28 145t79.5 115t121 76t151.5 27q54 0 108.5 -16t103 -45t84.5 -69zM417 934l169 -60l-162 -129l-142 10z" />
    <glyph glyph-name="cacute" unicode="&#x107;" horiz-adv-x="561" 
d="M384 321q-10 25 -28 38.5t-42 13.5q-22 0 -38 -12.5t-25 -35t-9 -53.5t9 -54t25 -35.5t38 -12.5q24 0 41 14t26 45l182 -84q-30 -73 -98.5 -113t-162.5 -40q-87 0 -151.5 34.5t-100 97.5t-35.5 147q0 86 36 150t101 99t152 35q89 0 157 -41.5t102 -116.5zM321 780
l169 -60l-162 -129l-142 10z" />
    <glyph glyph-name="Ccircumflex" unicode="&#x108;" horiz-adv-x="688" 
d="M557 427q-31 44 -74.5 70t-84.5 26q-31 0 -57.5 -12.5t-46.5 -35t-30.5 -53t-10.5 -66.5q0 -37 10.5 -68t30.5 -53.5t46.5 -35t57.5 -12.5q38 0 81.5 22.5t77.5 59.5l134 -143q-39 -43 -89.5 -75t-106 -49.5t-109.5 -17.5q-81 0 -148.5 27.5t-117.5 77t-77.5 117
t-27.5 147.5q0 79 28 145t79.5 115t121 76t151.5 27q54 0 108.5 -16t103 -45t84.5 -69zM300 914h188l111 -162h-140l-120 132h110l-120 -132h-140z" />
    <glyph glyph-name="ccircumflex" unicode="&#x109;" horiz-adv-x="561" 
d="M384 321q-10 25 -28 38.5t-42 13.5q-22 0 -38 -12.5t-25 -35t-9 -53.5t9 -54t25 -35.5t38 -12.5q24 0 41 14t26 45l182 -84q-30 -73 -98.5 -113t-162.5 -40q-87 0 -151.5 34.5t-100 97.5t-35.5 147q0 86 36 150t101 99t152 35q89 0 157 -41.5t102 -116.5zM204 769h188
l111 -162h-140l-120 132h110l-120 -132h-140z" />
    <glyph glyph-name="Cdotaccent" unicode="&#x10a;" horiz-adv-x="688" 
d="M557 427q-31 44 -74.5 70t-84.5 26q-31 0 -57.5 -12.5t-46.5 -35t-30.5 -53t-10.5 -66.5q0 -37 10.5 -68t30.5 -53.5t46.5 -35t57.5 -12.5q38 0 81.5 22.5t77.5 59.5l134 -143q-39 -43 -89.5 -75t-106 -49.5t-109.5 -17.5q-81 0 -148.5 27.5t-117.5 77t-77.5 117
t-27.5 147.5q0 79 28 145t79.5 115t121 76t151.5 27q54 0 108.5 -16t103 -45t84.5 -69zM394 980q50 0 82 -32t32 -82t-32 -82t-82 -32t-82 32t-32 82t32 82t82 32z" />
    <glyph glyph-name="cdotaccent" unicode="&#x10b;" horiz-adv-x="561" 
d="M384 321q-10 25 -28 38.5t-42 13.5q-22 0 -38 -12.5t-25 -35t-9 -53.5t9 -54t25 -35.5t38 -12.5q24 0 41 14t26 45l182 -84q-30 -73 -98.5 -113t-162.5 -40q-87 0 -151.5 34.5t-100 97.5t-35.5 147q0 86 36 150t101 99t152 35q89 0 157 -41.5t102 -116.5zM298 817
q50 0 82 -32t32 -82t-32 -82t-82 -32t-82 32t-32 82t32 82t82 32z" />
    <glyph glyph-name="Ccaron" unicode="&#x10c;" horiz-adv-x="688" 
d="M557 427q-31 44 -74.5 70t-84.5 26q-31 0 -57.5 -12.5t-46.5 -35t-30.5 -53t-10.5 -66.5q0 -37 10.5 -68t30.5 -53.5t46.5 -35t57.5 -12.5q38 0 81.5 22.5t77.5 59.5l134 -143q-39 -43 -89.5 -75t-106 -49.5t-109.5 -17.5q-81 0 -148.5 27.5t-117.5 77t-77.5 117
t-27.5 147.5q0 79 28 145t79.5 115t121 76t151.5 27q54 0 108.5 -16t103 -45t84.5 -69zM488 752h-188l-111 162h140l120 -132h-110l120 132h140z" />
    <glyph glyph-name="ccaron" unicode="&#x10d;" horiz-adv-x="561" 
d="M384 321q-10 25 -28 38.5t-42 13.5q-22 0 -38 -12.5t-25 -35t-9 -53.5t9 -54t25 -35.5t38 -12.5q24 0 41 14t26 45l182 -84q-30 -73 -98.5 -113t-162.5 -40q-87 0 -151.5 34.5t-100 97.5t-35.5 147q0 86 36 150t101 99t152 35q89 0 157 -41.5t102 -116.5zM392 607h-188
l-111 162h140l120 -132h-110l120 132h140z" />
    <glyph glyph-name="Dcaron" unicode="&#x10e;" horiz-adv-x="759" 
d="M363 701q87 0 157 -24.5t120 -70.5t77 -110.5t27 -144.5t-27.5 -144.5t-78.5 -111t-123 -71t-161 -24.5h-304v701h313zM369 180q32 0 57 12t43.5 34t28 53t9.5 70t-10.5 70.5t-30 54.5t-47 35t-61.5 12h-76v-341h87zM446 752h-188l-111 162h140l120 -132h-110l120 132
h140z" />
    <glyph glyph-name="dcaron" unicode="&#x10f;" horiz-adv-x="828" 
d="M260 555q65 0 112.5 -34.5t74 -97t26.5 -147.5q0 -86 -25.5 -150t-72 -99t-109.5 -35q-76 0 -132.5 35t-87.5 99.5t-31 150.5q0 85 30 147t85.5 96.5t129.5 34.5zM324 377q-25 0 -43.5 -13t-28.5 -37t-10 -56t10 -56t28.5 -37t43.5 -13t43 13t28 37t10 56t-10 56t-28 37
t-43 13zM405 742h225v-742h-225v742zM700 742h158l-30 -231h-128v231z" />
    <glyph glyph-name="Dcroat" unicode="&#x110;" horiz-adv-x="759" 
d="M-12 400h427v-98h-427v98zM363 701q87 0 157 -24.5t120 -70.5t77 -110.5t27 -144.5t-27.5 -144.5t-78.5 -111t-123 -71t-161 -24.5h-304v701h313zM369 180q32 0 57 12t43.5 34t28 53t9.5 70t-10.5 70.5t-30 54.5t-47 35t-61.5 12h-76v-341h87z" />
    <glyph glyph-name="dcroat" unicode="&#x111;" horiz-adv-x="690" 
d="M255 667h435v-100h-435v100zM260 512q65 0 112.5 -32t74 -89.5t26.5 -135.5q0 -79 -25.5 -138.5t-72 -92t-109.5 -32.5q-76 0 -132.5 32.5t-87.5 92t-31 139.5q0 78 30 135.5t85.5 89t129.5 31.5zM324 334q-25 0 -43.5 -10t-28.5 -29t-10 -45t10 -45t28.5 -29.5
t43.5 -10.5t43 10.5t28 29.5t10 45t-10 44.5t-28 29t-43 10.5zM405 742h225v-743h-225v743z" />
    <glyph glyph-name="Emacron" unicode="&#x112;" horiz-adv-x="690" 
d="M50 701h593v-176h-361v-86h328v-176h-328v-87h370v-176h-602v701zM158 880h380v-128h-380v128z" />
    <glyph glyph-name="emacron" unicode="&#x113;" horiz-adv-x="614" 
d="M373 327q2 23 -6 40.5t-23 27.5t-35 10q-25 0 -42 -16t-25.5 -43.5t-8.5 -61.5q0 -41 12.5 -69t35 -42.5t52.5 -14.5q59 0 111 49l117 -115q-43 -48 -105.5 -74t-142.5 -26q-93 0 -160 34.5t-102.5 97.5t-35.5 147q0 87 36.5 150.5t102 98.5t153.5 35q96 0 163 -41
t100.5 -115.5t27.5 -175.5h-394v104h169zM143 762h320v-128h-320v128z" />
    <glyph glyph-name="Ebreve" unicode="&#x114;" horiz-adv-x="690" 
d="M50 701h593v-176h-361v-86h328v-176h-328v-87h370v-176h-602v701zM299 926q2 -22 15.5 -36t33.5 -14t33.5 14t15.5 36h135q-4 -79 -54 -126.5t-130 -47.5t-130 47.5t-54 126.5h135z" />
    <glyph glyph-name="ebreve" unicode="&#x115;" horiz-adv-x="614" 
d="M373 327q2 23 -6 40.5t-23 27.5t-35 10q-25 0 -42 -16t-25.5 -43.5t-8.5 -61.5q0 -41 12.5 -69t35 -42.5t52.5 -14.5q59 0 111 49l117 -115q-43 -48 -105.5 -74t-142.5 -26q-93 0 -160 34.5t-102.5 97.5t-35.5 147q0 87 36.5 150.5t102 98.5t153.5 35q96 0 163 -41
t100.5 -115.5t27.5 -175.5h-394v104h169zM254 769q2 -22 15.5 -36t33.5 -14t33.5 14t15.5 36h135q-4 -79 -54 -126.5t-130 -47.5t-130 47.5t-54 126.5h135z" />
    <glyph glyph-name="Edotaccent" unicode="&#x116;" horiz-adv-x="690" 
d="M50 701h593v-176h-361v-86h328v-176h-328v-87h370v-176h-602v701zM348 980q50 0 82 -32t32 -82t-32 -82t-82 -32t-82 32t-32 82t32 82t82 32z" />
    <glyph glyph-name="edotaccent" unicode="&#x117;" horiz-adv-x="614" 
d="M373 327q2 23 -6 40.5t-23 27.5t-35 10q-25 0 -42 -16t-25.5 -43.5t-8.5 -61.5q0 -41 12.5 -69t35 -42.5t52.5 -14.5q59 0 111 49l117 -115q-43 -48 -105.5 -74t-142.5 -26q-93 0 -160 34.5t-102.5 97.5t-35.5 147q0 87 36.5 150.5t102 98.5t153.5 35q96 0 163 -41
t100.5 -115.5t27.5 -175.5h-394v104h169zM303 817q50 0 82 -32t32 -82t-32 -82t-82 -32t-82 32t-32 82t32 82t82 32z" />
    <glyph glyph-name="Eogonek" unicode="&#x118;" horiz-adv-x="690" 
d="M50 701h593v-176h-361v-86h328v-176h-328v-87h370v-176h-602v701zM529 43l123 -43q-28 -19 -48.5 -42t-20.5 -48q0 -13 5 -19.5t15 -6.5q5 0 11.5 2t13.5 6l31 -111q-22 -10 -50 -17.5t-57 -7.5q-60 0 -88 34.5t-28 82.5q0 44 24 87.5t69 82.5z" />
    <glyph glyph-name="eogonek" unicode="&#x119;" horiz-adv-x="614" 
d="M373 327q2 23 -6 40.5t-23 27.5t-35 10q-25 0 -42 -16t-25.5 -43.5t-8.5 -61.5q0 -41 12.5 -69t35 -42.5t52.5 -14.5q59 0 111 49l117 -115q-43 -48 -105.5 -74t-142.5 -26q-93 0 -160 34.5t-102.5 97.5t-35.5 147q0 87 36.5 150.5t102 98.5t153.5 35q96 0 163 -41
t100.5 -115.5t27.5 -175.5h-394v104h169zM471 88l64 -21q-28 -26 -49 -54t-32 -54t-11 -47q0 -15 5.5 -21.5t13.5 -6.5q12 0 26 8l31 -111q-22 -10 -46.5 -17.5t-56.5 -7.5q-49 0 -84.5 26.5t-35.5 85.5t43.5 109t131.5 111z" />
    <glyph glyph-name="Ecaron" unicode="&#x11a;" horiz-adv-x="690" 
d="M50 701h593v-176h-361v-86h328v-176h-328v-87h370v-176h-602v701zM442 752h-188l-111 162h140l120 -132h-110l120 132h140z" />
    <glyph glyph-name="ecaron" unicode="&#x11b;" horiz-adv-x="614" 
d="M373 327q2 23 -6 40.5t-23 27.5t-35 10q-25 0 -42 -16t-25.5 -43.5t-8.5 -61.5q0 -41 12.5 -69t35 -42.5t52.5 -14.5q59 0 111 49l117 -115q-43 -48 -105.5 -74t-142.5 -26q-93 0 -160 34.5t-102.5 97.5t-35.5 147q0 87 36.5 150.5t102 98.5t153.5 35q96 0 163 -41
t100.5 -115.5t27.5 -175.5h-394v104h169zM397 607h-188l-111 162h140l120 -132h-110l120 132h140z" />
    <glyph glyph-name="Gcircumflex" unicode="&#x11c;" horiz-adv-x="738" 
d="M582 447q-35 35 -82 55.5t-91 20.5q-34 0 -62.5 -13t-49.5 -36t-32.5 -54.5t-11.5 -68.5q0 -38 12 -69.5t33 -55t50 -36.5t63 -13q31 0 76.5 17.5t83.5 44.5l131 -163q-39 -26 -91.5 -47t-109 -33t-106.5 -12q-82 0 -151.5 27.5t-121 76.5t-79.5 116.5t-28 146.5
t29 145.5t82.5 116t125.5 76.5t158 27q55 0 110.5 -13.5t105.5 -38t87 -58.5zM503 369h199v-293h-199v293zM316 914h188l111 -162h-140l-120 132h110l-120 -132h-140z" />
    <glyph glyph-name="gcircumflex" unicode="&#x11d;" horiz-adv-x="654" 
d="M601 45q0 -76 -39 -132t-107.5 -86.5t-159.5 -30.5q-79 0 -147 21.5t-111 49.5l71 151q36 -22 81.5 -35t85.5 -13q33 0 56 8.5t34.5 24t11.5 36.5v508h224v-502zM236 555q65 0 110.5 -32t69.5 -90t24 -137q0 -80 -23.5 -139t-68 -91.5t-108.5 -32.5t-115 32.5t-80.5 92
t-29.5 139.5q0 79 28.5 136.5t78.5 89.5t114 32zM301 390q-23 0 -40 -12t-26.5 -34.5t-9.5 -52.5q0 -29 9.5 -51.5t26.5 -34.5t40 -12t40 12t26.5 34.5t9.5 51.5q0 30 -9.5 52.5t-26.5 34.5t-40 12zM217 769h188l111 -162h-140l-120 132h110l-120 -132h-140z" />
    <glyph glyph-name="Gbreve" unicode="&#x11e;" horiz-adv-x="738" 
d="M582 447q-35 35 -82 55.5t-91 20.5q-34 0 -62.5 -13t-49.5 -36t-32.5 -54.5t-11.5 -68.5q0 -38 12 -69.5t33 -55t50 -36.5t63 -13q31 0 76.5 17.5t83.5 44.5l131 -163q-39 -26 -91.5 -47t-109 -33t-106.5 -12q-82 0 -151.5 27.5t-121 76.5t-79.5 116.5t-28 146.5
t29 145.5t82.5 116t125.5 76.5t158 27q55 0 110.5 -13.5t105.5 -38t87 -58.5zM503 369h199v-293h-199v293zM361 926q2 -22 15.5 -36t33.5 -14t33.5 14t15.5 36h135q-4 -79 -54 -126.5t-130 -47.5t-130 47.5t-54 126.5h135z" />
    <glyph glyph-name="gbreve" unicode="&#x11f;" horiz-adv-x="654" 
d="M601 45q0 -76 -39 -132t-107.5 -86.5t-159.5 -30.5q-79 0 -147 21.5t-111 49.5l71 151q36 -22 81.5 -35t85.5 -13q33 0 56 8.5t34.5 24t11.5 36.5v508h224v-502zM236 555q65 0 110.5 -32t69.5 -90t24 -137q0 -80 -23.5 -139t-68 -91.5t-108.5 -32.5t-115 32.5t-80.5 92
t-29.5 139.5q0 79 28.5 136.5t78.5 89.5t114 32zM301 390q-23 0 -40 -12t-26.5 -34.5t-9.5 -52.5q0 -29 9.5 -51.5t26.5 -34.5t40 -12t40 12t26.5 34.5t9.5 51.5q0 30 -9.5 52.5t-26.5 34.5t-40 12zM262 769q2 -22 15.5 -36t33.5 -14t33.5 14t15.5 36h135q-4 -79 -54 -126.5
t-130 -47.5t-130 47.5t-54 126.5h135z" />
    <glyph glyph-name="Gdotaccent" unicode="&#x120;" horiz-adv-x="738" 
d="M582 447q-35 35 -82 55.5t-91 20.5q-34 0 -62.5 -13t-49.5 -36t-32.5 -54.5t-11.5 -68.5q0 -38 12 -69.5t33 -55t50 -36.5t63 -13q31 0 76.5 17.5t83.5 44.5l131 -163q-39 -26 -91.5 -47t-109 -33t-106.5 -12q-82 0 -151.5 27.5t-121 76.5t-79.5 116.5t-28 146.5
t29 145.5t82.5 116t125.5 76.5t158 27q55 0 110.5 -13.5t105.5 -38t87 -58.5zM503 369h199v-293h-199v293zM410 980q50 0 82 -32t32 -82t-32 -82t-82 -32t-82 32t-32 82t32 82t82 32z" />
    <glyph glyph-name="gdotaccent" unicode="&#x121;" horiz-adv-x="654" 
d="M601 45q0 -76 -39 -132t-107.5 -86.5t-159.5 -30.5q-79 0 -147 21.5t-111 49.5l71 151q36 -22 81.5 -35t85.5 -13q33 0 56 8.5t34.5 24t11.5 36.5v508h224v-502zM236 555q65 0 110.5 -32t69.5 -90t24 -137q0 -80 -23.5 -139t-68 -91.5t-108.5 -32.5t-115 32.5t-80.5 92
t-29.5 139.5q0 79 28.5 136.5t78.5 89.5t114 32zM301 390q-23 0 -40 -12t-26.5 -34.5t-9.5 -52.5q0 -29 9.5 -51.5t26.5 -34.5t40 -12t40 12t26.5 34.5t9.5 51.5q0 30 -9.5 52.5t-26.5 34.5t-40 12zM311 817q50 0 82 -32t32 -82t-32 -82t-82 -32t-82 32t-32 82t32 82t82 32z
" />
    <glyph glyph-name="uni0122" unicode="&#x122;" horiz-adv-x="738" 
d="M582 447q-35 35 -82 55.5t-91 20.5q-34 0 -62.5 -13t-49.5 -36t-32.5 -54.5t-11.5 -68.5q0 -38 12 -69.5t33 -55t50 -36.5t63 -13q31 0 76.5 17.5t83.5 44.5l131 -163q-39 -26 -91.5 -47t-109 -33t-106.5 -12q-82 0 -151.5 27.5t-121 76.5t-79.5 116.5t-28 146.5
t29 145.5t82.5 116t125.5 76.5t158 27q55 0 110.5 -13.5t105.5 -38t87 -58.5zM503 369h199v-293h-199v293zM306 -61h175l-86 -183h-120z" />
    <glyph glyph-name="uni0123" unicode="&#x123;" horiz-adv-x="654" 
d="M601 45q0 -76 -39 -132t-107.5 -86.5t-159.5 -30.5q-79 0 -147 21.5t-111 49.5l71 151q36 -22 81.5 -35t85.5 -13q33 0 56 8.5t34.5 24t11.5 36.5v508h224v-502zM236 555q65 0 110.5 -32t69.5 -90t24 -137q0 -80 -23.5 -139t-68 -91.5t-108.5 -32.5t-115 32.5t-80.5 92
t-29.5 139.5q0 79 28.5 136.5t78.5 89.5t114 32zM301 390q-23 0 -40 -12t-26.5 -34.5t-9.5 -52.5q0 -29 9.5 -51.5t26.5 -34.5t40 -12t40 12t26.5 34.5t9.5 51.5q0 30 -9.5 52.5t-26.5 34.5t-40 12zM375 608h-175l86 183h120z" />
    <glyph glyph-name="Hcircumflex" unicode="&#x124;" horiz-adv-x="781" 
d="M50 701h232v-272h217v272h232v-701h-232v253h-217v-253h-232v701zM307 914h188l111 -162h-140l-120 132h110l-120 -132h-140z" />
    <glyph glyph-name="hcircumflex" unicode="&#x125;" horiz-adv-x="687" 
d="M422 284q0 35 -18 55t-47 20q-33 0 -52.5 -24t-19.5 -64h-50q0 87 26 151.5t74.5 99.5t115.5 35q58 0 102 -25.5t69 -72.5t25 -110v-349h-225v284zM60 742h225v-742h-225v742zM72 964h188l111 -162h-140l-120 132h110l-120 -132h-140z" />
    <glyph glyph-name="Hbar" unicode="&#x126;" horiz-adv-x="882" 
d="M6 611h865v-98h-865v98zM99 701h232v-272h217v272h232v-701h-232v253h-217v-253h-232v701z" />
    <glyph glyph-name="hbar" unicode="&#x127;" horiz-adv-x="687" 
d="M0 667h435v-100h-435v100zM422 239q0 35 -18 55t-47 20q-22 0 -38 -11t-25 -30.5t-9 -46.5h-50q0 87 26 151.5t74.5 99.5t115.5 35q58 0 102 -26t69 -72.5t25 -109.5v-304h-225v239zM60 742h225v-742h-225v742z" />
    <glyph glyph-name="Itilde" unicode="&#x128;" horiz-adv-x="332" 
d="M50 701h232v-701h-232v701zM367 927q0 -62 -11.5 -101t-35 -57.5t-60.5 -18.5q-24 0 -43.5 6t-36 14.5t-29.5 14.5t-24 6q-14 0 -21 -9.5t-8 -29.5h-117q0 61 11.5 100.5t35.5 58.5t61 19q23 0 43 -6t36.5 -14.5t29.5 -14.5t23 -6q15 0 22 9.5t8 28.5h116z" />
    <glyph glyph-name="itilde" unicode="&#x129;" horiz-adv-x="335" 
d="M55 547h225v-547h-225v547zM361 769q0 -97 -25.5 -137t-78.5 -40q-22 0 -39.5 6t-32 13.5t-26.5 13.5t-21 6q-12 0 -19 -8.5t-8 -28.5h-117q0 94 26 136t78 42q22 0 40 -5.5t32.5 -13t26 -13t20.5 -5.5q13 0 20 7t8 27h116z" />
    <glyph glyph-name="Imacron" unicode="&#x12a;" horiz-adv-x="332" 
d="M50 701h232v-701h-232v701zM6 880h320v-128h-320v128z" />
    <glyph glyph-name="imacron" unicode="&#x12b;" horiz-adv-x="335" 
d="M55 547h225v-547h-225v547zM18 762h300v-128h-300v128z" />
    <glyph glyph-name="Ibreve" unicode="&#x12c;" horiz-adv-x="332" 
d="M50 701h232v-701h-232v701zM117 926q2 -22 15.5 -36t33.5 -14t33.5 14t15.5 36h135q-4 -79 -54 -126.5t-130 -47.5t-130 47.5t-54 126.5h135z" />
    <glyph glyph-name="ibreve" unicode="&#x12d;" horiz-adv-x="335" 
d="M55 547h225v-547h-225v547zM119 769q2 -22 15.5 -36t33.5 -14t33.5 14t15.5 36h135q-4 -79 -54 -126.5t-130 -47.5t-130 47.5t-54 126.5h135z" />
    <glyph glyph-name="Iogonek" unicode="&#x12e;" horiz-adv-x="332" 
d="M50 701h232v-701h-232v701zM91 43l123 -43q-28 -19 -48.5 -42t-20.5 -48q0 -13 5 -19.5t15 -6.5q5 0 11.5 2t13.5 6l31 -111q-22 -10 -50 -17.5t-57 -7.5q-60 0 -88 34.5t-28 82.5q0 44 24 87.5t69 82.5z" />
    <glyph glyph-name="iogonek" unicode="&#x12f;" horiz-adv-x="335" 
d="M55 547h225v-547h-225v547zM168 817q50 0 82 -32t32 -82t-32 -82t-82 -32t-82 32t-32 82t32 82t82 32zM97 43l123 -43q-28 -19 -48.5 -42t-20.5 -48q0 -13 5 -19.5t15 -6.5q5 0 11.5 2t13.5 6l31 -111q-22 -10 -50 -17.5t-57 -7.5q-60 0 -88 34.5t-28 82.5q0 44 24 87.5
t69 82.5z" />
    <glyph glyph-name="Idotaccent" unicode="&#x130;" horiz-adv-x="332" 
d="M50 701h232v-701h-232v701zM166 980q50 0 82 -32t32 -82t-32 -82t-82 -32t-82 32t-32 82t32 82t82 32z" />
    <glyph glyph-name="dotlessi" unicode="&#x131;" horiz-adv-x="335" 
d="M55 547h225v-547h-225v547z" />
    <glyph glyph-name="IJ" unicode="&#x132;" horiz-adv-x="901" 
d="M50 701h232v-701h-232v701zM861 237q0 -118 -71.5 -182.5t-192.5 -64.5q-85 0 -152.5 32t-120.5 90l105 150q41 -41 80.5 -60t65.5 -19q24 0 38.5 14.5t14.5 44.5v276h-238v183h471v-464z" />
    <glyph glyph-name="ij" unicode="&#x133;" horiz-adv-x="675" 
d="M55 547h225v-547h-225v547zM168 817q50 0 82 -32t32 -82t-32 -82t-82 -32t-82 32t-32 82t32 82t82 32zM313 -23q9 -2 18.5 -4t19.5 -2q44 -2 44 46v530h225v-564q0 -86 -59 -136.5t-158 -49.5q-75 0 -133 23zM506 817q50 0 82 -32t32 -82t-32 -82t-82 -32t-82 32t-32 82
t32 82t82 32z" />
    <glyph glyph-name="Jcircumflex" unicode="&#x134;" horiz-adv-x="569" 
d="M529 237q0 -118 -71.5 -182.5t-192.5 -64.5q-85 0 -152.5 32t-120.5 90l105 150q41 -41 80.5 -60t65.5 -19q24 0 38.5 14.5t14.5 44.5v276h-238v183h471v-464zM197 914h188l111 -162h-140l-120 132h110l-120 -132h-140z" />
    <glyph glyph-name="jcircumflex" unicode="&#x135;" horiz-adv-x="340" 
d="M-22 -23q9 -2 18.5 -4t19.5 -2q44 -2 44 46v530h225v-564q0 -86 -59 -136.5t-158 -49.5q-75 0 -133 23zM77 769h188l111 -162h-140l-120 132h110l-120 -132h-140z" />
    <glyph glyph-name="uni0136" unicode="&#x136;" horiz-adv-x="773" 
d="M50 701h232v-256l209 256h267l-476 -531v-170h-232v701zM492 444l281 -444h-277l-159 262zM283 -61h175l-86 -183h-120z" />
    <glyph glyph-name="uni0137" unicode="&#x137;" horiz-adv-x="662" 
d="M60 742h225v-742h-225v742zM412 547h254l-391 -414v261zM453 360l210 -360h-267l-109 224zM243 -61h175l-86 -183h-120z" />
    <glyph glyph-name="kgreenlandic" unicode="&#x138;" horiz-adv-x="655" 
d="M55 547h225v-547h-225v547zM405 547h254l-391 -414v245zM446 360l210 -360h-267l-109 224z" />
    <glyph glyph-name="Lacute" unicode="&#x139;" horiz-adv-x="584" 
d="M50 701h232v-508h292v-193h-524v701zM182 934l169 -60l-162 -129l-142 10z" />
    <glyph glyph-name="lacute" unicode="&#x13a;" horiz-adv-x="345" 
d="M60 742h225v-742h-225v742zM196 975l169 -60l-162 -129l-142 10z" />
    <glyph glyph-name="uni013B" unicode="&#x13b;" horiz-adv-x="584" 
d="M50 701h232v-508h292v-193h-524v701zM222 -61h175l-86 -183h-120z" />
    <glyph glyph-name="uni013C" unicode="&#x13c;" horiz-adv-x="345" 
d="M60 742h225v-742h-225v742zM83 -61h175l-86 -183h-120z" />
    <glyph glyph-name="Lcaron" unicode="&#x13d;" horiz-adv-x="584" 
d="M50 701h232v-508h292v-193h-524v701zM416 701h158l-30 -231h-128v231z" />
    <glyph glyph-name="lcaron" unicode="&#x13e;" horiz-adv-x="483" 
d="M60 742h225v-742h-225v742zM355 742h158l-30 -231h-128v231z" />
    <glyph glyph-name="Ldot" unicode="&#x13f;" horiz-adv-x="584" 
d="M50 701h232v-508h292v-193h-524v701zM450 556q50 0 82 -32t32 -82t-32 -82t-82 -32t-82 32t-32 82t32 82t82 32z" />
    <glyph glyph-name="ldot" unicode="&#x140;" horiz-adv-x="537" 
d="M60 742h225v-742h-225v742zM431 514q50 0 82 -32t32 -82t-32 -82t-82 -32t-82 32t-32 82t32 82t82 32z" />
    <glyph glyph-name="Lslash" unicode="&#x141;" horiz-adv-x="639" 
d="M15 362l425 215v-118l-425 -215v118zM105 701h232v-508h292v-193h-524v701z" />
    <glyph glyph-name="lslash" unicode="&#x142;" horiz-adv-x="448" 
d="M8 352l425 215v-118l-425 -215v118zM108 742h225v-742h-225v742z" />
    <glyph glyph-name="Nacute" unicode="&#x143;" horiz-adv-x="781" 
d="M50 701h194l339 -440l-62 -21v461h210v-701h-194l-338 438l62 21v-459h-211v701zM414 934l169 -60l-162 -129l-142 10z" />
    <glyph glyph-name="nacute" unicode="&#x144;" horiz-adv-x="682" 
d="M417 284q0 35 -18 55t-47 20q-33 0 -52.5 -24t-19.5 -64h-50q0 87 26 151.5t74.5 99.5t115.5 35q58 0 102 -25.5t69 -72.5t25 -110v-349h-225v284zM55 547h225v-547h-225v547zM383 780l169 -60l-162 -129l-142 10z" />
    <glyph glyph-name="uni0145" unicode="&#x145;" horiz-adv-x="781" 
d="M50 701h194l339 -440l-62 -21v461h210v-701h-194l-338 438l62 21v-459h-211v701zM309 -61h175l-86 -183h-120z" />
    <glyph glyph-name="uni0146" unicode="&#x146;" horiz-adv-x="682" 
d="M417 284q0 35 -18 55t-47 20q-33 0 -52.5 -24t-19.5 -64h-50q0 87 26 151.5t74.5 99.5t115.5 35q58 0 102 -25.5t69 -72.5t25 -110v-349h-225v284zM55 547h225v-547h-225v547zM257 -61h175l-86 -183h-120z" />
    <glyph glyph-name="Ncaron" unicode="&#x147;" horiz-adv-x="781" 
d="M50 701h194l339 -440l-62 -21v461h210v-701h-194l-338 438l62 21v-459h-211v701zM485 752h-188l-111 162h140l120 -132h-110l120 132h140z" />
    <glyph glyph-name="ncaron" unicode="&#x148;" horiz-adv-x="682" 
d="M417 284q0 35 -18 55t-47 20q-33 0 -52.5 -24t-19.5 -64h-50q0 87 26 151.5t74.5 99.5t115.5 35q58 0 102 -25.5t69 -72.5t25 -110v-349h-225v284zM55 547h225v-547h-225v547zM454 607h-188l-111 162h140l120 -132h-110l120 132h140z" />
    <glyph glyph-name="napostrophe" unicode="&#x149;" horiz-adv-x="859" 
d="M50 701h145l-30 -264h-115v264zM594 284q0 35 -18 55t-47 20q-33 0 -52.5 -24t-19.5 -64h-50q0 87 26 151.5t74.5 99.5t115.5 35q58 0 102 -25.5t69 -72.5t25 -110v-349h-225v284zM232 547h225v-547h-225v547z" />
    <glyph glyph-name="Eng" unicode="&#x14a;" horiz-adv-x="781" 
d="M731 0q-7 -107 -78 -166t-186 -59q-48 0 -89.5 10.5t-79.5 29.5l75 175q29 -11 53 -16.5t41 -5.5q30 0 44 16t14 49zM50 701h194l277 -360v360h210v-701h-194l-276 358v-358h-211v701z" />
    <glyph glyph-name="eng" unicode="&#x14b;" horiz-adv-x="682" 
d="M417 284q0 35 -18 55t-47 20q-33 0 -52.5 -24t-19.5 -64h-50q0 87 26 151.5t74.5 99.5t115.5 35q58 0 102 -25.5t69 -72.5t25 -110v-372q0 -54 -27 -95t-75.5 -63t-114.5 -22q-91 0 -157 34l50 154q30 -14 55 -14q21 -1 32.5 11t11.5 35v267zM55 547h225v-547h-225v547z
" />
    <glyph glyph-name="Omacron" unicode="&#x14c;" horiz-adv-x="800" 
d="M400 716q84 0 154 -27t122 -76t80.5 -115.5t28.5 -145.5t-28.5 -146.5t-80.5 -117t-122 -77t-154 -27.5t-154 27.5t-122 77t-80.5 116.5t-28.5 147t28.5 146.5t80.5 115t122 75.5t154 27zM403 523q-30 0 -57.5 -12.5t-48 -36t-32.5 -54.5t-12 -69q0 -37 12 -69t33 -55.5
t48 -36.5t57 -13t56 13t46 36.5t31 55.5t11 69q0 38 -11 69t-31 54.5t-46 36t-56 12.5zM210 880h380v-128h-380v128z" />
    <glyph glyph-name="omacron" unicode="&#x14d;" horiz-adv-x="648" 
d="M324 555q94 0 163.5 -34.5t107.5 -97.5t38 -149q0 -85 -38 -148.5t-107.5 -98.5t-163.5 -35t-163.5 35t-107.5 98.5t-38 148.5q0 86 38 149t107.5 97.5t163.5 34.5zM324 377q-25 0 -43.5 -13t-28.5 -37t-10 -56t10 -56t28.5 -37t43.5 -13t43.5 13t28.5 37t10 56t-10 56
t-28.5 37t-43.5 13zM164 762h320v-128h-320v128z" />
    <glyph glyph-name="Obreve" unicode="&#x14e;" horiz-adv-x="800" 
d="M400 716q84 0 154 -27t122 -76t80.5 -115.5t28.5 -145.5t-28.5 -146.5t-80.5 -117t-122 -77t-154 -27.5t-154 27.5t-122 77t-80.5 116.5t-28.5 147t28.5 146.5t80.5 115t122 75.5t154 27zM403 523q-30 0 -57.5 -12.5t-48 -36t-32.5 -54.5t-12 -69q0 -37 12 -69t33 -55.5
t48 -36.5t57 -13t56 13t46 36.5t31 55.5t11 69q0 38 -11 69t-31 54.5t-46 36t-56 12.5zM351 926q2 -22 15.5 -36t33.5 -14t33.5 14t15.5 36h135q-4 -79 -54 -126.5t-130 -47.5t-130 47.5t-54 126.5h135z" />
    <glyph glyph-name="obreve" unicode="&#x14f;" horiz-adv-x="648" 
d="M324 555q94 0 163.5 -34.5t107.5 -97.5t38 -149q0 -85 -38 -148.5t-107.5 -98.5t-163.5 -35t-163.5 35t-107.5 98.5t-38 148.5q0 86 38 149t107.5 97.5t163.5 34.5zM324 377q-25 0 -43.5 -13t-28.5 -37t-10 -56t10 -56t28.5 -37t43.5 -13t43.5 13t28.5 37t10 56t-10 56
t-28.5 37t-43.5 13zM275 769q2 -22 15.5 -36t33.5 -14t33.5 14t15.5 36h135q-4 -79 -54 -126.5t-130 -47.5t-130 47.5t-54 126.5h135z" />
    <glyph glyph-name="Ohungarumlaut" unicode="&#x150;" horiz-adv-x="800" 
d="M400 716q84 0 154 -27t122 -76t80.5 -115.5t28.5 -145.5t-28.5 -146.5t-80.5 -117t-122 -77t-154 -27.5t-154 27.5t-122 77t-80.5 116.5t-28.5 147t28.5 146.5t80.5 115t122 75.5t154 27zM403 523q-30 0 -57.5 -12.5t-48 -36t-32.5 -54.5t-12 -69q0 -37 12 -69t33 -55.5
t48 -36.5t57 -13t56 13t46 36.5t31 55.5t11 69q0 38 -11 69t-31 54.5t-46 36t-56 12.5zM284 934l162 -53l-89 -136l-156 10zM505 934l162 -53l-89 -136l-156 10z" />
    <glyph glyph-name="ohungarumlaut" unicode="&#x151;" horiz-adv-x="648" 
d="M324 555q94 0 163.5 -34.5t107.5 -97.5t38 -149q0 -85 -38 -148.5t-107.5 -98.5t-163.5 -35t-163.5 35t-107.5 98.5t-38 148.5q0 86 38 149t107.5 97.5t163.5 34.5zM324 377q-25 0 -43.5 -13t-28.5 -37t-10 -56t10 -56t28.5 -37t43.5 -13t43.5 13t28.5 37t10 56t-10 56
t-28.5 37t-43.5 13zM208 780l162 -53l-89 -136l-156 10zM429 780l162 -53l-89 -136l-156 10z" />
    <glyph glyph-name="OE" unicode="&#x152;" horiz-adv-x="1127" 
d="M399 514q-32 0 -58.5 -12.5t-46 -34.5t-30.5 -52.5t-11 -66.5t11 -66t30.5 -52t46 -34.5t58.5 -12.5l160 2l-3 -185h-157q-83 0 -153 26t-122 72.5t-80.5 110.5t-28.5 140t28.5 140t80 111.5t121.5 74t154 26.5h138v-187h-138zM487 701h593v-176h-361v-86h328v-176h-328
v-87h370v-176h-602v701z" />
    <glyph glyph-name="oe" unicode="&#x153;" horiz-adv-x="999" 
d="M758 327q2 23 -6.5 40.5t-24 27.5t-35.5 10q-25 0 -42.5 -16t-26.5 -43.5t-9 -61.5q0 -41 12.5 -69t35.5 -42.5t54 -14.5q59 0 113 49l117 -115q-44 -48 -107 -74t-143 -26q-85 0 -140.5 34.5t-82.5 97.5t-27 147q0 87 28 150.5t82.5 98.5t133.5 35q96 0 164 -41
t101.5 -115.5t27.5 -175.5h-398v104h173zM324 555q85 0 142.5 -34.5t87 -97.5t29.5 -149q0 -85 -29.5 -148.5t-87 -98.5t-142.5 -35q-94 0 -163.5 35t-107.5 98.5t-38 148.5q0 86 38 149t107.5 97.5t163.5 34.5zM324 377q-25 0 -43.5 -13t-28.5 -37t-10 -56t10 -56t28.5 -37
t43.5 -13t43.5 13t28.5 37t10 56t-10 56t-28.5 37t-43.5 13z" />
    <glyph glyph-name="Racute" unicode="&#x154;" horiz-adv-x="725" 
d="M389 701q143 0 221 -65.5t78 -185.5q0 -127 -78 -197.5t-221 -70.5h-107v-182h-232v701h339zM389 358q38 0 58.5 22.5t20.5 62.5q0 39 -20.5 60.5t-58.5 21.5h-107v-167h107zM330 265h224l161 -265h-262zM385 934l169 -60l-162 -129l-142 10z" />
    <glyph glyph-name="racute" unicode="&#x155;" horiz-adv-x="457" 
d="M447 354q-50 8 -88 -1t-58.5 -32.5t-20.5 -59.5l-50 10q0 87 27 151.5t75.5 99.5t114.5 35v-203zM55 547h225v-547h-225v547zM268 780l169 -60l-162 -129l-142 10z" />
    <glyph glyph-name="uni0156" unicode="&#x156;" horiz-adv-x="725" 
d="M389 701q143 0 221 -65.5t78 -185.5q0 -127 -78 -197.5t-221 -70.5h-107v-182h-232v701h339zM389 358q38 0 58.5 22.5t20.5 62.5q0 39 -20.5 60.5t-58.5 21.5h-107v-167h107zM330 265h224l161 -265h-262zM269 -61h175l-86 -183h-120z" />
    <glyph glyph-name="uni0157" unicode="&#x157;" horiz-adv-x="457" 
d="M447 354q-50 8 -88 -1t-58.5 -32.5t-20.5 -59.5l-50 10q0 87 27 151.5t75.5 99.5t114.5 35v-203zM55 547h225v-547h-225v547zM78 -61h175l-86 -183h-120z" />
    <glyph glyph-name="Rcaron" unicode="&#x158;" horiz-adv-x="725" 
d="M389 701q143 0 221 -65.5t78 -185.5q0 -127 -78 -197.5t-221 -70.5h-107v-182h-232v701h339zM389 358q38 0 58.5 22.5t20.5 62.5q0 39 -20.5 60.5t-58.5 21.5h-107v-167h107zM330 265h224l161 -265h-262zM456 752h-188l-111 162h140l120 -132h-110l120 132h140z" />
    <glyph glyph-name="rcaron" unicode="&#x159;" horiz-adv-x="457" 
d="M447 354q-50 8 -88 -1t-58.5 -32.5t-20.5 -59.5l-50 10q0 87 27 151.5t75.5 99.5t114.5 35v-203zM55 547h225v-547h-225v547zM339 607h-188l-111 162h140l120 -132h-110l120 132h140z" />
    <glyph glyph-name="Sacute" unicode="&#x15a;" horiz-adv-x="664" 
d="M575 458q-35 21 -80 40t-87.5 31t-73.5 12q-19 0 -31 -7t-12 -24q0 -20 19.5 -32.5t52 -21.5t71.5 -19.5t77.5 -26t71 -39.5t52 -62t19.5 -93q0 -79 -41 -129.5t-108 -75t-146 -24.5q-61 0 -124.5 13.5t-121.5 39t-105 61.5l86 175q36 -31 85 -56t98 -40t84 -15
q26 0 41 9.5t15 29.5t-19.5 32.5t-52 21.5t-71.5 18.5t-77.5 24t-71 38t-52 59.5t-19.5 90q0 71 37 123t104.5 80t158.5 28q83 0 164.5 -23t140.5 -61zM382 934l169 -60l-162 -129l-142 10z" />
    <glyph glyph-name="sacute" unicode="&#x15b;" horiz-adv-x="552" 
d="M459 349q-61 30 -107 45t-78 15q-14 0 -22.5 -5t-8.5 -13q0 -13 20.5 -21t53 -16.5t68.5 -20t68.5 -31t53 -50t20.5 -76.5q0 -56 -30.5 -98t-86 -65t-131.5 -23t-143 19.5t-124 58.5l68 140q55 -34 105.5 -51t96.5 -17q11 0 18.5 2t11.5 5.5t4 8.5q0 12 -20 20
t-51.5 15.5t-67.5 19t-67.5 31t-51.5 50t-20 76.5q0 58 30 100t84 65.5t127 23.5q65 0 129 -17t125 -52zM312 780l169 -60l-162 -129l-142 10z" />
    <glyph glyph-name="Scircumflex" unicode="&#x15c;" horiz-adv-x="664" 
d="M575 458q-35 21 -80 40t-87.5 31t-73.5 12q-19 0 -31 -7t-12 -24q0 -20 19.5 -32.5t52 -21.5t71.5 -19.5t77.5 -26t71 -39.5t52 -62t19.5 -93q0 -79 -41 -129.5t-108 -75t-146 -24.5q-61 0 -124.5 13.5t-121.5 39t-105 61.5l86 175q36 -31 85 -56t98 -40t84 -15
q26 0 41 9.5t15 29.5t-19.5 32.5t-52 21.5t-71.5 18.5t-77.5 24t-71 38t-52 59.5t-19.5 90q0 71 37 123t104.5 80t158.5 28q83 0 164.5 -23t140.5 -61zM265 914h188l111 -162h-140l-120 132h110l-120 -132h-140z" />
    <glyph glyph-name="scircumflex" unicode="&#x15d;" horiz-adv-x="552" 
d="M459 349q-61 30 -107 45t-78 15q-14 0 -22.5 -5t-8.5 -13q0 -13 20.5 -21t53 -16.5t68.5 -20t68.5 -31t53 -50t20.5 -76.5q0 -56 -30.5 -98t-86 -65t-131.5 -23t-143 19.5t-124 58.5l68 140q55 -34 105.5 -51t96.5 -17q11 0 18.5 2t11.5 5.5t4 8.5q0 12 -20 20
t-51.5 15.5t-67.5 19t-67.5 31t-51.5 50t-20 76.5q0 58 30 100t84 65.5t127 23.5q65 0 129 -17t125 -52zM195 769h188l111 -162h-140l-120 132h110l-120 -132h-140z" />
    <glyph glyph-name="Scedilla" unicode="&#x15e;" horiz-adv-x="664" 
d="M575 458q-35 21 -80 40t-87.5 31t-73.5 12q-19 0 -31 -7t-12 -24q0 -20 19.5 -32.5t52 -21.5t71.5 -19.5t77.5 -26t71 -39.5t52 -62t19.5 -93q0 -79 -41 -129.5t-108 -75t-146 -24.5q-61 0 -124.5 13.5t-121.5 39t-105 61.5l86 175q36 -31 85 -56t98 -40t84 -15
q26 0 41 9.5t15 29.5t-19.5 32.5t-52 21.5t-71.5 18.5t-77.5 24t-71 38t-52 59.5t-19.5 90q0 71 37 123t104.5 80t158.5 28q83 0 164.5 -23t140.5 -61zM291 10l118 -10l-22 -59q45 -12 64 -33.5t19 -49.5q0 -37 -20 -59.5t-51.5 -32.5t-65.5 -10q-30 0 -61 5t-58 14l30 90
q11 -4 22.5 -5.5t22.5 -1.5q17 0 28.5 4.5t11.5 14.5q0 13 -18 18t-39 5h-8.5h-8.5z" />
    <glyph glyph-name="scedilla" unicode="&#x15f;" horiz-adv-x="552" 
d="M459 349q-61 30 -107 45t-78 15q-14 0 -22.5 -5t-8.5 -13q0 -13 20.5 -21t53 -16.5t68.5 -20t68.5 -31t53 -50t20.5 -76.5q0 -56 -30.5 -98t-86 -65t-131.5 -23t-143 19.5t-124 58.5l68 140q55 -34 105.5 -51t96.5 -17q11 0 18.5 2t11.5 5.5t4 8.5q0 12 -20 20
t-51.5 15.5t-67.5 19t-67.5 31t-51.5 50t-20 76.5q0 58 30 100t84 65.5t127 23.5q65 0 129 -17t125 -52zM221 10l118 -10l-22 -59q45 -12 64 -33.5t19 -49.5q0 -37 -20 -59.5t-51.5 -32.5t-65.5 -10q-30 0 -61 5t-58 14l30 90q11 -4 22.5 -5.5t22.5 -1.5q17 0 28.5 4.5
t11.5 14.5q0 13 -18 18t-39 5h-8.5h-8.5z" />
    <glyph glyph-name="Scaron" unicode="&#x160;" horiz-adv-x="664" 
d="M575 458q-35 21 -80 40t-87.5 31t-73.5 12q-19 0 -31 -7t-12 -24q0 -20 19.5 -32.5t52 -21.5t71.5 -19.5t77.5 -26t71 -39.5t52 -62t19.5 -93q0 -79 -41 -129.5t-108 -75t-146 -24.5q-61 0 -124.5 13.5t-121.5 39t-105 61.5l86 175q36 -31 85 -56t98 -40t84 -15
q26 0 41 9.5t15 29.5t-19.5 32.5t-52 21.5t-71.5 18.5t-77.5 24t-71 38t-52 59.5t-19.5 90q0 71 37 123t104.5 80t158.5 28q83 0 164.5 -23t140.5 -61zM453 752h-188l-111 162h140l120 -132h-110l120 132h140z" />
    <glyph glyph-name="scaron" unicode="&#x161;" horiz-adv-x="552" 
d="M459 349q-61 30 -107 45t-78 15q-14 0 -22.5 -5t-8.5 -13q0 -13 20.5 -21t53 -16.5t68.5 -20t68.5 -31t53 -50t20.5 -76.5q0 -56 -30.5 -98t-86 -65t-131.5 -23t-143 19.5t-124 58.5l68 140q55 -34 105.5 -51t96.5 -17q11 0 18.5 2t11.5 5.5t4 8.5q0 12 -20 20
t-51.5 15.5t-67.5 19t-67.5 31t-51.5 50t-20 76.5q0 58 30 100t84 65.5t127 23.5q65 0 129 -17t125 -52zM383 607h-188l-111 162h140l120 -132h-110l120 132h140z" />
    <glyph glyph-name="uni0162" unicode="&#x162;" horiz-adv-x="641" 
d="M5 701h631v-183h-200v-518h-232v518h-199v183zM266 10l118 -10l-22 -59q45 -12 64 -33.5t19 -49.5q0 -37 -20 -59.5t-51.5 -32.5t-65.5 -10q-30 0 -61 5t-58 14l30 90q11 -4 22.5 -5.5t22.5 -1.5q17 0 28.5 4.5t11.5 14.5q0 13 -18 18t-39 5h-8.5h-8.5z" />
    <glyph glyph-name="uni0163" unicode="&#x163;" horiz-adv-x="460" 
d="M307 210q0 -22 12 -34.5t32 -11.5q10 0 25 4t31 10l38 -154q-27 -16 -69.5 -25t-86.5 -9q-62 0 -108.5 22.5t-72 64.5t-25.5 99v494h224v-460zM8 517h427v-142h-427v142zM228 10l118 -10l-22 -59q45 -12 64 -33.5t19 -49.5q0 -37 -20 -59.5t-51.5 -32.5t-65.5 -10
q-30 0 -61 5t-58 14l30 90q11 -4 22.5 -5.5t22.5 -1.5q17 0 28.5 4.5t11.5 14.5q0 13 -18 18t-39 5h-8.5h-8.5z" />
    <glyph glyph-name="Tcaron" unicode="&#x164;" horiz-adv-x="641" 
d="M5 701h631v-183h-200v-518h-232v518h-199v183zM431 752h-188l-111 162h140l120 -132h-110l120 132h140z" />
    <glyph glyph-name="tcaron" unicode="&#x165;" horiz-adv-x="460" 
d="M307 210q0 -22 12 -34.5t32 -11.5q10 0 25 4t31 10l38 -154q-27 -16 -69.5 -25t-86.5 -9q-62 0 -108.5 22.5t-72 64.5t-25.5 99v494h224v-460zM8 517h427v-142h-427v142zM357 742h148l-20 -181h-128v181z" />
    <glyph glyph-name="Tbar" unicode="&#x166;" horiz-adv-x="641" 
d="M5 701h631v-183h-200v-518h-232v518h-199v183zM92 359h455v-119h-455v119z" />
    <glyph glyph-name="tbar" unicode="&#x167;" horiz-adv-x="460" 
d="M83 670h224v-460q0 -22 12 -34.5t32 -11.5q10 0 25 4t31 10l38 -154q-27 -16 -69.5 -25t-86.5 -9q-62 0 -108.5 22.5t-72 64.5t-25.5 99v494zM8 517h427v-117h-427v117zM8 349h427v-117h-427v117z" />
    <glyph glyph-name="Utilde" unicode="&#x168;" horiz-adv-x="741" 
d="M272 291q0 -52 31 -83t71 -31t67.5 31t27.5 83v410h232v-410q0 -93 -40.5 -162t-114 -107t-173.5 -38t-175 38t-116.5 107t-41.5 162v410h232v-410zM572 927q0 -62 -11.5 -101t-35 -57.5t-60.5 -18.5q-24 0 -43.5 6t-36 14.5t-29.5 14.5t-24 6q-14 0 -21 -9.5t-8 -29.5
h-117q0 61 11.5 100.5t35.5 58.5t61 19q23 0 43 -6t36.5 -14.5t29.5 -14.5t23 -6q15 0 22 9.5t8 28.5h116z" />
    <glyph glyph-name="utilde" unicode="&#x169;" horiz-adv-x="672" 
d="M265 263q0 -34 16.5 -54.5t43.5 -20.5q31 0 49 24t18 64h50q0 -87 -25.5 -151t-72.5 -99.5t-113 -35.5q-56 0 -99 26t-67.5 72.5t-24.5 109.5v349h225v-284zM392 547h225v-547h-225v547zM537 771q0 -62 -11.5 -101t-35 -57.5t-60.5 -18.5q-24 0 -43.5 6t-36 14.5
t-29.5 14.5t-24 6q-14 0 -21 -9.5t-8 -29.5h-117q0 61 11.5 100.5t35.5 58.5t61 19q23 0 43 -6t36.5 -14.5t29.5 -14.5t23 -6q15 0 22 9.5t8 28.5h116z" />
    <glyph glyph-name="Umacron" unicode="&#x16a;" horiz-adv-x="741" 
d="M272 291q0 -52 31 -83t71 -31t67.5 31t27.5 83v410h232v-410q0 -93 -40.5 -162t-114 -107t-173.5 -38t-175 38t-116.5 107t-41.5 162v410h232v-410zM181 880h380v-128h-380v128z" />
    <glyph glyph-name="umacron" unicode="&#x16b;" horiz-adv-x="672" 
d="M265 263q0 -34 16.5 -54.5t43.5 -20.5q31 0 49 24t18 64h50q0 -87 -25.5 -151t-72.5 -99.5t-113 -35.5q-56 0 -99 26t-67.5 72.5t-24.5 109.5v349h225v-284zM392 547h225v-547h-225v547zM176 762h320v-128h-320v128z" />
    <glyph glyph-name="Ubreve" unicode="&#x16c;" horiz-adv-x="741" 
d="M272 291q0 -52 31 -83t71 -31t67.5 31t27.5 83v410h232v-410q0 -93 -40.5 -162t-114 -107t-173.5 -38t-175 38t-116.5 107t-41.5 162v410h232v-410zM322 926q2 -22 15.5 -36t33.5 -14t33.5 14t15.5 36h135q-4 -79 -54 -126.5t-130 -47.5t-130 47.5t-54 126.5h135z" />
    <glyph glyph-name="ubreve" unicode="&#x16d;" horiz-adv-x="672" 
d="M265 263q0 -34 16.5 -54.5t43.5 -20.5q31 0 49 24t18 64h50q0 -87 -25.5 -151t-72.5 -99.5t-113 -35.5q-56 0 -99 26t-67.5 72.5t-24.5 109.5v349h225v-284zM392 547h225v-547h-225v547zM287 769q2 -22 15.5 -36t33.5 -14t33.5 14t15.5 36h135q-4 -79 -54 -126.5
t-130 -47.5t-130 47.5t-54 126.5h135z" />
    <glyph glyph-name="Uring" unicode="&#x16e;" horiz-adv-x="741" 
d="M272 291q0 -52 31 -83t71 -31t67.5 31t27.5 83v410h232v-410q0 -93 -40.5 -162t-114 -107t-173.5 -38t-175 38t-116.5 107t-41.5 162v410h232v-410zM371 981q35 0 63 -16.5t44.5 -44.5t16.5 -63q0 -34 -16.5 -62.5t-44.5 -45t-63 -16.5q-34 0 -62.5 16.5t-45 45
t-16.5 62.5q0 35 16.5 63t45 44.5t62.5 16.5zM372 896q-17 0 -28.5 -11t-11.5 -28q0 -16 11.5 -27.5t27.5 -11.5q17 0 28 11.5t11 27.5q0 17 -11 28t-27 11z" />
    <glyph glyph-name="uring" unicode="&#x16f;" horiz-adv-x="672" 
d="M265 263q0 -34 16.5 -54.5t43.5 -20.5q31 0 49 24t18 64h50q0 -87 -25.5 -151t-72.5 -99.5t-113 -35.5q-56 0 -99 26t-67.5 72.5t-24.5 109.5v349h225v-284zM392 547h225v-547h-225v547zM336 827q35 0 63 -16.5t44.5 -44.5t16.5 -63q0 -34 -16.5 -62.5t-44.5 -45
t-63 -16.5q-34 0 -62.5 16.5t-45 45t-16.5 62.5q0 35 16.5 63t45 44.5t62.5 16.5zM337 742q-17 0 -28.5 -11t-11.5 -28q0 -16 11.5 -27.5t27.5 -11.5q17 0 28 11.5t11 27.5q0 17 -11 28t-27 11z" />
    <glyph glyph-name="Uhungarumlaut" unicode="&#x170;" horiz-adv-x="741" 
d="M272 291q0 -52 31 -83t71 -31t67.5 31t27.5 83v410h232v-410q0 -93 -40.5 -162t-114 -107t-173.5 -38t-175 38t-116.5 107t-41.5 162v410h232v-410zM255 934l162 -53l-89 -136l-156 10zM476 934l162 -53l-89 -136l-156 10z" />
    </font>
</defs>
</svg>
