<?xml version="1.0" standalone="no"?>
<!DOCTYPE svg PUBLIC "-//W3C//DTD SVG 1.1//EN" "http://www.w3.org/Graphics/SVG/1.1/DTD/svg11.dtd" >
<svg xmlns="http://www.w3.org/2000/svg" xmlns:xlink="http://www.w3.org/1999/xlink" version="1.1">
<metadata>
Created by FontForge 20201107 at Thu Nov  3 19:09:09 2022
 By 
Copyright 2022 The Alexandria Project Authors (https://github.com/Gue3bara/Alexandria)
</metadata>
<defs>
<font id="Alexandria-SemiBold" horiz-adv-x="0" >
  <font-face 
    font-family="Alexandria SemiBold"
    font-weight="600"
    font-stretch="normal"
    units-per-em="1000"
    panose-1="0 0 0 0 0 0 0 0 0 0"
    ascent="800"
    descent="-200"
    x-height="537"
    cap-height="700"
    bbox="-259 -578 1600 1214"
    underline-thickness="50"
    underline-position="-125"
    unicode-range="U+000D-FEFC"
  />
<missing-glyph horiz-adv-x="587" 
d="M40 0v700h507v-700h-507zM120 70h347v560h-347v-560z" />
    <glyph glyph-name="fi" unicode="fi" horiz-adv-x="682" 
d="M103 565q0 61 27 102t72 61.5t99 20.5q27 0 54.5 -6t51.5 -16l-23 -116q-15 6 -31.5 10.5t-32.5 4.5q-17 0 -32 -6.5t-23.5 -21t-8.5 -36.5v-562h-153v565zM31 514h352v-103h-352v103zM454 537h154v-537h-154v537zM531 774q37 0 60.5 -24t23.5 -60t-23.5 -60t-60.5 -24
q-35 0 -59 24t-24 60t24 60t59 24z" />
    <glyph glyph-name="fl" unicode="fl" horiz-adv-x="712" 
d="M103 565q0 61 27 102t72 61.5t99 20.5q27 0 54.5 -6t51.5 -16l-23 -116q-15 6 -31.5 10.5t-32.5 4.5q-17 0 -32 -6.5t-23.5 -21t-8.5 -36.5v-562h-153v565zM31 514h352v-103h-352v103zM479 742h154v-742h-154v742z" />
    <glyph glyph-name="uniFC64" unicode="&#xfe8c;&#xfeae;" horiz-adv-x="755" arabic-form="final" 
d="M755 0v154q10 0 15 -21t5 -55q0 -35 -5 -56.5t-15 -21.5zM717 0q-76 0 -127 27t-77 80t-26 130v264h133v-264q0 -33 7.5 -51.5t28.5 -25t61 -6.5h38v-154h-38zM366 251q-61 0 -120 8.5t-114 25.5v160q50 -20 109 -30t125 -10t125 10.5t109 29.5v-160q-54 -17 -113 -25.5
t-121 -8.5zM0 -129q50 0 78.5 10.5t41 32.5t12.5 56v531h133v-531q0 -75 -29 -129t-82.5 -84t-128.5 -33zM592 613q-63 0 -102.5 24.5t-39.5 71.5q0 33 19 56.5t49.5 36.5t66.5 13q21 0 41.5 -4.5t39.5 -14.5l-31 -67q-9 2 -21.5 3t-21.5 1q-33 0 -52 -9t-19 -21t19 -21.5
t52 -9.5v-59zM429 590v82h250v-82h-250z" />
    <glyph glyph-name="uniFC65" unicode="&#xfe8c;&#xfeb0;" horiz-adv-x="755" arabic-form="final" 
d="M755 0v154q10 0 15 -21t5 -55q0 -35 -5 -56.5t-15 -21.5zM717 0q-76 0 -127 27t-77 80t-26 130v264h133v-264q0 -33 7.5 -51.5t28.5 -25t61 -6.5h38v-154h-38zM366 251q-61 0 -120 8.5t-114 25.5v160q50 -20 109 -30t125 -10t125 10.5t109 29.5v-160q-54 -17 -113 -25.5
t-121 -8.5zM0 -129q50 0 78.5 10.5t41 32.5t12.5 56v531h133v-531q0 -75 -29 -129t-82.5 -84t-128.5 -33zM592 613q-63 0 -102.5 24.5t-39.5 71.5q0 33 19 56.5t49.5 36.5t66.5 13q21 0 41.5 -4.5t39.5 -14.5l-31 -67q-9 2 -21.5 3t-21.5 1q-33 0 -52 -9t-19 -21t19 -21.5
t52 -9.5v-59zM429 590v82h250v-82h-250zM199 625q-34 0 -57 23t-23 57q0 35 23 57.5t57 22.5q35 0 57.5 -22.5t22.5 -57.5q0 -34 -22.5 -57t-57.5 -23z" />
    <glyph glyph-name="uniFC67" unicode="&#xfe8c;&#xfee6;" horiz-adv-x="1236" arabic-form="final" 
d="M1236 0v154q9 0 14.5 -21t5.5 -55q0 -35 -5.5 -56.5t-14.5 -21.5zM1197 0q-76 0 -127 27t-77 80t-26 130v264h133v-264q0 -33 7.5 -51.5t28.5 -25t61 -6.5h39v-154h-39zM847 251q-62 0 -121 8.5t-114 25.5v160q50 -20 109.5 -30t125.5 -10t124.5 10.5t108.5 29.5v-160
q-54 -17 -112.5 -25.5t-120.5 -8.5zM389 -274q-86 0 -151.5 30t-109.5 83t-66 123.5t-22 152.5q0 41 6 82t15 80l128 -24q-7 -36 -11.5 -70t-4.5 -68q0 -75 24.5 -128t72.5 -80.5t119 -27.5q72 0 121.5 27.5t75.5 81t26 129.5v384h134v-384q0 -83 -23.5 -154t-69 -124
t-111.5 -83t-153 -30zM393 495q-34 0 -57 22.5t-23 57.5t23 57.5t57 22.5q35 0 57.5 -22.5t22.5 -57.5t-22.5 -57.5t-57.5 -22.5zM1072 613q-63 0 -102.5 24.5t-39.5 71.5q0 33 19 56.5t49.5 36.5t66.5 13q21 0 41.5 -4.5t39.5 -14.5l-31 -67q-9 2 -21.5 3t-21.5 1
q-33 0 -52 -9t-19 -21t19 -21.5t52 -9.5v-59zM909 590v82h250v-82h-250z" />
    <glyph glyph-name="uniFC6A" unicode="&#xfe92;&#xfeae;" horiz-adv-x="755" arabic-form="final" 
d="M755 0v154q10 0 15 -21t5 -55q0 -35 -5 -56.5t-15 -21.5zM717 0q-76 0 -127 27t-77 80t-26 130v264h133v-264q0 -33 7.5 -51.5t28.5 -25t61 -6.5h38v-154h-38zM366 251q-61 0 -120 8.5t-114 25.5v160q50 -20 109 -30t125 -10t125 10.5t109 29.5v-160q-54 -17 -113 -25.5
t-121 -8.5zM0 -129q50 0 78.5 10.5t41 32.5t12.5 56v531h133v-531q0 -75 -29 -129t-82.5 -84t-128.5 -33zM554 -283q-34 0 -57 23t-23 57q0 35 23 57.5t57 22.5q35 0 57.5 -22.5t22.5 -57.5q0 -34 -22.5 -57t-57.5 -23z" />
    <glyph glyph-name="uniFC6B" unicode="&#xfe92;&#xfeb0;" horiz-adv-x="755" arabic-form="final" 
d="M755 0v154q10 0 15 -21t5 -55q0 -35 -5 -56.5t-15 -21.5zM717 0q-76 0 -127 27t-77 80t-26 130v264h133v-264q0 -33 7.5 -51.5t28.5 -25t61 -6.5h38v-154h-38zM366 251q-61 0 -120 8.5t-114 25.5v160q50 -20 109 -30t125 -10t125 10.5t109 29.5v-160q-54 -17 -113 -25.5
t-121 -8.5zM0 -129q50 0 78.5 10.5t41 32.5t12.5 56v531h133v-531q0 -75 -29 -129t-82.5 -84t-128.5 -33zM554 -283q-34 0 -57 23t-23 57q0 35 23 57.5t57 22.5q35 0 57.5 -22.5t22.5 -57.5q0 -34 -22.5 -57t-57.5 -23zM199 625q-34 0 -57 23t-23 57q0 35 23 57.5t57 22.5
q35 0 57.5 -22.5t22.5 -57.5q0 -34 -22.5 -57t-57.5 -23z" />
    <glyph glyph-name="uniFC6D" unicode="&#xfe92;&#xfee6;" horiz-adv-x="1236" arabic-form="final" 
d="M1236 0v154q9 0 14.5 -21t5.5 -55q0 -35 -5.5 -56.5t-14.5 -21.5zM1197 0q-76 0 -127 27t-77 80t-26 130v264h133v-264q0 -33 7.5 -51.5t28.5 -25t61 -6.5h39v-154h-39zM847 251q-62 0 -121 8.5t-114 25.5v160q50 -20 109.5 -30t125.5 -10t124.5 10.5t108.5 29.5v-160
q-54 -17 -112.5 -25.5t-120.5 -8.5zM389 -274q-86 0 -151.5 30t-109.5 83t-66 123.5t-22 152.5q0 41 6 82t15 80l128 -24q-7 -36 -11.5 -70t-4.5 -68q0 -75 24.5 -128t72.5 -80.5t119 -27.5q72 0 121.5 27.5t75.5 81t26 129.5v384h134v-384q0 -83 -23.5 -154t-69 -124
t-111.5 -83t-153 -30zM393 495q-34 0 -57 22.5t-23 57.5t23 57.5t57 22.5q35 0 57.5 -22.5t22.5 -57.5t-22.5 -57.5t-57.5 -22.5zM1034 -283q-34 0 -57 23t-23 57q0 35 23 57.5t57 22.5q35 0 57.5 -22.5t22.5 -57.5q0 -34 -22.5 -57t-57.5 -23z" />
    <glyph glyph-name="uniFC70" unicode="&#xfe98;&#xfeae;" horiz-adv-x="755" arabic-form="final" 
d="M755 0v154q10 0 15 -21t5 -55q0 -35 -5 -56.5t-15 -21.5zM717 0q-76 0 -127 27t-77 80t-26 130v264h133v-264q0 -33 7.5 -51.5t28.5 -25t61 -6.5h38v-154h-38zM366 251q-61 0 -120 8.5t-114 25.5v160q50 -20 109 -30t125 -10t125 10.5t109 29.5v-160q-54 -17 -113 -25.5
t-121 -8.5zM0 -129q50 0 78.5 10.5t41 32.5t12.5 56v531h133v-531q0 -75 -29 -129t-82.5 -84t-128.5 -33zM632 609q-29 0 -48.5 19t-19.5 49t19.5 49t48.5 19t48.5 -19t19.5 -49t-19.5 -49t-48.5 -19zM476 609q-29 0 -48.5 19t-19.5 49t19.5 49t48.5 19t48.5 -19t19.5 -49
t-19.5 -49t-48.5 -19z" />
    <glyph glyph-name="uniFC71" unicode="&#xfe98;&#xfeb0;" horiz-adv-x="755" arabic-form="final" 
d="M755 0v154q10 0 15 -21t5 -55q0 -35 -5 -56.5t-15 -21.5zM717 0q-76 0 -127 27t-77 80t-26 130v264h133v-264q0 -33 7.5 -51.5t28.5 -25t61 -6.5h38v-154h-38zM366 251q-61 0 -120 8.5t-114 25.5v160q50 -20 109 -30t125 -10t125 10.5t109 29.5v-160q-54 -17 -113 -25.5
t-121 -8.5zM0 -129q50 0 78.5 10.5t41 32.5t12.5 56v531h133v-531q0 -75 -29 -129t-82.5 -84t-128.5 -33zM632 609q-29 0 -48.5 19t-19.5 49t19.5 49t48.5 19t48.5 -19t19.5 -49t-19.5 -49t-48.5 -19zM476 609q-29 0 -48.5 19t-19.5 49t19.5 49t48.5 19t48.5 -19t19.5 -49
t-19.5 -49t-48.5 -19zM199 625q-34 0 -57 23t-23 57q0 35 23 57.5t57 22.5q35 0 57.5 -22.5t22.5 -57.5q0 -34 -22.5 -57t-57.5 -23z" />
    <glyph glyph-name="uniFC73" unicode="&#xfe98;&#xfee6;" horiz-adv-x="1236" arabic-form="final" 
d="M1236 0v154q9 0 14.5 -21t5.5 -55q0 -35 -5.5 -56.5t-14.5 -21.5zM1197 0q-76 0 -127 27t-77 80t-26 130v264h133v-264q0 -33 7.5 -51.5t28.5 -25t61 -6.5h39v-154h-39zM847 251q-62 0 -121 8.5t-114 25.5v160q50 -20 109.5 -30t125.5 -10t124.5 10.5t108.5 29.5v-160
q-54 -17 -112.5 -25.5t-120.5 -8.5zM389 -274q-86 0 -151.5 30t-109.5 83t-66 123.5t-22 152.5q0 41 6 82t15 80l128 -24q-7 -36 -11.5 -70t-4.5 -68q0 -75 24.5 -128t72.5 -80.5t119 -27.5q72 0 121.5 27.5t75.5 81t26 129.5v384h134v-384q0 -83 -23.5 -154t-69 -124
t-111.5 -83t-153 -30zM393 495q-34 0 -57 22.5t-23 57.5t23 57.5t57 22.5q35 0 57.5 -22.5t22.5 -57.5t-22.5 -57.5t-57.5 -22.5zM1113 609q-29 0 -48.5 19t-19.5 49t19.5 49t48.5 19t48.5 -19t19.5 -49t-19.5 -49t-48.5 -19zM957 609q-29 0 -48.5 19t-19.5 49t19.5 49
t48.5 19t48.5 -19t19.5 -49t-19.5 -49t-48.5 -19z" />
    <glyph glyph-name="uniFC76" unicode="&#xfe9c;&#xfeae;" horiz-adv-x="755" arabic-form="final" 
d="M755 0v154q10 0 15 -21t5 -55q0 -35 -5 -56.5t-15 -21.5zM717 0q-76 0 -127 27t-77 80t-26 130v264h133v-264q0 -33 7.5 -51.5t28.5 -25t61 -6.5h38v-154h-38zM366 251q-61 0 -120 8.5t-114 25.5v160q50 -20 109 -30t125 -10t125 10.5t109 29.5v-160q-54 -17 -113 -25.5
t-121 -8.5zM0 -129q50 0 78.5 10.5t41 32.5t12.5 56v531h133v-531q0 -75 -29 -129t-82.5 -84t-128.5 -33zM554 882q29 0 47.5 -19t18.5 -48t-18.5 -47.5t-47.5 -18.5q-28 0 -47.5 18.5t-19.5 47.5t19.5 48t47.5 19zM632 745q29 0 48.5 -19t19.5 -48q0 -30 -19.5 -49
t-48.5 -19t-48.5 19t-19.5 49q0 29 19.5 48t48.5 19zM476 745q29 0 48.5 -19t19.5 -48q0 -30 -19.5 -49t-48.5 -19t-48.5 19t-19.5 49q0 29 19.5 48t48.5 19z" />
    <glyph glyph-name="uniFC77" unicode="&#xfe9c;&#xfeb0;" horiz-adv-x="755" arabic-form="final" 
d="M755 0v154q10 0 15 -21t5 -55q0 -35 -5 -56.5t-15 -21.5zM717 0q-76 0 -127 27t-77 80t-26 130v264h133v-264q0 -33 7.5 -51.5t28.5 -25t61 -6.5h38v-154h-38zM366 251q-61 0 -120 8.5t-114 25.5v160q50 -20 109 -30t125 -10t125 10.5t109 29.5v-160q-54 -17 -113 -25.5
t-121 -8.5zM0 -129q50 0 78.5 10.5t41 32.5t12.5 56v531h133v-531q0 -75 -29 -129t-82.5 -84t-128.5 -33zM554 882q29 0 47.5 -19t18.5 -48t-18.5 -47.5t-47.5 -18.5q-28 0 -47.5 18.5t-19.5 47.5t19.5 48t47.5 19zM632 745q29 0 48.5 -19t19.5 -48q0 -30 -19.5 -49
t-48.5 -19t-48.5 19t-19.5 49q0 29 19.5 48t48.5 19zM476 745q29 0 48.5 -19t19.5 -48q0 -30 -19.5 -49t-48.5 -19t-48.5 19t-19.5 49q0 29 19.5 48t48.5 19zM199 625q-34 0 -57 23t-23 57q0 35 23 57.5t57 22.5q35 0 57.5 -22.5t22.5 -57.5q0 -34 -22.5 -57t-57.5 -23z" />
    <glyph glyph-name="uniFC79" unicode="&#xfe9c;&#xfee6;" horiz-adv-x="1236" arabic-form="final" 
d="M1236 0v154q9 0 14.5 -21t5.5 -55q0 -35 -5.5 -56.5t-14.5 -21.5zM1197 0q-76 0 -127 27t-77 80t-26 130v264h133v-264q0 -33 7.5 -51.5t28.5 -25t61 -6.5h39v-154h-39zM847 251q-62 0 -121 8.5t-114 25.5v160q50 -20 109.5 -30t125.5 -10t124.5 10.5t108.5 29.5v-160
q-54 -17 -112.5 -25.5t-120.5 -8.5zM389 -274q-86 0 -151.5 30t-109.5 83t-66 123.5t-22 152.5q0 41 6 82t15 80l128 -24q-7 -36 -11.5 -70t-4.5 -68q0 -75 24.5 -128t72.5 -80.5t119 -27.5q72 0 121.5 27.5t75.5 81t26 129.5v384h134v-384q0 -83 -23.5 -154t-69 -124
t-111.5 -83t-153 -30zM393 495q-34 0 -57 22.5t-23 57.5t23 57.5t57 22.5q35 0 57.5 -22.5t22.5 -57.5t-22.5 -57.5t-57.5 -22.5zM1035 882q29 0 47.5 -19t18.5 -48t-18.5 -47.5t-47.5 -18.5q-28 0 -47.5 18.5t-19.5 47.5t19.5 48t47.5 19zM1113 745q29 0 48.5 -19t19.5 -48
q0 -30 -19.5 -49t-48.5 -19t-48.5 19t-19.5 49q0 29 19.5 48t48.5 19zM957 745q29 0 48.5 -19t19.5 -48q0 -30 -19.5 -49t-48.5 -19t-48.5 19t-19.5 49q0 29 19.5 48t48.5 19z" />
    <glyph glyph-name="uniFC8A" unicode="&#xfee8;&#xfeae;" horiz-adv-x="755" arabic-form="final" 
d="M755 0v154q10 0 15 -21t5 -55q0 -35 -5 -56.5t-15 -21.5zM717 0q-76 0 -127 27t-77 80t-26 130v264h133v-264q0 -33 7.5 -51.5t28.5 -25t61 -6.5h38v-154h-38zM366 251q-61 0 -120 8.5t-114 25.5v160q50 -20 109 -30t125 -10t125 10.5t109 29.5v-160q-54 -17 -113 -25.5
t-121 -8.5zM0 -129q50 0 78.5 10.5t41 32.5t12.5 56v531h133v-531q0 -75 -29 -129t-82.5 -84t-128.5 -33zM554 625q-34 0 -57 23t-23 57q0 35 23 57.5t57 22.5q35 0 57.5 -22.5t22.5 -57.5q0 -34 -22.5 -57t-57.5 -23z" />
    <glyph glyph-name="uniFC8B" unicode="&#xfee8;&#xfeb0;" horiz-adv-x="755" arabic-form="final" 
d="M755 0v154q10 0 15 -21t5 -55q0 -35 -5 -56.5t-15 -21.5zM717 0q-76 0 -127 27t-77 80t-26 130v264h133v-264q0 -33 7.5 -51.5t28.5 -25t61 -6.5h38v-154h-38zM366 251q-61 0 -120 8.5t-114 25.5v160q50 -20 109 -30t125 -10t125 10.5t109 29.5v-160q-54 -17 -113 -25.5
t-121 -8.5zM0 -129q50 0 78.5 10.5t41 32.5t12.5 56v531h133v-531q0 -75 -29 -129t-82.5 -84t-128.5 -33zM554 625q-34 0 -57 23t-23 57q0 35 23 57.5t57 22.5q35 0 57.5 -22.5t22.5 -57.5q0 -34 -22.5 -57t-57.5 -23zM199 625q-34 0 -57 23t-23 57q0 35 23 57.5t57 22.5
q35 0 57.5 -22.5t22.5 -57.5q0 -34 -22.5 -57t-57.5 -23z" />
    <glyph glyph-name="uniFC8D" unicode="&#xfee8;&#xfee6;" horiz-adv-x="1236" arabic-form="final" 
d="M1236 0v154q9 0 14.5 -21t5.5 -55q0 -35 -5.5 -56.5t-14.5 -21.5zM1197 0q-76 0 -127 27t-77 80t-26 130v264h133v-264q0 -33 7.5 -51.5t28.5 -25t61 -6.5h39v-154h-39zM847 251q-62 0 -121 8.5t-114 25.5v160q50 -20 109.5 -30t125.5 -10t124.5 10.5t108.5 29.5v-160
q-54 -17 -112.5 -25.5t-120.5 -8.5zM389 -274q-86 0 -151.5 30t-109.5 83t-66 123.5t-22 152.5q0 41 6 82t15 80l128 -24q-7 -36 -11.5 -70t-4.5 -68q0 -75 24.5 -128t72.5 -80.5t119 -27.5q72 0 121.5 27.5t75.5 81t26 129.5v384h134v-384q0 -83 -23.5 -154t-69 -124
t-111.5 -83t-153 -30zM393 495q-34 0 -57 22.5t-23 57.5t23 57.5t57 22.5q35 0 57.5 -22.5t22.5 -57.5t-22.5 -57.5t-57.5 -22.5zM1034 625q-34 0 -57 23t-23 57q0 35 23 57.5t57 22.5q35 0 57.5 -22.5t22.5 -57.5q0 -34 -22.5 -57t-57.5 -23z" />
    <glyph glyph-name="uniFC91" unicode="&#xfef4;&#xfeae;" horiz-adv-x="755" arabic-form="final" 
d="M755 0v154q10 0 15 -21t5 -55q0 -35 -5 -56.5t-15 -21.5zM717 0q-76 0 -127 27t-77 80t-26 130v264h133v-264q0 -33 7.5 -51.5t28.5 -25t61 -6.5h38v-154h-38zM366 251q-61 0 -120 8.5t-114 25.5v160q50 -20 109 -30t125 -10t125 10.5t109 29.5v-160q-54 -17 -113 -25.5
t-121 -8.5zM0 -129q50 0 78.5 10.5t41 32.5t12.5 56v531h133v-531q0 -75 -29 -129t-82.5 -84t-128.5 -33zM632 -242q-29 0 -48.5 19t-19.5 48q0 30 19.5 49t48.5 19t48.5 -19t19.5 -49q0 -29 -19.5 -48t-48.5 -19zM476 -242q-29 0 -48.5 19t-19.5 48q0 30 19.5 49t48.5 19
t48.5 -19t19.5 -49q0 -29 -19.5 -48t-48.5 -19z" />
    <glyph glyph-name="uniFC92" unicode="&#xfef4;&#xfeb0;" horiz-adv-x="755" arabic-form="final" 
d="M755 0v154q10 0 15 -21t5 -55q0 -35 -5 -56.5t-15 -21.5zM717 0q-76 0 -127 27t-77 80t-26 130v264h133v-264q0 -33 7.5 -51.5t28.5 -25t61 -6.5h38v-154h-38zM366 251q-61 0 -120 8.5t-114 25.5v160q50 -20 109 -30t125 -10t125 10.5t109 29.5v-160q-54 -17 -113 -25.5
t-121 -8.5zM0 -129q50 0 78.5 10.5t41 32.5t12.5 56v531h133v-531q0 -75 -29 -129t-82.5 -84t-128.5 -33zM199 625q-34 0 -57 23t-23 57q0 35 23 57.5t57 22.5q35 0 57.5 -22.5t22.5 -57.5q0 -34 -22.5 -57t-57.5 -23zM632 -242q-29 0 -48.5 19t-19.5 48q0 30 19.5 49
t48.5 19t48.5 -19t19.5 -49q0 -29 -19.5 -48t-48.5 -19zM476 -242q-29 0 -48.5 19t-19.5 48q0 30 19.5 49t48.5 19t48.5 -19t19.5 -49q0 -29 -19.5 -48t-48.5 -19z" />
    <glyph glyph-name="uniFC94" unicode="&#xfef4;&#xfee6;" horiz-adv-x="1236" arabic-form="final" 
d="M1236 0v154q9 0 14.5 -21t5.5 -55q0 -35 -5.5 -56.5t-14.5 -21.5zM1197 0q-76 0 -127 27t-77 80t-26 130v264h133v-264q0 -33 7.5 -51.5t28.5 -25t61 -6.5h39v-154h-39zM847 251q-62 0 -121 8.5t-114 25.5v160q50 -20 109.5 -30t125.5 -10t124.5 10.5t108.5 29.5v-160
q-54 -17 -112.5 -25.5t-120.5 -8.5zM389 -274q-86 0 -151.5 30t-109.5 83t-66 123.5t-22 152.5q0 41 6 82t15 80l128 -24q-7 -36 -11.5 -70t-4.5 -68q0 -75 24.5 -128t72.5 -80.5t119 -27.5q72 0 121.5 27.5t75.5 81t26 129.5v384h134v-384q0 -83 -23.5 -154t-69 -124
t-111.5 -83t-153 -30zM393 495q-34 0 -57 22.5t-23 57.5t23 57.5t57 22.5q35 0 57.5 -22.5t22.5 -57.5t-22.5 -57.5t-57.5 -22.5zM1113 -242q-29 0 -48.5 19t-19.5 48q0 30 19.5 49t48.5 19t48.5 -19t19.5 -49q0 -29 -19.5 -48t-48.5 -19zM957 -242q-29 0 -48.5 19t-19.5 48
q0 30 19.5 49t48.5 19t48.5 -19t19.5 -49q0 -29 -19.5 -48t-48.5 -19z" />
    <glyph glyph-name="uniFD0D" unicode="&#xfeb7;&#xfeae;" horiz-adv-x="1292" arabic-form="isolated" 
d="M1010 0q-70 0 -116.5 19.5t-73 57.5t-36.5 92l101 46q4 -21 17.5 -34.5t39.5 -20t67 -6.5q39 0 59 7t27 25t7 51v264h134v-280q0 -110 -54.5 -165.5t-171.5 -55.5zM366 251q-61 0 -120 9t-114 25v160q50 -19 109 -29.5t125 -10.5t125 10.5t109 30.5v-161
q-54 -16 -113 -25t-121 -9zM714 0q-75 0 -125.5 27.5t-76 81t-25.5 128.5v264h133v-264q0 -33 7.5 -51t27.5 -25t59 -7v-154zM712 0l2 154q39 0 59 7t27 25t7 51v215h134v-231q0 -110 -55 -165.5t-174 -55.5zM0 -129q50 0 78.5 10.5t41 32.5t12.5 56v531h133v-531
q0 -75 -29 -129t-82.5 -84t-128.5 -33zM874 878q29 0 47.5 -19t18.5 -48t-18.5 -47.5t-47.5 -18.5q-28 0 -47.5 18.5t-19.5 47.5t19.5 48t47.5 19zM952 741q29 0 48.5 -19t19.5 -48q0 -30 -19.5 -49t-48.5 -19t-48.5 19t-19.5 49q0 29 19.5 48t48.5 19zM796 741
q29 0 48.5 -19t19.5 -48q0 -30 -19.5 -49t-48.5 -19t-48.5 19t-19.5 49q0 29 19.5 48t48.5 19z" />
    <glyph glyph-name="uniFD0E" unicode="&#xfeb3;&#xfeae;" horiz-adv-x="1292" arabic-form="isolated" 
d="M1010 0q-70 0 -116.5 19.5t-73 57.5t-36.5 92l101 46q4 -21 17.5 -34.5t39.5 -20t67 -6.5q39 0 59 7t27 25t7 51v264h134v-280q0 -110 -54.5 -165.5t-171.5 -55.5zM366 251q-61 0 -120 9t-114 25v160q50 -19 109 -29.5t125 -10.5t125 10.5t109 30.5v-161
q-54 -16 -113 -25t-121 -9zM714 0q-75 0 -125.5 27.5t-76 81t-25.5 128.5v264h133v-264q0 -33 7.5 -51t27.5 -25t59 -7v-154zM712 0l2 154q39 0 59 7t27 25t7 51v215h134v-231q0 -110 -55 -165.5t-174 -55.5zM0 -129q50 0 78.5 10.5t41 32.5t12.5 56v531h133v-531
q0 -75 -29 -129t-82.5 -84t-128.5 -33z" />
    <glyph glyph-name="uniFD0F" unicode="&#xfebb;&#xfeae;" horiz-adv-x="1390" arabic-form="isolated" 
d="M368 251q-62 0 -120.5 9t-114.5 25v160q50 -19 109.5 -29.5t125.5 -10.5t124.5 10.5t109.5 30.5v-161q-55 -16 -113.5 -25t-120.5 -9zM715 0q-74 0 -125 27.5t-76.5 81t-25.5 128.5v261h134v-261q0 -33 7 -51t27.5 -25t58.5 -7h618v-154h-618zM1200 0v246q0 59 -20 98.5
t-58 59.5t-90 20q-45 0 -87 -16t-78 -45.5t-62.5 -71.5t-41.5 -94.5t-15 -113.5h-115q0 43 8 96t26.5 108t48.5 106.5t73.5 92t102.5 64.5t135 24q78 0 136 -26t95.5 -72t56 -105t18.5 -125v-246h-133zM0 -129q50 0 78.5 10.5t41 32.5t12.5 56v531h133v-531q0 -75 -29 -129
t-82.5 -84t-128.5 -33z" />
    <glyph glyph-name="uniFD10" unicode="&#xfebf;&#xfeae;" horiz-adv-x="1390" arabic-form="isolated" 
d="M368 251q-62 0 -120.5 9t-114.5 25v160q50 -19 109.5 -29.5t125.5 -10.5t124.5 10.5t109.5 30.5v-161q-55 -16 -113.5 -25t-120.5 -9zM715 0q-74 0 -125 27.5t-76.5 81t-25.5 128.5v261h134v-261q0 -33 7 -51t27.5 -25t58.5 -7h618v-154h-618zM1200 0v246q0 59 -20 98.5
t-58 59.5t-90 20q-45 0 -87 -16t-78 -45.5t-62.5 -71.5t-41.5 -94.5t-15 -113.5h-115q0 43 8 96t26.5 108t48.5 106.5t73.5 92t102.5 64.5t135 24q78 0 136 -26t95.5 -72t56 -105t18.5 -125v-246h-133zM0 -129q50 0 78.5 10.5t41 32.5t12.5 56v531h133v-531q0 -75 -29 -129
t-82.5 -84t-128.5 -33zM1026 697q-34 0 -57 23t-23 57q0 35 23 57.5t57 22.5q35 0 57.5 -22.5t22.5 -57.5q0 -34 -22.5 -57t-57.5 -23z" />
    <glyph glyph-name="uniFD29" unicode="&#xfeb8;&#xfeae;" horiz-adv-x="1371" arabic-form="final" 
d="M1371 0v154q10 0 15 -21t5 -55q0 -35 -5 -56.5t-15 -21.5zM1333 0q-77 0 -128 27t-77 80t-26 130h134q0 -33 7 -51.5t28 -25t62 -6.5h38v-154h-38zM1010 0q-70 0 -116.5 19.5t-73 57.5t-36.5 92l101 46q4 -21 17.5 -34.5t39.5 -20t67 -6.5q39 0 59 7t27 25t7 51v264h134
v-280q0 -110 -54.5 -165.5t-171.5 -55.5zM366 251q-61 0 -120 9t-114 25v160q50 -19 109 -29.5t125 -10.5t125 10.5t109 30.5v-161q-54 -16 -113 -25t-121 -9zM714 0q-75 0 -125.5 27.5t-76 81t-25.5 128.5v264h133v-264q0 -33 7.5 -51t27.5 -25t59 -7v-154zM712 0l2 154
q39 0 59 7t27 25t7 51v215h134v-231q0 -110 -55 -165.5t-174 -55.5zM0 -129q50 0 78.5 10.5t41 32.5t12.5 56v531h133v-531q0 -75 -29 -129t-82.5 -84t-128.5 -33zM875 878q29 0 47.5 -19t18.5 -48t-18.5 -47.5t-47.5 -18.5q-28 0 -47.5 18.5t-19.5 47.5t19.5 48t47.5 19z
M953 741q29 0 48.5 -19t19.5 -48q0 -30 -19.5 -49t-48.5 -19t-48.5 19t-19.5 49q0 29 19.5 48t48.5 19zM797 741q29 0 48.5 -19t19.5 -48q0 -30 -19.5 -49t-48.5 -19t-48.5 19t-19.5 49q0 29 19.5 48t48.5 19z" />
    <glyph glyph-name="uniFD2A" unicode="&#xfeb4;&#xfeae;" horiz-adv-x="1371" arabic-form="final" 
d="M1371 0v154q10 0 15 -21t5 -55q0 -35 -5 -56.5t-15 -21.5zM1333 0q-77 0 -128 27t-77 80t-26 130h134q0 -33 7 -51.5t28 -25t62 -6.5h38v-154h-38zM1010 0q-70 0 -116.5 19.5t-73 57.5t-36.5 92l101 46q4 -21 17.5 -34.5t39.5 -20t67 -6.5q39 0 59 7t27 25t7 51v264h134
v-280q0 -110 -54.5 -165.5t-171.5 -55.5zM366 251q-61 0 -120 9t-114 25v160q50 -19 109 -29.5t125 -10.5t125 10.5t109 30.5v-161q-54 -16 -113 -25t-121 -9zM714 0q-75 0 -125.5 27.5t-76 81t-25.5 128.5v264h133v-264q0 -33 7.5 -51t27.5 -25t59 -7v-154zM712 0l2 154
q39 0 59 7t27 25t7 51v215h134v-231q0 -110 -55 -165.5t-174 -55.5zM0 -129q50 0 78.5 10.5t41 32.5t12.5 56v531h133v-531q0 -75 -29 -129t-82.5 -84t-128.5 -33z" />
    <glyph glyph-name="uniFD2B" unicode="&#xfebc;&#xfeae;" horiz-adv-x="1440" arabic-form="final" 
d="M1440 0v154q10 0 15 -21t5 -55q0 -35 -5 -56.5t-15 -21.5zM715 0q-74 0 -125 27.5t-76.5 81t-25.5 128.5v261h134v-261q0 -33 7 -51t27.5 -25t58.5 -7h618v-154h-618zM368 251q-62 0 -120.5 9t-114.5 25v160q50 -19 109.5 -29.5t125.5 -10.5t124.5 10.5t109.5 30.5v-161
q-55 -16 -113.5 -25t-120.5 -9zM1200 0v246q0 59 -20 98.5t-58 59.5t-90 20q-45 0 -87 -16t-78 -45.5t-62.5 -71.5t-41.5 -94.5t-15 -113.5h-115q0 43 8 96t26.5 108t48.5 106.5t73.5 92t102.5 64.5t135 24q78 0 136 -26t95.5 -72t56 -105t18.5 -125v-246h-133zM1259 0v154
h181v-154h-181zM0 -129q50 0 78.5 10.5t41 32.5t12.5 56v531h133v-531q0 -75 -29 -129t-82.5 -84t-128.5 -33z" />
    <glyph glyph-name="uniFD2C" unicode="&#xfec0;&#xfeae;" horiz-adv-x="1440" arabic-form="final" 
d="M1440 0v154q10 0 15 -21t5 -55q0 -35 -5 -56.5t-15 -21.5zM715 0q-74 0 -125 27.5t-76.5 81t-25.5 128.5v261h134v-261q0 -33 7 -51t27.5 -25t58.5 -7h618v-154h-618zM368 251q-62 0 -120.5 9t-114.5 25v160q50 -19 109.5 -29.5t125.5 -10.5t124.5 10.5t109.5 30.5v-161
q-55 -16 -113.5 -25t-120.5 -9zM1200 0v246q0 59 -20 98.5t-58 59.5t-90 20q-45 0 -87 -16t-78 -45.5t-62.5 -71.5t-41.5 -94.5t-15 -113.5h-115q0 43 8 96t26.5 108t48.5 106.5t73.5 92t102.5 64.5t135 24q78 0 136 -26t95.5 -72t56 -105t18.5 -125v-246h-133zM1259 0v154
h181v-154h-181zM0 -129q50 0 78.5 10.5t41 32.5t12.5 56v531h133v-531q0 -75 -29 -129t-82.5 -84t-128.5 -33zM1026 697q-34 0 -57 23t-23 57q0 35 23 57.5t57 22.5q35 0 57.5 -22.5t22.5 -57.5q0 -34 -22.5 -57t-57.5 -23z" />
    <glyph glyph-name="uniFDF2" unicode="&#x627;&#xfedf;&#xfee0;&#xfeea;" horiz-adv-x="1632" arabic-form="isolated" 
d="M683 0v154h16q41 0 61.5 6.5t28 25t7.5 51.5v469h133v-469q0 -77 -25.5 -129.5t-77 -80t-127.5 -27.5h-16zM1026 0q-76 0 -127 27t-77 80t-26 130h133q0 -33 7.5 -51.5t28.5 -25t61 -6.5h22v-154h-22zM1048 0v154h107v552h134v-706h-241zM1422 0v849h133v-849h-133z
M683 0v154q10 0 15 -21t5 -55q0 -35 -5 -56.5t-15 -21.5zM329 37q-60 0 -112.5 14.5t-92 43t-62 71.5t-22.5 100q0 65 29.5 114.5t81.5 83.5t122 54t152 26l8 -139q-51 -3 -97.5 -13.5t-83 -27.5t-58 -42t-21.5 -56q0 -30 20 -50t55 -30t80 -10q37 0 68.5 6.5t60.5 17.5
l53 -128q-42 -17 -88.5 -26t-92.5 -9zM645 0q-76 0 -127 27t-77 80t-26 130v336h133v-336q0 -33 7.5 -51.5t28.5 -25t61 -6.5h38v-154h-38zM914 793q-23 0 -44 12.5t-34.5 33.5t-13.5 46v68h66v-65q0 -13 8.5 -22.5t17.5 -9.5q12 0 21.5 14.5t9.5 37.5q0 16 -4 33.5
t-11 29.5l59 29q10 -18 16 -44t6 -48q0 -31 -12.5 -57t-34.5 -42t-50 -16zM795 793q-28 0 -49.5 16t-34.5 42t-13 57q0 22 6 48t16 44l59 -29q-7 -12 -11 -29.5t-4 -33.5q0 -23 10 -37.5t21 -14.5q9 0 18 9.5t9 22.5v65h66v-68q0 -25 -13.5 -46t-35 -33.5t-44.5 -12.5z
M822 1029v185h66v-185h-66z" />
    <glyph glyph-name="uniFEF5" unicode="&#xfedf;&#xfe82;" horiz-adv-x="750" arabic-form="isolated" 
d="M540 0v849h134v-849h-134zM76 0v154h598v-154h-598zM218 0v610h133v-610h-133zM118 697q0 62 30 95t93 33q26 0 65.5 -4t79.5 -7.5t67 -2.5v-86q-26 -2 -65 1t-77.5 7t-64.5 4q-29 0 -39 -8.5t-10 -31.5h-79z" />
    <glyph glyph-name="uniFEF6" unicode="&#xfee0;&#xfe82;" horiz-adv-x="792" arabic-form="final" 
d="M218 0v610h133v-610h-133zM76 0v154h363v-154h-363zM792 0v154q10 0 15 -21t5 -55q0 -35 -5 -56.5t-15 -21.5zM404 0q-10 0 -15 21.5t-5 56.5t5 55.5t15 20.5v-154zM404 0v154h39q41 0 61.5 6.5t28 25t7.5 51.5v612h134v-612q0 -77 -26 -129.5t-77 -80t-128 -27.5h-39z
M770 0q-76 0 -127 27t-77 80t-26 130h134q0 -33 7 -51.5t28 -25t61 -6.5h22v-154h-22zM118 697q0 62 30 95t93 33q26 0 65.5 -4t79.5 -7.5t67 -2.5v-86q-26 -2 -65 1t-77.5 7t-64.5 4q-29 0 -39 -8.5t-10 -31.5h-79z" />
    <glyph glyph-name="uniFEF7" unicode="&#xfedf;&#xfe84;" horiz-adv-x="750" arabic-form="isolated" 
d="M540 0v849h134v-849h-134zM76 0v154h598v-154h-598zM218 0v610h133v-610h-133zM323 720q-63 0 -102.5 24.5t-39.5 71.5q0 33 19 56.5t49.5 36.5t66.5 13q21 0 41.5 -4.5t39.5 -14.5l-31 -67q-9 2 -21.5 3t-21.5 1q-33 0 -52 -9t-19 -21t19 -21.5t52 -9.5v-59zM160 697v82
h250v-82h-250z" />
    <glyph glyph-name="uniFEF8" unicode="&#xfee0;&#xfe84;" horiz-adv-x="792" arabic-form="final" 
d="M218 0v610h133v-610h-133zM76 0v154h363v-154h-363zM792 0v154q10 0 15 -21t5 -55q0 -35 -5 -56.5t-15 -21.5zM404 0q-10 0 -15 21.5t-5 56.5t5 55.5t15 20.5v-154zM404 0v154h39q41 0 61.5 6.5t28 25t7.5 51.5v612h134v-612q0 -77 -26 -129.5t-77 -80t-128 -27.5h-39z
M770 0q-76 0 -127 27t-77 80t-26 130h134q0 -33 7 -51.5t28 -25t61 -6.5h22v-154h-22zM323 720q-63 0 -102.5 24.5t-39.5 71.5q0 33 19 56.5t49.5 36.5t66.5 13q21 0 41.5 -4.5t39.5 -14.5l-31 -67q-9 2 -21.5 3t-21.5 1q-33 0 -52 -9t-19 -21t19 -21.5t52 -9.5v-59z
M160 697v82h250v-82h-250z" />
    <glyph glyph-name="uniFEF9" unicode="&#xfedf;&#xfe88;" horiz-adv-x="750" arabic-form="isolated" 
d="M540 0v849h134v-849h-134zM76 0v154h598v-154h-598zM218 0v610h133v-610h-133zM323 -286q-63 0 -102.5 24.5t-39.5 71.5q0 33 19 56.5t49.5 36.5t66.5 13q21 0 41.5 -4.5t39.5 -14.5l-31 -67q-9 2 -21.5 3t-21.5 1q-33 0 -52 -9t-19 -21t19 -21.5t52 -9.5v-59zM160 -309
v82h250v-82h-250z" />
    <glyph glyph-name="uniFEFA" unicode="&#xfee0;&#xfe88;" horiz-adv-x="792" arabic-form="final" 
d="M218 0v610h133v-610h-133zM76 0v154h363v-154h-363zM792 0v154q10 0 15 -21t5 -55q0 -35 -5 -56.5t-15 -21.5zM404 0q-10 0 -15 21.5t-5 56.5t5 55.5t15 20.5v-154zM404 0v154h39q41 0 61.5 6.5t28 25t7.5 51.5v612h134v-612q0 -77 -26 -129.5t-77 -80t-128 -27.5h-39z
M770 0q-76 0 -127 27t-77 80t-26 130h134q0 -33 7 -51.5t28 -25t61 -6.5h22v-154h-22zM323 -286q-63 0 -102.5 24.5t-39.5 71.5q0 33 19 56.5t49.5 36.5t66.5 13q21 0 41.5 -4.5t39.5 -14.5l-31 -67q-9 2 -21.5 3t-21.5 1q-33 0 -52 -9t-19 -21t19 -21.5t52 -9.5v-59z
M160 -309v82h250v-82h-250z" />
    <glyph glyph-name="uniFEFB" unicode="&#xfedf;&#xfe8e;" horiz-adv-x="750" arabic-form="isolated" 
d="M540 0v849h134v-849h-134zM76 0v154h598v-154h-598zM218 0v610h133v-610h-133z" />
    <glyph glyph-name="uniFEFC" unicode="&#xfee0;&#xfe8e;" horiz-adv-x="792" arabic-form="final" 
d="M218 0v610h133v-610h-133zM76 0v154h363v-154h-363zM792 0v154q10 0 15 -21t5 -55q0 -35 -5 -56.5t-15 -21.5zM404 0q-10 0 -15 21.5t-5 56.5t5 55.5t15 20.5v-154zM404 0v154h39q41 0 61.5 6.5t28 25t7.5 51.5v612h134v-612q0 -77 -26 -129.5t-77 -80t-128 -27.5h-39z
M770 0q-76 0 -127 27t-77 80t-26 130h134q0 -33 7 -51.5t28 -25t61 -6.5h22v-154h-22z" />
    <glyph glyph-name="f_f" unicode="ff" horiz-adv-x="764" 
d="M103 565q0 61 27 102t72 61.5t99 20.5q27 0 54.5 -6t51.5 -16l-23 -116q-15 6 -31.5 10.5t-32.5 4.5q-17 0 -32 -6.5t-23.5 -21t-8.5 -36.5v-562h-153v565zM31 514h352v-103h-352v103zM487 565q0 61 27 102t72 61.5t99 20.5q27 0 54.5 -6t51.5 -16l-23 -116
q-15 6 -31.5 10.5t-32.5 4.5q-17 0 -32 -6.5t-23.5 -21t-8.5 -36.5v-562h-153v565zM415 514h352v-103h-352v103z" />
    <glyph glyph-name="f_f_i" unicode="ffi" horiz-adv-x="1066" 
d="M103 565q0 61 27 102t72 61.5t99 20.5q27 0 54.5 -6t51.5 -16l-23 -116q-15 6 -31.5 10.5t-32.5 4.5q-17 0 -32 -6.5t-23.5 -21t-8.5 -36.5v-562h-153v565zM31 514h352v-103h-352v103zM487 565q0 61 27 102t72 61.5t99 20.5q27 0 54.5 -6t51.5 -16l-23 -116
q-15 6 -31.5 10.5t-32.5 4.5q-17 0 -32 -6.5t-23.5 -21t-8.5 -36.5v-562h-153v565zM415 514h352v-103h-352v103zM838 537h154v-537h-154v537zM915 774q37 0 60.5 -24t23.5 -60t-23.5 -60t-60.5 -24q-35 0 -59 24t-24 60t24 60t59 24z" />
    <glyph glyph-name="f_f_l" unicode="ffl" horiz-adv-x="1096" 
d="M103 565q0 61 27 102t72 61.5t99 20.5q27 0 54.5 -6t51.5 -16l-23 -116q-15 6 -31.5 10.5t-32.5 4.5q-17 0 -32 -6.5t-23.5 -21t-8.5 -36.5v-562h-153v565zM31 514h352v-103h-352v103zM487 565q0 61 27 102t72 61.5t99 20.5q27 0 54.5 -6t51.5 -16l-23 -116
q-15 6 -31.5 10.5t-32.5 4.5q-17 0 -32 -6.5t-23.5 -21t-8.5 -36.5v-562h-153v565zM415 514h352v-103h-352v103zM863 742h154v-742h-154v742z" />
    <glyph glyph-name="peh_rehar.fina" unicode="&#xfb59;&#xfeae;" horiz-adv-x="755" 
d="M755 0v154q10 0 15 -21t5 -55q0 -35 -5 -56.5t-15 -21.5zM717 0q-76 0 -127 27t-77 80t-26 130v264h133v-264q0 -33 7.5 -51.5t28.5 -25t61 -6.5h38v-154h-38zM366 251q-61 0 -120 8.5t-114 25.5v160q50 -20 109 -30t125 -10t125 10.5t109 29.5v-160q-54 -17 -113 -25.5
t-121 -8.5zM0 -129q50 0 78.5 10.5t41 32.5t12.5 56v531h133v-531q0 -75 -29 -129t-82.5 -84t-128.5 -33zM554 -378q-28 0 -47.5 19t-19.5 47q0 30 19.5 48.5t47.5 18.5q29 0 47.5 -18.5t18.5 -48.5q0 -28 -18.5 -47t-47.5 -19zM632 -242q-29 0 -48.5 19.5t-19.5 48.5
t19.5 48.5t48.5 19.5t48.5 -19.5t19.5 -48.5t-19.5 -48.5t-48.5 -19.5zM476 -242q-29 0 -48.5 19.5t-19.5 48.5t19.5 48.5t48.5 19.5t48.5 -19.5t19.5 -48.5t-19.5 -48.5t-48.5 -19.5z" />
    <glyph glyph-name="peh_zainar.fina" unicode="&#xfb59;&#xfeb0;" horiz-adv-x="755" 
d="M755 0v154q10 0 15 -21t5 -55q0 -35 -5 -56.5t-15 -21.5zM717 0q-76 0 -127 27t-77 80t-26 130v264h133v-264q0 -33 7.5 -51.5t28.5 -25t61 -6.5h38v-154h-38zM366 251q-61 0 -120 8.5t-114 25.5v160q50 -20 109 -30t125 -10t125 10.5t109 29.5v-160q-54 -17 -113 -25.5
t-121 -8.5zM0 -129q50 0 78.5 10.5t41 32.5t12.5 56v531h133v-531q0 -75 -29 -129t-82.5 -84t-128.5 -33zM554 -378q-28 0 -47.5 19t-19.5 47q0 30 19.5 48.5t47.5 18.5q29 0 47.5 -18.5t18.5 -48.5q0 -28 -18.5 -47t-47.5 -19zM632 -242q-29 0 -48.5 19.5t-19.5 48.5
t19.5 48.5t48.5 19.5t48.5 -19.5t19.5 -48.5t-19.5 -48.5t-48.5 -19.5zM476 -242q-29 0 -48.5 19.5t-19.5 48.5t19.5 48.5t48.5 19.5t48.5 -19.5t19.5 -48.5t-19.5 -48.5t-48.5 -19.5zM199 625q-34 0 -57 23t-23 57q0 35 23 57.5t57 22.5q35 0 57.5 -22.5t22.5 -57.5
q0 -34 -22.5 -57t-57.5 -23z" />
    <glyph glyph-name="peh_noonar.fina" unicode="&#xfb59;&#xfee6;" horiz-adv-x="1236" 
d="M1236 0v154q9 0 14.5 -21t5.5 -55q0 -35 -5.5 -56.5t-14.5 -21.5zM1197 0q-76 0 -127 27t-77 80t-26 130v264h133v-264q0 -33 7.5 -51.5t28.5 -25t61 -6.5h39v-154h-39zM847 251q-62 0 -121 8.5t-114 25.5v160q50 -20 109.5 -30t125.5 -10t124.5 10.5t108.5 29.5v-160
q-54 -17 -112.5 -25.5t-120.5 -8.5zM389 -274q-86 0 -151.5 30t-109.5 83t-66 123.5t-22 152.5q0 41 6 82t15 80l128 -24q-7 -36 -11.5 -70t-4.5 -68q0 -75 24.5 -128t72.5 -80.5t119 -27.5q72 0 121.5 27.5t75.5 81t26 129.5v384h134v-384q0 -83 -23.5 -154t-69 -124
t-111.5 -83t-153 -30zM393 495q-34 0 -57 22.5t-23 57.5t23 57.5t57 22.5q35 0 57.5 -22.5t22.5 -57.5t-22.5 -57.5t-57.5 -22.5zM1035 -378q-28 0 -47.5 19t-19.5 47q0 30 19.5 48.5t47.5 18.5q29 0 47.5 -18.5t18.5 -48.5q0 -28 -18.5 -47t-47.5 -19zM1113 -242
q-29 0 -48.5 19.5t-19.5 48.5t19.5 48.5t48.5 19.5t48.5 -19.5t19.5 -48.5t-19.5 -48.5t-48.5 -19.5zM957 -242q-29 0 -48.5 19.5t-19.5 48.5t19.5 48.5t48.5 19.5t48.5 -19.5t19.5 -48.5t-19.5 -48.5t-48.5 -19.5z" />
    <glyph glyph-name="seen_zainar" unicode="&#xfeb3;&#xfeb0;" horiz-adv-x="1292" 
d="M1010 0q-70 0 -116.5 19.5t-73 57.5t-36.5 92l101 46q4 -21 17.5 -34.5t39.5 -20t67 -6.5q39 0 59 7t27 25t7 51v264h134v-280q0 -110 -54.5 -165.5t-171.5 -55.5zM366 251q-61 0 -120 9t-114 25v160q50 -19 109 -29.5t125 -10.5t125 10.5t109 30.5v-161
q-54 -16 -113 -25t-121 -9zM714 0q-75 0 -125.5 27.5t-76 81t-25.5 128.5v264h133v-264q0 -33 7.5 -51t27.5 -25t59 -7v-154zM712 0l2 154q39 0 59 7t27 25t7 51v215h134v-231q0 -110 -55 -165.5t-174 -55.5zM0 -129q50 0 78.5 10.5t41 32.5t12.5 56v531h133v-531
q0 -75 -29 -129t-82.5 -84t-128.5 -33zM199 625q-34 0 -57 23t-23 57q0 35 23 57.5t57 22.5q35 0 57.5 -22.5t22.5 -57.5q0 -34 -22.5 -57t-57.5 -23z" />
    <glyph glyph-name="seen_zainar.fina" unicode="&#xfeb4;&#xfeb0;" horiz-adv-x="1371" 
d="M1371 0v154q10 0 15 -21t5 -55q0 -35 -5 -56.5t-15 -21.5zM1333 0q-77 0 -128 27t-77 80t-26 130h134q0 -33 7 -51.5t28 -25t62 -6.5h38v-154h-38zM1010 0q-70 0 -116.5 19.5t-73 57.5t-36.5 92l101 46q4 -21 17.5 -34.5t39.5 -20t67 -6.5q39 0 59 7t27 25t7 51v264h134
v-280q0 -110 -54.5 -165.5t-171.5 -55.5zM366 251q-61 0 -120 9t-114 25v160q50 -19 109 -29.5t125 -10.5t125 10.5t109 30.5v-161q-54 -16 -113 -25t-121 -9zM714 0q-75 0 -125.5 27.5t-76 81t-25.5 128.5v264h133v-264q0 -33 7.5 -51t27.5 -25t59 -7v-154zM712 0l2 154
q39 0 59 7t27 25t7 51v215h134v-231q0 -110 -55 -165.5t-174 -55.5zM0 -129q50 0 78.5 10.5t41 32.5t12.5 56v531h133v-531q0 -75 -29 -129t-82.5 -84t-128.5 -33zM199 625q-34 0 -57 23t-23 57q0 35 23 57.5t57 22.5q35 0 57.5 -22.5t22.5 -57.5q0 -34 -22.5 -57t-57.5 -23
z" />
    <glyph glyph-name="sheen_zainar" unicode="&#xfeb7;&#xfeb0;" horiz-adv-x="1292" 
d="M1010 0q-70 0 -116.5 19.5t-73 57.5t-36.5 92l101 46q4 -21 17.5 -34.5t39.5 -20t67 -6.5q39 0 59 7t27 25t7 51v264h134v-280q0 -110 -54.5 -165.5t-171.5 -55.5zM366 251q-61 0 -120 9t-114 25v160q50 -19 109 -29.5t125 -10.5t125 10.5t109 30.5v-161
q-54 -16 -113 -25t-121 -9zM714 0q-75 0 -125.5 27.5t-76 81t-25.5 128.5v264h133v-264q0 -33 7.5 -51t27.5 -25t59 -7v-154zM712 0l2 154q39 0 59 7t27 25t7 51v215h134v-231q0 -110 -55 -165.5t-174 -55.5zM0 -129q50 0 78.5 10.5t41 32.5t12.5 56v531h133v-531
q0 -75 -29 -129t-82.5 -84t-128.5 -33zM874 878q29 0 47.5 -19t18.5 -48t-18.5 -47.5t-47.5 -18.5q-28 0 -47.5 18.5t-19.5 47.5t19.5 48t47.5 19zM952 741q29 0 48.5 -19t19.5 -48q0 -30 -19.5 -49t-48.5 -19t-48.5 19t-19.5 49q0 29 19.5 48t48.5 19zM796 741
q29 0 48.5 -19t19.5 -48q0 -30 -19.5 -49t-48.5 -19t-48.5 19t-19.5 49q0 29 19.5 48t48.5 19zM199 625q-34 0 -57 23t-23 57q0 35 23 57.5t57 22.5q35 0 57.5 -22.5t22.5 -57.5q0 -34 -22.5 -57t-57.5 -23z" />
    <glyph glyph-name="sheen_zainar.fina" unicode="&#xfeb8;&#xfeb0;" horiz-adv-x="1371" 
d="M1371 0v154q10 0 15 -21t5 -55q0 -35 -5 -56.5t-15 -21.5zM1333 0q-77 0 -128 27t-77 80t-26 130h134q0 -33 7 -51.5t28 -25t62 -6.5h38v-154h-38zM1010 0q-70 0 -116.5 19.5t-73 57.5t-36.5 92l101 46q4 -21 17.5 -34.5t39.5 -20t67 -6.5q39 0 59 7t27 25t7 51v264h134
v-280q0 -110 -54.5 -165.5t-171.5 -55.5zM366 251q-61 0 -120 9t-114 25v160q50 -19 109 -29.5t125 -10.5t125 10.5t109 30.5v-161q-54 -16 -113 -25t-121 -9zM714 0q-75 0 -125.5 27.5t-76 81t-25.5 128.5v264h133v-264q0 -33 7.5 -51t27.5 -25t59 -7v-154zM712 0l2 154
q39 0 59 7t27 25t7 51v215h134v-231q0 -110 -55 -165.5t-174 -55.5zM0 -129q50 0 78.5 10.5t41 32.5t12.5 56v531h133v-531q0 -75 -29 -129t-82.5 -84t-128.5 -33zM875 878q29 0 47.5 -19t18.5 -48t-18.5 -47.5t-47.5 -18.5q-28 0 -47.5 18.5t-19.5 47.5t19.5 48t47.5 19z
M953 741q29 0 48.5 -19t19.5 -48q0 -30 -19.5 -49t-48.5 -19t-48.5 19t-19.5 49q0 29 19.5 48t48.5 19zM797 741q29 0 48.5 -19t19.5 -48q0 -30 -19.5 -49t-48.5 -19t-48.5 19t-19.5 49q0 29 19.5 48t48.5 19zM199 625q-34 0 -57 23t-23 57q0 35 23 57.5t57 22.5
q35 0 57.5 -22.5t22.5 -57.5q0 -34 -22.5 -57t-57.5 -23z" />
    <glyph glyph-name="sad_zainar" unicode="&#xfebb;&#xfeb0;" horiz-adv-x="1390" 
d="M368 251q-62 0 -120.5 9t-114.5 25v160q50 -19 109.5 -29.5t125.5 -10.5t124.5 10.5t109.5 30.5v-161q-55 -16 -113.5 -25t-120.5 -9zM715 0q-74 0 -125 27.5t-76.5 81t-25.5 128.5v261h134v-261q0 -33 7 -51t27.5 -25t58.5 -7h618v-154h-618zM1200 0v246q0 59 -20 98.5
t-58 59.5t-90 20q-45 0 -87 -16t-78 -45.5t-62.5 -71.5t-41.5 -94.5t-15 -113.5h-115q0 43 8 96t26.5 108t48.5 106.5t73.5 92t102.5 64.5t135 24q78 0 136 -26t95.5 -72t56 -105t18.5 -125v-246h-133zM0 -129q50 0 78.5 10.5t41 32.5t12.5 56v531h133v-531q0 -75 -29 -129
t-82.5 -84t-128.5 -33zM199 625q-34 0 -57 23t-23 57q0 35 23 57.5t57 22.5q35 0 57.5 -22.5t22.5 -57.5q0 -34 -22.5 -57t-57.5 -23z" />
    <glyph glyph-name="sad_zainar.fina" unicode="&#xfebc;&#xfeb0;" horiz-adv-x="1440" 
d="M1440 0v154q10 0 15 -21t5 -55q0 -35 -5 -56.5t-15 -21.5zM715 0q-74 0 -125 27.5t-76.5 81t-25.5 128.5v261h134v-261q0 -33 7 -51t27.5 -25t58.5 -7h618v-154h-618zM368 251q-62 0 -120.5 9t-114.5 25v160q50 -19 109.5 -29.5t125.5 -10.5t124.5 10.5t109.5 30.5v-161
q-55 -16 -113.5 -25t-120.5 -9zM1200 0v246q0 59 -20 98.5t-58 59.5t-90 20q-45 0 -87 -16t-78 -45.5t-62.5 -71.5t-41.5 -94.5t-15 -113.5h-115q0 43 8 96t26.5 108t48.5 106.5t73.5 92t102.5 64.5t135 24q78 0 136 -26t95.5 -72t56 -105t18.5 -125v-246h-133zM1259 0v154
h181v-154h-181zM0 -129q50 0 78.5 10.5t41 32.5t12.5 56v531h133v-531q0 -75 -29 -129t-82.5 -84t-128.5 -33zM199 625q-34 0 -57 23t-23 57q0 35 23 57.5t57 22.5q35 0 57.5 -22.5t22.5 -57.5q0 -34 -22.5 -57t-57.5 -23z" />
    <glyph glyph-name="dad_zainar" unicode="&#xfebf;&#xfeb0;" horiz-adv-x="1390" 
d="M368 251q-62 0 -120.5 9t-114.5 25v160q50 -19 109.5 -29.5t125.5 -10.5t124.5 10.5t109.5 30.5v-161q-55 -16 -113.5 -25t-120.5 -9zM715 0q-74 0 -125 27.5t-76.5 81t-25.5 128.5v261h134v-261q0 -33 7 -51t27.5 -25t58.5 -7h618v-154h-618zM1200 0v246q0 59 -20 98.5
t-58 59.5t-90 20q-45 0 -87 -16t-78 -45.5t-62.5 -71.5t-41.5 -94.5t-15 -113.5h-115q0 43 8 96t26.5 108t48.5 106.5t73.5 92t102.5 64.5t135 24q78 0 136 -26t95.5 -72t56 -105t18.5 -125v-246h-133zM0 -129q50 0 78.5 10.5t41 32.5t12.5 56v531h133v-531q0 -75 -29 -129
t-82.5 -84t-128.5 -33zM1026 697q-34 0 -57 23t-23 57q0 35 23 57.5t57 22.5q35 0 57.5 -22.5t22.5 -57.5q0 -34 -22.5 -57t-57.5 -23zM199 625q-34 0 -57 23t-23 57q0 35 23 57.5t57 22.5q35 0 57.5 -22.5t22.5 -57.5q0 -34 -22.5 -57t-57.5 -23z" />
    <glyph glyph-name="dad_zainar.fina" unicode="&#xfec0;&#xfeb0;" horiz-adv-x="1440" 
d="M1440 0v154q10 0 15 -21t5 -55q0 -35 -5 -56.5t-15 -21.5zM715 0q-74 0 -125 27.5t-76.5 81t-25.5 128.5v261h134v-261q0 -33 7 -51t27.5 -25t58.5 -7h618v-154h-618zM368 251q-62 0 -120.5 9t-114.5 25v160q50 -19 109.5 -29.5t125.5 -10.5t124.5 10.5t109.5 30.5v-161
q-55 -16 -113.5 -25t-120.5 -9zM1200 0v246q0 59 -20 98.5t-58 59.5t-90 20q-45 0 -87 -16t-78 -45.5t-62.5 -71.5t-41.5 -94.5t-15 -113.5h-115q0 43 8 96t26.5 108t48.5 106.5t73.5 92t102.5 64.5t135 24q78 0 136 -26t95.5 -72t56 -105t18.5 -125v-246h-133zM1259 0v154
h181v-154h-181zM0 -129q50 0 78.5 10.5t41 32.5t12.5 56v531h133v-531q0 -75 -29 -129t-82.5 -84t-128.5 -33zM1026 697q-34 0 -57 23t-23 57q0 35 23 57.5t57 22.5q35 0 57.5 -22.5t22.5 -57.5q0 -34 -22.5 -57t-57.5 -23zM199 625q-34 0 -57 23t-23 57q0 35 23 57.5
t57 22.5q35 0 57.5 -22.5t22.5 -57.5q0 -34 -22.5 -57t-57.5 -23z" />
    <glyph glyph-name="lam_alefWaslaar" unicode="&#xfedf;&#xfb51;" horiz-adv-x="750" 
d="M540 0v849h134v-849h-134zM76 0v154h598v-154h-598zM218 0v610h133v-610h-133zM404 700v84q0 22 -12.5 32.5t-32.5 10.5q-19 0 -40.5 -12t-37 -34t-15.5 -53h-49q0 24 6.5 55t22.5 59.5t42 47.5t66 19q38 0 62 -17t36 -44t12 -60v-88h-60zM315 700q-47 0 -80.5 13.5
t-59.5 47.5l33 14q-12 -13 -29.5 -32.5t-33.5 -39.5l-40 30q20 46 41 70.5t40 24.5q12 0 20.5 -7t21 -15.5t36 -16t65.5 -7.5h135v-82h-149z" />
    <glyph glyph-name="lam_alefWaslaar.fina" unicode="&#xfee0;&#xfb51;" horiz-adv-x="792" 
d="M218 0v610h133v-610h-133zM76 0v154h363v-154h-363zM792 0v154q10 0 15 -21t5 -55q0 -35 -5 -56.5t-15 -21.5zM404 0q-10 0 -15 21.5t-5 56.5t5 55.5t15 20.5v-154zM404 0v154h39q41 0 61.5 6.5t28 25t7.5 51.5v612h134v-612q0 -77 -26 -129.5t-77 -80t-128 -27.5h-39z
M770 0q-76 0 -127 27t-77 80t-26 130h134q0 -33 7 -51.5t28 -25t61 -6.5h22v-154h-22zM404 700v84q0 22 -12.5 32.5t-32.5 10.5q-19 0 -40.5 -12t-37 -34t-15.5 -53h-49q0 24 6.5 55t22.5 59.5t42 47.5t66 19q38 0 62 -17t36 -44t12 -60v-88h-60zM315 700q-47 0 -80.5 13.5
t-59.5 47.5l33 14q-12 -13 -29.5 -32.5t-33.5 -39.5l-40 30q20 46 41 70.5t40 24.5q12 0 20.5 -7t21 -15.5t36 -16t65.5 -7.5h135v-82h-149z" />
    <glyph glyph-name="alefMaksura_rehar.fina" unicode="&#x649;&#xfeae;" horiz-adv-x="755" 
d="M755 0v154q10 0 15 -21t5 -55q0 -35 -5 -56.5t-15 -21.5zM717 0q-76 0 -127 27t-77 80t-26 130v264h133v-264q0 -33 7.5 -51.5t28.5 -25t61 -6.5h38v-154h-38zM366 251q-61 0 -120 8.5t-114 25.5v160q50 -20 109 -30t125 -10t125 10.5t109 29.5v-160q-54 -17 -113 -25.5
t-121 -8.5zM0 -129q50 0 78.5 10.5t41 32.5t12.5 56v531h133v-531q0 -75 -29 -129t-82.5 -84t-128.5 -33z" />
    <glyph glyph-name="alefMaksura_zainar.fina" unicode="&#x649;&#xfeb0;" horiz-adv-x="755" 
d="M755 0v154q10 0 15 -21t5 -55q0 -35 -5 -56.5t-15 -21.5zM717 0q-76 0 -127 27t-77 80t-26 130v264h133v-264q0 -33 7.5 -51.5t28.5 -25t61 -6.5h38v-154h-38zM366 251q-61 0 -120 8.5t-114 25.5v160q50 -20 109 -30t125 -10t125 10.5t109 29.5v-160q-54 -17 -113 -25.5
t-121 -8.5zM0 -129q50 0 78.5 10.5t41 32.5t12.5 56v531h133v-531q0 -75 -29 -129t-82.5 -84t-128.5 -33zM199 625q-34 0 -57 23t-23 57q0 35 23 57.5t57 22.5q35 0 57.5 -22.5t22.5 -57.5q0 -34 -22.5 -57t-57.5 -23z" />
    <glyph glyph-name="alefMaksura_noonar.fina" unicode="&#x649;&#xfee6;" horiz-adv-x="1236" 
d="M1236 0v154q9 0 14.5 -21t5.5 -55q0 -35 -5.5 -56.5t-14.5 -21.5zM1197 0q-76 0 -127 27t-77 80t-26 130v264h133v-264q0 -33 7.5 -51.5t28.5 -25t61 -6.5h39v-154h-39zM847 251q-62 0 -121 8.5t-114 25.5v160q50 -20 109.5 -30t125.5 -10t124.5 10.5t108.5 29.5v-160
q-54 -17 -112.5 -25.5t-120.5 -8.5zM389 -274q-86 0 -151.5 30t-109.5 83t-66 123.5t-22 152.5q0 41 6 82t15 80l128 -24q-7 -36 -11.5 -70t-4.5 -68q0 -75 24.5 -128t72.5 -80.5t119 -27.5q72 0 121.5 27.5t75.5 81t26 129.5v384h134v-384q0 -83 -23.5 -154t-69 -124
t-111.5 -83t-153 -30zM393 495q-34 0 -57 22.5t-23 57.5t23 57.5t57 22.5q35 0 57.5 -22.5t22.5 -57.5t-22.5 -57.5t-57.5 -22.5z" />
    <glyph glyph-name="uni066E.init" unicode="&#x66e;" horiz-adv-x="347" 
d="M147 501h133v-501h-280v154h147v347zM0 0q-10 0 -15 21t-5 57q0 35 5 55.5t15 20.5v-154z" />
    <glyph glyph-name="uni066E.medi" unicode="&#x66e;" horiz-adv-x="419" 
d="M0 0v154h53q41 0 62 6.5t28 25t7 51.5v264h134v-264q0 -77 -26 -129.5t-77 -80t-128 -27.5h-53zM381 0q-77 0 -128 27t-77 80t-26 130h134q0 -33 7 -51.5t28 -25t62 -6.5h38v-154h-38zM419 0v154q10 0 15 -21t5 -55q0 -35 -5 -56.5t-15 -21.5zM0 0q-10 0 -15 21.5
t-5 56.5t5 55.5t15 20.5v-154z" />
    <glyph glyph-name="uni066E.fina" unicode="&#x66e;" horiz-adv-x="999" 
d="M343 -1q-80 0 -139 22.5t-97 62t-56.5 89.5t-18.5 105q0 51 15 102t45 97l105 -48q-18 -37 -26.5 -70t-8.5 -63q0 -45 20 -77.5t60 -49t99 -16.5l305 1q41 0 61.5 6.5t28 25t7.5 51.5v264h133v-264q0 -77 -26 -129.5t-77 -80t-127 -27.5zM973 0q-76 0 -127 27t-77 80
t-26 130h133q0 -33 7.5 -51.5t28.5 -25t61 -6.5h26v-154h-26zM999 0v154q10 0 15 -21t5 -55q0 -35 -5 -56.5t-15 -21.5z" />
    <glyph glyph-name="uni066F.fina" unicode="&#x66f;" horiz-adv-x="979" 
d="M750 0v154h229v-154h-229zM979 0v154q10 0 15 -21t5 -55q0 -35 -5 -56.5t-15 -21.5zM451 -311q-95 0 -171.5 34.5t-129.5 96t-81.5 142.5t-28.5 174q0 48 7.5 95.5t20.5 90.5l125 -24q-10 -43 -15 -82t-5 -73q0 -96 35.5 -162.5t98 -102t144.5 -35.5t144.5 35t97.5 101
t35 158v350l134 -12v-338q0 -94 -28 -175t-81.5 -142.5t-129.5 -96t-172 -34.5zM656 0q-83 0 -144.5 35t-95.5 94.5t-34 130.5q0 58 21.5 107t59.5 85t88 56.5t107 20.5q56 0 109 -17t95 -37l-56 -137q-84 41 -148 41q-42 0 -74 -16t-50.5 -42.5t-18.5 -58.5q0 -30 17 -54.5
t48.5 -39t75.5 -14.5h153v-154h-153z" />
    <glyph glyph-name="uni06A1.init" unicode="&#x6a1;" horiz-adv-x="653" 
d="M0 0v154h463v321h134v-475h-597zM284 6q-48 17 -86 53t-59.5 86.5t-21.5 110.5q0 80 37 141.5t99.5 96.5t138.5 35q57 0 110 -17t95 -37l-57 -135q-43 20 -81.5 30.5t-71.5 10.5q-44 0 -77 -16.5t-51 -45t-18 -64.5q0 -46 22.5 -84.5t63.5 -59.5zM0 0q-10 0 -15 21.5
t-5 56.5t5 55.5t15 20.5v-154z" />
    <glyph glyph-name="uni06A1.medi" unicode="&#x6a1;" horiz-adv-x="690" 
d="M0 0v154q54 0 102.5 2.5t90.5 6.5q6 1 11 -5.5t10.5 -12.5t10.5 -6q81 12 133.5 33.5t78.5 50t26 62.5q0 30 -15 53.5t-41 37t-61 13.5t-62 -14t-42 -37.5t-15 -51.5q0 -34 27 -63.5t82 -51t140 -33.5q6 -1 11 5.5l10 13t11 5.5q40 -4 85.5 -6t96.5 -2v-154
q-131 0 -240 17.5t-188.5 53t-123.5 91.5t-44 133q0 70 34 122t91 82t126 30q70 0 127 -29.5t91 -82t34 -123.5q0 -69 -34.5 -119.5t-94.5 -84.5t-136.5 -53.5t-161.5 -28t-170 -8.5zM690 0v154q10 0 15 -21t5 -55q0 -35 -5 -56.5t-15 -21.5zM0 0q-10 0 -15 21.5t-5 56.5
t5 55.5t15 20.5v-154z" />
    <glyph glyph-name="uni06A1.fina" unicode="&#x6a1;" horiz-adv-x="1114" 
d="M358 0q-80 0 -139 23t-97 62t-57 89t-19 105q0 51 15.5 102t44.5 97l106 -48q-18 -37 -26.5 -70t-8.5 -63q0 -45 19.5 -77.5t60 -49t99.5 -16.5h68v-154h-66zM1114 0v154q10 0 15 -21t5 -55q0 -35 -5 -56.5t-15 -21.5zM424 0q-10 0 -15 21.5t-5 56.5t5 55.5t15 20.5v-154
zM424 0v154q54 0 102.5 2.5t90.5 6.5q6 1 11 -5.5t10.5 -12.5t10.5 -6q81 12 133.5 33.5t78.5 50t26 62.5q0 30 -15 53.5t-41 37t-61 13.5t-62 -14t-42 -37.5t-15 -51.5q0 -34 27 -63.5t82 -51t140 -33.5q6 -1 11 5.5l10 13t11 5.5q40 -4 85.5 -6t96.5 -2v-154
q-131 0 -240 17.5t-188.5 53t-123.5 91.5t-44 133q0 70 34 122t91 82t126 30q70 0 127 -29.5t91 -82t34 -123.5q0 -69 -34.5 -119.5t-94.5 -84.5t-136.5 -53.5t-161.5 -28t-170 -8.5z" />
    <glyph glyph-name="uni06C2.fina" unicode="&#x6c2;" horiz-adv-x="683" 
d="M329 37q-60 0 -112.5 14.5t-92 43t-62 71.5t-22.5 100q0 65 29.5 114.5t81.5 83.5t122 54t152 26l8 -139q-51 -3 -97.5 -13.5t-83 -27.5t-58 -42t-21.5 -56q0 -30 20 -50t55 -30t80 -10q37 0 68.5 6.5t60.5 17.5l53 -128q-42 -17 -88.5 -26t-92.5 -9zM645 0
q-76 0 -127 27t-77 80t-26 130v336h133v-336q0 -33 7.5 -51.5t28.5 -25t61 -6.5h38v-154h-38zM683 0v154q10 0 15 -21t5 -55q0 -35 -5 -56.5t-15 -21.5zM338 675q-63 0 -102.5 24.5t-39.5 71.5q0 33 19 56.5t49.5 36.5t66.5 13q21 0 41.5 -4.5t39.5 -14.5l-31 -67
q-9 2 -21.5 3t-21.5 1q-33 0 -52 -9t-19 -21t19 -21.5t52 -9.5v-59zM175 652v82h250v-82h-250z" />
    <glyph glyph-name="uni06C3.fina" unicode="&#x6c3;" horiz-adv-x="714" 
d="M714 0q-68 0 -114 17t-78 55.5t-59 103.5q-29 73 -62 105t-79 32q-37 0 -62 -19t-41.5 -50t-28 -68.5t-22.5 -73.5l-128 43q22 77 47 136t57 101t75.5 63.5t102.5 21.5q94 0 157.5 -61.5t107.5 -172.5q13 -34 26.5 -51t36 -22.5t64.5 -5.5v-154zM714 0v154q10 0 15 -21
t5 -55q0 -35 -5 -56.5t-15 -21.5zM400 574q-29 0 -48.5 19t-19.5 49t19.5 49t48.5 19t48.5 -19t19.5 -49t-19.5 -49t-48.5 -19zM244 574q-29 0 -48.5 19t-19.5 49t19.5 49t48.5 19t48.5 -19t19.5 -49t-19.5 -49t-48.5 -19z" />
    <glyph glyph-name="uniFB51" unicode="&#x671;" horiz-adv-x="324" arabic-form="final" 
d="M206 0v154h118v-154h-118zM76 0v727h134v-727h-134zM324 0v154q10 0 15 -21t5 -55q0 -35 -5 -56.5t-15 -21.5zM263 818v84q0 22 -12.5 32.5t-32.5 10.5q-19 0 -40.5 -12t-37 -34t-15.5 -53h-49q0 24 6.5 55t22.5 59.5t42 47.5t66 19q38 0 62 -17t36 -44t12 -60v-88h-60z
M174 818q-47 0 -80.5 13.5t-59.5 47.5l33 14q-12 -13 -29.5 -32.5t-33.5 -39.5l-40 30q20 46 41 70.5t40 24.5q12 0 20.5 -7t21 -15.5t36 -16t65.5 -7.5h135v-82h-149z" />
    <glyph glyph-name="uniFB57" unicode="&#x67e;" horiz-adv-x="999" arabic-form="final" 
d="M343 -1q-80 0 -139 22.5t-97 62t-56.5 89.5t-18.5 105q0 51 15 102t45 97l105 -48q-18 -37 -26.5 -70t-8.5 -63q0 -45 20 -77.5t60 -49t99 -16.5l305 1q41 0 61.5 6.5t28 25t7.5 51.5v264h133v-264q0 -77 -26 -129.5t-77 -80t-127 -27.5zM973 0q-76 0 -127 27t-77 80
t-26 130h133q0 -33 7.5 -51.5t28.5 -25t61 -6.5h26v-154h-26zM999 0v154q10 0 15 -21t5 -55q0 -35 -5 -56.5t-15 -21.5zM454 -378q-28 0 -47.5 19t-19.5 47q0 30 19.5 48.5t47.5 18.5q29 0 47.5 -18.5t18.5 -48.5q0 -28 -18.5 -47t-47.5 -19zM532 -242q-29 0 -48.5 19.5
t-19.5 48.5t19.5 48.5t48.5 19.5t48.5 -19.5t19.5 -48.5t-19.5 -48.5t-48.5 -19.5zM376 -242q-29 0 -48.5 19.5t-19.5 48.5t19.5 48.5t48.5 19.5t48.5 -19.5t19.5 -48.5t-19.5 -48.5t-48.5 -19.5z" />
    <glyph glyph-name="uniFB58" unicode="&#x67e;" horiz-adv-x="347" arabic-form="initial" 
d="M147 501h133v-501h-280v154h147v347zM0 0q-10 0 -15 21t-5 57q0 35 5 55.5t15 20.5v-154zM166 -378q-28 0 -47.5 19t-19.5 47q0 30 19.5 48.5t47.5 18.5q29 0 47.5 -18.5t18.5 -48.5q0 -28 -18.5 -47t-47.5 -19zM244 -242q-29 0 -48.5 19.5t-19.5 48.5t19.5 48.5
t48.5 19.5t48.5 -19.5t19.5 -48.5t-19.5 -48.5t-48.5 -19.5zM88 -242q-29 0 -48.5 19.5t-19.5 48.5t19.5 48.5t48.5 19.5t48.5 -19.5t19.5 -48.5t-19.5 -48.5t-48.5 -19.5z" />
    <glyph glyph-name="uniFB59" unicode="&#x67e;" horiz-adv-x="419" arabic-form="medial" 
d="M0 0v154h53q41 0 62 6.5t28 25t7 51.5v264h134v-264q0 -77 -26 -129.5t-77 -80t-128 -27.5h-53zM381 0q-77 0 -128 27t-77 80t-26 130h134q0 -33 7 -51.5t28 -25t62 -6.5h38v-154h-38zM419 0v154q10 0 15 -21t5 -55q0 -35 -5 -56.5t-15 -21.5zM0 0q-10 0 -15 21.5
t-5 56.5t5 55.5t15 20.5v-154zM212 -378q-28 0 -47.5 19t-19.5 47q0 30 19.5 48.5t47.5 18.5q29 0 47.5 -18.5t18.5 -48.5q0 -28 -18.5 -47t-47.5 -19zM290 -242q-29 0 -48.5 19.5t-19.5 48.5t19.5 48.5t48.5 19.5t48.5 -19.5t19.5 -48.5t-19.5 -48.5t-48.5 -19.5zM134 -242
q-29 0 -48.5 19.5t-19.5 48.5t19.5 48.5t48.5 19.5t48.5 -19.5t19.5 -48.5t-19.5 -48.5t-48.5 -19.5z" />
    <glyph glyph-name="uniFB67" unicode="&#x679;" horiz-adv-x="999" arabic-form="final" 
d="M343 -1q-80 0 -139 22.5t-97 62t-56.5 89.5t-18.5 105q0 51 15 102t45 97l105 -48q-18 -37 -26.5 -70t-8.5 -63q0 -45 20 -77.5t60 -49t99 -16.5l305 1q41 0 61.5 6.5t28 25t7.5 51.5v264h133v-264q0 -77 -26 -129.5t-77 -80t-127 -27.5zM973 0q-76 0 -127 27t-77 80
t-26 130h133q0 -33 7.5 -51.5t28.5 -25t61 -6.5h26v-154h-26zM999 0v154q10 0 15 -21t5 -55q0 -35 -5 -56.5t-15 -21.5zM318 528v76h26v177h76v-87q15 15 34 23t42 8q43 0 68.5 -32.5t25.5 -88.5v-76h-272zM420 604h92q-1 23 -11 37t-28 13q-24 0 -37.5 -14t-15.5 -36z" />
    <glyph glyph-name="uniFB68" unicode="&#x679;" horiz-adv-x="347" arabic-form="initial" 
d="M147 501h133v-501h-280v154h147v347zM0 0q-10 0 -15 21t-5 57q0 35 5 55.5t15 20.5v-154zM78 602v76h26v177h76v-87q15 15 34 23t42 8q43 0 68.5 -32.5t25.5 -88.5v-76h-272zM180 678h92q-1 23 -11 37t-28 13q-24 0 -37.5 -14t-15.5 -36z" />
    <glyph glyph-name="uniFB69" unicode="&#x679;" horiz-adv-x="419" arabic-form="medial" 
d="M0 0v154h53q41 0 62 6.5t28 25t7 51.5v264h134v-264q0 -77 -26 -129.5t-77 -80t-128 -27.5h-53zM381 0q-77 0 -128 27t-77 80t-26 130h134q0 -33 7 -51.5t28 -25t62 -6.5h38v-154h-38zM419 0v154q10 0 15 -21t5 -55q0 -35 -5 -56.5t-15 -21.5zM0 0q-10 0 -15 21.5
t-5 56.5t5 55.5t15 20.5v-154zM76 602v76h26v177h76v-87q15 15 34 23t42 8q43 0 68.5 -32.5t25.5 -88.5v-76h-272zM178 678h92q-1 23 -11 37t-28 13q-24 0 -37.5 -14t-15.5 -36z" />
    <glyph glyph-name="uniFB6B" unicode="&#x6a4;" horiz-adv-x="1114" arabic-form="final" 
d="M358 0q-80 0 -139 23t-97 62t-57 89t-19 105q0 51 15.5 102t44.5 97l106 -48q-18 -37 -26.5 -70t-8.5 -63q0 -45 19.5 -77.5t60 -49t99.5 -16.5h68v-154h-66zM1114 0v154q10 0 15 -21t5 -55q0 -35 -5 -56.5t-15 -21.5zM424 0q-10 0 -15 21.5t-5 56.5t5 55.5t15 20.5v-154
zM424 0v154q54 0 102.5 2.5t90.5 6.5q6 1 11 -5.5t10.5 -12.5t10.5 -6q81 12 133.5 33.5t78.5 50t26 62.5q0 30 -15 53.5t-41 37t-61 13.5t-62 -14t-42 -37.5t-15 -51.5q0 -34 27 -63.5t82 -51t140 -33.5q6 -1 11 5.5l10 13t11 5.5q40 -4 85.5 -6t96.5 -2v-154
q-131 0 -240 17.5t-188.5 53t-123.5 91.5t-44 133q0 70 34 122t91 82t126 30q70 0 127 -29.5t91 -82t34 -123.5q0 -69 -34.5 -119.5t-94.5 -84.5t-136.5 -53.5t-161.5 -28t-170 -8.5zM769 909q29 0 47.5 -19t18.5 -48t-18.5 -47.5t-47.5 -18.5q-28 0 -47.5 18.5t-19.5 47.5
t19.5 48t47.5 19zM847 772q29 0 48.5 -19t19.5 -48q0 -30 -19.5 -49t-48.5 -19t-48.5 19t-19.5 49q0 29 19.5 48t48.5 19zM691 772q29 0 48.5 -19t19.5 -48q0 -30 -19.5 -49t-48.5 -19t-48.5 19t-19.5 49q0 29 19.5 48t48.5 19z" />
    <glyph glyph-name="uniFB6C" unicode="&#x6a4;" horiz-adv-x="653" arabic-form="initial" 
d="M0 0v154h463v321h134v-475h-597zM284 6q-48 17 -86 53t-59.5 86.5t-21.5 110.5q0 80 37 141.5t99.5 96.5t138.5 35q57 0 110 -17t95 -37l-57 -135q-43 20 -81.5 30.5t-71.5 10.5q-44 0 -77 -16.5t-51 -45t-18 -64.5q0 -46 22.5 -84.5t63.5 -59.5zM0 0q-10 0 -15 21.5
t-5 56.5t5 55.5t15 20.5v-154zM393 909q29 0 47.5 -19t18.5 -48t-18.5 -47.5t-47.5 -18.5q-28 0 -47.5 18.5t-19.5 47.5t19.5 48t47.5 19zM471 772q29 0 48.5 -19t19.5 -48q0 -30 -19.5 -49t-48.5 -19t-48.5 19t-19.5 49q0 29 19.5 48t48.5 19zM315 772q29 0 48.5 -19
t19.5 -48q0 -30 -19.5 -49t-48.5 -19t-48.5 19t-19.5 49q0 29 19.5 48t48.5 19z" />
    <glyph glyph-name="uniFB6D" unicode="&#x6a4;" horiz-adv-x="690" arabic-form="medial" 
d="M0 0v154q54 0 102.5 2.5t90.5 6.5q6 1 11 -5.5t10.5 -12.5t10.5 -6q81 12 133.5 33.5t78.5 50t26 62.5q0 30 -15 53.5t-41 37t-61 13.5t-62 -14t-42 -37.5t-15 -51.5q0 -34 27 -63.5t82 -51t140 -33.5q6 -1 11 5.5l10 13t11 5.5q40 -4 85.5 -6t96.5 -2v-154
q-131 0 -240 17.5t-188.5 53t-123.5 91.5t-44 133q0 70 34 122t91 82t126 30q70 0 127 -29.5t91 -82t34 -123.5q0 -69 -34.5 -119.5t-94.5 -84.5t-136.5 -53.5t-161.5 -28t-170 -8.5zM690 0v154q10 0 15 -21t5 -55q0 -35 -5 -56.5t-15 -21.5zM0 0q-10 0 -15 21.5t-5 56.5
t5 55.5t15 20.5v-154zM345 909q29 0 47.5 -19t18.5 -48t-18.5 -47.5t-47.5 -18.5q-28 0 -47.5 18.5t-19.5 47.5t19.5 48t47.5 19zM423 772q29 0 48.5 -19t19.5 -48q0 -30 -19.5 -49t-48.5 -19t-48.5 19t-19.5 49q0 29 19.5 48t48.5 19zM267 772q29 0 48.5 -19t19.5 -48
q0 -30 -19.5 -49t-48.5 -19t-48.5 19t-19.5 49q0 29 19.5 48t48.5 19z" />
    <glyph glyph-name="uniFB7B" unicode="&#x686;" horiz-adv-x="782" arabic-form="final" 
d="M647 0v154h135v-154h-135zM782 0v154q10 0 15 -21t5 -55q0 -35 -5 -56.5t-15 -21.5zM554 -293q-22 0 -37 15t-15 37q0 23 15 37.5t37 14.5t37 -14.5t15 -37.5q0 -22 -15 -37t-37 -15zM615 -185q-23 0 -38 14.5t-15 37.5q0 24 15 38.5t38 14.5t38 -14.5t15 -38.5
q0 -23 -15 -37.5t-38 -14.5zM493 -185q-23 0 -38 14.5t-15 37.5q0 24 15 38.5t38 14.5q22 0 37.5 -14.5t15.5 -38.5q0 -23 -15.5 -37.5t-37.5 -14.5zM508 60v205q0 40 -22 70t-63.5 47.5t-99.5 17.5q-45 0 -88 -10t-76 -25l-56 126q50 31 106.5 47t114.5 16q66 0 123.5 -20
t101 -58t68 -91t24.5 -120v-205h-133zM338 -379q-55 0 -108 16.5t-96 49t-68 79.5t-25 109q0 52 21 102t63 89.5t104.5 63.5t146.5 24v-154q-62 0 -107.5 -17.5t-70 -45t-24.5 -59.5q0 -29 20 -52t57.5 -36.5t90.5 -13.5q20 0 41.5 2.5t40.5 8.5l40 -141q-30 -12 -62 -18.5
t-64 -6.5zM376 0v154h306l-27 -154h-279z" />
    <glyph glyph-name="uniFB7C" unicode="&#x686;" horiz-adv-x="662" arabic-form="initial" 
d="M442 60v205q0 40 -22 70t-63.5 47.5t-99.5 17.5q-44 0 -87.5 -10t-76.5 -25l-56 126q50 31 106.5 47t114.5 16q66 0 123.5 -20t101 -58t68 -91t24.5 -120v-205h-133zM0 0v154h616l-27 -154h-589zM0 0q-10 0 -15 21.5t-5 56.5t5 55.5t15 20.5v-154zM284 -378
q-28 0 -47.5 19t-19.5 47q0 30 19.5 48.5t47.5 18.5q29 0 47.5 -18.5t18.5 -48.5q0 -28 -18.5 -47t-47.5 -19zM362 -242q-29 0 -48.5 19.5t-19.5 48.5t19.5 48.5t48.5 19.5t48.5 -19.5t19.5 -48.5t-19.5 -48.5t-48.5 -19.5zM206 -242q-29 0 -48.5 19.5t-19.5 48.5t19.5 48.5
t48.5 19.5t48.5 -19.5t19.5 -48.5t-19.5 -48.5t-48.5 -19.5z" />
    <glyph glyph-name="uniFB7D" unicode="&#x686;" horiz-adv-x="693" arabic-form="medial" 
d="M552 0v154h141v-154h-141zM0 0q-10 0 -15 21.5t-5 56.5t5 55.5t15 20.5v-154zM442 60v205q0 40 -22 70t-63.5 47.5t-99.5 17.5q-44 0 -87.5 -10t-76.5 -25l-56 126q50 31 106.5 47t114.5 16q66 0 123.5 -20t101 -58t68 -91t24.5 -120v-205h-133zM0 0v154h616l-27 -154
h-589zM693 0v154q10 0 15 -21t5 -55q0 -35 -5 -56.5t-15 -21.5zM284 -378q-28 0 -47.5 19t-19.5 47q0 30 19.5 48.5t47.5 18.5q29 0 47.5 -18.5t18.5 -48.5q0 -28 -18.5 -47t-47.5 -19zM362 -242q-29 0 -48.5 19.5t-19.5 48.5t19.5 48.5t48.5 19.5t48.5 -19.5t19.5 -48.5
t-19.5 -48.5t-48.5 -19.5zM206 -242q-29 0 -48.5 19.5t-19.5 48.5t19.5 48.5t48.5 19.5t48.5 -19.5t19.5 -48.5t-19.5 -48.5t-48.5 -19.5z" />
    <glyph glyph-name="uniFB89" unicode="&#x688;" horiz-adv-x="632" arabic-form="final" 
d="M440 0v154h192v-154h-192zM632 0v154q10 0 15 -21t5 -55q0 -35 -5 -56.5t-15 -21.5zM421 0q-1 107 -37.5 190t-104.5 138.5t-164 78.5l29 146q126 -29 217 -106t141.5 -191t51.5 -256h-133zM36 0v154h478v-154h-478zM100 654v76h26v177h76v-87q15 15 34 23t42 8
q43 0 68.5 -32.5t25.5 -88.5v-76h-272zM202 730h92q-1 23 -11 37t-28 13q-24 0 -37.5 -14t-15.5 -36z" />
    <glyph glyph-name="uniFB8B" unicode="&#x698;" horiz-adv-x="383" arabic-form="final" 
d="M232 0v154h151v-154h-151zM0 -129q50 0 78.5 10.5t41 32.5t12.5 56v531h133v-531q0 -75 -29 -129t-82.5 -84t-128.5 -33zM383 0v154q10 0 15 -21t5 -55q0 -35 -5 -56.5t-15 -21.5zM199 881q29 0 47.5 -19t18.5 -48t-18.5 -47.5t-47.5 -18.5q-28 0 -47.5 18.5t-19.5 47.5
t19.5 48t47.5 19zM277 744q29 0 48.5 -19t19.5 -48q0 -30 -19.5 -49t-48.5 -19t-48.5 19t-19.5 49q0 29 19.5 48t48.5 19zM121 744q29 0 48.5 -19t19.5 -48q0 -30 -19.5 -49t-48.5 -19t-48.5 19t-19.5 49q0 29 19.5 48t48.5 19z" />
    <glyph glyph-name="uniFB8D" unicode="&#x691;" horiz-adv-x="383" arabic-form="final" 
d="M232 0v154h151v-154h-151zM0 -129q50 0 78.5 10.5t41 32.5t12.5 56v531h133v-531q0 -75 -29 -129t-82.5 -84t-128.5 -33zM383 0v154q10 0 15 -21t5 -55q0 -35 -5 -56.5t-15 -21.5zM63 602v76h26v177h76v-87q15 15 34 23t42 8q43 0 68.5 -32.5t25.5 -88.5v-76h-272z
M165 678h92q-1 23 -11 37t-28 13q-24 0 -37.5 -14t-15.5 -36z" />
    <glyph glyph-name="uniFB8F" unicode="&#x6a9;" horiz-adv-x="1017" arabic-form="final" 
d="M544 154v-154h-192q-80 0 -139 23t-97.5 62t-57 89t-18.5 105q0 51 15 102t45 97l106 -48q-18 -37 -27 -70t-9 -63q0 -45 20 -77.5t60 -49t100 -16.5h194zM430 0q-10 0 -15 21.5t-5 56.5t5 55.5t15 20.5v-154zM430 0v154h174q46 0 78.5 10.5t49 28.5t16.5 40
q0 14 -7.5 29.5t-31 38t-68.5 58t-120 89.5l-60 45l84 120l70 -52q70 -51 120.5 -91.5t83 -77.5t48 -75t15.5 -84q0 -72 -36 -124.5t-99 -80.5t-143 -28h-174zM461 493v144l468 216v-166zM1017 0v154q10 0 15 -21t5 -55q0 -35 -5 -56.5t-15 -21.5zM979 0q-77 0 -128 27
t-77 80t-26 130v4l134 -7v-2q1 -31 8.5 -48.5t28.5 -23.5t60 -6h38v-154h-38z" />
    <glyph glyph-name="uniFB90" unicode="&#x6a9;" horiz-adv-x="556" arabic-form="initial" 
d="M0 0v154h174q47 0 79 10.5t49 28.5t17 40q0 14 -8 29.5t-31.5 38t-68.5 58t-120 89.5l-60 45l84 120l70 -52q70 -51 120.5 -91.5t83 -77.5t48 -75t15.5 -84q0 -72 -36 -124.5t-99 -80.5t-143 -28h-174zM31 493v144l469 216v-166zM0 0q-10 0 -15 21.5t-5 56.5t5 55.5
t15 20.5v-154z" />
    <glyph glyph-name="uniFB91" unicode="&#x6a9;" horiz-adv-x="587" arabic-form="medial" 
d="M549 0q-76 0 -127 27t-77 80t-26 130v4l133 -7v-2q1 -31 8.5 -48.5t28.5 -23.5t60 -6h38v-154h-38zM0 0q-10 0 -15 21.5t-5 56.5t5 55.5t15 20.5v-154zM0 0v154h174q47 0 79 10.5t49 28.5t17 40q0 14 -8 29.5t-31.5 38t-68.5 58t-120 89.5l-60 45l84 120l70 -52
q70 -51 120.5 -91.5t83 -77.5t48 -75t15.5 -84q0 -72 -36 -124.5t-99 -80.5t-143 -28h-174zM31 493v144l469 216v-166zM587 0v154q10 0 15 -21t5 -55q0 -35 -5 -56.5t-15 -21.5z" />
    <glyph glyph-name="uniFB93" unicode="&#x6af;" horiz-adv-x="1017" arabic-form="final" 
d="M544 154v-154h-192q-80 0 -139 23t-97.5 62t-57 89t-18.5 105q0 51 15 102t45 97l106 -48q-18 -37 -27 -70t-9 -63q0 -45 20 -77.5t60 -49t100 -16.5h194zM430 0q-10 0 -15 21.5t-5 56.5t5 55.5t15 20.5v-154zM430 0v154h174q46 0 78.5 10.5t49 28.5t16.5 40
q0 14 -7.5 29.5t-31 38t-68.5 58t-120 89.5l-60 45l84 120l70 -52q70 -51 120.5 -91.5t83 -77.5t48 -75t15.5 -84q0 -72 -36 -124.5t-99 -80.5t-143 -28h-174zM461 493v144l468 216v-166zM649 815l-187 -6l280 173l187 5zM1017 0v154q10 0 15 -21t5 -55q0 -35 -5 -56.5
t-15 -21.5zM979 0q-77 0 -128 27t-77 80t-26 130v4l134 -7v-2q1 -31 8.5 -48.5t28.5 -23.5t60 -6h38v-154h-38z" />
    <glyph glyph-name="uniFB94" unicode="&#x6af;" horiz-adv-x="537" arabic-form="initial" 
d="M219 815l-187 -6l280 173l188 5zM0 0q-10 0 -15 21.5t-5 56.5t5 55.5t15 20.5v-154zM0 0v154h174q47 0 79 10.5t49 28.5t17 40q0 14 -8 29.5t-31.5 38t-68.5 58t-120 89.5l-60 45l84 120l70 -52q70 -51 120.5 -91.5t83 -77.5t48 -75t15.5 -84q0 -72 -36 -124.5t-99 -80.5
t-143 -28h-174zM31 493v144l469 216v-166z" />
    <glyph glyph-name="uniFB95" unicode="&#x6af;" horiz-adv-x="587" arabic-form="medial" 
d="M549 0q-76 0 -127 27t-77 80t-26 130v4l133 -7v-2q1 -31 8.5 -48.5t28.5 -23.5t60 -6h38v-154h-38zM0 0q-10 0 -15 21.5t-5 56.5t5 55.5t15 20.5v-154zM0 0v154h174q47 0 79 10.5t49 28.5t17 40q0 14 -8 29.5t-31.5 38t-68.5 58t-120 89.5l-60 45l84 120l70 -52
q70 -51 120.5 -91.5t83 -77.5t48 -75t15.5 -84q0 -72 -36 -124.5t-99 -80.5t-143 -28h-174zM31 493v144l469 216v-166zM219 815l-187 -6l280 173l188 5zM587 0v154q10 0 15 -21t5 -55q0 -35 -5 -56.5t-15 -21.5z" />
    <glyph glyph-name="uniFB9F" unicode="&#x6ba;" horiz-adv-x="879" arabic-form="final" 
d="M841 0q-99 0 -156 46t-70 133l130 39q2 -38 21.5 -51t74.5 -13h38v-154h-38zM389 -274q-86 0 -151.5 30t-109.5 83t-66 123.5t-22 152.5q0 41 6 82t15 80l128 -24q-7 -36 -11.5 -70t-4.5 -68q0 -75 24.5 -128t72.5 -80.5t119 -27.5q72 0 121.5 27.5t75.5 81t26 129.5v384
h134v-384q0 -83 -23.5 -154t-69 -124t-111.5 -83t-153 -30zM879 0v154q10 0 15 -21t5 -55q0 -35 -5 -56.5t-15 -21.5z" />
    <glyph glyph-name="uniFBA7" unicode="&#x6c1;" horiz-adv-x="714" arabic-form="final" 
d="M714 0q-68 0 -114 17t-78 55.5t-59 103.5q-29 73 -62 105t-79 32q-37 0 -62 -19t-41.5 -50t-28 -68.5t-22.5 -73.5l-128 43q22 77 47 136t57 101t75.5 63.5t102.5 21.5q94 0 157.5 -61.5t107.5 -172.5q13 -34 26.5 -51t36 -22.5t64.5 -5.5v-154zM714 0v154q10 0 15 -21
t5 -55q0 -35 -5 -56.5t-15 -21.5z" />
    <glyph glyph-name="uniFBA8" unicode="&#x6c1;" horiz-adv-x="347" arabic-form="initial" 
d="M147 501h133v-501h-280v154h147v347zM0 0q-10 0 -15 21.5t-5 56.5t5 55.5t15 20.5v-154zM144 -93q50 1 72.5 -21.5t22.5 -53.5q0 -33 -21.5 -54t-55.5 -21q-29 0 -52 19.5t-23 55.5q0 17 6.5 32t14.5 28l71 126h74l-69 -181z" />
    <glyph glyph-name="uniFBA9" unicode="&#x6c1;" horiz-adv-x="576" arabic-form="medial" 
d="M576 154v-154h-25q-34 0 -57 -25t-37.5 -66t-24 -91t-18.5 -101l-101 -41q-96 45 -163 126.5t-88 197.5h-62v154h180q0 -70 7 -123.5t25 -96t50.5 -78t82.5 -68.5l-31 5q8 79 25 145t45 114t69 75t98 27h25zM576 0v154q9 0 14.5 -21t5.5 -55q0 -35 -5.5 -56.5
t-14.5 -21.5zM0 0q-10 0 -15 21.5t-5 56.5t5 55.5t15 20.5v-154z" />
    <glyph glyph-name="uniFBAB" unicode="&#x6be;" horiz-adv-x="1077" arabic-form="final" 
d="M1039 0q-63 0 -105 27t-63 80t-21 130l93 1q2 -36 11 -54t29.5 -24t55.5 -6h38v-154h-38zM47 -133q-1 11 -3.5 35.5t-1 57.5t10 66.5t28.5 62.5t55.5 47t90.5 18v-154q-48 1 -73 -14t-35 -44.5t-11 -74.5h-61zM667 -2q-73 0 -146 22.5t-132.5 65t-95.5 103t-36 136.5
q0 65 27 119.5t73.5 87.5t105.5 33q45 0 83.5 -19.5t67.5 -52t45.5 -74.5t16.5 -88q0 -65 -28.5 -124.5t-84.5 -106t-140 -73.5t-196 -27v154q105 1 178 27t111 67t38 85q0 25 -12 45.5t-32.5 33t-45.5 12.5q-24 0 -43.5 -12t-31.5 -32.5t-12 -45.5q0 -39 26 -75t70 -64.5
t97.5 -44.5t109.5 -16q41 0 70 10t44.5 30.5t15.5 53.5q0 57 -55.5 104.5t-176.5 85t-318 66.5l20 152q149 -21 271.5 -52.5t210 -78t134.5 -112.5t47 -156q0 -64 -22 -109.5t-61.5 -74t-89 -42t-103.5 -13.5zM1077 0v154q10 0 15 -21t5 -55q0 -35 -5 -56.5t-15 -21.5z" />
    <glyph glyph-name="uniFBAC" unicode="&#x6be;" horiz-adv-x="793" arabic-form="initial" 
d="M470 -2q-73 0 -146 22.5t-133 65t-96 103t-36 136.5q0 65 27 119.5t74 87.5t106 33q45 0 83.5 -19.5t67.5 -52t45 -74.5t16 -88q0 -65 -32.5 -124.5t-94.5 -106t-150.5 -73.5t-200.5 -27v154q78 0 143.5 15.5t113.5 41t74 57.5t26 65q0 25 -12 45.5t-32.5 33t-45.5 12.5
q-24 0 -44 -12t-31.5 -32.5t-11.5 -45.5q0 -39 26 -75t69.5 -64.5t97.5 -44.5t110 -16q40 0 69 10t45 30.5t16 53.5q0 53 -44.5 91t-139 67t-245.5 56q-6 -6 -12.5 -6.5t-13.5 1.5t-14 3q-29 5 -60 9.5t-65 10.5l17 144q158 -22 288 -47.5t225 -64t146 -100.5t51 -155
q0 -64 -22.5 -109.5t-61.5 -74t-88.5 -42t-103.5 -13.5zM0 0q-10 0 -15 21.5t-5 56.5t5 55.5t15 20.5v-154z" />
    <glyph glyph-name="uniFBAD" unicode="&#x6be;" horiz-adv-x="880" arabic-form="medial" 
d="M842 0q-63 0 -105.5 27t-63.5 80t-21 130l94 1q2 -36 11 -54t29.5 -24t55.5 -6h38v-154h-38zM0 0q-10 0 -15 21.5t-5 56.5t5 55.5t15 20.5v-154zM470 -2q-73 0 -146 22.5t-133 65t-96 103t-36 136.5q0 65 27 119.5t74 87.5t106 33q45 0 83.5 -19.5t67.5 -52t45 -74.5
t16 -88q0 -65 -32.5 -124.5t-94.5 -106t-150.5 -73.5t-200.5 -27v154q78 0 143.5 15.5t113.5 41t74 57.5t26 65q0 25 -12 45.5t-32.5 33t-45.5 12.5q-24 0 -44 -12t-31.5 -32.5t-11.5 -45.5q0 -39 26 -75t69.5 -64.5t97.5 -44.5t110 -16q40 0 69 10t45 30.5t16 53.5
q0 53 -44.5 91t-139 67t-245.5 56q-6 -6 -12.5 -6.5t-13.5 1.5t-14 3q-29 5 -60 9.5t-65 10.5l17 144q158 -22 288 -47.5t225 -64t146 -100.5t51 -155q0 -64 -22.5 -109.5t-61.5 -74t-88.5 -42t-103.5 -13.5zM880 0v154q10 0 15 -21t5 -55q0 -35 -5 -56.5t-15 -21.5z" />
    <glyph glyph-name="uniFBAF" unicode="&#x6d2;" horiz-adv-x="1108" arabic-form="final" 
d="M740 -225l29 -152q-31 -2 -60.5 -3t-57.5 -1q-85 0 -169.5 8t-160 26t-134.5 48.5t-93 76.5t-34 108q0 63 35.5 109t96.5 76.5t139.5 49t166.5 26t176 7.5h434v-154h-434q-97 0 -184.5 -10.5t-153.5 -27t-104 -36.5t-38 -40q0 -19 36.5 -39t100 -36.5t146.5 -27
t174 -10.5q22 0 44 0.5t45 1.5zM1108 0v154q10 0 15 -21t5 -55q0 -35 -5 -56.5t-15 -21.5z" />
    <glyph glyph-name="uniFBB1" unicode="&#x6d3;" horiz-adv-x="1108" arabic-form="final" 
d="M740 -225l29 -152q-31 -2 -60.5 -3t-57.5 -1q-85 0 -169.5 8t-160 26t-134.5 48.5t-93 76.5t-34 108q0 63 35.5 109t96.5 76.5t139.5 49t166.5 26t176 7.5h434v-154h-434q-97 0 -184.5 -10.5t-153.5 -27t-104 -36.5t-38 -40q0 -19 36.5 -39t100 -36.5t146.5 -27
t174 -10.5q22 0 44 0.5t45 1.5zM1108 0v154q10 0 15 -21t5 -55q0 -35 -5 -56.5t-15 -21.5zM230 264q-63 0 -102.5 24.5t-39.5 71.5q0 33 19 56.5t49.5 36.5t66.5 13q21 0 41.5 -4.5t39.5 -14.5l-31 -67q-9 2 -21.5 3t-21.5 1q-33 0 -52 -9t-19 -21t19 -21.5t52 -9.5v-59z
M67 241v82h250v-82h-250z" />
    <glyph glyph-name="uniFBFD" unicode="&#x6cc;" horiz-adv-x="891" arabic-form="final" 
d="M473 -335q-138 0 -235.5 43.5t-149.5 127t-52 203.5q0 33 4 67.5t12 71.5l123 -24q-5 -36 -7.5 -62t-2.5 -47q0 -116 74.5 -171.5t229.5 -55.5q92 0 155 16.5t96 43t33 55.5q0 20 -15 34t-47.5 28.5t-82.5 33.5l39 133q40 -15 82.5 -33.5t78 -45t57.5 -63t22 -87.5
q0 -45 -18.5 -85t-53.5 -73.5t-85.5 -58t-115 -38t-141.5 -13.5zM764 0q-150 0 -227 75l93 109q8 -7 27.5 -14t47.5 -11.5t59 -4.5h127v-154h-127zM891 0v154q10 0 15 -21t5 -55q0 -35 -5 -56.5t-15 -21.5z" />
    <glyph glyph-name="uniFBFE" unicode="&#x6cc;" horiz-adv-x="347" arabic-form="initial" 
d="M147 501h133v-501h-280v154h147v347zM0 0q-10 0 -15 21t-5 57q0 35 5 55.5t15 20.5v-154zM244 -242q-29 0 -48.5 19t-19.5 48q0 30 19.5 49t48.5 19t48.5 -19t19.5 -49q0 -29 -19.5 -48t-48.5 -19zM88 -242q-29 0 -48.5 19t-19.5 48q0 30 19.5 49t48.5 19t48.5 -19
t19.5 -49q0 -29 -19.5 -48t-48.5 -19z" />
    <glyph glyph-name="uniFBFF" unicode="&#x6cc;" horiz-adv-x="419" arabic-form="medial" 
d="M0 0v154h53q41 0 62 6.5t28 25t7 51.5v264h134v-264q0 -77 -26 -129.5t-77 -80t-128 -27.5h-53zM381 0q-77 0 -128 27t-77 80t-26 130h134q0 -33 7 -51.5t28 -25t62 -6.5h38v-154h-38zM419 0v154q10 0 15 -21t5 -55q0 -35 -5 -56.5t-15 -21.5zM0 0q-10 0 -15 21.5
t-5 56.5t5 55.5t15 20.5v-154zM290 -242q-29 0 -48.5 19t-19.5 48q0 30 19.5 49t48.5 19t48.5 -19t19.5 -49q0 -29 -19.5 -48t-48.5 -19zM134 -242q-29 0 -48.5 19t-19.5 48q0 30 19.5 49t48.5 19t48.5 -19t19.5 -49q0 -29 -19.5 -48t-48.5 -19z" />
    <glyph glyph-name="uniFE82" unicode="&#x622;" horiz-adv-x="324" arabic-form="final" 
d="M206 0v154h118v-154h-118zM76 0v727h134v-727h-134zM324 0v154q10 0 15 -21t5 -55q0 -35 -5 -56.5t-15 -21.5zM-24 814q0 62 30 95t93 33q26 0 65.5 -4t79.5 -7.5t67 -2.5v-86q-26 -2 -65 1t-77.5 7t-64.5 4q-29 0 -39 -8.5t-10 -31.5h-79z" />
    <glyph glyph-name="uniFE84" unicode="&#x623;" horiz-adv-x="324" arabic-form="final" 
d="M206 0v154h118v-154h-118zM76 0v727h134v-727h-134zM324 0v154q10 0 15 -21t5 -55q0 -35 -5 -56.5t-15 -21.5zM182 838q-63 0 -102.5 24.5t-39.5 71.5q0 33 19 56.5t49.5 36.5t66.5 13q21 0 41.5 -4.5t39.5 -14.5l-31 -67q-9 2 -21.5 3t-21.5 1q-33 0 -52 -9t-19 -21
t19 -21.5t52 -9.5v-59zM19 815v82h250v-82h-250z" />
    <glyph glyph-name="uniFE86" unicode="&#x624;" horiz-adv-x="637" arabic-form="final" 
d="M489 0v154h148v-154h-148zM637 0v154q10 0 15 -21t5 -55q0 -35 -5 -56.5t-15 -21.5zM82 -277v154h185q66 0 92.5 23t26.5 70v505h134v-505q0 -78 -31 -133.5t-88 -84.5t-134 -29h-185zM314 0q-83 0 -144.5 35t-95.5 94.5t-34 130.5q0 58 21 107t59.5 85t88.5 56.5
t107 20.5q56 0 109 -17t95 -37l-56 -137q-83 45 -148 45q-42 0 -74 -17t-50.5 -44.5t-18.5 -61.5q0 -31 17 -57.5t48.5 -41.5t75.5 -15h153v-146h-153zM326 673q-63 0 -102.5 24.5t-39.5 71.5q0 33 19 56.5t49.5 36.5t66.5 13q21 0 41.5 -4.5t39.5 -14.5l-31 -67
q-9 2 -21.5 3t-21.5 1q-33 0 -52 -9t-19 -21t19 -21.5t52 -9.5v-59zM163 650v82h250v-82h-250z" />
    <glyph glyph-name="uniFE88" unicode="&#x625;" horiz-adv-x="324" arabic-form="final" 
d="M206 0v154h118v-154h-118zM76 0v849h134v-849h-134zM324 0v154q10 0 15 -21t5 -55q0 -35 -5 -56.5t-15 -21.5zM182 -286q-63 0 -102.5 24.5t-39.5 71.5q0 33 19 56.5t49.5 36.5t66.5 13q21 0 41.5 -4.5t39.5 -14.5l-31 -67q-9 2 -21.5 3t-21.5 1q-33 0 -52 -9t-19 -21
t19 -21.5t52 -9.5v-59zM19 -309v82h250v-82h-250z" />
    <glyph glyph-name="uniFE8A" unicode="&#x626;" horiz-adv-x="875" arabic-form="final" 
d="M473 -335q-138 0 -235.5 43.5t-149.5 127t-52 203.5q0 33 4 67.5t12 71.5l123 -24q-5 -36 -7.5 -62t-2.5 -47q0 -116 74.5 -171.5t229.5 -55.5q92 0 155 16.5t96 43t33 55.5q0 20 -15 34t-47.5 28.5t-82.5 33.5l39 133q40 -15 82.5 -33.5t78 -45t57.5 -63t22 -87.5
q0 -45 -18.5 -85t-53.5 -73.5t-85.5 -58t-115 -38t-141.5 -13.5zM764 0q-150 0 -227 75l93 109q8 -7 27.5 -14t47.5 -11.5t59 -4.5h127v-154h-127zM891 0v154q10 0 15 -21t5 -55q0 -35 -5 -56.5t-15 -21.5zM172 279q-63 0 -102.5 24.5t-39.5 71.5q0 33 19 56.5t49.5 36.5
t66.5 13q21 0 41.5 -4.5t39.5 -14.5l-31 -67q-9 2 -21.5 3t-21.5 1q-33 0 -52 -9t-19 -21t19 -21.5t52 -9.5v-59zM9 256v82h250v-82h-250z" />
    <glyph glyph-name="uniFE8B" unicode="&#x626;" horiz-adv-x="347" arabic-form="initial" 
d="M147 501h133v-501h-280v154h147v347zM0 0q-10 0 -15 21t-5 57q0 35 5 55.5t15 20.5v-154zM252 645q-63 0 -102.5 24.5t-39.5 71.5q0 33 19 56.5t49.5 36.5t66.5 13q21 0 41.5 -4.5t39.5 -14.5l-31 -67q-9 2 -21.5 3t-21.5 1q-33 0 -52 -9t-19 -21t19 -21.5t52 -9.5v-59z
M89 622v82h250v-82h-250z" />
    <glyph glyph-name="uniFE8C" unicode="&#x626;" horiz-adv-x="419" arabic-form="medial" 
d="M0 0v154h53q41 0 62 6.5t28 25t7 51.5v264h134v-264q0 -77 -26 -129.5t-77 -80t-128 -27.5h-53zM381 0q-77 0 -128 27t-77 80t-26 130h134q0 -33 7 -51.5t28 -25t62 -6.5h38v-154h-38zM419 0v154q10 0 15 -21t5 -55q0 -35 -5 -56.5t-15 -21.5zM0 0q-10 0 -15 21.5
t-5 56.5t5 55.5t15 20.5v-154zM250 645q-63 0 -102.5 24.5t-39.5 71.5q0 33 19 56.5t49.5 36.5t66.5 13q21 0 41.5 -4.5t39.5 -14.5l-31 -67q-9 2 -21.5 3t-21.5 1q-33 0 -52 -9t-19 -21t19 -21.5t52 -9.5v-59zM87 622v82h250v-82h-250z" />
    <glyph glyph-name="uniFE8E" unicode="&#x627;" horiz-adv-x="324" arabic-form="final" 
d="M206 0v154h118v-154h-118zM76 0v849h134v-849h-134zM324 0v154q10 0 15 -21t5 -55q0 -35 -5 -56.5t-15 -21.5z" />
    <glyph glyph-name="uniFE90" unicode="&#x628;" horiz-adv-x="999" arabic-form="final" 
d="M343 -1q-80 0 -139 22.5t-97 62t-56.5 89.5t-18.5 105q0 51 15 102t45 97l105 -48q-18 -37 -26.5 -70t-8.5 -63q0 -45 20 -77.5t60 -49t99 -16.5l305 1q41 0 61.5 6.5t28 25t7.5 51.5v264h133v-264q0 -77 -26 -129.5t-77 -80t-127 -27.5zM973 0q-76 0 -127 27t-77 80
t-26 130h133q0 -33 7.5 -51.5t28.5 -25t61 -6.5h26v-154h-26zM999 0v154q10 0 15 -21t5 -55q0 -35 -5 -56.5t-15 -21.5zM454 -283q-34 0 -57 23t-23 57q0 35 23 57.5t57 22.5q35 0 57.5 -22.5t22.5 -57.5q0 -34 -22.5 -57t-57.5 -23z" />
    <glyph glyph-name="uniFE91" unicode="&#x628;" horiz-adv-x="347" arabic-form="initial" 
d="M147 501h133v-501h-280v154h147v347zM0 0q-10 0 -15 21t-5 57q0 35 5 55.5t15 20.5v-154zM165 -283q-34 0 -57 23t-23 57q0 35 23 57.5t57 22.5q35 0 57.5 -22.5t22.5 -57.5q0 -34 -22.5 -57t-57.5 -23z" />
    <glyph glyph-name="uniFE92" unicode="&#x628;" horiz-adv-x="419" arabic-form="medial" 
d="M0 0v154h53q41 0 62 6.5t28 25t7 51.5v264h134v-264q0 -77 -26 -129.5t-77 -80t-128 -27.5h-53zM381 0q-77 0 -128 27t-77 80t-26 130h134q0 -33 7 -51.5t28 -25t62 -6.5h38v-154h-38zM419 0v154q10 0 15 -21t5 -55q0 -35 -5 -56.5t-15 -21.5zM0 0q-10 0 -15 21.5
t-5 56.5t5 55.5t15 20.5v-154zM212 -283q-34 0 -57 23t-23 57q0 35 23 57.5t57 22.5q35 0 57.5 -22.5t22.5 -57.5q0 -34 -22.5 -57t-57.5 -23z" />
    <glyph glyph-name="uniFE94" unicode="&#x629;" horiz-adv-x="683" arabic-form="final" 
d="M329 37q-60 0 -112.5 14.5t-92 43t-62 71.5t-22.5 100q0 65 29.5 114.5t81.5 83.5t122 54t152 26l8 -139q-51 -3 -97.5 -13.5t-83 -27.5t-58 -42t-21.5 -56q0 -30 20 -50t55 -30t80 -10q37 0 68.5 6.5t60.5 17.5l53 -128q-42 -17 -88.5 -26t-92.5 -9zM645 0
q-76 0 -127 27t-77 80t-26 130v336h133v-336q0 -33 7.5 -51.5t28.5 -25t61 -6.5h38v-154h-38zM683 0v154q10 0 15 -21t5 -55q0 -35 -5 -56.5t-15 -21.5zM378 671q-29 0 -48.5 19t-19.5 49t19.5 49t48.5 19t48.5 -19t19.5 -49t-19.5 -49t-48.5 -19zM222 671q-29 0 -48.5 19
t-19.5 49t19.5 49t48.5 19t48.5 -19t19.5 -49t-19.5 -49t-48.5 -19z" />
    <glyph glyph-name="uniFE96" unicode="&#x62a;" horiz-adv-x="999" arabic-form="final" 
d="M343 -1q-80 0 -139 22.5t-97 62t-56.5 89.5t-18.5 105q0 51 15 102t45 97l105 -48q-18 -37 -26.5 -70t-8.5 -63q0 -45 20 -77.5t60 -49t99 -16.5l305 1q41 0 61.5 6.5t28 25t7.5 51.5v264h133v-264q0 -77 -26 -129.5t-77 -80t-127 -27.5zM973 0q-76 0 -127 27t-77 80
t-26 130h133q0 -33 7.5 -51.5t28.5 -25t61 -6.5h26v-154h-26zM999 0v154q10 0 15 -21t5 -55q0 -35 -5 -56.5t-15 -21.5zM532 534q-29 0 -48.5 19t-19.5 49t19.5 49t48.5 19t48.5 -19t19.5 -49t-19.5 -49t-48.5 -19zM376 534q-29 0 -48.5 19t-19.5 49t19.5 49t48.5 19
t48.5 -19t19.5 -49t-19.5 -49t-48.5 -19z" />
    <glyph glyph-name="uniFE97" unicode="&#x62a;" horiz-adv-x="347" arabic-form="initial" 
d="M147 501h133v-501h-280v154h147v347zM0 0q-10 0 -15 21t-5 57q0 35 5 55.5t15 20.5v-154zM292 608q-29 0 -48.5 19t-19.5 49t19.5 49t48.5 19t48.5 -19t19.5 -49t-19.5 -49t-48.5 -19zM136 608q-29 0 -48.5 19t-19.5 49t19.5 49t48.5 19t48.5 -19t19.5 -49t-19.5 -49
t-48.5 -19z" />
    <glyph glyph-name="uniFE98" unicode="&#x62a;" horiz-adv-x="419" arabic-form="medial" 
d="M0 0v154h53q41 0 62 6.5t28 25t7 51.5v264h134v-264q0 -77 -26 -129.5t-77 -80t-128 -27.5h-53zM381 0q-77 0 -128 27t-77 80t-26 130h134q0 -33 7 -51.5t28 -25t62 -6.5h38v-154h-38zM419 0v154q10 0 15 -21t5 -55q0 -35 -5 -56.5t-15 -21.5zM0 0q-10 0 -15 21.5
t-5 56.5t5 55.5t15 20.5v-154zM290 608q-29 0 -48.5 19t-19.5 49t19.5 49t48.5 19t48.5 -19t19.5 -49t-19.5 -49t-48.5 -19zM134 608q-29 0 -48.5 19t-19.5 49t19.5 49t48.5 19t48.5 -19t19.5 -49t-19.5 -49t-48.5 -19z" />
    <glyph glyph-name="uniFE9A" unicode="&#x62b;" horiz-adv-x="999" arabic-form="final" 
d="M343 -1q-80 0 -139 22.5t-97 62t-56.5 89.5t-18.5 105q0 51 15 102t45 97l105 -48q-18 -37 -26.5 -70t-8.5 -63q0 -45 20 -77.5t60 -49t99 -16.5l305 1q41 0 61.5 6.5t28 25t7.5 51.5v264h133v-264q0 -77 -26 -129.5t-77 -80t-127 -27.5zM973 0q-76 0 -127 27t-77 80
t-26 130h133q0 -33 7.5 -51.5t28.5 -25t61 -6.5h26v-154h-26zM999 0v154q10 0 15 -21t5 -55q0 -35 -5 -56.5t-15 -21.5zM454 807q29 0 47.5 -19t18.5 -48t-18.5 -47.5t-47.5 -18.5q-28 0 -47.5 18.5t-19.5 47.5t19.5 48t47.5 19zM532 670q29 0 48.5 -19t19.5 -48
q0 -30 -19.5 -49t-48.5 -19t-48.5 19t-19.5 49q0 29 19.5 48t48.5 19zM376 670q29 0 48.5 -19t19.5 -48q0 -30 -19.5 -49t-48.5 -19t-48.5 19t-19.5 49q0 29 19.5 48t48.5 19z" />
    <glyph glyph-name="uniFE9B" unicode="&#x62b;" horiz-adv-x="347" arabic-form="initial" 
d="M147 501h133v-501h-280v154h147v347zM0 0q-10 0 -15 21t-5 57q0 35 5 55.5t15 20.5v-154zM214 881q29 0 47.5 -19t18.5 -48t-18.5 -47.5t-47.5 -18.5q-28 0 -47.5 18.5t-19.5 47.5t19.5 48t47.5 19zM292 744q29 0 48.5 -19t19.5 -48q0 -30 -19.5 -49t-48.5 -19t-48.5 19
t-19.5 49q0 29 19.5 48t48.5 19zM136 744q29 0 48.5 -19t19.5 -48q0 -30 -19.5 -49t-48.5 -19t-48.5 19t-19.5 49q0 29 19.5 48t48.5 19z" />
    <glyph glyph-name="uniFE9C" unicode="&#x62b;" horiz-adv-x="419" arabic-form="medial" 
d="M0 0v154h53q41 0 62 6.5t28 25t7 51.5v264h134v-264q0 -77 -26 -129.5t-77 -80t-128 -27.5h-53zM381 0q-77 0 -128 27t-77 80t-26 130h134q0 -33 7 -51.5t28 -25t62 -6.5h38v-154h-38zM419 0v154q10 0 15 -21t5 -55q0 -35 -5 -56.5t-15 -21.5zM0 0q-10 0 -15 21.5
t-5 56.5t5 55.5t15 20.5v-154zM212 881q29 0 47.5 -19t18.5 -48t-18.5 -47.5t-47.5 -18.5q-28 0 -47.5 18.5t-19.5 47.5t19.5 48t47.5 19zM290 744q29 0 48.5 -19t19.5 -48q0 -30 -19.5 -49t-48.5 -19t-48.5 19t-19.5 49q0 29 19.5 48t48.5 19zM134 744q29 0 48.5 -19
t19.5 -48q0 -30 -19.5 -49t-48.5 -19t-48.5 19t-19.5 49q0 29 19.5 48t48.5 19z" />
    <glyph glyph-name="uniFE9E" unicode="&#x62c;" horiz-adv-x="741" arabic-form="final" 
d="M647 0v154h112v-154h-112zM508 60v205q0 40 -22 70t-63.5 47.5t-99.5 17.5q-45 0 -88 -10t-76 -25l-56 126q50 31 106.5 47t114.5 16q66 0 123.5 -20t101 -58t68 -91t24.5 -120v-205h-133zM341 -379q-57 0 -111 17t-96.5 49.5t-67.5 79.5t-25 108q0 52 21 102t63 89.5
t104.5 63.5t146.5 24v-154q-62 0 -107.5 -17.5t-70 -45t-24.5 -59.5q0 -29 20 -52t57.5 -36.5t90.5 -13.5q26 0 53 3.5t51 9.5l47 -136q-36 -16 -74.5 -24t-77.5 -8zM376 0v154h306l-27 -154h-279zM759 0v154q10 0 15 -21t5 -55q0 -35 -5 -56.5t-15 -21.5zM528 -223
q-34 0 -57 23t-23 57q0 35 23 57.5t57 22.5q35 0 57.5 -22.5t22.5 -57.5q0 -34 -22.5 -57t-57.5 -23z" />
    <glyph glyph-name="uniFE9F" unicode="&#x62c;" horiz-adv-x="662" arabic-form="initial" 
d="M442 60v205q0 40 -22 70t-63.5 47.5t-99.5 17.5q-44 0 -87.5 -10t-76.5 -25l-56 126q50 31 106.5 47t114.5 16q66 0 123.5 -20t101 -58t68 -91t24.5 -120v-205h-133zM0 0v154h616l-27 -154h-589zM0 0q-10 0 -15 21.5t-5 56.5t5 55.5t15 20.5v-154zM284 -283q-34 0 -57 23
t-23 57q0 35 23 57.5t57 22.5q35 0 57.5 -22.5t22.5 -57.5q0 -34 -22.5 -57t-57.5 -23z" />
    <glyph glyph-name="uniFEA0" unicode="&#x62c;" horiz-adv-x="693" arabic-form="medial" 
d="M552 0v154h141v-154h-141zM0 0q-10 0 -15 21.5t-5 56.5t5 55.5t15 20.5v-154zM442 60v205q0 40 -22 70t-63.5 47.5t-99.5 17.5q-44 0 -87.5 -10t-76.5 -25l-56 126q50 31 106.5 47t114.5 16q66 0 123.5 -20t101 -58t68 -91t24.5 -120v-205h-133zM0 0v154h616l-27 -154
h-589zM693 0v154q10 0 15 -21t5 -55q0 -35 -5 -56.5t-15 -21.5zM284 -283q-34 0 -57 23t-23 57q0 35 23 57.5t57 22.5q35 0 57.5 -22.5t22.5 -57.5q0 -34 -22.5 -57t-57.5 -23z" />
    <glyph glyph-name="uniFEA2" unicode="&#x62d;" horiz-adv-x="759" arabic-form="final" 
d="M647 0v154h112v-154h-112zM508 60v205q0 40 -22 70t-63.5 47.5t-99.5 17.5q-45 0 -88 -10t-76 -25l-56 126q50 31 106.5 47t114.5 16q66 0 123.5 -20t101 -58t68 -91t24.5 -120v-205h-133zM341 -379q-57 0 -111 17t-96.5 49.5t-67.5 79.5t-25 108q0 52 21 102t63 89.5
t104.5 63.5t146.5 24v-154q-62 0 -107.5 -17.5t-70 -45t-24.5 -59.5q0 -29 20 -52t57.5 -36.5t90.5 -13.5q26 0 53 3.5t51 9.5l47 -136q-36 -16 -74.5 -24t-77.5 -8zM376 0v154h306l-27 -154h-279zM759 0v154q10 0 15 -21t5 -55q0 -35 -5 -56.5t-15 -21.5z" />
    <glyph glyph-name="uniFEA3" unicode="&#x62d;" horiz-adv-x="662" arabic-form="initial" 
d="M442 60v205q0 40 -22 70t-63.5 47.5t-99.5 17.5q-44 0 -87.5 -10t-76.5 -25l-56 126q50 31 106.5 47t114.5 16q66 0 123.5 -20t101 -58t68 -91t24.5 -120v-205h-133zM0 0v154h616l-27 -154h-589zM0 0q-10 0 -15 21.5t-5 56.5t5 55.5t15 20.5v-154z" />
    <glyph glyph-name="uniFEA4" unicode="&#x62d;" horiz-adv-x="693" arabic-form="medial" 
d="M552 0v154h141v-154h-141zM0 0q-10 0 -15 21.5t-5 56.5t5 55.5t15 20.5v-154zM442 60v205q0 40 -22 70t-63.5 47.5t-99.5 17.5q-44 0 -87.5 -10t-76.5 -25l-56 126q50 31 106.5 47t114.5 16q66 0 123.5 -20t101 -58t68 -91t24.5 -120v-205h-133zM0 0v154h616l-27 -154
h-589zM693 0v154q10 0 15 -21t5 -55q0 -35 -5 -56.5t-15 -21.5z" />
    <glyph glyph-name="uniFEA6" unicode="&#x62e;" horiz-adv-x="759" arabic-form="final" 
d="M647 0v154h112v-154h-112zM508 60v205q0 40 -22 70t-63.5 47.5t-99.5 17.5q-45 0 -88 -10t-76 -25l-56 126q50 31 106.5 47t114.5 16q66 0 123.5 -20t101 -58t68 -91t24.5 -120v-205h-133zM341 -379q-57 0 -111 17t-96.5 49.5t-67.5 79.5t-25 108q0 52 21 102t63 89.5
t104.5 63.5t146.5 24v-154q-62 0 -107.5 -17.5t-70 -45t-24.5 -59.5q0 -29 20 -52t57.5 -36.5t90.5 -13.5q26 0 53 3.5t51 9.5l47 -136q-36 -16 -74.5 -24t-77.5 -8zM376 0v154h306l-27 -154h-279zM759 0v154q10 0 15 -21t5 -55q0 -35 -5 -56.5t-15 -21.5zM324 676
q-34 0 -57 23t-23 57q0 35 23 57.5t57 22.5q35 0 57.5 -22.5t22.5 -57.5q0 -34 -22.5 -57t-57.5 -23z" />
    <glyph glyph-name="uniFEA7" unicode="&#x62e;" horiz-adv-x="662" arabic-form="initial" 
d="M442 60v205q0 40 -22 70t-63.5 47.5t-99.5 17.5q-44 0 -87.5 -10t-76.5 -25l-56 126q50 31 106.5 47t114.5 16q66 0 123.5 -20t101 -58t68 -91t24.5 -120v-205h-133zM0 0v154h616l-27 -154h-589zM0 0q-10 0 -15 21.5t-5 56.5t5 55.5t15 20.5v-154zM258 676q-34 0 -57 23
t-23 57q0 35 23 57.5t57 22.5q35 0 57.5 -22.5t22.5 -57.5q0 -34 -22.5 -57t-57.5 -23z" />
    <glyph glyph-name="uniFEA8" unicode="&#x62e;" horiz-adv-x="693" arabic-form="medial" 
d="M552 0v154h141v-154h-141zM0 0q-10 0 -15 21.5t-5 56.5t5 55.5t15 20.5v-154zM442 60v205q0 40 -22 70t-63.5 47.5t-99.5 17.5q-44 0 -87.5 -10t-76.5 -25l-56 126q50 31 106.5 47t114.5 16q66 0 123.5 -20t101 -58t68 -91t24.5 -120v-205h-133zM0 0v154h616l-27 -154
h-589zM693 0v154q10 0 15 -21t5 -55q0 -35 -5 -56.5t-15 -21.5zM258 676q-34 0 -57 23t-23 57q0 35 23 57.5t57 22.5q35 0 57.5 -22.5t22.5 -57.5q0 -34 -22.5 -57t-57.5 -23z" />
    <glyph glyph-name="uniFEAA" unicode="&#x62f;" horiz-adv-x="632" arabic-form="final" 
d="M440 0v154h192v-154h-192zM632 0v154q10 0 15 -21t5 -55q0 -35 -5 -56.5t-15 -21.5zM421 0q-1 107 -37.5 190t-104.5 138.5t-164 78.5l29 146q126 -29 217 -106t141.5 -191t51.5 -256h-133zM36 0v154h478v-154h-478z" />
    <glyph glyph-name="uniFEAC" unicode="&#x630;" horiz-adv-x="632" arabic-form="final" 
d="M440 0v154h192v-154h-192zM632 0v154q10 0 15 -21t5 -55q0 -35 -5 -56.5t-15 -21.5zM421 0q-1 107 -37.5 190t-104.5 138.5t-164 78.5l29 146q126 -29 217 -106t141.5 -191t51.5 -256h-133zM36 0v154h478v-154h-478zM236 676q-34 0 -57 23t-23 57q0 35 23 57.5t57 22.5
q35 0 57.5 -22.5t22.5 -57.5q0 -34 -22.5 -57t-57.5 -23z" />
    <glyph glyph-name="uniFEAE" unicode="&#x631;" horiz-adv-x="383" arabic-form="final" 
d="M232 0v154h151v-154h-151zM0 -129q50 0 78.5 10.5t41 32.5t12.5 56v531h133v-531q0 -75 -29 -129t-82.5 -84t-128.5 -33zM383 0v154q10 0 15 -21t5 -55q0 -35 -5 -56.5t-15 -21.5z" />
    <glyph glyph-name="uniFEB0" unicode="&#x632;" horiz-adv-x="383" arabic-form="final" 
d="M232 0v154h151v-154h-151zM0 -129q50 0 78.5 10.5t41 32.5t12.5 56v531h133v-531q0 -75 -29 -129t-82.5 -84t-128.5 -33zM383 0v154q10 0 15 -21t5 -55q0 -35 -5 -56.5t-15 -21.5zM199 624q-34 0 -57 23t-23 57q0 35 23 57.5t57 22.5q35 0 57.5 -22.5t22.5 -57.5
q0 -34 -22.5 -57t-57.5 -23z" />
    <glyph glyph-name="uniFEB2" unicode="&#x633;" horiz-adv-x="1465" arabic-form="final" 
d="M1427 0q-77 0 -128 27t-77 80t-26 130h134q0 -33 7.5 -51.5t28 -25t61.5 -6.5h38v-154h-38zM389 -229q-86 0 -151.5 30t-109.5 83.5t-66 124t-22 152.5q0 40 6 81.5t15 79.5l128 -24q-7 -36 -11.5 -69.5t-4.5 -67.5q0 -75 24.5 -128t72.5 -80.5t119 -27.5
q72 0 121.5 27.5t75.5 80.5t26 129v241h134v-241q0 -82 -23.5 -153t-69 -124.5t-111.5 -83.5t-153 -30zM849 0q-42 0 -81 17.5t-68 55.5t-38 96l80 46q6 -33 30.5 -50t52.5 -17q32 0 57.5 22t25.5 67v215h134v-231q0 -75 -28.5 -124t-72 -73t-92.5 -24zM1144 0
q-42 0 -81 17.5t-68 55.5t-38 96l80 46q6 -33 30.5 -50t52.5 -17q32 0 57.5 22t25.5 67v264h134v-280q0 -75 -28.5 -124t-72 -73t-92.5 -24zM1465 0v154q10 0 15 -21t5 -55q0 -35 -5 -56.5t-15 -21.5z" />
    <glyph glyph-name="uniFEB3" unicode="&#x633;" horiz-adv-x="931" arabic-form="initial" 
d="M681 0q-42 0 -81 17.5t-67.5 55.5t-38.5 96l80 46q6 -33 30.5 -50t52.5 -17q32 0 58 22t26 67v264h133v-280q0 -75 -28 -124t-72 -73t-93 -24zM0 0v154h53q41 0 61.5 6.5t28 25t7.5 51.5v166h133v-166q0 -77 -26 -130t-77 -80t-127 -27h-53zM386 0q-42 0 -81 17.5
t-67.5 55.5t-38.5 96l80 46q6 -33 30.5 -50t52.5 -17q32 0 58 22t26 67v215h133v-231q0 -75 -28 -124t-72 -73t-93 -24zM0 0q-10 0 -15 21.5t-5 56.5t5 55.5t15 20.5v-154z" />
    <glyph glyph-name="uniFEB4" unicode="&#x633;" horiz-adv-x="1009" arabic-form="medial" 
d="M971 0q-76 0 -127 27t-77 80t-26 130h133q0 -33 7.5 -51.5t28.5 -25t61 -6.5h38v-154h-38zM0 0q-10 0 -15 21.5t-5 56.5t5 55.5t15 20.5v-154zM681 0q-42 0 -81 17.5t-67.5 55.5t-38.5 96l80 46q6 -33 30.5 -50t52.5 -17q32 0 58 22t26 67v264h133v-280q0 -75 -28 -124
t-72 -73t-93 -24zM0 0v154h53q41 0 61.5 6.5t28 25t7.5 51.5v166h133v-166q0 -77 -26 -130t-77 -80t-127 -27h-53zM386 0q-42 0 -81 17.5t-67.5 55.5t-38.5 96l80 46q6 -33 30.5 -50t52.5 -17q32 0 58 22t26 67v215h133v-231q0 -75 -28 -124t-72 -73t-93 -24zM1009 0v154
q10 0 15 -21t5 -55q0 -35 -5 -56.5t-15 -21.5z" />
    <glyph glyph-name="uniFEB6" unicode="&#x634;" horiz-adv-x="1465" arabic-form="final" 
d="M1427 0q-77 0 -128 27t-77 80t-26 130h134q0 -33 7.5 -51.5t28 -25t61.5 -6.5h38v-154h-38zM389 -229q-86 0 -151.5 30t-109.5 83.5t-66 124t-22 152.5q0 40 6 81.5t15 79.5l128 -24q-7 -36 -11.5 -69.5t-4.5 -67.5q0 -75 24.5 -128t72.5 -80.5t119 -27.5
q72 0 121.5 27.5t75.5 80.5t26 129v241h134v-241q0 -82 -23.5 -153t-69 -124.5t-111.5 -83.5t-153 -30zM849 0q-42 0 -81 17.5t-68 55.5t-38 96l80 46q6 -33 30.5 -50t52.5 -17q32 0 57.5 22t25.5 67v215h134v-231q0 -75 -28.5 -124t-72 -73t-92.5 -24zM1144 0
q-42 0 -81 17.5t-68 55.5t-38 96l80 46q6 -33 30.5 -50t52.5 -17q32 0 57.5 22t25.5 67v264h134v-280q0 -75 -28.5 -124t-72 -73t-92.5 -24zM1465 0v154q10 0 15 -21t5 -55q0 -35 -5 -56.5t-15 -21.5zM976 882q29 0 47.5 -19t18.5 -48t-18.5 -47.5t-47.5 -18.5
q-28 0 -47.5 18.5t-19.5 47.5t19.5 48t47.5 19zM1054 745q29 0 48.5 -19t19.5 -48q0 -30 -19.5 -49t-48.5 -19t-48.5 19t-19.5 49q0 29 19.5 48t48.5 19zM898 745q29 0 48.5 -19t19.5 -48q0 -30 -19.5 -49t-48.5 -19t-48.5 19t-19.5 49q0 29 19.5 48t48.5 19z" />
    <glyph glyph-name="uniFEB7" unicode="&#x634;" horiz-adv-x="931" arabic-form="initial" 
d="M681 0q-42 0 -81 17.5t-67.5 55.5t-38.5 96l80 46q6 -33 30.5 -50t52.5 -17q32 0 58 22t26 67v264h133v-280q0 -75 -28 -124t-72 -73t-93 -24zM0 0v154h53q41 0 61.5 6.5t28 25t7.5 51.5v166h133v-166q0 -77 -26 -130t-77 -80t-127 -27h-53zM386 0q-42 0 -81 17.5
t-67.5 55.5t-38.5 96l80 46q6 -33 30.5 -50t52.5 -17q32 0 58 22t26 67v215h133v-231q0 -75 -28 -124t-72 -73t-93 -24zM0 0q-10 0 -15 21.5t-5 56.5t5 55.5t15 20.5v-154zM511 882q29 0 47.5 -19t18.5 -48t-18.5 -47.5t-47.5 -18.5q-28 0 -47.5 18.5t-19.5 47.5t19.5 48
t47.5 19zM589 745q29 0 48.5 -19t19.5 -48q0 -30 -19.5 -49t-48.5 -19t-48.5 19t-19.5 49q0 29 19.5 48t48.5 19zM433 745q29 0 48.5 -19t19.5 -48q0 -30 -19.5 -49t-48.5 -19t-48.5 19t-19.5 49q0 29 19.5 48t48.5 19z" />
    <glyph glyph-name="uniFEB8" unicode="&#x634;" horiz-adv-x="1009" arabic-form="medial" 
d="M971 0q-76 0 -127 27t-77 80t-26 130h133q0 -33 7.5 -51.5t28.5 -25t61 -6.5h38v-154h-38zM0 0q-10 0 -15 21.5t-5 56.5t5 55.5t15 20.5v-154zM681 0q-42 0 -81 17.5t-67.5 55.5t-38.5 96l80 46q6 -33 30.5 -50t52.5 -17q32 0 58 22t26 67v264h133v-280q0 -75 -28 -124
t-72 -73t-93 -24zM0 0v154h53q41 0 61.5 6.5t28 25t7.5 51.5v166h133v-166q0 -77 -26 -130t-77 -80t-127 -27h-53zM386 0q-42 0 -81 17.5t-67.5 55.5t-38.5 96l80 46q6 -33 30.5 -50t52.5 -17q32 0 58 22t26 67v215h133v-231q0 -75 -28 -124t-72 -73t-93 -24zM1009 0v154
q10 0 15 -21t5 -55q0 -35 -5 -56.5t-15 -21.5zM511 882q29 0 47.5 -19t18.5 -48t-18.5 -47.5t-47.5 -18.5q-28 0 -47.5 18.5t-19.5 47.5t19.5 48t47.5 19zM589 745q29 0 48.5 -19t19.5 -48q0 -30 -19.5 -49t-48.5 -19t-48.5 19t-19.5 49q0 29 19.5 48t48.5 19zM433 745
q29 0 48.5 -19t19.5 -48q0 -30 -19.5 -49t-48.5 -19t-48.5 19t-19.5 49q0 29 19.5 48t48.5 19z" />
    <glyph glyph-name="uniFEBA" unicode="&#x635;" horiz-adv-x="1580" arabic-form="final" 
d="M1381 0v154h199v-154h-199zM842 0q-97 0 -148 54t-57 157l108 9q2 -27 10.5 -41t29.5 -19.5t57 -5.5h615v-154h-615zM1324 0v246q0 59 -20.5 98.5t-58 59.5t-89.5 20q-45 0 -87 -16t-78 -45.5t-62.5 -71.5t-41.5 -94.5t-15 -113.5h-115q0 43 8 96t26.5 108t48.5 106.5
t73.5 92t102.5 64.5t135 24q78 0 136 -26t95.5 -72t56 -105t18.5 -125v-246h-133zM389 -229q-86 0 -151.5 30t-109.5 83.5t-66 124t-22 152.5q0 40 6 81.5t15 79.5l128 -24q-7 -36 -11.5 -69.5t-4.5 -67.5q0 -75 24.5 -128t72.5 -80.5t119 -27.5q72 0 121.5 27.5t75.5 80.5
t26 129v290h134v-290q0 -82 -23.5 -153t-69 -124.5t-111.5 -83.5t-153 -30zM1580 0v154q10 0 15 -21t5 -55q0 -35 -5 -56.5t-15 -21.5z" />
    <glyph glyph-name="uniFEBB" unicode="&#x635;" horiz-adv-x="1052" arabic-form="initial" 
d="M862 0v246q0 59 -20 98.5t-57.5 59.5t-90.5 20q-45 0 -87 -16t-77.5 -45.5t-62.5 -71.5t-42 -94.5t-15 -113.5h-115q0 43 8 96t26.5 108t48.5 106.5t73.5 92t102.5 64.5t135 24q79 0 136.5 -26t95.5 -72t56 -105t18 -125v-246h-133zM0 0v154h53q41 0 62 6.5t28 25t7 51.5
v215h134v-215q0 -77 -26 -130t-77 -80t-128 -27h-53zM381 0q-69 0 -115 27t-69 80t-23 130h110q0 -33 7 -51.5t28 -25t62 -6.5h614v-154h-614zM0 0q-10 0 -15 21.5t-5 56.5t5 55.5t15 20.5v-154z" />
    <glyph glyph-name="uniFEBC" unicode="&#x635;" horiz-adv-x="1113" arabic-form="medial" 
d="M932 0v154h181v-154h-181zM0 0q-10 0 -15 21.5t-5 56.5t5 55.5t15 20.5v-154zM862 0v246q0 59 -20 98.5t-57.5 59.5t-90.5 20q-45 0 -87 -16t-77.5 -45.5t-62.5 -71.5t-42 -94.5t-15 -113.5h-115q0 43 8 96t26.5 108t48.5 106.5t73.5 92t102.5 64.5t135 24
q79 0 136.5 -26t95.5 -72t56 -105t18 -125v-246h-133zM0 0v154h53q41 0 62 6.5t28 25t7 51.5v215h134v-215q0 -77 -26 -130t-77 -80t-128 -27h-53zM381 0q-69 0 -115 27t-69 80t-23 130h110q0 -33 7 -51.5t28 -25t62 -6.5h614v-154h-614zM1113 0v154q10 0 15 -21t5 -55
q0 -35 -5 -56.5t-15 -21.5z" />
    <glyph glyph-name="uniFEBE" unicode="&#x636;" horiz-adv-x="1580" arabic-form="final" 
d="M1381 0v154h199v-154h-199zM842 0q-97 0 -148 54t-57 157l108 9q2 -27 10.5 -41t29.5 -19.5t57 -5.5h615v-154h-615zM1324 0v246q0 59 -20.5 98.5t-58 59.5t-89.5 20q-45 0 -87 -16t-78 -45.5t-62.5 -71.5t-41.5 -94.5t-15 -113.5h-115q0 43 8 96t26.5 108t48.5 106.5
t73.5 92t102.5 64.5t135 24q78 0 136 -26t95.5 -72t56 -105t18.5 -125v-246h-133zM389 -229q-86 0 -151.5 30t-109.5 83.5t-66 124t-22 152.5q0 40 6 81.5t15 79.5l128 -24q-7 -36 -11.5 -69.5t-4.5 -67.5q0 -75 24.5 -128t72.5 -80.5t119 -27.5q72 0 121.5 27.5t75.5 80.5
t26 129v290h134v-290q0 -82 -23.5 -153t-69 -124.5t-111.5 -83.5t-153 -30zM1580 0v154q10 0 15 -21t5 -55q0 -35 -5 -56.5t-15 -21.5zM1151 697q-34 0 -57 23t-23 57q0 35 23 57.5t57 22.5q35 0 57.5 -22.5t22.5 -57.5q0 -34 -22.5 -57t-57.5 -23z" />
    <glyph glyph-name="uniFEBF" unicode="&#x636;" horiz-adv-x="1052" arabic-form="initial" 
d="M862 0v246q0 59 -20 98.5t-57.5 59.5t-90.5 20q-45 0 -87 -16t-77.5 -45.5t-62.5 -71.5t-42 -94.5t-15 -113.5h-115q0 43 8 96t26.5 108t48.5 106.5t73.5 92t102.5 64.5t135 24q79 0 136.5 -26t95.5 -72t56 -105t18 -125v-246h-133zM0 0v154h53q41 0 62 6.5t28 25t7 51.5
v215h134v-215q0 -77 -26 -130t-77 -80t-128 -27h-53zM381 0q-69 0 -115 27t-69 80t-23 130h110q0 -33 7 -51.5t28 -25t62 -6.5h614v-154h-614zM0 0q-10 0 -15 21.5t-5 56.5t5 55.5t15 20.5v-154zM689 697q-34 0 -57 23t-23 57q0 35 23 57.5t57 22.5q35 0 57.5 -22.5
t22.5 -57.5q0 -34 -22.5 -57t-57.5 -23z" />
    <glyph glyph-name="uniFEC0" unicode="&#x636;" horiz-adv-x="1113" arabic-form="medial" 
d="M932 0v154h181v-154h-181zM0 0q-10 0 -15 21.5t-5 56.5t5 55.5t15 20.5v-154zM862 0v246q0 59 -20 98.5t-57.5 59.5t-90.5 20q-45 0 -87 -16t-77.5 -45.5t-62.5 -71.5t-42 -94.5t-15 -113.5h-115q0 43 8 96t26.5 108t48.5 106.5t73.5 92t102.5 64.5t135 24
q79 0 136.5 -26t95.5 -72t56 -105t18 -125v-246h-133zM0 0v154h53q41 0 62 6.5t28 25t7 51.5v215h134v-215q0 -77 -26 -130t-77 -80t-128 -27h-53zM381 0q-69 0 -115 27t-69 80t-23 130h110q0 -33 7 -51.5t28 -25t62 -6.5h614v-154h-614zM1113 0v154q10 0 15 -21t5 -55
q0 -35 -5 -56.5t-15 -21.5zM689 697q-34 0 -57 23t-23 57q0 35 23 57.5t57 22.5q35 0 57.5 -22.5t22.5 -57.5q0 -34 -22.5 -57t-57.5 -23z" />
    <glyph glyph-name="uniFEC2" unicode="&#x637;" horiz-adv-x="942" arabic-form="final" 
d="M783 0v154h159v-154h-159zM691 0v246q0 59 -20 98.5t-58 59.5t-90 20q-45 0 -87 -16t-77.5 -45.5t-62.5 -71.5t-42 -94.5t-15 -113.5h-76q0 43 7.5 96t24 108t43.5 106.5t66.5 92t92.5 64.5t121 24q79 0 136.5 -26t95.5 -72t56 -105t18 -125v-246h-133zM40 0v154h784
v-154h-784zM128 85v764h134v-620zM942 0v154q10 0 15 -21t5 -55q0 -35 -5 -56.5t-15 -21.5z" />
    <glyph glyph-name="uniFEC3" unicode="&#x637;" horiz-adv-x="903" arabic-form="initial" 
d="M0 0v154h62v-154h-62zM713 0v246q0 59 -20 98.5t-58 59.5t-90 20q-45 0 -87 -16t-77.5 -45.5t-62.5 -71.5t-42 -94.5t-15 -113.5h-76q0 43 7.5 96t24 108t43.5 106.5t66.5 92t92.5 64.5t121 24q79 0 136.5 -26t95.5 -72t56 -105t18 -125v-246h-133zM62 0v154h784v-154
h-784zM150 85v764h134v-620zM0 0q-10 0 -15 21t-5 57q0 35 5 55.5t15 20.5v-154z" />
    <glyph glyph-name="uniFEC4" unicode="&#x637;" horiz-adv-x="964" arabic-form="medial" 
d="M813 0v154h151v-154h-151zM964 0v154q10 0 15 -21t5 -55q0 -35 -5 -56.5t-15 -21.5zM713 0v246q0 59 -20 98.5t-58 59.5t-90 20q-45 0 -87 -16t-77.5 -45.5t-62.5 -71.5t-42 -94.5t-15 -113.5h-76q0 43 7.5 96t24 108t43.5 106.5t66.5 92t92.5 64.5t121 24
q79 0 136.5 -26t95.5 -72t56 -105t18 -125v-246h-133zM62 0v154h784v-154h-784zM150 85v764h134v-620zM0 0q-10 0 -15 21t-5 57q0 35 5 55.5t15 20.5v-154zM0 0v154h62v-154h-62z" />
    <glyph glyph-name="uniFEC6" unicode="&#x638;" horiz-adv-x="942" arabic-form="final" 
d="M783 0v154h159v-154h-159zM691 0v246q0 59 -20 98.5t-58 59.5t-90 20q-45 0 -87 -16t-77.5 -45.5t-62.5 -71.5t-42 -94.5t-15 -113.5h-76q0 43 7.5 96t24 108t43.5 106.5t66.5 92t92.5 64.5t121 24q79 0 136.5 -26t95.5 -72t56 -105t18 -125v-246h-133zM40 0v154h784
v-154h-784zM128 85v764h134v-620zM942 0v154q10 0 15 -21t5 -55q0 -35 -5 -56.5t-15 -21.5zM518 697q-34 0 -57 23t-23 57q0 35 23 57.5t57 22.5q35 0 57.5 -22.5t22.5 -57.5q0 -34 -22.5 -57t-57.5 -23z" />
    <glyph glyph-name="uniFEC7" unicode="&#x638;" horiz-adv-x="903" arabic-form="initial" 
d="M0 0v154h62v-154h-62zM713 0v246q0 59 -20 98.5t-58 59.5t-90 20q-45 0 -87 -16t-77.5 -45.5t-62.5 -71.5t-42 -94.5t-15 -113.5h-76q0 43 7.5 96t24 108t43.5 106.5t66.5 92t92.5 64.5t121 24q79 0 136.5 -26t95.5 -72t56 -105t18 -125v-246h-133zM62 0v154h784v-154
h-784zM150 85v764h134v-620zM0 0q-10 0 -15 21t-5 57q0 35 5 55.5t15 20.5v-154zM540 697q-34 0 -57 23t-23 57q0 35 23 57.5t57 22.5q35 0 57.5 -22.5t22.5 -57.5q0 -34 -22.5 -57t-57.5 -23z" />
    <glyph glyph-name="uniFEC8" unicode="&#x638;" horiz-adv-x="964" arabic-form="medial" 
d="M813 0v154h151v-154h-151zM964 0v154q10 0 15 -21t5 -55q0 -35 -5 -56.5t-15 -21.5zM713 0v246q0 59 -20 98.5t-58 59.5t-90 20q-45 0 -87 -16t-77.5 -45.5t-62.5 -71.5t-42 -94.5t-15 -113.5h-76q0 43 7.5 96t24 108t43.5 106.5t66.5 92t92.5 64.5t121 24
q79 0 136.5 -26t95.5 -72t56 -105t18 -125v-246h-133zM62 0v154h784v-154h-784zM150 85v764h134v-620zM0 0q-10 0 -15 21t-5 57q0 35 5 55.5t15 20.5v-154zM0 0v154h62v-154h-62zM540 697q-34 0 -57 23t-23 57q0 35 23 57.5t57 22.5q35 0 57.5 -22.5t22.5 -57.5
q0 -34 -22.5 -57t-57.5 -23z" />
    <glyph glyph-name="uniFECA" unicode="&#x639;" horiz-adv-x="731" arabic-form="final" 
d="M348 -379q-80 0 -138.5 21.5t-96 58.5t-55.5 83t-18 96q0 56 21.5 99.5t60 79t92 66t115.5 61.5q51 26 92 47t65 41.5t24 40.5q0 18 -21.5 33t-59.5 23.5t-88 8.5q-37 0 -74 -7t-79 -21l-34 -46l-80 38l91 150q41 13 87 22.5t99 9.5q86 0 151.5 -23t103 -64.5
t37.5 -100.5q0 -48 -24 -87t-64 -71.5t-88 -60.5t-96 -53q-39 -20 -74 -39.5t-63 -40t-44.5 -43.5t-16.5 -51q0 -31 22.5 -58t63 -42.5t96.5 -15.5q28 0 58 4t59 11.5t51 16.5l57 -130q-48 -28 -108 -42.5t-124 -14.5zM544 0q-119 0 -214.5 43t-161.5 120.5t-94 180.5
l104 59q14 -75 56 -131.5t106.5 -87t145.5 -30.5h245v-154h-187zM731 0v154q10 0 15 -21t5 -55q0 -35 -5 -56.5t-15 -21.5z" />
    <glyph glyph-name="uniFECB" unicode="&#x639;" horiz-adv-x="628" arabic-form="initial" 
d="M399 37q-84 0 -154 24t-111 74.5t-41 130.5q0 65 24.5 113.5t67.5 81t98 49t115 16.5q46 0 95.5 -10t89.5 -30l-58 -129q-28 7 -63 11t-63 4q-85 0 -129 -32.5t-44 -84.5q0 -31 17.5 -54t56 -35t99.5 -12v-117zM0 0v154h598v-154h-598zM0 0q-10 0 -15 21.5t-5 56.5
t5 55.5t15 20.5v-154z" />
    <glyph glyph-name="uniFECC" unicode="&#x639;" horiz-adv-x="748" arabic-form="medial" 
d="M0 0v154h206q37 0 80 11.5t85 30t76.5 41t55 43.5t20.5 37t-21.5 30t-60.5 23.5t-90 9.5q-42 0 -80 -7t-79 -22l-36 -42l-79 35l91 150q41 13 88 22.5t104 9.5q89 0 155.5 -23t104 -64.5t37.5 -97.5q0 -46 -25 -89t-67.5 -81t-95.5 -69.5t-109.5 -54t-110 -35
t-96.5 -12.5h-153zM547 0q-119 0 -214.5 43t-161.5 120.5t-94 180.5l106 59q13 -75 54.5 -131.5t106.5 -87t144 -30.5h260v-154h-201zM748 0v154q10 0 15 -21t5 -55q0 -35 -5 -56.5t-15 -21.5zM0 0q-10 0 -15 21.5t-5 56.5t5 55.5t15 20.5v-154z" />
    <glyph glyph-name="uniFECE" unicode="&#x63a;" horiz-adv-x="731" arabic-form="final" 
d="M348 -379q-80 0 -138.5 21.5t-96 58.5t-55.5 83t-18 96q0 56 21.5 99.5t60 79t92 66t115.5 61.5q51 26 92 47t65 41.5t24 40.5q0 18 -21.5 33t-59.5 23.5t-88 8.5q-37 0 -74 -7t-79 -21l-34 -46l-80 38l91 150q41 13 87 22.5t99 9.5q86 0 151.5 -23t103 -64.5
t37.5 -100.5q0 -48 -24 -87t-64 -71.5t-88 -60.5t-96 -53q-39 -20 -74 -39.5t-63 -40t-44.5 -43.5t-16.5 -51q0 -31 22.5 -58t63 -42.5t96.5 -15.5q28 0 58 4t59 11.5t51 16.5l57 -130q-48 -28 -108 -42.5t-124 -14.5zM544 0q-119 0 -214.5 43t-161.5 120.5t-94 180.5
l104 59q14 -75 56 -131.5t106.5 -87t145.5 -30.5h245v-154h-187zM731 0v154q10 0 15 -21t5 -55q0 -35 -5 -56.5t-15 -21.5zM351 648q-34 0 -57 23t-23 57q0 35 23 57.5t57 22.5q35 0 57.5 -22.5t22.5 -57.5q0 -34 -22.5 -57t-57.5 -23z" />
    <glyph glyph-name="uniFECF" unicode="&#x63a;" horiz-adv-x="628" arabic-form="initial" 
d="M399 37q-84 0 -154 24t-111 74.5t-41 130.5q0 65 24.5 113.5t67.5 81t98 49t115 16.5q46 0 95.5 -10t89.5 -30l-58 -129q-28 7 -63 11t-63 4q-85 0 -129 -32.5t-44 -84.5q0 -31 17.5 -54t56 -35t99.5 -12v-117zM0 0v154h598v-154h-598zM0 0q-10 0 -15 21.5t-5 56.5
t5 55.5t15 20.5v-154zM398 648q-34 0 -57 23t-23 57q0 35 23 57.5t57 22.5q35 0 57.5 -22.5t22.5 -57.5q0 -34 -22.5 -57t-57.5 -23z" />
    <glyph glyph-name="uniFED0" unicode="&#x63a;" horiz-adv-x="748" arabic-form="medial" 
d="M0 0v154h206q37 0 80 11.5t85 30t76.5 41t55 43.5t20.5 37t-21.5 30t-60.5 23.5t-90 9.5q-42 0 -80 -7t-79 -22l-36 -42l-79 35l91 150q41 13 88 22.5t104 9.5q89 0 155.5 -23t104 -64.5t37.5 -97.5q0 -46 -25 -89t-67.5 -81t-95.5 -69.5t-109.5 -54t-110 -35
t-96.5 -12.5h-153zM547 0q-119 0 -214.5 43t-161.5 120.5t-94 180.5l106 59q13 -75 54.5 -131.5t106.5 -87t144 -30.5h260v-154h-201zM748 0v154q10 0 15 -21t5 -55q0 -35 -5 -56.5t-15 -21.5zM0 0q-10 0 -15 21.5t-5 56.5t5 55.5t15 20.5v-154zM360 648q-34 0 -57 23
t-23 57q0 35 23 57.5t57 22.5q35 0 57.5 -22.5t22.5 -57.5q0 -34 -22.5 -57t-57.5 -23z" />
    <glyph glyph-name="uniFED2" unicode="&#x641;" horiz-adv-x="1114" arabic-form="final" 
d="M358 0q-80 0 -139 23t-97 62t-57 89t-19 105q0 51 15.5 102t44.5 97l106 -48q-18 -37 -26.5 -70t-8.5 -63q0 -45 19.5 -77.5t60 -49t99.5 -16.5h68v-154h-66zM1114 0v154q10 0 15 -21t5 -55q0 -35 -5 -56.5t-15 -21.5zM424 0q-10 0 -15 21.5t-5 56.5t5 55.5t15 20.5v-154
zM424 0v154q54 0 102.5 2.5t90.5 6.5q6 1 11 -5.5t10.5 -12.5t10.5 -6q81 12 133.5 33.5t78.5 50t26 62.5q0 30 -15 53.5t-41 37t-61 13.5t-62 -14t-42 -37.5t-15 -51.5q0 -34 27 -63.5t82 -51t140 -33.5q6 -1 11 5.5l10 13t11 5.5q40 -4 85.5 -6t96.5 -2v-154
q-131 0 -240 17.5t-188.5 53t-123.5 91.5t-44 133q0 70 34 122t91 82t126 30q70 0 127 -29.5t91 -82t34 -123.5q0 -69 -34.5 -119.5t-94.5 -84.5t-136.5 -53.5t-161.5 -28t-170 -8.5zM769 652q-34 0 -57 23t-23 57q0 35 23 57.5t57 22.5q35 0 57.5 -22.5t22.5 -57.5
q0 -34 -22.5 -57t-57.5 -23z" />
    <glyph glyph-name="uniFED3" unicode="&#x641;" horiz-adv-x="653" arabic-form="initial" 
d="M0 0v154h463v321h134v-475h-597zM284 6q-48 17 -86 53t-59.5 86.5t-21.5 110.5q0 80 37 141.5t99.5 96.5t138.5 35q57 0 110 -17t95 -37l-57 -135q-43 20 -81.5 30.5t-71.5 10.5q-44 0 -77 -16.5t-51 -45t-18 -64.5q0 -46 22.5 -84.5t63.5 -59.5zM0 0q-10 0 -15 21.5
t-5 56.5t5 55.5t15 20.5v-154zM393 652q-34 0 -57 23t-23 57q0 35 23 57.5t57 22.5q35 0 57.5 -22.5t22.5 -57.5q0 -34 -22.5 -57t-57.5 -23z" />
    <glyph glyph-name="uniFED4" unicode="&#x641;" horiz-adv-x="690" arabic-form="medial" 
d="M0 0v154q54 0 102.5 2.5t90.5 6.5q6 1 11 -5.5t10.5 -12.5t10.5 -6q81 12 133.5 33.5t78.5 50t26 62.5q0 30 -15 53.5t-41 37t-61 13.5t-62 -14t-42 -37.5t-15 -51.5q0 -34 27 -63.5t82 -51t140 -33.5q6 -1 11 5.5l10 13t11 5.5q40 -4 85.5 -6t96.5 -2v-154
q-131 0 -240 17.5t-188.5 53t-123.5 91.5t-44 133q0 70 34 122t91 82t126 30q70 0 127 -29.5t91 -82t34 -123.5q0 -69 -34.5 -119.5t-94.5 -84.5t-136.5 -53.5t-161.5 -28t-170 -8.5zM690 0v154q10 0 15 -21t5 -55q0 -35 -5 -56.5t-15 -21.5zM0 0q-10 0 -15 21.5t-5 56.5
t5 55.5t15 20.5v-154zM345 652q-34 0 -57 23t-23 57q0 35 23 57.5t57 22.5q35 0 57.5 -22.5t22.5 -57.5q0 -34 -22.5 -57t-57.5 -23z" />
    <glyph glyph-name="uniFED6" unicode="&#x642;" horiz-adv-x="979" arabic-form="final" 
d="M750 0v154h229v-154h-229zM979 0v154q10 0 15 -21t5 -55q0 -35 -5 -56.5t-15 -21.5zM451 -311q-95 0 -171.5 34.5t-129.5 96t-81.5 142.5t-28.5 174q0 48 7.5 95.5t20.5 90.5l125 -24q-10 -43 -15 -82t-5 -73q0 -96 35.5 -162.5t98 -102t144.5 -35.5t144.5 35t97.5 101
t35 158v350l134 -12v-338q0 -94 -28 -175t-81.5 -142.5t-129.5 -96t-172 -34.5zM656 0q-83 0 -144.5 35t-95.5 94.5t-34 130.5q0 58 21.5 107t59.5 85t88 56.5t107 20.5q56 0 109 -17t95 -37l-56 -137q-84 41 -148 41q-42 0 -74 -16t-50.5 -42.5t-18.5 -58.5q0 -30 17 -54.5
t48.5 -39t75.5 -14.5h153v-154h-153zM736 636q-29 0 -48.5 19t-19.5 49t19.5 49t48.5 19t48.5 -19t19.5 -49t-19.5 -49t-48.5 -19zM580 636q-29 0 -48.5 19t-19.5 49t19.5 49t48.5 19t48.5 -19t19.5 -49t-19.5 -49t-48.5 -19z" />
    <glyph glyph-name="uniFED7" unicode="&#x642;" horiz-adv-x="653" arabic-form="initial" 
d="M0 0v154h463v321h134v-475h-597zM284 6q-48 17 -86 53t-59.5 86.5t-21.5 110.5q0 80 37 141.5t99.5 96.5t138.5 35q57 0 110 -17t95 -37l-57 -135q-43 20 -81.5 30.5t-71.5 10.5q-44 0 -77 -16.5t-51 -45t-18 -64.5q0 -46 22.5 -84.5t63.5 -59.5zM0 0q-10 0 -15 21.5
t-5 56.5t5 55.5t15 20.5v-154zM471 636q-29 0 -48.5 19t-19.5 49t19.5 49t48.5 19t48.5 -19t19.5 -49t-19.5 -49t-48.5 -19zM315 636q-29 0 -48.5 19t-19.5 49t19.5 49t48.5 19t48.5 -19t19.5 -49t-19.5 -49t-48.5 -19z" />
    <glyph glyph-name="uniFED8" unicode="&#x642;" horiz-adv-x="690" arabic-form="medial" 
d="M0 0v154q54 0 102.5 2.5t90.5 6.5q6 1 11 -5.5t10.5 -12.5t10.5 -6q81 12 133.5 33.5t78.5 50t26 62.5q0 30 -15 53.5t-41 37t-61 13.5t-62 -14t-42 -37.5t-15 -51.5q0 -34 27 -63.5t82 -51t140 -33.5q6 -1 11 5.5l10 13t11 5.5q40 -4 85.5 -6t96.5 -2v-154
q-131 0 -240 17.5t-188.5 53t-123.5 91.5t-44 133q0 70 34 122t91 82t126 30q70 0 127 -29.5t91 -82t34 -123.5q0 -69 -34.5 -119.5t-94.5 -84.5t-136.5 -53.5t-161.5 -28t-170 -8.5zM690 0v154q10 0 15 -21t5 -55q0 -35 -5 -56.5t-15 -21.5zM0 0q-10 0 -15 21.5t-5 56.5
t5 55.5t15 20.5v-154zM423 636q-29 0 -48.5 19t-19.5 49t19.5 49t48.5 19t48.5 -19t19.5 -49t-19.5 -49t-48.5 -19zM267 636q-29 0 -48.5 19t-19.5 49t19.5 49t48.5 19t48.5 -19t19.5 -49t-19.5 -49t-48.5 -19z" />
    <glyph glyph-name="uniFEDA" unicode="&#x643;" horiz-adv-x="1012" arabic-form="final" 
d="M826 0v154h186v-154h-186zM362 0q-80 0 -139 23t-97.5 62t-57 89t-18.5 105q0 51 15 102t45 97l106 -48q-18 -37 -27 -70t-9 -63q0 -45 20 -77.5t60 -49t100 -16.5h401v695h134v-849h-533zM1012 0v154q10 0 15 -21t5 -55q0 -35 -5 -56.5t-15 -21.5zM368 390v77
q45 0 96 5.5t83 14.5l-7 -18l-101 38q-26 10 -38 27t-12 35q0 35 23.5 68t65.5 56t99 23v-82q-40 0 -70 -14t-46.5 -35.5t-16.5 -44.5l-25 57l127 -48q32 -12 44.5 -30t12.5 -34q0 -17 -8.5 -34t-32.5 -30.5t-71 -22t-123 -8.5z" />
    <glyph glyph-name="uniFEDB" unicode="&#x643;" horiz-adv-x="556" arabic-form="initial" 
d="M0 0v154h174q47 0 79 10.5t49 28.5t17 40q0 14 -8 29.5t-31.5 38t-68.5 58t-120 89.5l-60 45l84 120l70 -52q70 -51 120.5 -91.5t83 -77.5t48 -75t15.5 -84q0 -72 -36 -124.5t-99 -80.5t-143 -28h-174zM31 493v144l469 216v-166zM0 0q-10 0 -15 21.5t-5 56.5t5 55.5
t15 20.5v-154z" />
    <glyph glyph-name="uniFEDC" unicode="&#x643;" horiz-adv-x="587" arabic-form="medial" 
d="M549 0q-76 0 -127 27t-77 80t-26 130v4l133 -7v-2q1 -31 8.5 -48.5t28.5 -23.5t60 -6h38v-154h-38zM0 0q-10 0 -15 21.5t-5 56.5t5 55.5t15 20.5v-154zM0 0v154h174q47 0 79 10.5t49 28.5t17 40q0 14 -8 29.5t-31.5 38t-68.5 58t-120 89.5l-60 45l84 120l70 -52
q70 -51 120.5 -91.5t83 -77.5t48 -75t15.5 -84q0 -72 -36 -124.5t-99 -80.5t-143 -28h-174zM31 493v144l469 216v-166zM587 0v154q10 0 15 -21t5 -55q0 -35 -5 -56.5t-15 -21.5z" />
    <glyph glyph-name="uniFEDE" unicode="&#x644;" horiz-adv-x="853" arabic-form="final" 
d="M816 0q-77 0 -128 27t-77 80t-26 130h134q0 -33 7 -51.5t28 -25t62 -6.5h38v-154h-38zM379 -208q-74 0 -136 27.5t-107.5 79t-70.5 123t-25 160.5q0 41 6 82t15 80l128 -24q-7 -36 -11.5 -70t-4.5 -66q0 -76 23.5 -129t69 -80.5t110.5 -27.5t112 27.5t72 80.5t25 129v665
h134v-665q0 -89 -25.5 -161t-71 -123.5t-107.5 -79.5t-136 -28zM853 0v154q10 0 15 -21t5 -55q0 -35 -5 -56.5t-15 -21.5z" />
    <glyph glyph-name="uniFEDF" unicode="&#x644;" horiz-adv-x="327" arabic-form="initial" 
d="M0 0v154h137v695h134v-849h-271zM0 0q-10 0 -15 21t-5 57q0 35 5 55.5t15 20.5v-154z" />
    <glyph glyph-name="uniFEE0" unicode="&#x644;" horiz-adv-x="388" arabic-form="medial" 
d="M0 0v154h39q41 0 62 6.5t28 25t7 51.5v612h134v-612q0 -77 -26 -129.5t-77 -80t-128 -27.5h-39zM367 0q-77 0 -128 27t-77 80t-26 130h134q0 -33 7 -51.5t28 -25t62 -6.5h21v-154h-21zM388 0v154q10 0 15 -21t5 -55q0 -35 -5 -56.5t-15 -21.5zM0 0q-10 0 -15 21.5
t-5 56.5t5 55.5t15 20.5v-154z" />
    <glyph glyph-name="uniFEE2" unicode="&#x645;" horiz-adv-x="769" arabic-form="final" 
d="M731 0q-71 0 -120 27t-74.5 80t-25.5 130v21l119 -5l5 -24q1 -30 8.5 -46.5t28.5 -22.5t59 -6h38v-154h-38zM66 -360q-4 34 -8.5 74.5t-8.5 81.5t-6.5 75.5t-2.5 55.5q0 52 14.5 97.5t42 81t66 56t86.5 20.5q20 0 56.5 -6t84 -17t102 -24.5t110.5 -30.5l-26 -126
q-49 10 -99.5 20t-96 18t-79 13t-48.5 5q-21 0 -40.5 -10t-32 -33.5t-12.5 -65.5q0 -18 2.5 -52t7 -75.5t9.5 -83t8 -74.5h-129zM576 -22l-125 62q25 41 38 88t13 95q0 69 -21.5 101t-62.5 32q-26 0 -51 -13.5t-52 -44.5t-61 -84l-117 78q25 38 52.5 76.5t61 70t74.5 50.5
t92 19q56 0 97.5 -23t68.5 -62.5t40 -90.5t13 -107q0 -58 -15 -124.5t-45 -122.5zM769 0v154q10 0 15 -21t5 -55q0 -35 -5 -56.5t-15 -21.5z" />
    <glyph glyph-name="uniFEE3" unicode="&#x645;" horiz-adv-x="735" arabic-form="initial" 
d="M0 0v154q44 0 74.5 15.5t55.5 45t50 70.5q25 38 52.5 76t61 70t75 51t93.5 19q55 0 96 -23t67.5 -62.5t40 -91t13.5 -108.5q0 -54 -14 -118.5t-43 -119.5l-124 61q23 40 35 85.5t12 91.5q0 69 -21.5 101t-62.5 32q-26 0 -52 -14.5t-54.5 -47t-63.5 -87.5
q-44 -69 -86 -113t-90.5 -65.5t-114.5 -21.5zM615 132l7 -154q-96 -5 -166 1.5t-123 24.5t-93.5 46.5t-76.5 64.5l91 97q35 -36 83 -55.5t116 -24.5t162 0zM0 0q-10 0 -15 21.5t-5 56.5t5 55.5t15 20.5v-154z" />
    <glyph glyph-name="uniFEE4" unicode="&#x645;" horiz-adv-x="811" arabic-form="medial" 
d="M773 0q-71 0 -120 27t-74.5 80t-25.5 130v21l119 -5l5 -24q1 -30 8.5 -46.5t28.5 -22.5t59 -6h38v-154h-38zM0 0q-10 0 -15 21.5t-5 56.5t5 55.5t15 20.5v-154zM0 0v154q44 0 74.5 15.5t55.5 45t50 70.5q25 38 52.5 76t61 70t75 51t93.5 19q55 0 96 -23t67.5 -62.5
t40 -91t13.5 -108.5q0 -54 -14 -118.5t-43 -119.5l-124 61q23 40 35 85.5t12 91.5q0 69 -21.5 101t-62.5 32q-26 0 -52 -14.5t-54.5 -47t-63.5 -87.5q-44 -69 -86 -113t-90.5 -65.5t-114.5 -21.5zM615 132l7 -154q-96 -5 -166 1.5t-123 24.5t-93.5 46.5t-76.5 64.5l91 97
q35 -36 83 -55.5t116 -24.5t162 0zM811 0v154q10 0 15 -21t5 -55q0 -35 -5 -56.5t-15 -21.5z" />
    <glyph glyph-name="uniFEE6" unicode="&#x646;" horiz-adv-x="879" arabic-form="final" 
d="M841 0q-99 0 -156 46t-70 133l130 39q2 -38 21.5 -51t74.5 -13h38v-154h-38zM389 -274q-86 0 -151.5 30t-109.5 83t-66 123.5t-22 152.5q0 41 6 82t15 80l128 -24q-7 -36 -11.5 -70t-4.5 -68q0 -75 24.5 -128t72.5 -80.5t119 -27.5q72 0 121.5 27.5t75.5 81t26 129.5v384
h134v-384q0 -83 -23.5 -154t-69 -124t-111.5 -83t-153 -30zM879 0v154q10 0 15 -21t5 -55q0 -35 -5 -56.5t-15 -21.5zM393 495q-34 0 -57 23t-23 57q0 35 23 57.5t57 22.5q35 0 57.5 -22.5t22.5 -57.5q0 -34 -22.5 -57t-57.5 -23z" />
    <glyph glyph-name="uniFEE7" unicode="&#x646;" horiz-adv-x="347" arabic-form="initial" 
d="M147 501h133v-501h-280v154h147v347zM0 0q-10 0 -15 21t-5 57q0 35 5 55.5t15 20.5v-154zM214 624q-34 0 -57 23t-23 57q0 35 23 57.5t57 22.5q35 0 57.5 -22.5t22.5 -57.5q0 -34 -22.5 -57t-57.5 -23z" />
    <glyph glyph-name="uniFEE8" unicode="&#x646;" horiz-adv-x="419" arabic-form="medial" 
d="M0 0v154h53q41 0 62 6.5t28 25t7 51.5v264h134v-264q0 -77 -26 -129.5t-77 -80t-128 -27.5h-53zM381 0q-77 0 -128 27t-77 80t-26 130h134q0 -33 7 -51.5t28 -25t62 -6.5h38v-154h-38zM419 0v154q10 0 15 -21t5 -55q0 -35 -5 -56.5t-15 -21.5zM0 0q-10 0 -15 21.5
t-5 56.5t5 55.5t15 20.5v-154zM212 624q-34 0 -57 23t-23 57q0 35 23 57.5t57 22.5q35 0 57.5 -22.5t22.5 -57.5q0 -34 -22.5 -57t-57.5 -23z" />
    <glyph glyph-name="uniFEEA" unicode="&#x647;" horiz-adv-x="683" arabic-form="final" 
d="M329 37q-60 0 -112.5 14.5t-92 43t-62 71.5t-22.5 100q0 65 29.5 114.5t81.5 83.5t122 54t152 26l8 -139q-51 -3 -97.5 -13.5t-83 -27.5t-58 -42t-21.5 -56q0 -30 20 -50t55 -30t80 -10q37 0 68.5 6.5t60.5 17.5l53 -128q-42 -17 -88.5 -26t-92.5 -9zM645 0
q-76 0 -127 27t-77 80t-26 130v336h133v-336q0 -33 7.5 -51.5t28.5 -25t61 -6.5h38v-154h-38zM683 0v154q10 0 15 -21t5 -55q0 -35 -5 -56.5t-15 -21.5z" />
    <glyph glyph-name="uniFEEB" unicode="&#x647;" horiz-adv-x="793" arabic-form="initial" 
d="M470 -2q-73 0 -146 22.5t-133 65t-96 103t-36 136.5q0 65 27 119.5t74 87.5t106 33q45 0 83.5 -19.5t67.5 -52t45 -74.5t16 -88q0 -65 -32.5 -124.5t-94.5 -106t-150.5 -73.5t-200.5 -27v154q78 0 143.5 15.5t113.5 41t74 57.5t26 65q0 25 -12 45.5t-32.5 33t-45.5 12.5
q-24 0 -44 -12t-31.5 -32.5t-11.5 -45.5q0 -39 26 -75t69.5 -64.5t97.5 -44.5t110 -16q40 0 69 10t45 30.5t16 53.5q0 53 -44.5 91t-139 67t-245.5 56q-6 -6 -12.5 -6.5t-13.5 1.5t-14 3q-29 5 -60 9.5t-65 10.5l17 144q158 -22 288 -47.5t225 -64t146 -100.5t51 -155
q0 -64 -22.5 -109.5t-61.5 -74t-88.5 -42t-103.5 -13.5zM0 0q-10 0 -15 21.5t-5 56.5t5 55.5t15 20.5v-154z" />
    <glyph glyph-name="uniFEEC" unicode="&#x647;" horiz-adv-x="701" arabic-form="medial" 
d="M386 -302q-54 0 -108 20.5t-98.5 60.5t-71 98t-26.5 135v133q0 102 24.5 177.5t67 125.5t96.5 74.5t113 24.5q67 0 119.5 -28.5t83 -80.5t30.5 -120q0 -71 -32.5 -129.5t-91 -100.5t-137 -65t-169.5 -23h-186v154h206q81 0 143.5 22t98 59.5t35.5 83.5q0 27 -12.5 47
t-35.5 30.5t-55 10.5q-50 0 -87 -29t-57.5 -86.5t-20.5 -146.5v-134q0 -50 22 -89t59 -61.5t84 -22.5q33 0 55.5 11.5t35 33t12.5 50.5q0 36 -19 76t-60 69l56 87q156 -84 156 -239q0 -73 -31 -123.5t-83 -77.5t-116 -27zM701 0q-108 0 -179 23.5t-118 54.5l74 128
q37 -24 93 -38t130 -14v-154zM701 0v154q10 0 15 -21t5 -55q0 -35 -5 -56.5t-15 -21.5zM0 0q-10 0 -15 21.5t-5 56.5t5 55.5t15 20.5v-154z" />
    <glyph glyph-name="uniFEEE" unicode="&#x648;" horiz-adv-x="637" arabic-form="final" 
d="M489 0v154h148v-154h-148zM637 0v154q10 0 15 -21t5 -55q0 -35 -5 -56.5t-15 -21.5zM82 -277v154h185q66 0 92.5 23t26.5 70v505h134v-505q0 -78 -31 -133.5t-88 -84.5t-134 -29h-185zM314 0q-83 0 -144.5 35t-95.5 94.5t-34 130.5q0 58 21 107t59.5 85t88.5 56.5
t107 20.5q56 0 109 -17t95 -37l-56 -137q-83 45 -148 45q-42 0 -74 -17t-50.5 -44.5t-18.5 -61.5q0 -31 17 -57.5t48.5 -41.5t75.5 -15h153v-146h-153z" />
    <glyph glyph-name="uniFEF0" unicode="&#x649;" horiz-adv-x="891" arabic-form="final" 
d="M473 -335q-138 0 -235.5 43.5t-149.5 127t-52 203.5q0 33 4 67.5t12 71.5l123 -24q-5 -36 -7.5 -62t-2.5 -47q0 -116 74.5 -171.5t229.5 -55.5q92 0 155 16.5t96 43t33 55.5q0 20 -15 34t-47.5 28.5t-82.5 33.5l39 133q40 -15 82.5 -33.5t78 -45t57.5 -63t22 -87.5
q0 -45 -18.5 -85t-53.5 -73.5t-85.5 -58t-115 -38t-141.5 -13.5zM764 0q-150 0 -227 75l93 109q8 -7 27.5 -14t47.5 -11.5t59 -4.5h127v-154h-127zM891 0v154q10 0 15 -21t5 -55q0 -35 -5 -56.5t-15 -21.5z" />
    <glyph glyph-name="uniFEF2" unicode="&#x64a;" horiz-adv-x="891" arabic-form="final" 
d="M473 -335q-138 0 -235.5 43.5t-149.5 127t-52 203.5q0 33 4 67.5t12 71.5l123 -24q-5 -36 -7.5 -62t-2.5 -47q0 -116 74.5 -171.5t229.5 -55.5q92 0 155 16.5t96 43t33 55.5q0 20 -15 34t-47.5 28.5t-82.5 33.5l39 133q40 -15 82.5 -33.5t78 -45t57.5 -63t22 -87.5
q0 -45 -18.5 -85t-53.5 -73.5t-85.5 -58t-115 -38t-141.5 -13.5zM764 0q-150 0 -227 75l93 109q8 -7 27.5 -14t47.5 -11.5t59 -4.5h127v-154h-127zM891 0v154q10 0 15 -21t5 -55q0 -35 -5 -56.5t-15 -21.5zM552 -578q-29 0 -48.5 19t-19.5 48q0 30 19.5 49t48.5 19t48.5 -19
t19.5 -49q0 -29 -19.5 -48t-48.5 -19zM396 -578q-29 0 -48.5 19t-19.5 48q0 30 19.5 49t48.5 19t48.5 -19t19.5 -49q0 -29 -19.5 -48t-48.5 -19z" />
    <glyph glyph-name="uniFEF3" unicode="&#x64a;" horiz-adv-x="347" arabic-form="initial" 
d="M147 501h133v-501h-280v154h147v347zM0 0q-10 0 -15 21t-5 57q0 35 5 55.5t15 20.5v-154zM244 -242q-29 0 -48.5 19t-19.5 48q0 30 19.5 49t48.5 19t48.5 -19t19.5 -49q0 -29 -19.5 -48t-48.5 -19zM88 -242q-29 0 -48.5 19t-19.5 48q0 30 19.5 49t48.5 19t48.5 -19
t19.5 -49q0 -29 -19.5 -48t-48.5 -19z" />
    <glyph glyph-name="uniFEF4" unicode="&#x64a;" horiz-adv-x="419" arabic-form="medial" 
d="M0 0v154h53q41 0 62 6.5t28 25t7 51.5v264h134v-264q0 -77 -26 -129.5t-77 -80t-128 -27.5h-53zM381 0q-77 0 -128 27t-77 80t-26 130h134q0 -33 7 -51.5t28 -25t62 -6.5h38v-154h-38zM419 0v154q10 0 15 -21t5 -55q0 -35 -5 -56.5t-15 -21.5zM0 0q-10 0 -15 21.5
t-5 56.5t5 55.5t15 20.5v-154zM290 -242q-29 0 -48.5 19t-19.5 48q0 30 19.5 49t48.5 19t48.5 -19t19.5 -49q0 -29 -19.5 -48t-48.5 -19zM134 -242q-29 0 -48.5 19t-19.5 48q0 30 19.5 49t48.5 19t48.5 -19t19.5 -49q0 -29 -19.5 -48t-48.5 -19z" />
    <glyph glyph-name=".notdef" horiz-adv-x="587" 
d="M40 0v700h507v-700h-507zM120 70h347v560h-347v-560z" />
    <glyph glyph-name=".null" 
 />
    <glyph glyph-name="nonmarkingreturn" horiz-adv-x="333" 
 />
    <glyph glyph-name="CR" unicode="&#xd;" horiz-adv-x="300" 
 />
    <glyph glyph-name="space" unicode=" " horiz-adv-x="270" 
 />
    <glyph glyph-name="exclam" unicode="!" horiz-adv-x="240" 
d="M56 695h147v-177l-27 -285h-93l-27 285v177zM128 146q33 0 55 -21.5t22 -55.5t-22 -56t-55 -22q-34 0 -55.5 22t-21.5 56t21.5 55.5t55.5 21.5z" />
    <glyph glyph-name="quotedbl" unicode="&#x22;" horiz-adv-x="414" 
d="M60 700h116v-263h-116v263zM238 700h116v-263h-116v263z" />
    <glyph glyph-name="numbersign" unicode="#" horiz-adv-x="732" 
d="M31 269h649l-12 -106h-649zM64 531h648l-11 -107h-649zM222 700h112l-87 -700h-111zM485 700h112l-87 -700h-111z" />
    <glyph glyph-name="dollar" unicode="$" horiz-adv-x="637" 
d="M271 843h115v-229h-115v229zM271 88h115v-237h-115v237zM538 510q-37 23 -76.5 38.5t-76 24t-65.5 8.5q-40 0 -64.5 -15.5t-24.5 -46.5q0 -29 20.5 -47.5t53.5 -30t73 -23t79.5 -26.5t73 -38.5t53 -60t19.5 -90.5q0 -68 -36 -115t-98.5 -72t-139.5 -25q-58 0 -114 14
t-105.5 39.5t-89.5 59.5l63 124q36 -32 79.5 -56t87.5 -37t81 -13q49 0 76.5 19t27.5 54q0 30 -20 48t-53 30.5t-73 23t-80 25t-73 37t-53.5 57.5t-20.5 89q0 64 34 110.5t95 72t142 25.5q74 0 144 -21.5t122 -55.5z" />
    <glyph glyph-name="percent" unicode="%" horiz-adv-x="982" 
d="M220 704q88 0 139.5 -56.5t51.5 -154.5t-51.5 -154.5t-139.5 -56.5q-59 0 -102 25.5t-66.5 73t-23.5 112.5q0 98 51.5 154.5t140.5 56.5zM220 620q-44 0 -68.5 -33.5t-24.5 -93.5t24.5 -94t68.5 -34q43 0 68 34t25 94t-25 93.5t-68 33.5zM686 700h110l-504 -700h-112z
M763 419q88 0 139.5 -56.5t51.5 -154.5t-51.5 -154.5t-139.5 -56.5q-59 0 -102 25.5t-66.5 73t-23.5 112.5q0 98 51.5 154.5t140.5 56.5zM763 335q-44 0 -68.5 -33.5t-24.5 -93.5t24.5 -94t68.5 -34q43 0 68 34t25 94t-25 93.5t-68 33.5z" />
    <glyph glyph-name="ampersand" unicode="&#x26;" horiz-adv-x="678" 
d="M631 281q-35 -89 -87.5 -153.5t-117.5 -99.5t-138 -35q-66 0 -119 26t-83 71.5t-30 103.5q0 54 25 92t64.5 65t84 49t84 43.5t64.5 47t25 61.5q0 30 -19 48.5t-52 18.5q-34 0 -54.5 -21.5t-20.5 -54.5q0 -35 23 -77.5t72.5 -98.5t128 -133.5t190.5 -183.5l-78 -76
q-102 98 -177.5 173t-129 132t-86.5 102.5t-48 84.5t-15 76q0 50 24.5 87t67.5 57.5t102 20.5q57 0 100 -20t68 -54.5t25 -78.5q0 -50 -25 -85.5t-63.5 -61.5t-82.5 -47.5t-83 -43t-63.5 -48t-24.5 -63.5q0 -31 14.5 -54.5t40 -36t57.5 -12.5q49 0 95 31t83 87.5t60 130.5z
" />
    <glyph glyph-name="quotesingle" unicode="'" horiz-adv-x="236" 
d="M60 700h116v-263h-116v263z" />
    <glyph glyph-name="parenleft" unicode="(" horiz-adv-x="332" 
d="M326 742q-55 -87 -87.5 -198.5t-32.5 -234.5t32.5 -234.5t87.5 -198.5h-138q-61 87 -93.5 198.5t-32.5 234.5t32.5 234.5t93.5 198.5h138z" />
    <glyph glyph-name="parenright" unicode=")" horiz-adv-x="332" 
d="M6 742h139q61 -87 93.5 -198.5t32.5 -234.5t-32.5 -234.5t-93.5 -198.5h-139q55 87 87.5 198.5t32.5 234.5t-32.5 234.5t-87.5 198.5z" />
    <glyph glyph-name="asterisk" unicode="*" horiz-adv-x="368" 
d="M145 720h78l-1 -98l84 50l39 -68l-87 -48l87 -48l-39 -68l-85 51l2 -98h-78l2 99l-84 -50l-40 66l86 48l-86 48l40 69l84 -51z" />
    <glyph glyph-name="plus" unicode="+" horiz-adv-x="506" 
d="M33 375h440v-99h-440v99zM204 545h98v-439h-98v439z" />
    <glyph glyph-name="comma" unicode="," horiz-adv-x="232" 
d="M136 -7q-49 -1 -72 22t-23 53q0 34 21.5 55t55.5 21q30 0 52.5 -19.5t22.5 -55.5q0 -17 -6.5 -32t-13.5 -29l-71 -125h-75l69 181z" />
    <glyph glyph-name="hyphen" unicode="-" horiz-adv-x="372" 
d="M57 355h258v-99h-258v99z" />
    <glyph glyph-name="period" unicode="." horiz-adv-x="235" 
d="M117 146q34 0 55.5 -21.5t21.5 -55.5t-21.5 -56t-55.5 -22q-33 0 -55 22t-22 56t22 55.5t55 21.5z" />
    <glyph glyph-name="slash" unicode="/" horiz-adv-x="346" 
d="M290 813h130l-322 -926h-129z" />
    <glyph glyph-name="zero" unicode="0" horiz-adv-x="705" 
d="M354 706q147 0 226 -92t79 -263q0 -172 -79 -264.5t-226 -92.5q-148 0 -227.5 92.5t-79.5 263.5q0 172 79.5 264t227.5 92zM354 590q-74 0 -109.5 -57t-35.5 -183q0 -124 35.5 -182t109.5 -58q73 0 108 58t35 182q0 126 -35 183t-108 57z" />
    <glyph glyph-name="one" unicode="1" horiz-adv-x="393" 
d="M-7 700h299v-700h-158v640l69 -69h-210v129z" />
    <glyph glyph-name="two" unicode="2" horiz-adv-x="597" 
d="M297 374q34 34 55 69t21 62q0 35 -25.5 54t-70.5 19t-96.5 -23.5t-98.5 -63.5l-62 114q65 47 135.5 74.5t144.5 27.5q70 0 123.5 -22t84 -62.5t30.5 -95.5t-37.5 -113.5t-96.5 -118.5l-211 -216l-20 48h391v-127h-526v105z" />
    <glyph glyph-name="three" unicode="3" horiz-adv-x="598" 
d="M358 410q90 -10 145.5 -59.5t55.5 -131.5q0 -66 -34.5 -117.5t-97.5 -80t-149 -28.5q-75 0 -146.5 22.5t-121.5 59.5l61 113q43 -36 93 -55t102 -19q44 0 75 12.5t47 36t16 54.5q0 49 -36.5 74t-102.5 25h-113v88l229 223l21 -50h-356l-1 124h479v-92l-254 -241l-18 57z
" />
    <glyph glyph-name="four" unicode="4" horiz-adv-x="603" 
d="M4 160v108l214 432h150l-231 -477l-39 61h473v-124h-567zM330 441h145v-441h-145v441z" />
    <glyph glyph-name="five" unicode="5" horiz-adv-x="623" 
d="M240 375l-58 69q22 0 48 0.5t50 0.5h38q82 0 142 -27t93 -75t33 -110q0 -73 -35 -126.5t-97.5 -83.5t-147.5 -30q-68 0 -141.5 23.5t-129.5 60.5l61 115q43 -34 92.5 -54.5t100.5 -20.5q59 0 93 28t34 77q0 46 -33 72.5t-100 26.5q-12 0 -36 -0.5t-53 -1.5t-56 -2t-44 -3
v386h460v-127h-384l70 69v-267z" />
    <glyph glyph-name="six" unicode="6" horiz-adv-x="632" 
d="M507 543q-30 21 -69 32.5t-79 11.5q-60 0 -99 -26.5t-57.5 -75t-17.5 -115.5q26 42 70 64.5t104 22.5q69 0 119 -28t77.5 -78.5t27.5 -119.5q0 -73 -31.5 -126.5t-88 -82.5t-133.5 -29q-91 0 -157 41.5t-101 118.5t-35 184q0 112 38 195t108.5 129t165.5 46q56 0 115 -15
t103 -41zM327 344q-39 0 -66.5 -15.5t-41.5 -41.5t-14 -58q0 -21 6.5 -41t21 -36t37 -25.5t53.5 -9.5q36 0 62 13.5t40.5 40t14.5 61.5q0 53 -30 82.5t-83 29.5z" />
    <glyph glyph-name="seven" unicode="7" horiz-adv-x="582" 
d="M11 700h549v-109l-276 -591h-167l297 636l41 -63h-373l70 69l-1 -168h-140v226z" />
    <glyph glyph-name="eight" unicode="8" horiz-adv-x="632" 
d="M308 707q75 0 129 -22.5t83.5 -64.5t29.5 -99q0 -47 -24.5 -86t-66.5 -61q58 -23 92.5 -69.5t34.5 -107.5q0 -63 -34 -108.5t-96 -70.5t-147 -25q-84 0 -146 24.5t-96 70t-34 106.5q0 62 36.5 109.5t97.5 70.5q-46 25 -72.5 64.5t-26.5 87.5q0 56 29.5 96.5t83.5 62.5
t127 22zM309 311q-61 0 -94.5 -26.5t-33.5 -74.5t33.5 -75t94.5 -27t95 26.5t34 75.5q0 47 -34 74t-95 27zM309 602q-52 0 -80.5 -23.5t-28.5 -65.5t28.5 -65t80.5 -23t80.5 23t28.5 65t-28.5 65.5t-80.5 23.5z" />
    <glyph glyph-name="nine" unicode="9" horiz-adv-x="630" 
d="M109 158q31 -22 69.5 -33.5t78.5 -11.5q60 0 98.5 27t57 76t17.5 114q-26 -42 -69.5 -64.5t-104.5 -22.5q-68 0 -118 28t-77 79t-27 119q0 73 31.5 126.5t88 82.5t132.5 29q91 0 156.5 -41.5t100.5 -118t35 -184.5q0 -112 -38 -195t-108 -129t-166 -46q-55 0 -114 15.5
t-102 40.5zM293 583q-35 0 -61 -13.5t-40.5 -39t-14.5 -62.5q0 -51 29.5 -81t82.5 -30q40 0 67 15.5t41 41.5t14 58q0 21 -7 41t-21.5 36t-36.5 25t-53 9z" />
    <glyph glyph-name="colon" unicode=":" horiz-adv-x="235" 
d="M117 443q34 0 55.5 -21.5t21.5 -55.5t-21.5 -56t-55.5 -22q-33 0 -55 22t-22 56t22 55.5t55 21.5zM117 146q34 0 55.5 -21.5t21.5 -55.5t-21.5 -56t-55.5 -22q-33 0 -55 22t-22 56t22 55.5t55 21.5z" />
    <glyph glyph-name="semicolon" unicode=";" horiz-adv-x="233" 
d="M117 443q34 0 55.5 -21.5t21.5 -55.5t-21.5 -56t-55.5 -22q-33 0 -55 22t-22 56t22 55.5t55 21.5zM136 -7q-49 -1 -72 22t-23 53q0 34 21.5 55t55.5 21q30 0 52.5 -19.5t22.5 -55.5q0 -17 -6.5 -32t-13.5 -29l-71 -125h-75l69 181z" />
    <glyph glyph-name="less" unicode="&#x3c;" horiz-adv-x="506" 
d="M473 572v-109l-339 -138l339 -139v-109l-440 185v125z" />
    <glyph glyph-name="equal" unicode="=" horiz-adv-x="506" 
d="M33 481h440v-98h-440v98zM33 268h440v-98h-440v98z" />
    <glyph glyph-name="greater" unicode="&#x3e;" horiz-adv-x="506" 
d="M33 84v109l339 138l-339 139v109l440 -185v-125z" />
    <glyph glyph-name="question" unicode="?" horiz-adv-x="462" 
d="M22 483q2 103 61 160t160 57q65 0 112 -20t73 -58t26 -94q0 -38 -12.5 -66.5t-32.5 -50t-42 -40.5t-42 -38.5t-32.5 -43t-12.5 -55.5h-115q0 40 10.5 68t27 49t35 38t35 33.5t27 36t10.5 46.5q0 37 -21 54.5t-59 17.5q-42 0 -65 -23t-24 -71h-119zM220 146
q34 0 55.5 -21.5t21.5 -55.5t-21.5 -56t-55.5 -22q-33 0 -54.5 22t-21.5 56t21.5 55.5t54.5 21.5z" />
    <glyph glyph-name="at" unicode="@" horiz-adv-x="936" 
d="M688 154q0 -27 11.5 -39t29.5 -12q22 0 41.5 21.5t32 59t12.5 86.5q0 73 -23.5 135.5t-67.5 109.5t-107.5 73.5t-142.5 26.5q-73 0 -137 -27t-113 -74.5t-76 -110.5t-27 -136q0 -71 26 -131t72 -105t108.5 -69.5t133.5 -24.5q44 0 96 15t94 46l45 -77q-29 -22 -69.5 -38
t-83.5 -25t-82 -9q-92 0 -171.5 31.5t-138 88t-91.5 133t-33 165.5q0 92 34.5 171t95.5 138t142 92t175 33q93 0 172.5 -32t138 -89.5t91 -135.5t32.5 -171q0 -75 -24.5 -130.5t-67.5 -86t-99 -30.5q-46 0 -77 19t-40 60l-2 16q-30 -43 -71 -63.5t-87 -20.5q-58 0 -108.5 29
t-82 81.5t-31.5 122.5q0 65 26 118.5t73 85.5t111 32q38 0 68 -12.5t49 -28t26 -27.5v58h117v-342zM451 399q-31 0 -55 -17t-37 -45t-13 -62q0 -36 13 -66t37 -48t57 -18q35 0 59.5 17.5t37.5 47.5t13 66q0 35 -13.5 63t-38.5 45t-60 17z" />
    <glyph glyph-name="A" unicode="A" horiz-adv-x="759" 
d="M302 700h162l298 -700h-168l-216 542l-217 -542h-164zM167 263h413v-123h-413v123z" />
    <glyph glyph-name="B" unicode="B" horiz-adv-x="712" 
d="M399 700q77 0 133 -21t86.5 -60.5t30.5 -93.5q0 -57 -32.5 -98.5t-88.5 -55.5q68 -13 107 -60.5t39 -116.5q0 -60 -32.5 -103.5t-91.5 -67t-140 -23.5h-333v700h322zM391 417q44 0 70 21.5t26 59.5q0 37 -26 57.5t-70 19.5h-156v-158h156zM391 125q56 0 88 23t32 65
q0 39 -32 62t-88 22h-156v-172h156z" />
    <glyph glyph-name="C" unicode="C" horiz-adv-x="694" 
d="M584 486q-35 43 -84 67.5t-98 24.5q-45 0 -83.5 -17t-68 -47.5t-45.5 -71.5t-16 -89q0 -47 16 -88t45.5 -71.5t68 -48t83.5 -17.5q48 0 96 22.5t86 60.5l93 -97q-37 -38 -83.5 -66t-97.5 -43.5t-102 -15.5q-79 0 -145.5 27.5t-116 77t-77.5 115.5t-28 143q0 76 28 141
t79 114t118.5 76t147.5 27q51 0 101.5 -14t95 -39.5t79.5 -62.5z" />
    <glyph glyph-name="D" unicode="D" horiz-adv-x="769" 
d="M373 700q82 0 149.5 -25.5t116.5 -72t76 -110.5t27 -142q0 -77 -27 -141t-77 -111t-118.5 -72.5t-151.5 -25.5h-291v700h296zM377 129q45 0 82 16t64.5 45.5t42.5 69.5t15 89t-16 89.5t-44 71t-66.5 46.5t-84.5 16h-135v-443h142z" />
    <glyph glyph-name="E" unicode="E" horiz-adv-x="668" 
d="M77 700h533v-127h-375v-158h337v-127h-337v-161h386v-127h-544v700z" />
    <glyph glyph-name="F" unicode="F" horiz-adv-x="595" 
d="M77 700h503v-127h-345v-177h316v-127h-316v-269h-158v700z" />
    <glyph glyph-name="G" unicode="G" horiz-adv-x="745" 
d="M601 499q-38 37 -89.5 58t-102.5 21q-47 0 -87 -17.5t-70 -48.5t-46.5 -72t-16.5 -89t17 -89.5t47 -73t70 -49t87 -17.5q43 0 93 19t91 51l90 -111q-37 -26 -84.5 -47t-99.5 -33t-100 -12q-80 0 -147.5 27.5t-118.5 76.5t-79 115.5t-28 142.5t29 141.5t80.5 114.5
t121.5 76t151 27q52 0 103 -12.5t97 -35.5t81 -55zM547 352h137v-271h-137v271z" />
    <glyph glyph-name="H" unicode="H" horiz-adv-x="787" 
d="M77 700h158v-294h317v294h158v-700h-158v279h-317v-279h-158v700z" />
    <glyph glyph-name="I" unicode="I" horiz-adv-x="313" 
d="M77 700h158v-700h-158v700z" />
    <glyph glyph-name="J" unicode="J" horiz-adv-x="524" 
d="M460 223q0 -110 -63 -170t-172 -60q-70 0 -127.5 28.5t-101.5 79.5l73 109q37 -39 76.5 -58.5t71.5 -19.5q39 0 61.5 24t22.5 70v344h-241v130h400v-477z" />
    <glyph glyph-name="K" unicode="K" horiz-adv-x="737" 
d="M77 700h158v-333l290 333h184l-474 -523v-177h-158v700zM432 427l294 -427h-189l-210 302z" />
    <glyph glyph-name="L" unicode="L" horiz-adv-x="552" 
d="M77 700h158v-567h299v-133h-457v700z" />
    <glyph glyph-name="M" unicode="M" horiz-adv-x="940" 
d="M77 700h176l218 -436l216 436h175v-700h-142v482l-199 -411h-102l-200 411v-482h-142v700z" />
    <glyph glyph-name="N" unicode="N" horiz-adv-x="788" 
d="M77 700h144l381 -514l-41 -14v528h149v-700h-143l-381 513l42 14v-527h-151v700z" />
    <glyph glyph-name="O" unicode="O" horiz-adv-x="806" 
d="M403 710q80 0 148.5 -27t119.5 -76t79.5 -114t28.5 -142q0 -76 -28.5 -142t-79.5 -115.5t-119.5 -77t-148.5 -27.5t-148.5 27.5t-119.5 77t-79.5 115.5t-28.5 142q0 77 28.5 142.5t79.5 114t119.5 75.5t148.5 27zM405 577q-44 0 -83.5 -17t-69 -48t-46.5 -72t-17 -89
t17 -89.5t47 -73t69 -49t83 -17.5t82.5 17.5t67.5 49t45.5 73t16.5 89.5t-16.5 89t-45.5 72t-67.5 48t-82.5 17z" />
    <glyph glyph-name="P" unicode="P" horiz-adv-x="678" 
d="M374 700q133 0 206.5 -63.5t73.5 -178.5q0 -121 -73.5 -188.5t-206.5 -67.5h-208l69 69v-271h-158v700h297zM366 330q66 0 102 30.5t36 92.5q0 60 -36 90t-102 30h-200l69 69v-382l-69 70h200z" />
    <glyph glyph-name="Q" unicode="Q" horiz-adv-x="812" 
d="M520 43q25 -37 54.5 -59.5t61.5 -22.5q25 0 57.5 14.5t65.5 40.5l57 -99q-40 -37 -93.5 -57.5t-104.5 -20.5q-72 0 -132 43t-96 117zM403 710q80 0 148.5 -27t119.5 -76t79.5 -114t28.5 -142q0 -76 -28.5 -142t-79.5 -115.5t-119.5 -77t-148.5 -27.5t-148.5 27.5
t-119.5 77t-79.5 115.5t-28.5 142q0 77 28.5 142.5t79.5 114t119.5 75.5t148.5 27zM405 577q-44 0 -83.5 -17t-69 -48t-46.5 -72t-17 -89t17 -89.5t47 -73t69 -49t83 -17.5t82.5 17.5t67.5 49t45.5 73t16.5 89.5t-16.5 89t-45.5 72t-67.5 48t-82.5 17z" />
    <glyph glyph-name="R" unicode="R" horiz-adv-x="724" 
d="M381 700q137 0 212.5 -63.5t75.5 -178.5q0 -121 -75.5 -188.5t-212.5 -67.5h-146v-202h-158v700h304zM381 330q65 0 101.5 30.5t36.5 92.5q0 60 -36.5 90t-101.5 30h-146v-243h146zM362 261h154l170 -261h-179z" />
    <glyph glyph-name="S" unicode="S" horiz-adv-x="637" 
d="M538 510q-37 23 -76.5 38.5t-76 24t-65.5 8.5q-40 0 -64.5 -15.5t-24.5 -46.5q0 -29 20.5 -47.5t53.5 -30t73 -23t79.5 -26.5t73 -38.5t53 -60t19.5 -90.5q0 -68 -36 -115t-98.5 -72t-139.5 -25q-58 0 -114 14t-105.5 39.5t-89.5 59.5l63 124q36 -32 79.5 -56t87.5 -37
t81 -13q49 0 76.5 19t27.5 54q0 30 -20 48t-53 30.5t-73 23t-80 25t-73 37t-53.5 57.5t-20.5 89q0 64 34 110.5t95 72t142 25.5q74 0 144 -21.5t122 -55.5z" />
    <glyph glyph-name="T" unicode="T" horiz-adv-x="601" 
d="M8 700h585v-130h-214v-570h-158v570h-213v130z" />
    <glyph glyph-name="U" unicode="U" horiz-adv-x="753" 
d="M223 288q0 -77 43 -121.5t113 -44.5q68 0 109.5 44.5t41.5 121.5v412h158v-412q0 -91 -37.5 -158.5t-107 -104t-165.5 -36.5t-166.5 36.5t-108.5 104t-38 158.5v412h158v-412z" />
    <glyph glyph-name="V" unicode="V" horiz-adv-x="716" 
d="M0 700h170l191 -535l192 535h163l-278 -700h-163z" />
    <glyph glyph-name="W" unicode="W" horiz-adv-x="1094" 
d="M0 700h170l170 -602h-36l169 602h155l171 -602h-36l168 602h163l-237 -700h-163l-165 574l37 -1l-168 -573h-162z" />
    <glyph glyph-name="X" unicode="X" horiz-adv-x="721" 
d="M25 700h184l146 -219l148 219h185l-232 -335l253 -365h-190l-164 239l-162 -239h-185l252 358z" />
    <glyph glyph-name="Y" unicode="Y" horiz-adv-x="666" 
d="M-3 700h159l179 -319l175 319h159l-324 -597h-21zM256 303h158v-303h-158v303z" />
    <glyph glyph-name="Z" unicode="Z" horiz-adv-x="672" 
d="M44 700h591v-103l-391 -469h396v-128h-609v103l392 469h-379v128z" />
    <glyph glyph-name="bracketleft" unicode="[" horiz-adv-x="347" 
d="M72 742h259v-115h-122v-636h122v-115h-259v866z" />
    <glyph glyph-name="backslash" unicode="\" horiz-adv-x="346" 
d="M56 813l321 -926h-130l-321 926h130z" />
    <glyph glyph-name="bracketright" unicode="]" horiz-adv-x="347" 
d="M275 742v-866h-259v115h122v636h-122v115h259z" />
    <glyph glyph-name="asciicircum" unicode="^" horiz-adv-x="562" 
d="M529 137h-110l-138 301l-138 -301h-110l186 388h125z" />
    <glyph glyph-name="underscore" unicode="_" horiz-adv-x="578" 
d="M0 -119h578v-85h-578v85z" />
    <glyph glyph-name="grave" unicode="`" horiz-adv-x="346" 
d="M184 764l104 -151l-112 -10l-128 108z" />
    <glyph glyph-name="a" unicode="a" horiz-adv-x="596" 
d="M264 233q-44 0 -66 -15t-22 -48q0 -32 22.5 -50.5t61.5 -18.5q34 0 60.5 11.5t44 31t21.5 45.5l23 -86q-23 -54 -72 -82t-120 -28q-57 0 -98.5 22t-64 60t-22.5 86q0 75 53 118t152 44h164v-90h-137zM385 333q0 44 -28.5 69t-83.5 25q-36 0 -77 -12.5t-83 -35.5l-48 100
q40 21 78 35t78 21.5t87 7.5q109 0 168 -51t60 -141l1 -351h-151z" />
    <glyph glyph-name="b" unicode="b" horiz-adv-x="684" 
d="M403 542q76 0 132.5 -34.5t88.5 -96.5t32 -145q0 -81 -31 -142t-87 -95t-132 -34q-70 0 -120 32.5t-77 94t-27 144.5q0 86 26.5 148t76 95t118.5 33zM367 422q-39 0 -69.5 -19.5t-47.5 -53.5t-17 -79t17 -79.5t47.5 -53.5t69.5 -19q40 0 70 19t46.5 53.5t16.5 79.5
q0 44 -16.5 78.5t-46.5 54t-70 19.5zM79 742h154v-742h-154v742z" />
    <glyph glyph-name="c" unicode="c" horiz-adv-x="563" 
d="M433 359q-21 27 -52 42t-71 15q-37 0 -66 -18.5t-45.5 -52t-16.5 -78.5q0 -44 16.5 -78t45.5 -52.5t66 -18.5q41 0 73 15.5t52 46.5l106 -70q-34 -55 -95.5 -85t-142.5 -30q-82 0 -144 34t-96.5 95.5t-34.5 142.5q0 82 34.5 144t97 96.5t143.5 34.5q78 0 138 -28.5
t96 -80.5z" />
    <glyph glyph-name="d" unicode="d" horiz-adv-x="685" 
d="M278 543q71 0 121 -33.5t77 -94.5t27 -145q0 -85 -26.5 -147t-76 -95.5t-118.5 -33.5q-76 0 -133.5 34.5t-89 97t-31.5 145.5q0 81 31.5 142t87.5 95.5t131 34.5zM318 420q-40 0 -70.5 -19.5t-47.5 -54.5t-18 -80q1 -44 18 -78.5t47.5 -54t70.5 -19.5q39 0 69.5 19.5
t47.5 54t17 78.5q0 46 -17 80.5t-47.5 54t-69.5 19.5zM452 742h153v-742h-153v742z" />
    <glyph glyph-name="e" unicode="e" horiz-adv-x="597" 
d="M425 312q-1 37 -15.5 63.5t-41.5 41.5t-62 15q-39 0 -68 -20t-45 -55t-16 -81q0 -52 18 -89t51 -57t76 -20q78 0 136 58l81 -80q-40 -45 -98.5 -69t-131.5 -24q-86 0 -149 34t-97.5 95.5t-34.5 142.5q0 83 35 144.5t97.5 95.5t144.5 35q95 0 155.5 -39.5t88 -111
t20.5 -169.5h-414v90h270z" />
    <glyph glyph-name="f" unicode="f" horiz-adv-x="380" 
d="M103 565q0 61 27 102t72 61.5t99 20.5q27 0 54.5 -6t51.5 -16l-23 -116q-15 6 -31.5 10.5t-32.5 4.5q-17 0 -32 -6.5t-23.5 -21t-8.5 -36.5v-562h-153v565zM31 514h352v-103h-352v103z" />
    <glyph glyph-name="g" unicode="g" horiz-adv-x="645" 
d="M578 50q0 -76 -36 -132t-100 -86.5t-151 -30.5q-68 0 -127.5 19.5t-106.5 50.5l57 104q37 -26 79 -40.5t88 -14.5q44 0 76.5 15.5t50 44t17.5 66.5v491h153v-487zM259 542q68 1 116 -30t73.5 -88.5t24.5 -137.5q1 -80 -24 -138t-72 -89t-114 -31q-70 0 -122.5 32.5
t-82.5 91t-30 135.5t29 133.5t81.5 89t120.5 32.5zM299 427q-37 0 -66 -18t-44.5 -50.5t-16.5 -75.5q1 -42 16.5 -74.5t44 -50.5t66.5 -18q37 0 65.5 18t44.5 50.5t16 74.5q0 43 -16 75.5t-44.5 50.5t-65.5 18z" />
    <glyph glyph-name="h" unicode="h" horiz-adv-x="675" 
d="M463 294q0 53 -28.5 83t-77.5 30q-58 -1 -91 -41t-33 -101h-38q0 94 27 155.5t77.5 92t119.5 30.5q61 0 105.5 -25.5t68.5 -71.5t24 -109v-337h-154v294zM79 742h154v-742h-154v742z" />
    <glyph glyph-name="i" unicode="i" horiz-adv-x="302" 
d="M74 537h154v-537h-154v537zM151 774q37 0 60.5 -24t23.5 -60t-23.5 -60t-60.5 -24q-35 0 -59 24t-24 60t24 60t59 24z" />
    <glyph glyph-name="j" unicode="j" horiz-adv-x="298" 
d="M-30 -71q11 -3 21.5 -5.5t21.5 -3.5q63 -2 63 80v537h153v-559q0 -84 -48.5 -131.5t-133.5 -46.5q-61 2 -109 21zM151 774q37 0 60.5 -24t23.5 -60t-23.5 -60t-60.5 -24q-35 0 -59 24t-24 60t24 60t59 24z" />
    <glyph glyph-name="k" unicode="k" horiz-adv-x="619" 
d="M79 742h154v-742h-154v742zM430 537h175l-381 -399v181zM395 348l219 -348h-182l-150 256z" />
    <glyph glyph-name="l" unicode="l" horiz-adv-x="313" 
d="M79 742h154v-742h-154v742z" />
    <glyph glyph-name="m" unicode="m" horiz-adv-x="1039" 
d="M451 294q0 53 -27.5 83.5t-75.5 30.5q-56 -2 -88 -42t-32 -101h-39q0 94 27 155.5t76.5 92t117.5 30.5q60 0 103.5 -25.5t67 -71.5t23.5 -109v-337h-153v294zM827 294q0 53 -28 83.5t-76 30.5q-55 -2 -87 -42t-32 -101h-39q0 94 27 155.5t76.5 92t117.5 30.5
q60 0 103.5 -25.5t67 -71.5t23.5 -109v-337h-153v294zM74 537h154v-537h-154v537z" />
    <glyph glyph-name="n" unicode="n" horiz-adv-x="670" 
d="M457 294q0 53 -28.5 83t-77.5 30q-57 -1 -90 -41t-33 -101h-39q0 94 27.5 155.5t78 92t119.5 30.5q60 0 104.5 -25.5t68.5 -71.5t24 -109v-337h-154v294zM74 537h154v-537h-154v537z" />
    <glyph glyph-name="o" unicode="o" horiz-adv-x="633" 
d="M317 542q86 0 151 -34t101 -95.5t36 -143.5t-36 -144t-101 -96t-151 -34t-151.5 34t-101.5 96t-36 144t36 143.5t101.5 95.5t151.5 34zM317 419q-40 0 -70.5 -19t-47.5 -53.5t-17 -79.5t17 -79.5t47.5 -54t70.5 -19.5t70 19.5t47 54t17 79.5t-17 79.5t-47 53.5t-70 19z
" />
    <glyph glyph-name="p" unicode="p" horiz-adv-x="684" 
d="M403 542q76 0 132.5 -34.5t88.5 -96.5t32 -145q0 -81 -31 -142t-87 -95t-132 -34q-70 0 -120 32.5t-77 94t-27 144.5q0 86 26.5 148t76 95t118.5 33zM367 422q-39 0 -69.5 -19.5t-47.5 -53.5t-17 -79t17 -79.5t47.5 -53.5t69.5 -19q40 0 70 19t46.5 53.5t16.5 79.5
q0 44 -16.5 78.5t-46.5 54t-70 19.5zM79 537h154v-731h-154v731z" />
    <glyph glyph-name="q" unicode="q" horiz-adv-x="685" 
d="M278 543q71 0 121 -33.5t77 -94.5t27 -145q0 -85 -26.5 -147t-76 -95.5t-118.5 -33.5q-76 0 -133.5 34.5t-89 97t-31.5 145.5q0 81 31.5 142t87.5 95.5t131 34.5zM318 420q-40 0 -70.5 -19.5t-47.5 -54.5t-18 -80q1 -44 18 -78.5t47.5 -54t70.5 -19.5q39 0 69.5 19.5
t47.5 54t17 78.5q0 46 -17 80.5t-47.5 54t-69.5 19.5zM452 537h153v-731h-153v731z" />
    <glyph glyph-name="r" unicode="r" horiz-adv-x="416" 
d="M406 404q-54 5 -94.5 -13t-62 -52t-21.5 -81l-39 7q0 88 26.5 150t75.5 95t115 33v-139zM74 537h154v-537h-154v537z" />
    <glyph glyph-name="s" unicode="s" horiz-adv-x="499" 
d="M413 383q-44 24 -87 37.5t-77 13.5q-27 0 -44.5 -10t-17.5 -32q0 -21 20.5 -33.5t53 -21.5t68.5 -20.5t68.5 -29.5t52.5 -48.5t20 -78.5q0 -54 -29 -91.5t-79 -56t-111 -18.5q-65 0 -126 19t-107 56l50 100q42 -32 92.5 -49.5t94.5 -17.5q20 0 35 5t24 15t9 25
q0 22 -20 35.5t-52 23t-68 20t-67.5 28.5t-51.5 47.5t-20 76.5q0 56 29 92.5t77 54.5t106 18q56 0 110.5 -15t99.5 -43z" />
    <glyph glyph-name="t" unicode="t" horiz-adv-x="426" 
d="M251 183q0 -36 14 -50.5t38 -13.5q15 0 33 5t39 15l32 -108q-30 -18 -66 -28t-74 -10q-48 0 -86.5 18t-60.5 55t-22 92v504h153v-479zM23 514h374v-103h-374v103z" />
    <glyph glyph-name="u" unicode="u" horiz-adv-x="660" 
d="M212 242q0 -52 27 -82t74 -30q56 1 87.5 41t31.5 101h37q0 -94 -26.5 -155.5t-75 -91.5t-115.5 -31q-60 0 -103 25.5t-67 71.5t-24 109v337h154v-295zM432 537h153v-537h-153v537z" />
    <glyph glyph-name="v" unicode="v" horiz-adv-x="556" 
d="M-3 537h159l127 -396l126 396h153l-203 -537h-158z" />
    <glyph glyph-name="w" unicode="w" horiz-adv-x="923" 
d="M-3 537h157l120 -390l116 390h151l118 -390l118 390h152l-196 -537h-154l-115 362l-116 -362h-154z" />
    <glyph glyph-name="x" unicode="x" horiz-adv-x="589" 
d="M20 537h176l99 -166l105 166h168l-171 -262l183 -275h-177l-108 179l-118 -179h-170l186 275z" />
    <glyph glyph-name="y" unicode="y" horiz-adv-x="564" 
d="M335 -62q-29 -69 -78 -104t-119 -35q-42 0 -77.5 12.5t-68.5 38.5l65 107q35 -28 70 -28q24 0 42 12.5t29 37.5l15 32l-223 526h159l141 -376l127 376h154z" />
    <glyph glyph-name="z" unicode="z" horiz-adv-x="548" 
d="M47 537l460 -1v-94l-277 -326h287v-117l-479 1v94l277 326h-268v117z" />
    <glyph glyph-name="braceleft" unicode="{" horiz-adv-x="356" 
d="M68 367q21 0 30 11.5t9 36.5v193q0 50 16.5 79.5t53.5 42.5t99 13h59v-114q-52 0 -71 -15.5t-19 -51.5v-138q0 -39 -13 -60t-38 -33.5t-63 -27.5l-63 -53h-36v117h36zM131 314q38 -15 63 -27.5t38 -33t13 -61.5v-137q0 -35 19 -51t71 -16v-114h-59q-62 0 -99 13t-53.5 43
t-16.5 80v192q0 26 -9 37t-30 11h-36v117h36z" />
    <glyph glyph-name="bar" unicode="|" horiz-adv-x="289" 
d="M87 806h115v-918h-115v918z" />
    <glyph glyph-name="braceright" unicode="}" horiz-adv-x="356" 
d="M288 367h36v-117h-36l-63 53q-38 15 -63 27.5t-38 33.5t-13 60v138q0 36 -19 51.5t-71 15.5v114h59q62 0 99 -13t53.5 -42.5t16.5 -79.5v-193q0 -25 9.5 -36.5t29.5 -11.5zM225 314l63 53h36v-117h-36q-20 0 -29.5 -11t-9.5 -37v-192q0 -50 -16.5 -80t-53.5 -43t-99 -13
h-59v114q52 0 71 16t19 51v137q0 41 13 61.5t38 33t63 27.5z" />
    <glyph glyph-name="asciitilde" unicode="~" horiz-adv-x="506" 
d="M447 400q0 -80 -26.5 -119t-80.5 -39q-26 0 -46 7.5t-37 18t-31.5 19t-27.5 8.5q-34 0 -34 -49h-105q0 81 27 120t81 39q25 0 45.5 -7.5t37 -18t31 -19t28.5 -8.5q35 0 35 48h103z" />
    <glyph glyph-name="uni00A0" unicode="&#xa0;" horiz-adv-x="270" 
 />
    <glyph glyph-name="exclamdown" unicode="&#xa1;" horiz-adv-x="240" 
d="M203 -159h-147v176l27 285h93l27 -285v-176zM131 390q-33 0 -55 21.5t-22 55.5t22 55.5t55 21.5q34 0 55.5 -21.5t21.5 -55.5t-21.5 -55.5t-55.5 -21.5z" />
    <glyph glyph-name="cent" unicode="&#xa2;" horiz-adv-x="600" 
d="M250 693h115v-215h-115v215zM250 67h115v-216h-115v216zM433 359q-21 27 -52 42t-71 15q-37 0 -66 -18.5t-45.5 -52t-16.5 -78.5q0 -44 16.5 -78t45.5 -52.5t66 -18.5q41 0 73 15.5t52 46.5l106 -70q-34 -55 -95.5 -85t-142.5 -30q-82 0 -144 34t-96.5 95.5t-34.5 142.5
q0 82 34.5 144t97 96.5t143.5 34.5q78 0 138 -28.5t96 -80.5z" />
    <glyph glyph-name="sterling" unicode="&#xa3;" horiz-adv-x="557" 
d="M31 379h407v-64h-407v64zM339 707q60 0 114 -22.5t94 -65.5l-60 -115q-65 70 -131 70q-43 0 -65.5 -25t-22.5 -75v-423l-69 69h334v-120h-502v120h148l-70 -69v426q0 110 60.5 170t169.5 60z" />
    <glyph glyph-name="currency" unicode="&#xa4;" horiz-adv-x="705" 
d="M352 581q55 0 103 -20.5t84 -56t56.5 -82.5t20.5 -102q0 -53 -20.5 -100t-56.5 -82.5t-84 -56t-103 -20.5q-54 0 -102 20.5t-84 56t-56.5 82.5t-20.5 100q0 55 20.5 102t56.5 82.5t84 56t102 20.5zM352 461q-39 0 -71.5 -19t-51.5 -51t-19 -71q0 -38 19 -69.5t51.5 -50
t71.5 -18.5t72 18.5t52.5 50t19.5 69.5q0 39 -20 71t-52.5 51t-71.5 19zM114 642l112 -112l-87 -86l-111 112zM139 191l87 -86l-112 -112l-86 86zM591 642l86 -86l-112 -112l-87 86zM565 191l112 -112l-86 -86l-113 112z" />
    <glyph glyph-name="yen" unicode="&#xa5;" horiz-adv-x="672" 
d="M0 700h158l180 -319l175 319h159l-325 -597h-20zM259 303h158v-303h-158v303zM65 314h546v-64h-546v64zM65 196h546v-64h-546v64z" />
    <glyph glyph-name="brokenbar" unicode="&#xa6;" horiz-adv-x="289" 
d="M87 806h115v-344h-115v344zM87 232h115v-344h-115v344z" />
    <glyph glyph-name="section" unicode="&#xa7;" horiz-adv-x="530" 
d="M439 542q-47 26 -89 38.5t-74 12.5q-35 0 -55 -13t-20 -33q0 -24 22 -38.5t56.5 -25.5t72.5 -23.5t72.5 -30.5t56.5 -47t22 -75q0 -30 -13 -56t-36 -45.5t-53 -30.5q37 -19 54.5 -42t17.5 -64q0 -45 -26.5 -80.5t-75.5 -55.5t-116 -20q-64 0 -125.5 19.5t-111.5 57.5
l44 94q48 -33 96.5 -50.5t92.5 -17.5q25 0 43 6.5t28 18t10 24.5q0 23 -21.5 37.5t-55 25.5t-71.5 23t-72 30t-55.5 47t-21.5 75t30 79.5t81 50.5q-47 22 -64.5 47.5t-17.5 59.5q0 46 26 80.5t73.5 54t111.5 19.5q53 0 106.5 -14.5t104.5 -43.5zM253 361q-40 0 -60.5 -13
t-20.5 -35q0 -19 14.5 -34t39.5 -23t55 -8q27 0 45.5 6.5t27.5 18t9 25.5q0 29 -31.5 46t-78.5 17z" />
    <glyph glyph-name="dieresis" unicode="&#xa8;" horiz-adv-x="403" 
d="M119 756q30 0 50 -20t20 -50t-20 -50.5t-50 -20.5t-50 20.5t-20 50.5t20 50t50 20zM306 756q29 0 49 -20t20 -50t-20 -50.5t-49 -20.5q-31 0 -51 20.5t-20 50.5t20 50t51 20z" />
    <glyph glyph-name="copyright" unicode="&#xa9;" horiz-adv-x="732" 
d="M364 9q-71 0 -132.5 26.5t-107.5 73.5t-71.5 108.5t-25.5 130.5t26 131t72 109t107.5 74t133.5 27q71 0 132.5 -26.5t107.5 -73t72 -108t26 -131.5q0 -69 -26 -131t-72.5 -109t-108 -74t-133.5 -27zM369 179q-49 0 -88.5 22.5t-62.5 61t-23 86.5t23.5 86t63.5 60t90 22
q36 0 71.5 -14.5t60.5 -40.5l-44 -51q-17 20 -40 31t-47 11q-28 0 -51.5 -13.5t-36.5 -36.5t-13 -53q0 -29 13 -52.5t36.5 -37.5t51.5 -14q23 0 46 10t41 28l44 -46q-26 -27 -62 -43t-73 -16zM364 81q57 0 105.5 21.5t85.5 58.5t57 85.5t20 103.5t-20 103.5t-56 85
t-84.5 57.5t-105.5 21t-105.5 -21.5t-84.5 -58.5t-56.5 -85.5t-20.5 -103.5t20 -103t56 -85t84.5 -58t104.5 -21z" />
    <glyph glyph-name="ordfeminine" unicode="&#xaa;" horiz-adv-x="390" 
d="M176 597q-25 0 -38 -9.5t-13 -27.5t13 -29t35 -11q23 0 41.5 9.5t30.5 31.5l15 -32q-15 -36 -46.5 -55.5t-77.5 -19.5q-51 0 -81 27t-30 71q0 46 33.5 69.5t95.5 24.5h101v-49h-79zM244 654q0 25 -16.5 38t-50.5 13q-22 0 -50 -6.5t-56 -19.5l-25 69q39 16 79 25t77 9
q69 0 108 -30.5t38 -85.5v-208h-103z" />
    <glyph glyph-name="guillemotleft" unicode="&#xab;" horiz-adv-x="487" 
d="M128 444h125l-106 -180l106 -180h-125l-119 180zM336 444h125l-106 -180l106 -180h-125l-119 180z" />
    <glyph glyph-name="logicalnot" unicode="&#xac;" horiz-adv-x="572" 
d="M33 418h472v-98h-472v98zM394 418h111v-278h-111v278z" />
    <glyph glyph-name="uni00AD" unicode="&#xad;" horiz-adv-x="372" 
d="M57 355h258v-99h-258v99z" />
    <glyph glyph-name="registered" unicode="&#xae;" horiz-adv-x="732" 
d="M364 9q-71 0 -132.5 26.5t-107.5 73.5t-71.5 108.5t-25.5 130.5t26 131t72 109t107.5 74t133.5 27q71 0 132.5 -26.5t107.5 -73t72 -108t26 -131.5q0 -69 -26 -131t-72.5 -109t-108 -74t-133.5 -27zM435 196l-68 122h70l81 -122h-83zM364 81q57 0 105.5 21.5t85.5 58.5
t57 85.5t20 103.5t-20 103.5t-56 85t-84.5 57.5t-105.5 21t-105.5 -21.5t-84.5 -58.5t-56.5 -85.5t-20.5 -103.5t20 -103t56 -85t84.5 -58t104.5 -21zM237 196v327h138q64 0 99 -29.5t35 -83.5q0 -56 -35 -87.5t-99 -31.5h-66v-95h-72zM309 348h66q31 0 48 15.5t17 44.5
t-17 44t-48 15h-66v-119z" />
    <glyph glyph-name="macron" unicode="&#xaf;" horiz-adv-x="346" 
d="M24 732h303v-90h-303v90z" />
    <glyph glyph-name="degree" unicode="&#xb0;" horiz-adv-x="365" 
d="M201 814q32 0 59 -15.5t42.5 -42t15.5 -59.5q0 -31 -15.5 -58t-42.5 -42.5t-59 -15.5q-33 0 -60 15.5t-42.5 42.5t-15.5 58q0 33 15.5 59.5t42.5 42t60 15.5zM200 753q-23 0 -39.5 -16.5t-16.5 -39.5q0 -22 16.5 -38.5t40.5 -16.5q23 0 39.5 16.5t16.5 38.5
q0 23 -16.5 39.5t-40.5 16.5z" />
    <glyph glyph-name="plusminus" unicode="&#xb1;" horiz-adv-x="498" 
d="M35 426h428v-74h-428v74zM212 598h75v-418h-75v418zM35 98h428v-76h-428v76z" />
    <glyph glyph-name="uni00B2" unicode="&#xb2;" horiz-adv-x="372" 
d="M177 585q18 19 30 38.5t12 32.5q0 18 -13 28t-37 10q-26 0 -57 -14t-61 -38l-42 75q42 30 86.5 46.5t90.5 16.5q65 0 106 -29.5t41 -79.5q0 -33 -22.5 -68t-59.5 -70l-91 -92h186v-81h-324v68z" />
    <glyph glyph-name="uni00B3" unicode="&#xb3;" horiz-adv-x="364" 
d="M231 604q47 -7 77.5 -36.5t30.5 -77.5q0 -59 -45 -97t-121 -38q-45 0 -88.5 14t-73.5 36l45 80q24 -25 51.5 -38t56.5 -13q33 0 50.5 14.5t17.5 40.5q0 27 -17.5 40t-50.5 13h-69v56l100 99h-162v77h286v-60l-109 -107z" />
    <glyph glyph-name="acute" unicode="&#xb4;" horiz-adv-x="350" 
d="M164 764l136 -53l-136 -108l-112 10z" />
    <glyph glyph-name="uni00B5" unicode="&#xb5;" horiz-adv-x="681" 
d="M79 537h154v-731h-154v731zM233 242q0 -52 27.5 -82t74.5 -30q55 1 86.5 41t31.5 101h37q0 -94 -26 -155.5t-75 -91.5t-116 -31q-59 0 -102.5 25.5t-67.5 71.5t-24 109v337h154v-295zM453 537h154v-537h-154v537z" />
    <glyph glyph-name="paragraph" unicode="&#xb6;" horiz-adv-x="639" 
d="M221 337q-7 -1 -14 -1h-14q-59 0 -97.5 20t-60 50.5t-30.5 65t-9 63.5q0 53 23.5 100t75.5 77t138 30h328v-850h-115v762h-110v-762h-115v445z" />
    <glyph glyph-name="periodcentered" unicode="&#xb7;" horiz-adv-x="232" 
d="M115 373q37 0 60.5 -24t23.5 -60t-23.5 -60t-60.5 -24q-35 0 -59 24t-24 60t24 60t59 24z" />
    <glyph glyph-name="cedilla" unicode="&#xb8;" horiz-adv-x="311" 
d="M136 9l90 -9l-20 -54q45 -9 63.5 -31t18.5 -49q0 -32 -17 -52.5t-45 -30.5t-61 -10q-27 0 -54.5 5.5t-50.5 14.5l26 74q12 -5 26.5 -7.5t27.5 -2.5q19 0 30 6.5t11 16.5q0 11 -14 17.5t-38 6.5h-14h-13z" />
    <glyph glyph-name="uni00B9" unicode="&#xb9;" horiz-adv-x="253" 
d="M3 776h190v-416h-110v332h-80v84z" />
    <glyph glyph-name="ordmasculine" unicode="&#xba;" horiz-adv-x="411" 
d="M205 781q55 0 96 -20t64 -57t23 -86t-23 -85.5t-64 -57t-96 -20.5q-81 0 -131 45t-50 118q0 49 22 86t63 57t96 20zM205 700q-33 0 -54 -23t-21 -60t21 -60t54 -23q34 0 54.5 23t20.5 60t-20.5 60t-54.5 23z" />
    <glyph glyph-name="guillemotright" unicode="&#xbb;" horiz-adv-x="495" 
d="M151 84h-125l106 180l-106 180h125l119 -180zM359 84h-125l106 180l-106 180h125l119 -180z" />
    <glyph glyph-name="onequarter" unicode="&#xbc;" horiz-adv-x="812" 
d="M3 701h190v-416h-110v332h-80v84zM567 700h110l-504 -700h-112zM581 416h104l-131 -249h95v94h102v-94h59v-76h-59v-91h-102v91h-205v71z" />
    <glyph glyph-name="onehalf" unicode="&#xbd;" horiz-adv-x="849" 
d="M3 701h190v-416h-110v332h-80v84zM567 700h110l-504 -700h-112zM654 225q18 19 30 38.5t12 32.5q0 18 -13 28t-37 10q-26 0 -57 -14t-61 -38l-42 75q42 30 86.5 46.5t90.5 16.5q65 0 106 -29.5t41 -79.5q0 -33 -22.5 -68t-59.5 -70l-91 -92h186v-81h-324v68z" />
    <glyph glyph-name="threequarters" unicode="&#xbe;" horiz-adv-x="892" 
d="M231 530q47 -7 77.5 -36.5t30.5 -77.5q0 -59 -45 -97t-121 -38q-45 0 -88.5 14t-73.5 36l45 80q24 -25 51.5 -38t56.5 -13q33 0 50.5 14.5t17.5 40.5q0 27 -17.5 40t-50.5 13h-69v56l100 99h-162v77h286v-60l-109 -107zM647 700h110l-504 -700h-112zM661 416h104
l-131 -249h95v94h102v-94h59v-76h-59v-91h-102v91h-205v71z" />
    <glyph glyph-name="questiondown" unicode="&#xbf;" horiz-adv-x="462" 
d="M440 52q-1 -102 -60.5 -159t-160.5 -57q-64 0 -111.5 20t-73.5 58.5t-26 93.5q0 38 12.5 66.5t32.5 50t42 40.5t42 38.5t32.5 43t12.5 55.5h116q0 -40 -10.5 -68t-27 -49t-35.5 -38t-35 -33.5t-27 -36t-11 -46.5q0 -38 21.5 -55t59.5 -17q41 0 64 23t24 71zM242 390
q-34 0 -55.5 21.5t-21.5 55.5t21.5 56t55.5 22q33 0 55 -22t22 -56t-22 -55.5t-55 -21.5z" />
    <glyph glyph-name="Agrave" unicode="&#xc0;" horiz-adv-x="759" 
d="M302 700h162l298 -700h-168l-216 542l-217 -542h-164zM167 263h413v-123h-413v123zM345 915l104 -151l-112 -10l-128 108z" />
    <glyph glyph-name="Aacute" unicode="&#xc1;" horiz-adv-x="759" 
d="M302 700h162l298 -700h-168l-216 542l-217 -542h-164zM167 263h413v-123h-413v123zM414 915l136 -53l-136 -108l-112 10z" />
    <glyph glyph-name="Acircumflex" unicode="&#xc2;" horiz-adv-x="759" 
d="M302 700h162l298 -700h-168l-216 542l-217 -542h-164zM167 263h413v-123h-413v123zM309 907h141l109 -147h-122l-99 110h83l-99 -110h-121z" />
    <glyph glyph-name="Atilde" unicode="&#xc3;" horiz-adv-x="759" 
d="M302 700h162l298 -700h-168l-216 542l-217 -542h-164zM167 263h413v-123h-413v123zM555 902q0 -43 -9 -76.5t-29 -52t-54 -18.5q-22 0 -41.5 7t-36.5 16.5t-30.5 16.5t-24.5 7q-16 0 -21.5 -12t-6.5 -31h-91q0 43 8.5 76t29 52t54.5 19q22 0 41.5 -7t36.5 -16.5
t30.5 -16.5t24.5 -7q16 0 21.5 12t6.5 31h91z" />
    <glyph glyph-name="Adieresis" unicode="&#xc4;" horiz-adv-x="759" 
d="M302 700h162l298 -700h-168l-216 542l-217 -542h-164zM167 263h413v-123h-413v123zM287 897q31 0 50.5 -20t19.5 -50t-19.5 -50t-50.5 -20q-30 0 -50 20t-20 50q0 31 20 50.5t50 19.5zM474 897q30 0 50 -20t20 -50t-20 -50t-50 -20q-31 0 -51 20t-20 50q0 31 20 50.5
t51 19.5z" />
    <glyph glyph-name="Aring" unicode="&#xc5;" horiz-adv-x="759" 
d="M302 700h162l298 -700h-168l-216 542l-217 -542h-164zM167 263h413v-123h-413v123zM380 972q32 0 58.5 -15.5t42 -41t15.5 -57.5q0 -31 -15.5 -57.5t-42 -42t-58.5 -15.5q-31 0 -57.5 15.5t-42.5 41.5t-16 58t16 57.5t42.5 41t57.5 15.5zM380 904q-19 0 -33 -13.5
t-14 -32.5t14 -33t33 -14q20 0 33.5 14t13.5 33t-13.5 32.5t-33.5 13.5z" />
    <glyph glyph-name="AE" unicode="&#xc6;" horiz-adv-x="1085" 
d="M495 700h532v-127h-375v-158h338v-127h-338v-161h386v-127h-543v700zM397 700h365l3 -121h-292l-312 -579h-164zM201 272h378l-4 -115h-377z" />
    <glyph glyph-name="Ccedilla" unicode="&#xc7;" horiz-adv-x="694" 
d="M584 486q-35 43 -84 67.5t-98 24.5q-45 0 -83.5 -17t-68 -47.5t-45.5 -71.5t-16 -89q0 -47 16 -88t45.5 -71.5t68 -48t83.5 -17.5q48 0 96 22.5t86 60.5l93 -97q-37 -38 -83.5 -66t-97.5 -43.5t-102 -15.5q-79 0 -145.5 27.5t-116 77t-77.5 115.5t-28 143q0 76 28 141
t79 114t118.5 76t147.5 27q51 0 101.5 -14t95 -39.5t79.5 -62.5zM343 9l90 -9l-20 -54q45 -9 63.5 -31t18.5 -49q0 -32 -17 -52.5t-45 -30.5t-61 -10q-27 0 -54.5 5.5t-50.5 14.5l26 74q12 -5 26.5 -7.5t27.5 -2.5q19 0 30 6.5t11 16.5q0 11 -14 17.5t-38 6.5h-14h-13z" />
    <glyph glyph-name="Egrave" unicode="&#xc8;" horiz-adv-x="668" 
d="M77 700h533v-127h-375v-158h337v-127h-337v-161h386v-127h-544v700zM315 915l104 -151l-112 -10l-128 108z" />
    <glyph glyph-name="Eacute" unicode="&#xc9;" horiz-adv-x="668" 
d="M77 700h533v-127h-375v-158h337v-127h-337v-161h386v-127h-544v700zM384 915l136 -53l-136 -108l-112 10z" />
    <glyph glyph-name="Ecircumflex" unicode="&#xca;" horiz-adv-x="668" 
d="M77 700h533v-127h-375v-158h337v-127h-337v-161h386v-127h-544v700zM279 907h141l109 -147h-122l-99 110h83l-99 -110h-121z" />
    <glyph glyph-name="Edieresis" unicode="&#xcb;" horiz-adv-x="668" 
d="M77 700h533v-127h-375v-158h337v-127h-337v-161h386v-127h-544v700zM257 897q31 0 50.5 -20t19.5 -50t-19.5 -50t-50.5 -20q-30 0 -50 20t-20 50q0 31 20 50.5t50 19.5zM444 897q30 0 50 -20t20 -50t-20 -50t-50 -20q-31 0 -51 20t-20 50q0 31 20 50.5t51 19.5z" />
    <glyph glyph-name="Igrave" unicode="&#xcc;" horiz-adv-x="313" 
d="M77 700h158v-700h-158v700zM122 915l104 -151l-112 -10l-128 108z" />
    <glyph glyph-name="Iacute" unicode="&#xcd;" horiz-adv-x="313" 
d="M77 700h158v-700h-158v700zM191 915l136 -53l-136 -108l-112 10z" />
    <glyph glyph-name="Icircumflex" unicode="&#xce;" horiz-adv-x="313" 
d="M77 700h158v-700h-158v700zM86 907h141l109 -147h-122l-99 110h83l-99 -110h-121z" />
    <glyph glyph-name="Idieresis" unicode="&#xcf;" horiz-adv-x="313" 
d="M77 700h158v-700h-158v700zM63 897q31 0 50.5 -20t19.5 -50t-19.5 -50t-50.5 -20q-30 0 -50 20t-20 50q0 31 20 50.5t50 19.5zM250 897q30 0 50 -20t20 -50t-20 -50t-50 -20q-31 0 -51 20t-20 50q0 31 20 50.5t51 19.5z" />
    <glyph glyph-name="Eth" unicode="&#xd0;" horiz-adv-x="769" 
d="M9 389h401v-77h-401v77zM373 700q82 0 149.5 -25.5t116.5 -72t76 -110.5t27 -142q0 -77 -27 -141t-77 -111t-118.5 -72.5t-151.5 -25.5h-291v700h296zM377 129q45 0 82 16t64.5 45.5t42.5 69.5t15 89t-15.5 89.5t-44 70.5t-67 46.5t-84.5 16.5h-135v-443h142z" />
    <glyph glyph-name="Ntilde" unicode="&#xd1;" horiz-adv-x="788" 
d="M77 700h144l381 -514l-41 -14v528h149v-700h-143l-381 513l42 14v-527h-151v700zM576 902q0 -43 -9 -76.5t-29 -52t-54 -18.5q-22 0 -41.5 7t-36.5 16.5t-30.5 16.5t-24.5 7q-16 0 -21.5 -12t-6.5 -31h-91q0 43 8.5 76t29 52t54.5 19q22 0 41.5 -7t36.5 -16.5t30.5 -16.5
t24.5 -7q16 0 21.5 12t6.5 31h91z" />
    <glyph glyph-name="Ograve" unicode="&#xd2;" horiz-adv-x="806" 
d="M403 710q80 0 148.5 -27t119.5 -76t79.5 -114t28.5 -142q0 -76 -28.5 -142t-79.5 -115.5t-119.5 -77t-148.5 -27.5t-148.5 27.5t-119.5 77t-79.5 115.5t-28.5 142q0 77 28.5 142.5t79.5 114t119.5 75.5t148.5 27zM405 577q-44 0 -83.5 -17t-69 -48t-46.5 -72t-17 -89
t17 -89.5t47 -73t69 -49t83 -17.5t82.5 17.5t67.5 49t45.5 73t16.5 89.5t-16.5 89t-45.5 72t-67.5 48t-82.5 17zM369 915l104 -151l-112 -10l-128 108z" />
    <glyph glyph-name="Oacute" unicode="&#xd3;" horiz-adv-x="806" 
d="M403 710q80 0 148.5 -27t119.5 -76t79.5 -114t28.5 -142q0 -76 -28.5 -142t-79.5 -115.5t-119.5 -77t-148.5 -27.5t-148.5 27.5t-119.5 77t-79.5 115.5t-28.5 142q0 77 28.5 142.5t79.5 114t119.5 75.5t148.5 27zM405 577q-44 0 -83.5 -17t-69 -48t-46.5 -72t-17 -89
t17 -89.5t47 -73t69 -49t83 -17.5t82.5 17.5t67.5 49t45.5 73t16.5 89.5t-16.5 89t-45.5 72t-67.5 48t-82.5 17zM438 915l136 -53l-136 -108l-112 10z" />
    <glyph glyph-name="Ocircumflex" unicode="&#xd4;" horiz-adv-x="806" 
d="M403 710q80 0 148.5 -27t119.5 -76t79.5 -114t28.5 -142q0 -76 -28.5 -142t-79.5 -115.5t-119.5 -77t-148.5 -27.5t-148.5 27.5t-119.5 77t-79.5 115.5t-28.5 142q0 77 28.5 142.5t79.5 114t119.5 75.5t148.5 27zM405 577q-44 0 -83.5 -17t-69 -48t-46.5 -72t-17 -89
t17 -89.5t47 -73t69 -49t83 -17.5t82.5 17.5t67.5 49t45.5 73t16.5 89.5t-16.5 89t-45.5 72t-67.5 48t-82.5 17zM333 907h141l109 -147h-122l-99 110h83l-99 -110h-121z" />
    <glyph glyph-name="Otilde" unicode="&#xd5;" horiz-adv-x="806" 
d="M403 710q80 0 148.5 -27t119.5 -76t79.5 -114t28.5 -142q0 -76 -28.5 -142t-79.5 -115.5t-119.5 -77t-148.5 -27.5t-148.5 27.5t-119.5 77t-79.5 115.5t-28.5 142q0 77 28.5 142.5t79.5 114t119.5 75.5t148.5 27zM405 577q-44 0 -83.5 -17t-69 -48t-46.5 -72t-17 -89
t17 -89.5t47 -73t69 -49t83 -17.5t82.5 17.5t67.5 49t45.5 73t16.5 89.5t-16.5 89t-45.5 72t-67.5 48t-82.5 17zM578 902q0 -43 -9 -76.5t-29 -52t-54 -18.5q-22 0 -41.5 7t-36.5 16.5t-30.5 16.5t-24.5 7q-16 0 -21.5 -12t-6.5 -31h-91q0 43 8.5 76t29 52t54.5 19
q22 0 41.5 -7t36.5 -16.5t30.5 -16.5t24.5 -7q16 0 21.5 12t6.5 31h91z" />
    <glyph glyph-name="Odieresis" unicode="&#xd6;" horiz-adv-x="806" 
d="M403 710q80 0 148.5 -27t119.5 -76t79.5 -114t28.5 -142q0 -76 -28.5 -142t-79.5 -115.5t-119.5 -77t-148.5 -27.5t-148.5 27.5t-119.5 77t-79.5 115.5t-28.5 142q0 77 28.5 142.5t79.5 114t119.5 75.5t148.5 27zM405 577q-44 0 -83.5 -17t-69 -48t-46.5 -72t-17 -89
t17 -89.5t47 -73t69 -49t83 -17.5t82.5 17.5t67.5 49t45.5 73t16.5 89.5t-16.5 89t-45.5 72t-67.5 48t-82.5 17zM310 897q31 0 50.5 -20t19.5 -50t-19.5 -50t-50.5 -20q-30 0 -50 20t-20 50q0 31 20 50.5t50 19.5zM497 897q30 0 50 -20t20 -50t-20 -50t-50 -20q-31 0 -51 20
t-20 50q0 31 20 50.5t51 19.5z" />
    <glyph glyph-name="multiply" unicode="&#xd7;" horiz-adv-x="506" 
d="M374 516l69 -70l-310 -310l-69 70zM133 516l310 -310l-69 -70l-310 310z" />
    <glyph glyph-name="Oslash" unicode="&#xd8;" horiz-adv-x="806" 
d="M607 755h109l-517 -810h-109zM403 703q80 0 148.5 -26.5t119.5 -74.5t79.5 -112.5t28.5 -140.5t-28.5 -141t-79.5 -113.5t-119.5 -75.5t-148.5 -27t-148.5 27t-119.5 75.5t-79.5 113.5t-28.5 141t28.5 141t79.5 112.5t119.5 74t148.5 26.5zM405 571q-44 0 -83.5 -17
t-69 -47.5t-46.5 -70.5t-17 -87t17 -88t47 -71.5t69 -47.5t83 -17t82.5 17t67.5 47.5t45.5 71.5t16.5 88t-16.5 87t-45.5 70.5t-67.5 47.5t-82.5 17z" />
    <glyph glyph-name="Ugrave" unicode="&#xd9;" horiz-adv-x="753" 
d="M223 288q0 -77 43 -121.5t113 -44.5q68 0 109.5 44.5t41.5 121.5v412h158v-412q0 -91 -37.5 -158.5t-107 -104t-165.5 -36.5t-166.5 36.5t-108.5 104t-38 158.5v412h158v-412zM342 915l104 -151l-112 -10l-128 108z" />
    <glyph glyph-name="Uacute" unicode="&#xda;" horiz-adv-x="753" 
d="M223 288q0 -77 43 -121.5t113 -44.5q68 0 109.5 44.5t41.5 121.5v412h158v-412q0 -91 -37.5 -158.5t-107 -104t-165.5 -36.5t-166.5 36.5t-108.5 104t-38 158.5v412h158v-412zM411 915l136 -53l-136 -108l-112 10z" />
    <glyph glyph-name="Ucircumflex" unicode="&#xdb;" horiz-adv-x="753" 
d="M223 288q0 -77 43 -121.5t113 -44.5q68 0 109.5 44.5t41.5 121.5v412h158v-412q0 -91 -37.5 -158.5t-107 -104t-165.5 -36.5t-166.5 36.5t-108.5 104t-38 158.5v412h158v-412zM306 907h141l109 -147h-122l-99 110h83l-99 -110h-121z" />
    <glyph glyph-name="Udieresis" unicode="&#xdc;" horiz-adv-x="753" 
d="M223 288q0 -77 43 -121.5t113 -44.5q68 0 109.5 44.5t41.5 121.5v412h158v-412q0 -91 -37.5 -158.5t-107 -104t-165.5 -36.5t-166.5 36.5t-108.5 104t-38 158.5v412h158v-412zM284 897q31 0 50.5 -20t19.5 -50t-19.5 -50t-50.5 -20q-30 0 -50 20t-20 50q0 31 20 50.5
t50 19.5zM471 897q30 0 50 -20t20 -50t-20 -50t-50 -20q-31 0 -51 20t-20 50q0 31 20 50.5t51 19.5z" />
    <glyph glyph-name="Yacute" unicode="&#xdd;" horiz-adv-x="666" 
d="M-3 700h159l179 -319l175 319h159l-324 -597h-21zM256 303h158v-303h-158v303zM367 915l136 -53l-136 -108l-112 10z" />
    <glyph glyph-name="Thorn" unicode="&#xde;" horiz-adv-x="685" 
d="M366 605q93 0 159 -28t101.5 -81.5t35.5 -128.5q0 -79 -35.5 -135.5t-101.5 -86t-159 -29.5h-140v122h133q69 0 105 32t36 93q0 58 -36 89.5t-105 31.5h-134l-21 121h162zM77 700h158v-700h-158v700z" />
    <glyph glyph-name="germandbls" unicode="&#xdf;" horiz-adv-x="660" 
d="M65 490q0 79 32 137t91.5 90t141.5 32q75 0 131.5 -24.5t87.5 -68.5t31 -104q0 -55 -28 -101t-75 -69q64 -15 104.5 -58.5t40.5 -111.5q0 -62 -34 -110t-95 -75t-144 -27h-50v110h47q60 0 93 28t33 74q0 49 -37.5 74.5t-104.5 25.5h-17v110q56 0 87 28.5t31 78.5t-27 77
t-74 27q-35 0 -60 -15.5t-38.5 -45t-13.5 -71.5v-501h-153v490z" />
    <glyph glyph-name="agrave" unicode="&#xe0;" horiz-adv-x="596" 
d="M264 233q-44 0 -66 -15t-22 -48q0 -32 22.5 -50.5t61.5 -18.5q34 0 60.5 11.5t44 31t21.5 45.5l23 -86q-23 -54 -72 -82t-120 -28q-57 0 -98.5 22t-64 60t-22.5 86q0 75 53 118t152 44h164v-90h-137zM385 333q0 44 -28.5 69t-83.5 25q-36 0 -77 -12.5t-83 -35.5l-48 100
q40 21 78 35t78 21.5t87 7.5q109 0 168 -51t60 -141l1 -351h-151zM262 764l104 -151l-112 -10l-128 108z" />
    <glyph glyph-name="aacute" unicode="&#xe1;" horiz-adv-x="596" 
d="M264 233q-44 0 -66 -15t-22 -48q0 -32 22.5 -50.5t61.5 -18.5q34 0 60.5 11.5t44 31t21.5 45.5l23 -86q-23 -54 -72 -82t-120 -28q-57 0 -98.5 22t-64 60t-22.5 86q0 75 53 118t152 44h164v-90h-137zM385 333q0 44 -28.5 69t-83.5 25q-36 0 -77 -12.5t-83 -35.5l-48 100
q40 21 78 35t78 21.5t87 7.5q109 0 168 -51t60 -141l1 -351h-151zM331 764l136 -53l-136 -108l-112 10z" />
    <glyph glyph-name="acircumflex" unicode="&#xe2;" horiz-adv-x="596" 
d="M264 233q-44 0 -66 -15t-22 -48q0 -32 22.5 -50.5t61.5 -18.5q34 0 60.5 11.5t44 31t21.5 45.5l23 -86q-23 -54 -72 -82t-120 -28q-57 0 -98.5 22t-64 60t-22.5 86q0 75 53 118t152 44h164v-90h-137zM385 333q0 44 -28.5 69t-83.5 25q-36 0 -77 -12.5t-83 -35.5l-48 100
q40 21 78 35t78 21.5t87 7.5q109 0 168 -51t60 -141l1 -351h-151zM226 759h141l109 -147h-122l-99 110h83l-99 -110h-121z" />
    <glyph glyph-name="atilde" unicode="&#xe3;" horiz-adv-x="596" 
d="M264 233q-44 0 -66 -15t-22 -48q0 -32 22.5 -50.5t61.5 -18.5q34 0 60.5 11.5t44 31t21.5 45.5l23 -86q-23 -54 -72 -82t-120 -28q-57 0 -98.5 22t-64 60t-22.5 86q0 75 53 118t152 44h164v-90h-137zM385 333q0 44 -28.5 69t-83.5 25q-36 0 -77 -12.5t-83 -35.5l-48 100
q40 21 78 35t78 21.5t87 7.5q109 0 168 -51t60 -141l1 -351h-151zM471 747q0 -43 -9 -76.5t-29 -52t-54 -18.5q-22 0 -41.5 7t-36.5 16.5t-30.5 16.5t-24.5 7q-16 0 -21.5 -12t-6.5 -31h-91q0 43 8.5 76t29 52t54.5 19q22 0 41.5 -7t36.5 -16.5t30.5 -16.5t24.5 -7
q16 0 21.5 12t6.5 31h91z" />
    <glyph glyph-name="adieresis" unicode="&#xe4;" horiz-adv-x="596" 
d="M264 233q-44 0 -66 -15t-22 -48q0 -32 22.5 -50.5t61.5 -18.5q34 0 60.5 11.5t44 31t21.5 45.5l23 -86q-23 -54 -72 -82t-120 -28q-57 0 -98.5 22t-64 60t-22.5 86q0 75 53 118t152 44h164v-90h-137zM385 333q0 44 -28.5 69t-83.5 25q-36 0 -77 -12.5t-83 -35.5l-48 100
q40 21 78 35t78 21.5t87 7.5q109 0 168 -51t60 -141l1 -351h-151zM204 756q30 0 50 -20t20 -50t-20 -50.5t-50 -20.5t-50 20.5t-20 50.5t20 50t50 20zM391 756q29 0 49 -20t20 -50t-20 -50.5t-49 -20.5q-31 0 -51 20.5t-20 50.5t20 50t51 20z" />
    <glyph glyph-name="aring" unicode="&#xe5;" horiz-adv-x="596" 
d="M264 233q-44 0 -66 -15t-22 -48q0 -32 22.5 -50.5t61.5 -18.5q34 0 60.5 11.5t44 31t21.5 45.5l23 -86q-23 -54 -72 -82t-120 -28q-57 0 -98.5 22t-64 60t-22.5 86q0 75 53 118t152 44h164v-90h-137zM385 333q0 44 -28.5 69t-83.5 25q-36 0 -77 -12.5t-83 -35.5l-48 100
q40 21 78 35t78 21.5t87 7.5q109 0 168 -51t60 -141l1 -351h-151zM296 808q32 0 58.5 -15.5t42 -41t15.5 -57.5q0 -31 -15.5 -57.5t-42 -42t-58.5 -15.5q-31 0 -57.5 15.5t-42.5 41.5t-16 58t16 57.5t42.5 41t57.5 15.5zM296 740q-19 0 -33 -13.5t-14 -32.5t14 -33t33 -14
q20 0 33.5 14t13.5 33t-13.5 32.5t-33.5 13.5z" />
    <glyph glyph-name="ae" unicode="&#xe6;" horiz-adv-x="969" 
d="M544 223q2 -23 13.5 -43.5t31 -36.5t44 -24.5t51.5 -8.5q80 0 137 58l81 -80q-41 -45 -100 -69t-130 -24q-51 0 -94 13.5t-76 40t-54 64.5q-31 -59 -88 -89.5t-135 -30.5q-59 0 -102.5 20.5t-67 57.5t-23.5 86q0 75 53 115t153 41h149v24q-1 43 -30 66.5t-83 23.5
q-37 0 -82 -12.5t-91 -35.5l-36 103q63 30 124.5 45.5t118.5 15.5q62 0 108 -17.5t75 -50.5q34 33 78.5 50t97.5 17q87 0 150 -38t95.5 -107t28.5 -162h-397v-12zM269 238q-44 0 -68.5 -17.5t-24.5 -50.5q0 -34 23.5 -55.5t61.5 -21.5q43 0 75 19.5t52 58.5l-1 67h-118z
M788 310q0 38 -16 66.5t-42 44.5t-61 16q-33 0 -60 -15.5t-44.5 -44t-22.5 -67.5h246z" />
    <glyph glyph-name="ccedilla" unicode="&#xe7;" horiz-adv-x="563" 
d="M433 359q-21 27 -52 42t-71 15q-37 0 -66 -18.5t-45.5 -52t-16.5 -78.5q0 -44 16.5 -78t45.5 -52.5t66 -18.5q41 0 73 15.5t52 46.5l106 -70q-34 -55 -95.5 -85t-142.5 -30q-82 0 -144 34t-96.5 95.5t-34.5 142.5q0 82 34.5 144t97 96.5t143.5 34.5q78 0 138 -28.5
t96 -80.5zM254 9l90 -9l-20 -54q45 -9 63.5 -31t18.5 -49q0 -32 -17 -52.5t-45 -30.5t-61 -10q-27 0 -54.5 5.5t-50.5 14.5l26 74q12 -5 26.5 -7.5t27.5 -2.5q19 0 30 6.5t11 16.5q0 11 -14 17.5t-38 6.5h-14h-13z" />
    <glyph glyph-name="egrave" unicode="&#xe8;" horiz-adv-x="597" 
d="M425 312q-1 37 -15.5 63.5t-41.5 41.5t-62 15q-39 0 -68 -20t-45 -55t-16 -81q0 -52 18 -89t51 -57t76 -20q78 0 136 58l81 -80q-40 -45 -98.5 -69t-131.5 -24q-86 0 -149 34t-97.5 95.5t-34.5 142.5q0 83 35 144.5t97.5 95.5t144.5 35q95 0 155.5 -39.5t88 -111
t20.5 -169.5h-414v90h270zM266 764l104 -151l-112 -10l-128 108z" />
    <glyph glyph-name="eacute" unicode="&#xe9;" horiz-adv-x="597" 
d="M425 312q-1 37 -15.5 63.5t-41.5 41.5t-62 15q-39 0 -68 -20t-45 -55t-16 -81q0 -52 18 -89t51 -57t76 -20q78 0 136 58l81 -80q-40 -45 -98.5 -69t-131.5 -24q-86 0 -149 34t-97.5 95.5t-34.5 142.5q0 83 35 144.5t97.5 95.5t144.5 35q95 0 155.5 -39.5t88 -111
t20.5 -169.5h-414v90h270zM335 764l136 -53l-136 -108l-112 10z" />
    <glyph glyph-name="ecircumflex" unicode="&#xea;" horiz-adv-x="597" 
d="M425 312q-1 37 -15.5 63.5t-41.5 41.5t-62 15q-39 0 -68 -20t-45 -55t-16 -81q0 -52 18 -89t51 -57t76 -20q78 0 136 58l81 -80q-40 -45 -98.5 -69t-131.5 -24q-86 0 -149 34t-97.5 95.5t-34.5 142.5q0 83 35 144.5t97.5 95.5t144.5 35q95 0 155.5 -39.5t88 -111
t20.5 -169.5h-414v90h270zM230 759h141l109 -147h-122l-99 110h83l-99 -110h-121z" />
    <glyph glyph-name="edieresis" unicode="&#xeb;" horiz-adv-x="597" 
d="M425 312q-1 37 -15.5 63.5t-41.5 41.5t-62 15q-39 0 -68 -20t-45 -55t-16 -81q0 -52 18 -89t51 -57t76 -20q78 0 136 58l81 -80q-40 -45 -98.5 -69t-131.5 -24q-86 0 -149 34t-97.5 95.5t-34.5 142.5q0 83 35 144.5t97.5 95.5t144.5 35q95 0 155.5 -39.5t88 -111
t20.5 -169.5h-414v90h270zM208 756q30 0 50 -20t20 -50t-20 -50.5t-50 -20.5t-50 20.5t-20 50.5t20 50t50 20zM395 756q29 0 49 -20t20 -50t-20 -50.5t-49 -20.5q-31 0 -51 20.5t-20 50.5t20 50t51 20z" />
    <glyph glyph-name="igrave" unicode="&#xec;" horiz-adv-x="302" 
d="M74 537h154v-537h-154v537zM117 764l104 -151l-112 -10l-128 108z" />
    <glyph glyph-name="iacute" unicode="&#xed;" horiz-adv-x="302" 
d="M74 537h154v-537h-154v537zM185 764l136 -53l-136 -108l-112 10z" />
    <glyph glyph-name="icircumflex" unicode="&#xee;" horiz-adv-x="302" 
d="M74 537h154v-537h-154v537zM81 759h141l109 -147h-122l-99 110h83l-99 -110h-121z" />
    <glyph glyph-name="idieresis" unicode="&#xef;" horiz-adv-x="302" 
d="M74 537h154v-537h-154v537zM65 756q30 0 49.5 -20t19.5 -50t-19.5 -50.5t-49.5 -20.5q-31 0 -51 20.5t-20 50.5t20 50t51 20zM238 756q31 0 50.5 -20t19.5 -50t-19.5 -50.5t-50.5 -20.5q-30 0 -50 20.5t-20 50.5t20 50t50 20z" />
    <glyph glyph-name="eth" unicode="&#xf0;" horiz-adv-x="600" 
d="M212 749q109 -46 190 -119.5t125.5 -164.5t44.5 -189q0 -86 -36 -149.5t-100.5 -98.5t-152.5 -35q-77 0 -135 29t-90 81t-32 122q0 67 28 116t79 76.5t120 27.5q52 0 97.5 -18.5t69.5 -50.5q-7 61 -50.5 118.5t-111 106.5t-149.5 83zM290 341q-53 0 -85 -29t-32 -79
q0 -51 32.5 -82t84.5 -31q54 0 86 30t32 80t-32 80.5t-86 30.5zM96 547l400 183l32 -65l-400 -182z" />
    <glyph glyph-name="ntilde" unicode="&#xf1;" horiz-adv-x="670" 
d="M457 294q0 53 -28.5 83t-77.5 30q-57 -1 -90 -41t-33 -101h-39q0 94 27.5 155.5t78 92t119.5 30.5q60 0 104.5 -25.5t68.5 -71.5t24 -109v-337h-154v294zM74 537h154v-537h-154v537zM526 747q0 -43 -9 -76.5t-29 -52t-54 -18.5q-22 0 -41.5 7t-36.5 16.5t-30.5 16.5
t-24.5 7q-16 0 -21.5 -12t-6.5 -31h-91q0 43 8.5 76t29 52t54.5 19q22 0 41.5 -7t36.5 -16.5t30.5 -16.5t24.5 -7q16 0 21.5 12t6.5 31h91z" />
    <glyph glyph-name="ograve" unicode="&#xf2;" horiz-adv-x="633" 
d="M317 542q86 0 151 -34t101 -95.5t36 -143.5t-36 -144t-101 -96t-151 -34t-151.5 34t-101.5 96t-36 144t36 143.5t101.5 95.5t151.5 34zM317 419q-40 0 -70.5 -19t-47.5 -53.5t-17 -79.5t17 -79.5t47.5 -54t70.5 -19.5t70 19.5t47 54t17 79.5t-17 79.5t-47 53.5t-70 19z
M282 764l104 -151l-112 -10l-128 108z" />
    <glyph glyph-name="oacute" unicode="&#xf3;" horiz-adv-x="633" 
d="M317 542q86 0 151 -34t101 -95.5t36 -143.5t-36 -144t-101 -96t-151 -34t-151.5 34t-101.5 96t-36 144t36 143.5t101.5 95.5t151.5 34zM317 419q-40 0 -70.5 -19t-47.5 -53.5t-17 -79.5t17 -79.5t47.5 -54t70.5 -19.5t70 19.5t47 54t17 79.5t-17 79.5t-47 53.5t-70 19z
M351 764l136 -53l-136 -108l-112 10z" />
    <glyph glyph-name="ocircumflex" unicode="&#xf4;" horiz-adv-x="633" 
d="M317 542q86 0 151 -34t101 -95.5t36 -143.5t-36 -144t-101 -96t-151 -34t-151.5 34t-101.5 96t-36 144t36 143.5t101.5 95.5t151.5 34zM317 419q-40 0 -70.5 -19t-47.5 -53.5t-17 -79.5t17 -79.5t47.5 -54t70.5 -19.5t70 19.5t47 54t17 79.5t-17 79.5t-47 53.5t-70 19z
M246 759h141l109 -147h-122l-99 110h83l-99 -110h-121z" />
    <glyph glyph-name="otilde" unicode="&#xf5;" horiz-adv-x="633" 
d="M317 542q86 0 151 -34t101 -95.5t36 -143.5t-36 -144t-101 -96t-151 -34t-151.5 34t-101.5 96t-36 144t36 143.5t101.5 95.5t151.5 34zM317 419q-40 0 -70.5 -19t-47.5 -53.5t-17 -79.5t17 -79.5t47.5 -54t70.5 -19.5t70 19.5t47 54t17 79.5t-17 79.5t-47 53.5t-70 19z
M492 747q0 -43 -9 -76.5t-29 -52t-54 -18.5q-22 0 -41.5 7t-36.5 16.5t-30.5 16.5t-24.5 7q-16 0 -21.5 -12t-6.5 -31h-91q0 43 8.5 76t29 52t54.5 19q22 0 41.5 -7t36.5 -16.5t30.5 -16.5t24.5 -7q16 0 21.5 12t6.5 31h91z" />
    <glyph glyph-name="odieresis" unicode="&#xf6;" horiz-adv-x="633" 
d="M317 542q86 0 151 -34t101 -95.5t36 -143.5t-36 -144t-101 -96t-151 -34t-151.5 34t-101.5 96t-36 144t36 143.5t101.5 95.5t151.5 34zM317 419q-40 0 -70.5 -19t-47.5 -53.5t-17 -79.5t17 -79.5t47.5 -54t70.5 -19.5t70 19.5t47 54t17 79.5t-17 79.5t-47 53.5t-70 19z
M224 756q30 0 50 -20t20 -50t-20 -50.5t-50 -20.5t-50 20.5t-20 50.5t20 50t50 20zM411 756q29 0 49 -20t20 -50t-20 -50.5t-49 -20.5q-31 0 -51 20.5t-20 50.5t20 50t51 20z" />
    <glyph glyph-name="divide" unicode="&#xf7;" horiz-adv-x="506" 
d="M33 375h440v-99h-440v99zM253 577q31 0 51 -20t20 -52q0 -31 -20 -51t-51 -20q-30 0 -50.5 20t-20.5 51q0 32 20.5 52t50.5 20zM253 219q31 0 51 -20t20 -51t-20 -51.5t-51 -20.5q-30 0 -50.5 20.5t-20.5 51.5t20.5 51t50.5 20z" />
    <glyph glyph-name="oslash" unicode="&#xf8;" horiz-adv-x="633" 
d="M317 542q86 0 151 -34t101 -95.5t36 -143.5t-36 -144t-101 -96t-151 -34t-151.5 34t-101.5 96t-36 144t36 143.5t101.5 95.5t151.5 34zM317 431q-43 0 -75 -20.5t-50.5 -57.5t-18.5 -86t18.5 -86.5t50.5 -58t75 -20.5t75 20.5t50.5 58t18.5 86.5t-18.5 86t-50.5 57.5
t-75 20.5zM520 627h84l-488 -717h-84z" />
    <glyph glyph-name="ugrave" unicode="&#xf9;" horiz-adv-x="660" 
d="M212 242q0 -52 27 -82t74 -30q56 1 87.5 41t31.5 101h37q0 -94 -26.5 -155.5t-75 -91.5t-115.5 -31q-60 0 -103 25.5t-67 71.5t-24 109v337h154v-295zM432 537h153v-537h-153v537zM296 764l104 -151l-112 -10l-128 108z" />
    <glyph glyph-name="uacute" unicode="&#xfa;" horiz-adv-x="660" 
d="M212 242q0 -52 27 -82t74 -30q56 1 87.5 41t31.5 101h37q0 -94 -26.5 -155.5t-75 -91.5t-115.5 -31q-60 0 -103 25.5t-67 71.5t-24 109v337h154v-295zM432 537h153v-537h-153v537zM364 764l136 -53l-136 -108l-112 10z" />
    <glyph glyph-name="ucircumflex" unicode="&#xfb;" horiz-adv-x="660" 
d="M212 242q0 -52 27 -82t74 -30q56 1 87.5 41t31.5 101h37q0 -94 -26.5 -155.5t-75 -91.5t-115.5 -31q-60 0 -103 25.5t-67 71.5t-24 109v337h154v-295zM432 537h153v-537h-153v537zM260 759h141l109 -147h-122l-99 110h83l-99 -110h-121z" />
    <glyph glyph-name="udieresis" unicode="&#xfc;" horiz-adv-x="660" 
d="M212 242q0 -52 27 -82t74 -30q56 1 87.5 41t31.5 101h37q0 -94 -26.5 -155.5t-75 -91.5t-115.5 -31q-60 0 -103 25.5t-67 71.5t-24 109v337h154v-295zM432 537h153v-537h-153v537zM237 756q30 0 50 -20t20 -50t-20 -50.5t-50 -20.5t-50 20.5t-20 50.5t20 50t50 20z
M424 756q29 0 49 -20t20 -50t-20 -50.5t-49 -20.5q-31 0 -51 20.5t-20 50.5t20 50t51 20z" />
    <glyph glyph-name="yacute" unicode="&#xfd;" horiz-adv-x="564" 
d="M335 -62q-29 -69 -78 -104t-119 -35q-42 0 -77.5 12.5t-68.5 38.5l65 107q35 -28 70 -28q24 0 42 12.5t29 37.5l15 32l-223 526h159l141 -376l127 376h154zM318 764l136 -53l-136 -108l-112 10z" />
    <glyph glyph-name="thorn" unicode="&#xfe;" horiz-adv-x="684" 
d="M233 458q28 41 71.5 62.5t98.5 21.5q76 0 132.5 -34.5t88.5 -96.5t32 -145q0 -81 -31 -142t-87 -95t-132 -34q-57 0 -101 22t-72 62v-273h-154v936h154v-284zM367 422q-39 0 -69.5 -19.5t-47.5 -53.5t-17 -79t17 -79.5t47.5 -53.5t69.5 -19q40 0 70 19t46.5 53.5
t16.5 79.5q0 44 -16.5 78.5t-46.5 54t-70 19.5z" />
    <glyph glyph-name="ydieresis" unicode="&#xff;" horiz-adv-x="564" 
d="M335 -62q-29 -69 -78 -104t-119 -35q-42 0 -77.5 12.5t-68.5 38.5l65 107q35 -28 70 -28q24 0 42 12.5t29 37.5l15 32l-223 526h159l141 -376l127 376h154zM191 756q30 0 50 -20t20 -50t-20 -50.5t-50 -20.5t-50 20.5t-20 50.5t20 50t50 20zM378 756q29 0 49 -20t20 -50
t-20 -50.5t-49 -20.5q-31 0 -51 20.5t-20 50.5t20 50t51 20z" />
    <glyph glyph-name="Amacron" unicode="&#x100;" horiz-adv-x="759" 
d="M302 700h162l298 -700h-168l-216 542l-217 -542h-164zM167 263h413v-123h-413v123zM214 853h332v-90h-332v90z" />
    <glyph glyph-name="amacron" unicode="&#x101;" horiz-adv-x="596" 
d="M264 233q-44 0 -66 -15t-22 -48q0 -32 22.5 -50.5t61.5 -18.5q34 0 60.5 11.5t44 31t21.5 45.5l23 -86q-23 -54 -72 -82t-120 -28q-57 0 -98.5 22t-64 60t-22.5 86q0 75 53 118t152 44h164v-90h-137zM385 333q0 44 -28.5 69t-83.5 25q-36 0 -77 -12.5t-83 -35.5l-48 100
q40 21 78 35t78 21.5t87 7.5q109 0 168 -51t60 -141l1 -351h-151zM145 732h303v-90h-303v90z" />
    <glyph glyph-name="Abreve" unicode="&#x102;" horiz-adv-x="759" 
d="M302 700h162l298 -700h-168l-216 542l-217 -542h-164zM167 263h413v-123h-413v123zM322 908q2 -26 18 -43.5t40 -17.5t40 17.5t18 43.5h98q-3 -68 -46 -110t-110 -42t-110.5 42t-45.5 110h98z" />
    <glyph glyph-name="abreve" unicode="&#x103;" horiz-adv-x="596" 
d="M264 233q-44 0 -66 -15t-22 -48q0 -32 22.5 -50.5t61.5 -18.5q34 0 60.5 11.5t44 31t21.5 45.5l23 -86q-23 -54 -72 -82t-120 -28q-57 0 -98.5 22t-64 60t-22.5 86q0 75 53 118t152 44h164v-90h-137zM385 333q0 44 -28.5 69t-83.5 25q-36 0 -77 -12.5t-83 -35.5l-48 100
q40 21 78 35t78 21.5t87 7.5q109 0 168 -51t60 -141l1 -351h-151zM239 755q2 -26 18 -43.5t40 -17.5t40 17.5t18 43.5h98q-3 -68 -46 -110t-110 -42t-110.5 42t-45.5 110h98z" />
    <glyph glyph-name="Aogonek" unicode="&#x104;" horiz-adv-x="759" 
d="M302 700h162l298 -700h-168l-216 542l-217 -542h-164zM167 263h413v-123h-413v123zM644 38l90 -38q-41 -30 -61 -54t-20 -47q0 -15 6.5 -21t17.5 -6q6 0 14 2t16 6l29 -85q-22 -10 -46 -16t-47 -6q-51 0 -80.5 27t-29.5 73q0 40 25.5 83t85.5 82z" />
    <glyph glyph-name="aogonek" unicode="&#x105;" horiz-adv-x="596" 
d="M264 233q-44 0 -66 -15t-22 -48q0 -32 22.5 -50.5t61.5 -18.5q34 0 60.5 11.5t44 31t21.5 45.5l23 -86q-23 -54 -72 -82t-120 -28q-57 0 -98.5 22t-64 60t-22.5 86q0 75 53 118t152 44h164v-90h-137zM385 333q0 44 -28.5 69t-83.5 25q-36 0 -77 -12.5t-83 -35.5l-48 100
q40 21 78 35t78 21.5t87 7.5q109 0 168 -51t60 -141l1 -351h-151zM427 38l90 -38q-41 -30 -61 -54t-20 -47q0 -15 6.5 -21t17.5 -6q6 0 14 2t16 6l29 -85q-22 -10 -46 -16t-47 -6q-51 0 -80.5 27t-29.5 73q0 40 25.5 83t85.5 82z" />
    <glyph glyph-name="Cacute" unicode="&#x106;" horiz-adv-x="694" 
d="M584 486q-35 43 -84 67.5t-98 24.5q-45 0 -83.5 -17t-68 -47.5t-45.5 -71.5t-16 -89q0 -47 16 -88t45.5 -71.5t68 -48t83.5 -17.5q48 0 96 22.5t86 60.5l93 -97q-37 -38 -83.5 -66t-97.5 -43.5t-102 -15.5q-79 0 -145.5 27.5t-116 77t-77.5 115.5t-28 143q0 76 28 141
t79 114t118.5 76t147.5 27q51 0 101.5 -14t95 -39.5t79.5 -62.5zM446 915l136 -53l-136 -108l-112 10z" />
    <glyph glyph-name="cacute" unicode="&#x107;" horiz-adv-x="563" 
d="M433 359q-21 27 -52 42t-71 15q-37 0 -66 -18.5t-45.5 -52t-16.5 -78.5q0 -44 16.5 -78t45.5 -52.5t66 -18.5q41 0 73 15.5t52 46.5l106 -70q-34 -55 -95.5 -85t-142.5 -30q-82 0 -144 34t-96.5 95.5t-34.5 142.5q0 82 34.5 144t97 96.5t143.5 34.5q78 0 138 -28.5
t96 -80.5zM336 764l136 -53l-136 -108l-112 10z" />
    <glyph glyph-name="Ccircumflex" unicode="&#x108;" horiz-adv-x="694" 
d="M584 486q-35 43 -84 67.5t-98 24.5q-45 0 -83.5 -17t-68 -47.5t-45.5 -71.5t-16 -89q0 -47 16 -88t45.5 -71.5t68 -48t83.5 -17.5q48 0 96 22.5t86 60.5l93 -97q-37 -38 -83.5 -66t-97.5 -43.5t-102 -15.5q-79 0 -145.5 27.5t-116 77t-77.5 115.5t-28 143q0 76 28 141
t79 114t118.5 76t147.5 27q51 0 101.5 -14t95 -39.5t79.5 -62.5zM342 907h141l109 -147h-122l-99 110h83l-99 -110h-121z" />
    <glyph glyph-name="ccircumflex" unicode="&#x109;" horiz-adv-x="563" 
d="M433 359q-21 27 -52 42t-71 15q-37 0 -66 -18.5t-45.5 -52t-16.5 -78.5q0 -44 16.5 -78t45.5 -52.5t66 -18.5q41 0 73 15.5t52 46.5l106 -70q-34 -55 -95.5 -85t-142.5 -30q-82 0 -144 34t-96.5 95.5t-34.5 142.5q0 82 34.5 144t97 96.5t143.5 34.5q78 0 138 -28.5
t96 -80.5zM231 759h141l109 -147h-122l-99 110h83l-99 -110h-121z" />
    <glyph glyph-name="Cdotaccent" unicode="&#x10a;" horiz-adv-x="694" 
d="M584 486q-35 43 -84 67.5t-98 24.5q-45 0 -83.5 -17t-68 -47.5t-45.5 -71.5t-16 -89q0 -47 16 -88t45.5 -71.5t68 -48t83.5 -17.5q48 0 96 22.5t86 60.5l93 -97q-37 -38 -83.5 -66t-97.5 -43.5t-102 -15.5q-79 0 -145.5 27.5t-116 77t-77.5 115.5t-28 143q0 76 28 141
t79 114t118.5 76t147.5 27q51 0 101.5 -14t95 -39.5t79.5 -62.5zM412 924q37 0 60.5 -24t23.5 -60t-23.5 -59.5t-60.5 -23.5q-35 0 -59 23.5t-24 59.5t24 60t59 24z" />
    <glyph glyph-name="cdotaccent" unicode="&#x10b;" horiz-adv-x="563" 
d="M433 359q-21 27 -52 42t-71 15q-37 0 -66 -18.5t-45.5 -52t-16.5 -78.5q0 -44 16.5 -78t45.5 -52.5t66 -18.5q41 0 73 15.5t52 46.5l106 -70q-34 -55 -95.5 -85t-142.5 -30q-82 0 -144 34t-96.5 95.5t-34.5 142.5q0 82 34.5 144t97 96.5t143.5 34.5q78 0 138 -28.5
t96 -80.5zM301 774q37 0 60.5 -24t23.5 -60t-23.5 -60t-60.5 -24q-35 0 -59 24t-24 60t24 60t59 24z" />
    <glyph glyph-name="Ccaron" unicode="&#x10c;" horiz-adv-x="694" 
d="M584 486q-35 43 -84 67.5t-98 24.5q-45 0 -83.5 -17t-68 -47.5t-45.5 -71.5t-16 -89q0 -47 16 -88t45.5 -71.5t68 -48t83.5 -17.5q48 0 96 22.5t86 60.5l93 -97q-37 -38 -83.5 -66t-97.5 -43.5t-102 -15.5q-79 0 -145.5 27.5t-116 77t-77.5 115.5t-28 143q0 76 28 141
t79 114t118.5 76t147.5 27q51 0 101.5 -14t95 -39.5t79.5 -62.5zM463 760h-141l-108 146h121l99 -110h-83l99 110h122z" />
    <glyph glyph-name="ccaron" unicode="&#x10d;" horiz-adv-x="563" 
d="M433 359q-21 27 -52 42t-71 15q-37 0 -66 -18.5t-45.5 -52t-16.5 -78.5q0 -44 16.5 -78t45.5 -52.5t66 -18.5q41 0 73 15.5t52 46.5l106 -70q-34 -55 -95.5 -85t-142.5 -30q-82 0 -144 34t-96.5 95.5t-34.5 142.5q0 82 34.5 144t97 96.5t143.5 34.5q78 0 138 -28.5
t96 -80.5zM373 612h-142l-108 147h122l98 -110h-83l99 110h122z" />
    <glyph glyph-name="Dcaron" unicode="&#x10e;" horiz-adv-x="769" 
d="M373 700q82 0 149.5 -25.5t116.5 -72t76 -110.5t27 -142q0 -77 -27 -141t-77 -111t-118.5 -72.5t-151.5 -25.5h-291v700h296zM377 129q45 0 82 16t64.5 45.5t42.5 69.5t15 89t-16 89.5t-44 71t-66.5 46.5t-84.5 16h-135v-443h142zM412 760h-142l-108 146h122l98 -110h-82
l98 110h122z" />
    <glyph glyph-name="dcaron" unicode="&#x10f;" horiz-adv-x="788" 
d="M278 543q71 0 121 -33.5t77 -94.5t27 -145q0 -85 -26.5 -147t-76 -95.5t-118.5 -33.5q-76 0 -133.5 34.5t-89 97t-31.5 145.5q0 81 31.5 142t87.5 95.5t131 34.5zM318 420q-40 0 -70.5 -19.5t-47.5 -54.5t-18 -80q1 -44 18 -78.5t47.5 -54t70.5 -19.5q39 0 69.5 19.5
t47.5 54t17 78.5q0 46 -17 80.5t-47.5 54t-69.5 19.5zM452 742h153v-742h-153v742zM687 742h125l-30 -211h-95v211z" />
    <glyph glyph-name="Dcroat" unicode="&#x110;" horiz-adv-x="769" 
d="M9 389h401v-77h-401v77zM373 700q82 0 149.5 -25.5t116.5 -72t76 -110.5t27 -142q0 -77 -27 -141t-77 -111t-118.5 -72.5t-151.5 -25.5h-291v700h296zM377 129q45 0 82 16t64.5 45.5t42.5 69.5t15 89t-15.5 89.5t-44 70.5t-67 46.5t-84.5 16.5h-135v-443h142z" />
    <glyph glyph-name="dcroat" unicode="&#x111;" horiz-adv-x="684" 
d="M267 660h405v-78h-405v78zM276 515q67 0 118 -33t80 -91t29 -135t-28 -136.5t-78.5 -92.5t-116.5 -33q-75 0 -132 33t-88.5 92.5t-31.5 137.5q0 77 31 135t87 90.5t130 32.5zM318 392q-40 0 -70.5 -17.5t-48 -49t-17.5 -72.5t17.5 -72.5t48 -49t70.5 -17.5q39 0 69 17.5
t47.5 49t17.5 72.5t-17.5 72t-47.5 49t-69 18zM452 742h153v-742h-153v742z" />
    <glyph glyph-name="Emacron" unicode="&#x112;" horiz-adv-x="668" 
d="M77 700h533v-127h-375v-158h337v-127h-337v-161h386v-127h-544v700zM184 853h332v-90h-332v90z" />
    <glyph glyph-name="emacron" unicode="&#x113;" horiz-adv-x="597" 
d="M425 312q-1 37 -15.5 63.5t-41.5 41.5t-62 15q-39 0 -68 -20t-45 -55t-16 -81q0 -52 18 -89t51 -57t76 -20q78 0 136 58l81 -80q-40 -45 -98.5 -69t-131.5 -24q-86 0 -149 34t-97.5 95.5t-34.5 142.5q0 83 35 144.5t97.5 95.5t144.5 35q95 0 155.5 -39.5t88 -111
t20.5 -169.5h-414v90h270zM149 732h303v-90h-303v90z" />
    <glyph glyph-name="Ebreve" unicode="&#x114;" horiz-adv-x="668" 
d="M77 700h533v-127h-375v-158h337v-127h-337v-161h386v-127h-544v700zM292 908q2 -26 18 -43.5t40 -17.5t40 17.5t18 43.5h98q-3 -68 -46 -110t-110 -42t-110.5 42t-45.5 110h98z" />
    <glyph glyph-name="ebreve" unicode="&#x115;" horiz-adv-x="597" 
d="M425 312q-1 37 -15.5 63.5t-41.5 41.5t-62 15q-39 0 -68 -20t-45 -55t-16 -81q0 -52 18 -89t51 -57t76 -20q78 0 136 58l81 -80q-40 -45 -98.5 -69t-131.5 -24q-86 0 -149 34t-97.5 95.5t-34.5 142.5q0 83 35 144.5t97.5 95.5t144.5 35q95 0 155.5 -39.5t88 -111
t20.5 -169.5h-414v90h270zM243 755q2 -26 18 -43.5t40 -17.5t40 17.5t18 43.5h98q-3 -68 -46 -110t-110 -42t-110.5 42t-45.5 110h98z" />
    <glyph glyph-name="Edotaccent" unicode="&#x116;" horiz-adv-x="668" 
d="M77 700h533v-127h-375v-158h337v-127h-337v-161h386v-127h-544v700zM350 924q37 0 60.5 -24t23.5 -60t-23.5 -59.5t-60.5 -23.5q-35 0 -59 23.5t-24 59.5t24 60t59 24z" />
    <glyph glyph-name="edotaccent" unicode="&#x117;" horiz-adv-x="597" 
d="M425 312q-1 37 -15.5 63.5t-41.5 41.5t-62 15q-39 0 -68 -20t-45 -55t-16 -81q0 -52 18 -89t51 -57t76 -20q78 0 136 58l81 -80q-40 -45 -98.5 -69t-131.5 -24q-86 0 -149 34t-97.5 95.5t-34.5 142.5q0 83 35 144.5t97.5 95.5t144.5 35q95 0 155.5 -39.5t88 -111
t20.5 -169.5h-414v90h270zM300 774q37 0 60.5 -24t23.5 -60t-23.5 -60t-60.5 -24q-35 0 -59 24t-24 60t24 60t59 24z" />
    <glyph glyph-name="Eogonek" unicode="&#x118;" horiz-adv-x="668" 
d="M77 700h533v-127h-375v-158h337v-127h-337v-161h386v-127h-544v700zM531 38l90 -38q-41 -30 -61 -54t-20 -47q0 -15 6.5 -21t17.5 -6q6 0 14 2t16 6l29 -85q-22 -10 -46 -16t-47 -6q-51 0 -80.5 27t-29.5 73q0 40 25.5 83t85.5 82z" />
    <glyph glyph-name="eogonek" unicode="&#x119;" horiz-adv-x="597" 
d="M425 312q-1 37 -15.5 63.5t-41.5 41.5t-62 15q-39 0 -68 -20t-45 -55t-16 -81q0 -52 18 -89t51 -57t76 -20q78 0 136 58l81 -80q-40 -45 -98.5 -69t-131.5 -24q-86 0 -149 34t-97.5 95.5t-34.5 142.5q0 83 35 144.5t97.5 95.5t144.5 35q95 0 155.5 -39.5t88 -111
t20.5 -169.5h-414v90h270zM446 83l58 -27q-26 -23 -46 -50t-31.5 -54t-11.5 -48q0 -16 6 -24t18 -8q16 0 30 8l28 -85q-22 -10 -45.5 -16t-45.5 -6q-48 0 -79.5 27.5t-31.5 79.5q0 50 35.5 99t115.5 104z" />
    <glyph glyph-name="Ecaron" unicode="&#x11a;" horiz-adv-x="668" 
d="M77 700h533v-127h-375v-158h337v-127h-337v-161h386v-127h-544v700zM401 760h-141l-109 146h122l99 -110h-83l99 110h122z" />
    <glyph glyph-name="ecaron" unicode="&#x11b;" horiz-adv-x="597" 
d="M425 312q-1 37 -15.5 63.5t-41.5 41.5t-62 15q-39 0 -68 -20t-45 -55t-16 -81q0 -52 18 -89t51 -57t76 -20q78 0 136 58l81 -80q-40 -45 -98.5 -69t-131.5 -24q-86 0 -149 34t-97.5 95.5t-34.5 142.5q0 83 35 144.5t97.5 95.5t144.5 35q95 0 155.5 -39.5t88 -111
t20.5 -169.5h-414v90h270zM371 612h-141l-109 147h122l99 -110h-83l99 110h122z" />
    <glyph glyph-name="Gcircumflex" unicode="&#x11c;" horiz-adv-x="745" 
d="M601 499q-38 37 -89.5 58t-102.5 21q-47 0 -87 -17.5t-70 -48.5t-46.5 -72t-16.5 -89t17 -89.5t47 -73t70 -49t87 -17.5q43 0 93 19t91 51l90 -111q-37 -26 -84.5 -47t-99.5 -33t-100 -12q-80 0 -147.5 27.5t-118.5 76.5t-79 115.5t-28 142.5t29 141.5t80.5 114.5
t121.5 76t151 27q52 0 103 -12.5t97 -35.5t81 -55zM547 352h137v-271h-137v271zM324 907h141l109 -147h-122l-99 110h83l-99 -110h-121z" />
    <glyph glyph-name="gcircumflex" unicode="&#x11d;" horiz-adv-x="645" 
d="M578 50q0 -76 -36 -132t-100 -86.5t-151 -30.5q-68 0 -127.5 19.5t-106.5 50.5l57 104q37 -26 79 -40.5t88 -14.5q44 0 76.5 15.5t50 44t17.5 66.5v491h153v-487zM259 542q68 1 116 -30t73.5 -88.5t24.5 -137.5q1 -80 -24 -138t-72 -89t-114 -31q-70 0 -122.5 32.5
t-82.5 91t-30 135.5t29 133.5t81.5 89t120.5 32.5zM299 427q-37 0 -66 -18t-44.5 -50.5t-16.5 -75.5q1 -42 16.5 -74.5t44 -50.5t66.5 -18q37 0 65.5 18t44.5 50.5t16 74.5q0 43 -16 75.5t-44.5 50.5t-65.5 18zM237 759h141l109 -147h-122l-99 110h83l-99 -110h-121z" />
    <glyph glyph-name="Gbreve" unicode="&#x11e;" horiz-adv-x="745" 
d="M601 499q-38 37 -89.5 58t-102.5 21q-47 0 -87 -17.5t-70 -48.5t-46.5 -72t-16.5 -89t17 -89.5t47 -73t70 -49t87 -17.5q43 0 93 19t91 51l90 -111q-37 -26 -84.5 -47t-99.5 -33t-100 -12q-80 0 -147.5 27.5t-118.5 76.5t-79 115.5t-28 142.5t29 141.5t80.5 114.5
t121.5 76t151 27q52 0 103 -12.5t97 -35.5t81 -55zM547 352h137v-271h-137v271zM337 908q2 -26 18 -43.5t40 -17.5t40 17.5t18 43.5h98q-3 -68 -46 -110t-110 -42t-110.5 42t-45.5 110h98z" />
    <glyph glyph-name="gbreve" unicode="&#x11f;" horiz-adv-x="645" 
d="M578 50q0 -76 -36 -132t-100 -86.5t-151 -30.5q-68 0 -127.5 19.5t-106.5 50.5l57 104q37 -26 79 -40.5t88 -14.5q44 0 76.5 15.5t50 44t17.5 66.5v491h153v-487zM259 542q68 1 116 -30t73.5 -88.5t24.5 -137.5q1 -80 -24 -138t-72 -89t-114 -31q-70 0 -122.5 32.5
t-82.5 91t-30 135.5t29 133.5t81.5 89t120.5 32.5zM299 427q-37 0 -66 -18t-44.5 -50.5t-16.5 -75.5q1 -42 16.5 -74.5t44 -50.5t66.5 -18q37 0 65.5 18t44.5 50.5t16 74.5q0 43 -16 75.5t-44.5 50.5t-65.5 18zM250 755q2 -26 18 -43.5t40 -17.5t40 17.5t18 43.5h98
q-3 -68 -46 -110t-110 -42t-110.5 42t-45.5 110h98z" />
    <glyph glyph-name="Gdotaccent" unicode="&#x120;" horiz-adv-x="745" 
d="M601 499q-38 37 -89.5 58t-102.5 21q-47 0 -87 -17.5t-70 -48.5t-46.5 -72t-16.5 -89t17 -89.5t47 -73t70 -49t87 -17.5q43 0 93 19t91 51l90 -111q-37 -26 -84.5 -47t-99.5 -33t-100 -12q-80 0 -147.5 27.5t-118.5 76.5t-79 115.5t-28 142.5t29 141.5t80.5 114.5
t121.5 76t151 27q52 0 103 -12.5t97 -35.5t81 -55zM547 352h137v-271h-137v271zM395 924q37 0 60.5 -24t23.5 -60t-23.5 -59.5t-60.5 -23.5q-35 0 -59 23.5t-24 59.5t24 60t59 24z" />
    <glyph glyph-name="gdotaccent" unicode="&#x121;" horiz-adv-x="645" 
d="M578 50q0 -76 -36 -132t-100 -86.5t-151 -30.5q-68 0 -127.5 19.5t-106.5 50.5l57 104q37 -26 79 -40.5t88 -14.5q44 0 76.5 15.5t50 44t17.5 66.5v491h153v-487zM259 542q68 1 116 -30t73.5 -88.5t24.5 -137.5q1 -80 -24 -138t-72 -89t-114 -31q-70 0 -122.5 32.5
t-82.5 91t-30 135.5t29 133.5t81.5 89t120.5 32.5zM299 427q-37 0 -66 -18t-44.5 -50.5t-16.5 -75.5q1 -42 16.5 -74.5t44 -50.5t66.5 -18q37 0 65.5 18t44.5 50.5t16 74.5q0 43 -16 75.5t-44.5 50.5t-65.5 18zM307 774q37 0 60.5 -24t23.5 -60t-23.5 -60t-60.5 -24
q-35 0 -59 24t-24 60t24 60t59 24z" />
    <glyph glyph-name="uni0122" unicode="&#x122;" horiz-adv-x="745" 
d="M601 499q-38 37 -89.5 58t-102.5 21q-47 0 -87 -17.5t-70 -48.5t-46.5 -72t-16.5 -89t17 -89.5t47 -73t70 -49t87 -17.5q43 0 93 19t91 51l90 -111q-37 -26 -84.5 -47t-99.5 -33t-100 -12q-80 0 -147.5 27.5t-118.5 76.5t-79 115.5t-28 142.5t29 141.5t80.5 114.5
t121.5 76t151 27q52 0 103 -12.5t97 -35.5t81 -55zM547 352h137v-271h-137v271zM325 -59h130l-68 -169h-95z" />
    <glyph glyph-name="uni0123" unicode="&#x123;" horiz-adv-x="645" 
d="M578 50q0 -76 -36 -132t-100 -86.5t-151 -30.5q-68 0 -127.5 19.5t-106.5 50.5l57 104q37 -26 79 -40.5t88 -14.5q44 0 76.5 15.5t50 44t17.5 66.5v491h153v-487zM259 542q68 1 116 -30t73.5 -88.5t24.5 -137.5q1 -80 -24 -138t-72 -89t-114 -31q-70 0 -122.5 32.5
t-82.5 91t-30 135.5t29 133.5t81.5 89t120.5 32.5zM299 427q-37 0 -66 -18t-44.5 -50.5t-16.5 -75.5q1 -42 16.5 -74.5t44 -50.5t66.5 -18q37 0 65.5 18t44.5 50.5t16 74.5q0 43 -16 75.5t-44.5 50.5t-65.5 18zM364 611h-130l68 169h95z" />
    <glyph glyph-name="Hcircumflex" unicode="&#x124;" horiz-adv-x="787" 
d="M77 700h158v-294h317v294h158v-700h-158v279h-317v-279h-158v700zM330 907h141l109 -147h-122l-99 110h83l-99 -110h-121z" />
    <glyph glyph-name="hcircumflex" unicode="&#x125;" horiz-adv-x="675" 
d="M463 294q0 53 -28.5 83t-77.5 30q-58 -1 -91 -41t-33 -101h-38q0 94 27 155.5t77.5 92t119.5 30.5q61 0 105.5 -25.5t68.5 -71.5t24 -109v-337h-154v294zM79 742h154v-742h-154v742zM82 964h141l109 -147h-122l-99 110h83l-99 -110h-121z" />
    <glyph glyph-name="Hbar" unicode="&#x126;" horiz-adv-x="823" 
d="M3 597h816v-77h-816v77zM94 700h159v-294h316v294h159v-700h-159v279h-316v-279h-159v700z" />
    <glyph glyph-name="hbar" unicode="&#x127;" horiz-adv-x="675" 
d="M13 660h405v-78h-405v78zM463 266q0 53 -28.5 83t-77.5 30q-38 0 -66 -19t-43 -50.5t-15 -73.5h-38q0 95 27 156.5t77.5 92t119.5 30.5q61 0 105.5 -25.5t68.5 -71.5t24 -109v-309h-154v266zM79 742h154v-742h-154v742z" />
    <glyph glyph-name="Itilde" unicode="&#x128;" horiz-adv-x="313" 
d="M77 700h158v-700h-158v700zM331 902q0 -43 -9 -76.5t-29 -52t-54 -18.5q-22 0 -41.5 7t-36.5 16.5t-30.5 16.5t-24.5 7q-16 0 -21.5 -12t-6.5 -31h-91q0 43 8.5 76t29 52t54.5 19q22 0 41.5 -7t36.5 -16.5t30.5 -16.5t24.5 -7q16 0 21.5 12t6.5 31h91z" />
    <glyph glyph-name="itilde" unicode="&#x129;" horiz-adv-x="302" 
d="M74 537h154v-537h-154v537zM316 745q0 -69 -20 -108t-67 -39q-20 0 -37 7t-31.5 15.5t-26 15.5t-20.5 7q-14 0 -19.5 -11.5t-5.5 -29.5h-92q0 67 20.5 107t67.5 40q19 0 36 -6.5t31.5 -15t26 -14.5t20.5 -6q14 0 19.5 10.5t6.5 27.5h91z" />
    <glyph glyph-name="Imacron" unicode="&#x12a;" horiz-adv-x="313" 
d="M77 700h158v-700h-158v700zM5 853h303v-90h-303v90z" />
    <glyph glyph-name="imacron" unicode="&#x12b;" horiz-adv-x="302" 
d="M74 537h154v-537h-154v537zM15 732h271v-90h-271v90z" />
    <glyph glyph-name="Ibreve" unicode="&#x12c;" horiz-adv-x="313" 
d="M77 700h158v-700h-158v700zM99 908q2 -26 18 -43.5t40 -17.5t40 17.5t18 43.5h98q-3 -68 -46 -110t-110 -42t-110.5 42t-45.5 110h98z" />
    <glyph glyph-name="ibreve" unicode="&#x12d;" horiz-adv-x="302" 
d="M74 537h154v-537h-154v537zM93 755q2 -26 18 -43.5t40 -17.5t40 17.5t18 43.5h98q-3 -68 -46 -110t-110 -42t-110.5 42t-45.5 110h98z" />
    <glyph glyph-name="Iogonek" unicode="&#x12e;" horiz-adv-x="313" 
d="M77 700h158v-700h-158v700zM122 38l90 -38q-41 -30 -61 -54t-20 -47q0 -15 6.5 -21t17.5 -6q6 0 14 2t16 6l29 -85q-22 -10 -46 -16t-47 -6q-51 0 -80.5 27t-29.5 73q0 40 25.5 83t85.5 82z" />
    <glyph glyph-name="iogonek" unicode="&#x12f;" horiz-adv-x="302" 
d="M74 537h154v-537h-154v537zM151 774q37 0 60.5 -24t23.5 -60t-23.5 -60t-60.5 -24q-35 0 -59 24t-24 60t24 60t59 24zM117 38l90 -38q-41 -30 -61 -54t-20 -47q0 -15 6.5 -21t17.5 -6q6 0 14 2t16 6l29 -85q-22 -10 -46 -16t-47 -6q-51 0 -80.5 27t-29.5 73q0 40 25.5 83
t85.5 82z" />
    <glyph glyph-name="Idotaccent" unicode="&#x130;" horiz-adv-x="313" 
d="M77 700h158v-700h-158v700zM156 924q37 0 60.5 -24t23.5 -60t-23.5 -59.5t-60.5 -23.5q-35 0 -59 23.5t-24 59.5t24 60t59 24z" />
    <glyph glyph-name="dotlessi" unicode="&#x131;" horiz-adv-x="302" 
d="M74 537h154v-537h-154v537z" />
    <glyph glyph-name="IJ" unicode="&#x132;" horiz-adv-x="836" 
d="M77 700h158v-700h-158v700zM773 223q0 -110 -63 -170t-172 -60q-70 0 -127.5 28.5t-101.5 79.5l73 109q37 -39 76.5 -58.5t71.5 -19.5q39 0 61.5 24t22.5 70v344h-241v130h400v-477z" />
    <glyph glyph-name="ij" unicode="&#x133;" horiz-adv-x="600" 
d="M74 537h154v-537h-154v537zM151 774q37 0 60.5 -24t23.5 -60t-23.5 -60t-60.5 -24q-35 0 -59 24t-24 60t24 60t59 24zM272 -71q11 -3 21.5 -5.5t21.5 -3.5q63 -2 63 80v537h153v-559q0 -84 -48.5 -131.5t-133.5 -46.5q-61 2 -109 21zM453 774q37 0 60.5 -24t23.5 -60
t-23.5 -60t-60.5 -24q-35 0 -59 24t-24 60t24 60t59 24z" />
    <glyph glyph-name="Jcircumflex" unicode="&#x134;" horiz-adv-x="524" 
d="M460 223q0 -110 -63 -170t-172 -60q-70 0 -127.5 28.5t-101.5 79.5l73 109q37 -39 76.5 -58.5t71.5 -19.5q39 0 61.5 24t22.5 70v344h-241v130h400v-477zM186 907h141l109 -147h-122l-99 110h83l-99 -110h-121z" />
    <glyph glyph-name="jcircumflex" unicode="&#x135;" horiz-adv-x="298" 
d="M-30 -71q11 -3 21.5 -5.5t21.5 -3.5q63 -2 63 80v537h153v-559q0 -84 -48.5 -131.5t-133.5 -46.5q-61 2 -109 21zM81 759h141l109 -147h-122l-99 110h83l-99 -110h-121z" />
    <glyph glyph-name="uni0136" unicode="&#x136;" horiz-adv-x="737" 
d="M77 700h158v-333l290 333h184l-474 -523v-177h-158v700zM432 427l294 -427h-189l-210 302zM295 -59h130l-68 -169h-95z" />
    <glyph glyph-name="uni0137" unicode="&#x137;" horiz-adv-x="619" 
d="M79 742h154v-742h-154v742zM430 537h175l-381 -399v181zM395 348l219 -348h-182l-150 256zM260 -59h130l-68 -169h-95z" />
    <glyph glyph-name="kgreenlandic" unicode="&#x138;" horiz-adv-x="613" 
d="M74 537h154v-537h-154v537zM424 537h175l-381 -399v175zM390 348l218 -348h-182l-150 256z" />
    <glyph glyph-name="Lacute" unicode="&#x139;" horiz-adv-x="552" 
d="M77 700h158v-567h299v-133h-457v700zM189 915l136 -53l-136 -108l-112 10z" />
    <glyph glyph-name="lacute" unicode="&#x13a;" horiz-adv-x="313" 
d="M79 742h154v-742h-154v742zM191 969l136 -53l-136 -108l-112 10z" />
    <glyph glyph-name="uni013B" unicode="&#x13b;" horiz-adv-x="552" 
d="M77 700h158v-567h299v-133h-457v700zM241 -59h130l-68 -169h-95z" />
    <glyph glyph-name="uni013C" unicode="&#x13c;" horiz-adv-x="313" 
d="M79 742h154v-742h-154v742zM92 -59h130l-68 -169h-95z" />
    <glyph glyph-name="Lcaron" unicode="&#x13d;" horiz-adv-x="552" 
d="M77 700h158v-567h299v-133h-457v700zM409 700h125l-30 -211h-95v211z" />
    <glyph glyph-name="lcaron" unicode="&#x13e;" horiz-adv-x="409" 
d="M79 742h154v-742h-154v742zM307 742h125l-30 -211h-95v211z" />
    <glyph glyph-name="Ldot" unicode="&#x13f;" horiz-adv-x="552" 
d="M77 700h158v-567h299v-133h-457v700zM428 499q37 0 60.5 -24t23.5 -60t-23.5 -60t-60.5 -24q-35 0 -59 24t-24 60t24 60t59 24z" />
    <glyph glyph-name="ldot" unicode="&#x140;" horiz-adv-x="454" 
d="M79 742h154v-742h-154v742zM372 483q37 0 60.5 -24t23.5 -60t-23.5 -60t-60.5 -24q-35 0 -59 24t-24 60t24 60t59 24z" />
    <glyph glyph-name="Lslash" unicode="&#x141;" horiz-adv-x="592" 
d="M20 346l368 190v-85l-368 -190v85zM117 700h158v-567h300v-133h-458v700z" />
    <glyph glyph-name="lslash" unicode="&#x142;" horiz-adv-x="409" 
d="M23 340l367 189v-90l-367 -191v92zM130 742h154v-742h-154v742z" />
    <glyph glyph-name="Nacute" unicode="&#x143;" horiz-adv-x="788" 
d="M77 700h144l381 -514l-41 -14v528h149v-700h-143l-381 513l42 14v-527h-151v700zM435 915l136 -53l-136 -108l-112 10z" />
    <glyph glyph-name="nacute" unicode="&#x144;" horiz-adv-x="670" 
d="M457 294q0 53 -28.5 83t-77.5 30q-57 -1 -90 -41t-33 -101h-39q0 94 27.5 155.5t78 92t119.5 30.5q60 0 104.5 -25.5t68.5 -71.5t24 -109v-337h-154v294zM74 537h154v-537h-154v537zM385 764l136 -53l-136 -108l-112 10z" />
    <glyph glyph-name="uni0145" unicode="&#x145;" horiz-adv-x="788" 
d="M77 700h144l381 -514l-41 -14v528h149v-700h-143l-381 513l42 14v-527h-151v700zM332 -59h130l-68 -169h-95z" />
    <glyph glyph-name="uni0146" unicode="&#x146;" horiz-adv-x="670" 
d="M457 294q0 53 -28.5 83t-77.5 30q-57 -1 -90 -41t-33 -101h-39q0 94 27.5 155.5t78 92t119.5 30.5q60 0 104.5 -25.5t68.5 -71.5t24 -109v-337h-154v294zM74 537h154v-537h-154v537zM275 -59h130l-68 -169h-95z" />
    <glyph glyph-name="Ncaron" unicode="&#x147;" horiz-adv-x="788" 
d="M77 700h144l381 -514l-41 -14v528h149v-700h-143l-381 513l42 14v-527h-151v700zM452 760h-141l-109 146h122l99 -110h-83l99 110h121z" />
    <glyph glyph-name="ncaron" unicode="&#x148;" horiz-adv-x="670" 
d="M457 294q0 53 -28.5 83t-77.5 30q-57 -1 -90 -41t-33 -101h-39q0 94 27.5 155.5t78 92t119.5 30.5q60 0 104.5 -25.5t68.5 -71.5t24 -109v-337h-154v294zM74 537h154v-537h-154v537zM422 612h-142l-108 147h122l98 -110h-82l98 110h122z" />
    <glyph glyph-name="napostrophe" unicode="&#x149;" horiz-adv-x="809" 
d="M40 700h108l-20 -261h-88v261zM596 294q0 53 -28.5 83t-77.5 30q-57 -1 -90 -41t-33 -101h-39q0 94 27.5 155.5t78 92t119.5 30.5q60 0 104.5 -25.5t68.5 -71.5t24 -109v-337h-154v294zM213 537h154v-537h-154v537z" />
    <glyph glyph-name="Eng" unicode="&#x14a;" horiz-adv-x="788" 
d="M710 1q-2 -98 -65.5 -155t-168.5 -57q-56 0 -102.5 17.5t-83.5 48.5l62 118q32 -22 64.5 -33.5t58.5 -11.5q40 0 63 24.5t23 72.5zM77 700h144l340 -459v459h149v-700h-143l-339 458v-458h-151v700z" />
    <glyph glyph-name="eng" unicode="&#x14b;" horiz-adv-x="670" 
d="M457 294q0 53 -28.5 83t-77.5 30q-57 -1 -90 -41t-33 -101h-39q0 94 27.5 155.5t78 92t119.5 30.5q60 0 104.5 -25.5t68.5 -71.5t24 -109v-355q0 -60 -26 -101t-68.5 -61t-94.5 -20q-72 0 -127 35l42 109q32 -21 64 -21q24 0 40 15.5t16 48.5v307zM74 537h154v-537h-154
v537z" />
    <glyph glyph-name="Omacron" unicode="&#x14c;" horiz-adv-x="806" 
d="M403 710q80 0 148.5 -27t119.5 -76t79.5 -114t28.5 -142q0 -76 -28.5 -142t-79.5 -115.5t-119.5 -77t-148.5 -27.5t-148.5 27.5t-119.5 77t-79.5 115.5t-28.5 142q0 77 28.5 142.5t79.5 114t119.5 75.5t148.5 27zM405 577q-44 0 -83.5 -17t-69 -48t-46.5 -72t-17 -89
t17 -89.5t47 -73t69 -49t83 -17.5t82.5 17.5t67.5 49t45.5 73t16.5 89.5t-16.5 89t-45.5 72t-67.5 48t-82.5 17zM237 853h332v-90h-332v90z" />
    <glyph glyph-name="omacron" unicode="&#x14d;" horiz-adv-x="633" 
d="M317 542q86 0 151 -34t101 -95.5t36 -143.5t-36 -144t-101 -96t-151 -34t-151.5 34t-101.5 96t-36 144t36 143.5t101.5 95.5t151.5 34zM317 419q-40 0 -70.5 -19t-47.5 -53.5t-17 -79.5t17 -79.5t47.5 -54t70.5 -19.5t70 19.5t47 54t17 79.5t-17 79.5t-47 53.5t-70 19z
M165 732h303v-90h-303v90z" />
    <glyph glyph-name="Obreve" unicode="&#x14e;" horiz-adv-x="806" 
d="M403 710q80 0 148.5 -27t119.5 -76t79.5 -114t28.5 -142q0 -76 -28.5 -142t-79.5 -115.5t-119.5 -77t-148.5 -27.5t-148.5 27.5t-119.5 77t-79.5 115.5t-28.5 142q0 77 28.5 142.5t79.5 114t119.5 75.5t148.5 27zM405 577q-44 0 -83.5 -17t-69 -48t-46.5 -72t-17 -89
t17 -89.5t47 -73t69 -49t83 -17.5t82.5 17.5t67.5 49t45.5 73t16.5 89.5t-16.5 89t-45.5 72t-67.5 48t-82.5 17zM346 908q2 -26 18 -43.5t40 -17.5t40 17.5t18 43.5h98q-3 -68 -46 -110t-110 -42t-110.5 42t-45.5 110h98z" />
    <glyph glyph-name="obreve" unicode="&#x14f;" horiz-adv-x="633" 
d="M317 542q86 0 151 -34t101 -95.5t36 -143.5t-36 -144t-101 -96t-151 -34t-151.5 34t-101.5 96t-36 144t36 143.5t101.5 95.5t151.5 34zM317 419q-40 0 -70.5 -19t-47.5 -53.5t-17 -79.5t17 -79.5t47.5 -54t70.5 -19.5t70 19.5t47 54t17 79.5t-17 79.5t-47 53.5t-70 19z
M259 755q2 -26 18 -43.5t40 -17.5t40 17.5t18 43.5h98q-3 -68 -46 -110t-110 -42t-110.5 42t-45.5 110h98z" />
    <glyph glyph-name="Ohungarumlaut" unicode="&#x150;" horiz-adv-x="806" 
d="M403 710q80 0 148.5 -27t119.5 -76t79.5 -114t28.5 -142q0 -76 -28.5 -142t-79.5 -115.5t-119.5 -77t-148.5 -27.5t-148.5 27.5t-119.5 77t-79.5 115.5t-28.5 142q0 77 28.5 142.5t79.5 114t119.5 75.5t148.5 27zM405 577q-44 0 -83.5 -17t-69 -48t-46.5 -72t-17 -89
t17 -89.5t47 -73t69 -49t83 -17.5t82.5 17.5t67.5 49t45.5 73t16.5 89.5t-16.5 89t-45.5 72t-67.5 48t-82.5 17zM318 919l121 -47l-91 -118l-110 10zM503 919l120 -47l-91 -118l-109 10z" />
    <glyph glyph-name="ohungarumlaut" unicode="&#x151;" horiz-adv-x="633" 
d="M317 542q86 0 151 -34t101 -95.5t36 -143.5t-36 -144t-101 -96t-151 -34t-151.5 34t-101.5 96t-36 144t36 143.5t101.5 95.5t151.5 34zM317 419q-40 0 -70.5 -19t-47.5 -53.5t-17 -79.5t17 -79.5t47.5 -54t70.5 -19.5t70 19.5t47 54t17 79.5t-17 79.5t-47 53.5t-70 19z
M232 768l121 -47l-91 -118l-110 10zM417 768l120 -47l-91 -118l-109 10z" />
    <glyph glyph-name="OE" unicode="&#x152;" horiz-adv-x="1108" 
d="M403 569q-46 0 -84.5 -16.5t-68 -46.5t-45.5 -70t-16 -87t16 -87t45.5 -69.5t68 -46.5t84.5 -17l162 1l-1 -130h-162q-80 0 -148 26.5t-119 73.5t-79.5 111t-28.5 139q0 74 28.5 138t79 111.5t119 74t148.5 26.5h151l-1 -131h-149zM517 700h533v-127h-375v-158h337v-127
h-337v-161h386v-127h-544v700z" />
    <glyph glyph-name="oe" unicode="&#x153;" horiz-adv-x="1026" 
d="M845 310q-1 37 -16 65.5t-42 45t-62 16.5q-40 0 -69.5 -21t-46 -57.5t-16.5 -82.5q0 -52 19 -89t52 -57t77 -20q78 0 137 58l81 -80q-41 -45 -99.5 -69t-132.5 -24q-80 0 -136 34t-85 95.5t-29 142.5q0 83 29.5 144.5t85 96t132.5 34.5q87 0 150.5 -38.5t95.5 -107.5
t29 -161h-427v75h273zM317 542q80 0 137.5 -34t88 -95.5t30.5 -143.5t-30.5 -144t-88 -96t-137.5 -34q-86 0 -151.5 34t-101.5 96t-36 144t36 143.5t101.5 95.5t151.5 34zM317 419q-40 0 -70 -19t-47.5 -53.5t-17.5 -79.5t17.5 -79.5t47.5 -54t70 -19.5q39 0 69 19.5
t47.5 54t17.5 79.5t-17.5 79.5t-47.5 53.5t-69 19z" />
    <glyph glyph-name="Racute" unicode="&#x154;" horiz-adv-x="724" 
d="M381 700q137 0 212.5 -63.5t75.5 -178.5q0 -121 -75.5 -188.5t-212.5 -67.5h-146v-202h-158v700h304zM381 330q65 0 101.5 30.5t36.5 92.5q0 60 -36.5 90t-101.5 30h-146v-243h146zM362 261h154l170 -261h-179zM385 915l136 -53l-136 -108l-112 10z" />
    <glyph glyph-name="racute" unicode="&#x155;" horiz-adv-x="416" 
d="M406 404q-54 5 -94.5 -13t-62 -52t-21.5 -81l-39 7q0 88 26.5 150t75.5 95t115 33v-139zM74 537h154v-537h-154v537zM275 764l136 -53l-136 -108l-112 10z" />
    <glyph glyph-name="uni0156" unicode="&#x156;" horiz-adv-x="724" 
d="M381 700q137 0 212.5 -63.5t75.5 -178.5q0 -121 -75.5 -188.5t-212.5 -67.5h-146v-202h-158v700h304zM381 330q65 0 101.5 30.5t36.5 92.5q0 60 -36.5 90t-101.5 30h-146v-243h146zM362 261h154l170 -261h-179zM294 -59h130l-68 -169h-95z" />
    <glyph glyph-name="uni0157" unicode="&#x157;" horiz-adv-x="416" 
d="M406 404q-54 5 -94.5 -13t-62 -52t-21.5 -81l-39 7q0 88 26.5 150t75.5 95t115 33v-139zM74 537h154v-537h-154v537zM85 -59h130l-68 -169h-95z" />
    <glyph glyph-name="Rcaron" unicode="&#x158;" horiz-adv-x="724" 
d="M381 700q137 0 212.5 -63.5t75.5 -178.5q0 -121 -75.5 -188.5t-212.5 -67.5h-146v-202h-158v700h304zM381 330q65 0 101.5 30.5t36.5 92.5q0 60 -36.5 90t-101.5 30h-146v-243h146zM362 261h154l170 -261h-179zM402 760h-141l-109 146h122l99 -110h-83l99 110h122z" />
    <glyph glyph-name="rcaron" unicode="&#x159;" horiz-adv-x="416" 
d="M406 404q-54 5 -94.5 -13t-62 -52t-21.5 -81l-39 7q0 88 26.5 150t75.5 95t115 33v-139zM74 537h154v-537h-154v537zM312 612h-142l-108 147h122l99 -110h-83l98 110h122z" />
    <glyph glyph-name="Sacute" unicode="&#x15a;" horiz-adv-x="637" 
d="M538 510q-37 23 -76.5 38.5t-76 24t-65.5 8.5q-40 0 -64.5 -15.5t-24.5 -46.5q0 -29 20.5 -47.5t53.5 -30t73 -23t79.5 -26.5t73 -38.5t53 -60t19.5 -90.5q0 -68 -36 -115t-98.5 -72t-139.5 -25q-58 0 -114 14t-105.5 39.5t-89.5 59.5l63 124q36 -32 79.5 -56t87.5 -37
t81 -13q49 0 76.5 19t27.5 54q0 30 -20 48t-53 30.5t-73 23t-80 25t-73 37t-53.5 57.5t-20.5 89q0 64 34 110.5t95 72t142 25.5q74 0 144 -21.5t122 -55.5zM367 915l136 -53l-136 -108l-112 10z" />
    <glyph glyph-name="sacute" unicode="&#x15b;" horiz-adv-x="499" 
d="M413 383q-44 24 -87 37.5t-77 13.5q-27 0 -44.5 -10t-17.5 -32q0 -21 20.5 -33.5t53 -21.5t68.5 -20.5t68.5 -29.5t52.5 -48.5t20 -78.5q0 -54 -29 -91.5t-79 -56t-111 -18.5q-65 0 -126 19t-107 56l50 100q42 -32 92.5 -49.5t94.5 -17.5q20 0 35 5t24 15t9 25
q0 22 -20 35.5t-52 23t-68 20t-67.5 28.5t-51.5 47.5t-20 76.5q0 56 29 92.5t77 54.5t106 18q56 0 110.5 -15t99.5 -43zM292 764l136 -53l-136 -108l-112 10z" />
    <glyph glyph-name="Scircumflex" unicode="&#x15c;" horiz-adv-x="637" 
d="M538 510q-37 23 -76.5 38.5t-76 24t-65.5 8.5q-40 0 -64.5 -15.5t-24.5 -46.5q0 -29 20.5 -47.5t53.5 -30t73 -23t79.5 -26.5t73 -38.5t53 -60t19.5 -90.5q0 -68 -36 -115t-98.5 -72t-139.5 -25q-58 0 -114 14t-105.5 39.5t-89.5 59.5l63 124q36 -32 79.5 -56t87.5 -37
t81 -13q49 0 76.5 19t27.5 54q0 30 -20 48t-53 30.5t-73 23t-80 25t-73 37t-53.5 57.5t-20.5 89q0 64 34 110.5t95 72t142 25.5q74 0 144 -21.5t122 -55.5zM262 907h141l109 -147h-122l-99 110h83l-99 -110h-121z" />
    <glyph glyph-name="scircumflex" unicode="&#x15d;" horiz-adv-x="499" 
d="M413 383q-44 24 -87 37.5t-77 13.5q-27 0 -44.5 -10t-17.5 -32q0 -21 20.5 -33.5t53 -21.5t68.5 -20.5t68.5 -29.5t52.5 -48.5t20 -78.5q0 -54 -29 -91.5t-79 -56t-111 -18.5q-65 0 -126 19t-107 56l50 100q42 -32 92.5 -49.5t94.5 -17.5q20 0 35 5t24 15t9 25
q0 22 -20 35.5t-52 23t-68 20t-67.5 28.5t-51.5 47.5t-20 76.5q0 56 29 92.5t77 54.5t106 18q56 0 110.5 -15t99.5 -43zM187 759h141l109 -147h-122l-99 110h83l-99 -110h-121z" />
    <glyph glyph-name="Scedilla" unicode="&#x15e;" horiz-adv-x="637" 
d="M538 510q-37 23 -76.5 38.5t-76 24t-65.5 8.5q-40 0 -64.5 -15.5t-24.5 -46.5q0 -29 20.5 -47.5t53.5 -30t73 -23t79.5 -26.5t73 -38.5t53 -60t19.5 -90.5q0 -68 -36 -115t-98.5 -72t-139.5 -25q-58 0 -114 14t-105.5 39.5t-89.5 59.5l63 124q36 -32 79.5 -56t87.5 -37
t81 -13q49 0 76.5 19t27.5 54q0 30 -20 48t-53 30.5t-73 23t-80 25t-73 37t-53.5 57.5t-20.5 89q0 64 34 110.5t95 72t142 25.5q74 0 144 -21.5t122 -55.5zM291 9l90 -9l-20 -54q45 -9 63.5 -31t18.5 -49q0 -32 -17 -52.5t-45 -30.5t-61 -10q-27 0 -54.5 5.5t-50.5 14.5
l26 74q12 -5 26.5 -7.5t27.5 -2.5q19 0 30 6.5t11 16.5q0 11 -14 17.5t-38 6.5h-14h-13z" />
    <glyph glyph-name="scedilla" unicode="&#x15f;" horiz-adv-x="499" 
d="M413 383q-44 24 -87 37.5t-77 13.5q-27 0 -44.5 -10t-17.5 -32q0 -21 20.5 -33.5t53 -21.5t68.5 -20.5t68.5 -29.5t52.5 -48.5t20 -78.5q0 -54 -29 -91.5t-79 -56t-111 -18.5q-65 0 -126 19t-107 56l50 100q42 -32 92.5 -49.5t94.5 -17.5q20 0 35 5t24 15t9 25
q0 22 -20 35.5t-52 23t-68 20t-67.5 28.5t-51.5 47.5t-20 76.5q0 56 29 92.5t77 54.5t106 18q56 0 110.5 -15t99.5 -43zM214 9l90 -9l-20 -54q45 -9 63.5 -31t18.5 -49q0 -32 -17 -52.5t-45 -30.5t-61 -10q-27 0 -54.5 5.5t-50.5 14.5l26 74q12 -5 26.5 -7.5t27.5 -2.5
q19 0 30 6.5t11 16.5q0 11 -14 17.5t-38 6.5h-14h-13z" />
    <glyph glyph-name="Scaron" unicode="&#x160;" horiz-adv-x="637" 
d="M538 510q-37 23 -76.5 38.5t-76 24t-65.5 8.5q-40 0 -64.5 -15.5t-24.5 -46.5q0 -29 20.5 -47.5t53.5 -30t73 -23t79.5 -26.5t73 -38.5t53 -60t19.5 -90.5q0 -68 -36 -115t-98.5 -72t-139.5 -25q-58 0 -114 14t-105.5 39.5t-89.5 59.5l63 124q36 -32 79.5 -56t87.5 -37
t81 -13q49 0 76.5 19t27.5 54q0 30 -20 48t-53 30.5t-73 23t-80 25t-73 37t-53.5 57.5t-20.5 89q0 64 34 110.5t95 72t142 25.5q74 0 144 -21.5t122 -55.5zM384 760h-141l-108 146h121l99 -110h-83l99 110h122z" />
    <glyph glyph-name="scaron" unicode="&#x161;" horiz-adv-x="499" 
d="M413 383q-44 24 -87 37.5t-77 13.5q-27 0 -44.5 -10t-17.5 -32q0 -21 20.5 -33.5t53 -21.5t68.5 -20.5t68.5 -29.5t52.5 -48.5t20 -78.5q0 -54 -29 -91.5t-79 -56t-111 -18.5q-65 0 -126 19t-107 56l50 100q42 -32 92.5 -49.5t94.5 -17.5q20 0 35 5t24 15t9 25
q0 22 -20 35.5t-52 23t-68 20t-67.5 28.5t-51.5 47.5t-20 76.5q0 56 29 92.5t77 54.5t106 18q56 0 110.5 -15t99.5 -43zM329 612h-142l-108 147h122l98 -110h-82l98 110h122z" />
    <glyph glyph-name="uni0162" unicode="&#x162;" horiz-adv-x="601" 
d="M8 700h585v-130h-214v-570h-158v570h-213v130zM265 9l90 -9l-20 -54q45 -9 63.5 -31t18.5 -49q0 -32 -17 -52.5t-45 -30.5t-61 -10q-27 0 -54.5 5.5t-50.5 14.5l26 74q12 -5 26.5 -7.5t27.5 -2.5q19 0 30 6.5t11 16.5q0 11 -14 17.5t-38 6.5h-14h-13z" />
    <glyph glyph-name="uni0163" unicode="&#x163;" horiz-adv-x="426" 
d="M251 183q0 -36 14 -50.5t38 -13.5q15 0 33 5t39 15l32 -108q-30 -18 -66 -28t-74 -10q-48 0 -86.5 18t-60.5 55t-22 92v504h153v-479zM23 514h374v-103h-374v103zM230 9l90 -9l-20 -54q45 -9 63.5 -31t18.5 -49q0 -32 -17 -52.5t-45 -30.5t-61 -10q-27 0 -54.5 5.5
t-50.5 14.5l26 74q12 -5 26.5 -7.5t27.5 -2.5q19 0 30 6.5t11 16.5q0 11 -14 17.5t-38 6.5h-14h-13z" />
    <glyph glyph-name="Tcaron" unicode="&#x164;" horiz-adv-x="601" 
d="M8 700h585v-130h-214v-570h-158v570h-213v130zM362 760h-141l-108 146h121l99 -110h-83l99 110h122z" />
    <glyph glyph-name="tcaron" unicode="&#x165;" horiz-adv-x="426" 
d="M251 183q0 -36 14 -50.5t38 -13.5q15 0 33 5t39 15l32 -108q-30 -18 -66 -28t-74 -10q-48 0 -86.5 18t-60.5 55t-22 92v504h153v-479zM23 514h374v-103h-374v103zM309 742h122l-27 -172h-95v172z" />
    <glyph glyph-name="Tbar" unicode="&#x166;" horiz-adv-x="601" 
d="M8 700h585v-130h-214v-570h-158v570h-213v130zM84 361h430v-84h-430v84z" />
    <glyph glyph-name="tbar" unicode="&#x167;" horiz-adv-x="426" 
d="M98 662h153v-479q0 -36 14 -50.5t38 -13.5q15 0 33 5t39 15l32 -108q-30 -18 -66 -28t-74 -10q-48 0 -86.5 18t-60.5 55t-22 92v504zM23 514h374v-95h-374v95zM23 338h374v-94h-374v94z" />
    <glyph glyph-name="Utilde" unicode="&#x168;" horiz-adv-x="753" 
d="M223 288q0 -77 43 -121.5t113 -44.5q68 0 109.5 44.5t41.5 121.5v412h158v-412q0 -91 -37.5 -158.5t-107 -104t-165.5 -36.5t-166.5 36.5t-108.5 104t-38 158.5v412h158v-412zM552 902q0 -43 -9 -76.5t-29 -52t-54 -18.5q-22 0 -41.5 7t-36.5 16.5t-30.5 16.5t-24.5 7
q-16 0 -21.5 -12t-6.5 -31h-91q0 43 8.5 76t29 52t54.5 19q22 0 41.5 -7t36.5 -16.5t30.5 -16.5t24.5 -7q16 0 21.5 12t6.5 31h91z" />
    <glyph glyph-name="utilde" unicode="&#x169;" horiz-adv-x="660" 
d="M212 242q0 -52 27 -82t74 -30q56 1 87.5 41t31.5 101h37q0 -94 -26.5 -155.5t-75 -91.5t-115.5 -31q-60 0 -103 25.5t-67 71.5t-24 109v337h154v-295zM432 537h153v-537h-153v537zM505 747q0 -43 -9 -76.5t-29 -52t-54 -18.5q-22 0 -41.5 7t-36.5 16.5t-30.5 16.5
t-24.5 7q-16 0 -21.5 -12t-6.5 -31h-91q0 43 8.5 76t29 52t54.5 19q22 0 41.5 -7t36.5 -16.5t30.5 -16.5t24.5 -7q16 0 21.5 12t6.5 31h91z" />
    <glyph glyph-name="Umacron" unicode="&#x16a;" horiz-adv-x="753" 
d="M223 288q0 -77 43 -121.5t113 -44.5q68 0 109.5 44.5t41.5 121.5v412h158v-412q0 -91 -37.5 -158.5t-107 -104t-165.5 -36.5t-166.5 36.5t-108.5 104t-38 158.5v412h158v-412zM211 853h332v-90h-332v90z" />
    <glyph glyph-name="umacron" unicode="&#x16b;" horiz-adv-x="660" 
d="M212 242q0 -52 27 -82t74 -30q56 1 87.5 41t31.5 101h37q0 -94 -26.5 -155.5t-75 -91.5t-115.5 -31q-60 0 -103 25.5t-67 71.5t-24 109v337h154v-295zM432 537h153v-537h-153v537zM178 732h303v-90h-303v90z" />
    <glyph glyph-name="Ubreve" unicode="&#x16c;" horiz-adv-x="753" 
d="M223 288q0 -77 43 -121.5t113 -44.5q68 0 109.5 44.5t41.5 121.5v412h158v-412q0 -91 -37.5 -158.5t-107 -104t-165.5 -36.5t-166.5 36.5t-108.5 104t-38 158.5v412h158v-412zM319 908q2 -26 18 -43.5t40 -17.5t40 17.5t18 43.5h98q-3 -68 -46 -110t-110 -42t-110.5 42
t-45.5 110h98z" />
    </font>
</defs>
</svg>
